<svg width="211" height="205" viewBox="0 0 211 205" fill="none" xmlns="http://www.w3.org/2000/svg">
<rect x="0.5" y="0.5" width="210" height="204" stroke="black"/>
<path d="M87.7953 36.856C87.338 36.856 87.0206 36.758 86.8433 36.562C86.8526 36.7113 86.8573 36.9727 86.8573 37.346V41H85.4153V37.36C85.4153 36.4453 85.3686 35.6567 85.2753 34.994C85.182 34.322 84.9953 33.5193 84.7153 32.586L86.1013 32.096L86.7313 34.546C86.8713 35.078 87.1886 35.344 87.6833 35.344C87.9353 35.344 88.15 35.2693 88.3273 35.12C88.5046 34.9613 88.5933 34.7607 88.5933 34.518C88.5933 34.2007 88.5 33.496 88.3133 32.404L89.7693 32.096C89.956 33.2067 90.0493 34.028 90.0493 34.56C90.0493 34.9987 89.9513 35.3953 89.7553 35.75C89.5593 36.0953 89.2886 36.366 88.9433 36.562C88.6073 36.758 88.2246 36.856 87.7953 36.856ZM99.0006 44.388C97.8059 44.388 96.8866 44.0427 96.2426 43.352C95.5986 42.6707 95.2766 41.7093 95.2766 40.468V37.752H96.7186V40.44C96.7186 42.064 97.4839 42.876 99.0146 42.876H99.5886C100.335 42.876 100.923 42.6707 101.353 42.26C101.782 41.8493 101.997 41.2847 101.997 40.566V31.956H103.453V38.62C103.453 38.8907 103.532 39.1053 103.691 39.264C103.859 39.4133 104.097 39.488 104.405 39.488H104.727C104.82 39.488 104.867 39.7493 104.867 40.272C104.867 40.7573 104.82 41 104.727 41H104.461C104.246 41 104.045 40.972 103.859 40.916C103.681 40.86 103.546 40.79 103.453 40.706V40.776C103.434 41.476 103.261 42.1013 102.935 42.652C102.608 43.2027 102.155 43.6273 101.577 43.926C100.998 44.234 100.335 44.388 99.5886 44.388H99.0006ZM108.549 39.488C108.903 39.488 109.179 39.4273 109.375 39.306C109.571 39.1753 109.669 39.0027 109.669 38.788C109.669 38.6107 109.627 38.4473 109.543 38.298C109.459 38.1487 109.323 37.976 109.137 37.78L105.973 34.658V33.44L111.153 31.41L111.587 32.796L107.709 34.28L110.215 36.814C111.073 37.6633 111.703 38.27 112.105 38.634C112.515 38.9887 112.842 39.222 113.085 39.334C113.327 39.4367 113.607 39.488 113.925 39.488C114.018 39.488 114.065 39.7493 114.065 40.272C114.065 40.7573 114.018 41 113.925 41C113.486 41 113.127 40.9673 112.847 40.902C112.576 40.8273 112.296 40.6873 112.007 40.482C111.727 40.2767 111.367 39.9547 110.929 39.516C110.826 39.9733 110.565 40.3373 110.145 40.608C109.725 40.8693 109.193 41 108.549 41H104.727C104.633 41 104.587 40.7573 104.587 40.272C104.587 39.7493 104.633 39.488 104.727 39.488H108.549ZM115.034 39.488C115.416 39.488 115.706 39.404 115.902 39.236C116.098 39.0587 116.196 38.8113 116.196 38.494V36.352H117.652V38.494C117.652 39.1567 118.03 39.488 118.786 39.488C119.168 39.488 119.458 39.404 119.654 39.236C119.85 39.0587 119.948 38.8113 119.948 38.494V36.352H121.404V38.494C121.404 38.8113 121.492 39.0587 121.67 39.236C121.847 39.404 122.113 39.488 122.468 39.488C122.832 39.488 123.102 39.404 123.28 39.236C123.466 39.0587 123.56 38.8113 123.56 38.494V36.352H125.002V38.48C125.002 39.2733 124.778 39.894 124.33 40.342C123.882 40.7807 123.261 41 122.468 41C121.516 41 120.9 40.7293 120.62 40.188C120.256 40.7293 119.644 41 118.786 41C118.263 41 117.848 40.9347 117.54 40.804C117.232 40.664 117.008 40.4587 116.868 40.188C116.504 40.7293 115.892 41 115.034 41H113.928C113.834 41 113.788 40.7573 113.788 40.272C113.788 39.7493 113.834 39.488 113.928 39.488H115.034ZM121.362 31.354V32.656H119.892V31.354H121.362ZM122.524 33.412V34.756H118.716V33.412H122.524Z" fill="#E4E2E7"/>
<path d="M45 63H75V93H45V63Z" fill="#E7B99C"/>
<path d="M75 93V94H76V93H75ZM74 63V93H76V63H74ZM75 92H45V94H75V92Z" fill="#4B71B8"/>
<path d="M75 63H105V93H75V63Z" fill="#A382C6"/>
<path d="M105 93V94H106V93H105ZM75 93H74V94H75V93ZM104 63V93H106V63H104ZM105 92H75V94H105V92ZM76 93V63H74V93H76Z" fill="#4B71B8"/>
<path d="M105 63H135V93H105V63Z" fill="#A382C6"/>
<path d="M135 93V94H136V93H135ZM105 93H104V94H105V93ZM134 63V93H136V63H134ZM135 92H105V94H135V92ZM106 93V63H104V93H106Z" fill="#4B71B8"/>
<path d="M135 63H165V93H135V63Z" fill="#E7B99C"/>
<path d="M135 93H134V94H135V93ZM165 92H135V94H165V92ZM136 93V63H134V93H136Z" fill="#4B71B8"/>
<path d="M45 93H75V123H45V93Z" fill="#A382C6"/>
<path d="M75 93H76V92H75V93ZM75 123V124H76V123H75ZM45 94H75V92H45V94ZM74 93V123H76V93H74ZM75 122H45V124H75V122Z" fill="#4B71B8"/>
<rect x="75" y="93" width="30" height="30" fill="#A382C6" stroke="#4B71B8" stroke-width="2"/>
<rect x="105" y="93" width="30" height="30" fill="#A382C6" stroke="#4B71B8" stroke-width="2"/>
<path d="M135 93H165V123H135V93Z" fill="#A382C6"/>
<path d="M135 93V92H134V93H135ZM135 123H134V124H135V123ZM135 94H165V92H135V94ZM165 122H135V124H165V122ZM136 123V93H134V123H136Z" fill="#4B71B8"/>
<path d="M45 123H75V153H45V123Z" fill="#A382C6"/>
<path d="M75 123H76V122H75V123ZM75 153V154H76V153H75ZM45 124H75V122H45V124ZM74 123V153H76V123H74ZM75 152H45V154H75V152Z" fill="#4B71B8"/>
<rect x="75" y="123" width="30" height="30" fill="#A382C6" stroke="#4B71B8" stroke-width="2"/>
<rect x="105" y="123" width="30" height="30" fill="#A382C6" stroke="#4B71B8" stroke-width="2"/>
<path d="M135 123H165V153H135V123Z" fill="#A382C6"/>
<path d="M135 123V122H134V123H135ZM135 153H134V154H135V153ZM135 124H165V122H135V124ZM165 152H135V154H165V152ZM136 153V123H134V153H136Z" fill="#4B71B8"/>
<path d="M45 153H75V183H45V153Z" fill="#E7B99C"/>
<path d="M75 153H76V152H75V153ZM45 154H75V152H45V154ZM74 153V183H76V153H74Z" fill="#4B71B8"/>
<path d="M75 153H105V183H75V153Z" fill="#A382C6"/>
<path d="M75 153V152H74V153H75ZM105 153H106V152H105V153ZM75 154H105V152H75V154ZM104 153V183H106V153H104ZM76 183V153H74V183H76Z" fill="#4B71B8"/>
<path d="M105 153H135V183H105V153Z" fill="#A382C6"/>
<path d="M105 153V152H104V153H105ZM135 153H136V152H135V153ZM105 154H135V152H105V154ZM134 153V183H136V153H134ZM106 183V153H104V183H106Z" fill="#4B71B8"/>
<path d="M135 153H165V183H135V153Z" fill="#E7B99C"/>
<path d="M135 153V152H134V153H135ZM135 154H165V152H135V154ZM136 183V153H134V183H136Z" fill="#4B71B8"/>
</svg>
