<svg width="611" height="541" viewBox="0 0 611 541" fill="none" xmlns="http://www.w3.org/2000/svg">
<circle cx="56.5" cy="79.5" r="11.5" fill="#36BFFA" stroke="black" stroke-width="6"/>
<circle cx="56.5" cy="134.5" r="11.5" fill="#FD6F8E" stroke="black" stroke-width="6"/>
<circle cx="56.5" cy="189.5" r="11.5" fill="#13CBC0" stroke="black" stroke-width="6"/>
<circle cx="111.5" cy="79.5" r="11.5" fill="#FD6F8E" stroke="black" stroke-width="6"/>
<ellipse cx="503" cy="79.5" rx="11" ry="11.5" fill="#F79009" stroke="black" stroke-width="4"/>
<circle cx="111.5" cy="134.5" r="11.5" fill="#FD6F8E" stroke="black" stroke-width="6"/>
<ellipse cx="503" cy="134.5" rx="11" ry="11.5" fill="#F79009" stroke="black" stroke-width="4"/>
<ellipse cx="503" cy="189.5" rx="11" ry="11.5" fill="#F79009" stroke="black" stroke-width="4"/>
<circle cx="111.5" cy="189.5" r="11.5" fill="#13CBC0" stroke="black" stroke-width="6"/>
<circle cx="166.5" cy="79.5" r="11.5" fill="#13CBC0" stroke="black" stroke-width="6"/>
<ellipse cx="558" cy="134.5" rx="11" ry="11.5" fill="#F79009" stroke="black" stroke-width="4"/>
<ellipse cx="558" cy="79.5" rx="11" ry="11.5" fill="#F79009" stroke="black" stroke-width="4"/>
<ellipse cx="558" cy="189.5" rx="11" ry="11.5" fill="#F79009" stroke="black" stroke-width="4"/>
<circle cx="166.5" cy="134.5" r="11.5" fill="#13CBC0" stroke="black" stroke-width="6"/>
<circle cx="166.5" cy="189.5" r="11.5" fill="#13CBC0" stroke="black" stroke-width="6"/>
<path d="M85 108V110C86.1046 110 87 109.105 87 108H85ZM28 110H30.0357V106H28V110ZM34.1071 110H38.1786V106H34.1071V110ZM42.25 110H46.3214V106H42.25V110ZM50.3929 110H54.4643V106H50.3929V110ZM58.5357 110H62.6071V106H58.5357V110ZM66.6786 110H70.75V106H66.6786V110ZM74.8214 110H78.8929V106H74.8214V110ZM82.9643 110H85V106H82.9643V110ZM87 108V105.964H83V108H87ZM87 101.893V97.8214H83V101.893H87ZM87 93.75V89.6786H83V93.75H87ZM87 85.6071V81.5357H83V85.6071H87ZM87 77.4643V73.3929H83V77.4643H87ZM87 69.3214V65.25H83V69.3214H87ZM87 61.1786V57.1071H83V61.1786H87ZM87 53.0357V51H83V53.0357H87Z" fill="#CFCBD1"/>
<path d="M141 163V165C142.105 165 143 164.105 143 163H141ZM28 165H30.0179V161H28V165ZM34.0536 165H38.0893V161H34.0536V165ZM42.125 165H46.1607V161H42.125V165ZM50.1964 165H54.2321V161H50.1964V165ZM58.2679 165H62.3036V161H58.2679V165ZM66.3393 165H70.375V161H66.3393V165ZM74.4107 165H78.4464V161H74.4107V165ZM82.4821 165H86.5178V161H82.4821V165ZM90.5536 165H94.5893V161H90.5536V165ZM98.625 165H102.661V161H98.625V165ZM106.696 165H110.732V161H106.696V165ZM114.768 165H118.804V161H114.768V165ZM122.839 165H126.875V161H122.839V165ZM130.911 165H134.946V161H130.911V165ZM138.982 165H141V161H138.982V165ZM143 163V161H139V163H143ZM143 157V153H139V157H143ZM143 149V145H139V149H143ZM143 141V137H139V141H143ZM143 133V129H139V133H143ZM143 125V121H139V125H143ZM143 117V113H139V117H143ZM143 109V105H139V109H143ZM143 101V97H139V101H143ZM143 93V89H139V93H143ZM143 85V81H139V85H143ZM143 77V73H139V77H143ZM143 69V65H139V69H143ZM143 61V57H139V61H143ZM143 53V51H139V53H143Z" fill="#CFCBD1"/>
<path d="M231 82H233.036V78H231V82ZM237.107 82H241.179V78H237.107V82ZM245.25 82H249.321V78H245.25V82ZM253.393 82H257.464V78H253.393V82ZM261.536 82H265.607V78H261.536V82ZM269.679 82H273.75V78H269.679V82ZM277.821 82H281.893V78H277.821V82ZM285.964 82H290.036V78H285.964V82ZM294.107 82H298.179V78H294.107V82ZM302.25 82H306.321V78H302.25V82ZM310.393 82H314.464V78H310.393V82ZM318.536 82H322.607V78H318.536V82ZM326.679 82H330.75V78H326.679V82ZM334.821 82H338.893V78H334.821V82ZM342.964 82H347.036V78H342.964V82ZM351.107 82H355.179V78H351.107V82ZM359.25 82H363.321V78H359.25V82ZM367.393 82H371.464V78H367.393V82ZM375.536 82H379.607V78H375.536V82ZM383.679 82H387.75V78H383.679V82ZM391.821 82H395.893V78H391.821V82ZM399.964 82H402V78H399.964V82Z" fill="#CFCBD1"/>
<path d="M231 137H233.036V133H231V137ZM237.107 137H241.179V133H237.107V137ZM245.25 137H249.321V133H245.25V137ZM253.393 137H257.464V133H253.393V137ZM261.536 137H265.607V133H261.536V137ZM269.679 137H273.75V133H269.679V137ZM277.821 137H281.893V133H277.821V137ZM285.964 137H290.036V133H285.964V137ZM294.107 137H298.179V133H294.107V137ZM302.25 137H306.321V133H302.25V137ZM310.393 137H314.464V133H310.393V137ZM318.536 137H322.607V133H318.536V137ZM326.679 137H330.75V133H326.679V137ZM334.821 137H338.893V133H334.821V137ZM342.964 137H347.036V133H342.964V137ZM351.107 137H355.179V133H351.107V137ZM359.25 137H363.321V133H359.25V137ZM367.393 137H371.464V133H367.393V137ZM375.536 137H379.607V133H375.536V137ZM383.679 137H387.75V133H383.679V137ZM391.821 137H395.893V133H391.821V137ZM399.964 137H402V133H399.964V137Z" fill="#CFCBD1"/>
<path d="M168 339V337.019H164V339H168ZM168 333.058V329.096H164V333.058H168ZM168 325.135V321.173H164V325.135H168ZM168 317.212V313.25H164V317.212H168ZM168 309.288V305.327H164V309.288H168ZM168 301.365V297.404H164V301.365H168ZM168 293.442V289.481H164V293.442H168ZM168 285.519V281.558H164V285.519H168ZM168 277.596V273.635H164V277.596H168ZM168 269.673V265.712H164V269.673H168ZM168 261.75V257.788H164V261.75H168ZM168 253.827V249.865H164V253.827H168ZM168 245.904V241.942H164V245.904H168ZM168 237.981V236H164V237.981H168Z" fill="#CFCBD1"/>
<path d="M505 339V337.019H501V339H505ZM505 333.058V329.096H501V333.058H505ZM505 325.135V321.173H501V325.135H505ZM505 317.212V313.25H501V317.212H505ZM505 309.288V305.327H501V309.288H505ZM505 301.365V297.404H501V301.365H505ZM505 293.442V289.481H501V293.442H505ZM505 285.519V281.558H501V285.519H505ZM505 277.596V273.635H501V277.596H505ZM505 269.673V265.712H501V269.673H505ZM505 261.75V257.788H501V261.75H505ZM505 253.827V249.865H501V253.827H505ZM505 245.904V241.942H501V245.904H505ZM505 237.981V236H501V237.981H505Z" fill="#CFCBD1"/>
<path d="M560 339V337.019H556V339H560ZM560 333.058V329.096H556V333.058H560ZM560 325.135V321.173H556V325.135H560ZM560 317.212V313.25H556V317.212H560ZM560 309.288V305.327H556V309.288H560ZM560 301.365V297.404H556V301.365H560ZM560 293.442V289.481H556V293.442H560ZM560 285.519V281.558H556V285.519H560ZM560 277.596V273.635H556V277.596H560ZM560 269.673V265.712H556V269.673H560ZM560 261.75V257.788H556V261.75H560ZM560 253.827V249.865H556V253.827H560ZM560 245.904V241.942H556V245.904H560ZM560 237.981V236H556V237.981H560Z" fill="#CFCBD1"/>
<path d="M113 339V337.019H109V339H113ZM113 333.058V329.096H109V333.058H113ZM113 325.135V321.173H109V325.135H113ZM113 317.212V313.25H109V317.212H113ZM113 309.288V305.327H109V309.288H113ZM113 301.365V297.404H109V301.365H113ZM113 293.442V289.481H109V293.442H113ZM113 285.519V281.558H109V285.519H113ZM113 277.596V273.635H109V277.596H113ZM113 269.673V265.712H109V269.673H113ZM113 261.75V257.788H109V261.75H113ZM113 253.827V249.865H109V253.827H113ZM113 245.904V241.942H109V245.904H113ZM113 237.981V236H109V237.981H113Z" fill="#CFCBD1"/>
<path d="M58 339V337.019H54V339H58ZM58 333.058V329.096H54V333.058H58ZM58 325.135V321.173H54V325.135H58ZM58 317.212V313.25H54V317.212H58ZM58 309.288V305.327H54V309.288H58ZM58 301.365V297.404H54V301.365H58ZM58 293.442V289.481H54V293.442H58ZM58 285.519V281.558H54V285.519H58ZM58 277.596V273.635H54V277.596H58ZM58 269.673V265.712H54V269.673H58ZM58 261.75V257.788H54V261.75H58ZM58 253.827V249.865H54V253.827H58ZM58 245.904V241.942H54V245.904H58ZM58 237.981V236H54V237.981H58Z" fill="#CFCBD1"/>
<path d="M474 378V380C475.105 380 476 379.105 476 378H474ZM28 380H29.9911V376H28V380ZM33.9732 380H37.9554V376H33.9732V380ZM41.9375 380H45.9196V376H41.9375V380ZM49.9018 380H53.8839V376H49.9018V380ZM57.8661 380H61.8482V376H57.8661V380ZM65.8304 380H69.8125V376H65.8304V380ZM73.7946 380H77.7768V376H73.7946V380ZM81.7589 380H85.7411V376H81.7589V380ZM89.7232 380H93.7054V376H89.7232V380ZM97.6875 380H101.67V376H97.6875V380ZM105.652 380H109.634V376H105.652V380ZM113.616 380H117.598V376H113.616V380ZM121.58 380H125.562V376H121.58V380ZM129.545 380H133.527V376H129.545V380ZM137.509 380H141.491V376H137.509V380ZM145.473 380H149.455V376H145.473V380ZM153.437 380H157.42V376H153.437V380ZM161.402 380H165.384V376H161.402V380ZM169.366 380H173.348V376H169.366V380ZM177.33 380H181.312V376H177.33V380ZM185.295 380H189.277V376H185.295V380ZM193.259 380H197.241V376H193.259V380ZM201.223 380H205.205V376H201.223V380ZM209.188 380H213.17V376H209.188V380ZM217.152 380H221.134V376H217.152V380ZM225.116 380H229.098V376H225.116V380ZM233.08 380H237.063V376H233.08V380ZM241.045 380H245.027V376H241.045V380ZM249.009 380H252.991V376H249.009V380ZM256.973 380H260.955V376H256.973V380ZM264.938 380H268.92V376H264.938V380ZM272.902 380H276.884V376H272.902V380ZM280.866 380H284.848V376H280.866V380ZM288.83 380H292.813V376H288.83V380ZM296.795 380H300.777V376H296.795V380ZM304.759 380H308.741V376H304.759V380ZM312.723 380H316.705V376H312.723V380ZM320.688 380H324.67V376H320.688V380ZM328.652 380H332.634V376H328.652V380ZM336.616 380H340.598V376H336.616V380ZM344.581 380H348.563V376H344.581V380ZM352.545 380H356.527V376H352.545V380ZM360.509 380H364.491V376H360.509V380ZM368.473 380H372.456V376H368.473V380ZM376.438 380H380.42V376H376.438V380ZM384.402 380H388.384V376H384.402V380ZM392.366 380H396.348V376H392.366V380ZM400.331 380H404.313V376H400.331V380ZM408.295 380H412.277V376H408.295V380ZM416.259 380H420.241V376H416.259V380ZM424.223 380H428.206V376H424.223V380ZM432.188 380H436.17V376H432.188V380ZM440.152 380H444.134V376H440.152V380ZM448.116 380H452.098V376H448.116V380ZM456.081 380H460.063V376H456.081V380ZM464.045 380H468.027V376H464.045V380ZM472.009 380H474V376H472.009V380ZM476 378V376.006H472V378H476ZM476 372.018V368.03H472V372.018H476ZM476 364.043V360.055H472V364.043H476ZM476 356.067V352.079H472V356.067H476ZM476 348.091V344.104H472V348.091H476ZM476 340.116V336.128H472V340.116H476ZM476 332.14V328.152H472V332.14H476ZM476 324.165V320.177H472V324.165H476ZM476 316.189V312.201H472V316.189H476ZM476 308.213V304.226H472V308.213H476ZM476 300.238V296.25H472V300.238H476ZM476 292.262V288.274H472V292.262H476ZM476 284.287V280.299H472V284.287H476ZM476 276.311V272.323H472V276.311H476ZM476 268.335V264.348H472V268.335H476ZM476 260.36V256.372H472V260.36H476ZM476 252.384V248.396H472V252.384H476ZM476 244.408V240.421H472V244.408H476ZM476 236.433V232.445H472V236.433H476ZM476 228.457V224.469H472V228.457H476ZM476 220.482V216.494H472V220.482H476ZM476 212.506V208.518H472V212.506H476ZM476 204.53V200.543H472V204.53H476ZM476 196.555V192.567H472V196.555H476ZM476 188.579V184.591H472V188.579H476ZM476 180.604V176.616H472V180.604H476ZM476 172.628V168.64H472V172.628H476ZM476 164.652V160.665H472V164.652H476ZM476 156.677V152.689H472V156.677H476ZM476 148.701V144.713H472V148.701H476ZM476 140.725V136.738H472V140.725H476ZM476 132.75V128.762H472V132.75H476ZM476 124.774V120.786H472V124.774H476ZM476 116.799V112.811H472V116.799H476ZM476 108.823V104.835H472V108.823H476ZM476 100.847V96.8597H472V100.847H476ZM476 92.8719V88.8841H472V92.8719H476ZM476 84.8963V80.9085H472V84.8963H476ZM476 76.9207V72.9329H472V76.9207H476ZM476 68.9451V64.9573H472V68.9451H476ZM476 60.9695V56.9818H472V60.9695H476ZM476 52.994V51H472V52.994H476Z" fill="#CFCBD1"/>
<path d="M529 433V435C530.105 435 531 434.105 531 433H529ZM28 435H29.9881V431H28V435ZM33.9643 435H37.9405V431H33.9643V435ZM41.9167 435H45.8929V431H41.9167V435ZM49.869 435H53.8452V431H49.869V435ZM57.8214 435H61.7976V431H57.8214V435ZM65.7738 435H69.75V431H65.7738V435ZM73.7262 435H77.7024V431H73.7262V435ZM81.6786 435H85.6548V431H81.6786V435ZM89.6309 435H93.6071V431H89.6309V435ZM97.5833 435H101.56V431H97.5833V435ZM105.536 435H109.512V431H105.536V435ZM113.488 435H117.464V431H113.488V435ZM121.44 435H125.417V431H121.44V435ZM129.393 435H133.369V431H129.393V435ZM137.345 435H141.321V431H137.345V435ZM145.298 435H149.274V431H145.298V435ZM153.25 435H157.226V431H153.25V435ZM161.202 435H165.179V431H161.202V435ZM169.155 435H173.131V431H169.155V435ZM177.107 435H181.083V431H177.107V435ZM185.06 435H189.036V431H185.06V435ZM193.012 435H196.988V431H193.012V435ZM200.964 435H204.941V431H200.964V435ZM208.917 435H212.893V431H208.917V435ZM216.869 435H220.845V431H216.869V435ZM224.821 435H228.798V431H224.821V435ZM232.774 435H236.75V431H232.774V435ZM240.726 435H244.702V431H240.726V435ZM248.679 435H252.655V431H248.679V435ZM256.631 435H260.607V431H256.631V435ZM264.583 435H268.56V431H264.583V435ZM272.536 435H276.512V431H272.536V435ZM280.488 435H284.464V431H280.488V435ZM288.441 435H292.417V431H288.441V435ZM296.393 435H300.369V431H296.393V435ZM304.345 435H308.322V431H304.345V435ZM312.298 435H316.274V431H312.298V435ZM320.25 435H324.226V431H320.25V435ZM328.203 435H332.179V431H328.203V435ZM336.155 435H340.131V431H336.155V435ZM344.107 435H348.084V431H344.107V435ZM352.06 435H356.036V431H352.06V435ZM360.012 435H363.988V431H360.012V435ZM367.965 435H371.941V431H367.965V435ZM375.917 435H379.893V431H375.917V435ZM383.869 435H387.846V431H383.869V435ZM391.822 435H395.798V431H391.822V435ZM399.774 435H403.75V431H399.774V435ZM407.727 435H411.703V431H407.727V435ZM415.679 435H419.655V431H415.679V435ZM423.631 435H427.607V431H423.631V435ZM431.584 435H435.56V431H431.584V435ZM439.536 435H443.512V431H439.536V435ZM447.488 435H451.465V431H447.488V435ZM455.441 435H459.417V431H455.441V435ZM463.393 435H467.369V431H463.393V435ZM471.346 435H475.322V431H471.346V435ZM479.298 435H483.274V431H479.298V435ZM487.25 435H491.227V431H487.25V435ZM495.203 435H499.179V431H495.203V435ZM503.155 435H507.131V431H503.155V435ZM511.108 435H515.084V431H511.108V435ZM519.06 435H523.036V431H519.06V435ZM527.012 435H529V431H527.012V435ZM531 433V431.01H527V433H531ZM531 427.031V423.052H527V427.031H531ZM531 419.073V415.094H527V419.073H531ZM531 411.115V407.135H527V411.115H531ZM531 403.156V399.177H527V403.156H531ZM531 395.198V391.219H527V395.198H531ZM531 387.24V383.26H527V387.24H531ZM531 379.281V375.302H527V379.281H531ZM531 371.323V367.344H527V371.323H531ZM531 363.365V359.385H527V363.365H531ZM531 355.406V351.427H527V355.406H531ZM531 347.448V343.469H527V347.448H531ZM531 339.49V335.51H527V339.49H531ZM531 331.531V327.552H527V331.531H531ZM531 323.573V319.594H527V323.573H531ZM531 315.615V311.635H527V315.615H531ZM531 307.656V303.677H527V307.656H531ZM531 299.698V295.719H527V299.698H531ZM531 291.74V287.76H527V291.74H531ZM531 283.781V279.802H527V283.781H531ZM531 275.823V271.844H527V275.823H531ZM531 267.865V263.885H527V267.865H531ZM531 259.906V255.927H527V259.906H531ZM531 251.948V247.969H527V251.948H531ZM531 243.99V240.01H527V243.99H531ZM531 236.031V232.052H527V236.031H531ZM531 228.073V224.094H527V228.073H531ZM531 220.115V216.135H527V220.115H531ZM531 212.156V208.177H527V212.156H531ZM531 204.198V200.219H527V204.198H531ZM531 196.239V192.26H527V196.239H531ZM531 188.281V184.302H527V188.281H531ZM531 180.323V176.344H527V180.323H531ZM531 172.364V168.385H527V172.364H531ZM531 164.406V160.427H527V164.406H531ZM531 156.448V152.469H527V156.448H531ZM531 148.49V144.51H527V148.49H531ZM531 140.531V136.552H527V140.531H531ZM531 132.573V128.594H527V132.573H531ZM531 124.615V120.635H527V124.615H531ZM531 116.656V112.677H527V116.656H531ZM531 108.698V104.719H527V108.698H531ZM531 100.74V96.7605H527V100.74H531ZM531 92.7813V88.8022H527V92.7813H531ZM531 84.823V80.8439H527V84.823H531ZM531 76.8647V72.8856H527V76.8647H531ZM531 68.9064V64.9272H527V68.9064H531ZM531 60.9481V56.9689H527V60.9481H531ZM531 52.9898V51H527V52.9898H531Z" fill="#CFCBD1"/>
<path d="M588 490V492C589.105 492 590 491.105 590 490H588ZM28 492H30V488H28V492ZM34 492H38V488H34V492ZM42 492H46V488H42V492ZM50 492H54V488H50V492ZM58 492H62V488H58V492ZM66 492H70V488H66V492ZM74 492H78V488H74V492ZM82 492H86V488H82V492ZM90 492H94V488H90V492ZM98 492H102V488H98V492ZM106 492H110V488H106V492ZM114 492H118V488H114V492ZM122 492H126V488H122V492ZM130 492H134V488H130V492ZM138 492H142V488H138V492ZM146 492H150V488H146V492ZM154 492H158V488H154V492ZM162 492H166V488H162V492ZM170 492H174V488H170V492ZM178 492H182V488H178V492ZM186 492H190V488H186V492ZM194 492H198V488H194V492ZM202 492H206V488H202V492ZM210 492H214V488H210V492ZM218 492H222V488H218V492ZM226 492H230V488H226V492ZM234 492H238V488H234V492ZM242 492H246V488H242V492ZM250 492H254V488H250V492ZM258 492H262V488H258V492ZM266 492H270V488H266V492ZM274 492H278V488H274V492ZM282 492H286V488H282V492ZM290 492H294V488H290V492ZM298 492H302V488H298V492ZM306 492H310V488H306V492ZM314 492H318V488H314V492ZM322 492H326V488H322V492ZM330 492H334V488H330V492ZM338 492H342V488H338V492ZM346 492H350V488H346V492ZM354 492H358V488H354V492ZM362 492H366V488H362V492ZM370 492H374V488H370V492ZM378 492H382V488H378V492ZM386 492H390V488H386V492ZM394 492H398V488H394V492ZM402 492H406V488H402V492ZM410 492H414V488H410V492ZM418 492H422V488H418V492ZM426 492H430V488H426V492ZM434 492H438V488H434V492ZM442 492H446V488H442V492ZM450 492H454V488H450V492ZM458 492H462V488H458V492ZM466 492H470V488H466V492ZM474 492H478V488H474V492ZM482 492H486V488H482V492ZM490 492H494V488H490V492ZM498 492H502V488H498V492ZM506 492H510V488H506V492ZM514 492H518V488H514V492ZM522 492H526V488H522V492ZM530 492H534V488H530V492ZM538 492H542V488H538V492ZM546 492H550V488H546V492ZM554 492H558V488H554V492ZM562 492H566V488H562V492ZM570 492H574V488H570V492ZM578 492H582V488H578V492ZM586 492H588V488H586V492ZM590 490V488.005H586V490H590ZM590 484.014V480.023H586V484.014H590ZM590 476.032V472.041H586V476.032H590ZM590 468.05V464.059H586V468.05H590ZM590 460.068V456.077H586V460.068H590ZM590 452.086V448.095H586V452.086H590ZM590 444.105V440.114H586V444.105H590ZM590 436.123V432.132H586V436.123H590ZM590 428.141V424.15H586V428.141H590ZM590 420.159V416.168H586V420.159H590ZM590 412.177V408.186H586V412.177H590ZM590 404.195V400.205H586V404.195H590ZM590 396.214V392.223H586V396.214H590ZM590 388.232V384.241H586V388.232H590ZM590 380.25V376.259H586V380.25H590ZM590 372.268V368.277H586V372.268H590ZM590 364.286V360.295H586V364.286H590ZM590 356.305V352.314H586V356.305H590ZM590 348.323V344.332H586V348.323H590ZM590 340.341V336.35H586V340.341H590ZM590 332.359V328.368H586V332.359H590ZM590 324.377V320.386H586V324.377H590ZM590 316.396V312.405H586V316.396H590ZM590 308.414V304.423H586V308.414H590ZM590 300.432V296.441H586V300.432H590ZM590 292.45V288.459H586V292.45H590ZM590 284.468V280.477H586V284.468H590ZM590 276.486V272.496H586V276.486H590ZM590 268.505V264.514H586V268.505H590ZM590 260.523V256.532H586V260.523H590ZM590 252.541V248.55H586V252.541H590ZM590 244.559V240.568H586V244.559H590ZM590 236.577V232.587H586V236.577H590ZM590 228.596V224.605H586V228.596H590ZM590 220.614V216.623H586V220.614H590ZM590 212.632V208.641H586V212.632H590ZM590 204.65V200.659H586V204.65H590ZM590 196.668V192.677H586V196.668H590ZM590 188.687V184.696H586V188.687H590ZM590 180.705V176.714H586V180.705H590ZM590 172.723V168.732H586V172.723H590ZM590 164.741V160.75H586V164.741H590ZM590 156.759V152.768H586V156.759H590ZM590 148.777V144.787H586V148.777H590ZM590 140.796V136.805H586V140.796H590ZM590 132.814V128.823H586V132.814H590ZM590 124.832V120.841H586V124.832H590ZM590 116.85V112.859H586V116.85H590ZM590 108.868V104.878H586V108.868H590ZM590 100.887V96.8957H586V100.887H590ZM590 92.9048V88.9139H586V92.9048H590ZM590 84.923V80.9321H586V84.923H590ZM590 76.9412V72.9503H586V76.9412H590ZM590 68.9594V64.9685H586V68.9594H590ZM590 60.9776V56.9867H586V60.9776H590ZM590 52.9958V51H586V52.9958H590Z" fill="#CFCBD1"/>
<circle cx="503.5" cy="404.5" r="11.5" fill="#F79009" stroke="black" stroke-width="4"/>
<circle cx="503.5" cy="459.5" r="11.5" fill="#F79009" stroke="black" stroke-width="4"/>
<circle cx="558.5" cy="404.5" r="11.5" fill="#F79009" stroke="black" stroke-width="4"/>
<circle cx="558.5" cy="459.5" r="11.5" fill="#F79009" stroke="black" stroke-width="4"/>
<ellipse cx="57" cy="404.5" rx="11" ry="11.5" fill="#F79009" stroke="black" stroke-width="4"/>
<ellipse cx="57" cy="459.5" rx="11" ry="11.5" fill="#F79009" stroke="black" stroke-width="4"/>
<circle cx="112.5" cy="404.5" r="11.5" fill="#F79009" stroke="black" stroke-width="4"/>
<circle cx="112.5" cy="459.5" r="11.5" fill="#F79009" stroke="black" stroke-width="4"/>
<circle cx="167.5" cy="404.5" r="11.5" fill="#F79009" stroke="black" stroke-width="4"/>
<circle cx="167.5" cy="459.5" r="11.5" fill="#F79009" stroke="black" stroke-width="4"/>
<path d="M231 407H233.036V403H231V407ZM237.107 407H241.179V403H237.107V407ZM245.25 407H249.321V403H245.25V407ZM253.393 407H257.464V403H253.393V407ZM261.536 407H265.607V403H261.536V407ZM269.679 407H273.75V403H269.679V407ZM277.821 407H281.893V403H277.821V407ZM285.964 407H290.036V403H285.964V407ZM294.107 407H298.179V403H294.107V407ZM302.25 407H306.321V403H302.25V407ZM310.393 407H314.464V403H310.393V407ZM318.536 407H322.607V403H318.536V407ZM326.679 407H330.75V403H326.679V407ZM334.821 407H338.893V403H334.821V407ZM342.964 407H347.036V403H342.964V407ZM351.107 407H355.179V403H351.107V407ZM359.25 407H363.321V403H359.25V407ZM367.393 407H371.464V403H367.393V407ZM375.536 407H379.607V403H375.536V407ZM383.679 407H387.75V403H383.679V407ZM391.821 407H395.893V403H391.821V407ZM399.964 407H402V403H399.964V407Z" fill="#CFCBD1"/>
<path d="M231 462H233.036V458H231V462ZM237.107 462H241.179V458H237.107V462ZM245.25 462H249.321V458H245.25V462ZM253.393 462H257.464V458H253.393V462ZM261.536 462H265.607V458H261.536V462ZM269.679 462H273.75V458H269.679V462ZM277.821 462H281.893V458H277.821V462ZM285.964 462H290.036V458H285.964V462ZM294.107 462H298.179V458H294.107V462ZM302.25 462H306.321V458H302.25V462ZM310.393 462H314.464V458H310.393V462ZM318.536 462H322.607V458H318.536V462ZM326.679 462H330.75V458H326.679V462ZM334.821 462H338.893V458H334.821V462ZM342.964 462H347.036V458H342.964V462ZM351.107 462H355.179V458H351.107V462ZM359.25 462H363.321V458H359.25V462ZM367.393 462H371.464V458H367.393V462ZM375.536 462H379.607V458H375.536V462ZM383.679 462H387.75V458H383.679V462ZM391.821 462H395.893V458H391.821V462ZM399.964 462H402V458H399.964V462Z" fill="#CFCBD1"/>
</svg>
