<svg width="468" height="468" viewBox="0 0 468 468" fill="none" xmlns="http://www.w3.org/2000/svg">
<circle cx="234.5" cy="233" r="134" fill="#9000FF" fill-opacity="0.2" stroke="white" stroke-width="2"/>
<path d="M233.5 59L227.726 69L239.273 69L233.5 59ZM234.5 408L234.5 68L232.5 68L232.5 408L234.5 408Z" fill="white"/>
<path d="M408 233.5L398 227.726V239.274L408 233.5ZM59 234.5L399 234.5V232.5L59 232.5V234.5Z" fill="white"/>
<path d="M229.316 441.45C228.336 442.49 227.086 443.01 225.566 443.01C224.926 443.01 224.386 442.97 223.946 442.89C223.526 442.83 223.106 442.7 222.686 442.5V439.53C223.166 439.73 223.706 439.83 224.306 439.83C224.966 439.83 225.496 439.66 225.896 439.32C226.296 438.98 226.696 438.44 227.096 437.7L221.396 424.5H225.716L229.106 433.5L232.586 424.5H236.816L231.926 436.92C231.166 438.92 230.296 440.43 229.316 441.45ZM246.714 415.32C246.434 415.6 246.064 415.94 245.604 416.34C245.144 416.74 244.644 417.16 244.104 417.6C243.584 418.04 243.064 418.46 242.544 418.86C242.044 419.24 241.604 419.56 241.224 419.82H238.254V419.43C238.574 419.05 238.944 418.61 239.364 418.11C239.804 417.59 240.234 417.06 240.654 416.52C241.074 415.96 241.424 415.46 241.704 415.02H246.714V415.32Z" fill="white"/>
<path d="M309.521 51.85H332.121V58.2H309.521V51.85ZM348.518 50.95C347.218 50.95 346.268 50.7667 345.668 50.4V52.15V65H339.318V52.25C339.318 48.9833 339.151 46.1833 338.818 43.85C338.484 41.5167 337.818 38.7 336.818 35.4L342.918 33.25L345.168 41.95C345.534 43.5167 346.451 44.3 347.918 44.3C348.651 44.3 349.251 44.1 349.718 43.7C350.218 43.2667 350.468 42.7 350.468 42C350.468 41.0667 350.134 38.5833 349.468 34.55L355.868 33.25C356.534 37.2833 356.868 40.3167 356.868 42.35C356.868 44.0167 356.501 45.5 355.768 46.8C355.068 48.1 354.084 49.1167 352.818 49.85C351.551 50.5833 350.118 50.95 348.518 50.95ZM369.783 65C368.783 59.2333 367.516 54.2333 365.983 50C364.483 45.7333 362.383 41.3 359.683 36.7L365.083 33C367.183 36.4667 368.866 39.9167 370.133 43.35C371.433 46.75 372.383 50.2833 372.983 53.95C373.616 50.0833 374.516 46.4667 375.683 43.1C376.85 39.7 378.433 36.3333 380.433 33L386.083 36.7C383.516 40.9333 381.466 45.2 379.933 49.5C378.4 53.8 377.066 58.9667 375.933 65H369.783ZM398.07 39.95C399.803 39.95 401.453 40.4333 403.02 41.4C404.586 42.3333 405.836 43.5833 406.77 45.15C407.736 46.7167 408.22 48.3667 408.22 50.1C408.22 51.8 407.736 53.45 406.77 55.05C405.803 56.6167 404.536 57.8833 402.97 58.85C401.403 59.8167 399.77 60.3 398.07 60.3C396.336 60.3 394.67 59.8167 393.07 58.85C391.503 57.8833 390.236 56.6167 389.27 55.05C388.303 53.45 387.82 51.8 387.82 50.1C387.82 48.3667 388.303 46.7167 389.27 45.15C390.236 43.5833 391.503 42.3333 393.07 41.4C394.67 40.4333 396.336 39.95 398.07 39.95ZM398.07 54.2C399.103 54.2 400.036 53.7833 400.87 52.95C401.703 52.0833 402.12 51.1333 402.12 50.1C402.12 49.0667 401.703 48.1333 400.87 47.3C400.036 46.4667 399.103 46.05 398.07 46.05C397.003 46.05 396.036 46.4667 395.17 47.3C394.336 48.1333 393.92 49.0667 393.92 50.1C393.92 51.1333 394.353 52.0833 395.22 52.95C396.086 53.7833 397.036 54.2 398.07 54.2ZM418.619 34.75C416.819 34.75 415.353 34.2333 414.219 33.2C413.119 32.1667 412.569 30.75 412.569 28.95C412.569 27.15 413.119 25.7333 414.219 24.7C415.353 23.6667 416.819 23.15 418.619 23.15C420.353 23.15 421.819 23.6667 423.019 24.7C424.219 25.7333 424.819 27.1333 424.819 28.9C424.819 30.7333 424.219 32.1667 423.019 33.2C421.853 34.2333 420.386 34.75 418.619 34.75ZM418.619 31.3C419.286 31.3 419.836 31.1 420.269 30.7C420.736 30.2667 420.969 29.6833 420.969 28.95C420.969 28.2167 420.736 27.65 420.269 27.25C419.836 26.8167 419.286 26.6 418.619 26.6C417.953 26.6 417.386 26.8167 416.919 27.25C416.486 27.65 416.269 28.2167 416.269 28.95C416.269 29.6833 416.469 30.2667 416.869 30.7C417.269 31.1 417.853 31.3 418.619 31.3Z" fill="white"/>
<path d="M234.451 46.45C233.471 47.49 232.221 48.01 230.701 48.01C230.061 48.01 229.521 47.97 229.081 47.89C228.661 47.83 228.241 47.7 227.821 47.5V44.53C228.301 44.73 228.841 44.83 229.441 44.83C230.101 44.83 230.631 44.66 231.031 44.32C231.431 43.98 231.831 43.44 232.231 42.7L226.531 29.5H230.851L234.241 38.5L237.721 29.5H241.951L237.061 41.92C236.301 43.92 235.431 45.43 234.451 46.45Z" fill="white"/>
<path d="M428.018 236.31L425.348 240H420.938L425.798 233.13L421.088 226.5H425.528L428.018 229.95L430.478 226.5H434.888L430.238 233.13L435.098 240H430.628L428.018 236.31Z" fill="white"/>
<path d="M33.883 236.31L31.213 240H26.803L31.663 233.13L26.953 226.5H31.393L33.883 229.95L36.343 226.5H40.753L36.103 233.13L40.963 240H36.493L33.883 236.31ZM51.1579 217.32C50.8779 217.6 50.5079 217.94 50.0479 218.34C49.5879 218.74 49.0879 219.16 48.5479 219.6C48.0279 220.04 47.5079 220.46 46.9879 220.86C46.4879 221.24 46.0479 221.56 45.6679 221.82H42.6979V221.43C43.0179 221.05 43.3879 220.61 43.8079 220.11C44.2479 219.59 44.6779 219.06 45.0979 218.52C45.5179 217.96 45.8679 217.46 46.1479 217.02H51.1579V217.32Z" fill="white"/>
<path d="M216.532 255.91C216.532 262.17 213.692 265.3 208.012 265.3C202.312 265.3 199.462 262.17 199.462 255.91C199.462 252.57 200.172 250.15 201.592 248.65C203.012 247.13 205.152 246.37 208.012 246.37C210.872 246.37 213.002 247.13 214.402 248.65C215.822 250.15 216.532 252.57 216.532 255.91ZM204.682 260.14C205.402 261.04 206.512 261.49 208.012 261.49C209.512 261.49 210.612 261.04 211.312 260.14C212.032 259.22 212.392 257.81 212.392 255.91C212.392 253.85 212.042 252.38 211.342 251.5C210.642 250.6 209.532 250.15 208.012 250.15C206.492 250.15 205.382 250.6 204.682 251.5C203.982 252.38 203.632 253.85 203.632 255.91C203.632 257.81 203.982 259.22 204.682 260.14Z" fill="white"/>
<path d="M384.018 218.68L382.488 223H378.198L384.798 204.64H389.208L395.808 223H391.578L389.988 218.68H384.018ZM389.478 215.53L387.018 208.9L384.528 215.53H389.478Z" fill="white"/>
<path d="M348.585 131.57H344.445V137H340.335V118.64H348.675C350.675 118.64 352.175 119.24 353.175 120.44C354.195 121.64 354.705 123.22 354.705 125.18C354.705 126.42 354.455 127.53 353.955 128.51C353.455 129.47 352.745 130.22 351.825 130.76C350.905 131.3 349.825 131.57 348.585 131.57ZM349.905 122.96C349.445 122.46 348.765 122.21 347.865 122.21H344.445V128.03H347.715C348.635 128.03 349.345 127.78 349.845 127.28C350.345 126.76 350.595 126.06 350.595 125.18C350.595 124.2 350.365 123.46 349.905 122.96Z" fill="white"/>
<path d="M352.262 350.53C351.422 350.77 350.472 350.89 349.412 350.89C347.952 350.89 346.882 350.48 346.202 349.66C345.522 348.84 345.162 347.67 345.122 346.15C340.682 345.57 338.462 342.49 338.462 336.91C338.462 333.57 339.172 331.15 340.592 329.65C342.012 328.13 344.152 327.37 347.012 327.37C349.872 327.37 352.002 328.13 353.402 329.65C354.822 331.15 355.532 333.57 355.532 336.91C355.532 342.65 353.182 345.75 348.482 346.21C348.522 346.93 348.682 347.44 348.962 347.74C349.242 348.06 349.702 348.22 350.342 348.22C350.982 348.22 351.622 348.12 352.262 347.92V350.53ZM343.682 341.14C344.402 342.04 345.512 342.49 347.012 342.49C348.512 342.49 349.612 342.04 350.312 341.14C351.032 340.22 351.392 338.81 351.392 336.91C351.392 334.85 351.042 333.38 350.342 332.5C349.642 331.6 348.532 331.15 347.012 331.15C345.492 331.15 344.382 331.6 343.682 332.5C342.982 333.38 342.632 334.85 342.632 336.91C342.632 338.81 342.982 340.22 343.682 341.14Z" fill="white"/>
</svg>
