<svg width="468" height="468" viewBox="0 0 468 468" fill="none" xmlns="http://www.w3.org/2000/svg">
<circle cx="234.5" cy="233" r="134" fill="#9000FF" fill-opacity="0.2" stroke="white" stroke-width="2"/>
<path d="M234.5 366C251.966 366 269.261 362.56 285.397 355.876C301.533 349.192 316.195 339.395 328.545 327.045C340.895 314.695 350.692 300.033 357.376 283.897C364.06 267.761 367.5 250.466 367.5 233H234.5L234.5 366Z" fill="#7E1A1C" fill-opacity="0.6"/>
<path d="M233.5 59L227.726 69L239.273 69L233.5 59ZM234.5 408L234.5 68L232.5 68L232.5 408L234.5 408Z" fill="white"/>
<path d="M408 233.5L398 227.726V239.274L408 233.5ZM59 234.5L399 234.5V232.5L59 232.5V234.5Z" fill="white"/>
<path d="M229.316 441.45C228.336 442.49 227.086 443.01 225.566 443.01C224.926 443.01 224.386 442.97 223.946 442.89C223.526 442.83 223.106 442.7 222.686 442.5V439.53C223.166 439.73 223.706 439.83 224.306 439.83C224.966 439.83 225.496 439.66 225.896 439.32C226.296 438.98 226.696 438.44 227.096 437.7L221.396 424.5H225.716L229.106 433.5L232.586 424.5H236.816L231.926 436.92C231.166 438.92 230.296 440.43 229.316 441.45ZM246.714 415.32C246.434 415.6 246.064 415.94 245.604 416.34C245.144 416.74 244.644 417.16 244.104 417.6C243.584 418.04 243.064 418.46 242.544 418.86C242.044 419.24 241.604 419.56 241.224 419.82H238.254V419.43C238.574 419.05 238.944 418.61 239.364 418.11C239.804 417.59 240.234 417.06 240.654 416.52C241.074 415.96 241.424 415.46 241.704 415.02H246.714V415.32Z" fill="white"/>
<path d="M234.451 46.45C233.471 47.49 232.221 48.01 230.701 48.01C230.061 48.01 229.521 47.97 229.081 47.89C228.661 47.83 228.241 47.7 227.821 47.5V44.53C228.301 44.73 228.841 44.83 229.441 44.83C230.101 44.83 230.631 44.66 231.031 44.32C231.431 43.98 231.831 43.44 232.231 42.7L226.531 29.5H230.851L234.241 38.5L237.721 29.5H241.951L237.061 41.92C236.301 43.92 235.431 45.43 234.451 46.45Z" fill="white"/>
<path d="M325.373 75.01C325.573 75.01 325.673 75.7 325.673 77.08C325.673 78.36 325.573 79 325.373 79H322.733C322.873 79.16 322.943 79.48 322.943 79.96C322.943 81.16 322.593 82.23 321.893 83.17C321.193 84.11 320.223 84.84 318.983 85.36C317.743 85.9 316.313 86.17 314.693 86.17H312.443C309.843 86.17 307.833 85.42 306.413 83.92C305.013 82.44 304.313 80.36 304.313 77.68V71.68H308.123V77.59C308.123 79.11 308.473 80.25 309.173 81.01C309.873 81.79 310.963 82.18 312.443 82.18H314.753C317.673 82.18 319.133 81.43 319.133 79.93C319.133 79.51 319.023 79.21 318.803 79.03C318.583 78.87 318.223 78.79 317.723 78.79H312.473L312.833 75.01H325.373ZM328.029 75.01C327.689 74.65 327.419 74.18 327.219 73.6C327.039 73.02 326.949 72.44 326.949 71.86C326.949 70.76 327.209 69.75 327.729 68.83C328.269 67.91 328.999 67.18 329.919 66.64C330.839 66.1 331.859 65.83 332.979 65.83C334.179 65.83 335.229 66.08 336.129 66.58C337.049 67.06 337.759 67.75 338.259 68.65C338.779 69.55 339.039 70.57 339.039 71.71C339.039 73.03 338.619 74.13 337.779 75.01H341.229C341.429 75.01 341.529 75.7 341.529 77.08C341.529 78.36 341.429 79 341.229 79H337.149C336.009 79 335.119 78.96 334.479 78.88C333.839 78.78 333.339 78.62 332.979 78.4C332.619 78.62 332.099 78.78 331.419 78.88C330.759 78.96 329.899 79 328.839 79H324.759C324.559 79 324.459 78.36 324.459 77.08C324.459 75.7 324.559 75.01 324.759 75.01H328.029ZM332.979 69.64C332.299 69.64 331.749 69.86 331.329 70.3C330.929 70.72 330.729 71.25 330.729 71.89C330.729 72.51 330.929 73.1 331.329 73.66C331.729 74.2 332.279 74.65 332.979 75.01C333.719 74.67 334.279 74.22 334.659 73.66C335.039 73.08 335.229 72.49 335.229 71.89C335.229 71.19 335.029 70.64 334.629 70.24C334.229 69.84 333.679 69.64 332.979 69.64ZM330.939 62.83V59.41H335.019V62.83H330.939ZM344.104 75.01C344.604 75.01 345.004 74.88 345.304 74.62C345.624 74.34 345.784 73.96 345.784 73.48V68.68H349.594V73.36C349.594 74.46 350.154 75.01 351.274 75.01H352.414C352.614 75.01 352.714 75.68 352.714 77.02C352.714 78.34 352.614 79 352.414 79H351.094C349.414 79 348.274 78.52 347.674 77.56C347.314 78.06 346.834 78.43 346.234 78.67C345.654 78.89 344.944 79 344.104 79H340.624C340.424 79 340.324 78.36 340.324 77.08C340.324 75.7 340.424 75.01 340.624 75.01H344.104ZM344.194 65.56V62.14H348.274V65.56H344.194ZM352.581 75.01C353.141 75.01 353.531 74.9 353.751 74.68C353.991 74.46 354.111 74.1 354.111 73.6V72.76C354.111 70.82 354.661 69.29 355.761 68.17C356.881 67.03 358.391 66.46 360.291 66.46C362.191 66.46 363.641 67.01 364.641 68.11C365.661 69.19 366.171 70.75 366.171 72.79C366.171 74.75 365.641 76.28 364.581 77.38C363.521 78.46 362.041 79 360.141 79C359.141 79 358.311 78.88 357.651 78.64C356.991 78.38 356.501 78.02 356.181 77.56C355.801 78.06 355.321 78.43 354.741 78.67C354.181 78.89 353.461 79 352.581 79H351.801C351.601 79 351.501 78.36 351.501 77.08C351.501 75.7 351.601 75.01 351.801 75.01H352.581ZM362.391 72.79C362.391 71.11 361.641 70.27 360.141 70.27C358.641 70.27 357.891 71.11 357.891 72.79C357.891 73.51 358.071 74.07 358.431 74.47C358.811 74.85 359.381 75.04 360.141 75.04C360.901 75.04 361.461 74.86 361.821 74.5C362.201 74.12 362.391 73.55 362.391 72.79ZM387.519 72.94C387.519 73.66 387.649 74.19 387.909 74.53C388.169 74.85 388.559 75.01 389.079 75.01H390.009C390.109 75.01 390.179 75.14 390.219 75.4C390.279 75.66 390.309 76.22 390.309 77.08C390.309 77.88 390.279 78.4 390.219 78.64C390.179 78.88 390.109 79 390.009 79H389.049C387.969 79 387.069 78.82 386.349 78.46C385.649 78.08 385.159 77.47 384.879 76.63C384.459 76.99 383.909 77.26 383.229 77.44C382.569 77.6 381.879 77.68 381.159 77.68C379.359 77.68 377.979 77.19 377.019 76.21C376.079 75.21 375.609 73.73 375.609 71.77C375.609 70.65 375.859 69.61 376.359 68.65C376.879 67.67 377.599 66.89 378.519 66.31C379.459 65.71 380.529 65.41 381.729 65.41H383.709V63.46H387.519V72.94ZM379.389 71.74C379.389 72.4 379.539 72.9 379.839 73.24C380.159 73.56 380.669 73.72 381.369 73.72C382.129 73.72 382.709 73.59 383.109 73.33C383.529 73.05 383.739 72.66 383.739 72.16V69.22H381.789C380.189 69.22 379.389 70.06 379.389 71.74ZM397.836 73.66C397.836 75.32 397.336 76.63 396.336 77.59C395.356 78.53 394.026 79 392.346 79H389.406C389.206 79 389.106 78.36 389.106 77.08C389.106 75.7 389.206 75.01 389.406 75.01H392.346C392.846 75.01 393.246 74.88 393.546 74.62C393.866 74.34 394.026 73.96 394.026 73.48V68.68H397.836V73.66ZM396.036 82.12V85.54H387.576V82.12H396.036ZM413.215 77.74C413.215 80.36 412.515 82.42 411.115 83.92C409.735 85.42 407.835 86.17 405.415 86.17H401.305L400.975 82.18H405.655C406.835 82.18 407.755 81.89 408.415 81.31C409.075 80.75 409.405 79.98 409.405 79H407.305C405.145 79 403.595 78.55 402.655 77.65C401.735 76.75 401.275 75.32 401.275 73.36C401.275 72.08 401.525 70.94 402.025 69.94C402.525 68.94 403.225 68.16 404.125 67.6C405.045 67.04 406.105 66.76 407.305 66.76C409.145 66.76 410.585 67.36 411.625 68.56C412.685 69.76 413.215 71.42 413.215 73.54V77.74ZM405.055 73.21C405.055 73.85 405.225 74.32 405.565 74.62C405.925 74.9 406.555 75.04 407.455 75.04H409.405V73.48C409.405 72.52 409.215 71.79 408.835 71.29C408.455 70.79 407.905 70.54 407.185 70.54C406.505 70.54 405.975 70.79 405.595 71.29C405.235 71.77 405.055 72.41 405.055 73.21ZM416.911 59.68H420.751V79H416.911V59.68ZM429.684 77.89C429.684 79.53 429.354 80.97 428.694 82.21C428.034 83.47 427.084 84.44 425.844 85.12C424.624 85.82 423.204 86.17 421.584 86.17H419.064L418.734 82.18H421.524C422.904 82.18 423.974 81.8 424.734 81.04C425.494 80.3 425.874 79.25 425.874 77.89V68.68H429.684V77.89ZM425.604 65.56V62.14H429.684V65.56H425.604Z" fill="white"/>
<path d="M428.018 236.31L425.348 240H420.938L425.798 233.13L421.088 226.5H425.528L428.018 229.95L430.478 226.5H434.888L430.238 233.13L435.098 240H430.628L428.018 236.31Z" fill="white"/>
<path d="M33.883 236.31L31.213 240H26.803L31.663 233.13L26.953 226.5H31.393L33.883 229.95L36.343 226.5H40.753L36.103 233.13L40.963 240H36.493L33.883 236.31ZM51.1579 217.32C50.8779 217.6 50.5079 217.94 50.0479 218.34C49.5879 218.74 49.0879 219.16 48.5479 219.6C48.0279 220.04 47.5079 220.46 46.9879 220.86C46.4879 221.24 46.0479 221.56 45.6679 221.82H42.6979V221.43C43.0179 221.05 43.3879 220.61 43.8079 220.11C44.2479 219.59 44.6779 219.06 45.0979 218.52C45.5179 217.96 45.8679 217.46 46.1479 217.02H51.1579V217.32Z" fill="white"/>
<path d="M226.532 264.91C226.532 271.17 223.692 274.3 218.012 274.3C212.312 274.3 209.462 271.17 209.462 264.91C209.462 261.57 210.172 259.15 211.592 257.65C213.012 256.13 215.152 255.37 218.012 255.37C220.872 255.37 223.002 256.13 224.402 257.65C225.822 259.15 226.532 261.57 226.532 264.91ZM214.682 269.14C215.402 270.04 216.512 270.49 218.012 270.49C219.512 270.49 220.612 270.04 221.312 269.14C222.032 268.22 222.392 266.81 222.392 264.91C222.392 262.85 222.042 261.38 221.342 260.5C220.642 259.6 219.532 259.15 218.012 259.15C216.492 259.15 215.382 259.6 214.682 260.5C213.982 261.38 213.632 262.85 213.632 264.91C213.632 266.81 213.982 268.22 214.682 269.14Z" fill="white"/>
<path d="M384.018 218.68L382.488 223H378.198L384.798 204.64H389.208L395.808 223H391.578L389.988 218.68H384.018ZM389.478 215.53L387.018 208.9L384.528 215.53H389.478Z" fill="white"/>
<path d="M256.585 391.57H252.445V397H248.335V378.64H256.675C258.675 378.64 260.175 379.24 261.175 380.44C262.195 381.64 262.705 383.22 262.705 385.18C262.705 386.42 262.455 387.53 261.955 388.51C261.455 389.47 260.745 390.22 259.825 390.76C258.905 391.3 257.825 391.57 256.585 391.57ZM257.905 382.96C257.445 382.46 256.765 382.21 255.865 382.21H252.445V388.03H255.715C256.635 388.03 257.345 387.78 257.845 387.28C258.345 386.76 258.595 386.06 258.595 385.18C258.595 384.2 258.365 383.46 257.905 382.96Z" fill="white"/>
<path d="M259.644 277.11H273.204V280.92H259.644V277.11ZM284.452 277.65C283.692 277.91 282.742 278.04 281.602 278.04C279.942 278.04 278.652 277.57 277.732 276.63C276.812 275.69 276.352 274.4 276.352 272.76C276.352 271.6 276.602 270.5 277.102 269.46C277.622 268.4 278.342 267.55 279.262 266.91C280.182 266.27 281.222 265.95 282.382 265.95C284.282 265.95 285.742 266.66 286.763 268.08C287.783 269.5 288.293 271.55 288.293 274.23V285H284.452V277.65ZM284.483 273.69C284.483 272.35 284.302 271.36 283.942 270.72C283.582 270.08 283.012 269.76 282.232 269.76C281.612 269.76 281.102 270.01 280.702 270.51C280.322 271.01 280.132 271.65 280.132 272.43C280.132 272.97 280.302 273.39 280.642 273.69C280.982 273.97 281.472 274.11 282.112 274.11C283.112 274.11 283.902 273.97 284.483 273.69ZM298.11 269.97C299.15 269.97 300.14 270.26 301.08 270.84C302.02 271.4 302.77 272.15 303.33 273.09C303.91 274.03 304.2 275.02 304.2 276.06C304.2 277.08 303.91 278.07 303.33 279.03C302.75 279.97 301.99 280.73 301.05 281.31C300.11 281.89 299.13 282.18 298.11 282.18C297.07 282.18 296.07 281.89 295.11 281.31C294.17 280.73 293.41 279.97 292.83 279.03C292.25 278.07 291.96 277.08 291.96 276.06C291.96 275.02 292.25 274.03 292.83 273.09C293.41 272.15 294.17 271.4 295.11 270.84C296.07 270.26 297.07 269.97 298.11 269.97ZM298.11 278.52C298.73 278.52 299.29 278.27 299.79 277.77C300.29 277.25 300.54 276.68 300.54 276.06C300.54 275.44 300.29 274.88 299.79 274.38C299.29 273.88 298.73 273.63 298.11 273.63C297.47 273.63 296.89 273.88 296.37 274.38C295.87 274.88 295.62 275.44 295.62 276.06C295.62 276.68 295.88 277.25 296.4 277.77C296.92 278.27 297.49 278.52 298.11 278.52ZM310.44 266.85C309.36 266.85 308.48 266.54 307.8 265.92C307.14 265.3 306.81 264.45 306.81 263.37C306.81 262.29 307.14 261.44 307.8 260.82C308.48 260.2 309.36 259.89 310.44 259.89C311.48 259.89 312.36 260.2 313.08 260.82C313.8 261.44 314.16 262.28 314.16 263.34C314.16 264.44 313.8 265.3 313.08 265.92C312.38 266.54 311.5 266.85 310.44 266.85ZM310.44 264.78C310.84 264.78 311.17 264.66 311.43 264.42C311.71 264.16 311.85 263.81 311.85 263.37C311.85 262.93 311.71 262.59 311.43 262.35C311.17 262.09 310.84 261.96 310.44 261.96C310.04 261.96 309.7 262.09 309.42 262.35C309.16 262.59 309.03 262.93 309.03 263.37C309.03 263.81 309.15 264.16 309.39 264.42C309.63 264.66 309.98 264.78 310.44 264.78Z" fill="white"/>
<path d="M234.711 265.518L245.196 260.68L244.143 272.179L234.711 265.518ZM265.382 234.468C265.829 234.499 266.073 234.211 266.122 234.145C266.174 234.074 266.175 234.042 266.149 234.12C266.102 234.261 266.045 234.524 265.978 234.945C265.847 235.779 265.719 236.965 265.529 238.474C265.155 241.447 264.561 245.487 263.302 249.592C260.789 257.78 255.507 266.54 243.738 267.336L243.603 265.341C254.123 264.629 258.967 256.901 261.39 249.005C262.598 245.069 263.174 241.168 263.545 238.224C263.727 236.774 263.865 235.507 264.003 234.634C264.07 234.203 264.148 233.799 264.25 233.49C264.299 233.343 264.378 233.14 264.513 232.956C264.646 232.777 264.979 232.435 265.521 232.472L265.382 234.468Z" fill="white"/>
</svg>
