<svg width="566" height="468" viewBox="0 0 566 468" fill="none" xmlns="http://www.w3.org/2000/svg">
<circle cx="292.5" cy="233" r="134" fill="#9000FF" fill-opacity="0.2" stroke="white" stroke-width="2"/>
<mask id="path-2-outside-1_2091_419" maskUnits="userSpaceOnUse" x="249.789" y="90.8775" width="189.522" height="197.076" fill="black">
<rect fill="white" x="249.789" y="90.8775" width="189.522" height="197.076"/>
<path d="M341.166 109.303C365.73 119.218 386.791 136.291 401.621 158.311C416.45 180.332 424.366 206.285 424.343 232.812L292.293 232.174L341.166 109.303Z"/>
</mask>
<path d="M341.166 109.303C365.73 119.218 386.791 136.291 401.621 158.311C416.45 180.332 424.366 206.285 424.343 232.812L292.293 232.174L341.166 109.303Z" fill="#1A7E7A" fill-opacity="0.6"/>
<path d="M341.166 109.303C365.73 119.218 386.791 136.291 401.621 158.311C416.45 180.332 424.366 206.285 424.343 232.812L292.293 232.174L341.166 109.303Z" stroke="white" stroke-width="4" stroke-linejoin="round" mask="url(#path-2-outside-1_2091_419)"/>
<mask id="path-3-outside-2_2091_419" maskUnits="userSpaceOnUse" x="280.507" y="197.065" width="48.3804" height="50.2687" fill="black">
<rect fill="white" x="280.507" y="197.065" width="48.3804" height="50.2687"/>
<path d="M303.408 204.224C308.996 206.479 313.786 210.363 317.16 215.372C320.533 220.381 322.334 226.284 322.328 232.318L292.291 232.173L303.408 204.224Z"/>
</mask>
<path d="M303.408 204.224C308.996 206.479 313.786 210.363 317.16 215.372C320.533 220.381 322.334 226.284 322.328 232.318L292.291 232.173L303.408 204.224Z" stroke="white" stroke-width="4" stroke-linejoin="round" mask="url(#path-3-outside-2_2091_419)"/>
<path d="M291.5 59L285.726 69L297.273 69L291.5 59ZM292.5 408L292.5 68L290.5 68L290.5 408L292.5 408Z" fill="white"/>
<path d="M511 233L501 227.227L501 238.774L511 233ZM40 234L502 234L502 232L40 232L40 234Z" fill="white"/>
<path d="M287.316 441.45C286.336 442.49 285.086 443.01 283.566 443.01C282.926 443.01 282.386 442.97 281.946 442.89C281.526 442.83 281.106 442.7 280.686 442.5V439.53C281.166 439.73 281.706 439.83 282.306 439.83C282.966 439.83 283.496 439.66 283.896 439.32C284.296 438.98 284.696 438.44 285.096 437.7L279.396 424.5H283.716L287.106 433.5L290.586 424.5H294.816L289.926 436.92C289.166 438.92 288.296 440.43 287.316 441.45ZM304.714 415.32C304.434 415.6 304.064 415.94 303.604 416.34C303.144 416.74 302.644 417.16 302.104 417.6C301.584 418.04 301.064 418.46 300.544 418.86C300.044 419.24 299.604 419.56 299.224 419.82H296.254V419.43C296.574 419.05 296.944 418.61 297.364 418.11C297.804 417.59 298.234 417.06 298.654 416.52C299.074 415.96 299.424 415.46 299.704 415.02H304.714V415.32Z" fill="white"/>
<path d="M291.998 46.51C291.098 47.51 289.938 48.01 288.518 48.01C287.458 48.01 286.588 47.86 285.908 47.56V45.13C286.408 45.33 286.958 45.43 287.558 45.43C288.278 45.43 288.848 45.22 289.268 44.8C289.688 44.38 290.128 43.7 290.588 42.76L284.858 29.5H288.338L292.238 39.37L296.258 29.5H299.648L294.488 42.1C293.728 44.06 292.898 45.53 291.998 46.51Z" fill="white"/>
<path d="M283.532 249.91C283.532 256.17 280.692 259.3 275.012 259.3C269.312 259.3 266.462 256.17 266.462 249.91C266.462 246.57 267.172 244.15 268.592 242.65C270.012 241.13 272.152 240.37 275.012 240.37C277.872 240.37 280.002 241.13 281.402 242.65C282.822 244.15 283.532 246.57 283.532 249.91ZM271.682 254.14C272.402 255.04 273.512 255.49 275.012 255.49C276.512 255.49 277.612 255.04 278.312 254.14C279.032 253.22 279.392 251.81 279.392 249.91C279.392 247.85 279.042 246.38 278.342 245.5C277.642 244.6 276.532 244.15 275.012 244.15C273.492 244.15 272.382 244.6 271.682 245.5C270.982 246.38 270.632 247.85 270.632 249.91C270.632 251.81 270.982 253.22 271.682 254.14Z" fill="white"/>
<path d="M359.66 97.06H356.6V101H354.4V88.76H359.72C361.04 88.76 362.027 89.1467 362.68 89.92C363.347 90.68 363.68 91.6933 363.68 92.96C363.68 94.1867 363.313 95.18 362.58 95.94C361.86 96.6867 360.887 97.06 359.66 97.06ZM360.92 91.26C360.56 90.8733 360.027 90.68 359.32 90.68H356.6V95.14H359.22C359.953 95.14 360.513 94.9467 360.9 94.56C361.287 94.1733 361.48 93.64 361.48 92.96C361.48 92.2133 361.293 91.6467 360.92 91.26ZM367.527 94.54C367.527 95.8867 367.701 97.0067 368.047 97.9C368.394 98.78 369.021 99.66 369.927 100.54L368.707 101.7C367.547 100.713 366.714 99.66 366.207 98.54C365.714 97.42 365.467 96.0867 365.467 94.54C365.467 92.9933 365.714 91.66 366.207 90.54C366.714 89.42 367.547 88.3667 368.707 87.38L369.927 88.56C369.021 89.44 368.394 90.32 368.047 91.2C367.701 92.08 367.527 93.1933 367.527 94.54ZM376.388 98.12L374.308 101H371.928L375.208 96.42L372.028 92H374.428L376.388 94.72L378.368 92H380.728L377.588 96.42L380.868 101H378.468L376.388 98.12ZM384.83 99.54L383.97 103.28H382.41L382.95 99.54H384.83ZM391.243 103.34C390.643 104.007 389.869 104.34 388.923 104.34C388.216 104.34 387.636 104.24 387.183 104.04V102.42C387.516 102.553 387.883 102.62 388.283 102.62C388.763 102.62 389.143 102.48 389.423 102.2C389.703 101.92 389.996 101.467 390.303 100.84L386.483 92H388.803L391.403 98.58L394.083 92H396.343L392.903 100.4C392.396 101.707 391.843 102.687 391.243 103.34ZM400.525 94.54C400.525 93.1933 400.352 92.08 400.005 91.2C399.658 90.32 399.032 89.44 398.125 88.56L399.345 87.38C400.505 88.3667 401.332 89.42 401.825 90.54C402.332 91.66 402.585 92.9933 402.585 94.54C402.585 96.0867 402.332 97.42 401.825 98.54C401.332 99.66 400.505 100.713 399.345 101.7L398.125 100.54C399.032 99.66 399.658 98.78 400.005 97.9C400.352 97.0067 400.525 95.8867 400.525 94.54Z" fill="white"/>
<path d="M460.5 213.9H469.38V215.98H460.5V213.9ZM460.5 218H469.38V220.06H460.5V218ZM480.243 211.1C480.909 211.1 481.549 211.287 482.162 211.66C482.789 212.033 483.289 212.527 483.663 213.14C484.036 213.753 484.223 214.393 484.223 215.06C484.223 215.727 484.036 216.373 483.663 217C483.289 217.613 482.789 218.107 482.162 218.48C481.549 218.853 480.909 219.04 480.243 219.04C479.576 219.04 478.929 218.853 478.302 218.48C477.689 218.107 477.196 217.613 476.822 217C476.449 216.373 476.262 215.727 476.262 215.06C476.262 214.393 476.449 213.753 476.822 213.14C477.196 212.527 477.689 212.033 478.302 211.66C478.929 211.287 479.576 211.1 480.243 211.1ZM480.243 217.06C480.563 217.06 480.876 216.967 481.183 216.78C481.503 216.58 481.756 216.327 481.943 216.02C482.143 215.7 482.243 215.38 482.243 215.06C482.243 214.74 482.143 214.427 481.943 214.12C481.756 213.813 481.503 213.567 481.183 213.38C480.876 213.193 480.563 213.1 480.243 213.1C479.922 213.1 479.602 213.2 479.283 213.4C478.976 213.587 478.722 213.833 478.522 214.14C478.336 214.433 478.243 214.74 478.243 215.06C478.243 215.38 478.336 215.7 478.522 216.02C478.722 216.327 478.976 216.58 479.283 216.78C479.602 216.967 479.922 217.06 480.243 217.06ZM492.827 208.9C492.107 208.9 491.52 208.693 491.067 208.28C490.627 207.867 490.407 207.3 490.407 206.58C490.407 205.86 490.627 205.293 491.067 204.88C491.52 204.467 492.107 204.26 492.827 204.26C493.52 204.26 494.107 204.467 494.587 204.88C495.067 205.293 495.307 205.853 495.307 206.56C495.307 207.293 495.067 207.867 494.587 208.28C494.12 208.693 493.534 208.9 492.827 208.9ZM492.827 207.52C493.094 207.52 493.314 207.44 493.487 207.28C493.674 207.107 493.767 206.873 493.767 206.58C493.767 206.287 493.674 206.06 493.487 205.9C493.314 205.727 493.094 205.64 492.827 205.64C492.56 205.64 492.334 205.727 492.147 205.9C491.974 206.06 491.887 206.287 491.887 206.58C491.887 206.873 491.967 207.107 492.127 207.28C492.287 207.44 492.52 207.52 492.827 207.52Z" fill="white"/>
<path d="M86.5 213.9H95.38V215.98H86.5V213.9ZM86.5 218H95.38V220.06H86.5V218ZM102.862 215.8C102.862 214.493 102.796 213.367 102.662 212.42C102.529 211.46 102.262 210.313 101.862 208.98L103.862 208.28C104.289 209.627 104.569 210.807 104.703 211.82C104.849 212.833 104.922 214.153 104.922 215.78V221H102.862V215.8ZM113.127 208.36C113.513 210.667 114.033 212.72 114.687 214.52C115.353 216.32 116.24 218.133 117.347 219.96L115.627 221.18C113.787 218.207 112.607 215.173 112.087 212.08C111.513 215.493 110.393 218.527 108.727 221.18L106.927 219.96C107.98 218.293 108.833 216.56 109.487 214.76C110.14 212.947 110.693 210.813 111.147 208.36H113.127ZM122.65 211.1C123.316 211.1 123.956 211.287 124.57 211.66C125.196 212.033 125.696 212.527 126.07 213.14C126.443 213.753 126.63 214.393 126.63 215.06C126.63 215.727 126.443 216.373 126.07 217C125.696 217.613 125.196 218.107 124.57 218.48C123.956 218.853 123.316 219.04 122.65 219.04C121.983 219.04 121.336 218.853 120.71 218.48C120.096 218.107 119.603 217.613 119.23 217C118.856 216.373 118.67 215.727 118.67 215.06C118.67 214.393 118.856 213.753 119.23 213.14C119.603 212.527 120.096 212.033 120.71 211.66C121.336 211.287 121.983 211.1 122.65 211.1ZM122.65 217.06C122.97 217.06 123.283 216.967 123.59 216.78C123.91 216.58 124.163 216.327 124.35 216.02C124.55 215.7 124.65 215.38 124.65 215.06C124.65 214.74 124.55 214.427 124.35 214.12C124.163 213.813 123.91 213.567 123.59 213.38C123.283 213.193 122.97 213.1 122.65 213.1C122.33 213.1 122.01 213.2 121.69 213.4C121.383 213.587 121.13 213.833 120.93 214.14C120.743 214.433 120.65 214.74 120.65 215.06C120.65 215.38 120.743 215.7 120.93 216.02C121.13 216.327 121.383 216.58 121.69 216.78C122.01 216.967 122.33 217.06 122.65 217.06ZM135.234 208.9C134.514 208.9 133.927 208.693 133.474 208.28C133.034 207.867 132.814 207.3 132.814 206.58C132.814 205.86 133.034 205.293 133.474 204.88C133.927 204.467 134.514 204.26 135.234 204.26C135.927 204.26 136.514 204.467 136.994 204.88C137.474 205.293 137.714 205.853 137.714 206.56C137.714 207.293 137.474 207.867 136.994 208.28C136.527 208.693 135.941 208.9 135.234 208.9ZM135.234 207.52C135.501 207.52 135.721 207.44 135.894 207.28C136.081 207.107 136.174 206.873 136.174 206.58C136.174 206.287 136.081 206.06 135.894 205.9C135.721 205.727 135.501 205.64 135.234 205.64C134.967 205.64 134.741 205.727 134.554 205.9C134.381 206.06 134.294 206.287 134.294 206.58C134.294 206.873 134.374 207.107 134.534 207.28C134.694 207.44 134.927 207.52 135.234 207.52Z" fill="white"/>
<path d="M229.5 387.9H238.38V389.98H229.5V387.9ZM229.5 392H238.38V394.06H229.5V392ZM249.262 389.08C248.609 389.08 248.156 388.94 247.903 388.66C247.916 388.873 247.922 389.247 247.922 389.78V395H245.862V389.8C245.862 388.493 245.796 387.367 245.662 386.42C245.529 385.46 245.262 384.313 244.862 382.98L246.843 382.28L247.743 385.78C247.943 386.54 248.396 386.92 249.103 386.92C249.462 386.92 249.769 386.813 250.023 386.6C250.276 386.373 250.403 386.087 250.403 385.74C250.403 385.287 250.269 384.28 250.002 382.72L252.082 382.28C252.349 383.867 252.483 385.04 252.483 385.8C252.483 386.427 252.343 386.993 252.063 387.5C251.783 387.993 251.396 388.38 250.903 388.66C250.423 388.94 249.876 389.08 249.262 389.08ZM258.033 395C257.647 392.693 257.12 390.64 256.453 388.84C255.8 387.04 254.92 385.227 253.813 383.4L255.533 382.18C257.373 385.18 258.553 388.213 259.073 391.28C259.647 387.893 260.767 384.86 262.433 382.18L264.233 383.4C263.18 385.067 262.327 386.807 261.673 388.62C261.02 390.42 260.467 392.547 260.013 395H258.033ZM269.146 385.1C269.812 385.1 270.452 385.287 271.066 385.66C271.692 386.033 272.192 386.527 272.566 387.14C272.939 387.753 273.126 388.393 273.126 389.06C273.126 389.727 272.939 390.373 272.566 391C272.192 391.613 271.692 392.107 271.066 392.48C270.452 392.853 269.812 393.04 269.146 393.04C268.479 393.04 267.832 392.853 267.206 392.48C266.592 392.107 266.099 391.613 265.726 391C265.352 390.373 265.166 389.727 265.166 389.06C265.166 388.393 265.352 387.753 265.726 387.14C266.099 386.527 266.592 386.033 267.206 385.66C267.832 385.287 268.479 385.1 269.146 385.1ZM269.146 391.06C269.466 391.06 269.779 390.967 270.086 390.78C270.406 390.58 270.659 390.327 270.846 390.02C271.046 389.7 271.146 389.38 271.146 389.06C271.146 388.74 271.046 388.427 270.846 388.12C270.659 387.813 270.406 387.567 270.086 387.38C269.779 387.193 269.466 387.1 269.146 387.1C268.826 387.1 268.506 387.2 268.186 387.4C267.879 387.587 267.626 387.833 267.426 388.14C267.239 388.433 267.146 388.74 267.146 389.06C267.146 389.38 267.239 389.7 267.426 390.02C267.626 390.327 267.879 390.58 268.186 390.78C268.506 390.967 268.826 391.06 269.146 391.06ZM281.73 382.9C281.01 382.9 280.423 382.693 279.97 382.28C279.53 381.867 279.31 381.3 279.31 380.58C279.31 379.86 279.53 379.293 279.97 378.88C280.423 378.467 281.01 378.26 281.73 378.26C282.423 378.26 283.01 378.467 283.49 378.88C283.97 379.293 284.21 379.853 284.21 380.56C284.21 381.293 283.97 381.867 283.49 382.28C283.023 382.693 282.437 382.9 281.73 382.9ZM281.73 381.52C281.997 381.52 282.217 381.44 282.39 381.28C282.577 381.107 282.67 380.873 282.67 380.58C282.67 380.287 282.577 380.06 282.39 379.9C282.217 379.727 281.997 379.64 281.73 379.64C281.463 379.64 281.237 379.727 281.05 379.9C280.877 380.06 280.79 380.287 280.79 380.58C280.79 380.873 280.87 381.107 281.03 381.28C281.19 381.44 281.423 381.52 281.73 381.52Z" fill="white"/>
<path d="M236.5 81.9H245.38V83.98H236.5V81.9ZM236.5 86H245.38V88.06H236.5V86ZM257.702 83.7C257.103 83.9533 256.369 84.08 255.503 84.08C254.409 84.08 253.562 83.7867 252.962 83.2C252.362 82.6 252.062 81.7667 252.062 80.7C252.062 79.9267 252.229 79.2067 252.562 78.54C252.896 77.86 253.356 77.3133 253.942 76.9C254.543 76.4867 255.216 76.28 255.963 76.28C257.189 76.28 258.129 76.7467 258.783 77.68C259.436 78.6133 259.763 79.96 259.763 81.72V89H257.702V83.7ZM257.702 81.54C257.702 80.46 257.549 79.66 257.242 79.14C256.949 78.62 256.489 78.36 255.863 78.36C255.369 78.36 254.956 78.5667 254.622 78.98C254.289 79.38 254.123 79.8933 254.123 80.52C254.123 80.9867 254.263 81.34 254.543 81.58C254.822 81.8067 255.223 81.92 255.743 81.92C256.582 81.92 257.236 81.7933 257.702 81.54ZM266.546 79.1C267.212 79.1 267.852 79.2867 268.466 79.66C269.092 80.0333 269.592 80.5267 269.966 81.14C270.339 81.7533 270.526 82.3933 270.526 83.06C270.526 83.7267 270.339 84.3733 269.966 85C269.592 85.6133 269.092 86.1067 268.466 86.48C267.852 86.8533 267.212 87.04 266.546 87.04C265.879 87.04 265.232 86.8533 264.606 86.48C263.992 86.1067 263.499 85.6133 263.126 85C262.752 84.3733 262.566 83.7267 262.566 83.06C262.566 82.3933 262.752 81.7533 263.126 81.14C263.499 80.5267 263.992 80.0333 264.606 79.66C265.232 79.2867 265.879 79.1 266.546 79.1ZM266.546 85.06C266.866 85.06 267.179 84.9667 267.486 84.78C267.806 84.58 268.059 84.3267 268.246 84.02C268.446 83.7 268.546 83.38 268.546 83.06C268.546 82.74 268.446 82.4267 268.246 82.12C268.059 81.8133 267.806 81.5667 267.486 81.38C267.179 81.1933 266.866 81.1 266.546 81.1C266.226 81.1 265.906 81.2 265.586 81.4C265.279 81.5867 265.026 81.8333 264.826 82.14C264.639 82.4333 264.546 82.74 264.546 83.06C264.546 83.38 264.639 83.7 264.826 84.02C265.026 84.3267 265.279 84.58 265.586 84.78C265.906 84.9667 266.226 85.06 266.546 85.06ZM279.13 76.9C278.41 76.9 277.823 76.6933 277.37 76.28C276.93 75.8667 276.71 75.3 276.71 74.58C276.71 73.86 276.93 73.2933 277.37 72.88C277.823 72.4667 278.41 72.26 279.13 72.26C279.823 72.26 280.41 72.4667 280.89 72.88C281.37 73.2933 281.61 73.8533 281.61 74.56C281.61 75.2933 281.37 75.8667 280.89 76.28C280.423 76.6933 279.837 76.9 279.13 76.9ZM279.13 75.52C279.397 75.52 279.617 75.44 279.79 75.28C279.977 75.1067 280.07 74.8733 280.07 74.58C280.07 74.2867 279.977 74.06 279.79 73.9C279.617 73.7267 279.397 73.64 279.13 73.64C278.863 73.64 278.637 73.7267 278.45 73.9C278.277 74.06 278.19 74.2867 278.19 74.58C278.19 74.8733 278.27 75.1067 278.43 75.28C278.59 75.44 278.823 75.52 279.13 75.52Z" fill="white"/>
<path d="M447.44 252.9L446.32 256H444.02L448.48 243.76H450.9L455.36 256H453.08L451.96 252.9H447.44ZM451.64 251.2L449.7 245.98L447.74 251.2H451.64ZM459.539 249.54C459.539 250.887 459.712 252.007 460.059 252.9C460.406 253.78 461.032 254.66 461.939 255.54L460.719 256.7C459.559 255.713 458.726 254.66 458.219 253.54C457.726 252.42 457.479 251.087 457.479 249.54C457.479 247.993 457.726 246.66 458.219 245.54C458.726 244.42 459.559 243.367 460.719 242.38L461.939 243.56C461.032 244.44 460.406 245.32 460.059 246.2C459.712 247.08 459.539 248.193 459.539 249.54ZM465.491 250.8C465.491 249.493 465.425 248.367 465.291 247.42C465.158 246.46 464.891 245.313 464.491 243.98L466.491 243.28C466.918 244.627 467.198 245.807 467.331 246.82C467.478 247.833 467.551 249.153 467.551 250.78V256H465.491V250.8ZM472.311 254.54L471.451 258.28H469.891L470.431 254.54H472.311ZM478.423 246.1C479.09 246.1 479.73 246.287 480.343 246.66C480.97 247.033 481.47 247.527 481.843 248.14C482.216 248.753 482.403 249.393 482.403 250.06C482.403 250.727 482.216 251.373 481.843 252C481.47 252.613 480.97 253.107 480.343 253.48C479.73 253.853 479.09 254.04 478.423 254.04C477.756 254.04 477.11 253.853 476.483 253.48C475.87 253.107 475.376 252.613 475.003 252C474.63 251.373 474.443 250.727 474.443 250.06C474.443 249.393 474.63 248.753 475.003 248.14C475.376 247.527 475.87 247.033 476.483 246.66C477.11 246.287 477.756 246.1 478.423 246.1ZM478.423 252.06C478.743 252.06 479.056 251.967 479.363 251.78C479.683 251.58 479.936 251.327 480.123 251.02C480.323 250.7 480.423 250.38 480.423 250.06C480.423 249.74 480.323 249.427 480.123 249.12C479.936 248.813 479.683 248.567 479.363 248.38C479.056 248.193 478.743 248.1 478.423 248.1C478.103 248.1 477.783 248.2 477.463 248.4C477.156 248.587 476.903 248.833 476.703 249.14C476.516 249.433 476.423 249.74 476.423 250.06C476.423 250.38 476.516 250.7 476.703 251.02C476.903 251.327 477.156 251.58 477.463 251.78C477.783 251.967 478.103 252.06 478.423 252.06ZM486.892 249.54C486.892 248.193 486.719 247.08 486.372 246.2C486.026 245.32 485.399 244.44 484.492 243.56L485.712 242.38C486.872 243.367 487.699 244.42 488.192 245.54C488.699 246.66 488.952 247.993 488.952 249.54C488.952 251.087 488.699 252.42 488.192 253.54C487.699 254.66 486.872 255.713 485.712 256.7L484.492 255.54C485.399 254.66 486.026 253.78 486.372 252.9C486.719 252.007 486.892 250.887 486.892 249.54Z" fill="white"/>
<path d="M319.12 393.56C318.293 394.52 316.987 395 315.2 395H310.4V382.76H315.2C316.96 382.76 318.26 383.247 319.1 384.22C319.953 385.193 320.38 386.773 320.38 388.96C320.38 391.053 319.96 392.587 319.12 393.56ZM316.92 385.22C316.44 384.9 315.753 384.74 314.86 384.74H312.6V393.14H314.86C315.647 393.14 316.273 393.027 316.74 392.8C317.207 392.573 317.56 392.16 317.8 391.56C318.04 390.947 318.16 390.08 318.16 388.96C318.16 387.973 318.073 387.18 317.9 386.58C317.727 385.98 317.4 385.527 316.92 385.22ZM324.543 388.54C324.543 389.887 324.716 391.007 325.063 391.9C325.409 392.78 326.036 393.66 326.943 394.54L325.723 395.7C324.563 394.713 323.729 393.66 323.223 392.54C322.729 391.42 322.483 390.087 322.483 388.54C322.483 386.993 322.729 385.66 323.223 384.54C323.729 383.42 324.563 382.367 325.723 381.38L326.943 382.56C326.036 383.44 325.409 384.32 325.063 385.2C324.716 386.08 324.543 387.193 324.543 388.54ZM333.016 385.1C333.683 385.1 334.323 385.287 334.936 385.66C335.563 386.033 336.063 386.527 336.436 387.14C336.809 387.753 336.996 388.393 336.996 389.06C336.996 389.727 336.809 390.373 336.436 391C336.063 391.613 335.563 392.107 334.936 392.48C334.323 392.853 333.683 393.04 333.016 393.04C332.349 393.04 331.703 392.853 331.076 392.48C330.463 392.107 329.969 391.613 329.596 391C329.223 390.373 329.036 389.727 329.036 389.06C329.036 388.393 329.223 387.753 329.596 387.14C329.969 386.527 330.463 386.033 331.076 385.66C331.703 385.287 332.349 385.1 333.016 385.1ZM333.016 391.06C333.336 391.06 333.649 390.967 333.956 390.78C334.276 390.58 334.529 390.327 334.716 390.02C334.916 389.7 335.016 389.38 335.016 389.06C335.016 388.74 334.916 388.427 334.716 388.12C334.529 387.813 334.276 387.567 333.956 387.38C333.649 387.193 333.336 387.1 333.016 387.1C332.696 387.1 332.376 387.2 332.056 387.4C331.749 387.587 331.496 387.833 331.296 388.14C331.109 388.433 331.016 388.74 331.016 389.06C331.016 389.38 331.109 389.7 331.296 390.02C331.496 390.327 331.749 390.58 332.056 390.78C332.376 390.967 332.696 391.06 333.016 391.06ZM341.553 393.54L340.693 397.28H339.133L339.673 393.54H341.553ZM343.685 389.94H352.565V392.02H343.685V389.94ZM355.76 389.8C355.76 388.493 355.693 387.367 355.56 386.42C355.427 385.46 355.16 384.313 354.76 382.98L356.76 382.28C357.187 383.627 357.467 384.807 357.6 385.82C357.747 386.833 357.82 388.153 357.82 389.78V395H355.76V389.8ZM363.176 388.54C363.176 387.193 363.002 386.08 362.656 385.2C362.309 384.32 361.682 383.44 360.776 382.56L361.996 381.38C363.156 382.367 363.982 383.42 364.476 384.54C364.982 385.66 365.236 386.993 365.236 388.54C365.236 390.087 364.982 391.42 364.476 392.54C363.982 393.66 363.156 394.713 361.996 395.7L360.776 394.54C361.682 393.66 362.309 392.78 362.656 391.9C363.002 391.007 363.176 389.887 363.176 388.54Z" fill="white"/>
<path d="M319.12 65.12C318.507 65.7067 317.6 66 316.4 66H310.4V53.76H316.16C318.467 53.76 319.62 54.86 319.62 57.06C319.62 57.6867 319.493 58.2267 319.24 58.68C319 59.12 318.66 59.46 318.22 59.7C318.82 59.8733 319.273 60.18 319.58 60.62C319.9 61.06 320.06 61.6667 320.06 62.44C320.06 63.6267 319.747 64.52 319.12 65.12ZM317.12 55.9C316.84 55.5933 316.34 55.44 315.62 55.44H312.46V58.98H315.8C316.973 58.98 317.56 58.4067 317.56 57.26C317.56 56.6467 317.413 56.1933 317.12 55.9ZM317.3 60.94C316.953 60.66 316.433 60.52 315.74 60.52H312.46V64.32H315.9C316.567 64.32 317.053 64.1667 317.36 63.86C317.667 63.54 317.82 63.0333 317.82 62.34C317.82 61.6733 317.647 61.2067 317.3 60.94ZM324.211 59.54C324.211 60.8867 324.384 62.0067 324.731 62.9C325.077 63.78 325.704 64.66 326.611 65.54L325.391 66.7C324.231 65.7133 323.397 64.66 322.891 63.54C322.397 62.42 322.151 61.0867 322.151 59.54C322.151 57.9933 322.397 56.66 322.891 55.54C323.397 54.42 324.231 53.3667 325.391 52.38L326.611 53.56C325.704 54.44 325.077 55.32 324.731 56.2C324.384 57.08 324.211 58.1933 324.211 59.54ZM332.684 56.1C333.351 56.1 333.991 56.2867 334.604 56.66C335.231 57.0333 335.731 57.5267 336.104 58.14C336.477 58.7533 336.664 59.3933 336.664 60.06C336.664 60.7267 336.477 61.3733 336.104 62C335.731 62.6133 335.231 63.1067 334.604 63.48C333.991 63.8533 333.351 64.04 332.684 64.04C332.017 64.04 331.371 63.8533 330.744 63.48C330.131 63.1067 329.637 62.6133 329.264 62C328.891 61.3733 328.704 60.7267 328.704 60.06C328.704 59.3933 328.891 58.7533 329.264 58.14C329.637 57.5267 330.131 57.0333 330.744 56.66C331.371 56.2867 332.017 56.1 332.684 56.1ZM332.684 62.06C333.004 62.06 333.317 61.9667 333.624 61.78C333.944 61.58 334.197 61.3267 334.384 61.02C334.584 60.7 334.684 60.38 334.684 60.06C334.684 59.74 334.584 59.4267 334.384 59.12C334.197 58.8133 333.944 58.5667 333.624 58.38C333.317 58.1933 333.004 58.1 332.684 58.1C332.364 58.1 332.044 58.2 331.724 58.4C331.417 58.5867 331.164 58.8333 330.964 59.14C330.777 59.4333 330.684 59.74 330.684 60.06C330.684 60.38 330.777 60.7 330.964 61.02C331.164 61.3267 331.417 61.58 331.724 61.78C332.044 61.9667 332.364 62.06 332.684 62.06ZM341.221 64.54L340.361 68.28H338.801L339.341 64.54H341.221ZM343.953 60.8C343.953 59.4933 343.886 58.3667 343.753 57.42C343.62 56.46 343.353 55.3133 342.953 53.98L344.953 53.28C345.38 54.6267 345.66 55.8067 345.793 56.82C345.94 57.8333 346.013 59.1533 346.013 60.78V66H343.953V60.8ZM351.369 59.54C351.369 58.1933 351.195 57.08 350.849 56.2C350.502 55.32 349.875 54.44 348.969 53.56L350.189 52.38C351.349 53.3667 352.175 54.42 352.669 55.54C353.175 56.66 353.429 57.9933 353.429 59.54C353.429 61.0867 353.175 62.42 352.669 63.54C352.175 64.66 351.349 65.7133 350.189 66.7L348.969 65.54C349.875 64.66 350.502 63.78 350.849 62.9C351.195 62.0067 351.369 60.8867 351.369 59.54Z" fill="white"/>
<path d="M81.42 260.64C80.34 261.013 79.1867 261.2 77.96 261.2C75.9867 261.2 74.5 260.673 73.5 259.62C72.5133 258.553 72.02 257.047 72.02 255.1C72.02 253.007 72.5 251.4 73.46 250.28C74.4333 249.147 75.9333 248.58 77.96 248.58C79.2533 248.58 80.4 248.773 81.4 249.16V251.26C80.3733 250.82 79.2733 250.6 78.1 250.6C76.7667 250.6 75.7933 250.987 75.18 251.76C74.5667 252.52 74.26 253.633 74.26 255.1C74.26 257.807 75.56 259.16 78.16 259.16C79.2933 259.16 80.38 258.947 81.42 258.52V260.64ZM85.6248 254.54C85.6248 255.887 85.7982 257.007 86.1448 257.9C86.4915 258.78 87.1182 259.66 88.0248 260.54L86.8048 261.7C85.6448 260.713 84.8115 259.66 84.3048 258.54C83.8115 257.42 83.5648 256.087 83.5648 254.54C83.5648 252.993 83.8115 251.66 84.3048 250.54C84.8115 249.42 85.6448 248.367 86.8048 247.38L88.0248 248.56C87.1182 249.44 86.4915 250.32 86.1448 251.2C85.7982 252.08 85.6248 253.193 85.6248 254.54ZM90.6258 255.94H99.5058V258.02H90.6258V255.94ZM102.701 255.8C102.701 254.493 102.634 253.367 102.501 252.42C102.367 251.46 102.101 250.313 101.701 248.98L103.701 248.28C104.127 249.627 104.407 250.807 104.541 251.82C104.687 252.833 104.761 254.153 104.761 255.78V261H102.701V255.8ZM109.52 259.54L108.66 263.28H107.1L107.64 259.54H109.52ZM115.632 251.1C116.299 251.1 116.939 251.287 117.552 251.66C118.179 252.033 118.679 252.527 119.052 253.14C119.426 253.753 119.612 254.393 119.612 255.06C119.612 255.727 119.426 256.373 119.052 257C118.679 257.613 118.179 258.107 117.552 258.48C116.939 258.853 116.299 259.04 115.632 259.04C114.966 259.04 114.319 258.853 113.692 258.48C113.079 258.107 112.586 257.613 112.212 257C111.839 256.373 111.652 255.727 111.652 255.06C111.652 254.393 111.839 253.753 112.212 253.14C112.586 252.527 113.079 252.033 113.692 251.66C114.319 251.287 114.966 251.1 115.632 251.1ZM115.632 257.06C115.952 257.06 116.266 256.967 116.572 256.78C116.892 256.58 117.146 256.327 117.332 256.02C117.532 255.7 117.632 255.38 117.632 255.06C117.632 254.74 117.532 254.427 117.332 254.12C117.146 253.813 116.892 253.567 116.572 253.38C116.266 253.193 115.952 253.1 115.632 253.1C115.312 253.1 114.992 253.2 114.672 253.4C114.366 253.587 114.112 253.833 113.912 254.14C113.726 254.433 113.632 254.74 113.632 255.06C113.632 255.38 113.726 255.7 113.912 256.02C114.112 256.327 114.366 256.58 114.672 256.78C114.992 256.967 115.312 257.06 115.632 257.06ZM124.102 254.54C124.102 253.193 123.928 252.08 123.582 251.2C123.235 250.32 122.608 249.44 121.702 248.56L122.922 247.38C124.082 248.367 124.908 249.42 125.402 250.54C125.908 251.66 126.162 252.993 126.162 254.54C126.162 256.087 125.908 257.42 125.402 258.54C124.908 259.66 124.082 260.713 122.922 261.7L121.702 260.54C122.608 259.66 123.235 258.78 123.582 257.9C123.928 257.007 124.102 255.887 124.102 254.54Z" fill="white"/>
<path fill-rule="evenodd" clip-rule="evenodd" d="M334.515 216C340.172 216 343 211.536 343 202.607C343 197.843 342.293 194.391 340.879 192.252C339.484 190.084 337.363 189 334.515 189C331.667 189 329.535 190.084 328.121 192.252C326.707 194.391 326 197.843 326 202.607C326 211.536 328.838 216 334.515 216ZM334.515 210.566C333.021 210.566 331.916 209.924 331.199 208.64C330.642 207.593 330.308 206.1 330.195 204.161H338.833C338.718 206.1 338.374 207.593 337.801 208.64C337.104 209.924 336.009 210.566 334.515 210.566ZM338.754 199.883H330.276C330.433 198.33 330.74 197.142 331.199 196.317C331.896 195.033 333.001 194.391 334.515 194.391C336.029 194.391 337.134 195.033 337.831 196.317C338.289 197.142 338.597 198.33 338.754 199.883Z" fill="white"/>
<path fill-rule="evenodd" clip-rule="evenodd" d="M449.511 223C453.837 223 456 219.858 456 213.575C456 210.223 455.459 207.794 454.378 206.288C453.312 204.763 451.69 204 449.511 204C447.333 204 445.704 204.763 444.622 206.288C443.541 207.794 443 210.223 443 213.575C443 219.858 445.17 223 449.511 223ZM449.511 219.176C448.369 219.176 447.524 218.724 446.975 217.821C446.55 217.084 446.294 216.033 446.208 214.669H452.814C452.725 216.033 452.462 217.084 452.025 217.821C451.491 218.724 450.654 219.176 449.511 219.176ZM452.753 211.658H446.27C446.39 210.566 446.625 209.73 446.975 209.149C447.509 208.246 448.354 207.794 449.511 207.794C450.669 207.794 451.514 208.246 452.047 209.149C452.398 209.73 452.633 210.566 452.753 211.658Z" fill="white"/>
<path fill-rule="evenodd" clip-rule="evenodd" d="M75.5114 223C79.8371 223 82 219.858 82 213.575C82 210.223 81.4593 207.794 80.3779 206.288C79.3117 204.763 77.6895 204 75.5114 204C73.3333 204 71.7036 204.763 70.6221 206.288C69.5407 207.794 69 210.223 69 213.575C69 219.858 71.1705 223 75.5114 223ZM75.5114 219.176C74.3691 219.176 73.5237 218.724 72.9754 217.821C72.5498 217.084 72.2941 216.033 72.2083 214.669H78.8136C78.7253 216.033 78.4623 217.084 78.0246 217.821C77.4915 218.724 76.6538 219.176 75.5114 219.176ZM78.7532 211.658H72.2697C72.3898 210.566 72.625 209.73 72.9754 209.149C73.5085 208.246 74.3538 207.794 75.5114 207.794C76.669 207.794 77.5143 208.246 78.0475 209.149C78.3978 209.73 78.6331 210.566 78.7532 211.658Z" fill="white"/>
<path fill-rule="evenodd" clip-rule="evenodd" d="M218.511 397C222.837 397 225 393.858 225 387.575C225 384.223 224.459 381.794 223.378 380.288C222.312 378.763 220.69 378 218.511 378C216.333 378 214.704 378.763 213.622 380.288C212.541 381.794 212 384.223 212 387.575C212 393.858 214.17 397 218.511 397ZM218.511 393.176C217.369 393.176 216.524 392.724 215.975 391.821C215.55 391.084 215.294 390.033 215.208 388.669H221.814C221.725 390.033 221.462 391.084 221.025 391.821C220.491 392.724 219.654 393.176 218.511 393.176ZM221.753 385.658H215.27C215.39 384.566 215.625 383.73 215.975 383.149C216.509 382.246 217.354 381.794 218.511 381.794C219.669 381.794 220.514 382.246 221.047 383.149C221.398 383.73 221.633 384.566 221.753 385.658Z" fill="white"/>
<path fill-rule="evenodd" clip-rule="evenodd" d="M226.51 92C230.17 92 232 89.1891 232 83.5674C232 80.5679 231.542 78.3946 230.627 77.0475C229.725 75.6825 228.353 75 226.51 75C224.667 75 223.288 75.6825 222.373 77.0475C221.458 78.3946 221 80.5679 221 83.5674C221 89.1891 222.837 92 226.51 92ZM226.51 88.5784C225.543 88.5784 224.828 88.1743 224.364 87.3661C224.004 86.7065 223.787 85.7665 223.715 84.5461H229.304C229.229 85.7665 229.007 86.7065 228.636 87.3661C228.185 88.1743 227.476 88.5784 226.51 88.5784ZM229.253 81.852H223.767C223.868 80.8747 224.067 80.1264 224.364 79.607C224.815 78.7987 225.53 78.3946 226.51 78.3946C227.489 78.3946 228.204 78.7987 228.656 79.607C228.952 80.1264 229.151 80.8747 229.253 81.852Z" fill="white"/>
<circle cx="341" cy="107" r="8" fill="#6FD3A1" stroke="white" stroke-width="2"/>
<circle cx="291.5" cy="99" r="8" fill="#6FD3A1" stroke="white" stroke-width="2"/>
<circle cx="159" cy="233" r="8" fill="#6FD3A1" stroke="white" stroke-width="2"/>
<circle cx="426" cy="233" r="8" fill="#6FD3A1" stroke="white" stroke-width="2"/>
<circle cx="291.5" cy="367" r="8" fill="#6FD3A1" stroke="white" stroke-width="2"/>
<path d="M525.983 235.68L522.863 240H519.293L524.213 233.13L519.443 226.5H523.043L525.983 230.58L528.953 226.5H532.493L527.783 233.13L532.703 240H529.103L525.983 235.68Z" fill="white"/>
<path d="M29.8488 235.68L26.7288 240H23.1588L28.0788 233.13L23.3088 226.5H26.9088L29.8488 230.58L32.8188 226.5H36.3588L31.6488 233.13L36.5688 240H32.9688L29.8488 235.68ZM46.9821 217.32C46.7021 217.6 46.3321 217.94 45.8721 218.34C45.4121 218.74 44.9121 219.16 44.3721 219.6C43.8521 220.04 43.3321 220.46 42.8121 220.86C42.3121 221.24 41.8721 221.56 41.4921 221.82H38.5221V221.43C38.8421 221.05 39.2121 220.61 39.6321 220.11C40.0721 219.59 40.5021 219.06 40.9221 218.52C41.3421 217.96 41.6921 217.46 41.9721 217.02H46.9821V217.32Z" fill="white"/>
</svg>
