<svg width="468" height="468" viewBox="0 0 468 468" fill="none" xmlns="http://www.w3.org/2000/svg">
<circle cx="234.5" cy="233" r="134" fill="#9000FF" fill-opacity="0.2" stroke="white" stroke-width="2"/>
<mask id="path-2-outside-1_2088_171" maskUnits="userSpaceOnUse" x="42.7177" y="73.1833" width="353.643" height="351.62" fill="black">
<rect fill="white" x="42.7177" y="73.1833" width="353.643" height="351.62"/>
<path d="M136.25 143.295C121.476 159.138 110.795 178.351 105.137 199.262C99.4788 220.173 99.0142 242.15 103.784 263.282C108.553 284.414 118.412 304.061 132.504 320.514C146.595 336.968 164.493 349.731 184.64 357.692C204.787 365.654 226.574 368.574 248.107 366.198C269.639 363.822 290.266 356.222 308.192 344.06C326.119 331.897 340.803 315.539 350.969 296.409C361.134 277.279 366.472 255.955 366.52 234.292L233.52 234L136.25 143.295Z"/>
</mask>
<path d="M136.25 143.295C121.476 159.138 110.795 178.351 105.137 199.262C99.4788 220.173 99.0142 242.15 103.784 263.282C108.553 284.414 118.412 304.061 132.504 320.514C146.595 336.968 164.493 349.731 184.64 357.692C204.787 365.654 226.574 368.574 248.107 366.198C269.639 363.822 290.266 356.222 308.192 344.06C326.119 331.897 340.803 315.539 350.969 296.409C361.134 277.279 366.472 255.955 366.52 234.292L233.52 234L136.25 143.295Z" fill="#7E1A1C" fill-opacity="0.6"/>
<path d="M136.25 143.295C121.476 159.138 110.795 178.351 105.137 199.262C99.4788 220.173 99.0142 242.15 103.784 263.282C108.553 284.414 118.412 304.061 132.504 320.514C146.595 336.968 164.493 349.731 184.64 357.692C204.787 365.654 226.574 368.574 248.107 366.198C269.639 363.822 290.266 356.222 308.192 344.06C326.119 331.897 340.803 315.539 350.969 296.409C361.134 277.279 366.472 255.955 366.52 234.292L233.52 234L136.25 143.295Z" stroke="white" stroke-width="4" mask="url(#path-2-outside-1_2088_171)"/>
<path d="M233.5 59L227.726 69L239.273 69L233.5 59ZM234.5 408L234.5 68L232.5 68L232.5 408L234.5 408Z" fill="white"/>
<path d="M408 233.5L398 227.726V239.274L408 233.5ZM59 234.5L399 234.5V232.5L59 232.5V234.5Z" fill="white"/>
<path d="M229.316 441.45C228.336 442.49 227.086 443.01 225.566 443.01C224.926 443.01 224.386 442.97 223.946 442.89C223.526 442.83 223.106 442.7 222.686 442.5V439.53C223.166 439.73 223.706 439.83 224.306 439.83C224.966 439.83 225.496 439.66 225.896 439.32C226.296 438.98 226.696 438.44 227.096 437.7L221.396 424.5H225.716L229.106 433.5L232.586 424.5H236.816L231.926 436.92C231.166 438.92 230.296 440.43 229.316 441.45ZM246.714 415.32C246.434 415.6 246.064 415.94 245.604 416.34C245.144 416.74 244.644 417.16 244.104 417.6C243.584 418.04 243.064 418.46 242.544 418.86C242.044 419.24 241.604 419.56 241.224 419.82H238.254V419.43C238.574 419.05 238.944 418.61 239.364 418.11C239.804 417.59 240.234 417.06 240.654 416.52C241.074 415.96 241.424 415.46 241.704 415.02H246.714V415.32Z" fill="white"/>
<path d="M234.451 46.45C233.471 47.49 232.221 48.01 230.701 48.01C230.061 48.01 229.521 47.97 229.081 47.89C228.661 47.83 228.241 47.7 227.821 47.5V44.53C228.301 44.73 228.841 44.83 229.441 44.83C230.101 44.83 230.631 44.66 231.031 44.32C231.431 43.98 231.831 43.44 232.231 42.7L226.531 29.5H230.851L234.241 38.5L237.721 29.5H241.951L237.061 41.92C236.301 43.92 235.431 45.43 234.451 46.45Z" fill="white"/>
<path d="M325.373 75.01C325.573 75.01 325.673 75.7 325.673 77.08C325.673 78.36 325.573 79 325.373 79H322.733C322.873 79.16 322.943 79.48 322.943 79.96C322.943 81.16 322.593 82.23 321.893 83.17C321.193 84.11 320.223 84.84 318.983 85.36C317.743 85.9 316.313 86.17 314.693 86.17H312.443C309.843 86.17 307.833 85.42 306.413 83.92C305.013 82.44 304.313 80.36 304.313 77.68V71.68H308.123V77.59C308.123 79.11 308.473 80.25 309.173 81.01C309.873 81.79 310.963 82.18 312.443 82.18H314.753C317.673 82.18 319.133 81.43 319.133 79.93C319.133 79.51 319.023 79.21 318.803 79.03C318.583 78.87 318.223 78.79 317.723 78.79H312.473L312.833 75.01H325.373ZM328.029 75.01C327.689 74.65 327.419 74.18 327.219 73.6C327.039 73.02 326.949 72.44 326.949 71.86C326.949 70.76 327.209 69.75 327.729 68.83C328.269 67.91 328.999 67.18 329.919 66.64C330.839 66.1 331.859 65.83 332.979 65.83C334.179 65.83 335.229 66.08 336.129 66.58C337.049 67.06 337.759 67.75 338.259 68.65C338.779 69.55 339.039 70.57 339.039 71.71C339.039 73.03 338.619 74.13 337.779 75.01H341.229C341.429 75.01 341.529 75.7 341.529 77.08C341.529 78.36 341.429 79 341.229 79H337.149C336.009 79 335.119 78.96 334.479 78.88C333.839 78.78 333.339 78.62 332.979 78.4C332.619 78.62 332.099 78.78 331.419 78.88C330.759 78.96 329.899 79 328.839 79H324.759C324.559 79 324.459 78.36 324.459 77.08C324.459 75.7 324.559 75.01 324.759 75.01H328.029ZM332.979 69.64C332.299 69.64 331.749 69.86 331.329 70.3C330.929 70.72 330.729 71.25 330.729 71.89C330.729 72.51 330.929 73.1 331.329 73.66C331.729 74.2 332.279 74.65 332.979 75.01C333.719 74.67 334.279 74.22 334.659 73.66C335.039 73.08 335.229 72.49 335.229 71.89C335.229 71.19 335.029 70.64 334.629 70.24C334.229 69.84 333.679 69.64 332.979 69.64ZM330.939 62.83V59.41H335.019V62.83H330.939ZM344.104 75.01C344.604 75.01 345.004 74.88 345.304 74.62C345.624 74.34 345.784 73.96 345.784 73.48V68.68H349.594V73.36C349.594 74.46 350.154 75.01 351.274 75.01H352.414C352.614 75.01 352.714 75.68 352.714 77.02C352.714 78.34 352.614 79 352.414 79H351.094C349.414 79 348.274 78.52 347.674 77.56C347.314 78.06 346.834 78.43 346.234 78.67C345.654 78.89 344.944 79 344.104 79H340.624C340.424 79 340.324 78.36 340.324 77.08C340.324 75.7 340.424 75.01 340.624 75.01H344.104ZM344.194 65.56V62.14H348.274V65.56H344.194ZM352.581 75.01C353.141 75.01 353.531 74.9 353.751 74.68C353.991 74.46 354.111 74.1 354.111 73.6V72.76C354.111 70.82 354.661 69.29 355.761 68.17C356.881 67.03 358.391 66.46 360.291 66.46C362.191 66.46 363.641 67.01 364.641 68.11C365.661 69.19 366.171 70.75 366.171 72.79C366.171 74.75 365.641 76.28 364.581 77.38C363.521 78.46 362.041 79 360.141 79C359.141 79 358.311 78.88 357.651 78.64C356.991 78.38 356.501 78.02 356.181 77.56C355.801 78.06 355.321 78.43 354.741 78.67C354.181 78.89 353.461 79 352.581 79H351.801C351.601 79 351.501 78.36 351.501 77.08C351.501 75.7 351.601 75.01 351.801 75.01H352.581ZM362.391 72.79C362.391 71.11 361.641 70.27 360.141 70.27C358.641 70.27 357.891 71.11 357.891 72.79C357.891 73.51 358.071 74.07 358.431 74.47C358.811 74.85 359.381 75.04 360.141 75.04C360.901 75.04 361.461 74.86 361.821 74.5C362.201 74.12 362.391 73.55 362.391 72.79ZM387.519 72.94C387.519 73.66 387.649 74.19 387.909 74.53C388.169 74.85 388.559 75.01 389.079 75.01H390.009C390.109 75.01 390.179 75.14 390.219 75.4C390.279 75.66 390.309 76.22 390.309 77.08C390.309 77.88 390.279 78.4 390.219 78.64C390.179 78.88 390.109 79 390.009 79H389.049C387.969 79 387.069 78.82 386.349 78.46C385.649 78.08 385.159 77.47 384.879 76.63C384.459 76.99 383.909 77.26 383.229 77.44C382.569 77.6 381.879 77.68 381.159 77.68C379.359 77.68 377.979 77.19 377.019 76.21C376.079 75.21 375.609 73.73 375.609 71.77C375.609 70.65 375.859 69.61 376.359 68.65C376.879 67.67 377.599 66.89 378.519 66.31C379.459 65.71 380.529 65.41 381.729 65.41H383.709V63.46H387.519V72.94ZM379.389 71.74C379.389 72.4 379.539 72.9 379.839 73.24C380.159 73.56 380.669 73.72 381.369 73.72C382.129 73.72 382.709 73.59 383.109 73.33C383.529 73.05 383.739 72.66 383.739 72.16V69.22H381.789C380.189 69.22 379.389 70.06 379.389 71.74ZM397.836 73.66C397.836 75.32 397.336 76.63 396.336 77.59C395.356 78.53 394.026 79 392.346 79H389.406C389.206 79 389.106 78.36 389.106 77.08C389.106 75.7 389.206 75.01 389.406 75.01H392.346C392.846 75.01 393.246 74.88 393.546 74.62C393.866 74.34 394.026 73.96 394.026 73.48V68.68H397.836V73.66ZM396.036 82.12V85.54H387.576V82.12H396.036ZM413.215 77.74C413.215 80.36 412.515 82.42 411.115 83.92C409.735 85.42 407.835 86.17 405.415 86.17H401.305L400.975 82.18H405.655C406.835 82.18 407.755 81.89 408.415 81.31C409.075 80.75 409.405 79.98 409.405 79H407.305C405.145 79 403.595 78.55 402.655 77.65C401.735 76.75 401.275 75.32 401.275 73.36C401.275 72.08 401.525 70.94 402.025 69.94C402.525 68.94 403.225 68.16 404.125 67.6C405.045 67.04 406.105 66.76 407.305 66.76C409.145 66.76 410.585 67.36 411.625 68.56C412.685 69.76 413.215 71.42 413.215 73.54V77.74ZM405.055 73.21C405.055 73.85 405.225 74.32 405.565 74.62C405.925 74.9 406.555 75.04 407.455 75.04H409.405V73.48C409.405 72.52 409.215 71.79 408.835 71.29C408.455 70.79 407.905 70.54 407.185 70.54C406.505 70.54 405.975 70.79 405.595 71.29C405.235 71.77 405.055 72.41 405.055 73.21ZM416.911 59.68H420.751V79H416.911V59.68ZM429.684 77.89C429.684 79.53 429.354 80.97 428.694 82.21C428.034 83.47 427.084 84.44 425.844 85.12C424.624 85.82 423.204 86.17 421.584 86.17H419.064L418.734 82.18H421.524C422.904 82.18 423.974 81.8 424.734 81.04C425.494 80.3 425.874 79.25 425.874 77.89V68.68H429.684V77.89ZM425.604 65.56V62.14H429.684V65.56H425.604Z" fill="white"/>
<path d="M428.018 236.31L425.348 240H420.938L425.798 233.13L421.088 226.5H425.528L428.018 229.95L430.478 226.5H434.888L430.238 233.13L435.098 240H430.628L428.018 236.31Z" fill="white"/>
<path d="M33.883 236.31L31.213 240H26.803L31.663 233.13L26.953 226.5H31.393L33.883 229.95L36.343 226.5H40.753L36.103 233.13L40.963 240H36.493L33.883 236.31ZM51.1579 217.32C50.8779 217.6 50.5079 217.94 50.0479 218.34C49.5879 218.74 49.0879 219.16 48.5479 219.6C48.0279 220.04 47.5079 220.46 46.9879 220.86C46.4879 221.24 46.0479 221.56 45.6679 221.82H42.6979V221.43C43.0179 221.05 43.3879 220.61 43.8079 220.11C44.2479 219.59 44.6779 219.06 45.0979 218.52C45.5179 217.96 45.8679 217.46 46.1479 217.02H51.1579V217.32Z" fill="white"/>
<path d="M384.018 218.68L382.488 223H378.198L384.798 204.64H389.208L395.808 223H391.578L389.988 218.68H384.018ZM389.478 215.53L387.018 208.9L384.528 215.53H389.478Z" fill="white"/>
<path d="M119.585 130.57H115.445V136H111.335V117.64H119.675C121.675 117.64 123.175 118.24 124.175 119.44C125.195 120.64 125.705 122.22 125.705 124.18C125.705 125.42 125.455 126.53 124.955 127.51C124.455 128.47 123.745 129.22 122.825 129.76C121.905 130.3 120.825 130.57 119.585 130.57ZM120.905 121.96C120.445 121.46 119.765 121.21 118.865 121.21H115.445V127.03H118.715C119.635 127.03 120.345 126.78 120.845 126.28C121.345 125.76 121.595 125.06 121.595 124.18C121.595 123.2 121.365 122.46 120.905 121.96Z" fill="white"/>
<path d="M140.504 278.11H154.064V281.92H140.504V278.11ZM163.902 277.57C163.122 277.57 162.552 277.46 162.192 277.24V278.29V286H158.382V278.35C158.382 276.39 158.282 274.71 158.082 273.31C157.882 271.91 157.482 270.22 156.882 268.24L160.542 266.95L161.892 272.17C162.112 273.11 162.662 273.58 163.542 273.58C163.982 273.58 164.342 273.46 164.622 273.22C164.922 272.96 165.072 272.62 165.072 272.2C165.072 271.64 164.872 270.15 164.472 267.73L168.312 266.95C168.712 269.37 168.912 271.19 168.912 272.41C168.912 273.41 168.692 274.3 168.252 275.08C167.832 275.86 167.242 276.47 166.482 276.91C165.722 277.35 164.862 277.57 163.902 277.57ZM172.958 278.35C172.958 276.39 172.858 274.71 172.658 273.31C172.458 271.91 172.058 270.22 171.458 268.24L175.178 266.95C175.818 268.93 176.238 270.7 176.438 272.26C176.658 273.8 176.768 275.81 176.768 278.29V286H172.958V278.35ZM186.602 270.97C187.642 270.97 188.632 271.26 189.572 271.84C190.512 272.4 191.262 273.15 191.822 274.09C192.402 275.03 192.692 276.02 192.692 277.06C192.692 278.08 192.402 279.07 191.822 280.03C191.242 280.97 190.482 281.73 189.542 282.31C188.602 282.89 187.622 283.18 186.602 283.18C185.562 283.18 184.562 282.89 183.602 282.31C182.662 281.73 181.902 280.97 181.322 280.03C180.742 279.07 180.452 278.08 180.452 277.06C180.452 276.02 180.742 275.03 181.322 274.09C181.902 273.15 182.662 272.4 183.602 271.84C184.562 271.26 185.562 270.97 186.602 270.97ZM186.602 279.52C187.222 279.52 187.782 279.27 188.282 278.77C188.782 278.25 189.032 277.68 189.032 277.06C189.032 276.44 188.782 275.88 188.282 275.38C187.782 274.88 187.222 274.63 186.602 274.63C185.962 274.63 185.382 274.88 184.862 275.38C184.362 275.88 184.112 276.44 184.112 277.06C184.112 277.68 184.372 278.25 184.892 278.77C185.412 279.27 185.982 279.52 186.602 279.52ZM198.58 267.85C197.5 267.85 196.62 267.54 195.94 266.92C195.28 266.3 194.95 265.45 194.95 264.37C194.95 263.29 195.28 262.44 195.94 261.82C196.62 261.2 197.5 260.89 198.58 260.89C199.62 260.89 200.5 261.2 201.22 261.82C201.94 262.44 202.3 263.28 202.3 264.34C202.3 265.44 201.94 266.3 201.22 266.92C200.52 267.54 199.64 267.85 198.58 267.85ZM198.58 265.78C198.98 265.78 199.31 265.66 199.57 265.42C199.85 265.16 199.99 264.81 199.99 264.37C199.99 263.93 199.85 263.59 199.57 263.35C199.31 263.09 198.98 262.96 198.58 262.96C198.18 262.96 197.84 263.09 197.56 263.35C197.3 263.59 197.17 263.93 197.17 264.37C197.17 264.81 197.29 265.16 197.53 265.42C197.77 265.66 198.12 265.78 198.58 265.78Z" fill="white"/>
<path d="M206.001 207L197.908 215.236L209.087 218.127L206.001 207ZM263.019 233.812C260.809 245.332 255.421 253.052 248.826 257.423C242.224 261.799 234.332 262.876 226.998 260.966C212.396 257.164 199.815 241.417 204.728 215.909L202.764 215.531C197.682 241.917 210.723 258.795 226.494 262.902C234.346 264.946 242.829 263.798 249.931 259.09C257.041 254.377 262.688 246.152 264.984 234.188L263.019 233.812Z" fill="white"/>
</svg>
