<svg width="468" height="468" viewBox="0 0 468 468" fill="none" xmlns="http://www.w3.org/2000/svg">
<circle cx="234.5" cy="233" r="134" fill="#9000FF" fill-opacity="0.2" stroke="white" stroke-width="2"/>
<mask id="path-2-outside-1_2086_93" maskUnits="userSpaceOnUse" x="231.5" y="140" width="138" height="186" fill="black">
<rect fill="white" x="231.5" y="140" width="138" height="186"/>
<path d="M332.299 142.865C354.833 167.315 367.391 199.318 367.499 232.567C367.607 265.817 355.258 297.901 332.884 322.496L234.5 233L332.299 142.865Z"/>
</mask>
<path d="M332.299 142.865C354.833 167.315 367.391 199.318 367.499 232.567C367.607 265.817 355.258 297.901 332.884 322.496L234.5 233L332.299 142.865Z" fill="#1A7E7A" fill-opacity="0.6"/>
<path d="M332.299 142.865C354.833 167.315 367.391 199.318 367.499 232.567C367.607 265.817 355.258 297.901 332.884 322.496L234.5 233L332.299 142.865Z" stroke="white" stroke-width="4" mask="url(#path-2-outside-1_2086_93)"/>
<path d="M233.5 59L227.726 69L239.273 69L233.5 59ZM234.5 408L234.5 68L232.5 68L232.5 408L234.5 408Z" fill="white"/>
<path d="M408 233.5L398 227.726V239.274L408 233.5ZM59 234.5L399 234.5V232.5L59 232.5V234.5Z" fill="white"/>
<path d="M229.316 441.45C228.336 442.49 227.086 443.01 225.566 443.01C224.926 443.01 224.386 442.97 223.946 442.89C223.526 442.83 223.106 442.7 222.686 442.5V439.53C223.166 439.73 223.706 439.83 224.306 439.83C224.966 439.83 225.496 439.66 225.896 439.32C226.296 438.98 226.696 438.44 227.096 437.7L221.396 424.5H225.716L229.106 433.5L232.586 424.5H236.816L231.926 436.92C231.166 438.92 230.296 440.43 229.316 441.45ZM246.714 415.32C246.434 415.6 246.064 415.94 245.604 416.34C245.144 416.74 244.644 417.16 244.104 417.6C243.584 418.04 243.064 418.46 242.544 418.86C242.044 419.24 241.604 419.56 241.224 419.82H238.254V419.43C238.574 419.05 238.944 418.61 239.364 418.11C239.804 417.59 240.234 417.06 240.654 416.52C241.074 415.96 241.424 415.46 241.704 415.02H246.714V415.32Z" fill="white"/>
<path d="M234.451 46.45C233.471 47.49 232.221 48.01 230.701 48.01C230.061 48.01 229.521 47.97 229.081 47.89C228.661 47.83 228.241 47.7 227.821 47.5V44.53C228.301 44.73 228.841 44.83 229.441 44.83C230.101 44.83 230.631 44.66 231.031 44.32C231.431 43.98 231.831 43.44 232.231 42.7L226.531 29.5H230.851L234.241 38.5L237.721 29.5H241.951L237.061 41.92C236.301 43.92 235.431 45.43 234.451 46.45Z" fill="white"/>
<path d="M428.018 236.31L425.348 240H420.938L425.798 233.13L421.088 226.5H425.528L428.018 229.95L430.478 226.5H434.888L430.238 233.13L435.098 240H430.628L428.018 236.31Z" fill="white"/>
<path d="M33.883 236.31L31.213 240H26.803L31.663 233.13L26.953 226.5H31.393L33.883 229.95L36.343 226.5H40.753L36.103 233.13L40.963 240H36.493L33.883 236.31ZM51.1579 217.32C50.8779 217.6 50.5079 217.94 50.0479 218.34C49.5879 218.74 49.0879 219.16 48.5479 219.6C48.0279 220.04 47.5079 220.46 46.9879 220.86C46.4879 221.24 46.0479 221.56 45.6679 221.82H42.6979V221.43C43.0179 221.05 43.3879 220.61 43.8079 220.11C44.2479 219.59 44.6779 219.06 45.0979 218.52C45.5179 217.96 45.8679 217.46 46.1479 217.02H51.1579V217.32Z" fill="white"/>
<path d="M216.532 255.91C216.532 262.17 213.692 265.3 208.012 265.3C202.312 265.3 199.462 262.17 199.462 255.91C199.462 252.57 200.172 250.15 201.592 248.65C203.012 247.13 205.152 246.37 208.012 246.37C210.872 246.37 213.002 247.13 214.402 248.65C215.822 250.15 216.532 252.57 216.532 255.91ZM204.682 260.14C205.402 261.04 206.512 261.49 208.012 261.49C209.512 261.49 210.612 261.04 211.312 260.14C212.032 259.22 212.392 257.81 212.392 255.91C212.392 253.85 212.042 252.38 211.342 251.5C210.642 250.6 209.532 250.15 208.012 250.15C206.492 250.15 205.382 250.6 204.682 251.5C203.982 252.38 203.632 253.85 203.632 255.91C203.632 257.81 203.982 259.22 204.682 260.14Z" fill="white"/>
<path d="M302.551 265.35C301.174 265.35 299.926 265.058 298.806 264.475C297.686 263.892 296.799 263.04 296.146 261.92C295.492 260.777 295.166 259.365 295.166 257.685C295.166 256.052 295.504 254.652 296.181 253.485C296.881 252.295 297.791 251.385 298.911 250.755C300.054 250.102 301.291 249.775 302.621 249.775C303.974 249.775 305.094 250.055 305.981 250.615C306.867 251.152 307.567 251.805 308.081 252.575L308.326 250.37H311.581V265H308.046V262.69C307.789 263.017 307.404 263.39 306.891 263.81C306.377 264.23 305.759 264.592 305.036 264.895C304.312 265.198 303.484 265.35 302.551 265.35ZM303.496 262.445C304.662 262.445 305.642 262.142 306.436 261.535C307.252 260.905 307.789 260.053 308.046 258.98V255.97C307.766 255.013 307.194 254.22 306.331 253.59C305.491 252.96 304.511 252.645 303.391 252.645C302.551 252.645 301.781 252.855 301.081 253.275C300.381 253.672 299.821 254.243 299.401 254.99C298.981 255.713 298.771 256.553 298.771 257.51C298.771 258.443 298.981 259.283 299.401 260.03C299.844 260.777 300.427 261.372 301.151 261.815C301.874 262.235 302.656 262.445 303.496 262.445Z" fill="white"/>
<path d="M384.018 218.68L382.488 223H378.198L384.798 204.64H389.208L395.808 223H391.578L389.988 218.68H384.018ZM389.478 215.53L387.018 208.9L384.528 215.53H389.478Z" fill="white"/>
<path d="M348.585 131.57H344.445V137H340.335V118.64H348.675C350.675 118.64 352.175 119.24 353.175 120.44C354.195 121.64 354.705 123.22 354.705 125.18C354.705 126.42 354.455 127.53 353.955 128.51C353.455 129.47 352.745 130.22 351.825 130.76C350.905 131.3 349.825 131.57 348.585 131.57ZM349.905 122.96C349.445 122.46 348.765 122.21 347.865 122.21H344.445V128.03H347.715C348.635 128.03 349.345 127.78 349.845 127.28C350.345 126.76 350.595 126.06 350.595 125.18C350.595 124.2 350.365 123.46 349.905 122.96Z" fill="white"/>
<path d="M352.262 350.53C351.422 350.77 350.472 350.89 349.412 350.89C347.952 350.89 346.882 350.48 346.202 349.66C345.522 348.84 345.162 347.67 345.122 346.15C340.682 345.57 338.462 342.49 338.462 336.91C338.462 333.57 339.172 331.15 340.592 329.65C342.012 328.13 344.152 327.37 347.012 327.37C349.872 327.37 352.002 328.13 353.402 329.65C354.822 331.15 355.532 333.57 355.532 336.91C355.532 342.65 353.182 345.75 348.482 346.21C348.522 346.93 348.682 347.44 348.962 347.74C349.242 348.06 349.702 348.22 350.342 348.22C350.982 348.22 351.622 348.12 352.262 347.92V350.53ZM343.682 341.14C344.402 342.04 345.512 342.49 347.012 342.49C348.512 342.49 349.612 342.04 350.312 341.14C351.032 340.22 351.392 338.81 351.392 336.91C351.392 334.85 351.042 333.38 350.342 332.5C349.642 331.6 348.532 331.15 347.012 331.15C345.492 331.15 344.382 331.6 343.682 332.5C342.982 333.38 342.632 334.85 342.632 336.91C342.632 338.81 342.982 340.22 343.682 341.14Z" fill="white"/>
<path fill-rule="evenodd" clip-rule="evenodd" d="M303.014 221C308.338 221 311 217.197 311 209.591C311 205.533 310.335 202.593 309.004 200.77C307.691 198.923 305.695 198 303.014 198C300.333 198 298.327 198.923 296.996 200.77C295.665 202.593 295 205.533 295 209.591C295 217.197 297.671 221 303.014 221ZM303.014 216.371C301.608 216.371 300.568 215.824 299.893 214.731C299.369 213.838 299.054 212.566 298.949 210.915H307.078C306.97 212.566 306.646 213.838 306.107 214.731C305.451 215.824 304.42 216.371 303.014 216.371ZM307.004 207.27H299.024C299.172 205.948 299.462 204.936 299.893 204.233C300.549 203.139 301.589 202.593 303.014 202.593C304.439 202.593 305.479 203.139 306.135 204.233C306.567 204.936 306.856 205.948 307.004 207.27Z" fill="white"/>
<path d="M262 207.5L272.215 212.885L271.771 201.346L262 207.5ZM286.943 232.501C287.377 232.476 287.624 232.746 287.686 232.826C287.75 232.908 287.761 232.96 287.744 232.912C287.714 232.829 287.67 232.65 287.616 232.335C287.508 231.718 287.401 230.832 287.246 229.686C286.941 227.435 286.473 224.349 285.527 221.157C283.645 214.813 279.765 207.725 271.172 206.17L270.816 208.138C278.264 209.486 281.794 215.605 283.609 221.725C284.511 224.765 284.963 227.726 285.264 229.954C285.412 231.049 285.529 232.011 285.645 232.678C285.702 233.005 285.769 233.327 285.86 233.582C285.903 233.703 285.976 233.884 286.106 234.051C286.234 234.216 286.55 234.528 287.059 234.498L286.943 232.501Z" fill="white"/>
<path d="M262.359 259.021L272.574 253.637L272.13 265.175L262.359 259.021ZM287.302 234.02C287.737 234.045 287.984 233.776 288.046 233.696C288.109 233.614 288.121 233.561 288.103 233.61C288.074 233.693 288.03 233.871 287.975 234.186C287.868 234.804 287.76 235.69 287.605 236.835C287.301 239.087 286.833 242.172 285.886 245.365C284.004 251.709 280.124 258.797 271.531 260.352L271.175 258.384C278.623 257.036 282.153 250.916 283.969 244.796C284.87 241.756 285.322 238.795 285.623 236.567C285.771 235.472 285.889 234.511 286.004 233.844C286.061 233.517 286.128 233.194 286.219 232.939C286.262 232.819 286.336 232.637 286.465 232.471C286.593 232.305 286.91 231.994 287.418 232.024L287.302 234.02Z" fill="white"/>
</svg>
