<svg width="468" height="468" viewBox="0 0 468 468" fill="none" xmlns="http://www.w3.org/2000/svg">
<circle cx="234.5" cy="233" r="134" fill="#9000FF" fill-opacity="0.2" stroke="white" stroke-width="2"/>
<mask id="path-2-outside-1_2088_275" maskUnits="userSpaceOnUse" x="231.5" y="140" width="137" height="95" fill="black">
<rect fill="white" x="231.5" y="140" width="137" height="95"/>
<path d="M331.299 142.865C353.874 167.359 366.435 199.433 366.5 232.743L233.5 233L331.299 142.865Z"/>
</mask>
<path d="M331.299 142.865C353.874 167.359 366.435 199.433 366.5 232.743L233.5 233L331.299 142.865Z" fill="#1A7E7A" fill-opacity="0.6"/>
<path d="M331.299 142.865C353.874 167.359 366.435 199.433 366.5 232.743L233.5 233L331.299 142.865Z" stroke="white" stroke-width="4" stroke-linejoin="round" mask="url(#path-2-outside-1_2088_275)"/>
<path d="M233.5 59L227.726 69L239.273 69L233.5 59ZM234.5 408L234.5 68L232.5 68L232.5 408L234.5 408Z" fill="white"/>
<path d="M408 233.5L398 227.726V239.274L408 233.5ZM59 234.5L399 234.5V232.5L59 232.5V234.5Z" fill="white"/>
<path d="M229.316 441.45C228.336 442.49 227.086 443.01 225.566 443.01C224.926 443.01 224.386 442.97 223.946 442.89C223.526 442.83 223.106 442.7 222.686 442.5V439.53C223.166 439.73 223.706 439.83 224.306 439.83C224.966 439.83 225.496 439.66 225.896 439.32C226.296 438.98 226.696 438.44 227.096 437.7L221.396 424.5H225.716L229.106 433.5L232.586 424.5H236.816L231.926 436.92C231.166 438.92 230.296 440.43 229.316 441.45ZM246.714 415.32C246.434 415.6 246.064 415.94 245.604 416.34C245.144 416.74 244.644 417.16 244.104 417.6C243.584 418.04 243.064 418.46 242.544 418.86C242.044 419.24 241.604 419.56 241.224 419.82H238.254V419.43C238.574 419.05 238.944 418.61 239.364 418.11C239.804 417.59 240.234 417.06 240.654 416.52C241.074 415.96 241.424 415.46 241.704 415.02H246.714V415.32Z" fill="white"/>
<path d="M234.451 46.45C233.471 47.49 232.221 48.01 230.701 48.01C230.061 48.01 229.521 47.97 229.081 47.89C228.661 47.83 228.241 47.7 227.821 47.5V44.53C228.301 44.73 228.841 44.83 229.441 44.83C230.101 44.83 230.631 44.66 231.031 44.32C231.431 43.98 231.831 43.44 232.231 42.7L226.531 29.5H230.851L234.241 38.5L237.721 29.5H241.951L237.061 41.92C236.301 43.92 235.431 45.43 234.451 46.45Z" fill="white"/>
<path d="M428.018 236.31L425.348 240H420.938L425.798 233.13L421.088 226.5H425.528L428.018 229.95L430.478 226.5H434.888L430.238 233.13L435.098 240H430.628L428.018 236.31Z" fill="white"/>
<path d="M33.883 236.31L31.213 240H26.803L31.663 233.13L26.953 226.5H31.393L33.883 229.95L36.343 226.5H40.753L36.103 233.13L40.963 240H36.493L33.883 236.31ZM51.1579 217.32C50.8779 217.6 50.5079 217.94 50.0479 218.34C49.5879 218.74 49.0879 219.16 48.5479 219.6C48.0279 220.04 47.5079 220.46 46.9879 220.86C46.4879 221.24 46.0479 221.56 45.6679 221.82H42.6979V221.43C43.0179 221.05 43.3879 220.61 43.8079 220.11C44.2479 219.59 44.6779 219.06 45.0979 218.52C45.5179 217.96 45.8679 217.46 46.1479 217.02H51.1579V217.32Z" fill="white"/>
<path d="M225.532 249.91C225.532 256.17 222.692 259.3 217.012 259.3C211.312 259.3 208.462 256.17 208.462 249.91C208.462 246.57 209.172 244.15 210.592 242.65C212.012 241.13 214.152 240.37 217.012 240.37C219.872 240.37 222.002 241.13 223.402 242.65C224.822 244.15 225.532 246.57 225.532 249.91ZM213.682 254.14C214.402 255.04 215.512 255.49 217.012 255.49C218.512 255.49 219.612 255.04 220.312 254.14C221.032 253.22 221.392 251.81 221.392 249.91C221.392 247.85 221.042 246.38 220.342 245.5C219.642 244.6 218.532 244.15 217.012 244.15C215.492 244.15 214.382 244.6 213.682 245.5C212.982 246.38 212.632 247.85 212.632 249.91C212.632 251.81 212.982 253.22 213.682 254.14Z" fill="white"/>
<path d="M384.018 218.68L382.488 223H378.198L384.798 204.64H389.208L395.808 223H391.578L389.988 218.68H384.018ZM389.478 215.53L387.018 208.9L384.528 215.53H389.478Z" fill="white"/>
<path d="M348.585 131.57H344.445V137H340.335V118.64H348.675C350.675 118.64 352.175 119.24 353.175 120.44C354.195 121.64 354.705 123.22 354.705 125.18C354.705 126.42 354.455 127.53 353.955 128.51C353.455 129.47 352.745 130.22 351.825 130.76C350.905 131.3 349.825 131.57 348.585 131.57ZM349.905 122.96C349.445 122.46 348.765 122.21 347.865 122.21H344.445V128.03H347.715C348.635 128.03 349.345 127.78 349.845 127.28C350.345 126.76 350.595 126.06 350.595 125.18C350.595 124.2 350.365 123.46 349.905 122.96Z" fill="white"/>
<path d="M351.262 263.53C350.422 263.77 349.472 263.89 348.412 263.89C346.952 263.89 345.882 263.48 345.202 262.66C344.522 261.84 344.162 260.67 344.122 259.15C339.682 258.57 337.462 255.49 337.462 249.91C337.462 246.57 338.172 244.15 339.592 242.65C341.012 241.13 343.152 240.37 346.012 240.37C348.872 240.37 351.002 241.13 352.402 242.65C353.822 244.15 354.532 246.57 354.532 249.91C354.532 255.65 352.182 258.75 347.482 259.21C347.522 259.93 347.682 260.44 347.962 260.74C348.242 261.06 348.702 261.22 349.342 261.22C349.982 261.22 350.622 261.12 351.262 260.92V263.53ZM342.682 254.14C343.402 255.04 344.512 255.49 346.012 255.49C347.512 255.49 348.612 255.04 349.312 254.14C350.032 253.22 350.392 251.81 350.392 249.91C350.392 247.85 350.042 246.38 349.342 245.5C348.642 244.6 347.532 244.15 346.012 244.15C344.492 244.15 343.382 244.6 342.682 245.5C341.982 246.38 341.632 247.85 341.632 249.91C341.632 251.81 341.982 253.22 342.682 254.14Z" fill="white"/>
<path d="M339.937 193.858C340.34 192.56 340.922 191.457 341.683 190.549C340.922 189.575 340.34 188.44 339.937 187.142C339.556 185.845 339.299 184.093 339.164 181.887C339.03 179.681 338.963 176.599 338.963 172.642C338.963 169.528 339 167.135 339 165.5C339 163.865 338.425 159.084 338 158.5C337.575 157.851 336.769 158 335.94 158C335.112 158 335 158 335 158V156H336.243C337.384 156 338.28 156.487 338.929 157.46C339.578 158.433 340.049 160.055 340.34 162.326C340.631 164.597 340.787 167.808 340.81 171.961C340.832 175.983 340.922 179.065 341.078 181.206C341.235 183.347 341.537 184.937 341.985 185.975C342.433 187.013 343.104 187.661 344 187.921V193.079C343.104 193.403 342.433 194.085 341.985 195.123C341.537 196.096 341.235 197.653 341.078 199.794C340.922 201.935 340.832 205.017 340.81 209.039C340.787 213.192 340.631 216.403 340.34 218.674C340.049 220.945 339.578 222.567 338.929 223.54C338.28 224.513 337.384 225 336.243 225H335V223H337C339.5 221.5 338.929 219 338.929 219C339.354 218.351 339.164 217 339.164 215.5C339.343 213.878 338.963 211.473 338.963 208.358C338.963 204.401 339.03 201.319 339.164 199.113C339.299 196.907 339.556 195.155 339.937 193.858Z" fill="#F6FF8F" fill-opacity="0.75"/>
<path d="M277.01 244.034C278.552 244.526 279.863 245.238 280.942 246.168C282.099 245.238 283.448 244.526 284.99 244.034C286.532 243.568 288.614 243.254 291.236 243.09C293.857 242.925 297.52 242.843 302.223 242.843C305.924 242.843 308.767 242.889 310.71 242.889C312.653 242.889 318.335 242.187 319.029 241.667C319.8 241.147 319.623 240.162 319.623 239.149C319.623 238.137 319.623 238 319.623 238H322V239.519C322 240.914 321.422 242.009 320.265 242.802C319.109 243.596 317.181 244.17 314.482 244.526C311.784 244.882 307.967 245.073 303.032 245.101C298.252 245.128 294.59 245.238 292.045 245.429C289.501 245.621 287.612 245.99 286.378 246.537C285.144 247.085 284.373 247.905 284.065 249H277.935C277.55 247.905 276.74 247.085 275.506 246.537C274.35 245.99 272.499 245.621 269.955 245.429C267.41 245.238 263.748 245.128 258.968 245.101C254.033 245.073 250.216 244.882 247.518 244.526C244.819 244.17 242.891 243.596 241.735 242.802C240.578 242.009 240 240.914 240 239.519V238H242.377V240.444C244.159 243.5 247.13 242.802 247.13 242.802C247.901 243.322 249.507 243.09 251.29 243.09C253.217 243.308 256.076 242.843 259.777 242.843C264.48 242.843 268.143 242.925 270.764 243.09C273.386 243.254 275.468 243.568 277.01 244.034Z" fill="#F6FF8F" fill-opacity="0.75"/>
<path fill-rule="evenodd" clip-rule="evenodd" d="M297.014 219C302.338 219 305 215.197 305 207.591C305 203.533 304.335 200.593 303.004 198.77C301.691 196.923 299.695 196 297.014 196C294.333 196 292.327 196.923 290.996 198.77C289.665 200.593 289 203.533 289 207.591C289 215.197 291.671 219 297.014 219ZM297.014 214.371C295.608 214.371 294.568 213.824 293.893 212.731C293.369 211.838 293.054 210.566 292.949 208.915H301.078C300.97 210.566 300.646 211.838 300.107 212.731C299.451 213.824 298.42 214.371 297.014 214.371ZM301.004 205.27H293.024C293.172 203.948 293.462 202.936 293.893 202.233C294.549 201.139 295.589 200.593 297.014 200.593C298.439 200.593 299.479 201.139 300.135 202.233C300.567 202.936 300.856 203.948 301.004 205.27Z" fill="white"/>
<path d="M262 207.5L272.215 212.885L271.771 201.346L262 207.5ZM286.943 232.501C287.377 232.476 287.624 232.746 287.686 232.826C287.75 232.908 287.761 232.96 287.744 232.912C287.714 232.829 287.67 232.65 287.616 232.335C287.508 231.718 287.401 230.832 287.246 229.686C286.941 227.435 286.473 224.349 285.527 221.157C283.645 214.813 279.765 207.725 271.172 206.17L270.816 208.138C278.264 209.486 281.794 215.605 283.609 221.725C284.511 224.765 284.963 227.726 285.264 229.954C285.412 231.049 285.529 232.011 285.645 232.678C285.702 233.005 285.769 233.327 285.86 233.582C285.903 233.703 285.976 233.884 286.106 234.051C286.234 234.216 286.55 234.528 287.059 234.498L286.943 232.501Z" fill="white"/>
<path d="M331 134.667C328.054 134.667 325.667 137.054 325.667 140C325.667 142.946 328.054 145.333 331 145.333C333.946 145.333 336.333 142.946 336.333 140C336.333 137.054 333.946 134.667 331 134.667ZM331 227.667C328.054 227.667 325.667 230.054 325.667 233C325.667 235.946 328.054 238.333 331 238.333C333.946 238.333 336.333 235.946 336.333 233C336.333 230.054 333.946 227.667 331 227.667ZM330 140L330 141.938L332 141.938L332 140L330 140ZM330 145.812L330 149.687L332 149.687L332 145.813L330 145.812ZM330 153.562L330 157.437L332 157.438L332 153.562L330 153.562ZM330 161.313L330 165.188L332 165.188L332 161.313L330 161.313ZM330 169.062L330 172.937L332 172.937L332 169.063L330 169.062ZM330 176.813L330 180.687L332 180.688L332 176.813L330 176.813ZM330 184.562L330 188.437L332 188.437L332 184.562L330 184.562ZM330 192.312L330 196.188L332 196.188L332 192.313L330 192.312ZM330 200.062L330 203.937L332 203.938L332 200.062L330 200.062ZM330 207.813L330 211.687L332 211.687L332 207.813L330 207.813ZM330 215.562L330 219.438L332 219.438L332 215.563L330 215.562ZM330 223.312L330 227.187L332 227.188L332 223.312L330 223.312ZM330 231.063L330 233L332 233L332 231.063L330 231.063Z" fill="white"/>
</svg>
