<svg width="468" height="468" viewBox="0 0 468 468" fill="none" xmlns="http://www.w3.org/2000/svg">
<circle cx="234.5" cy="233" r="134" fill="#9000FF" fill-opacity="0.2" stroke="white" stroke-width="2"/>
<path d="M233.5 59L227.726 69L239.273 69L233.5 59ZM234.5 408L234.5 68L232.5 68L232.5 408L234.5 408Z" fill="white"/>
<path d="M408 233.5L398 227.726V239.274L408 233.5ZM59 234.5L399 234.5V232.5L59 232.5V234.5Z" fill="white"/>
<path d="M229.316 441.45C228.336 442.49 227.086 443.01 225.566 443.01C224.926 443.01 224.386 442.97 223.946 442.89C223.526 442.83 223.106 442.7 222.686 442.5V439.53C223.166 439.73 223.706 439.83 224.306 439.83C224.966 439.83 225.496 439.66 225.896 439.32C226.296 438.98 226.696 438.44 227.096 437.7L221.396 424.5H225.716L229.106 433.5L232.586 424.5H236.816L231.926 436.92C231.166 438.92 230.296 440.43 229.316 441.45ZM246.714 415.32C246.434 415.6 246.064 415.94 245.604 416.34C245.144 416.74 244.644 417.16 244.104 417.6C243.584 418.04 243.064 418.46 242.544 418.86C242.044 419.24 241.604 419.56 241.224 419.82H238.254V419.43C238.574 419.05 238.944 418.61 239.364 418.11C239.804 417.59 240.234 417.06 240.654 416.52C241.074 415.96 241.424 415.46 241.704 415.02H246.714V415.32Z" fill="white"/>
<path d="M322.923 52.25C322.923 48.9833 322.757 46.1833 322.423 43.85C322.09 41.5167 321.423 38.7 320.423 35.4L326.623 33.25C327.69 36.55 328.39 39.5 328.723 42.1C329.09 44.6667 329.273 48.0167 329.273 52.15V65H322.923V52.25ZM353.413 33.25C354.08 37.15 354.413 40.15 354.413 42.25C354.413 42.55 354.38 42.8667 354.313 43.2C354.58 43.5667 354.897 43.85 355.263 44.05C355.663 44.2167 356.163 44.3 356.763 44.3C357.463 44.3 358.047 44.1 358.513 43.7C359.013 43.2667 359.263 42.7 359.263 42C359.263 41 358.947 38.5167 358.313 34.55L364.713 33.25C365.347 37.2833 365.663 40.3167 365.663 42.35C365.663 44.0167 365.297 45.5 364.563 46.8C363.863 48.1 362.88 49.1167 361.613 49.85C360.38 50.5833 358.963 50.95 357.363 50.95C356.13 50.95 354.997 50.75 353.963 50.35C352.93 49.9167 352.18 49.3833 351.713 48.75C351.18 49.45 350.397 50 349.363 50.4C348.363 50.7667 347.28 50.95 346.113 50.95C344.813 50.95 343.863 50.7667 343.263 50.4V52.15V65H336.913V52.25C336.913 48.9833 336.747 46.1833 336.413 43.85C336.08 41.5167 335.413 38.7 334.413 35.4L340.513 33.25L342.763 41.95C343.13 43.5167 344.047 44.3 345.513 44.3C346.247 44.3 346.847 44.1 347.313 43.7C347.813 43.2667 348.063 42.7 348.063 42C348.063 41.0667 347.73 38.5833 347.063 34.55L353.413 33.25ZM368.387 55.7C368.387 53.3 369.121 50.7833 370.587 48.15C372.087 45.4833 374.537 42.5667 377.937 39.4L375.787 37.45L379.687 32.7C384.087 36 387.521 38.8833 389.987 41.35C392.454 43.8167 394.204 46.1167 395.237 48.25C396.271 50.35 396.787 52.5667 396.787 54.9C396.787 57 396.371 58.8167 395.537 60.35C394.704 61.8833 393.604 63.05 392.237 63.85C390.904 64.6167 389.471 65 387.937 65C385.237 65 383.337 64.35 382.237 63.05C381.704 63.6833 380.954 64.1667 379.987 64.5C379.054 64.8333 377.987 65 376.787 65C374.121 65 372.054 64.1833 370.587 62.55C369.121 60.8833 368.387 58.6 368.387 55.7ZM390.437 54.85C390.437 52.95 389.804 51.1 388.537 49.3C387.271 47.5 385.237 45.5 382.437 43.3C379.771 45.6 377.804 47.7167 376.537 49.65C375.304 51.55 374.687 53.4333 374.687 55.3C374.687 57.3333 375.554 58.35 377.287 58.35C378.187 58.35 378.871 58.0833 379.337 57.55C379.804 57.0167 380.037 56.2667 380.037 55.3V52.1H385.587V55.45C385.587 56.3167 385.521 57 385.387 57.5C385.821 58.0667 386.654 58.35 387.887 58.35C388.621 58.35 389.221 58.05 389.687 57.45C390.187 56.85 390.437 55.9833 390.437 54.85ZM406.717 34.75C404.917 34.75 403.45 34.2333 402.317 33.2C401.217 32.1667 400.667 30.75 400.667 28.95C400.667 27.15 401.217 25.7333 402.317 24.7C403.45 23.6667 404.917 23.15 406.717 23.15C408.45 23.15 409.917 23.6667 411.117 24.7C412.317 25.7333 412.917 27.1333 412.917 28.9C412.917 30.7333 412.317 32.1667 411.117 33.2C409.95 34.2333 408.484 34.75 406.717 34.75ZM406.717 31.3C407.384 31.3 407.934 31.1 408.367 30.7C408.834 30.2667 409.067 29.6833 409.067 28.95C409.067 28.2167 408.834 27.65 408.367 27.25C407.934 26.8167 407.384 26.6 406.717 26.6C406.05 26.6 405.484 26.8167 405.017 27.25C404.584 27.65 404.367 28.2167 404.367 28.95C404.367 29.6833 404.567 30.2667 404.967 30.7C405.367 31.1 405.95 31.3 406.717 31.3Z" fill="white"/>
<path d="M234.451 46.45C233.471 47.49 232.221 48.01 230.701 48.01C230.061 48.01 229.521 47.97 229.081 47.89C228.661 47.83 228.241 47.7 227.821 47.5V44.53C228.301 44.73 228.841 44.83 229.441 44.83C230.101 44.83 230.631 44.66 231.031 44.32C231.431 43.98 231.831 43.44 232.231 42.7L226.531 29.5H230.851L234.241 38.5L237.721 29.5H241.951L237.061 41.92C236.301 43.92 235.431 45.43 234.451 46.45Z" fill="white"/>
<path d="M428.018 236.31L425.348 240H420.938L425.798 233.13L421.088 226.5H425.528L428.018 229.95L430.478 226.5H434.888L430.238 233.13L435.098 240H430.628L428.018 236.31Z" fill="white"/>
<path d="M33.883 236.31L31.213 240H26.803L31.663 233.13L26.953 226.5H31.393L33.883 229.95L36.343 226.5H40.753L36.103 233.13L40.963 240H36.493L33.883 236.31ZM51.1579 217.32C50.8779 217.6 50.5079 217.94 50.0479 218.34C49.5879 218.74 49.0879 219.16 48.5479 219.6C48.0279 220.04 47.5079 220.46 46.9879 220.86C46.4879 221.24 46.0479 221.56 45.6679 221.82H42.6979V221.43C43.0179 221.05 43.3879 220.61 43.8079 220.11C44.2479 219.59 44.6779 219.06 45.0979 218.52C45.5179 217.96 45.8679 217.46 46.1479 217.02H51.1579V217.32Z" fill="white"/>
<path d="M216.532 255.91C216.532 262.17 213.692 265.3 208.012 265.3C202.312 265.3 199.462 262.17 199.462 255.91C199.462 252.57 200.172 250.15 201.592 248.65C203.012 247.13 205.152 246.37 208.012 246.37C210.872 246.37 213.002 247.13 214.402 248.65C215.822 250.15 216.532 252.57 216.532 255.91ZM204.682 260.14C205.402 261.04 206.512 261.49 208.012 261.49C209.512 261.49 210.612 261.04 211.312 260.14C212.032 259.22 212.392 257.81 212.392 255.91C212.392 253.85 212.042 252.38 211.342 251.5C210.642 250.6 209.532 250.15 208.012 250.15C206.492 250.15 205.382 250.6 204.682 251.5C203.982 252.38 203.632 253.85 203.632 255.91C203.632 257.81 203.982 259.22 204.682 260.14Z" fill="white"/>
<path d="M384.018 218.68L382.488 223H378.198L384.798 204.64H389.208L395.808 223H391.578L389.988 218.68H384.018ZM389.478 215.53L387.018 208.9L384.528 215.53H389.478Z" fill="white"/>
<path d="M348.585 131.57H344.445V137H340.335V118.64H348.675C350.675 118.64 352.175 119.24 353.175 120.44C354.195 121.64 354.705 123.22 354.705 125.18C354.705 126.42 354.455 127.53 353.955 128.51C353.455 129.47 352.745 130.22 351.825 130.76C350.905 131.3 349.825 131.57 348.585 131.57ZM349.905 122.96C349.445 122.46 348.765 122.21 347.865 122.21H344.445V128.03H347.715C348.635 128.03 349.345 127.78 349.845 127.28C350.345 126.76 350.595 126.06 350.595 125.18C350.595 124.2 350.365 123.46 349.905 122.96Z" fill="white"/>
<path d="M352.262 350.53C351.422 350.77 350.472 350.89 349.412 350.89C347.952 350.89 346.882 350.48 346.202 349.66C345.522 348.84 345.162 347.67 345.122 346.15C340.682 345.57 338.462 342.49 338.462 336.91C338.462 333.57 339.172 331.15 340.592 329.65C342.012 328.13 344.152 327.37 347.012 327.37C349.872 327.37 352.002 328.13 353.402 329.65C354.822 331.15 355.532 333.57 355.532 336.91C355.532 342.65 353.182 345.75 348.482 346.21C348.522 346.93 348.682 347.44 348.962 347.74C349.242 348.06 349.702 348.22 350.342 348.22C350.982 348.22 351.622 348.12 352.262 347.92V350.53ZM343.682 341.14C344.402 342.04 345.512 342.49 347.012 342.49C348.512 342.49 349.612 342.04 350.312 341.14C351.032 340.22 351.392 338.81 351.392 336.91C351.392 334.85 351.042 333.38 350.342 332.5C349.642 331.6 348.532 331.15 347.012 331.15C345.492 331.15 344.382 331.6 343.682 332.5C342.982 333.38 342.632 334.85 342.632 336.91C342.632 338.81 342.982 340.22 343.682 341.14Z" fill="white"/>
</svg>
