<svg width="468" height="468" viewBox="0 0 468 468" fill="none" xmlns="http://www.w3.org/2000/svg">
<circle cx="234.5" cy="233" r="134" fill="#9000FF" fill-opacity="0.2" stroke="white" stroke-width="2"/>
<path d="M233.5 59L227.726 69L239.273 69L233.5 59ZM234.5 408L234.5 68L232.5 68L232.5 408L234.5 408Z" fill="white"/>
<path d="M408 233.5L398 227.726V239.274L408 233.5ZM59 234.5L399 234.5V232.5L59 232.5V234.5Z" fill="white"/>
<path d="M229.316 441.45C228.336 442.49 227.086 443.01 225.566 443.01C224.926 443.01 224.386 442.97 223.946 442.89C223.526 442.83 223.106 442.7 222.686 442.5V439.53C223.166 439.73 223.706 439.83 224.306 439.83C224.966 439.83 225.496 439.66 225.896 439.32C226.296 438.98 226.696 438.44 227.096 437.7L221.396 424.5H225.716L229.106 433.5L232.586 424.5H236.816L231.926 436.92C231.166 438.92 230.296 440.43 229.316 441.45ZM246.714 415.32C246.434 415.6 246.064 415.94 245.604 416.34C245.144 416.74 244.644 417.16 244.104 417.6C243.584 418.04 243.064 418.46 242.544 418.86C242.044 419.24 241.604 419.56 241.224 419.82H238.254V419.43C238.574 419.05 238.944 418.61 239.364 418.11C239.804 417.59 240.234 417.06 240.654 416.52C241.074 415.96 241.424 415.46 241.704 415.02H246.714V415.32Z" fill="white"/>
<path d="M317.493 51.85H340.093V58.2H317.493V51.85ZM363.789 33.25C364.456 37.15 364.789 40.15 364.789 42.25C364.789 42.55 364.756 42.8667 364.689 43.2C364.956 43.5667 365.273 43.85 365.639 44.05C366.039 44.2167 366.539 44.3 367.139 44.3C367.839 44.3 368.423 44.1 368.889 43.7C369.389 43.2667 369.639 42.7 369.639 42C369.639 41 369.323 38.5167 368.689 34.55L375.089 33.25C375.723 37.2833 376.039 40.3167 376.039 42.35C376.039 44.0167 375.673 45.5 374.939 46.8C374.239 48.1 373.256 49.1167 371.989 49.85C370.756 50.5833 369.339 50.95 367.739 50.95C366.506 50.95 365.373 50.75 364.339 50.35C363.306 49.9167 362.556 49.3833 362.089 48.75C361.556 49.45 360.773 50 359.739 50.4C358.739 50.7667 357.656 50.95 356.489 50.95C355.189 50.95 354.239 50.7667 353.639 50.4V52.15V65H347.289V52.25C347.289 48.9833 347.123 46.1833 346.789 43.85C346.456 41.5167 345.789 38.7 344.789 35.4L350.889 33.25L353.139 41.95C353.506 43.5167 354.423 44.3 355.889 44.3C356.623 44.3 357.223 44.1 357.689 43.7C358.189 43.2667 358.439 42.7 358.439 42C358.439 41.0667 358.106 38.5833 357.439 34.55L363.789 33.25ZM390.098 39.95C391.831 39.95 393.481 40.4333 395.048 41.4C396.615 42.3333 397.865 43.5833 398.798 45.15C399.765 46.7167 400.248 48.3667 400.248 50.1C400.248 51.8 399.765 53.45 398.798 55.05C397.831 56.6167 396.565 57.8833 394.998 58.85C393.431 59.8167 391.798 60.3 390.098 60.3C388.365 60.3 386.698 59.8167 385.098 58.85C383.531 57.8833 382.265 56.6167 381.298 55.05C380.331 53.45 379.848 51.8 379.848 50.1C379.848 48.3667 380.331 46.7167 381.298 45.15C382.265 43.5833 383.531 42.3333 385.098 41.4C386.698 40.4333 388.365 39.95 390.098 39.95ZM390.098 54.2C391.131 54.2 392.065 53.7833 392.898 52.95C393.731 52.0833 394.148 51.1333 394.148 50.1C394.148 49.0667 393.731 48.1333 392.898 47.3C392.065 46.4667 391.131 46.05 390.098 46.05C389.031 46.05 388.065 46.4667 387.198 47.3C386.365 48.1333 385.948 49.0667 385.948 50.1C385.948 51.1333 386.381 52.0833 387.248 52.95C388.115 53.7833 389.065 54.2 390.098 54.2ZM410.648 34.75C408.848 34.75 407.381 34.2333 406.248 33.2C405.148 32.1667 404.598 30.75 404.598 28.95C404.598 27.15 405.148 25.7333 406.248 24.7C407.381 23.6667 408.848 23.15 410.648 23.15C412.381 23.15 413.848 23.6667 415.048 24.7C416.248 25.7333 416.848 27.1333 416.848 28.9C416.848 30.7333 416.248 32.1667 415.048 33.2C413.881 34.2333 412.414 34.75 410.648 34.75ZM410.648 31.3C411.314 31.3 411.864 31.1 412.298 30.7C412.764 30.2667 412.998 29.6833 412.998 28.95C412.998 28.2167 412.764 27.65 412.298 27.25C411.864 26.8167 411.314 26.6 410.648 26.6C409.981 26.6 409.414 26.8167 408.948 27.25C408.514 27.65 408.298 28.2167 408.298 28.95C408.298 29.6833 408.498 30.2667 408.898 30.7C409.298 31.1 409.881 31.3 410.648 31.3Z" fill="white"/>
<path d="M234.451 46.45C233.471 47.49 232.221 48.01 230.701 48.01C230.061 48.01 229.521 47.97 229.081 47.89C228.661 47.83 228.241 47.7 227.821 47.5V44.53C228.301 44.73 228.841 44.83 229.441 44.83C230.101 44.83 230.631 44.66 231.031 44.32C231.431 43.98 231.831 43.44 232.231 42.7L226.531 29.5H230.851L234.241 38.5L237.721 29.5H241.951L237.061 41.92C236.301 43.92 235.431 45.43 234.451 46.45Z" fill="white"/>
<path d="M428.018 236.31L425.348 240H420.938L425.798 233.13L421.088 226.5H425.528L428.018 229.95L430.478 226.5H434.888L430.238 233.13L435.098 240H430.628L428.018 236.31Z" fill="white"/>
<path d="M33.883 236.31L31.213 240H26.803L31.663 233.13L26.953 226.5H31.393L33.883 229.95L36.343 226.5H40.753L36.103 233.13L40.963 240H36.493L33.883 236.31ZM51.1579 217.32C50.8779 217.6 50.5079 217.94 50.0479 218.34C49.5879 218.74 49.0879 219.16 48.5479 219.6C48.0279 220.04 47.5079 220.46 46.9879 220.86C46.4879 221.24 46.0479 221.56 45.6679 221.82H42.6979V221.43C43.0179 221.05 43.3879 220.61 43.8079 220.11C44.2479 219.59 44.6779 219.06 45.0979 218.52C45.5179 217.96 45.8679 217.46 46.1479 217.02H51.1579V217.32Z" fill="white"/>
<path d="M216.532 255.91C216.532 262.17 213.692 265.3 208.012 265.3C202.312 265.3 199.462 262.17 199.462 255.91C199.462 252.57 200.172 250.15 201.592 248.65C203.012 247.13 205.152 246.37 208.012 246.37C210.872 246.37 213.002 247.13 214.402 248.65C215.822 250.15 216.532 252.57 216.532 255.91ZM204.682 260.14C205.402 261.04 206.512 261.49 208.012 261.49C209.512 261.49 210.612 261.04 211.312 260.14C212.032 259.22 212.392 257.81 212.392 255.91C212.392 253.85 212.042 252.38 211.342 251.5C210.642 250.6 209.532 250.15 208.012 250.15C206.492 250.15 205.382 250.6 204.682 251.5C203.982 252.38 203.632 253.85 203.632 255.91C203.632 257.81 203.982 259.22 204.682 260.14Z" fill="white"/>
<path d="M384.018 218.68L382.488 223H378.198L384.798 204.64H389.208L395.808 223H391.578L389.988 218.68H384.018ZM389.478 215.53L387.018 208.9L384.528 215.53H389.478Z" fill="white"/>
<path d="M348.585 131.57H344.445V137H340.335V118.64H348.675C350.675 118.64 352.175 119.24 353.175 120.44C354.195 121.64 354.705 123.22 354.705 125.18C354.705 126.42 354.455 127.53 353.955 128.51C353.455 129.47 352.745 130.22 351.825 130.76C350.905 131.3 349.825 131.57 348.585 131.57ZM349.905 122.96C349.445 122.46 348.765 122.21 347.865 122.21H344.445V128.03H347.715C348.635 128.03 349.345 127.78 349.845 127.28C350.345 126.76 350.595 126.06 350.595 125.18C350.595 124.2 350.365 123.46 349.905 122.96Z" fill="white"/>
<path d="M352.262 350.53C351.422 350.77 350.472 350.89 349.412 350.89C347.952 350.89 346.882 350.48 346.202 349.66C345.522 348.84 345.162 347.67 345.122 346.15C340.682 345.57 338.462 342.49 338.462 336.91C338.462 333.57 339.172 331.15 340.592 329.65C342.012 328.13 344.152 327.37 347.012 327.37C349.872 327.37 352.002 328.13 353.402 329.65C354.822 331.15 355.532 333.57 355.532 336.91C355.532 342.65 353.182 345.75 348.482 346.21C348.522 346.93 348.682 347.44 348.962 347.74C349.242 348.06 349.702 348.22 350.342 348.22C350.982 348.22 351.622 348.12 352.262 347.92V350.53ZM343.682 341.14C344.402 342.04 345.512 342.49 347.012 342.49C348.512 342.49 349.612 342.04 350.312 341.14C351.032 340.22 351.392 338.81 351.392 336.91C351.392 334.85 351.042 333.38 350.342 332.5C349.642 331.6 348.532 331.15 347.012 331.15C345.492 331.15 344.382 331.6 343.682 332.5C342.982 333.38 342.632 334.85 342.632 336.91C342.632 338.81 342.982 340.22 343.682 341.14Z" fill="white"/>
</svg>
