<svg width="262" height="282" viewBox="0 0 262 282" fill="none" xmlns="http://www.w3.org/2000/svg">
<path d="M1 261L1 281H21V261H1Z" stroke="#1A7E7A" stroke-opacity="0.6"/>
<path d="M1 241L1 261H21V241H1Z" stroke="#1A7E7A" stroke-opacity="0.6"/>
<path d="M1 221L1 241H21V221H1Z" stroke="#1A7E7A" stroke-opacity="0.6"/>
<path d="M1 201L1 221H21V201H1Z" stroke="#1A7E7A" stroke-opacity="0.6"/>
<path d="M1 181L1 201H21V181H1Z" stroke="#1A7E7A" stroke-opacity="0.6"/>
<path d="M1 161L1 181H21V161H1Z" stroke="#1A7E7A" stroke-opacity="0.6"/>
<path d="M1 141L1 161H21V141H1Z" stroke="#1A7E7A" stroke-opacity="0.6"/>
<path d="M1 121L1 141H21V121H1Z" stroke="#1A7E7A" stroke-opacity="0.6"/>
<path d="M1 101L1 121H21V101H1Z" stroke="#1A7E7A" stroke-opacity="0.6"/>
<path d="M1 81L1 101H21V81H1Z" stroke="#1A7E7A" stroke-opacity="0.6"/>
<path d="M1 61L1 81H21V61H1Z" stroke="#1A7E7A" stroke-opacity="0.6"/>
<path d="M1 41L1 61H21V41H1Z" stroke="#1A7E7A" stroke-opacity="0.6"/>
<path d="M1 21L1 41H21V21H1Z" stroke="#1A7E7A" stroke-opacity="0.6"/>
<path d="M1 1L1 21H21V1H1Z" stroke="#1A7E7A" stroke-opacity="0.6"/>
<path d="M21 261V281H41V261H21Z" stroke="#1A7E7A" stroke-opacity="0.6"/>
<path d="M21 241V261H41V241H21Z" stroke="#1A7E7A" stroke-opacity="0.6"/>
<path d="M21 221V241H41V221H21Z" stroke="#1A7E7A" stroke-opacity="0.6"/>
<path d="M21 201V221H41V201H21Z" stroke="#1A7E7A" stroke-opacity="0.6"/>
<path d="M21 181V201H41V181H21Z" stroke="#1A7E7A" stroke-opacity="0.6"/>
<path d="M21 161V181H41V161H21Z" stroke="#1A7E7A" stroke-opacity="0.6"/>
<path d="M21 141V161H41V141H21Z" stroke="#1A7E7A" stroke-opacity="0.6"/>
<path d="M21 121V141H41V121H21Z" stroke="#1A7E7A" stroke-opacity="0.6"/>
<path d="M21 101V121H41V101H21Z" stroke="#1A7E7A" stroke-opacity="0.6"/>
<path d="M21 81V101H41V81H21Z" stroke="#1A7E7A" stroke-opacity="0.6"/>
<path d="M21 61V81H41V61H21Z" stroke="#1A7E7A" stroke-opacity="0.6"/>
<path d="M21 41V61H41V41H21Z" stroke="#1A7E7A" stroke-opacity="0.6"/>
<path d="M21 21V41H41V21H21Z" stroke="#1A7E7A" stroke-opacity="0.6"/>
<path d="M21 1V21H41V1H21Z" stroke="#1A7E7A" stroke-opacity="0.6"/>
<path d="M41 261V281H61V261H41Z" stroke="#1A7E7A" stroke-opacity="0.6"/>
<path d="M41 241V261H61V241H41Z" stroke="#1A7E7A" stroke-opacity="0.6"/>
<path d="M41 221V241H61V221H41Z" stroke="#1A7E7A" stroke-opacity="0.6"/>
<path d="M41 201V221H61V201H41Z" stroke="#1A7E7A" stroke-opacity="0.6"/>
<path d="M41 181V201H61V181H41Z" stroke="#1A7E7A" stroke-opacity="0.6"/>
<path d="M41 161V181H61V161H41Z" stroke="#1A7E7A" stroke-opacity="0.6"/>
<path d="M41 141V161H61V141H41Z" stroke="#1A7E7A" stroke-opacity="0.6"/>
<path d="M41 121V141H61V121H41Z" stroke="#1A7E7A" stroke-opacity="0.6"/>
<path d="M41 101V121H61V101H41Z" stroke="#1A7E7A" stroke-opacity="0.6"/>
<path d="M41 81V101H61V81H41Z" stroke="#1A7E7A" stroke-opacity="0.6"/>
<path d="M41 61V81H61V61H41Z" stroke="#1A7E7A" stroke-opacity="0.6"/>
<path d="M41 41V61H61V41H41Z" stroke="#1A7E7A" stroke-opacity="0.6"/>
<path d="M41 21V41H61V21H41Z" stroke="#1A7E7A" stroke-opacity="0.6"/>
<path d="M41 1V21H61V1H41Z" stroke="#1A7E7A" stroke-opacity="0.6"/>
<path d="M61 261V281H81V261H61Z" stroke="#1A7E7A" stroke-opacity="0.6"/>
<path d="M61 241V261H81V241H61Z" stroke="#1A7E7A" stroke-opacity="0.6"/>
<path d="M61 221V241H81V221H61Z" stroke="#1A7E7A" stroke-opacity="0.6"/>
<path d="M61 201V221H81V201H61Z" stroke="#1A7E7A" stroke-opacity="0.6"/>
<path d="M61 181V201H81V181H61Z" stroke="#1A7E7A" stroke-opacity="0.6"/>
<path d="M61 161V181H81V161H61Z" stroke="#1A7E7A" stroke-opacity="0.6"/>
<path d="M61 141V161H81V141H61Z" stroke="#1A7E7A" stroke-opacity="0.6"/>
<path d="M61 121V141H81V121H61Z" stroke="#1A7E7A" stroke-opacity="0.6"/>
<path d="M61 101V121H81V101H61Z" stroke="#1A7E7A" stroke-opacity="0.6"/>
<path d="M61 81V101H81V81H61Z" stroke="#1A7E7A" stroke-opacity="0.6"/>
<path d="M61 61V81H81V61H61Z" stroke="#1A7E7A" stroke-opacity="0.6"/>
<path d="M61 41V61H81V41H61Z" stroke="#1A7E7A" stroke-opacity="0.6"/>
<path d="M61 21V41H81V21H61Z" stroke="#1A7E7A" stroke-opacity="0.6"/>
<path d="M61 1V21H81V1H61Z" stroke="#1A7E7A" stroke-opacity="0.6"/>
<path d="M81 261V281H101V261H81Z" stroke="#1A7E7A" stroke-opacity="0.6"/>
<path d="M81 241V261H101V241H81Z" stroke="#1A7E7A" stroke-opacity="0.6"/>
<path d="M81 221V241H101V221H81Z" stroke="#1A7E7A" stroke-opacity="0.6"/>
<path d="M81 201V221H101V201H81Z" stroke="#1A7E7A" stroke-opacity="0.6"/>
<path d="M81 181V201H101V181H81Z" stroke="#1A7E7A" stroke-opacity="0.6"/>
<path d="M81 161V181H101V161H81Z" stroke="#1A7E7A" stroke-opacity="0.6"/>
<path d="M81 141V161H101V141H81Z" stroke="#1A7E7A" stroke-opacity="0.6"/>
<path d="M81 121V141H101V121H81Z" stroke="#1A7E7A" stroke-opacity="0.6"/>
<path d="M81 101V121H101V101H81Z" stroke="#1A7E7A" stroke-opacity="0.6"/>
<path d="M81 81V101H101V81H81Z" stroke="#1A7E7A" stroke-opacity="0.6"/>
<path d="M81 61V81H101V61H81Z" stroke="#1A7E7A" stroke-opacity="0.6"/>
<path d="M81 41V61H101V41H81Z" stroke="#1A7E7A" stroke-opacity="0.6"/>
<path d="M81 21V41H101V21H81Z" stroke="#1A7E7A" stroke-opacity="0.6"/>
<path d="M81 1V21H101V1H81Z" stroke="#1A7E7A" stroke-opacity="0.6"/>
<path d="M101 261V281H121V261H101Z" stroke="#1A7E7A" stroke-opacity="0.6"/>
<path d="M101 241V261H121V241H101Z" stroke="#1A7E7A" stroke-opacity="0.6"/>
<path d="M101 221V241H121V221H101Z" stroke="#1A7E7A" stroke-opacity="0.6"/>
<path d="M101 201V221H121V201H101Z" stroke="#1A7E7A" stroke-opacity="0.6"/>
<path d="M101 181V201H121V181H101Z" stroke="#1A7E7A" stroke-opacity="0.6"/>
<path d="M101 161V181H121V161H101Z" stroke="#1A7E7A" stroke-opacity="0.6"/>
<path d="M101 141V161H121V141H101Z" stroke="#1A7E7A" stroke-opacity="0.6"/>
<path d="M101 121V141H121V121H101Z" stroke="#1A7E7A" stroke-opacity="0.6"/>
<path d="M101 101V121H121V101H101Z" stroke="#1A7E7A" stroke-opacity="0.6"/>
<path d="M101 81V101H121V81H101Z" stroke="#1A7E7A" stroke-opacity="0.6"/>
<path d="M101 61V81H121V61H101Z" stroke="#1A7E7A" stroke-opacity="0.6"/>
<path d="M101 41V61H121V41H101Z" stroke="#1A7E7A" stroke-opacity="0.6"/>
<path d="M101 21V41H121V21H101Z" stroke="#1A7E7A" stroke-opacity="0.6"/>
<path d="M101 1V21H121V1H101Z" stroke="#1A7E7A" stroke-opacity="0.6"/>
<path d="M121 261V281H141V261H121Z" stroke="#1A7E7A" stroke-opacity="0.6"/>
<path d="M121 241V261H141V241H121Z" stroke="#1A7E7A" stroke-opacity="0.6"/>
<path d="M121 221V241H141V221H121Z" stroke="#1A7E7A" stroke-opacity="0.6"/>
<path d="M121 201V221H141V201H121Z" stroke="#1A7E7A" stroke-opacity="0.6"/>
<path d="M121 181V201H141V181H121Z" stroke="#1A7E7A" stroke-opacity="0.6"/>
<path d="M121 161V181H141V161H121Z" stroke="#1A7E7A" stroke-opacity="0.6"/>
<path d="M121 141V161H141V141H121Z" stroke="#1A7E7A" stroke-opacity="0.6"/>
<path d="M121 121V141H141V121H121Z" stroke="#1A7E7A" stroke-opacity="0.6"/>
<path d="M121 101V121H141V101H121Z" stroke="#1A7E7A" stroke-opacity="0.6"/>
<path d="M121 81V101H141V81H121Z" stroke="#1A7E7A" stroke-opacity="0.6"/>
<path d="M121 61V81H141V61H121Z" stroke="#1A7E7A" stroke-opacity="0.6"/>
<path d="M121 41V61H141V41H121Z" stroke="#1A7E7A" stroke-opacity="0.6"/>
<path d="M121 21V41H141V21H121Z" stroke="#1A7E7A" stroke-opacity="0.6"/>
<path d="M121 1V21H141V1H121Z" stroke="#1A7E7A" stroke-opacity="0.6"/>
<path d="M141 261V281H161V261H141Z" stroke="#1A7E7A" stroke-opacity="0.6"/>
<path d="M141 241V261H161V241H141Z" stroke="#1A7E7A" stroke-opacity="0.6"/>
<path d="M141 221V241H161V221H141Z" stroke="#1A7E7A" stroke-opacity="0.6"/>
<path d="M141 201V221H161V201H141Z" stroke="#1A7E7A" stroke-opacity="0.6"/>
<path d="M141 181V201H161V181H141Z" stroke="#1A7E7A" stroke-opacity="0.6"/>
<path d="M141 161V181H161V161H141Z" stroke="#1A7E7A" stroke-opacity="0.6"/>
<path d="M141 141V161H161V141H141Z" stroke="#1A7E7A" stroke-opacity="0.6"/>
<path d="M141 121V141H161V121H141Z" stroke="#1A7E7A" stroke-opacity="0.6"/>
<path d="M141 101V121H161V101H141Z" stroke="#1A7E7A" stroke-opacity="0.6"/>
<path d="M141 81V101H161V81H141Z" stroke="#1A7E7A" stroke-opacity="0.6"/>
<path d="M141 61V81H161V61H141Z" stroke="#1A7E7A" stroke-opacity="0.6"/>
<path d="M141 41V61H161V41H141Z" stroke="#1A7E7A" stroke-opacity="0.6"/>
<path d="M141 21V41H161V21H141Z" stroke="#1A7E7A" stroke-opacity="0.6"/>
<path d="M141 1V21H161V1H141Z" stroke="#1A7E7A" stroke-opacity="0.6"/>
<path d="M161 261V281H181V261H161Z" stroke="#1A7E7A" stroke-opacity="0.6"/>
<path d="M161 241V261H181V241H161Z" stroke="#1A7E7A" stroke-opacity="0.6"/>
<path d="M161 221V241H181V221H161Z" stroke="#1A7E7A" stroke-opacity="0.6"/>
<path d="M161 201V221H181V201H161Z" stroke="#1A7E7A" stroke-opacity="0.6"/>
<path d="M161 181V201H181V181H161Z" stroke="#1A7E7A" stroke-opacity="0.6"/>
<path d="M161 161V181H181V161H161Z" stroke="#1A7E7A" stroke-opacity="0.6"/>
<path d="M161 141V161H181V141H161Z" stroke="#1A7E7A" stroke-opacity="0.6"/>
<path d="M161 121V141H181V121H161Z" stroke="#1A7E7A" stroke-opacity="0.6"/>
<path d="M161 101V121H181V101H161Z" stroke="#1A7E7A" stroke-opacity="0.6"/>
<path d="M161 81V101H181V81H161Z" stroke="#1A7E7A" stroke-opacity="0.6"/>
<path d="M161 61V81H181V61H161Z" stroke="#1A7E7A" stroke-opacity="0.6"/>
<path d="M161 41V61H181V41H161Z" stroke="#1A7E7A" stroke-opacity="0.6"/>
<path d="M161 21V41H181V21H161Z" stroke="#1A7E7A" stroke-opacity="0.6"/>
<path d="M161 1V21H181V1H161Z" stroke="#1A7E7A" stroke-opacity="0.6"/>
<path d="M181 261V281H201V261H181Z" stroke="#1A7E7A" stroke-opacity="0.6"/>
<path d="M181 241V261H201V241H181Z" stroke="#1A7E7A" stroke-opacity="0.6"/>
<path d="M181 221V241H201V221H181Z" stroke="#1A7E7A" stroke-opacity="0.6"/>
<path d="M181 201V221H201V201H181Z" stroke="#1A7E7A" stroke-opacity="0.6"/>
<path d="M181 181V201H201V181H181Z" stroke="#1A7E7A" stroke-opacity="0.6"/>
<path d="M181 161V181H201V161H181Z" stroke="#1A7E7A" stroke-opacity="0.6"/>
<path d="M181 141V161H201V141H181Z" stroke="#1A7E7A" stroke-opacity="0.6"/>
<path d="M181 121V141H201V121H181Z" stroke="#1A7E7A" stroke-opacity="0.6"/>
<path d="M181 101V121H201V101H181Z" stroke="#1A7E7A" stroke-opacity="0.6"/>
<path d="M181 81V101H201V81H181Z" stroke="#1A7E7A" stroke-opacity="0.6"/>
<path d="M181 61V81H201V61H181Z" stroke="#1A7E7A" stroke-opacity="0.6"/>
<path d="M181 41V61H201V41H181Z" stroke="#1A7E7A" stroke-opacity="0.6"/>
<path d="M181 21V41H201V21H181Z" stroke="#1A7E7A" stroke-opacity="0.6"/>
<path d="M181 1V21H201V1H181Z" stroke="#1A7E7A" stroke-opacity="0.6"/>
<path d="M201 261V281H221V261H201Z" stroke="#1A7E7A" stroke-opacity="0.6"/>
<path d="M201 241V261H221V241H201Z" stroke="#1A7E7A" stroke-opacity="0.6"/>
<path d="M201 221V241H221V221H201Z" stroke="#1A7E7A" stroke-opacity="0.6"/>
<path d="M201 201V221H221V201H201Z" stroke="#1A7E7A" stroke-opacity="0.6"/>
<path d="M201 181V201H221V181H201Z" stroke="#1A7E7A" stroke-opacity="0.6"/>
<path d="M201 161V181H221V161H201Z" stroke="#1A7E7A" stroke-opacity="0.6"/>
<path d="M201 141V161H221V141H201Z" stroke="#1A7E7A" stroke-opacity="0.6"/>
<path d="M201 121V141H221V121H201Z" stroke="#1A7E7A" stroke-opacity="0.6"/>
<path d="M201 101V121H221V101H201Z" stroke="#1A7E7A" stroke-opacity="0.6"/>
<path d="M201 81V101H221V81H201Z" stroke="#1A7E7A" stroke-opacity="0.6"/>
<path d="M201 61V81H221V61H201Z" stroke="#1A7E7A" stroke-opacity="0.6"/>
<path d="M201 41V61H221V41H201Z" stroke="#1A7E7A" stroke-opacity="0.6"/>
<path d="M201 21V41H221V21H201Z" stroke="#1A7E7A" stroke-opacity="0.6"/>
<path d="M201 1V21H221V1H201Z" stroke="#1A7E7A" stroke-opacity="0.6"/>
<path d="M221 261V281H241V261H221Z" stroke="#1A7E7A" stroke-opacity="0.6"/>
<path d="M221 241V261H241V241H221Z" stroke="#1A7E7A" stroke-opacity="0.6"/>
<path d="M221 221V241H241V221H221Z" stroke="#1A7E7A" stroke-opacity="0.6"/>
<path d="M221 201V221H241V201H221Z" stroke="#1A7E7A" stroke-opacity="0.6"/>
<path d="M221 181V201H241V181H221Z" stroke="#1A7E7A" stroke-opacity="0.6"/>
<path d="M221 161V181H241V161H221Z" stroke="#1A7E7A" stroke-opacity="0.6"/>
<path d="M221 141V161H241V141H221Z" stroke="#1A7E7A" stroke-opacity="0.6"/>
<path d="M221 121V141H241V121H221Z" stroke="#1A7E7A" stroke-opacity="0.6"/>
<path d="M221 101V121H241V101H221Z" stroke="#1A7E7A" stroke-opacity="0.6"/>
<path d="M221 81V101H241V81H221Z" stroke="#1A7E7A" stroke-opacity="0.6"/>
<path d="M221 61V81H241V61H221Z" stroke="#1A7E7A" stroke-opacity="0.6"/>
<path d="M221 41V61H241V41H221Z" stroke="#1A7E7A" stroke-opacity="0.6"/>
<path d="M221 21V41H241V21H221Z" stroke="#1A7E7A" stroke-opacity="0.6"/>
<path d="M221 1V21H241V1H221Z" stroke="#1A7E7A" stroke-opacity="0.6"/>
<path d="M241 261V281H261V261H241Z" stroke="#1A7E7A" stroke-opacity="0.6"/>
<path d="M241 241V261H261V241H241Z" stroke="#1A7E7A" stroke-opacity="0.6"/>
<path d="M241 221V241H261V221H241Z" stroke="#1A7E7A" stroke-opacity="0.6"/>
<path d="M241 201V221H261V201H241Z" stroke="#1A7E7A" stroke-opacity="0.6"/>
<path d="M241 181V201H261V181H241Z" stroke="#1A7E7A" stroke-opacity="0.6"/>
<path d="M241 161V181H261V161H241Z" stroke="#1A7E7A" stroke-opacity="0.6"/>
<path d="M241 141V161H261V141H241Z" stroke="#1A7E7A" stroke-opacity="0.6"/>
<path d="M241 121V141H261V121H241Z" stroke="#1A7E7A" stroke-opacity="0.6"/>
<path d="M241 101V121H261V101H241Z" stroke="#1A7E7A" stroke-opacity="0.6"/>
<path d="M241 81V101H261V81H241Z" stroke="#1A7E7A" stroke-opacity="0.6"/>
<path d="M241 61V81H261V61H241Z" stroke="#1A7E7A" stroke-opacity="0.6"/>
<path d="M241 41V61H261V41H241Z" stroke="#1A7E7A" stroke-opacity="0.6"/>
<path d="M241 21V41H261V21H241Z" stroke="#1A7E7A" stroke-opacity="0.6"/>
<path d="M241 1V21H261V1H241Z" stroke="#1A7E7A" stroke-opacity="0.6"/>
<path d="M80 280V281H82V280H80ZM81 21L75.2265 31H86.7735L81 21ZM82 280L82 150.5H80L80 280H82ZM82 150.5L82 30H80L80 150.5H82Z" fill="white"/>
<path d="M181 180L181 121L181 62" stroke="white" stroke-width="1.5" stroke-linecap="square" stroke-dasharray="4 4"/>
<path d="M141 181L141 161L141 141" stroke="white" stroke-width="1.5" stroke-linecap="square" stroke-dasharray="4 4"/>
<path d="M2 180H1L1 182H2L2 180ZM261 181L251 175.226V186.774L261 181ZM2 182L252 182V180L2 180L2 182Z" fill="white"/>
<path d="M81 261L201 21" stroke="white" stroke-width="2"/>
<circle cx="81" cy="261" r="4" fill="#9B51E0" stroke="white" stroke-width="2"/>
<circle cx="181" cy="61" r="4" fill="#9B51E0" stroke="white" stroke-width="2"/>
<path d="M175.299 54.64C174.303 55 173.265 55.18 172.185 55.18C170.361 55.18 168.987 54.7 168.063 53.74C167.139 52.78 166.677 51.412 166.677 49.636C166.677 47.752 167.127 46.312 168.027 45.316C168.927 44.32 170.307 43.822 172.167 43.822C173.343 43.822 174.381 44.002 175.281 44.362V46.72C174.321 46.3 173.343 46.09 172.347 46.09C171.255 46.09 170.451 46.39 169.935 46.99C169.431 47.578 169.179 48.46 169.179 49.636C169.179 51.808 170.247 52.894 172.383 52.894C173.355 52.894 174.327 52.69 175.299 52.282V54.64Z" fill="white"/>
<path d="M81.7706 17.07C81.1826 17.694 80.4326 18.006 79.5206 18.006C79.1366 18.006 78.8126 17.982 78.5486 17.934C78.2966 17.898 78.0446 17.82 77.7926 17.7V15.918C78.0806 16.038 78.4046 16.098 78.7646 16.098C79.1606 16.098 79.4786 15.996 79.7186 15.792C79.9586 15.588 80.1986 15.264 80.4386 14.82L77.0186 6.9H79.6106L81.6446 12.3L83.7326 6.9H86.2706L83.3366 14.352C82.8806 15.552 82.3586 16.458 81.7706 17.07Z" fill="white"/>
<path d="M254.011 195.786L252.409 198H249.763L252.679 193.878L249.853 189.9H252.517L254.011 191.97L255.487 189.9H258.133L255.343 193.878L258.259 198H255.577L254.011 195.786Z" fill="white"/>
<path d="M136.774 134.172C136.198 134.724 135.37 135 134.29 135H128.728V123.984H134.11C135.142 123.984 135.922 124.242 136.45 124.758C136.978 125.262 137.242 126.006 137.242 126.99C137.242 127.554 137.14 128.034 136.936 128.43C136.732 128.826 136.45 129.132 136.09 129.348C136.606 129.528 136.99 129.81 137.242 130.194C137.506 130.566 137.638 131.088 137.638 131.76C137.638 132.816 137.35 133.62 136.774 134.172ZM134.614 126.198C134.398 125.97 134.02 125.856 133.48 125.856H131.032V128.556H133.606C134.506 128.556 134.956 128.112 134.956 127.224C134.956 126.756 134.842 126.414 134.614 126.198ZM134.74 130.59C134.476 130.374 134.086 130.266 133.57 130.266H131.032V133.128H133.678C134.182 133.128 134.548 133.008 134.776 132.768C135.016 132.528 135.136 132.15 135.136 131.634C135.136 131.142 135.004 130.794 134.74 130.59Z" fill="white"/>
<path d="M108.211 170.408L107.293 173H104.719L108.679 161.984H111.325L115.285 173H112.747L111.793 170.408H108.211ZM111.487 168.518L110.011 164.54L108.517 168.518H111.487Z" fill="white"/>
<path d="M144.045 199.02V201H136.467V189.984H144.045V191.964H138.933V194.466H143.433V196.518H138.933V199.02H144.045Z" fill="white"/>
<path d="M180.064 196.518V201H177.598V189.984H185.05V191.964H180.064V194.466H184.438V196.518H180.064Z" fill="white"/>
<circle cx="141" cy="141" r="4" fill="#9B51E0" stroke="white" stroke-width="2"/>
<circle cx="121" cy="181" r="4" fill="#9B51E0" stroke="white" stroke-width="2"/>
<path d="M135.491 169.222H137.065L136.111 173.037C135.926 173.762 135.799 174.207 135.731 174.372C135.978 175.382 136.336 175.888 136.806 175.888C137.361 175.888 137.648 175.547 137.667 174.866H138C137.982 175.503 137.85 176.02 137.602 176.415C137.361 176.805 137.043 177 136.648 177C136.321 177 136.077 176.882 135.917 176.646C135.756 176.41 135.583 175.926 135.398 175.196C134.756 176.399 133.707 177 132.25 177C131.256 177 130.466 176.657 129.88 175.97C129.293 175.278 129 174.289 129 173.004C129 171.741 129.321 170.758 129.963 170.055C130.605 169.352 131.377 169 132.278 169C132.914 169 133.435 169.2 133.843 169.601C134.25 170.002 134.611 170.656 134.926 171.562L135.491 169.222ZM134.676 172.452C134.386 171.568 134.062 170.878 133.704 170.384C133.346 169.884 132.917 169.634 132.417 169.634C131.287 169.634 130.722 170.81 130.722 173.161C130.722 175.391 131.262 176.506 132.343 176.506C133.281 176.506 133.975 175.522 134.426 173.556L134.676 172.452Z" fill="white"/>
</svg>
