<svg width="521" height="492" viewBox="0 0 521 492" fill="none" xmlns="http://www.w3.org/2000/svg">
<line x1="38" y1="300" x2="482" y2="300" stroke="white" stroke-width="2"/>
<path d="M187 24L181.226 34H192.774L187 24ZM188 468L188 33H186L186 468H188Z" fill="white"/>
<path d="M409.338 53.6899C410.198 53.6899 410.95 53.9495 411.594 54.4688C412.257 54.9701 412.588 55.722 412.588 56.7246C412.588 57.7272 412.033 59.3027 410.923 61.4512C409.813 63.5817 408.479 65.766 406.921 68.0039C405.364 70.224 403.6 72.5872 401.631 75.0938C398.516 79.0684 395.526 82.6401 392.661 85.8091C392.643 86.0239 392.563 86.4268 392.419 87.0176C392.294 87.5905 392.231 88.1724 392.231 88.7632C392.231 89.354 392.5 89.8911 393.037 90.3745C393.592 90.84 394.272 91.0728 395.078 91.0728C395.884 91.0728 396.743 90.7863 397.656 90.2134C398.587 89.6405 399.393 89.0049 400.073 88.3066C401.864 86.4626 402.974 85.5405 403.403 85.5405C403.833 85.5405 404.048 86.194 404.048 87.501V88.0381C404.048 88.7363 403.923 89.2466 403.672 89.5688C402.168 91.4129 400.476 92.7915 398.596 93.7046C396.716 94.5998 394.935 95.0474 393.252 95.0474C391.569 95.0474 390.289 94.5371 389.412 93.5166C388.534 92.4782 388.096 91.0638 388.096 89.2734C388.096 85.7822 389.027 81.6823 390.889 76.9736C392.769 72.2471 394.881 68.2277 397.227 64.9155C402.508 57.4318 406.545 53.6899 409.338 53.6899ZM408.13 58.1479C408.13 57.8794 408.04 57.7451 407.861 57.7451C407.235 57.7451 405.588 59.5355 402.92 63.1162C400.252 66.6969 398.319 69.5526 397.119 71.6831C395.938 73.8136 394.819 76.4902 393.762 79.7129C395.875 77.2064 398.793 73.3034 402.517 68.0039C406.259 62.6865 408.13 59.4012 408.13 58.1479Z" fill="white"/>
<path d="M243.683 161.075C243.683 158.788 243.566 156.828 243.333 155.195C243.099 153.562 242.633 151.59 241.933 149.28L246.273 147.775C247.019 150.085 247.509 152.15 247.743 153.97C247.999 155.767 248.128 158.112 248.128 161.005V170H243.683V161.075ZM259.916 160.165C259.006 160.165 258.341 160.037 257.921 159.78V161.005V170H253.476V161.075C253.476 158.788 253.359 156.828 253.126 155.195C252.893 153.562 252.426 151.59 251.726 149.28L255.996 147.775L257.571 153.865C257.828 154.962 258.469 155.51 259.496 155.51C260.009 155.51 260.429 155.37 260.756 155.09C261.106 154.787 261.281 154.39 261.281 153.9C261.281 153.247 261.048 151.508 260.581 148.685L265.061 147.775C265.528 150.598 265.761 152.722 265.761 154.145C265.761 155.312 265.504 156.35 264.991 157.26C264.501 158.17 263.813 158.882 262.926 159.395C262.039 159.908 261.036 160.165 259.916 160.165ZM275.581 152.465C276.794 152.465 277.949 152.803 279.046 153.48C280.142 154.133 281.017 155.008 281.671 156.105C282.347 157.202 282.686 158.357 282.686 159.57C282.686 160.76 282.347 161.915 281.671 163.035C280.994 164.132 280.107 165.018 279.011 165.695C277.914 166.372 276.771 166.71 275.581 166.71C274.367 166.71 273.201 166.372 272.081 165.695C270.984 165.018 270.097 164.132 269.421 163.035C268.744 161.915 268.406 160.76 268.406 159.57C268.406 158.357 268.744 157.202 269.421 156.105C270.097 155.008 270.984 154.133 272.081 153.48C273.201 152.803 274.367 152.465 275.581 152.465ZM275.581 162.44C276.304 162.44 276.957 162.148 277.541 161.565C278.124 160.958 278.416 160.293 278.416 159.57C278.416 158.847 278.124 158.193 277.541 157.61C276.957 157.027 276.304 156.735 275.581 156.735C274.834 156.735 274.157 157.027 273.551 157.61C272.967 158.193 272.676 158.847 272.676 159.57C272.676 160.293 272.979 160.958 273.586 161.565C274.192 162.148 274.857 162.44 275.581 162.44ZM289.965 148.825C288.705 148.825 287.679 148.463 286.885 147.74C286.115 147.017 285.73 146.025 285.73 144.765C285.73 143.505 286.115 142.513 286.885 141.79C287.679 141.067 288.705 140.705 289.965 140.705C291.179 140.705 292.205 141.067 293.045 141.79C293.885 142.513 294.305 143.493 294.305 144.73C294.305 146.013 293.885 147.017 293.045 147.74C292.229 148.463 291.202 148.825 289.965 148.825ZM289.965 146.41C290.432 146.41 290.817 146.27 291.12 145.99C291.447 145.687 291.61 145.278 291.61 144.765C291.61 144.252 291.447 143.855 291.12 143.575C290.817 143.272 290.432 143.12 289.965 143.12C289.499 143.12 289.102 143.272 288.775 143.575C288.472 143.855 288.32 144.252 288.32 144.765C288.32 145.278 288.46 145.687 288.74 145.99C289.02 146.27 289.429 146.41 289.965 146.41Z" fill="white"/>
<path d="M128.658 420.795H144.478V425.24H128.658V420.795ZM161.066 407.775C161.532 410.505 161.766 412.605 161.766 414.075C161.766 414.285 161.742 414.507 161.696 414.74C161.882 414.997 162.104 415.195 162.361 415.335C162.641 415.452 162.991 415.51 163.411 415.51C163.901 415.51 164.309 415.37 164.636 415.09C164.986 414.787 165.161 414.39 165.161 413.9C165.161 413.2 164.939 411.462 164.496 408.685L168.976 407.775C169.419 410.598 169.641 412.722 169.641 414.145C169.641 415.312 169.384 416.35 168.871 417.26C168.381 418.17 167.692 418.882 166.806 419.395C165.942 419.908 164.951 420.165 163.831 420.165C162.967 420.165 162.174 420.025 161.451 419.745C160.727 419.442 160.202 419.068 159.876 418.625C159.502 419.115 158.954 419.5 158.231 419.78C157.531 420.037 156.772 420.165 155.956 420.165C155.046 420.165 154.381 420.037 153.961 419.78V421.005V430H149.516V421.075C149.516 418.788 149.399 416.828 149.166 415.195C148.932 413.562 148.466 411.59 147.766 409.28L152.036 407.775L153.611 413.865C153.867 414.962 154.509 415.51 155.536 415.51C156.049 415.51 156.469 415.37 156.796 415.09C157.146 414.787 157.321 414.39 157.321 413.9C157.321 413.247 157.087 411.508 156.621 408.685L161.066 407.775Z" fill="white"/>
<mask id="path-6-outside-1_2096_2347" maskUnits="userSpaceOnUse" x="263" y="171" width="55" height="38" fill="black">
<rect fill="white" x="263" y="171" width="55" height="38"/>
<path d="M265 207C265 201.132 266.519 195.364 269.408 190.257C272.298 185.15 276.46 180.878 281.489 177.856C286.519 174.834 292.245 173.165 298.111 173.012C303.977 172.858 309.783 174.226 314.963 176.981L299 207H265Z"/>
</mask>
<path d="M265 207C265 201.132 266.519 195.364 269.408 190.257C272.298 185.15 276.46 180.878 281.489 177.856C286.519 174.834 292.245 173.165 298.111 173.012C303.977 172.858 309.783 174.226 314.963 176.981L299 207H265Z" stroke="white" stroke-width="4" mask="url(#path-6-outside-1_2096_2347)"/>
<line x1="39" y1="208" x2="483" y2="208" stroke="#24F2EB" stroke-width="2"/>
<line x1="163.116" y1="467.048" x2="397.116" y2="23.5334" stroke="white" stroke-width="2"/>
<circle cx="187" cy="422" r="7" fill="#9B51E0" stroke="white" stroke-width="2"/>
</svg>
