<svg width="486" height="468" viewBox="0 0 486 468" fill="none" xmlns="http://www.w3.org/2000/svg">
<circle cx="252.5" cy="233" r="134" fill="#9000FF" fill-opacity="0.2" stroke="white" stroke-width="2"/>
<mask id="path-2-outside-1_2090_383" maskUnits="userSpaceOnUse" x="249.007" y="141.066" width="149.619" height="117.984" fill="black">
<rect fill="white" x="249.007" y="141.066" width="149.619" height="117.984"/>
<path d="M363.463 161.218C377.059 182.425 384.353 207.058 384.495 232.249L251.498 233L363.463 161.218Z"/>
</mask>
<path d="M363.463 161.218C377.059 182.425 384.353 207.058 384.495 232.249L251.498 233L363.463 161.218Z" fill="#1A7E7A" fill-opacity="0.6"/>
<path d="M363.463 161.218C377.059 182.425 384.353 207.058 384.495 232.249L251.498 233L363.463 161.218Z" stroke="white" stroke-width="4" stroke-linejoin="round" mask="url(#path-2-outside-1_2090_383)"/>
<mask id="path-3-outside-2_2090_383" maskUnits="userSpaceOnUse" x="248.808" y="206.764" width="43.4433" height="35.3317" fill="black">
<rect fill="white" x="248.808" y="206.764" width="43.4433" height="35.3317"/>
<path d="M281.17 213.978C284.773 219.598 286.706 226.126 286.743 232.801L251.498 233.001L281.17 213.978Z"/>
</mask>
<path d="M281.17 213.978C284.773 219.598 286.706 226.126 286.743 232.801L251.498 233.001L281.17 213.978Z" stroke="white" stroke-width="4" stroke-linejoin="round" mask="url(#path-3-outside-2_2090_383)"/>
<path d="M251.5 59L245.726 69L257.273 69L251.5 59ZM252.5 408L252.5 68L250.5 68L250.5 408L252.5 408Z" fill="white"/>
<path d="M426 233.5L416 227.726V239.274L426 233.5ZM77 234.5L417 234.5V232.5L77 232.5V234.5Z" fill="white"/>
<path d="M247.316 441.45C246.336 442.49 245.086 443.01 243.566 443.01C242.926 443.01 242.386 442.97 241.946 442.89C241.526 442.83 241.106 442.7 240.686 442.5V439.53C241.166 439.73 241.706 439.83 242.306 439.83C242.966 439.83 243.496 439.66 243.896 439.32C244.296 438.98 244.696 438.44 245.096 437.7L239.396 424.5H243.716L247.106 433.5L250.586 424.5H254.816L249.926 436.92C249.166 438.92 248.296 440.43 247.316 441.45ZM264.714 415.32C264.434 415.6 264.064 415.94 263.604 416.34C263.144 416.74 262.644 417.16 262.104 417.6C261.584 418.04 261.064 418.46 260.544 418.86C260.044 419.24 259.604 419.56 259.224 419.82H256.254V419.43C256.574 419.05 256.944 418.61 257.364 418.11C257.804 417.59 258.234 417.06 258.654 416.52C259.074 415.96 259.424 415.46 259.704 415.02H264.714V415.32Z" fill="white"/>
<path d="M252.451 46.45C251.471 47.49 250.221 48.01 248.701 48.01C248.061 48.01 247.521 47.97 247.081 47.89C246.661 47.83 246.241 47.7 245.821 47.5V44.53C246.301 44.73 246.841 44.83 247.441 44.83C248.101 44.83 248.631 44.66 249.031 44.32C249.431 43.98 249.831 43.44 250.231 42.7L244.531 29.5H248.851L252.241 38.5L255.721 29.5H259.951L255.061 41.92C254.301 43.92 253.431 45.43 252.451 46.45Z" fill="white"/>
<path d="M446.018 236.31L443.348 240H438.938L443.798 233.13L439.088 226.5H443.528L446.018 229.95L448.478 226.5H452.888L448.238 233.13L453.098 240H448.628L446.018 236.31Z" fill="white"/>
<path d="M51.883 236.31L49.213 240H44.803L49.663 233.13L44.953 226.5H49.393L51.883 229.95L54.343 226.5H58.753L54.103 233.13L58.963 240H54.493L51.883 236.31ZM69.1579 217.32C68.8779 217.6 68.5079 217.94 68.0479 218.34C67.5879 218.74 67.0879 219.16 66.5479 219.6C66.0279 220.04 65.5079 220.46 64.9879 220.86C64.4879 221.24 64.0479 221.56 63.6679 221.82H60.6979V221.43C61.0179 221.05 61.3879 220.61 61.8079 220.11C62.2479 219.59 62.6779 219.06 63.0979 218.52C63.5179 217.96 63.8679 217.46 64.1479 217.02H69.1579V217.32Z" fill="white"/>
<path d="M243.532 249.91C243.532 256.17 240.692 259.3 235.012 259.3C229.312 259.3 226.462 256.17 226.462 249.91C226.462 246.57 227.172 244.15 228.592 242.65C230.012 241.13 232.152 240.37 235.012 240.37C237.872 240.37 240.002 241.13 241.402 242.65C242.822 244.15 243.532 246.57 243.532 249.91ZM231.682 254.14C232.402 255.04 233.512 255.49 235.012 255.49C236.512 255.49 237.612 255.04 238.312 254.14C239.032 253.22 239.392 251.81 239.392 249.91C239.392 247.85 239.042 246.38 238.342 245.5C237.642 244.6 236.532 244.15 235.012 244.15C233.492 244.15 232.382 244.6 231.682 245.5C230.982 246.38 230.632 247.85 230.632 249.91C230.632 251.81 230.982 253.22 231.682 254.14Z" fill="white"/>
<path d="M389.11 151.57H384.97V157H380.86V138.64H389.2C391.2 138.64 392.7 139.24 393.7 140.44C394.72 141.64 395.23 143.22 395.23 145.18C395.23 146.42 394.98 147.53 394.48 148.51C393.98 149.47 393.27 150.22 392.35 150.76C391.43 151.3 390.35 151.57 389.11 151.57ZM390.43 142.96C389.97 142.46 389.29 142.21 388.39 142.21H384.97V148.03H388.24C389.16 148.03 389.87 147.78 390.37 147.28C390.87 146.76 391.12 146.06 391.12 145.18C391.12 144.2 390.89 143.46 390.43 142.96ZM401.271 147.34C401.271 149.28 401.501 150.87 401.961 152.11C402.441 153.35 403.331 154.62 404.631 155.92L402.351 158.05C400.591 156.57 399.331 154.99 398.571 153.31C397.831 151.63 397.461 149.64 397.461 147.34C397.461 145.04 397.831 143.05 398.571 141.37C399.331 139.69 400.591 138.11 402.351 136.63L404.631 138.76C403.331 140.04 402.441 141.31 401.961 142.57C401.501 143.81 401.271 145.4 401.271 147.34ZM414.263 153.31L411.593 157H407.183L412.043 150.13L407.333 143.5H411.773L414.263 146.95L416.723 143.5H421.133L416.483 150.13L421.343 157H416.873L414.263 153.31ZM427.518 154.39L426.108 160.42H423.228L424.068 154.39H427.518ZM437.52 160.45C436.54 161.49 435.29 162.01 433.77 162.01C433.13 162.01 432.59 161.97 432.15 161.89C431.73 161.83 431.31 161.7 430.89 161.5V158.53C431.37 158.73 431.91 158.83 432.51 158.83C433.17 158.83 433.7 158.66 434.1 158.32C434.5 157.98 434.9 157.44 435.3 156.7L429.6 143.5H433.92L437.31 152.5L440.79 143.5H445.02L440.13 155.92C439.37 157.92 438.5 159.43 437.52 160.45ZM450.598 147.34C450.598 145.4 450.358 143.81 449.878 142.57C449.418 141.31 448.548 140.04 447.268 138.76L449.548 136.63C451.288 138.11 452.538 139.69 453.298 141.37C454.058 143.05 454.438 145.04 454.438 147.34C454.438 149.64 454.058 151.63 453.298 153.31C452.538 154.99 451.288 156.57 449.548 158.05L447.268 155.92C448.548 154.62 449.418 153.35 449.878 152.11C450.358 150.87 450.598 149.28 450.598 147.34Z" fill="white"/>
<path d="M398.14 269.68L396.61 274H392.32L398.92 255.64H403.33L409.93 274H405.7L404.11 269.68H398.14ZM403.6 266.53L401.14 259.9L398.65 266.53H403.6ZM416.464 264.34C416.464 266.28 416.694 267.87 417.154 269.11C417.634 270.35 418.524 271.62 419.824 272.92L417.544 275.05C415.784 273.57 414.524 271.99 413.764 270.31C413.024 268.63 412.654 266.64 412.654 264.34C412.654 262.04 413.024 260.05 413.764 258.37C414.524 256.69 415.784 255.11 417.544 253.63L419.824 255.76C418.524 257.04 417.634 258.31 417.154 259.57C416.694 260.81 416.464 262.4 416.464 264.34ZM424.702 266.35C424.702 264.39 424.602 262.71 424.402 261.31C424.202 259.91 423.802 258.22 423.202 256.24L426.922 254.95C427.562 256.93 427.982 258.7 428.182 260.26C428.402 261.8 428.512 263.81 428.512 266.29V274H424.702V266.35ZM435.856 271.39L434.446 277.42H431.566L432.406 271.39H435.856ZM444.778 258.97C445.818 258.97 446.808 259.26 447.748 259.84C448.688 260.4 449.438 261.15 449.998 262.09C450.578 263.03 450.868 264.02 450.868 265.06C450.868 266.08 450.578 267.07 449.998 268.03C449.418 268.97 448.658 269.73 447.718 270.31C446.778 270.89 445.798 271.18 444.778 271.18C443.738 271.18 442.738 270.89 441.778 270.31C440.838 269.73 440.078 268.97 439.498 268.03C438.918 267.07 438.628 266.08 438.628 265.06C438.628 264.02 438.918 263.03 439.498 262.09C440.078 261.15 440.838 260.4 441.778 259.84C442.738 259.26 443.738 258.97 444.778 258.97ZM444.778 267.52C445.398 267.52 445.958 267.27 446.458 266.77C446.958 266.25 447.208 265.68 447.208 265.06C447.208 264.44 446.958 263.88 446.458 263.38C445.958 262.88 445.398 262.63 444.778 262.63C444.138 262.63 443.558 262.88 443.038 263.38C442.538 263.88 442.288 264.44 442.288 265.06C442.288 265.68 442.548 266.25 443.068 266.77C443.588 267.27 444.158 267.52 444.778 267.52ZM457.09 264.34C457.09 262.4 456.85 260.81 456.37 259.57C455.91 258.31 455.04 257.04 453.76 255.76L456.04 253.63C457.78 255.11 459.03 256.69 459.79 258.37C460.55 260.05 460.93 262.04 460.93 264.34C460.93 266.64 460.55 268.63 459.79 270.31C459.03 271.99 457.78 273.57 456.04 275.05L453.76 272.92C455.04 271.62 455.91 270.35 456.37 269.11C456.85 267.87 457.09 266.28 457.09 264.34Z" fill="white"/>
<path d="M284.27 396.81C282.95 398.27 280.94 399 278.24 399H270.86V380.64H278.24C280.92 380.64 282.92 381.38 284.24 382.86C285.58 384.32 286.25 386.68 286.25 389.94C286.25 393.06 285.59 395.35 284.27 396.81ZM280.4 384.93C279.76 384.53 278.85 384.33 277.67 384.33H274.97V395.55H277.67C278.71 395.55 279.54 395.4 280.16 395.1C280.8 394.78 281.28 394.22 281.6 393.42C281.94 392.6 282.11 391.44 282.11 389.94C282.11 388.58 281.98 387.5 281.72 386.7C281.48 385.9 281.04 385.31 280.4 384.93ZM292.736 389.34C292.736 391.28 292.966 392.87 293.426 394.11C293.906 395.35 294.796 396.62 296.096 397.92L293.816 400.05C292.056 398.57 290.796 396.99 290.036 395.31C289.296 393.63 288.926 391.64 288.926 389.34C288.926 387.04 289.296 385.05 290.036 383.37C290.796 381.69 292.056 380.11 293.816 378.63L296.096 380.76C294.796 382.04 293.906 383.31 293.426 384.57C292.966 385.81 292.736 387.4 292.736 389.34ZM305.11 383.97C306.15 383.97 307.14 384.26 308.08 384.84C309.02 385.4 309.77 386.15 310.33 387.09C310.91 388.03 311.2 389.02 311.2 390.06C311.2 391.08 310.91 392.07 310.33 393.03C309.75 393.97 308.99 394.73 308.05 395.31C307.11 395.89 306.13 396.18 305.11 396.18C304.07 396.18 303.07 395.89 302.11 395.31C301.17 394.73 300.41 393.97 299.83 393.03C299.25 392.07 298.96 391.08 298.96 390.06C298.96 389.02 299.25 388.03 299.83 387.09C300.41 386.15 301.17 385.4 302.11 384.84C303.07 384.26 304.07 383.97 305.11 383.97ZM305.11 392.52C305.73 392.52 306.29 392.27 306.79 391.77C307.29 391.25 307.54 390.68 307.54 390.06C307.54 389.44 307.29 388.88 306.79 388.38C306.29 387.88 305.73 387.63 305.11 387.63C304.47 387.63 303.89 387.88 303.37 388.38C302.87 388.88 302.62 389.44 302.62 390.06C302.62 390.68 302.88 391.25 303.4 391.77C303.92 392.27 304.49 392.52 305.11 392.52ZM318.25 396.39L316.84 402.42H313.96L314.8 396.39H318.25ZM321.022 391.11H334.582V394.92H321.022V391.11ZM338.9 391.35C338.9 389.39 338.8 387.71 338.6 386.31C338.4 384.91 338 383.22 337.4 381.24L341.12 379.95C341.76 381.93 342.18 383.7 342.38 385.26C342.6 386.8 342.71 388.81 342.71 391.29V399H338.9V391.35ZM350.047 389.34C350.047 387.4 349.807 385.81 349.327 384.57C348.867 383.31 347.997 382.04 346.717 380.76L348.997 378.63C350.737 380.11 351.987 381.69 352.747 383.37C353.507 385.05 353.887 387.04 353.887 389.34C353.887 391.64 353.507 393.63 352.747 395.31C351.987 396.99 350.737 398.57 348.997 400.05L346.717 397.92C347.997 396.62 348.867 395.35 349.327 394.11C349.807 392.87 350.047 391.28 350.047 389.34Z" fill="white"/>
<path d="M284.27 86.62C283.31 87.54 281.93 88 280.13 88H270.86V69.64H279.83C281.55 69.64 282.85 70.07 283.73 70.93C284.61 71.77 285.05 73.01 285.05 74.65C285.05 75.59 284.88 76.39 284.54 77.05C284.2 77.71 283.73 78.22 283.13 78.58C283.99 78.88 284.63 79.35 285.05 79.99C285.49 80.61 285.71 81.48 285.71 82.6C285.71 84.36 285.23 85.7 284.27 86.62ZM280.67 73.33C280.31 72.95 279.68 72.76 278.78 72.76H274.7V77.26H278.99C280.49 77.26 281.24 76.52 281.24 75.04C281.24 74.26 281.05 73.69 280.67 73.33ZM280.88 80.65C280.44 80.29 279.79 80.11 278.93 80.11H274.7V84.88H279.11C279.95 84.88 280.56 84.68 280.94 84.28C281.34 83.88 281.54 83.25 281.54 82.39C281.54 81.57 281.32 80.99 280.88 80.65ZM292.179 78.34C292.179 80.28 292.409 81.87 292.869 83.11C293.349 84.35 294.239 85.62 295.539 86.92L293.259 89.05C291.499 87.57 290.239 85.99 289.479 84.31C288.739 82.63 288.369 80.64 288.369 78.34C288.369 76.04 288.739 74.05 289.479 72.37C290.239 70.69 291.499 69.11 293.259 67.63L295.539 69.76C294.239 71.04 293.349 72.31 292.869 73.57C292.409 74.81 292.179 76.4 292.179 78.34ZM304.554 72.97C305.594 72.97 306.584 73.26 307.524 73.84C308.464 74.4 309.214 75.15 309.774 76.09C310.354 77.03 310.644 78.02 310.644 79.06C310.644 80.08 310.354 81.07 309.774 82.03C309.194 82.97 308.434 83.73 307.494 84.31C306.554 84.89 305.574 85.18 304.554 85.18C303.514 85.18 302.514 84.89 301.554 84.31C300.614 83.73 299.854 82.97 299.274 82.03C298.694 81.07 298.404 80.08 298.404 79.06C298.404 78.02 298.694 77.03 299.274 76.09C299.854 75.15 300.614 74.4 301.554 73.84C302.514 73.26 303.514 72.97 304.554 72.97ZM304.554 81.52C305.174 81.52 305.734 81.27 306.234 80.77C306.734 80.25 306.984 79.68 306.984 79.06C306.984 78.44 306.734 77.88 306.234 77.38C305.734 76.88 305.174 76.63 304.554 76.63C303.914 76.63 303.334 76.88 302.814 77.38C302.314 77.88 302.064 78.44 302.064 79.06C302.064 79.68 302.324 80.25 302.844 80.77C303.364 81.27 303.934 81.52 304.554 81.52ZM317.694 85.39L316.284 91.42H313.404L314.244 85.39H317.694ZM321.365 80.35C321.365 78.39 321.265 76.71 321.065 75.31C320.865 73.91 320.465 72.22 319.865 70.24L323.585 68.95C324.225 70.93 324.645 72.7 324.845 74.26C325.065 75.8 325.175 77.81 325.175 80.29V88H321.365V80.35ZM332.512 78.34C332.512 76.4 332.272 74.81 331.792 73.57C331.332 72.31 330.462 71.04 329.182 69.76L331.462 67.63C333.202 69.11 334.452 70.69 335.212 72.37C335.972 74.05 336.352 76.04 336.352 78.34C336.352 80.64 335.972 82.63 335.212 84.31C334.452 85.99 333.202 87.57 331.462 89.05L329.182 86.92C330.462 85.62 331.332 84.35 331.792 83.11C332.272 81.87 332.512 80.28 332.512 78.34Z" fill="white"/>
<path d="M42.69 275.4C41.03 276 39.3 276.3 37.5 276.3C34.46 276.3 32.17 275.5 30.63 273.9C29.09 272.3 28.32 270.02 28.32 267.06C28.32 263.92 29.07 261.52 30.57 259.86C32.07 258.2 34.37 257.37 37.47 257.37C39.43 257.37 41.16 257.67 42.66 258.27V262.2C41.06 261.5 39.43 261.15 37.77 261.15C35.95 261.15 34.61 261.65 33.75 262.65C32.91 263.63 32.49 265.1 32.49 267.06C32.49 270.68 34.27 272.49 37.83 272.49C39.45 272.49 41.07 272.15 42.69 271.47V275.4ZM49.2708 266.34C49.2708 268.28 49.5008 269.87 49.9608 271.11C50.4408 272.35 51.3308 273.62 52.6308 274.92L50.3508 277.05C48.5908 275.57 47.3308 273.99 46.5708 272.31C45.8308 270.63 45.4608 268.64 45.4608 266.34C45.4608 264.04 45.8308 262.05 46.5708 260.37C47.3308 258.69 48.5908 257.11 50.3508 255.63L52.6308 257.76C51.3308 259.04 50.4408 260.31 49.9608 261.57C49.5008 262.81 49.2708 264.4 49.2708 266.34ZM56.0229 268.11H69.5829V271.92H56.0229V268.11ZM73.901 268.35C73.901 266.39 73.801 264.71 73.601 263.31C73.401 261.91 73.001 260.22 72.401 258.24L76.121 256.95C76.761 258.93 77.181 260.7 77.381 262.26C77.601 263.8 77.711 265.81 77.711 268.29V276H73.901V268.35ZM85.0545 273.39L83.6445 279.42H80.7645L81.6045 273.39H85.0545ZM93.9764 260.97C95.0164 260.97 96.0064 261.26 96.9464 261.84C97.8864 262.4 98.6364 263.15 99.1964 264.09C99.7764 265.03 100.066 266.02 100.066 267.06C100.066 268.08 99.7764 269.07 99.1964 270.03C98.6164 270.97 97.8564 271.73 96.9164 272.31C95.9764 272.89 94.9964 273.18 93.9764 273.18C92.9364 273.18 91.9364 272.89 90.9764 272.31C90.0364 271.73 89.2764 270.97 88.6964 270.03C88.1164 269.07 87.8264 268.08 87.8264 267.06C87.8264 266.02 88.1164 265.03 88.6964 264.09C89.2764 263.15 90.0364 262.4 90.9764 261.84C91.9364 261.26 92.9364 260.97 93.9764 260.97ZM93.9764 269.52C94.5964 269.52 95.1564 269.27 95.6564 268.77C96.1564 268.25 96.4064 267.68 96.4064 267.06C96.4064 266.44 96.1564 265.88 95.6564 265.38C95.1564 264.88 94.5964 264.63 93.9764 264.63C93.3364 264.63 92.7564 264.88 92.2364 265.38C91.7364 265.88 91.4864 266.44 91.4864 267.06C91.4864 267.68 91.7464 268.25 92.2664 268.77C92.7864 269.27 93.3564 269.52 93.9764 269.52ZM106.289 266.34C106.289 264.4 106.049 262.81 105.569 261.57C105.109 260.31 104.239 259.04 102.959 257.76L105.239 255.63C106.979 257.11 108.229 258.69 108.989 260.37C109.749 262.05 110.129 264.04 110.129 266.34C110.129 268.64 109.749 270.63 108.989 272.31C108.229 273.99 106.979 275.57 105.239 277.05L102.959 274.92C104.239 273.62 105.109 272.35 105.569 271.11C106.049 269.87 106.289 268.28 106.289 266.34Z" fill="white"/>
<path fill-rule="evenodd" clip-rule="evenodd" d="M297.51 228C301.17 228 303 225.189 303 219.567C303 216.568 302.542 214.395 301.627 213.048C300.725 211.683 299.353 211 297.51 211C295.667 211 294.288 211.683 293.373 213.048C292.458 214.395 292 216.568 292 219.567C292 225.189 293.837 228 297.51 228ZM297.51 224.578C296.543 224.578 295.828 224.174 295.364 223.366C295.004 222.707 294.787 221.767 294.715 220.546H300.304C300.229 221.767 300.007 222.707 299.636 223.366C299.185 224.174 298.476 224.578 297.51 224.578ZM300.253 217.852H294.767C294.868 216.875 295.067 216.126 295.364 215.607C295.815 214.799 296.53 214.395 297.51 214.395C298.489 214.395 299.204 214.799 299.656 215.607C299.952 216.126 300.151 216.875 300.253 217.852Z" fill="white"/>
<circle cx="364" cy="161" r="8" fill="#5FBE92" stroke="white" stroke-width="2"/>
<circle cx="251.5" cy="99" r="8" fill="#5FBE92" stroke="white" stroke-width="2"/>
<circle cx="119" cy="233" r="8" fill="#5FBE92" stroke="white" stroke-width="2"/>
<circle cx="386" cy="233" r="8" fill="#5FBE92" stroke="white" stroke-width="2"/>
<circle cx="251.5" cy="367" r="8" fill="#5FBE92" stroke="white" stroke-width="2"/>
</svg>
