<svg width="468" height="468" viewBox="0 0 468 468" fill="none" xmlns="http://www.w3.org/2000/svg">
<circle cx="234.5" cy="233" r="134" fill="#9000FF" fill-opacity="0.2" stroke="white" stroke-width="2"/>
<mask id="path-2-outside-1_2088_192" maskUnits="userSpaceOnUse" x="43.7295" y="42.1972" width="353.643" height="351.62" fill="black">
<rect fill="white" x="43.7295" y="42.1972" width="353.643" height="351.62"/>
<path d="M137.262 323.705C122.488 307.862 111.807 288.649 106.149 267.738C100.491 246.827 100.026 224.85 104.795 203.718C109.565 182.586 119.424 162.939 133.516 146.486C147.607 130.032 165.504 117.269 185.652 109.308C205.799 101.346 227.586 98.4261 249.119 100.802C270.651 103.178 291.277 110.778 309.204 122.94C327.131 135.103 341.815 151.461 351.98 170.591C362.146 189.721 367.484 211.045 367.532 232.708L234.532 233L137.262 323.705Z"/>
</mask>
<path d="M137.262 323.705C122.488 307.862 111.807 288.649 106.149 267.738C100.491 246.827 100.026 224.85 104.795 203.718C109.565 182.586 119.424 162.939 133.516 146.486C147.607 130.032 165.504 117.269 185.652 109.308C205.799 101.346 227.586 98.4261 249.119 100.802C270.651 103.178 291.277 110.778 309.204 122.94C327.131 135.103 341.815 151.461 351.98 170.591C362.146 189.721 367.484 211.045 367.532 232.708L234.532 233L137.262 323.705Z" fill="#1A7E7A" fill-opacity="0.6"/>
<path d="M137.262 323.705C122.488 307.862 111.807 288.649 106.149 267.738C100.491 246.827 100.026 224.85 104.795 203.718C109.565 182.586 119.424 162.939 133.516 146.486C147.607 130.032 165.504 117.269 185.652 109.308C205.799 101.346 227.586 98.4261 249.119 100.802C270.651 103.178 291.277 110.778 309.204 122.94C327.131 135.103 341.815 151.461 351.98 170.591C362.146 189.721 367.484 211.045 367.532 232.708L234.532 233L137.262 323.705Z" stroke="white" stroke-width="4" mask="url(#path-2-outside-1_2088_192)"/>
<path d="M233.5 59L227.726 69L239.273 69L233.5 59ZM234.5 408L234.5 68L232.5 68L232.5 408L234.5 408Z" fill="white"/>
<path d="M408 233.5L398 227.726V239.274L408 233.5ZM59 234.5L399 234.5V232.5L59 232.5V234.5Z" fill="white"/>
<path d="M229.316 441.45C228.336 442.49 227.086 443.01 225.566 443.01C224.926 443.01 224.386 442.97 223.946 442.89C223.526 442.83 223.106 442.7 222.686 442.5V439.53C223.166 439.73 223.706 439.83 224.306 439.83C224.966 439.83 225.496 439.66 225.896 439.32C226.296 438.98 226.696 438.44 227.096 437.7L221.396 424.5H225.716L229.106 433.5L232.586 424.5H236.816L231.926 436.92C231.166 438.92 230.296 440.43 229.316 441.45ZM246.714 415.32C246.434 415.6 246.064 415.94 245.604 416.34C245.144 416.74 244.644 417.16 244.104 417.6C243.584 418.04 243.064 418.46 242.544 418.86C242.044 419.24 241.604 419.56 241.224 419.82H238.254V419.43C238.574 419.05 238.944 418.61 239.364 418.11C239.804 417.59 240.234 417.06 240.654 416.52C241.074 415.96 241.424 415.46 241.704 415.02H246.714V415.32Z" fill="white"/>
<path d="M234.451 46.45C233.471 47.49 232.221 48.01 230.701 48.01C230.061 48.01 229.521 47.97 229.081 47.89C228.661 47.83 228.241 47.7 227.821 47.5V44.53C228.301 44.73 228.841 44.83 229.441 44.83C230.101 44.83 230.631 44.66 231.031 44.32C231.431 43.98 231.831 43.44 232.231 42.7L226.531 29.5H230.851L234.241 38.5L237.721 29.5H241.951L237.061 41.92C236.301 43.92 235.431 45.43 234.451 46.45Z" fill="white"/>
<path d="M320.729 75.01C321.229 75.01 321.629 74.88 321.929 74.62C322.249 74.34 322.409 73.97 322.409 73.51V68.68H326.219V73.36C326.219 74.46 326.779 75.01 327.899 75.01H329.039C329.239 75.01 329.339 75.7 329.339 77.08C329.339 78.36 329.239 79 329.039 79H327.719C326.039 79 324.899 78.52 324.299 77.56C323.939 78.06 323.459 78.43 322.859 78.67C322.279 78.89 321.569 79 320.729 79H310.889C309.089 79 307.709 78.53 306.749 77.59C305.789 76.63 305.309 75.26 305.309 73.48V68.68H309.119V72.97C309.119 73.65 309.269 74.16 309.569 74.5C309.889 74.84 310.389 75.01 311.069 75.01H320.729ZM320.009 63.19V66.61H311.549V63.19H320.009ZM331.931 75.01C332.431 75.01 332.831 74.88 333.131 74.62C333.451 74.34 333.611 73.96 333.611 73.48V68.68H337.421V73.36C337.421 74.46 337.981 75.01 339.101 75.01H340.241C340.441 75.01 340.541 75.68 340.541 77.02C340.541 78.34 340.441 79 340.241 79H338.921C337.241 79 336.101 78.52 335.501 77.56C335.141 78.06 334.661 78.43 334.061 78.67C333.481 78.89 332.771 79 331.931 79H328.451C328.251 79 328.151 78.36 328.151 77.08C328.151 75.7 328.251 75.01 328.451 75.01H331.931ZM328.481 85.54V82.12H332.561V85.54H328.481ZM343.108 75.01C343.608 75.01 344.008 74.88 344.308 74.62C344.628 74.34 344.788 73.96 344.788 73.48V68.68H348.598V73.36C348.598 74.46 349.158 75.01 350.278 75.01H351.418C351.618 75.01 351.718 75.68 351.718 77.02C351.718 78.34 351.618 79 351.418 79H350.098C348.418 79 347.278 78.52 346.678 77.56C346.318 78.06 345.838 78.43 345.238 78.67C344.658 78.89 343.948 79 343.108 79H339.628C339.428 79 339.328 78.36 339.328 77.08C339.328 75.7 339.428 75.01 339.628 75.01H343.108ZM347.038 57.43V60.7H343.438V57.43H347.038ZM349.468 62.14V65.56H341.008V62.14H349.468ZM351.585 75.01C352.145 75.01 352.535 74.9 352.755 74.68C352.995 74.46 353.115 74.1 353.115 73.6V72.76C353.115 70.82 353.665 69.29 354.765 68.17C355.885 67.03 357.395 66.46 359.295 66.46C361.195 66.46 362.645 67.01 363.645 68.11C364.665 69.19 365.175 70.75 365.175 72.79C365.175 74.75 364.645 76.28 363.585 77.38C362.525 78.46 361.045 79 359.145 79C358.145 79 357.315 78.88 356.655 78.64C355.995 78.38 355.505 78.02 355.185 77.56C354.805 78.06 354.325 78.43 353.745 78.67C353.185 78.89 352.465 79 351.585 79H350.805C350.605 79 350.505 78.36 350.505 77.08C350.505 75.7 350.605 75.01 350.805 75.01H351.585ZM361.395 72.79C361.395 71.11 360.645 70.27 359.145 70.27C357.645 70.27 356.895 71.11 356.895 72.79C356.895 73.51 357.075 74.07 357.435 74.47C357.815 74.85 358.385 75.04 359.145 75.04C359.905 75.04 360.465 74.86 360.825 74.5C361.205 74.12 361.395 73.55 361.395 72.79ZM386.523 72.94C386.523 73.66 386.653 74.19 386.913 74.53C387.173 74.85 387.563 75.01 388.083 75.01H389.013C389.113 75.01 389.183 75.14 389.223 75.4C389.283 75.66 389.313 76.22 389.313 77.08C389.313 77.88 389.283 78.4 389.223 78.64C389.183 78.88 389.113 79 389.013 79H388.053C386.973 79 386.073 78.82 385.353 78.46C384.653 78.08 384.163 77.47 383.883 76.63C383.463 76.99 382.913 77.26 382.233 77.44C381.573 77.6 380.883 77.68 380.163 77.68C378.363 77.68 376.983 77.19 376.023 76.21C375.083 75.21 374.613 73.73 374.613 71.77C374.613 70.65 374.863 69.61 375.363 68.65C375.883 67.67 376.603 66.89 377.523 66.31C378.463 65.71 379.533 65.41 380.733 65.41H382.713V63.46H386.523V72.94ZM378.393 71.74C378.393 72.4 378.543 72.9 378.843 73.24C379.163 73.56 379.673 73.72 380.373 73.72C381.133 73.72 381.713 73.59 382.113 73.33C382.533 73.05 382.743 72.66 382.743 72.16V69.22H380.793C379.193 69.22 378.393 70.06 378.393 71.74ZM396.84 73.66C396.84 75.32 396.34 76.63 395.34 77.59C394.36 78.53 393.03 79 391.35 79H388.41C388.21 79 388.11 78.36 388.11 77.08C388.11 75.7 388.21 75.01 388.41 75.01H391.35C391.85 75.01 392.25 74.88 392.55 74.62C392.87 74.34 393.03 73.96 393.03 73.48V68.68H396.84V73.66ZM395.04 82.12V85.54H386.58V82.12H395.04ZM412.219 77.74C412.219 80.36 411.519 82.42 410.119 83.92C408.739 85.42 406.839 86.17 404.419 86.17H400.309L399.979 82.18H404.659C405.839 82.18 406.759 81.89 407.419 81.31C408.079 80.75 408.409 79.98 408.409 79H406.309C404.149 79 402.599 78.55 401.659 77.65C400.739 76.75 400.279 75.32 400.279 73.36C400.279 72.08 400.529 70.94 401.029 69.94C401.529 68.94 402.229 68.16 403.129 67.6C404.049 67.04 405.109 66.76 406.309 66.76C408.149 66.76 409.589 67.36 410.629 68.56C411.689 69.76 412.219 71.42 412.219 73.54V77.74ZM404.059 73.21C404.059 73.85 404.229 74.32 404.569 74.62C404.929 74.9 405.559 75.04 406.459 75.04H408.409V73.48C408.409 72.52 408.219 71.79 407.839 71.29C407.459 70.79 406.909 70.54 406.189 70.54C405.509 70.54 404.979 70.79 404.599 71.29C404.239 71.77 404.059 72.41 404.059 73.21ZM415.915 59.68H419.755V79H415.915V59.68ZM428.688 77.89C428.688 79.53 428.358 80.97 427.698 82.21C427.038 83.47 426.088 84.44 424.848 85.12C423.628 85.82 422.208 86.17 420.588 86.17H418.068L417.738 82.18H420.528C421.908 82.18 422.978 81.8 423.738 81.04C424.498 80.3 424.878 79.25 424.878 77.89V68.68H428.688V77.89ZM424.608 65.56V62.14H428.688V65.56H424.608Z" fill="white"/>
<path d="M428.018 236.31L425.348 240H420.938L425.798 233.13L421.088 226.5H425.528L428.018 229.95L430.478 226.5H434.888L430.238 233.13L435.098 240H430.628L428.018 236.31Z" fill="white"/>
<path d="M33.883 236.31L31.213 240H26.803L31.663 233.13L26.953 226.5H31.393L33.883 229.95L36.343 226.5H40.753L36.103 233.13L40.963 240H36.493L33.883 236.31ZM51.1579 217.32C50.8779 217.6 50.5079 217.94 50.0479 218.34C49.5879 218.74 49.0879 219.16 48.5479 219.6C48.0279 220.04 47.5079 220.46 46.9879 220.86C46.4879 221.24 46.0479 221.56 45.6679 221.82H42.6979V221.43C43.0179 221.05 43.3879 220.61 43.8079 220.11C44.2479 219.59 44.6779 219.06 45.0979 218.52C45.5179 217.96 45.8679 217.46 46.1479 217.02H51.1579V217.32Z" fill="white"/>
<path d="M384.018 218.68L382.488 223H378.198L384.798 204.64H389.208L395.808 223H391.578L389.988 218.68H384.018ZM389.478 215.53L387.018 208.9L384.528 215.53H389.478Z" fill="white"/>
<path d="M263.532 255.91C263.532 262.17 260.692 265.3 255.012 265.3C249.312 265.3 246.462 262.17 246.462 255.91C246.462 252.57 247.172 250.15 248.592 248.65C250.012 247.13 252.152 246.37 255.012 246.37C257.872 246.37 260.002 247.13 261.402 248.65C262.822 250.15 263.532 252.57 263.532 255.91ZM251.682 260.14C252.402 261.04 253.512 261.49 255.012 261.49C256.512 261.49 257.612 261.04 258.312 260.14C259.032 259.22 259.392 257.81 259.392 255.91C259.392 253.85 259.042 252.38 258.342 251.5C257.642 250.6 256.532 250.15 255.012 250.15C253.492 250.15 252.382 250.6 251.682 251.5C250.982 252.38 250.632 253.85 250.632 255.91C250.632 257.81 250.982 259.22 251.682 260.14Z" fill="white"/>
<path d="M122.585 349.57H118.445V355H114.335V336.64H122.675C124.675 336.64 126.175 337.24 127.175 338.44C128.195 339.64 128.705 341.22 128.705 343.18C128.705 344.42 128.455 345.53 127.955 346.51C127.455 347.47 126.745 348.22 125.825 348.76C124.905 349.3 123.825 349.57 122.585 349.57ZM123.905 340.96C123.445 340.46 122.765 340.21 121.865 340.21H118.445V346.03H121.715C122.635 346.03 123.345 345.78 123.845 345.28C124.345 344.76 124.595 344.06 124.595 343.18C124.595 342.2 124.365 341.46 123.905 340.96Z" fill="white"/>
<path d="M271.213 177.57C270.433 177.57 269.863 177.46 269.503 177.24V178.29V186H265.693V178.35C265.693 176.39 265.593 174.71 265.393 173.31C265.193 171.91 264.793 170.22 264.193 168.24L267.853 166.95L269.203 172.17C269.423 173.11 269.973 173.58 270.853 173.58C271.293 173.58 271.653 173.46 271.933 173.22C272.233 172.96 272.383 172.62 272.383 172.2C272.383 171.64 272.183 170.15 271.783 167.73L275.623 166.95C276.023 169.37 276.223 171.19 276.223 172.41C276.223 173.41 276.003 174.3 275.563 175.08C275.143 175.86 274.553 176.47 273.793 176.91C273.033 177.35 272.173 177.57 271.213 177.57ZM285.789 177.57C285.009 177.57 284.439 177.46 284.079 177.24V178.29V186H280.269V178.35C280.269 176.39 280.169 174.71 279.969 173.31C279.769 171.91 279.369 170.22 278.769 168.24L282.429 166.95L283.779 172.17C283.999 173.11 284.549 173.58 285.429 173.58C285.869 173.58 286.229 173.46 286.509 173.22C286.809 172.96 286.959 172.62 286.959 172.2C286.959 171.64 286.759 170.15 286.359 167.73L290.199 166.95C290.599 169.37 290.799 171.19 290.799 172.41C290.799 173.41 290.579 174.3 290.139 175.08C289.719 175.86 289.129 176.47 288.369 176.91C287.609 177.35 286.749 177.57 285.789 177.57ZM293.381 180.42C293.381 178.98 293.821 177.47 294.701 175.89C295.601 174.29 297.071 172.54 299.111 170.64L297.821 169.47L300.161 166.62C302.801 168.6 304.861 170.33 306.341 171.81C307.821 173.29 308.871 174.67 309.491 175.95C310.111 177.21 310.421 178.54 310.421 179.94C310.421 181.2 310.171 182.29 309.671 183.21C309.171 184.13 308.511 184.83 307.691 185.31C306.891 185.77 306.031 186 305.111 186C303.491 186 302.351 185.61 301.691 184.83C301.371 185.21 300.921 185.5 300.341 185.7C299.781 185.9 299.141 186 298.421 186C296.821 186 295.581 185.51 294.701 184.53C293.821 183.53 293.381 182.16 293.381 180.42ZM306.611 179.91C306.611 178.77 306.231 177.66 305.471 176.58C304.711 175.5 303.491 174.3 301.811 172.98C300.211 174.36 299.031 175.63 298.271 176.79C297.531 177.93 297.161 179.06 297.161 180.18C297.161 181.4 297.681 182.01 298.721 182.01C299.261 182.01 299.671 181.85 299.951 181.53C300.231 181.21 300.371 180.76 300.371 180.18V178.26H303.701V180.27C303.701 180.79 303.661 181.2 303.581 181.5C303.841 181.84 304.341 182.01 305.081 182.01C305.521 182.01 305.881 181.83 306.161 181.47C306.461 181.11 306.611 180.59 306.611 179.91ZM316.291 167.85C315.211 167.85 314.331 167.54 313.651 166.92C312.991 166.3 312.661 165.45 312.661 164.37C312.661 163.29 312.991 162.44 313.651 161.82C314.331 161.2 315.211 160.89 316.291 160.89C317.331 160.89 318.211 161.2 318.931 161.82C319.651 162.44 320.011 163.28 320.011 164.34C320.011 165.44 319.651 166.3 318.931 166.92C318.231 167.54 317.351 167.85 316.291 167.85ZM316.291 165.78C316.691 165.78 317.021 165.66 317.281 165.42C317.561 165.16 317.701 164.81 317.701 164.37C317.701 163.93 317.561 163.59 317.281 163.35C317.021 163.09 316.691 162.96 316.291 162.96C315.891 162.96 315.551 163.09 315.271 163.35C315.011 163.59 314.881 163.93 314.881 164.37C314.881 164.81 315.001 165.16 315.241 165.42C315.481 165.66 315.831 165.78 316.291 165.78Z" fill="white"/>
<path d="M202.5 262.5L204.735 251.171L193.807 254.9L202.5 262.5ZM272.094 233.874C270.934 219.87 264.576 209.868 255.934 203.849C247.312 197.845 236.478 195.847 226.405 197.709C216.326 199.573 206.961 205.314 201.33 214.844C195.694 224.381 193.871 237.588 198.63 254.251L200.553 253.702C195.909 237.444 197.754 224.826 203.052 215.861C208.354 206.888 217.189 201.448 226.769 199.676C236.356 197.903 246.64 199.814 254.791 205.49C262.92 211.152 268.988 220.599 270.101 234.039L272.094 233.874Z" fill="white"/>
</svg>
