<svg width="468" height="468" viewBox="0 0 468 468" fill="none" xmlns="http://www.w3.org/2000/svg">
<circle cx="234.5" cy="233" r="134" fill="#9000FF" fill-opacity="0.2" stroke="white" stroke-width="2"/>
<mask id="path-2-outside-1_2090_316" maskUnits="userSpaceOnUse" x="231.5" y="140" width="137" height="95" fill="black">
<rect fill="white" x="231.5" y="140" width="137" height="95"/>
<path d="M331.299 142.865C353.874 167.359 366.435 199.433 366.5 232.743L233.5 233L331.299 142.865Z"/>
</mask>
<path d="M331.299 142.865C353.874 167.359 366.435 199.433 366.5 232.743L233.5 233L331.299 142.865Z" fill="#1A7E7A" fill-opacity="0.6"/>
<path d="M331.299 142.865C353.874 167.359 366.435 199.433 366.5 232.743L233.5 233L331.299 142.865Z" stroke="white" stroke-width="4" stroke-linejoin="round" mask="url(#path-2-outside-1_2090_316)"/>
<path d="M233.5 59L227.726 69L239.273 69L233.5 59ZM234.5 408L234.5 68L232.5 68L232.5 408L234.5 408Z" fill="white"/>
<path d="M408 233.5L398 227.726V239.274L408 233.5ZM59 234.5L399 234.5V232.5L59 232.5V234.5Z" fill="white"/>
<path d="M229.316 441.45C228.336 442.49 227.086 443.01 225.566 443.01C224.926 443.01 224.386 442.97 223.946 442.89C223.526 442.83 223.106 442.7 222.686 442.5V439.53C223.166 439.73 223.706 439.83 224.306 439.83C224.966 439.83 225.496 439.66 225.896 439.32C226.296 438.98 226.696 438.44 227.096 437.7L221.396 424.5H225.716L229.106 433.5L232.586 424.5H236.816L231.926 436.92C231.166 438.92 230.296 440.43 229.316 441.45ZM246.714 415.32C246.434 415.6 246.064 415.94 245.604 416.34C245.144 416.74 244.644 417.16 244.104 417.6C243.584 418.04 243.064 418.46 242.544 418.86C242.044 419.24 241.604 419.56 241.224 419.82H238.254V419.43C238.574 419.05 238.944 418.61 239.364 418.11C239.804 417.59 240.234 417.06 240.654 416.52C241.074 415.96 241.424 415.46 241.704 415.02H246.714V415.32Z" fill="white"/>
<path d="M234.451 46.45C233.471 47.49 232.221 48.01 230.701 48.01C230.061 48.01 229.521 47.97 229.081 47.89C228.661 47.83 228.241 47.7 227.821 47.5V44.53C228.301 44.73 228.841 44.83 229.441 44.83C230.101 44.83 230.631 44.66 231.031 44.32C231.431 43.98 231.831 43.44 232.231 42.7L226.531 29.5H230.851L234.241 38.5L237.721 29.5H241.951L237.061 41.92C236.301 43.92 235.431 45.43 234.451 46.45Z" fill="white"/>
<path d="M428.018 236.31L425.348 240H420.938L425.798 233.13L421.088 226.5H425.528L428.018 229.95L430.478 226.5H434.888L430.238 233.13L435.098 240H430.628L428.018 236.31Z" fill="white"/>
<path d="M33.883 236.31L31.213 240H26.803L31.663 233.13L26.953 226.5H31.393L33.883 229.95L36.343 226.5H40.753L36.103 233.13L40.963 240H36.493L33.883 236.31ZM51.1579 217.32C50.8779 217.6 50.5079 217.94 50.0479 218.34C49.5879 218.74 49.0879 219.16 48.5479 219.6C48.0279 220.04 47.5079 220.46 46.9879 220.86C46.4879 221.24 46.0479 221.56 45.6679 221.82H42.6979V221.43C43.0179 221.05 43.3879 220.61 43.8079 220.11C44.2479 219.59 44.6779 219.06 45.0979 218.52C45.5179 217.96 45.8679 217.46 46.1479 217.02H51.1579V217.32Z" fill="white"/>
<path d="M225.532 249.91C225.532 256.17 222.692 259.3 217.012 259.3C211.312 259.3 208.462 256.17 208.462 249.91C208.462 246.57 209.172 244.15 210.592 242.65C212.012 241.13 214.152 240.37 217.012 240.37C219.872 240.37 222.002 241.13 223.402 242.65C224.822 244.15 225.532 246.57 225.532 249.91ZM213.682 254.14C214.402 255.04 215.512 255.49 217.012 255.49C218.512 255.49 219.612 255.04 220.312 254.14C221.032 253.22 221.392 251.81 221.392 249.91C221.392 247.85 221.042 246.38 220.342 245.5C219.642 244.6 218.532 244.15 217.012 244.15C215.492 244.15 214.382 244.6 213.682 245.5C212.982 246.38 212.632 247.85 212.632 249.91C212.632 251.81 212.982 253.22 213.682 254.14Z" fill="white"/>
<path d="M348.585 131.57H344.445V137H340.335V118.64H348.675C350.675 118.64 352.175 119.24 353.175 120.44C354.195 121.64 354.705 123.22 354.705 125.18C354.705 126.42 354.455 127.53 353.955 128.51C353.455 129.47 352.745 130.22 351.825 130.76C350.905 131.3 349.825 131.57 348.585 131.57ZM349.905 122.96C349.445 122.46 348.765 122.21 347.865 122.21H344.445V128.03H347.715C348.635 128.03 349.345 127.78 349.845 127.28C350.345 126.76 350.595 126.06 350.595 125.18C350.595 124.2 350.365 123.46 349.905 122.96Z" fill="white"/>
<path d="M351.262 263.53C350.422 263.77 349.472 263.89 348.412 263.89C346.952 263.89 345.882 263.48 345.202 262.66C344.522 261.84 344.162 260.67 344.122 259.15C339.682 258.57 337.462 255.49 337.462 249.91C337.462 246.57 338.172 244.15 339.592 242.65C341.012 241.13 343.152 240.37 346.012 240.37C348.872 240.37 351.002 241.13 352.402 242.65C353.822 244.15 354.532 246.57 354.532 249.91C354.532 255.65 352.182 258.75 347.482 259.21C347.522 259.93 347.682 260.44 347.962 260.74C348.242 261.06 348.702 261.22 349.342 261.22C349.982 261.22 350.622 261.12 351.262 260.92V263.53ZM342.682 254.14C343.402 255.04 344.512 255.49 346.012 255.49C347.512 255.49 348.612 255.04 349.312 254.14C350.032 253.22 350.392 251.81 350.392 249.91C350.392 247.85 350.042 246.38 349.342 245.5C348.642 244.6 347.532 244.15 346.012 244.15C344.492 244.15 343.382 244.6 342.682 245.5C341.982 246.38 341.632 247.85 341.632 249.91C341.632 251.81 341.982 253.22 342.682 254.14Z" fill="white"/>
<path d="M267.294 266.5C266.227 267 264.986 267.25 263.569 267.25C261.669 267.25 260.194 266.75 259.144 265.75C258.111 264.733 257.594 263.275 257.594 261.375C257.594 259.425 258.136 257.958 259.219 256.975C260.302 255.992 261.786 255.5 263.669 255.5C264.419 255.5 265.077 255.558 265.644 255.675C266.211 255.775 266.752 255.958 267.269 256.225V258.9C266.402 258.467 265.436 258.25 264.369 258.25C263.269 258.25 262.444 258.5 261.894 259C261.344 259.5 261.069 260.292 261.069 261.375C261.069 262.458 261.327 263.25 261.844 263.75C262.361 264.25 263.194 264.5 264.344 264.5C265.327 264.5 266.311 264.242 267.294 263.725V266.5ZM279.065 265.775C278.115 266.758 276.64 267.25 274.64 267.25C272.64 267.25 271.156 266.758 270.19 265.775C269.223 264.792 268.74 263.325 268.74 261.375C268.74 259.425 269.223 257.958 270.19 256.975C271.156 255.992 272.64 255.5 274.64 255.5C276.623 255.5 278.098 255.992 279.065 256.975C280.031 257.958 280.515 259.425 280.515 261.375C280.515 263.325 280.031 264.792 279.065 265.775ZM272.79 263.775C273.173 264.258 273.79 264.5 274.64 264.5C275.506 264.5 276.131 264.258 276.515 263.775C276.898 263.275 277.09 262.475 277.09 261.375C277.09 260.275 276.898 259.483 276.515 259C276.131 258.5 275.506 258.25 274.64 258.25C273.79 258.25 273.173 258.5 272.79 259C272.406 259.483 272.215 260.275 272.215 261.375C272.215 262.475 272.406 263.275 272.79 263.775ZM290.129 266.375C289.312 266.958 288.121 267.25 286.554 267.25C285.737 267.25 284.954 267.183 284.204 267.05C283.471 266.933 282.879 266.775 282.429 266.575V264.125C282.912 264.358 283.487 264.542 284.154 264.675C284.821 264.808 285.404 264.875 285.904 264.875C286.604 264.875 287.121 264.792 287.454 264.625C287.787 264.458 287.954 264.175 287.954 263.775C287.954 263.425 287.812 263.167 287.529 263C287.246 262.817 286.762 262.625 286.079 262.425L285.229 262.125C284.512 261.858 283.946 261.6 283.529 261.35C283.129 261.1 282.812 260.775 282.579 260.375C282.346 259.975 282.229 259.467 282.229 258.85C282.229 256.617 283.837 255.5 287.054 255.5C287.704 255.5 288.379 255.55 289.079 255.65C289.779 255.733 290.329 255.842 290.729 255.975V258.4C289.796 258.05 288.854 257.875 287.904 257.875C287.204 257.875 286.662 257.95 286.279 258.1C285.896 258.25 285.704 258.517 285.704 258.9C285.704 259.233 285.829 259.475 286.079 259.625C286.329 259.775 286.821 259.958 287.554 260.175L288.179 260.375C289.379 260.758 290.212 261.183 290.679 261.65C291.146 262.117 291.379 262.825 291.379 263.775C291.379 264.925 290.962 265.792 290.129 266.375Z" fill="white"/>
<path d="M397.618 191.375C396.801 191.958 395.61 192.25 394.043 192.25C393.226 192.25 392.443 192.183 391.693 192.05C390.96 191.933 390.368 191.775 389.918 191.575V189.125C390.401 189.358 390.976 189.542 391.643 189.675C392.31 189.808 392.893 189.875 393.393 189.875C394.093 189.875 394.61 189.792 394.943 189.625C395.276 189.458 395.443 189.175 395.443 188.775C395.443 188.425 395.301 188.167 395.018 188C394.735 187.817 394.251 187.625 393.568 187.425L392.718 187.125C392.001 186.858 391.435 186.6 391.018 186.35C390.618 186.1 390.301 185.775 390.068 185.375C389.835 184.975 389.718 184.467 389.718 183.85C389.718 181.617 391.326 180.5 394.543 180.5C395.193 180.5 395.868 180.55 396.568 180.65C397.268 180.733 397.818 180.842 398.218 180.975V183.4C397.285 183.05 396.343 182.875 395.393 182.875C394.693 182.875 394.151 182.95 393.768 183.1C393.385 183.25 393.193 183.517 393.193 183.9C393.193 184.233 393.318 184.475 393.568 184.625C393.818 184.775 394.31 184.958 395.043 185.175L395.668 185.375C396.868 185.758 397.701 186.183 398.168 186.65C398.635 187.117 398.868 187.825 398.868 188.775C398.868 189.925 398.451 190.792 397.618 191.375ZM405.377 176.1V178.925H401.677V176.1H405.377ZM405.377 180.75V192H401.977V183.5H400.377L400.627 180.75H405.377ZM412.417 183.575C412.017 183.758 411.675 184 411.392 184.3V192H407.967V180.75H411.142L411.267 181.7C412.367 180.9 413.7 180.5 415.267 180.5C416.534 180.5 417.45 180.833 418.017 181.5C418.6 182.167 418.892 183.217 418.892 184.65V192H415.517V185.1C415.517 184.45 415.375 183.992 415.092 183.725C414.825 183.442 414.35 183.3 413.667 183.3C413.25 183.3 412.834 183.392 412.417 183.575Z" fill="white"/>
<path d="M378.034 191.185C378.526 189.567 379.238 188.193 380.168 187.061C379.238 185.848 378.526 184.433 378.034 182.815C377.568 181.198 377.254 179.015 377.09 176.265C376.925 173.516 376.843 169.675 376.843 164.742C376.843 160.86 376.889 157.878 376.889 155.841C376.889 153.803 376.187 147.844 375.667 147.116C375.147 146.307 374.162 146.493 373.149 146.493C372.137 146.493 372 146.493 372 146.493V144H373.519C374.914 144 376.009 144.606 376.802 145.819C377.596 147.032 378.17 149.054 378.526 151.884C378.882 154.715 379.073 158.717 379.101 163.893C379.128 168.906 379.238 172.748 379.429 175.416C379.621 178.085 379.99 180.066 380.537 181.36C381.085 182.653 381.905 183.462 383 183.786V190.214C381.905 190.619 381.085 191.468 380.537 192.762C379.99 193.975 379.621 195.915 379.429 198.584C379.238 201.252 379.128 205.094 379.101 210.107C379.073 215.283 378.882 219.285 378.526 222.116C378.17 224.946 377.596 226.968 376.802 228.181C376.009 229.394 374.914 230 373.519 230H372V227.507H374.444C377.5 225.638 376.802 222.522 376.802 222.522C377.322 221.713 377.09 220.029 377.09 218.159C377.308 216.138 376.843 213.14 376.843 209.258C376.843 204.325 376.925 200.484 377.09 197.735C377.254 194.985 377.568 192.802 378.034 191.185Z" fill="#6FD3A1" fill-opacity="0.75"/>
<path d="M277.01 244.034C278.552 244.526 279.863 245.238 280.942 246.168C282.099 245.238 283.448 244.526 284.99 244.034C286.532 243.568 288.614 243.254 291.236 243.09C293.857 242.925 297.52 242.843 302.223 242.843C305.924 242.843 308.767 242.889 310.71 242.889C312.653 242.889 318.335 242.187 319.029 241.667C319.8 241.147 319.623 240.162 319.623 239.149C319.623 238.137 319.623 238 319.623 238H322V239.519C322 240.914 321.422 242.009 320.265 242.802C319.109 243.596 317.181 244.17 314.482 244.526C311.784 244.882 307.967 245.073 303.032 245.101C298.252 245.128 294.59 245.238 292.045 245.429C289.501 245.621 287.612 245.99 286.378 246.537C285.144 247.085 284.373 247.905 284.065 249H277.935C277.55 247.905 276.74 247.085 275.506 246.537C274.35 245.99 272.499 245.621 269.955 245.429C267.41 245.238 263.748 245.128 258.968 245.101C254.033 245.073 250.216 244.882 247.518 244.526C244.819 244.17 242.891 243.596 241.735 242.802C240.578 242.009 240 240.914 240 239.519V238H242.377V240.444C244.159 243.5 247.13 242.802 247.13 242.802C247.901 243.322 249.507 243.09 251.29 243.09C253.217 243.308 256.076 242.843 259.777 242.843C264.48 242.843 268.143 242.925 270.764 243.09C273.386 243.254 275.468 243.568 277.01 244.034Z" fill="#6FD3A1" fill-opacity="0.75"/>
<path fill-rule="evenodd" clip-rule="evenodd" d="M297.014 219C302.338 219 305 215.197 305 207.591C305 203.533 304.335 200.593 303.004 198.77C301.691 196.923 299.695 196 297.014 196C294.333 196 292.327 196.923 290.996 198.77C289.665 200.593 289 203.533 289 207.591C289 215.197 291.671 219 297.014 219ZM297.014 214.371C295.608 214.371 294.568 213.824 293.893 212.731C293.369 211.838 293.054 210.566 292.949 208.915H301.078C300.97 210.566 300.646 211.838 300.107 212.731C299.451 213.824 298.42 214.371 297.014 214.371ZM301.004 205.27H293.024C293.172 203.948 293.462 202.936 293.893 202.233C294.549 201.139 295.589 200.593 297.014 200.593C298.439 200.593 299.479 201.139 300.135 202.233C300.567 202.936 300.856 203.948 301.004 205.27Z" fill="white"/>
<path fill-rule="evenodd" clip-rule="evenodd" d="M299.009 267C302.336 267 304 264.354 304 259.063C304 256.24 303.584 254.195 302.752 252.927C301.932 251.642 300.684 251 299.009 251C297.333 251 296.08 251.642 295.248 252.927C294.416 254.195 294 256.24 294 259.063C294 264.354 295.67 267 299.009 267ZM299.009 263.78C298.13 263.78 297.48 263.399 297.058 262.639C296.731 262.018 296.534 261.133 296.468 259.985H301.549C301.481 261.133 301.279 262.018 300.942 262.639C300.532 263.399 299.888 263.78 299.009 263.78ZM301.502 257.449H296.515C296.608 256.529 296.788 255.825 297.058 255.336C297.468 254.575 298.118 254.195 299.009 254.195C299.899 254.195 300.549 254.575 300.96 255.336C301.229 255.825 301.41 256.529 301.502 257.449Z" fill="white"/>
<path fill-rule="evenodd" clip-rule="evenodd" d="M427.009 192C430.336 192 432 189.354 432 184.063C432 181.24 431.584 179.195 430.752 177.927C429.932 176.642 428.684 176 427.009 176C425.333 176 424.08 176.642 423.248 177.927C422.416 179.195 422 181.24 422 184.063C422 189.354 423.67 192 427.009 192ZM427.009 188.78C426.13 188.78 425.48 188.399 425.058 187.639C424.731 187.018 424.534 186.133 424.468 184.985H429.549C429.481 186.133 429.279 187.018 428.942 187.639C428.532 188.399 427.888 188.78 427.009 188.78ZM429.502 182.449H424.515C424.608 181.529 424.788 180.825 425.058 180.336C425.468 179.575 426.118 179.195 427.009 179.195C427.899 179.195 428.549 179.575 428.96 180.336C429.229 180.825 429.41 181.529 429.502 182.449Z" fill="white"/>
<path d="M261.998 207.5L272.213 212.885L271.769 201.346L261.998 207.5ZM286.941 232.501C287.375 232.476 287.622 232.746 287.685 232.826C287.748 232.908 287.759 232.96 287.742 232.912C287.712 232.829 287.668 232.65 287.614 232.335C287.506 231.718 287.399 230.832 287.244 229.686C286.939 227.435 286.471 224.349 285.525 221.157C283.643 214.813 279.763 207.725 271.17 206.17L270.814 208.138C278.262 209.486 281.792 215.605 283.607 221.725C284.509 224.765 284.961 227.726 285.262 229.954C285.41 231.049 285.527 232.011 285.643 232.678C285.7 233.005 285.767 233.327 285.858 233.582C285.901 233.703 285.974 233.884 286.104 234.051C286.232 234.216 286.548 234.528 287.057 234.498L286.941 232.501Z" fill="white"/>
<path d="M331 134.667C328.054 134.667 325.667 137.054 325.667 140C325.667 142.946 328.054 145.333 331 145.333C333.946 145.333 336.333 142.946 336.333 140C336.333 137.054 333.946 134.667 331 134.667ZM331 227.667C328.054 227.667 325.667 230.054 325.667 233C325.667 235.946 328.054 238.333 331 238.333C333.946 238.333 336.333 235.946 336.333 233C336.333 230.054 333.946 227.667 331 227.667ZM330 140L330 141.938L332 141.938L332 140L330 140ZM330 145.812L330 149.687L332 149.687L332 145.813L330 145.812ZM330 153.562L330 157.437L332 157.438L332 153.562L330 153.562ZM330 161.313L330 165.188L332 165.188L332 161.313L330 161.313ZM330 169.062L330 172.937L332 172.937L332 169.063L330 169.062ZM330 176.813L330 180.687L332 180.688L332 176.813L330 176.813ZM330 184.562L330 188.437L332 188.437L332 184.562L330 184.562ZM330 192.312L330 196.188L332 196.188L332 192.313L330 192.312ZM330 200.062L330 203.937L332 203.938L332 200.062L330 200.062ZM330 207.813L330 211.687L332 211.687L332 207.813L330 207.813ZM330 215.562L330 219.438L332 219.438L332 215.563L330 215.562ZM330 223.312L330 227.187L332 227.188L332 223.312L330 223.312ZM330 231.063L330 233L332 233L332 231.063L330 231.063Z" fill="#6FD3A1"/>
<mask id="path-21-inside-2_2090_316" fill="white">
<path d="M313 214H332V234H313V214Z"/>
</mask>
<path d="M313 214V212H311V214H313ZM313 216H332V212H313V216ZM315 234V214H311V234H315Z" fill="white" mask="url(#path-21-inside-2_2090_316)"/>
</svg>
