<svg width="468" height="468" viewBox="0 0 468 468" fill="none" xmlns="http://www.w3.org/2000/svg">
<circle cx="234.5" cy="233" r="134" fill="#9000FF" fill-opacity="0.2" stroke="white" stroke-width="2"/>
<mask id="path-2-outside-1_2093_529" maskUnits="userSpaceOnUse" x="128.531" y="97.9995" width="242" height="138" fill="black">
<rect fill="white" x="128.531" y="97.9995" width="242" height="138"/>
<path d="M131.668 148.69C149.024 127.515 172.491 112.212 198.868 104.87C225.244 97.5286 253.244 98.5062 279.044 107.669C304.844 116.833 327.188 133.735 343.024 156.069C358.861 178.403 367.419 205.081 367.53 232.46L234.531 233L131.668 148.69Z"/>
</mask>
<path d="M131.668 148.69C149.024 127.515 172.491 112.212 198.868 104.87C225.244 97.5286 253.244 98.5062 279.044 107.669C304.844 116.833 327.188 133.735 343.024 156.069C358.861 178.403 367.419 205.081 367.53 232.46L234.531 233L131.668 148.69Z" fill="#1A7E7A" fill-opacity="0.6"/>
<path d="M131.668 148.69C149.024 127.515 172.491 112.212 198.868 104.87C225.244 97.5286 253.244 98.5062 279.044 107.669C304.844 116.833 327.188 133.735 343.024 156.069C358.861 178.403 367.419 205.081 367.53 232.46L234.531 233L131.668 148.69Z" stroke="white" stroke-width="4" mask="url(#path-2-outside-1_2093_529)"/>
<path d="M233.5 58.9995L227.726 68.9995L239.273 68.9995L233.5 58.9995ZM234.5 408L234.5 67.9995L232.5 67.9995L232.5 408L234.5 408Z" fill="white"/>
<path d="M408 233.5L398 227.726V239.273L408 233.5ZM59 234.5L399 234.5V232.5L59 232.5V234.5Z" fill="white"/>
<path d="M229.316 441.45C228.336 442.49 227.086 443.01 225.566 443.01C224.926 443.01 224.386 442.97 223.946 442.89C223.526 442.83 223.106 442.7 222.686 442.5V439.53C223.166 439.73 223.706 439.83 224.306 439.83C224.966 439.83 225.496 439.66 225.896 439.32C226.296 438.98 226.696 438.44 227.096 437.7L221.396 424.5H225.716L229.106 433.5L232.586 424.5H236.816L231.926 436.92C231.166 438.92 230.296 440.43 229.316 441.45ZM246.714 415.32C246.434 415.6 246.064 415.94 245.604 416.34C245.144 416.74 244.644 417.16 244.104 417.6C243.584 418.04 243.064 418.46 242.544 418.86C242.044 419.24 241.604 419.56 241.224 419.82H238.254V419.43C238.574 419.05 238.944 418.61 239.364 418.11C239.804 417.59 240.234 417.06 240.654 416.52C241.074 415.96 241.424 415.46 241.704 415.02H246.714V415.32Z" fill="white"/>
<path d="M234.451 46.45C233.471 47.49 232.221 48.01 230.701 48.01C230.061 48.01 229.521 47.97 229.081 47.89C228.661 47.83 228.241 47.7 227.821 47.5V44.53C228.301 44.73 228.841 44.83 229.441 44.83C230.101 44.83 230.631 44.66 231.031 44.32C231.431 43.98 231.831 43.44 232.231 42.7L226.531 29.5H230.851L234.241 38.5L237.721 29.5H241.951L237.061 41.92C236.301 43.92 235.431 45.43 234.451 46.45Z" fill="white"/>
<path d="M262.532 255.91C262.532 262.17 259.692 265.3 254.012 265.3C248.312 265.3 245.462 262.17 245.462 255.91C245.462 252.57 246.172 250.15 247.592 248.65C249.012 247.13 251.152 246.37 254.012 246.37C256.872 246.37 259.002 247.13 260.402 248.65C261.822 250.15 262.532 252.57 262.532 255.91ZM250.682 260.14C251.402 261.04 252.512 261.49 254.012 261.49C255.512 261.49 256.612 261.04 257.312 260.14C258.032 259.22 258.392 257.81 258.392 255.91C258.392 253.85 258.042 252.38 257.342 251.5C256.642 250.6 255.532 250.15 254.012 250.15C252.492 250.15 251.382 250.6 250.682 251.5C249.982 252.38 249.632 253.85 249.632 255.91C249.632 257.81 249.982 259.22 250.682 260.14Z" fill="white"/>
<path d="M428.018 236.31L425.348 240H420.938L425.798 233.13L421.088 226.5H425.528L428.018 229.95L430.478 226.5H434.888L430.238 233.13L435.098 240H430.628L428.018 236.31Z" fill="white"/>
<path d="M33.883 236.31L31.213 240H26.803L31.663 233.13L26.953 226.5H31.393L33.883 229.95L36.343 226.5H40.753L36.103 233.13L40.963 240H36.493L33.883 236.31ZM51.1579 217.32C50.8779 217.6 50.5079 217.94 50.0479 218.34C49.5879 218.74 49.0879 219.16 48.5479 219.6C48.0279 220.04 47.5079 220.46 46.9879 220.86C46.4879 221.24 46.0479 221.56 45.6679 221.82H42.6979V221.43C43.0179 221.05 43.3879 220.61 43.8079 220.11C44.2479 219.59 44.6779 219.06 45.0979 218.52C45.5179 217.96 45.8679 217.46 46.1479 217.02H51.1579V217.32Z" fill="white"/>
<path d="M52.4 131.57H48.26V137H44.15V118.64H52.49C54.49 118.64 55.99 119.24 56.99 120.44C58.01 121.64 58.52 123.22 58.52 125.18C58.52 126.42 58.27 127.53 57.77 128.51C57.27 129.47 56.56 130.22 55.64 130.76C54.72 131.3 53.64 131.57 52.4 131.57ZM53.72 122.96C53.26 122.46 52.58 122.21 51.68 122.21H48.26V128.03H51.53C52.45 128.03 53.16 127.78 53.66 127.28C54.16 126.76 54.41 126.06 54.41 125.18C54.41 124.2 54.18 123.46 53.72 122.96ZM64.5608 127.34C64.5608 129.28 64.7908 130.87 65.2508 132.11C65.7308 133.35 66.6208 134.62 67.9208 135.92L65.6408 138.05C63.8808 136.57 62.6208 134.99 61.8608 133.31C61.1208 131.63 60.7508 129.64 60.7508 127.34C60.7508 125.04 61.1208 123.05 61.8608 121.37C62.6208 119.69 63.8808 118.11 65.6408 116.63L67.9208 118.76C66.6208 120.04 65.7308 121.31 65.2508 122.57C64.7908 123.81 64.5608 125.4 64.5608 127.34ZM77.5529 133.31L74.8829 137H70.4729L75.3329 130.13L70.6229 123.5H75.0629L77.5529 126.95L80.0129 123.5H84.4229L79.7729 130.13L84.6329 137H80.1629L77.5529 133.31ZM90.8078 134.39L89.3978 140.42H86.5178L87.3578 134.39H90.8078ZM100.81 140.45C99.8297 141.49 98.5797 142.01 97.0597 142.01C96.4197 142.01 95.8797 141.97 95.4397 141.89C95.0197 141.83 94.5997 141.7 94.1797 141.5V138.53C94.6597 138.73 95.1997 138.83 95.7997 138.83C96.4597 138.83 96.9897 138.66 97.3897 138.32C97.7897 137.98 98.1897 137.44 98.5897 136.7L92.8897 123.5H97.2097L100.6 132.5L104.08 123.5H108.31L103.42 135.92C102.66 137.92 101.79 139.43 100.81 140.45ZM113.888 127.34C113.888 125.4 113.648 123.81 113.168 122.57C112.708 121.31 111.838 120.04 110.558 118.76L112.838 116.63C114.578 118.11 115.828 119.69 116.588 121.37C117.348 123.05 117.728 125.04 117.728 127.34C117.728 129.64 117.348 131.63 116.588 133.31C115.828 134.99 114.578 136.57 112.838 138.05L110.558 135.92C111.838 134.62 112.708 133.35 113.168 132.11C113.648 130.87 113.888 129.28 113.888 127.34Z" fill="white"/>
<path d="M203 208L214.171 205.078L206.055 196.864L203 208ZM269.99 234.139C272.145 218.819 264.382 204.197 252.327 196.563C240.215 188.894 223.791 188.285 208.76 200.907L210.046 202.439C224.398 190.387 239.868 191.041 251.257 198.253C262.702 205.501 270.046 219.38 268.01 233.861L269.99 234.139Z" fill="white"/>
<path fill-rule="evenodd" clip-rule="evenodd" d="M270.515 198C276.172 198 279 193.536 279 184.607C279 179.843 278.293 176.391 276.879 174.252C275.484 172.084 273.363 171 270.515 171C267.667 171 265.535 172.084 264.121 174.252C262.707 176.391 262 179.843 262 184.607C262 193.536 264.838 198 270.515 198ZM270.515 192.566C269.021 192.566 267.916 191.924 267.199 190.64C266.642 189.593 266.308 188.1 266.195 186.161H274.833C274.718 188.1 274.374 189.593 273.801 190.64C273.104 191.924 272.009 192.566 270.515 192.566ZM274.754 181.883H266.276C266.433 180.33 266.74 179.142 267.199 178.317C267.896 177.033 269.001 176.391 270.515 176.391C272.029 176.391 273.134 177.033 273.831 178.317C274.289 179.142 274.597 180.33 274.754 181.883Z" fill="white"/>
<line x1="130" y1="149" x2="130" y2="234" stroke="white" stroke-width="2" stroke-dasharray="2 2"/>
<mask id="path-14-outside-2_2093_529" maskUnits="userSpaceOnUse" x="129" y="213" width="18" height="20" fill="black">
<rect fill="white" x="129" y="213" width="18" height="20"/>
<path d="M129 215H145V233H129V215Z"/>
</mask>
<path d="M145 215H147V213H145V215ZM129 217H145V213H129V217ZM143 215V233H147V215H143Z" fill="white" mask="url(#path-14-outside-2_2093_529)"/>
<circle cx="130" cy="149" r="8" fill="#5FBE92" stroke="white" stroke-width="2"/>
</svg>
