<svg width="468" height="468" viewBox="0 0 468 468" fill="none" xmlns="http://www.w3.org/2000/svg">
<circle cx="234.5" cy="233" r="134" fill="#9000FF" fill-opacity="0.2" stroke="white" stroke-width="2"/>
<path d="M234.5 100C251.966 100 269.261 103.44 285.397 110.124C301.533 116.808 316.195 126.605 328.545 138.955C340.895 151.305 350.692 165.967 357.376 182.103C364.06 198.239 367.5 215.534 367.5 233H234.5L234.5 100Z" fill="#1A7E7A" fill-opacity="0.6"/>
<path d="M233.5 59L227.726 69L239.273 69L233.5 59ZM234.5 408L234.5 68L232.5 68L232.5 408L234.5 408Z" fill="white"/>
<path d="M408 233.5L398 227.726V239.274L408 233.5ZM59 234.5L399 234.5V232.5L59 232.5V234.5Z" fill="white"/>
<path d="M229.316 441.45C228.336 442.49 227.086 443.01 225.566 443.01C224.926 443.01 224.386 442.97 223.946 442.89C223.526 442.83 223.106 442.7 222.686 442.5V439.53C223.166 439.73 223.706 439.83 224.306 439.83C224.966 439.83 225.496 439.66 225.896 439.32C226.296 438.98 226.696 438.44 227.096 437.7L221.396 424.5H225.716L229.106 433.5L232.586 424.5H236.816L231.926 436.92C231.166 438.92 230.296 440.43 229.316 441.45ZM246.714 415.32C246.434 415.6 246.064 415.94 245.604 416.34C245.144 416.74 244.644 417.16 244.104 417.6C243.584 418.04 243.064 418.46 242.544 418.86C242.044 419.24 241.604 419.56 241.224 419.82H238.254V419.43C238.574 419.05 238.944 418.61 239.364 418.11C239.804 417.59 240.234 417.06 240.654 416.52C241.074 415.96 241.424 415.46 241.704 415.02H246.714V415.32Z" fill="white"/>
<path d="M234.451 46.45C233.471 47.49 232.221 48.01 230.701 48.01C230.061 48.01 229.521 47.97 229.081 47.89C228.661 47.83 228.241 47.7 227.821 47.5V44.53C228.301 44.73 228.841 44.83 229.441 44.83C230.101 44.83 230.631 44.66 231.031 44.32C231.431 43.98 231.831 43.44 232.231 42.7L226.531 29.5H230.851L234.241 38.5L237.721 29.5H241.951L237.061 41.92C236.301 43.92 235.431 45.43 234.451 46.45Z" fill="white"/>
<path d="M320.729 75.01C321.229 75.01 321.629 74.88 321.929 74.62C322.249 74.34 322.409 73.97 322.409 73.51V68.68H326.219V73.36C326.219 74.46 326.779 75.01 327.899 75.01H329.039C329.239 75.01 329.339 75.7 329.339 77.08C329.339 78.36 329.239 79 329.039 79H327.719C326.039 79 324.899 78.52 324.299 77.56C323.939 78.06 323.459 78.43 322.859 78.67C322.279 78.89 321.569 79 320.729 79H310.889C309.089 79 307.709 78.53 306.749 77.59C305.789 76.63 305.309 75.26 305.309 73.48V68.68H309.119V72.97C309.119 73.65 309.269 74.16 309.569 74.5C309.889 74.84 310.389 75.01 311.069 75.01H320.729ZM320.009 63.19V66.61H311.549V63.19H320.009ZM331.931 75.01C332.431 75.01 332.831 74.88 333.131 74.62C333.451 74.34 333.611 73.96 333.611 73.48V68.68H337.421V73.36C337.421 74.46 337.981 75.01 339.101 75.01H340.241C340.441 75.01 340.541 75.68 340.541 77.02C340.541 78.34 340.441 79 340.241 79H338.921C337.241 79 336.101 78.52 335.501 77.56C335.141 78.06 334.661 78.43 334.061 78.67C333.481 78.89 332.771 79 331.931 79H328.451C328.251 79 328.151 78.36 328.151 77.08C328.151 75.7 328.251 75.01 328.451 75.01H331.931ZM328.481 85.54V82.12H332.561V85.54H328.481ZM343.108 75.01C343.608 75.01 344.008 74.88 344.308 74.62C344.628 74.34 344.788 73.96 344.788 73.48V68.68H348.598V73.36C348.598 74.46 349.158 75.01 350.278 75.01H351.418C351.618 75.01 351.718 75.68 351.718 77.02C351.718 78.34 351.618 79 351.418 79H350.098C348.418 79 347.278 78.52 346.678 77.56C346.318 78.06 345.838 78.43 345.238 78.67C344.658 78.89 343.948 79 343.108 79H339.628C339.428 79 339.328 78.36 339.328 77.08C339.328 75.7 339.428 75.01 339.628 75.01H343.108ZM347.038 57.43V60.7H343.438V57.43H347.038ZM349.468 62.14V65.56H341.008V62.14H349.468ZM351.585 75.01C352.145 75.01 352.535 74.9 352.755 74.68C352.995 74.46 353.115 74.1 353.115 73.6V72.76C353.115 70.82 353.665 69.29 354.765 68.17C355.885 67.03 357.395 66.46 359.295 66.46C361.195 66.46 362.645 67.01 363.645 68.11C364.665 69.19 365.175 70.75 365.175 72.79C365.175 74.75 364.645 76.28 363.585 77.38C362.525 78.46 361.045 79 359.145 79C358.145 79 357.315 78.88 356.655 78.64C355.995 78.38 355.505 78.02 355.185 77.56C354.805 78.06 354.325 78.43 353.745 78.67C353.185 78.89 352.465 79 351.585 79H350.805C350.605 79 350.505 78.36 350.505 77.08C350.505 75.7 350.605 75.01 350.805 75.01H351.585ZM361.395 72.79C361.395 71.11 360.645 70.27 359.145 70.27C357.645 70.27 356.895 71.11 356.895 72.79C356.895 73.51 357.075 74.07 357.435 74.47C357.815 74.85 358.385 75.04 359.145 75.04C359.905 75.04 360.465 74.86 360.825 74.5C361.205 74.12 361.395 73.55 361.395 72.79ZM386.523 72.94C386.523 73.66 386.653 74.19 386.913 74.53C387.173 74.85 387.563 75.01 388.083 75.01H389.013C389.113 75.01 389.183 75.14 389.223 75.4C389.283 75.66 389.313 76.22 389.313 77.08C389.313 77.88 389.283 78.4 389.223 78.64C389.183 78.88 389.113 79 389.013 79H388.053C386.973 79 386.073 78.82 385.353 78.46C384.653 78.08 384.163 77.47 383.883 76.63C383.463 76.99 382.913 77.26 382.233 77.44C381.573 77.6 380.883 77.68 380.163 77.68C378.363 77.68 376.983 77.19 376.023 76.21C375.083 75.21 374.613 73.73 374.613 71.77C374.613 70.65 374.863 69.61 375.363 68.65C375.883 67.67 376.603 66.89 377.523 66.31C378.463 65.71 379.533 65.41 380.733 65.41H382.713V63.46H386.523V72.94ZM378.393 71.74C378.393 72.4 378.543 72.9 378.843 73.24C379.163 73.56 379.673 73.72 380.373 73.72C381.133 73.72 381.713 73.59 382.113 73.33C382.533 73.05 382.743 72.66 382.743 72.16V69.22H380.793C379.193 69.22 378.393 70.06 378.393 71.74ZM396.84 73.66C396.84 75.32 396.34 76.63 395.34 77.59C394.36 78.53 393.03 79 391.35 79H388.41C388.21 79 388.11 78.36 388.11 77.08C388.11 75.7 388.21 75.01 388.41 75.01H391.35C391.85 75.01 392.25 74.88 392.55 74.62C392.87 74.34 393.03 73.96 393.03 73.48V68.68H396.84V73.66ZM395.04 82.12V85.54H386.58V82.12H395.04ZM412.219 77.74C412.219 80.36 411.519 82.42 410.119 83.92C408.739 85.42 406.839 86.17 404.419 86.17H400.309L399.979 82.18H404.659C405.839 82.18 406.759 81.89 407.419 81.31C408.079 80.75 408.409 79.98 408.409 79H406.309C404.149 79 402.599 78.55 401.659 77.65C400.739 76.75 400.279 75.32 400.279 73.36C400.279 72.08 400.529 70.94 401.029 69.94C401.529 68.94 402.229 68.16 403.129 67.6C404.049 67.04 405.109 66.76 406.309 66.76C408.149 66.76 409.589 67.36 410.629 68.56C411.689 69.76 412.219 71.42 412.219 73.54V77.74ZM404.059 73.21C404.059 73.85 404.229 74.32 404.569 74.62C404.929 74.9 405.559 75.04 406.459 75.04H408.409V73.48C408.409 72.52 408.219 71.79 407.839 71.29C407.459 70.79 406.909 70.54 406.189 70.54C405.509 70.54 404.979 70.79 404.599 71.29C404.239 71.77 404.059 72.41 404.059 73.21ZM415.915 59.68H419.755V79H415.915V59.68ZM428.688 77.89C428.688 79.53 428.358 80.97 427.698 82.21C427.038 83.47 426.088 84.44 424.848 85.12C423.628 85.82 422.208 86.17 420.588 86.17H418.068L417.738 82.18H420.528C421.908 82.18 422.978 81.8 423.738 81.04C424.498 80.3 424.878 79.25 424.878 77.89V68.68H428.688V77.89ZM424.608 65.56V62.14H428.688V65.56H424.608Z" fill="white"/>
<path d="M428.018 236.31L425.348 240H420.938L425.798 233.13L421.088 226.5H425.528L428.018 229.95L430.478 226.5H434.888L430.238 233.13L435.098 240H430.628L428.018 236.31Z" fill="white"/>
<path d="M33.883 236.31L31.213 240H26.803L31.663 233.13L26.953 226.5H31.393L33.883 229.95L36.343 226.5H40.753L36.103 233.13L40.963 240H36.493L33.883 236.31ZM51.1579 217.32C50.8779 217.6 50.5079 217.94 50.0479 218.34C49.5879 218.74 49.0879 219.16 48.5479 219.6C48.0279 220.04 47.5079 220.46 46.9879 220.86C46.4879 221.24 46.0479 221.56 45.6679 221.82H42.6979V221.43C43.0179 221.05 43.3879 220.61 43.8079 220.11C44.2479 219.59 44.6779 219.06 45.0979 218.52C45.5179 217.96 45.8679 217.46 46.1479 217.02H51.1579V217.32Z" fill="white"/>
<path d="M226.532 264.91C226.532 271.17 223.692 274.3 218.012 274.3C212.312 274.3 209.462 271.17 209.462 264.91C209.462 261.57 210.172 259.15 211.592 257.65C213.012 256.13 215.152 255.37 218.012 255.37C220.872 255.37 223.002 256.13 224.402 257.65C225.822 259.15 226.532 261.57 226.532 264.91ZM214.682 269.14C215.402 270.04 216.512 270.49 218.012 270.49C219.512 270.49 220.612 270.04 221.312 269.14C222.032 268.22 222.392 266.81 222.392 264.91C222.392 262.85 222.042 261.38 221.342 260.5C220.642 259.6 219.532 259.15 218.012 259.15C216.492 259.15 215.382 259.6 214.682 260.5C213.982 261.38 213.632 262.85 213.632 264.91C213.632 266.81 213.982 268.22 214.682 269.14Z" fill="white"/>
<path d="M384.018 218.68L382.488 223H378.198L384.798 204.64H389.208L395.808 223H391.578L389.988 218.68H384.018ZM389.478 215.53L387.018 208.9L384.528 215.53H389.478Z" fill="white"/>
<path d="M256.585 391.57H252.445V397H248.335V378.64H256.675C258.675 378.64 260.175 379.24 261.175 380.44C262.195 381.64 262.705 383.22 262.705 385.18C262.705 386.42 262.455 387.53 261.955 388.51C261.455 389.47 260.745 390.22 259.825 390.76C258.905 391.3 257.825 391.57 256.585 391.57ZM257.905 382.96C257.445 382.46 256.765 382.21 255.865 382.21H252.445V388.03H255.715C256.635 388.03 257.345 387.78 257.845 387.28C258.345 386.76 258.595 386.06 258.595 385.18C258.595 384.2 258.365 383.46 257.905 382.96Z" fill="white"/>
<path d="M274.963 196.65C274.203 196.91 273.253 197.04 272.113 197.04C270.453 197.04 269.163 196.57 268.243 195.63C267.323 194.69 266.863 193.4 266.863 191.76C266.863 190.6 267.113 189.5 267.613 188.46C268.133 187.4 268.853 186.55 269.773 185.91C270.693 185.27 271.733 184.95 272.893 184.95C274.793 184.95 276.253 185.66 277.273 187.08C278.293 188.5 278.803 190.55 278.803 193.23V204H274.963V196.65ZM274.993 192.69C274.993 191.35 274.813 190.36 274.453 189.72C274.093 189.08 273.523 188.76 272.743 188.76C272.123 188.76 271.613 189.01 271.213 189.51C270.833 190.01 270.643 190.65 270.643 191.43C270.643 191.97 270.813 192.39 271.153 192.69C271.493 192.97 271.983 193.11 272.623 193.11C273.623 193.11 274.413 192.97 274.993 192.69ZM288.621 188.97C289.661 188.97 290.651 189.26 291.591 189.84C292.531 190.4 293.281 191.15 293.841 192.09C294.421 193.03 294.711 194.02 294.711 195.06C294.711 196.08 294.421 197.07 293.841 198.03C293.261 198.97 292.501 199.73 291.561 200.31C290.621 200.89 289.641 201.18 288.621 201.18C287.581 201.18 286.581 200.89 285.621 200.31C284.681 199.73 283.921 198.97 283.341 198.03C282.761 197.07 282.471 196.08 282.471 195.06C282.471 194.02 282.761 193.03 283.341 192.09C283.921 191.15 284.681 190.4 285.621 189.84C286.581 189.26 287.581 188.97 288.621 188.97ZM288.621 197.52C289.241 197.52 289.801 197.27 290.301 196.77C290.801 196.25 291.051 195.68 291.051 195.06C291.051 194.44 290.801 193.88 290.301 193.38C289.801 192.88 289.241 192.63 288.621 192.63C287.981 192.63 287.401 192.88 286.881 193.38C286.381 193.88 286.131 194.44 286.131 195.06C286.131 195.68 286.391 196.25 286.911 196.77C287.431 197.27 288.001 197.52 288.621 197.52ZM300.951 185.85C299.871 185.85 298.991 185.54 298.311 184.92C297.651 184.3 297.321 183.45 297.321 182.37C297.321 181.29 297.651 180.44 298.311 179.82C298.991 179.2 299.871 178.89 300.951 178.89C301.991 178.89 302.871 179.2 303.591 179.82C304.311 180.44 304.671 181.28 304.671 182.34C304.671 183.44 304.311 184.3 303.591 184.92C302.891 185.54 302.011 185.85 300.951 185.85ZM300.951 183.78C301.351 183.78 301.681 183.66 301.941 183.42C302.221 183.16 302.361 182.81 302.361 182.37C302.361 181.93 302.221 181.59 301.941 181.35C301.681 181.09 301.351 180.96 300.951 180.96C300.551 180.96 300.211 181.09 299.931 181.35C299.671 181.59 299.541 181.93 299.541 182.37C299.541 182.81 299.661 183.16 299.901 183.42C300.141 183.66 300.491 183.78 300.951 183.78Z" fill="white"/>
<path d="M234.712 201.124L245.201 205.954L244.139 194.456L234.712 201.124ZM265.453 233.172C266.453 233.199 266.453 233.198 266.453 233.198C266.453 233.197 266.453 233.197 266.453 233.196C266.453 233.195 266.453 233.193 266.453 233.19C266.453 233.186 266.453 233.179 266.453 233.17C266.454 233.153 266.454 233.129 266.455 233.097C266.456 233.034 266.457 232.941 266.457 232.822C266.458 232.582 266.455 232.235 266.444 231.794C266.423 230.913 266.366 229.657 266.226 228.146C265.946 225.131 265.333 221.079 263.994 216.967C261.321 208.762 255.644 200.06 243.736 199.299L243.608 201.295C254.314 201.979 259.527 209.714 262.092 217.586C263.371 221.512 263.963 225.408 264.234 228.331C264.369 229.79 264.424 231.001 264.445 231.844C264.456 232.265 264.458 232.594 264.457 232.817C264.457 232.928 264.456 233.012 264.455 233.067C264.455 233.095 264.454 233.116 264.454 233.129C264.454 233.135 264.454 233.14 264.454 233.143C264.454 233.144 264.453 233.145 264.453 233.146C264.453 233.146 264.453 233.146 264.453 233.146C264.453 233.146 264.453 233.146 265.453 233.172Z" fill="white"/>
</svg>
