<svg width="468" height="468" viewBox="0 0 468 468" fill="none" xmlns="http://www.w3.org/2000/svg">
<circle cx="234.5" cy="233" r="134" fill="#9000FF" fill-opacity="0.2" stroke="white" stroke-width="2"/>
<path d="M233.5 59L227.726 69L239.273 69L233.5 59ZM234.5 408L234.5 68L232.5 68L232.5 408L234.5 408Z" fill="white"/>
<path d="M408 233.5L398 227.726V239.274L408 233.5ZM59 234.5L399 234.5V232.5L59 232.5V234.5Z" fill="white"/>
<path d="M229.316 441.45C228.336 442.49 227.086 443.01 225.566 443.01C224.926 443.01 224.386 442.97 223.946 442.89C223.526 442.83 223.106 442.7 222.686 442.5V439.53C223.166 439.73 223.706 439.83 224.306 439.83C224.966 439.83 225.496 439.66 225.896 439.32C226.296 438.98 226.696 438.44 227.096 437.7L221.396 424.5H225.716L229.106 433.5L232.586 424.5H236.816L231.926 436.92C231.166 438.92 230.296 440.43 229.316 441.45ZM246.714 415.32C246.434 415.6 246.064 415.94 245.604 416.34C245.144 416.74 244.644 417.16 244.104 417.6C243.584 418.04 243.064 418.46 242.544 418.86C242.044 419.24 241.604 419.56 241.224 419.82H238.254V419.43C238.574 419.05 238.944 418.61 239.364 418.11C239.804 417.59 240.234 417.06 240.654 416.52C241.074 415.96 241.424 415.46 241.704 415.02H246.714V415.32Z" fill="white"/>
<path d="M234.451 46.45C233.471 47.49 232.221 48.01 230.701 48.01C230.061 48.01 229.521 47.97 229.081 47.89C228.661 47.83 228.241 47.7 227.821 47.5V44.53C228.301 44.73 228.841 44.83 229.441 44.83C230.101 44.83 230.631 44.66 231.031 44.32C231.431 43.98 231.831 43.44 232.231 42.7L226.531 29.5H230.851L234.241 38.5L237.721 29.5H241.951L237.061 41.92C236.301 43.92 235.431 45.43 234.451 46.45Z" fill="white"/>
<path d="M428.018 236.31L425.348 240H420.938L425.798 233.13L421.088 226.5H425.528L428.018 229.95L430.478 226.5H434.888L430.238 233.13L435.098 240H430.628L428.018 236.31Z" fill="white"/>
<path d="M33.883 236.31L31.213 240H26.803L31.663 233.13L26.953 226.5H31.393L33.883 229.95L36.343 226.5H40.753L36.103 233.13L40.963 240H36.493L33.883 236.31ZM51.1579 217.32C50.8779 217.6 50.5079 217.94 50.0479 218.34C49.5879 218.74 49.0879 219.16 48.5479 219.6C48.0279 220.04 47.5079 220.46 46.9879 220.86C46.4879 221.24 46.0479 221.56 45.6679 221.82H42.6979V221.43C43.0179 221.05 43.3879 220.61 43.8079 220.11C44.2479 219.59 44.6779 219.06 45.0979 218.52C45.5179 217.96 45.8679 217.46 46.1479 217.02H51.1579V217.32Z" fill="white"/>
<path d="M225.532 249.91C225.532 256.17 222.692 259.3 217.012 259.3C211.312 259.3 208.462 256.17 208.462 249.91C208.462 246.57 209.172 244.15 210.592 242.65C212.012 241.13 214.152 240.37 217.012 240.37C219.872 240.37 222.002 241.13 223.402 242.65C224.822 244.15 225.532 246.57 225.532 249.91ZM213.682 254.14C214.402 255.04 215.512 255.49 217.012 255.49C218.512 255.49 219.612 255.04 220.312 254.14C221.032 253.22 221.392 251.81 221.392 249.91C221.392 247.85 221.042 246.38 220.342 245.5C219.642 244.6 218.532 244.15 217.012 244.15C215.492 244.15 214.382 244.6 213.682 245.5C212.982 246.38 212.632 247.85 212.632 249.91C212.632 251.81 212.982 253.22 213.682 254.14Z" fill="white"/>
<path d="M269.837 188.258C267.93 188.258 266.456 187.708 265.415 186.608C264.388 185.523 263.875 183.997 263.875 182.032V177.632H266.669V181.966C266.669 183.081 266.926 183.917 267.439 184.474C267.952 185.046 268.752 185.332 269.837 185.332H270.717C271.773 185.332 272.602 185.053 273.203 184.496C273.804 183.939 274.105 183.169 274.105 182.186V168.832H276.899V181.966C276.899 183.286 276.642 184.415 276.129 185.354C275.616 186.307 274.89 187.026 273.951 187.51C273.027 188.009 271.949 188.258 270.717 188.258H269.837ZM288.412 182.076C288.412 183.997 287.899 185.508 286.872 186.608C285.86 187.708 284.467 188.258 282.692 188.258H279.678L279.436 185.332H282.868C283.734 185.332 284.408 185.119 284.892 184.694C285.376 184.283 285.618 183.719 285.618 183H284.078C282.494 183 281.358 182.67 280.668 182.01C279.994 181.35 279.656 180.301 279.656 178.864C279.656 177.925 279.84 177.089 280.206 176.356C280.573 175.623 281.086 175.051 281.746 174.64C282.421 174.229 283.198 174.024 284.078 174.024C285.428 174.024 286.484 174.464 287.246 175.344C288.024 176.224 288.412 177.441 288.412 178.996V182.076ZM282.428 178.754C282.428 179.223 282.553 179.568 282.802 179.788C283.066 179.993 283.528 180.096 284.188 180.096H285.618V178.952C285.618 178.248 285.479 177.713 285.2 177.346C284.922 176.979 284.518 176.796 283.99 176.796C283.492 176.796 283.103 176.979 282.824 177.346C282.56 177.698 282.428 178.167 282.428 178.754ZM291.123 168.832H293.939V183H291.123V168.832ZM308.04 173.87C309.023 173.87 309.808 174.097 310.394 174.552C310.981 175.007 311.274 175.667 311.274 176.532C311.274 177.163 311.128 177.742 310.834 178.27C310.556 178.783 310.02 179.407 309.228 180.14C309.448 180.096 309.881 180.074 310.526 180.074H312.99C313.064 180.074 313.115 180.169 313.144 180.36C313.188 180.551 313.21 180.961 313.21 181.592C313.21 182.179 313.188 182.56 313.144 182.736C313.115 182.912 313.064 183 312.99 183H310.548C309.272 183 308.341 182.934 307.754 182.802C307.168 182.67 306.654 182.413 306.214 182.032C304.645 183.015 303.86 184.144 303.86 185.42C303.86 186.168 304.117 186.725 304.63 187.092C305.144 187.459 305.95 187.642 307.05 187.642H311.34L311.12 190.568H306.94C304.96 190.568 303.486 190.15 302.518 189.314C301.55 188.478 301.066 187.217 301.066 185.53C301.066 183.521 301.976 181.775 303.794 180.294L301.198 176.488L302.584 173.87H308.04ZM308.612 177.192C308.612 176.987 308.524 176.833 308.348 176.73C308.187 176.613 307.96 176.554 307.666 176.554H304.344L306.434 179.656C307.285 178.908 307.857 178.365 308.15 178.028C308.458 177.691 308.612 177.412 308.612 177.192ZM318.74 179.084C318.74 180.301 318.374 181.262 317.64 181.966C316.922 182.655 315.946 183 314.714 183H312.558C312.412 183 312.338 182.531 312.338 181.592C312.338 180.58 312.412 180.074 312.558 180.074H314.714C315.081 180.074 315.374 179.979 315.594 179.788C315.829 179.583 315.946 179.304 315.946 178.952V175.432H318.74V179.084ZM312.822 187.796V185.288H315.814V187.796H312.822ZM325.122 182.186C325.122 183.389 324.88 184.445 324.396 185.354C323.912 186.278 323.216 186.989 322.306 187.488C321.412 188.001 320.37 188.258 319.182 188.258H318.478L318.236 185.332H319.138C320.15 185.332 320.935 185.053 321.492 184.496C322.05 183.953 322.328 183.183 322.328 182.186V175.432H325.122V182.186Z" fill="white"/>
<path d="M258.534 288.072C258.534 287.397 258.666 286.877 258.93 286.51H258.204C257.602 286.51 257.148 286.671 256.84 286.994C256.532 287.302 256.378 287.749 256.378 288.336V298.236H253.584V288.336C253.584 286.913 254.009 285.784 254.86 284.948C255.71 284.112 256.862 283.694 258.314 283.694H263.066C264.474 283.694 265.522 284.039 266.212 284.728C266.901 285.403 267.246 286.393 267.246 287.698V288.908C267.246 290.228 266.864 291.24 266.102 291.944C265.339 292.648 264.246 293 262.824 293C261.416 293 260.345 292.67 259.612 292.01C258.893 291.335 258.534 290.389 258.534 289.172V288.072ZM262.934 290.096C263.432 290.096 263.814 290.001 264.078 289.81C264.342 289.605 264.474 289.26 264.474 288.776V287.918C264.474 287.463 264.349 287.111 264.1 286.862C263.85 286.613 263.498 286.488 263.044 286.488H262.648C262.208 286.488 261.87 286.62 261.636 286.884C261.416 287.148 261.306 287.493 261.306 287.918V288.666C261.306 289.209 261.43 289.583 261.68 289.788C261.929 289.993 262.347 290.096 262.934 290.096ZM273.547 292.186C273.547 293.389 273.305 294.445 272.821 295.354C272.337 296.278 271.64 296.989 270.731 297.488C269.836 298.001 268.795 298.258 267.607 298.258H265.759L265.517 295.332H267.563C268.575 295.332 269.359 295.053 269.917 294.496C270.474 293.953 270.753 293.183 270.753 292.186V285.432H273.547V292.186ZM280.809 290.074C280.882 290.074 280.934 290.169 280.963 290.36C281.007 290.551 281.029 290.961 281.029 291.592C281.029 292.179 281.007 292.56 280.963 292.736C280.934 292.912 280.882 293 280.809 293H280.017C278.785 293 277.846 292.648 277.201 291.944C276.57 291.225 276.255 290.206 276.255 288.886V278.832H279.071V288.688C279.071 289.157 279.159 289.509 279.335 289.744C279.526 289.964 279.819 290.074 280.215 290.074H280.809ZM293.508 290.074C293.654 290.074 293.728 290.58 293.728 291.592C293.728 292.531 293.654 293 293.508 293C292.804 293 292.261 293.103 291.88 293.308C291.498 293.528 291.102 293.983 290.692 294.672L288.602 298.236H287.15C285.551 298.236 284.304 297.796 283.41 296.916C282.515 296.036 282.068 294.797 282.068 293.198V293H280.374C280.227 293 280.154 292.531 280.154 291.592C280.154 290.58 280.227 290.074 280.374 290.074H282.068V288.446C282.068 286.95 282.456 285.769 283.234 284.904C284.011 284.024 285.067 283.584 286.402 283.584C287.678 283.584 288.697 283.951 289.46 284.684C290.222 285.417 290.604 286.422 290.604 287.698C290.604 288.622 290.347 289.48 289.834 290.272C289.32 291.049 288.624 291.673 287.744 292.142C286.864 292.611 285.896 292.861 284.84 292.89V293.088C284.84 293.924 285.016 294.525 285.368 294.892C285.72 295.273 286.306 295.464 287.128 295.464L288.536 293.088C289.049 292.237 289.518 291.607 289.944 291.196C290.384 290.771 290.868 290.477 291.396 290.316C291.938 290.155 292.642 290.074 293.508 290.074ZM287.832 287.808C287.832 287.339 287.707 286.987 287.458 286.752C287.223 286.503 286.871 286.378 286.402 286.378C285.888 286.378 285.5 286.554 285.236 286.906C284.972 287.258 284.84 287.764 284.84 288.424V290.074C285.778 290.074 286.512 289.876 287.04 289.48C287.568 289.084 287.832 288.527 287.832 287.808ZM294.689 290.074C295.803 290.074 296.72 290.001 297.439 289.854C298.172 289.707 298.927 289.414 299.705 288.974L301.751 287.808C301.604 287.251 301.384 286.877 301.091 286.686C300.812 286.481 300.387 286.378 299.815 286.378H294.777L295.107 283.474H300.343C301.267 283.474 302.015 283.635 302.587 283.958C303.159 284.266 303.635 284.801 304.017 285.564C304.413 286.312 304.765 287.368 305.073 288.732L300.783 291.394C299.785 292.01 298.832 292.435 297.923 292.67C297.013 292.89 295.891 293 294.557 293H293.061C292.914 293 292.841 292.531 292.841 291.592C292.841 290.58 292.914 290.074 293.061 290.074H294.689ZM301.223 295.288V297.796H295.019V295.288H301.223ZM296.867 301.25V298.852H299.375V301.25H296.867ZM318.332 283.87C319.314 283.87 320.099 284.097 320.686 284.552C321.272 285.007 321.566 285.667 321.566 286.532C321.566 287.163 321.419 287.742 321.126 288.27C320.847 288.783 320.312 289.407 319.52 290.14C319.74 290.096 320.172 290.074 320.818 290.074H323.282C323.355 290.074 323.406 290.169 323.436 290.36C323.48 290.551 323.502 290.961 323.502 291.592C323.502 292.179 323.48 292.56 323.436 292.736C323.406 292.912 323.355 293 323.282 293H320.84C319.564 293 318.632 292.934 318.046 292.802C317.459 292.67 316.946 292.413 316.506 292.032C314.936 293.015 314.152 294.144 314.152 295.42C314.152 296.168 314.408 296.725 314.922 297.092C315.435 297.459 316.242 297.642 317.342 297.642H321.632L321.412 300.568H317.232C315.252 300.568 313.778 300.15 312.81 299.314C311.842 298.478 311.358 297.217 311.358 295.53C311.358 293.521 312.267 291.775 314.086 290.294L311.49 286.488L312.876 283.87H318.332ZM318.904 287.192C318.904 286.987 318.816 286.833 318.64 286.73C318.478 286.613 318.251 286.554 317.958 286.554H314.636L316.726 289.656C317.576 288.908 318.148 288.365 318.442 288.028C318.75 287.691 318.904 287.412 318.904 287.192ZM329.032 289.084C329.032 290.301 328.665 291.262 327.932 291.966C327.213 292.655 326.238 293 325.006 293H322.85C322.703 293 322.63 292.531 322.63 291.592C322.63 290.58 322.703 290.074 322.85 290.074H325.006C325.373 290.074 325.666 289.979 325.886 289.788C326.121 289.583 326.238 289.304 326.238 288.952V285.432H329.032V289.084ZM323.114 297.796V295.288H326.106V297.796H323.114ZM335.414 292.186C335.414 293.389 335.172 294.445 334.688 295.354C334.204 296.278 333.507 296.989 332.598 297.488C331.703 298.001 330.662 298.258 329.474 298.258H328.77L328.528 295.332H329.43C330.442 295.332 331.226 295.053 331.784 294.496C332.341 293.953 332.62 293.183 332.62 292.186V285.432H335.414V292.186Z" fill="white"/>
<path d="M145.855 178.072C145.855 177.397 145.987 176.877 146.251 176.51H145.525C144.924 176.51 144.469 176.671 144.161 176.994C143.853 177.302 143.699 177.749 143.699 178.336V188.236H140.905V178.336C140.905 176.913 141.331 175.784 142.181 174.948C143.032 174.112 144.183 173.694 145.635 173.694H150.387C151.795 173.694 152.844 174.039 153.533 174.728C154.223 175.403 154.567 176.393 154.567 177.698V178.908C154.567 180.228 154.186 181.24 153.423 181.944C152.661 182.648 151.568 183 150.145 183C148.737 183 147.667 182.67 146.933 182.01C146.215 181.335 145.855 180.389 145.855 179.172V178.072ZM150.255 180.096C150.754 180.096 151.135 180.001 151.399 179.81C151.663 179.605 151.795 179.26 151.795 178.776V177.918C151.795 177.463 151.671 177.111 151.421 176.862C151.172 176.613 150.82 176.488 150.365 176.488H149.969C149.529 176.488 149.192 176.62 148.957 176.884C148.737 177.148 148.627 177.493 148.627 177.918V178.666C148.627 179.209 148.752 179.583 149.001 179.788C149.251 179.993 149.669 180.096 150.255 180.096ZM165.851 182.076C165.851 183.997 165.337 185.508 164.311 186.608C163.299 187.708 161.905 188.258 160.131 188.258H157.117L156.875 185.332H160.307C161.172 185.332 161.847 185.119 162.331 184.694C162.815 184.283 163.057 183.719 163.057 183H161.517C159.933 183 158.796 182.67 158.107 182.01C157.432 181.35 157.095 180.301 157.095 178.864C157.095 177.925 157.278 177.089 157.645 176.356C158.011 175.623 158.525 175.051 159.185 174.64C159.859 174.229 160.637 174.024 161.517 174.024C162.866 174.024 163.922 174.464 164.685 175.344C165.462 176.224 165.851 177.441 165.851 178.996V182.076ZM159.867 178.754C159.867 179.223 159.991 179.568 160.241 179.788C160.505 179.993 160.967 180.096 161.627 180.096H163.057V178.952C163.057 178.248 162.917 177.713 162.639 177.346C162.36 176.979 161.957 176.796 161.429 176.796C160.93 176.796 160.541 176.979 160.263 177.346C159.999 177.698 159.867 178.167 159.867 178.754ZM176.657 176.092C177.2 176.723 177.581 177.295 177.801 177.808C178.021 178.321 178.131 178.864 178.131 179.436C178.131 180.477 177.757 181.335 177.009 182.01C176.276 182.67 175.249 183 173.929 183H167.967L167.747 180.074H173.797C174.252 180.074 174.604 180.001 174.853 179.854C175.103 179.707 175.227 179.502 175.227 179.238C175.227 179.047 175.176 178.864 175.073 178.688C174.971 178.497 174.78 178.241 174.501 177.918L170.717 173.474L172.741 171.472L176.657 176.092ZM192.01 173.87C192.993 173.87 193.777 174.097 194.364 174.552C194.951 175.007 195.244 175.667 195.244 176.532C195.244 177.163 195.097 177.742 194.804 178.27C194.525 178.783 193.99 179.407 193.198 180.14C193.418 180.096 193.851 180.074 194.496 180.074H196.96C197.033 180.074 197.085 180.169 197.114 180.36C197.158 180.551 197.18 180.961 197.18 181.592C197.18 182.179 197.158 182.56 197.114 182.736C197.085 182.912 197.033 183 196.96 183H194.518C193.242 183 192.311 182.934 191.724 182.802C191.137 182.67 190.624 182.413 190.184 182.032C188.615 183.015 187.83 184.144 187.83 185.42C187.83 186.168 188.087 186.725 188.6 187.092C189.113 187.459 189.92 187.642 191.02 187.642H195.31L195.09 190.568H190.91C188.93 190.568 187.456 190.15 186.488 189.314C185.52 188.478 185.036 187.217 185.036 185.53C185.036 183.521 185.945 181.775 187.764 180.294L185.168 176.488L186.554 173.87H192.01ZM192.582 177.192C192.582 176.987 192.494 176.833 192.318 176.73C192.157 176.613 191.929 176.554 191.636 176.554H188.314L190.404 179.656C191.255 178.908 191.827 178.365 192.12 178.028C192.428 177.691 192.582 177.412 192.582 177.192ZM202.71 179.084C202.71 180.301 202.344 181.262 201.61 181.966C200.892 182.655 199.916 183 198.684 183H196.528C196.382 183 196.308 182.531 196.308 181.592C196.308 180.58 196.382 180.074 196.528 180.074H198.684C199.051 180.074 199.344 179.979 199.564 179.788C199.799 179.583 199.916 179.304 199.916 178.952V175.432H202.71V179.084ZM196.792 187.796V185.288H199.784V187.796H196.792ZM209.092 182.186C209.092 183.389 208.85 184.445 208.366 185.354C207.882 186.278 207.185 186.989 206.276 187.488C205.381 188.001 204.34 188.258 203.152 188.258H202.448L202.206 185.332H203.108C204.12 185.332 204.905 185.053 205.462 184.496C206.019 183.953 206.298 183.183 206.298 182.186V175.432H209.092V182.186Z" fill="white"/>
<path d="M142.633 288.072C142.633 287.397 142.765 286.877 143.029 286.51H142.303C141.701 286.51 141.247 286.671 140.939 286.994C140.631 287.302 140.477 287.749 140.477 288.336V298.236H137.683V288.336C137.683 286.913 138.108 285.784 138.959 284.948C139.809 284.112 140.961 283.694 142.413 283.694H147.165C148.573 283.694 149.621 284.039 150.311 284.728C151 285.403 151.345 286.393 151.345 287.698V288.908C151.345 290.228 150.963 291.24 150.201 291.944C149.438 292.648 148.345 293 146.923 293C145.515 293 144.444 292.67 143.711 292.01C142.992 291.335 142.633 290.389 142.633 289.172V288.072ZM147.033 290.096C147.531 290.096 147.913 290.001 148.177 289.81C148.441 289.605 148.573 289.26 148.573 288.776V287.918C148.573 287.463 148.448 287.111 148.199 286.862C147.949 286.613 147.597 286.488 147.143 286.488H146.747C146.307 286.488 145.969 286.62 145.735 286.884C145.515 287.148 145.405 287.493 145.405 287.918V288.666C145.405 289.209 145.529 289.583 145.779 289.788C146.028 289.993 146.446 290.096 147.033 290.096ZM164.322 290.074C164.469 290.074 164.542 290.58 164.542 291.592C164.542 292.531 164.469 293 164.322 293H162.584C162.437 294.643 161.858 295.926 160.846 296.85C159.834 297.789 158.521 298.258 156.908 298.258H153.894L153.652 295.332H157.084C157.949 295.332 158.624 295.119 159.108 294.694C159.592 294.283 159.834 293.719 159.834 293H158.294C156.71 293 155.573 292.67 154.884 292.01C154.209 291.35 153.872 290.301 153.872 288.864C153.872 287.925 154.055 287.089 154.422 286.356C154.789 285.623 155.302 285.051 155.962 284.64C156.637 284.229 157.414 284.024 158.294 284.024C159.643 284.024 160.699 284.464 161.462 285.344C162.239 286.224 162.628 287.441 162.628 288.996V290.074H164.322ZM156.644 288.754C156.644 289.223 156.769 289.568 157.018 289.788C157.282 289.993 157.744 290.096 158.404 290.096H159.834V288.952C159.834 288.248 159.695 287.713 159.416 287.346C159.137 286.979 158.734 286.796 158.206 286.796C157.707 286.796 157.319 286.979 157.04 287.346C156.776 287.698 156.644 288.167 156.644 288.754ZM165.575 290.074C166.074 290.074 166.448 289.957 166.697 289.722C166.961 289.487 167.093 289.165 167.093 288.754V285.432H169.887V288.754C169.887 289.634 170.393 290.074 171.405 290.074C171.904 290.074 172.278 289.957 172.527 289.722C172.791 289.487 172.923 289.165 172.923 288.754V285.432H175.717V288.754C175.717 289.634 176.187 290.074 177.125 290.074C178.064 290.074 178.533 289.634 178.533 288.754V285.432H181.327V288.776C181.327 290.111 180.953 291.152 180.205 291.9C179.472 292.633 178.445 293 177.125 293C176.348 293 175.725 292.905 175.255 292.714C174.786 292.509 174.434 292.215 174.199 291.834C173.921 292.215 173.554 292.509 173.099 292.714C172.659 292.905 172.095 293 171.405 293C170.599 293 169.953 292.905 169.469 292.714C168.985 292.509 168.626 292.215 168.391 291.834C167.819 292.611 166.881 293 165.575 293H163.881C163.735 293 163.661 292.531 163.661 291.592C163.661 290.58 163.735 290.074 163.881 290.074H165.575ZM195.233 283.87C196.215 283.87 197 284.097 197.587 284.552C198.173 285.007 198.467 285.667 198.467 286.532C198.467 287.163 198.32 287.742 198.027 288.27C197.748 288.783 197.213 289.407 196.421 290.14C196.641 290.096 197.073 290.074 197.719 290.074H200.183C200.256 290.074 200.307 290.169 200.337 290.36C200.381 290.551 200.403 290.961 200.403 291.592C200.403 292.179 200.381 292.56 200.337 292.736C200.307 292.912 200.256 293 200.183 293H197.741C196.465 293 195.533 292.934 194.947 292.802C194.36 292.67 193.847 292.413 193.407 292.032C191.837 293.015 191.053 294.144 191.053 295.42C191.053 296.168 191.309 296.725 191.823 297.092C192.336 297.459 193.143 297.642 194.243 297.642H198.533L198.313 300.568H194.133C192.153 300.568 190.679 300.15 189.711 299.314C188.743 298.478 188.259 297.217 188.259 295.53C188.259 293.521 189.168 291.775 190.987 290.294L188.391 286.488L189.777 283.87H195.233ZM195.805 287.192C195.805 286.987 195.717 286.833 195.541 286.73C195.379 286.613 195.152 286.554 194.859 286.554H191.537L193.627 289.656C194.477 288.908 195.049 288.365 195.343 288.028C195.651 287.691 195.805 287.412 195.805 287.192ZM205.933 289.084C205.933 290.301 205.566 291.262 204.833 291.966C204.114 292.655 203.139 293 201.907 293H199.751C199.604 293 199.531 292.531 199.531 291.592C199.531 290.58 199.604 290.074 199.751 290.074H201.907C202.274 290.074 202.567 289.979 202.787 289.788C203.022 289.583 203.139 289.304 203.139 288.952V285.432H205.933V289.084ZM200.015 297.796V295.288H203.007V297.796H200.015ZM212.315 292.186C212.315 293.389 212.073 294.445 211.589 295.354C211.105 296.278 210.408 296.989 209.499 297.488C208.604 298.001 207.563 298.258 206.375 298.258H205.671L205.429 295.332H206.331C207.343 295.332 208.127 295.053 208.685 294.496C209.242 293.953 209.521 293.183 209.521 292.186V285.432H212.315V292.186Z" fill="white"/>
</svg>
