<svg width="468" height="468" viewBox="0 0 468 468" fill="none" xmlns="http://www.w3.org/2000/svg">
<circle cx="234.5" cy="233" r="134" fill="#9000FF" fill-opacity="0.2" stroke="white" stroke-width="2"/>
<mask id="path-2-outside-1_2093_548" maskUnits="userSpaceOnUse" x="43.7295" y="42.1972" width="353.643" height="351.62" fill="black">
<rect fill="white" x="43.7295" y="42.1972" width="353.643" height="351.62"/>
<path d="M137.262 323.705C122.488 307.862 111.807 288.649 106.149 267.738C100.491 246.827 100.026 224.85 104.795 203.718C109.565 182.586 119.424 162.939 133.516 146.486C147.607 130.032 165.504 117.269 185.652 109.308C205.799 101.346 227.586 98.4261 249.119 100.802C270.651 103.178 291.277 110.778 309.204 122.94C327.131 135.103 341.815 151.461 351.98 170.591C362.146 189.721 367.484 211.045 367.532 232.708L234.532 233L137.262 323.705Z"/>
</mask>
<path d="M137.262 323.705C122.488 307.862 111.807 288.649 106.149 267.738C100.491 246.827 100.026 224.85 104.795 203.718C109.565 182.586 119.424 162.939 133.516 146.486C147.607 130.032 165.504 117.269 185.652 109.308C205.799 101.346 227.586 98.4261 249.119 100.802C270.651 103.178 291.277 110.778 309.204 122.94C327.131 135.103 341.815 151.461 351.98 170.591C362.146 189.721 367.484 211.045 367.532 232.708L234.532 233L137.262 323.705Z" fill="#1A7E7A" fill-opacity="0.6"/>
<path d="M137.262 323.705C122.488 307.862 111.807 288.649 106.149 267.738C100.491 246.827 100.026 224.85 104.795 203.718C109.565 182.586 119.424 162.939 133.516 146.486C147.607 130.032 165.504 117.269 185.652 109.308C205.799 101.346 227.586 98.4261 249.119 100.802C270.651 103.178 291.277 110.778 309.204 122.94C327.131 135.103 341.815 151.461 351.98 170.591C362.146 189.721 367.484 211.045 367.532 232.708L234.532 233L137.262 323.705Z" stroke="white" stroke-width="4" mask="url(#path-2-outside-1_2093_548)"/>
<path d="M233.5 59L227.726 69L239.273 69L233.5 59ZM234.5 408L234.5 68L232.5 68L232.5 408L234.5 408Z" fill="white"/>
<path d="M408 233.5L398 227.726V239.274L408 233.5ZM59 234.5L399 234.5V232.5L59 232.5V234.5Z" fill="white"/>
<path d="M229.316 441.45C228.336 442.49 227.086 443.01 225.566 443.01C224.926 443.01 224.386 442.97 223.946 442.89C223.526 442.83 223.106 442.7 222.686 442.5V439.53C223.166 439.73 223.706 439.83 224.306 439.83C224.966 439.83 225.496 439.66 225.896 439.32C226.296 438.98 226.696 438.44 227.096 437.7L221.396 424.5H225.716L229.106 433.5L232.586 424.5H236.816L231.926 436.92C231.166 438.92 230.296 440.43 229.316 441.45ZM246.714 415.32C246.434 415.6 246.064 415.94 245.604 416.34C245.144 416.74 244.644 417.16 244.104 417.6C243.584 418.04 243.064 418.46 242.544 418.86C242.044 419.24 241.604 419.56 241.224 419.82H238.254V419.43C238.574 419.05 238.944 418.61 239.364 418.11C239.804 417.59 240.234 417.06 240.654 416.52C241.074 415.96 241.424 415.46 241.704 415.02H246.714V415.32Z" fill="white"/>
<path d="M234.451 46.45C233.471 47.49 232.221 48.01 230.701 48.01C230.061 48.01 229.521 47.97 229.081 47.89C228.661 47.83 228.241 47.7 227.821 47.5V44.53C228.301 44.73 228.841 44.83 229.441 44.83C230.101 44.83 230.631 44.66 231.031 44.32C231.431 43.98 231.831 43.44 232.231 42.7L226.531 29.5H230.851L234.241 38.5L237.721 29.5H241.951L237.061 41.92C236.301 43.92 235.431 45.43 234.451 46.45Z" fill="white"/>
<path d="M428.018 236.31L425.348 240H420.938L425.798 233.13L421.088 226.5H425.528L428.018 229.95L430.478 226.5H434.888L430.238 233.13L435.098 240H430.628L428.018 236.31Z" fill="white"/>
<path d="M33.883 236.31L31.213 240H26.803L31.663 233.13L26.953 226.5H31.393L33.883 229.95L36.343 226.5H40.753L36.103 233.13L40.963 240H36.493L33.883 236.31ZM51.1579 217.32C50.8779 217.6 50.5079 217.94 50.0479 218.34C49.5879 218.74 49.0879 219.16 48.5479 219.6C48.0279 220.04 47.5079 220.46 46.9879 220.86C46.4879 221.24 46.0479 221.56 45.6679 221.82H42.6979V221.43C43.0179 221.05 43.3879 220.61 43.8079 220.11C44.2479 219.59 44.6779 219.06 45.0979 218.52C45.5179 217.96 45.8679 217.46 46.1479 217.02H51.1579V217.32Z" fill="white"/>
<path d="M263.532 255.91C263.532 262.17 260.692 265.3 255.012 265.3C249.312 265.3 246.462 262.17 246.462 255.91C246.462 252.57 247.172 250.15 248.592 248.65C250.012 247.13 252.152 246.37 255.012 246.37C257.872 246.37 260.002 247.13 261.402 248.65C262.822 250.15 263.532 252.57 263.532 255.91ZM251.682 260.14C252.402 261.04 253.512 261.49 255.012 261.49C256.512 261.49 257.612 261.04 258.312 260.14C259.032 259.22 259.392 257.81 259.392 255.91C259.392 253.85 259.042 252.38 258.342 251.5C257.642 250.6 256.532 250.15 255.012 250.15C253.492 250.15 252.382 250.6 251.682 251.5C250.982 252.38 250.632 253.85 250.632 255.91C250.632 257.81 250.982 259.22 251.682 260.14Z" fill="white"/>
<path d="M57.4 349.57H53.26V355H49.15V336.64H57.49C59.49 336.64 60.99 337.24 61.99 338.44C63.01 339.64 63.52 341.22 63.52 343.18C63.52 344.42 63.27 345.53 62.77 346.51C62.27 347.47 61.56 348.22 60.64 348.76C59.72 349.3 58.64 349.57 57.4 349.57ZM58.72 340.96C58.26 340.46 57.58 340.21 56.68 340.21H53.26V346.03H56.53C57.45 346.03 58.16 345.78 58.66 345.28C59.16 344.76 59.41 344.06 59.41 343.18C59.41 342.2 59.18 341.46 58.72 340.96ZM69.5608 345.34C69.5608 347.28 69.7908 348.87 70.2508 350.11C70.7308 351.35 71.6208 352.62 72.9208 353.92L70.6408 356.05C68.8808 354.57 67.6208 352.99 66.8608 351.31C66.1208 349.63 65.7508 347.64 65.7508 345.34C65.7508 343.04 66.1208 341.05 66.8608 339.37C67.6208 337.69 68.8808 336.11 70.6408 334.63L72.9208 336.76C71.6208 338.04 70.7308 339.31 70.2508 340.57C69.7908 341.81 69.5608 343.4 69.5608 345.34ZM82.5529 351.31L79.8829 355H75.4729L80.3329 348.13L75.6229 341.5H80.0629L82.5529 344.95L85.0129 341.5H89.4229L84.7729 348.13L89.6329 355H85.1629L82.5529 351.31ZM95.8078 352.39L94.3978 358.42H91.5178L92.3578 352.39H95.8078ZM105.81 358.45C104.83 359.49 103.58 360.01 102.06 360.01C101.42 360.01 100.88 359.97 100.44 359.89C100.02 359.83 99.5997 359.7 99.1797 359.5V356.53C99.6597 356.73 100.2 356.83 100.8 356.83C101.46 356.83 101.99 356.66 102.39 356.32C102.79 355.98 103.19 355.44 103.59 354.7L97.8897 341.5H102.21L105.6 350.5L109.08 341.5H113.31L108.42 353.92C107.66 355.92 106.79 357.43 105.81 358.45ZM118.888 345.34C118.888 343.4 118.648 341.81 118.168 340.57C117.708 339.31 116.838 338.04 115.558 336.76L117.838 334.63C119.578 336.11 120.828 337.69 121.588 339.37C122.348 341.05 122.728 343.04 122.728 345.34C122.728 347.64 122.348 349.63 121.588 351.31C120.828 352.99 119.578 354.57 117.838 356.05L115.558 353.92C116.838 352.62 117.708 351.35 118.168 350.11C118.648 348.87 118.888 347.28 118.888 345.34Z" fill="white"/>
<path d="M272.137 234.372L272.635 234.331L272.594 233.833C271.423 219.688 264.992 209.547 256.221 203.439C247.482 197.353 236.51 195.332 226.316 197.218C216.112 199.105 206.615 204.921 200.901 214.589C195.338 224.004 193.465 236.895 197.773 253.019L193.647 254.427L192.827 254.706L193.479 255.276L202.173 262.876L202.825 263.446L202.992 262.596L205.227 251.268L205.395 250.418L204.575 250.698L200.619 252.048C196.541 236.625 198.435 224.66 203.484 216.115C208.705 207.281 217.406 201.916 226.862 200.168C236.327 198.417 246.473 200.306 254.507 205.901C262.508 211.472 268.503 220.782 269.604 234.08L269.645 234.579L270.144 234.537L272.137 234.372Z" fill="#5FBE92" stroke="white"/>
<path fill-rule="evenodd" clip-rule="evenodd" d="M273.515 205C279.172 205 282 200.536 282 191.607C282 186.843 281.293 183.391 279.879 181.252C278.484 179.084 276.363 178 273.515 178C270.667 178 268.535 179.084 267.121 181.252C265.707 183.391 265 186.843 265 191.607C265 200.536 267.838 205 273.515 205ZM273.515 199.566C272.021 199.566 270.916 198.924 270.199 197.64C269.642 196.593 269.308 195.1 269.195 193.161H277.833C277.718 195.1 277.374 196.593 276.801 197.64C276.104 198.924 275.009 199.566 273.515 199.566ZM277.754 188.883H269.276C269.433 187.33 269.74 186.142 270.199 185.317C270.896 184.033 272.001 183.391 273.515 183.391C275.029 183.391 276.134 184.033 276.831 185.317C277.289 186.142 277.597 187.33 277.754 188.883Z" fill="#5FBE92" stroke="white" stroke-width="1.4"/>
<line y1="-1" x2="85" y2="-1" transform="matrix(-4.37114e-08 -1 -1 4.37114e-08 136 318)" stroke="white" stroke-width="2" stroke-dasharray="2 2"/>
<mask id="path-14-outside-2_2093_548" maskUnits="userSpaceOnUse" x="136" y="234" width="18" height="20" fill="black">
<rect fill="white" x="136" y="234" width="18" height="20"/>
<path d="M136 252H152V234H136V252Z"/>
</mask>
<path d="M152 252H154V254H152V252ZM136 250H152V254H136V250ZM150 252V234H154V252H150Z" fill="white" mask="url(#path-14-outside-2_2093_548)"/>
<circle cx="7" cy="7" r="8" transform="matrix(1 0 0 -1 130 331)" fill="#5FBE92" stroke="white" stroke-width="2"/>
</svg>
