<svg width="468" height="468" viewBox="0 0 468 468" fill="none" xmlns="http://www.w3.org/2000/svg">
<circle cx="234.5" cy="233" r="134" fill="#9000FF" fill-opacity="0.2" stroke="white" stroke-width="2"/>
<mask id="path-2-outside-1_2091_496" maskUnits="userSpaceOnUse" x="43.7295" y="42.1972" width="353.643" height="351.62" fill="black">
<rect fill="white" x="43.7295" y="42.1972" width="353.643" height="351.62"/>
<path d="M137.262 323.705C122.488 307.862 111.807 288.649 106.149 267.738C100.491 246.827 100.026 224.85 104.795 203.718C109.565 182.586 119.424 162.939 133.516 146.486C147.607 130.032 165.504 117.269 185.652 109.308C205.799 101.346 227.586 98.4261 249.119 100.802C270.651 103.178 291.277 110.778 309.204 122.94C327.131 135.103 341.815 151.461 351.98 170.591C362.146 189.721 367.484 211.045 367.532 232.708L234.532 233L137.262 323.705Z"/>
</mask>
<path d="M137.262 323.705C122.488 307.862 111.807 288.649 106.149 267.738C100.491 246.827 100.026 224.85 104.795 203.718C109.565 182.586 119.424 162.939 133.516 146.486C147.607 130.032 165.504 117.269 185.652 109.308C205.799 101.346 227.586 98.4261 249.119 100.802C270.651 103.178 291.277 110.778 309.204 122.94C327.131 135.103 341.815 151.461 351.98 170.591C362.146 189.721 367.484 211.045 367.532 232.708L234.532 233L137.262 323.705Z" fill="#1A7E7A" fill-opacity="0.6"/>
<path d="M137.262 323.705C122.488 307.862 111.807 288.649 106.149 267.738C100.491 246.827 100.026 224.85 104.795 203.718C109.565 182.586 119.424 162.939 133.516 146.486C147.607 130.032 165.504 117.269 185.652 109.308C205.799 101.346 227.586 98.4261 249.119 100.802C270.651 103.178 291.277 110.778 309.204 122.94C327.131 135.103 341.815 151.461 351.98 170.591C362.146 189.721 367.484 211.045 367.532 232.708L234.532 233L137.262 323.705Z" stroke="white" stroke-width="4" mask="url(#path-2-outside-1_2091_496)"/>
<path d="M233.5 59L227.726 69L239.273 69L233.5 59ZM234.5 408L234.5 68L232.5 68L232.5 408L234.5 408Z" fill="white"/>
<path d="M408 233.5L398 227.726V239.274L408 233.5ZM59 234.5L399 234.5V232.5L59 232.5V234.5Z" fill="white"/>
<path d="M229.316 441.45C228.336 442.49 227.086 443.01 225.566 443.01C224.926 443.01 224.386 442.97 223.946 442.89C223.526 442.83 223.106 442.7 222.686 442.5V439.53C223.166 439.73 223.706 439.83 224.306 439.83C224.966 439.83 225.496 439.66 225.896 439.32C226.296 438.98 226.696 438.44 227.096 437.7L221.396 424.5H225.716L229.106 433.5L232.586 424.5H236.816L231.926 436.92C231.166 438.92 230.296 440.43 229.316 441.45ZM246.714 415.32C246.434 415.6 246.064 415.94 245.604 416.34C245.144 416.74 244.644 417.16 244.104 417.6C243.584 418.04 243.064 418.46 242.544 418.86C242.044 419.24 241.604 419.56 241.224 419.82H238.254V419.43C238.574 419.05 238.944 418.61 239.364 418.11C239.804 417.59 240.234 417.06 240.654 416.52C241.074 415.96 241.424 415.46 241.704 415.02H246.714V415.32Z" fill="white"/>
<path d="M234.451 46.45C233.471 47.49 232.221 48.01 230.701 48.01C230.061 48.01 229.521 47.97 229.081 47.89C228.661 47.83 228.241 47.7 227.821 47.5V44.53C228.301 44.73 228.841 44.83 229.441 44.83C230.101 44.83 230.631 44.66 231.031 44.32C231.431 43.98 231.831 43.44 232.231 42.7L226.531 29.5H230.851L234.241 38.5L237.721 29.5H241.951L237.061 41.92C236.301 43.92 235.431 45.43 234.451 46.45Z" fill="white"/>
<path d="M428.018 236.31L425.348 240H420.938L425.798 233.13L421.088 226.5H425.528L428.018 229.95L430.478 226.5H434.888L430.238 233.13L435.098 240H430.628L428.018 236.31Z" fill="white"/>
<path d="M33.883 236.31L31.213 240H26.803L31.663 233.13L26.953 226.5H31.393L33.883 229.95L36.343 226.5H40.753L36.103 233.13L40.963 240H36.493L33.883 236.31ZM51.1579 217.32C50.8779 217.6 50.5079 217.94 50.0479 218.34C49.5879 218.74 49.0879 219.16 48.5479 219.6C48.0279 220.04 47.5079 220.46 46.9879 220.86C46.4879 221.24 46.0479 221.56 45.6679 221.82H42.6979V221.43C43.0179 221.05 43.3879 220.61 43.8079 220.11C44.2479 219.59 44.6779 219.06 45.0979 218.52C45.5179 217.96 45.8679 217.46 46.1479 217.02H51.1579V217.32Z" fill="white"/>
<path d="M263.532 255.91C263.532 262.17 260.692 265.3 255.012 265.3C249.312 265.3 246.462 262.17 246.462 255.91C246.462 252.57 247.172 250.15 248.592 248.65C250.012 247.13 252.152 246.37 255.012 246.37C257.872 246.37 260.002 247.13 261.402 248.65C262.822 250.15 263.532 252.57 263.532 255.91ZM251.682 260.14C252.402 261.04 253.512 261.49 255.012 261.49C256.512 261.49 257.612 261.04 258.312 260.14C259.032 259.22 259.392 257.81 259.392 255.91C259.392 253.85 259.042 252.38 258.342 251.5C257.642 250.6 256.532 250.15 255.012 250.15C253.492 250.15 252.382 250.6 251.682 251.5C250.982 252.38 250.632 253.85 250.632 255.91C250.632 257.81 250.982 259.22 251.682 260.14Z" fill="white"/>
<path d="M122.585 349.57H118.445V355H114.335V336.64H122.675C124.675 336.64 126.175 337.24 127.175 338.44C128.195 339.64 128.705 341.22 128.705 343.18C128.705 344.42 128.455 345.53 127.955 346.51C127.455 347.47 126.745 348.22 125.825 348.76C124.905 349.3 123.825 349.57 122.585 349.57ZM123.905 340.96C123.445 340.46 122.765 340.21 121.865 340.21H118.445V346.03H121.715C122.635 346.03 123.345 345.78 123.845 345.28C124.345 344.76 124.595 344.06 124.595 343.18C124.595 342.2 124.365 341.46 123.905 340.96Z" fill="white"/>
<path d="M202.5 262.5L204.735 251.171L193.807 254.9L202.5 262.5ZM272.094 233.874C270.934 219.87 264.576 209.868 255.934 203.849C247.312 197.845 236.478 195.847 226.405 197.709C216.326 199.573 206.961 205.314 201.33 214.844C195.694 224.381 193.871 237.588 198.63 254.251L200.553 253.702C195.909 237.444 197.754 224.826 203.052 215.861C208.354 206.888 217.189 201.448 226.769 199.676C236.356 197.903 246.64 199.814 254.791 205.49C262.92 211.152 268.988 220.599 270.101 234.039L272.094 233.874Z" fill="white"/>
<path fill-rule="evenodd" clip-rule="evenodd" d="M197.515 200C203.172 200 206 195.536 206 186.607C206 181.843 205.293 178.391 203.879 176.252C202.484 174.084 200.363 173 197.515 173C194.667 173 192.535 174.084 191.121 176.252C189.707 178.391 189 181.843 189 186.607C189 195.536 191.838 200 197.515 200ZM197.515 194.566C196.021 194.566 194.916 193.924 194.199 192.64C193.642 191.593 193.308 190.1 193.195 188.161H201.833C201.718 190.1 201.374 191.593 200.801 192.64C200.104 193.924 199.009 194.566 197.515 194.566ZM201.754 183.883H193.276C193.433 182.33 193.74 181.142 194.199 180.317C194.896 179.033 196.001 178.391 197.515 178.391C199.029 178.391 200.134 179.033 200.831 180.317C201.289 181.142 201.597 182.33 201.754 183.883Z" fill="white"/>
</svg>
