<svg width="468" height="468" viewBox="0 0 468 468" fill="none" xmlns="http://www.w3.org/2000/svg">
<circle cx="234.5" cy="233" r="134" fill="#9000FF" fill-opacity="0.2" stroke="white" stroke-width="2"/>
<mask id="path-2-outside-1_2091_512" maskUnits="userSpaceOnUse" x="128.531" y="97.9995" width="242" height="138" fill="black">
<rect fill="white" x="128.531" y="97.9995" width="242" height="138"/>
<path d="M131.668 148.69C149.024 127.515 172.491 112.212 198.868 104.87C225.244 97.5286 253.244 98.5062 279.044 107.669C304.844 116.833 327.188 133.735 343.024 156.069C358.861 178.403 367.419 205.081 367.53 232.46L234.531 233L131.668 148.69Z"/>
</mask>
<path d="M131.668 148.69C149.024 127.515 172.491 112.212 198.868 104.87C225.244 97.5286 253.244 98.5062 279.044 107.669C304.844 116.833 327.188 133.735 343.024 156.069C358.861 178.403 367.419 205.081 367.53 232.46L234.531 233L131.668 148.69Z" fill="#1A7E7A" fill-opacity="0.6"/>
<path d="M131.668 148.69C149.024 127.515 172.491 112.212 198.868 104.87C225.244 97.5286 253.244 98.5062 279.044 107.669C304.844 116.833 327.188 133.735 343.024 156.069C358.861 178.403 367.419 205.081 367.53 232.46L234.531 233L131.668 148.69Z" stroke="white" stroke-width="4" mask="url(#path-2-outside-1_2091_512)"/>
<path d="M233.5 58.9995L227.726 68.9995L239.273 68.9995L233.5 58.9995ZM234.5 408L234.5 67.9995L232.5 67.9995L232.5 408L234.5 408Z" fill="white"/>
<path d="M408 233.5L398 227.726V239.273L408 233.5ZM59 234.5L399 234.5V232.5L59 232.5V234.5Z" fill="white"/>
<path d="M229.316 441.45C228.336 442.49 227.086 443.01 225.566 443.01C224.926 443.01 224.386 442.97 223.946 442.89C223.526 442.83 223.106 442.7 222.686 442.5V439.53C223.166 439.73 223.706 439.83 224.306 439.83C224.966 439.83 225.496 439.66 225.896 439.32C226.296 438.98 226.696 438.44 227.096 437.7L221.396 424.5H225.716L229.106 433.5L232.586 424.5H236.816L231.926 436.92C231.166 438.92 230.296 440.43 229.316 441.45ZM246.714 415.32C246.434 415.6 246.064 415.94 245.604 416.34C245.144 416.74 244.644 417.16 244.104 417.6C243.584 418.04 243.064 418.46 242.544 418.86C242.044 419.24 241.604 419.56 241.224 419.82H238.254V419.43C238.574 419.05 238.944 418.61 239.364 418.11C239.804 417.59 240.234 417.06 240.654 416.52C241.074 415.96 241.424 415.46 241.704 415.02H246.714V415.32Z" fill="white"/>
<path d="M234.451 46.45C233.471 47.49 232.221 48.01 230.701 48.01C230.061 48.01 229.521 47.97 229.081 47.89C228.661 47.83 228.241 47.7 227.821 47.5V44.53C228.301 44.73 228.841 44.83 229.441 44.83C230.101 44.83 230.631 44.66 231.031 44.32C231.431 43.98 231.831 43.44 232.231 42.7L226.531 29.5H230.851L234.241 38.5L237.721 29.5H241.951L237.061 41.92C236.301 43.92 235.431 45.43 234.451 46.45Z" fill="white"/>
<path d="M428.018 236.31L425.348 240H420.938L425.798 233.13L421.088 226.5H425.528L428.018 229.95L430.478 226.5H434.888L430.238 233.13L435.098 240H430.628L428.018 236.31Z" fill="white"/>
<path d="M33.883 236.31L31.213 240H26.803L31.663 233.13L26.953 226.5H31.393L33.883 229.95L36.343 226.5H40.753L36.103 233.13L40.963 240H36.493L33.883 236.31ZM51.1579 217.32C50.8779 217.6 50.5079 217.94 50.0479 218.34C49.5879 218.74 49.0879 219.16 48.5479 219.6C48.0279 220.04 47.5079 220.46 46.9879 220.86C46.4879 221.24 46.0479 221.56 45.6679 221.82H42.6979V221.43C43.0179 221.05 43.3879 220.61 43.8079 220.11C44.2479 219.59 44.6779 219.06 45.0979 218.52C45.5179 217.96 45.8679 217.46 46.1479 217.02H51.1579V217.32Z" fill="white"/>
<path d="M112.585 136.57H108.445V142H104.335V123.64H112.675C114.675 123.64 116.175 124.24 117.175 125.44C118.195 126.64 118.705 128.22 118.705 130.18C118.705 131.42 118.455 132.53 117.955 133.51C117.455 134.47 116.745 135.22 115.825 135.76C114.905 136.3 113.825 136.57 112.585 136.57ZM113.905 127.96C113.445 127.46 112.765 127.21 111.865 127.21H108.445V133.03H111.715C112.635 133.03 113.345 132.78 113.845 132.28C114.345 131.76 114.595 131.06 114.595 130.18C114.595 129.2 114.365 128.46 113.905 127.96Z" fill="white"/>
<path d="M203 208L214.171 205.078L206.055 196.864L203 208ZM269.99 234.139C272.145 218.819 264.382 204.197 252.327 196.563C240.215 188.894 223.791 188.285 208.76 200.907L210.046 202.439C224.398 190.387 239.868 191.041 251.257 198.253C262.702 205.501 270.046 219.38 268.01 233.861L269.99 234.139Z" fill="white"/>
<path d="M277.984 179.738H277.702L277.642 180.014L276.779 184.035C276.24 182.581 275.632 181.465 274.946 180.706C274.061 179.727 272.921 179.238 271.555 179.238C269.632 179.238 267.993 180.088 266.651 181.739C265.299 183.403 264.646 185.703 264.646 188.593C264.646 191.524 265.24 193.833 266.477 195.474L266.478 195.475C267.719 197.108 269.405 197.929 271.5 197.929C273.013 197.929 274.335 197.577 275.45 196.859C276.334 196.29 277.073 195.5 277.673 194.5C277.966 195.66 278.252 196.491 278.537 196.963L278.537 196.963C278.926 197.606 279.532 197.929 280.301 197.929C281.254 197.929 281.991 197.386 282.515 196.433C283.047 195.478 283.32 194.256 283.356 192.789L283.364 192.43H283.006H282.339H281.997L281.989 192.772C281.971 193.505 281.824 193.994 281.6 194.293C281.39 194.573 281.081 194.728 280.615 194.728C280.314 194.728 279.994 194.553 279.67 194.039C279.353 193.536 279.069 192.761 278.829 191.689C278.979 191.236 279.226 190.245 279.567 188.744L279.568 188.743L281.476 180.164L281.571 179.738H281.134H277.984ZM274.113 182.889L274.114 182.89C274.796 183.947 275.424 185.434 275.994 187.367L275.511 189.764C275.511 189.764 275.511 189.764 275.511 189.764C275.063 191.959 274.501 193.57 273.839 194.623C273.18 195.67 272.459 196.117 271.685 196.117C271.217 196.117 270.821 195.983 270.48 195.72C270.135 195.453 269.829 195.038 269.574 194.448C269.063 193.261 268.792 191.438 268.792 188.945C268.792 186.315 269.075 184.39 269.612 183.134C269.879 182.51 270.201 182.07 270.565 181.786C270.924 181.506 271.342 181.364 271.833 181.364C272.675 181.364 273.437 181.828 274.113 182.889Z" fill="white" stroke="white" stroke-width="0.7"/>
</svg>
