<svg width="643" height="658" viewBox="0 0 643 658" fill="none" xmlns="http://www.w3.org/2000/svg">
<g clip-path="url(#clip0_2114_2396)">
<path fill-rule="evenodd" clip-rule="evenodd" d="M580.953 430.762L386.665 657.988L44.25 488.026L273.173 344.867L580.953 430.762Z" fill="url(#paint0_linear_2114_2396)"/>
<path fill-rule="evenodd" clip-rule="evenodd" d="M0 119.42L393.397 228.587L386.422 657.762L45.219 488.026L0 119.42Z" fill="url(#paint1_linear_2114_2396)"/>
<path fill-rule="evenodd" clip-rule="evenodd" d="M399.646 227.234L642.517 67.5425L580.958 430.762L386.422 657.552L399.647 227.224L399.646 227.234Z" fill="url(#paint2_linear_2114_2396)"/>
<path fill-rule="evenodd" clip-rule="evenodd" d="M396.279 223.201L0 119.42L264.042 0.00878906L643.004 67.0917L396.279 223.201Z" fill="url(#paint3_linear_2114_2396)"/>
<path fill-rule="evenodd" clip-rule="evenodd" d="M386.422 657.762L400.369 227.66L642.758 67.52L396.281 222.738L0.00195312 119.433L392.914 229.025L386.422 657.775L386.422 657.762Z" fill="white"/>
</g>
<defs>
<linearGradient id="paint0_linear_2114_2396" x1="44.2473" y1="488.903" x2="579.767" y2="419.793" gradientUnits="userSpaceOnUse">
<stop stop-opacity="0.13303"/>
<stop offset="1" stop-opacity="0"/>
</linearGradient>
<linearGradient id="paint1_linear_2114_2396" x1="43.2826" y1="488.677" x2="373.78" y2="211.31" gradientUnits="userSpaceOnUse">
<stop stop-color="#565656"/>
<stop offset="1" stop-color="white"/>
</linearGradient>
<linearGradient id="paint2_linear_2114_2396" x1="642.519" y1="477.28" x2="406.228" y2="206.999" gradientUnits="userSpaceOnUse">
<stop stop-color="#505050"/>
<stop offset="1" stop-color="#EFEFEF"/>
</linearGradient>
<linearGradient id="paint3_linear_2114_2396" x1="266.699" y1="0.000149005" x2="373.004" y2="229.544" gradientUnits="userSpaceOnUse">
<stop stop-color="#6A6A6A"/>
<stop offset="1" stop-color="#D0D0D0"/>
</linearGradient>
<clipPath id="clip0_2114_2396">
<rect width="643" height="658" fill="white"/>
</clipPath>
</defs>
</svg>
