<svg width="552" height="552" viewBox="0 0 552 552" fill="none" xmlns="http://www.w3.org/2000/svg">
<g clip-path="url(#clip0_2108_2378)">
<mask id="path-1-outside-1_2108_2378" maskUnits="userSpaceOnUse" x="123" y="58" width="311" height="427" fill="black">
<rect fill="white" x="123" y="58" width="311" height="427"/>
<path fill-rule="evenodd" clip-rule="evenodd" d="M127 70.9998V481H426L127 70.9998Z"/>
</mask>
<path fill-rule="evenodd" clip-rule="evenodd" d="M127 70.9998V481H426L127 70.9998Z" fill="#9000FF" fill-opacity="0.2"/>
<path d="M127 481H123V485H127V481ZM127 70.9998L130.232 68.6429L123 58.7263V70.9998H127ZM426 481V485H433.868L429.232 478.643L426 481ZM131 481V70.9998H123V481H131ZM426 477H127V485H426V477ZM429.232 478.643L130.232 68.6429L123.768 73.3567L422.768 483.357L429.232 478.643Z" fill="white" mask="url(#path-1-outside-1_2108_2378)"/>
<path d="M159.226 112.581C149.652 119.769 138.059 123.761 126.089 123.99L125 67L159.226 112.581Z" stroke="white" stroke-width="4"/>
<path d="M371.217 482.856C371.275 473.661 373.557 464.616 377.868 456.494C382.179 448.371 388.391 441.413 395.974 436.211L428.216 483.216L371.217 482.856Z" stroke="white" stroke-width="4"/>
<path fill-rule="evenodd" clip-rule="evenodd" d="M152.515 164C158.172 164 161 159.536 161 150.607C161 145.843 160.293 142.391 158.879 140.252C157.484 138.084 155.363 137 152.515 137C149.667 137 147.535 138.084 146.121 140.252C144.707 142.391 144 145.843 144 150.607C144 159.536 146.838 164 152.515 164ZM152.515 158.566C151.021 158.566 149.916 157.924 149.199 156.64C148.642 155.593 148.308 154.1 148.195 152.161H156.833C156.718 154.1 156.374 155.593 155.801 156.64C155.104 157.924 154.009 158.566 152.515 158.566ZM156.754 147.883H148.276C148.433 146.33 148.74 145.142 149.199 144.317C149.896 143.033 151.001 142.391 152.515 142.391C154.029 142.391 155.134 143.033 155.831 144.317C156.289 145.142 156.597 146.33 156.754 147.883Z" fill="white"/>
<path d="M359.988 440.15H359.706L359.646 440.427L358.783 444.447C358.244 442.993 357.636 441.877 356.95 441.118C356.065 440.139 354.925 439.65 353.559 439.65C351.636 439.65 349.997 440.5 348.655 442.151C347.303 443.815 346.65 446.115 346.65 449.005C346.65 451.936 347.244 454.246 348.481 455.886L348.482 455.887C349.723 457.52 351.409 458.341 353.503 458.341C355.017 458.341 356.339 457.989 357.454 457.271C358.338 456.702 359.077 455.912 359.677 454.912C359.97 456.072 360.256 456.903 360.541 457.375L360.541 457.375C360.93 458.018 361.535 458.341 362.304 458.341C363.258 458.341 363.995 457.799 364.519 456.845C365.051 455.89 365.323 454.668 365.36 453.201L365.368 452.842H365.01H364.343H364.001L363.993 453.184C363.975 453.917 363.828 454.406 363.604 454.705C363.394 454.985 363.085 455.14 362.619 455.14C362.318 455.14 361.998 454.965 361.674 454.451C361.357 453.948 361.073 453.173 360.833 452.101C360.983 451.648 361.23 450.657 361.571 449.156L361.571 449.155L363.48 440.576L363.575 440.15H363.138H359.988ZM356.117 443.301L356.118 443.302C356.799 444.359 357.428 445.847 357.998 447.779L357.515 450.176C357.515 450.176 357.515 450.176 357.515 450.176C357.067 452.372 356.504 453.982 355.843 455.035C355.184 456.082 354.463 456.529 353.689 456.529C353.221 456.529 352.825 456.396 352.484 456.132C352.139 455.865 351.832 455.45 351.578 454.86C351.066 453.673 350.796 451.85 350.796 449.357C350.796 446.728 351.079 444.802 351.616 443.547C351.883 442.922 352.205 442.482 352.569 442.198C352.928 441.918 353.345 441.776 353.837 441.776C354.679 441.776 355.441 442.24 356.117 443.301Z" fill="white" stroke="white" stroke-width="0.7"/>
<path d="M98.5278 52.24L96.4878 58H90.7678L99.5678 33.52H105.448L114.248 58H108.608L106.488 52.24H98.5278ZM105.808 48.04L102.528 39.2L99.2078 48.04H105.808Z" fill="white"/>
<path d="M307.047 268.08L303.487 273H297.607L304.087 263.84L297.807 255H303.727L307.047 259.6L310.327 255H316.207L310.007 263.84L316.487 273H310.527L307.047 268.08Z" fill="white"/>
<path d="M465.186 482.2C462.972 483 460.666 483.4 458.266 483.4C454.212 483.4 451.159 482.333 449.106 480.2C447.052 478.067 446.026 475.027 446.026 471.08C446.026 466.893 447.026 463.693 449.026 461.48C451.026 459.267 454.092 458.16 458.226 458.16C460.839 458.16 463.146 458.56 465.146 459.36V464.6C463.012 463.667 460.839 463.2 458.626 463.2C456.199 463.2 454.412 463.867 453.266 465.2C452.146 466.507 451.586 468.467 451.586 471.08C451.586 475.907 453.959 478.32 458.706 478.32C460.866 478.32 463.026 477.867 465.186 476.96V482.2Z" fill="white"/>
<path d="M112.415 481.16C111.135 482.387 109.295 483 106.895 483H94.5347V458.52H106.495C108.788 458.52 110.521 459.093 111.695 460.24C112.868 461.36 113.455 463.013 113.455 465.2C113.455 466.453 113.228 467.52 112.775 468.4C112.321 469.28 111.695 469.96 110.895 470.44C112.041 470.84 112.895 471.467 113.455 472.32C114.041 473.147 114.335 474.307 114.335 475.8C114.335 478.147 113.695 479.933 112.415 481.16ZM107.615 463.44C107.135 462.933 106.295 462.68 105.095 462.68H99.6547V468.68H105.375C107.375 468.68 108.375 467.693 108.375 465.72C108.375 464.68 108.121 463.92 107.615 463.44ZM107.895 473.2C107.308 472.72 106.441 472.48 105.295 472.48H99.6547V478.84H105.535C106.655 478.84 107.468 478.573 107.975 478.04C108.508 477.507 108.775 476.667 108.775 475.52C108.775 474.427 108.481 473.653 107.895 473.2Z" fill="white"/>
<path d="M263.861 498.6C264.395 501.72 264.661 504.12 264.661 505.8C264.661 506.04 264.635 506.293 264.581 506.56C264.795 506.853 265.048 507.08 265.341 507.24C265.661 507.373 266.061 507.44 266.541 507.44C267.101 507.44 267.568 507.28 267.941 506.96C268.341 506.613 268.541 506.16 268.541 505.6C268.541 504.8 268.288 502.813 267.781 499.64L272.901 498.6C273.408 501.827 273.661 504.253 273.661 505.88C273.661 507.213 273.368 508.4 272.781 509.44C272.221 510.48 271.435 511.293 270.421 511.88C269.435 512.467 268.301 512.76 267.021 512.76C266.035 512.76 265.128 512.6 264.301 512.28C263.475 511.933 262.875 511.507 262.501 511C262.075 511.56 261.448 512 260.621 512.32C259.821 512.613 258.955 512.76 258.021 512.76C256.981 512.76 256.221 512.613 255.741 512.32V513.72V524H250.661V513.8C250.661 511.187 250.528 508.947 250.261 507.08C249.995 505.213 249.461 502.96 248.661 500.32L253.541 498.6L255.341 505.56C255.635 506.813 256.368 507.44 257.541 507.44C258.128 507.44 258.608 507.28 258.981 506.96C259.381 506.613 259.581 506.16 259.581 505.6C259.581 504.853 259.315 502.867 258.781 499.64L263.861 498.6Z" fill="white"/>
<path d="M100.196 286.72C99.8223 285.947 99.6356 284.973 99.6356 283.8C99.6356 282.493 99.969 281.293 100.636 280.2C101.329 279.08 102.262 278.2 103.436 277.56C104.636 276.92 105.956 276.6 107.396 276.6C109.102 276.6 110.849 277 112.636 277.8L111.356 282.48C109.969 281.947 108.716 281.68 107.596 281.68C106.689 281.68 105.956 281.947 105.396 282.48C104.862 283.013 104.596 283.68 104.596 284.48C104.596 285.36 104.822 286.04 105.276 286.52C105.756 287 106.342 287.24 107.036 287.24C108.502 287.24 110.342 286.787 112.556 285.88L113.796 290.56C110.862 291.867 107.982 292.52 105.156 292.52C103.742 292.52 102.462 292.4 101.316 292.16C100.169 291.893 99.2223 291.533 98.4756 291.08V292.36V302H93.3956V291.8C93.3956 289.187 93.2623 286.947 92.9956 285.08C92.729 283.213 92.1956 280.96 91.3956 278.32L96.2756 276.6C96.569 277.507 96.889 278.76 97.2356 280.36C97.5823 281.96 97.8623 283.4 98.0756 284.68C98.1823 285.24 98.3823 285.68 98.6756 286C98.969 286.293 99.4756 286.533 100.196 286.72Z" fill="white"/>
</g>
<defs>
<clipPath id="clip0_2108_2378">
<rect width="552" height="552" fill="white"/>
</clipPath>
</defs>
</svg>
