<svg width="594" height="426" viewBox="0 0 594 426" fill="none" xmlns="http://www.w3.org/2000/svg">
<rect x="405" y="81" width="122" height="71" stroke="#AA00FF" stroke-width="4"/>
<path d="M457.396 122.2C457.396 123.583 457.121 124.792 456.571 125.825C456.021 126.858 455.238 127.65 454.221 128.2C453.221 128.767 452.054 129.05 450.721 129.05H449.996L449.771 126.35H450.696C451.979 126.35 452.979 125.983 453.696 125.25C454.429 124.533 454.796 123.517 454.796 122.2V114.7H457.396V122.2ZM454.446 111.85V109.4H457.446V111.85H454.446ZM458.814 126.35C460.097 126.35 461.097 125.983 461.814 125.25C462.547 124.533 462.914 123.517 462.914 122.2V114.7H465.514V118.55C465.514 119.717 466.147 120.3 467.414 120.3H467.764C467.931 120.3 468.014 120.767 468.014 121.7C468.014 122.567 467.931 123 467.764 123H467.414C466.997 123 466.614 122.942 466.264 122.825C465.931 122.692 465.681 122.517 465.514 122.3V122.45C465.481 123.75 465.181 124.9 464.614 125.9C464.064 126.9 463.289 127.675 462.289 128.225C461.306 128.775 460.156 129.05 458.839 129.05H458.114L457.889 126.35H458.814ZM477.733 102.5L478.208 104.125L469.483 107.725V105.95L477.733 102.5ZM474.083 120.3C474.717 120.3 475.208 120.192 475.558 119.975C475.908 119.742 476.083 119.433 476.083 119.05C476.083 118.733 476.008 118.442 475.858 118.175C475.708 117.908 475.467 117.6 475.133 117.25L469.483 111.675V109.5L478.733 105.875L479.508 108.35L472.583 111L477.083 115.55C478.133 116.583 478.658 117.775 478.658 119.125C478.658 120.275 478.258 121.208 477.458 121.925C476.658 122.642 475.533 123 474.083 123H467.258C467.092 123 467.008 122.567 467.008 121.7C467.008 120.767 467.092 120.3 467.258 120.3H474.083Z" fill="white"/>
<path d="M206.838 60.65C206.304 60.65 205.904 60.5167 205.638 60.25C205.388 59.9833 205.263 59.55 205.263 58.95C205.263 58.35 205.388 57.9333 205.638 57.7C205.888 57.45 206.288 57.325 206.838 57.325C207.388 57.325 207.788 57.45 208.038 57.7C208.304 57.9333 208.438 58.35 208.438 58.95C208.438 59.55 208.304 59.9833 208.038 60.25C207.771 60.5167 207.371 60.65 206.838 60.65ZM206.838 67C206.304 67 205.904 66.8667 205.638 66.6C205.388 66.3333 205.263 65.9 205.263 65.3C205.263 64.7 205.388 64.2833 205.638 64.05C205.888 63.8 206.288 63.675 206.838 63.675C207.388 63.675 207.788 63.8 208.038 64.05C208.304 64.2833 208.438 64.7 208.438 65.3C208.438 65.9 208.304 66.3333 208.038 66.6C207.771 66.8667 207.371 67 206.838 67ZM216.722 64.3C216.805 64.3 216.864 64.3917 216.897 64.575C216.947 64.7583 216.972 65.1333 216.972 65.7C216.972 66.2333 216.947 66.5833 216.897 66.75C216.864 66.9167 216.805 67 216.722 67H215.972C214.639 67 213.63 66.6083 212.947 65.825C212.264 65.0417 211.922 63.9333 211.922 62.5V50.85H214.497V62.325C214.497 63.0083 214.622 63.5083 214.872 63.825C215.139 64.1417 215.555 64.3 216.122 64.3H216.722ZM219.23 64.3C219.764 64.3 220.189 64.1667 220.505 63.9C220.839 63.6167 221.005 63.225 221.005 62.725V58.7H223.605V62.625C223.605 63.7417 224.18 64.3 225.33 64.3H226.18C226.347 64.3 226.43 64.7583 226.43 65.675C226.43 66.5583 226.347 67 226.18 67H225.23C223.747 67 222.764 66.55 222.28 65.65C221.697 66.55 220.68 67 219.23 67H216.23C216.064 67 215.98 66.5667 215.98 65.7C215.98 64.7667 216.064 64.3 216.23 64.3H219.23ZM219.505 55.85V53.4H222.505V55.85H219.505ZM227.591 64.3C228.491 64.3 229.166 64.2833 229.616 64.25C230.066 64.2 230.425 64.125 230.691 64.025L227.591 59.525L228.941 57H235.266C236.3 57 237.133 57.2417 237.766 57.725C238.4 58.2083 238.716 58.9167 238.716 59.85C238.716 60.5333 238.525 61.1833 238.141 61.8C237.775 62.4 237.05 63.175 235.966 64.125C236.333 64.2417 237.066 64.3 238.166 64.3H240.766C240.85 64.3 240.908 64.3917 240.941 64.575C240.991 64.7583 241.016 65.1333 241.016 65.7C241.016 66.2333 240.991 66.5833 240.941 66.75C240.908 66.9167 240.85 67 240.766 67H238.166C236.633 67 235.525 66.9167 234.841 66.75C234.158 66.5833 233.566 66.2667 233.066 65.8C232.366 66.25 231.591 66.5667 230.741 66.75C229.891 66.9167 228.808 67 227.491 67H225.691C225.525 67 225.441 66.5667 225.441 65.7C225.441 64.7667 225.525 64.3 225.691 64.3H227.591ZM236.241 60.375C236.241 60.0917 236.125 59.875 235.891 59.725C235.658 59.575 235.333 59.5 234.916 59.5H230.491L233.316 63.65C234.466 62.6667 235.241 61.95 235.641 61.5C236.041 61.05 236.241 60.675 236.241 60.375ZM240.855 64.3C241.405 64.3 241.797 64.1917 242.03 63.975C242.28 63.7417 242.405 63.3833 242.405 62.9V62.025C242.405 60.425 242.847 59.1583 243.73 58.225C244.63 57.2917 245.847 56.825 247.38 56.825C248.913 56.825 250.088 57.275 250.905 58.175C251.722 59.0583 252.13 60.3333 252.13 62C252.13 63.5833 251.697 64.8167 250.83 65.7C249.98 66.5667 248.797 67 247.28 67C246.43 67 245.713 66.8833 245.13 66.65C244.547 66.4 244.122 66.0583 243.855 65.625C243.555 66.1083 243.163 66.4583 242.68 66.675C242.213 66.8917 241.605 67 240.855 67H240.255C240.088 67 240.005 66.5667 240.005 65.7C240.005 64.7667 240.088 64.3 240.255 64.3H240.855ZM249.555 62C249.555 61.1333 249.363 60.4917 248.98 60.075C248.613 59.6417 248.047 59.425 247.28 59.425C246.513 59.425 245.938 59.6417 245.555 60.075C245.188 60.4917 245.005 61.1417 245.005 62.025C245.005 62.7583 245.197 63.325 245.58 63.725C245.963 64.1083 246.53 64.3 247.28 64.3C248.047 64.3 248.613 64.1167 248.98 63.75C249.363 63.3667 249.555 62.7833 249.555 62Z" fill="white"/>
<path d="M110.924 175.65C110.39 175.65 109.99 175.517 109.724 175.25C109.474 174.983 109.349 174.55 109.349 173.95C109.349 173.35 109.474 172.933 109.724 172.7C109.974 172.45 110.374 172.325 110.924 172.325C111.474 172.325 111.874 172.45 112.124 172.7C112.39 172.933 112.524 173.35 112.524 173.95C112.524 174.55 112.39 174.983 112.124 175.25C111.857 175.517 111.457 175.65 110.924 175.65ZM110.924 182C110.39 182 109.99 181.867 109.724 181.6C109.474 181.333 109.349 180.9 109.349 180.3C109.349 179.7 109.474 179.283 109.724 179.05C109.974 178.8 110.374 178.675 110.924 178.675C111.474 178.675 111.874 178.8 112.124 179.05C112.39 179.283 112.524 179.7 112.524 180.3C112.524 180.9 112.39 181.333 112.124 181.6C111.857 181.867 111.457 182 110.924 182ZM133.308 179.3C133.474 179.3 133.558 179.767 133.558 180.7C133.558 181.567 133.474 182 133.308 182H130.858C131.041 182.217 131.133 182.55 131.133 183C131.133 183.983 130.849 184.858 130.283 185.625C129.716 186.392 128.916 186.983 127.883 187.4C126.849 187.833 125.658 188.05 124.308 188.05H122.408C120.274 188.05 118.633 187.433 117.483 186.2C116.333 184.983 115.758 183.267 115.758 181.05V176.2H118.333V181C118.333 183.9 119.699 185.35 122.433 185.35H124.308C125.724 185.35 126.783 185.15 127.483 184.75C128.183 184.35 128.533 183.775 128.533 183.025C128.533 182.625 128.424 182.333 128.208 182.15C128.008 181.983 127.683 181.9 127.233 181.9H122.733L122.983 179.3H133.308ZM138.891 179.3C139.408 179.3 139.825 179.167 140.141 178.9C140.458 178.617 140.616 178.225 140.616 177.725V173.7H143.216V177.8C143.216 179.117 142.825 180.15 142.041 180.9C141.275 181.633 140.225 182 138.891 182H132.816C132.65 182 132.566 181.567 132.566 180.7C132.566 179.767 132.65 179.3 132.816 179.3H138.891ZM139.866 184.925V187.325H133.066V184.925H139.866ZM151.497 179.3C151.581 179.3 151.639 179.392 151.672 179.575C151.722 179.758 151.747 180.133 151.747 180.7C151.747 181.233 151.722 181.583 151.672 181.75C151.639 181.917 151.581 182 151.497 182H150.747C149.414 182 148.406 181.608 147.722 180.825C147.039 180.042 146.697 178.933 146.697 177.5V165.85H149.272V177.325C149.272 178.008 149.397 178.508 149.647 178.825C149.914 179.142 150.331 179.3 150.897 179.3H151.497ZM154.006 179.3C154.539 179.3 154.964 179.167 155.281 178.9C155.614 178.617 155.781 178.225 155.781 177.725V173.7H158.381V177.625C158.381 178.742 158.956 179.3 160.106 179.3H160.956C161.123 179.3 161.206 179.758 161.206 180.675C161.206 181.558 161.123 182 160.956 182H160.006C158.523 182 157.539 181.55 157.056 180.65C156.473 181.55 155.456 182 154.006 182H151.006C150.839 182 150.756 181.567 150.756 180.7C150.756 179.767 150.839 179.3 151.006 179.3H154.006ZM154.281 170.85V168.4H157.281V170.85H154.281ZM162.367 179.3C163.267 179.3 163.942 179.283 164.392 179.25C164.842 179.2 165.2 179.125 165.467 179.025L162.367 174.525L163.717 172H170.042C171.075 172 171.908 172.242 172.542 172.725C173.175 173.208 173.492 173.917 173.492 174.85C173.492 175.533 173.3 176.183 172.917 176.8C172.55 177.4 171.825 178.175 170.742 179.125C171.108 179.242 171.842 179.3 172.942 179.3H175.542C175.625 179.3 175.683 179.392 175.717 179.575C175.767 179.758 175.792 180.133 175.792 180.7C175.792 181.233 175.767 181.583 175.717 181.75C175.683 181.917 175.625 182 175.542 182H172.942C171.408 182 170.3 181.917 169.617 181.75C168.933 181.583 168.342 181.267 167.842 180.8C167.142 181.25 166.367 181.567 165.517 181.75C164.667 181.917 163.583 182 162.267 182H160.467C160.3 182 160.217 181.567 160.217 180.7C160.217 179.767 160.3 179.3 160.467 179.3H162.367ZM171.017 175.375C171.017 175.092 170.9 174.875 170.667 174.725C170.433 174.575 170.108 174.5 169.692 174.5H165.267L168.092 178.65C169.242 177.667 170.017 176.95 170.417 176.5C170.817 176.05 171.017 175.675 171.017 175.375ZM175.63 179.3C176.18 179.3 176.572 179.192 176.805 178.975C177.055 178.742 177.18 178.383 177.18 177.9V177.025C177.18 175.425 177.622 174.158 178.505 173.225C179.405 172.292 180.622 171.825 182.155 171.825C183.689 171.825 184.864 172.275 185.68 173.175C186.497 174.058 186.905 175.333 186.905 177C186.905 178.583 186.472 179.817 185.605 180.7C184.755 181.567 183.572 182 182.055 182C181.205 182 180.489 181.883 179.905 181.65C179.322 181.4 178.897 181.058 178.63 180.625C178.33 181.108 177.939 181.458 177.455 181.675C176.989 181.892 176.38 182 175.63 182H175.03C174.864 182 174.78 181.567 174.78 180.7C174.78 179.767 174.864 179.3 175.03 179.3H175.63ZM184.33 177C184.33 176.133 184.139 175.492 183.755 175.075C183.389 174.642 182.822 174.425 182.055 174.425C181.289 174.425 180.714 174.642 180.33 175.075C179.964 175.492 179.78 176.142 179.78 177.025C179.78 177.758 179.972 178.325 180.355 178.725C180.739 179.108 181.305 179.3 182.055 179.3C182.822 179.3 183.389 179.117 183.755 178.75C184.139 178.367 184.33 177.783 184.33 177ZM205.185 177.15C205.185 177.917 205.318 178.467 205.585 178.8C205.851 179.133 206.243 179.3 206.76 179.3H207.46C207.543 179.3 207.601 179.392 207.635 179.575C207.685 179.758 207.71 180.133 207.71 180.7C207.71 181.233 207.685 181.583 207.635 181.75C207.601 181.917 207.543 182 207.46 182H206.76C205.843 182 205.093 181.833 204.51 181.5C203.943 181.15 203.551 180.592 203.335 179.825C202.985 180.158 202.51 180.408 201.91 180.575C201.31 180.742 200.676 180.825 200.01 180.825C198.543 180.825 197.426 180.433 196.66 179.65C195.893 178.85 195.51 177.675 195.51 176.125C195.51 175.192 195.718 174.333 196.135 173.55C196.551 172.75 197.135 172.117 197.885 171.65C198.651 171.167 199.526 170.925 200.51 170.925H202.61V169.25H205.185V177.15ZM198.085 176.1C198.085 177.45 198.768 178.125 200.135 178.125C200.918 178.125 201.526 177.992 201.96 177.725C202.393 177.442 202.61 177.058 202.61 176.575V173.525H200.51C199.743 173.525 199.143 173.75 198.71 174.2C198.293 174.633 198.085 175.267 198.085 176.1ZM213.778 179.3C214.411 179.3 214.903 179.192 215.253 178.975C215.603 178.742 215.778 178.433 215.778 178.05C215.778 177.733 215.703 177.442 215.553 177.175C215.403 176.908 215.161 176.6 214.828 176.25L209.178 170.675V168.5L218.428 164.875L219.203 167.35L212.278 170L216.753 174.525C218.286 176.042 219.411 177.125 220.128 177.775C220.861 178.408 221.445 178.825 221.878 179.025C222.311 179.208 222.811 179.3 223.378 179.3C223.545 179.3 223.628 179.767 223.628 180.7C223.628 181.567 223.545 182 223.378 182C222.595 182 221.953 181.942 221.453 181.825C220.97 181.692 220.47 181.442 219.953 181.075C219.453 180.708 218.811 180.133 218.028 179.35C217.845 180.167 217.378 180.817 216.628 181.3C215.878 181.767 214.928 182 213.778 182H206.953C206.786 182 206.703 181.567 206.703 180.7C206.703 179.767 206.786 179.3 206.953 179.3H213.778ZM225.884 179.3C226.417 179.3 226.842 179.167 227.159 178.9C227.492 178.617 227.659 178.225 227.659 177.725V173.7H230.259V177.625C230.259 178.742 230.834 179.3 231.984 179.3H232.834C233 179.3 233.084 179.758 233.084 180.675C233.084 181.558 233 182 232.834 182H231.884C230.4 182 229.417 181.55 228.934 180.65C228.35 181.55 227.334 182 225.884 182H222.884C222.717 182 222.634 181.567 222.634 180.7C222.634 179.767 222.717 179.3 222.884 179.3H225.884ZM223.184 187.375V184.925H226.184V187.375H223.184ZM234.32 179.3C235.003 179.3 235.52 179.15 235.87 178.85C236.22 178.533 236.395 178.092 236.395 177.525V173.7H238.995V177.525C238.995 178.708 239.67 179.3 241.02 179.3C241.703 179.3 242.22 179.15 242.57 178.85C242.92 178.533 243.095 178.092 243.095 177.525V173.7H245.695V177.525C245.695 178.092 245.853 178.533 246.17 178.85C246.486 179.15 246.961 179.3 247.595 179.3C248.245 179.3 248.728 179.15 249.045 178.85C249.378 178.533 249.545 178.092 249.545 177.525V173.7H252.12V177.5C252.12 178.917 251.72 180.025 250.92 180.825C250.12 181.608 249.011 182 247.595 182C245.895 182 244.795 181.517 244.295 180.55C243.645 181.517 242.553 182 241.02 182C240.086 182 239.345 181.883 238.795 181.65C238.245 181.4 237.845 181.033 237.595 180.55C236.945 181.517 235.853 182 234.32 182H232.345C232.178 182 232.095 181.567 232.095 180.7C232.095 179.767 232.178 179.3 232.345 179.3H234.32ZM245.62 164.775V167.1H242.995V164.775H245.62ZM247.695 168.45V170.85H240.895V168.45H247.695Z" fill="white"/>
<line x1="403" y1="119" x2="341" y2="119" stroke="#AA00FF" stroke-width="4"/>
<line x1="339" y1="178" x2="339" y2="60" stroke="#AA00FF" stroke-width="4"/>
<path d="M279 61L299 72.547L299 49.453L279 61ZM341 59L297 59L297 63L341 63L341 59Z" fill="#AA00FF"/>
<path d="M279 176L299 187.547L299 164.453L279 176ZM341 174L297 174L297 178L341 178L341 174Z" fill="#AA00FF"/>
<rect x="405" y="272" width="122" height="71" stroke="#AA00FF" stroke-width="4"/>
<path d="M442.884 320.05C440.751 320.05 439.109 319.433 437.959 318.2C436.809 316.983 436.234 315.267 436.234 313.05V308.2H438.809V313C438.809 315.9 440.176 317.35 442.909 317.35H443.934C445.267 317.35 446.317 316.983 447.084 316.25C447.851 315.517 448.234 314.508 448.234 313.225V305.7H450.834V313C450.834 314.467 450.542 315.725 449.959 316.775C449.376 317.842 448.559 318.65 447.509 319.2C446.476 319.767 445.284 320.05 443.934 320.05H442.884ZM441.534 305.1V302.65H444.534V305.1H441.534ZM454.343 297.85H456.918V314H454.343V297.85ZM472.304 311.3C472.471 311.3 472.554 311.767 472.554 312.7C472.554 313.567 472.471 314 472.304 314H470.079C469.913 315.9 469.254 317.383 468.104 318.45C466.971 319.517 465.479 320.05 463.629 320.05H460.404L460.179 317.35H463.704C464.888 317.35 465.821 317.05 466.504 316.45C467.188 315.85 467.538 315.033 467.554 314H465.404C463.638 314 462.371 313.642 461.604 312.925C460.838 312.192 460.454 311.05 460.454 309.5C460.454 308.433 460.654 307.492 461.054 306.675C461.471 305.858 462.046 305.225 462.779 304.775C463.529 304.308 464.388 304.075 465.354 304.075C466.838 304.075 468.004 304.575 468.854 305.575C469.704 306.558 470.129 307.908 470.129 309.625V311.3H472.304ZM463.054 309.375C463.054 310.075 463.238 310.575 463.604 310.875C463.971 311.158 464.613 311.3 465.529 311.3H467.554V309.675C467.554 308.692 467.354 307.95 466.954 307.45C466.554 306.933 465.979 306.675 465.229 306.675C464.546 306.675 464.013 306.925 463.629 307.425C463.246 307.908 463.054 308.558 463.054 309.375ZM476.474 311.3C477.008 311.3 477.433 311.167 477.749 310.9C478.083 310.617 478.249 310.225 478.249 309.725V305.7H480.824V309.625C480.824 310.742 481.399 311.3 482.549 311.3H483.424C483.591 311.3 483.674 311.758 483.674 312.675C483.674 313.558 483.591 314 483.424 314H482.449C480.983 314 480.008 313.55 479.524 312.65C478.941 313.55 477.924 314 476.474 314H471.799C471.633 314 471.549 313.567 471.549 312.7C471.549 311.767 471.633 311.3 471.799 311.3H476.474ZM478.199 316.925V319.325H471.399V316.925H478.199ZM489.745 311.3C490.379 311.3 490.87 311.192 491.22 310.975C491.57 310.742 491.745 310.433 491.745 310.05C491.745 309.733 491.67 309.442 491.52 309.175C491.37 308.908 491.129 308.6 490.795 308.25L485.145 302.675V300.5L494.395 296.875L495.17 299.35L488.245 302L492.745 306.55C493.795 307.583 494.32 308.775 494.32 310.125C494.32 311.275 493.92 312.208 493.12 312.925C492.32 313.642 491.195 314 489.745 314H482.92C482.754 314 482.67 313.567 482.67 312.7C482.67 311.767 482.754 311.3 482.92 311.3H489.745Z" fill="white"/>
<path d="M206.838 251.65C206.304 251.65 205.904 251.517 205.638 251.25C205.388 250.983 205.263 250.55 205.263 249.95C205.263 249.35 205.388 248.933 205.638 248.7C205.888 248.45 206.288 248.325 206.838 248.325C207.388 248.325 207.788 248.45 208.038 248.7C208.304 248.933 208.438 249.35 208.438 249.95C208.438 250.55 208.304 250.983 208.038 251.25C207.771 251.517 207.371 251.65 206.838 251.65ZM206.838 258C206.304 258 205.904 257.867 205.638 257.6C205.388 257.333 205.263 256.9 205.263 256.3C205.263 255.7 205.388 255.283 205.638 255.05C205.888 254.8 206.288 254.675 206.838 254.675C207.388 254.675 207.788 254.8 208.038 255.05C208.304 255.283 208.438 255.7 208.438 256.3C208.438 256.9 208.304 257.333 208.038 257.6C207.771 257.867 207.371 258 206.838 258ZM216.722 255.3C216.805 255.3 216.864 255.392 216.897 255.575C216.947 255.758 216.972 256.133 216.972 256.7C216.972 257.233 216.947 257.583 216.897 257.75C216.864 257.917 216.805 258 216.722 258H215.972C214.639 258 213.63 257.608 212.947 256.825C212.264 256.042 211.922 254.933 211.922 253.5V241.85H214.497V253.325C214.497 254.008 214.622 254.508 214.872 254.825C215.139 255.142 215.555 255.3 216.122 255.3H216.722ZM219.23 255.3C219.764 255.3 220.189 255.167 220.505 254.9C220.839 254.617 221.005 254.225 221.005 253.725V249.7H223.605V253.625C223.605 254.742 224.18 255.3 225.33 255.3H226.18C226.347 255.3 226.43 255.758 226.43 256.675C226.43 257.558 226.347 258 226.18 258H225.23C223.747 258 222.764 257.55 222.28 256.65C221.697 257.55 220.68 258 219.23 258H216.23C216.064 258 215.98 257.567 215.98 256.7C215.98 255.767 216.064 255.3 216.23 255.3H219.23ZM219.505 246.85V244.4H222.505V246.85H219.505ZM227.591 255.3C228.491 255.3 229.166 255.283 229.616 255.25C230.066 255.2 230.425 255.125 230.691 255.025L227.591 250.525L228.941 248H235.266C236.3 248 237.133 248.242 237.766 248.725C238.4 249.208 238.716 249.917 238.716 250.85C238.716 251.533 238.525 252.183 238.141 252.8C237.775 253.4 237.05 254.175 235.966 255.125C236.333 255.242 237.066 255.3 238.166 255.3H240.766C240.85 255.3 240.908 255.392 240.941 255.575C240.991 255.758 241.016 256.133 241.016 256.7C241.016 257.233 240.991 257.583 240.941 257.75C240.908 257.917 240.85 258 240.766 258H238.166C236.633 258 235.525 257.917 234.841 257.75C234.158 257.583 233.566 257.267 233.066 256.8C232.366 257.25 231.591 257.567 230.741 257.75C229.891 257.917 228.808 258 227.491 258H225.691C225.525 258 225.441 257.567 225.441 256.7C225.441 255.767 225.525 255.3 225.691 255.3H227.591ZM236.241 251.375C236.241 251.092 236.125 250.875 235.891 250.725C235.658 250.575 235.333 250.5 234.916 250.5H230.491L233.316 254.65C234.466 253.667 235.241 252.95 235.641 252.5C236.041 252.05 236.241 251.675 236.241 251.375ZM240.855 255.3C241.405 255.3 241.797 255.192 242.03 254.975C242.28 254.742 242.405 254.383 242.405 253.9V253.025C242.405 251.425 242.847 250.158 243.73 249.225C244.63 248.292 245.847 247.825 247.38 247.825C248.913 247.825 250.088 248.275 250.905 249.175C251.722 250.058 252.13 251.333 252.13 253C252.13 254.583 251.697 255.817 250.83 256.7C249.98 257.567 248.797 258 247.28 258C246.43 258 245.713 257.883 245.13 257.65C244.547 257.4 244.122 257.058 243.855 256.625C243.555 257.108 243.163 257.458 242.68 257.675C242.213 257.892 241.605 258 240.855 258H240.255C240.088 258 240.005 257.567 240.005 256.7C240.005 255.767 240.088 255.3 240.255 255.3H240.855ZM249.555 253C249.555 252.133 249.363 251.492 248.98 251.075C248.613 250.642 248.047 250.425 247.28 250.425C246.513 250.425 245.938 250.642 245.555 251.075C245.188 251.492 245.005 252.142 245.005 253.025C245.005 253.758 245.197 254.325 245.58 254.725C245.963 255.108 246.53 255.3 247.28 255.3C248.047 255.3 248.613 255.117 248.98 254.75C249.363 254.367 249.555 253.783 249.555 253Z" fill="white"/>
<path d="M110.924 366.65C110.39 366.65 109.99 366.517 109.724 366.25C109.474 365.983 109.349 365.55 109.349 364.95C109.349 364.35 109.474 363.933 109.724 363.7C109.974 363.45 110.374 363.325 110.924 363.325C111.474 363.325 111.874 363.45 112.124 363.7C112.39 363.933 112.524 364.35 112.524 364.95C112.524 365.55 112.39 365.983 112.124 366.25C111.857 366.517 111.457 366.65 110.924 366.65ZM110.924 373C110.39 373 109.99 372.867 109.724 372.6C109.474 372.333 109.349 371.9 109.349 371.3C109.349 370.7 109.474 370.283 109.724 370.05C109.974 369.8 110.374 369.675 110.924 369.675C111.474 369.675 111.874 369.8 112.124 370.05C112.39 370.283 112.524 370.7 112.524 371.3C112.524 371.9 112.39 372.333 112.124 372.6C111.857 372.867 111.457 373 110.924 373ZM133.308 370.3C133.474 370.3 133.558 370.767 133.558 371.7C133.558 372.567 133.474 373 133.308 373H130.858C131.041 373.217 131.133 373.55 131.133 374C131.133 374.983 130.849 375.858 130.283 376.625C129.716 377.392 128.916 377.983 127.883 378.4C126.849 378.833 125.658 379.05 124.308 379.05H122.408C120.274 379.05 118.633 378.433 117.483 377.2C116.333 375.983 115.758 374.267 115.758 372.05V367.2H118.333V372C118.333 374.9 119.699 376.35 122.433 376.35H124.308C125.724 376.35 126.783 376.15 127.483 375.75C128.183 375.35 128.533 374.775 128.533 374.025C128.533 373.625 128.424 373.333 128.208 373.15C128.008 372.983 127.683 372.9 127.233 372.9H122.733L122.983 370.3H133.308ZM138.891 370.3C139.408 370.3 139.825 370.167 140.141 369.9C140.458 369.617 140.616 369.225 140.616 368.725V364.7H143.216V368.8C143.216 370.117 142.825 371.15 142.041 371.9C141.275 372.633 140.225 373 138.891 373H132.816C132.65 373 132.566 372.567 132.566 371.7C132.566 370.767 132.65 370.3 132.816 370.3H138.891ZM139.866 375.925V378.325H133.066V375.925H139.866ZM151.497 370.3C151.581 370.3 151.639 370.392 151.672 370.575C151.722 370.758 151.747 371.133 151.747 371.7C151.747 372.233 151.722 372.583 151.672 372.75C151.639 372.917 151.581 373 151.497 373H150.747C149.414 373 148.406 372.608 147.722 371.825C147.039 371.042 146.697 369.933 146.697 368.5V356.85H149.272V368.325C149.272 369.008 149.397 369.508 149.647 369.825C149.914 370.142 150.331 370.3 150.897 370.3H151.497ZM154.006 370.3C154.539 370.3 154.964 370.167 155.281 369.9C155.614 369.617 155.781 369.225 155.781 368.725V364.7H158.381V368.625C158.381 369.742 158.956 370.3 160.106 370.3H160.956C161.123 370.3 161.206 370.758 161.206 371.675C161.206 372.558 161.123 373 160.956 373H160.006C158.523 373 157.539 372.55 157.056 371.65C156.473 372.55 155.456 373 154.006 373H151.006C150.839 373 150.756 372.567 150.756 371.7C150.756 370.767 150.839 370.3 151.006 370.3H154.006ZM154.281 361.85V359.4H157.281V361.85H154.281ZM162.367 370.3C163.267 370.3 163.942 370.283 164.392 370.25C164.842 370.2 165.2 370.125 165.467 370.025L162.367 365.525L163.717 363H170.042C171.075 363 171.908 363.242 172.542 363.725C173.175 364.208 173.492 364.917 173.492 365.85C173.492 366.533 173.3 367.183 172.917 367.8C172.55 368.4 171.825 369.175 170.742 370.125C171.108 370.242 171.842 370.3 172.942 370.3H175.542C175.625 370.3 175.683 370.392 175.717 370.575C175.767 370.758 175.792 371.133 175.792 371.7C175.792 372.233 175.767 372.583 175.717 372.75C175.683 372.917 175.625 373 175.542 373H172.942C171.408 373 170.3 372.917 169.617 372.75C168.933 372.583 168.342 372.267 167.842 371.8C167.142 372.25 166.367 372.567 165.517 372.75C164.667 372.917 163.583 373 162.267 373H160.467C160.3 373 160.217 372.567 160.217 371.7C160.217 370.767 160.3 370.3 160.467 370.3H162.367ZM171.017 366.375C171.017 366.092 170.9 365.875 170.667 365.725C170.433 365.575 170.108 365.5 169.692 365.5H165.267L168.092 369.65C169.242 368.667 170.017 367.95 170.417 367.5C170.817 367.05 171.017 366.675 171.017 366.375ZM175.63 370.3C176.18 370.3 176.572 370.192 176.805 369.975C177.055 369.742 177.18 369.383 177.18 368.9V368.025C177.18 366.425 177.622 365.158 178.505 364.225C179.405 363.292 180.622 362.825 182.155 362.825C183.689 362.825 184.864 363.275 185.68 364.175C186.497 365.058 186.905 366.333 186.905 368C186.905 369.583 186.472 370.817 185.605 371.7C184.755 372.567 183.572 373 182.055 373C181.205 373 180.489 372.883 179.905 372.65C179.322 372.4 178.897 372.058 178.63 371.625C178.33 372.108 177.939 372.458 177.455 372.675C176.989 372.892 176.38 373 175.63 373H175.03C174.864 373 174.78 372.567 174.78 371.7C174.78 370.767 174.864 370.3 175.03 370.3H175.63ZM184.33 368C184.33 367.133 184.139 366.492 183.755 366.075C183.389 365.642 182.822 365.425 182.055 365.425C181.289 365.425 180.714 365.642 180.33 366.075C179.964 366.492 179.78 367.142 179.78 368.025C179.78 368.758 179.972 369.325 180.355 369.725C180.739 370.108 181.305 370.3 182.055 370.3C182.822 370.3 183.389 370.117 183.755 369.75C184.139 369.367 184.33 368.783 184.33 368ZM205.185 368.15C205.185 368.917 205.318 369.467 205.585 369.8C205.851 370.133 206.243 370.3 206.76 370.3H207.46C207.543 370.3 207.601 370.392 207.635 370.575C207.685 370.758 207.71 371.133 207.71 371.7C207.71 372.233 207.685 372.583 207.635 372.75C207.601 372.917 207.543 373 207.46 373H206.76C205.843 373 205.093 372.833 204.51 372.5C203.943 372.15 203.551 371.592 203.335 370.825C202.985 371.158 202.51 371.408 201.91 371.575C201.31 371.742 200.676 371.825 200.01 371.825C198.543 371.825 197.426 371.433 196.66 370.65C195.893 369.85 195.51 368.675 195.51 367.125C195.51 366.192 195.718 365.333 196.135 364.55C196.551 363.75 197.135 363.117 197.885 362.65C198.651 362.167 199.526 361.925 200.51 361.925H202.61V360.25H205.185V368.15ZM198.085 367.1C198.085 368.45 198.768 369.125 200.135 369.125C200.918 369.125 201.526 368.992 201.96 368.725C202.393 368.442 202.61 368.058 202.61 367.575V364.525H200.51C199.743 364.525 199.143 364.75 198.71 365.2C198.293 365.633 198.085 366.267 198.085 367.1ZM213.778 370.3C214.411 370.3 214.903 370.192 215.253 369.975C215.603 369.742 215.778 369.433 215.778 369.05C215.778 368.733 215.703 368.442 215.553 368.175C215.403 367.908 215.161 367.6 214.828 367.25L209.178 361.675V359.5L218.428 355.875L219.203 358.35L212.278 361L216.753 365.525C218.286 367.042 219.411 368.125 220.128 368.775C220.861 369.408 221.445 369.825 221.878 370.025C222.311 370.208 222.811 370.3 223.378 370.3C223.545 370.3 223.628 370.767 223.628 371.7C223.628 372.567 223.545 373 223.378 373C222.595 373 221.953 372.942 221.453 372.825C220.97 372.692 220.47 372.442 219.953 372.075C219.453 371.708 218.811 371.133 218.028 370.35C217.845 371.167 217.378 371.817 216.628 372.3C215.878 372.767 214.928 373 213.778 373H206.953C206.786 373 206.703 372.567 206.703 371.7C206.703 370.767 206.786 370.3 206.953 370.3H213.778ZM225.884 370.3C226.417 370.3 226.842 370.167 227.159 369.9C227.492 369.617 227.659 369.225 227.659 368.725V364.7H230.259V368.625C230.259 369.742 230.834 370.3 231.984 370.3H232.834C233 370.3 233.084 370.758 233.084 371.675C233.084 372.558 233 373 232.834 373H231.884C230.4 373 229.417 372.55 228.934 371.65C228.35 372.55 227.334 373 225.884 373H222.884C222.717 373 222.634 372.567 222.634 371.7C222.634 370.767 222.717 370.3 222.884 370.3H225.884ZM223.184 378.375V375.925H226.184V378.375H223.184ZM234.32 370.3C235.003 370.3 235.52 370.15 235.87 369.85C236.22 369.533 236.395 369.092 236.395 368.525V364.7H238.995V368.525C238.995 369.708 239.67 370.3 241.02 370.3C241.703 370.3 242.22 370.15 242.57 369.85C242.92 369.533 243.095 369.092 243.095 368.525V364.7H245.695V368.525C245.695 369.092 245.853 369.533 246.17 369.85C246.486 370.15 246.961 370.3 247.595 370.3C248.245 370.3 248.728 370.15 249.045 369.85C249.378 369.533 249.545 369.092 249.545 368.525V364.7H252.12V368.5C252.12 369.917 251.72 371.025 250.92 371.825C250.12 372.608 249.011 373 247.595 373C245.895 373 244.795 372.517 244.295 371.55C243.645 372.517 242.553 373 241.02 373C240.086 373 239.345 372.883 238.795 372.65C238.245 372.4 237.845 372.033 237.595 371.55C236.945 372.517 235.853 373 234.32 373H232.345C232.178 373 232.095 372.567 232.095 371.7C232.095 370.767 232.178 370.3 232.345 370.3H234.32ZM245.62 355.775V358.1H242.995V355.775H245.62ZM247.695 359.45V361.85H240.895V359.45H247.695Z" fill="white"/>
<line x1="403" y1="310" x2="341" y2="310" stroke="#AA00FF" stroke-width="4"/>
<line x1="339" y1="369" x2="339" y2="251" stroke="#AA00FF" stroke-width="4"/>
<path d="M279 252L299 263.547L299 240.453L279 252ZM341 250L297 250L297 254L341 254L341 250Z" fill="#AA00FF"/>
<path d="M279 367L299 378.547L299 355.453L279 367ZM341 365L297 365L297 369L341 369L341 365Z" fill="#AA00FF"/>
</svg>
