<svg width="724" height="350" viewBox="0 0 724 350" fill="none" xmlns="http://www.w3.org/2000/svg">
<path d="M202.867 82.5996L337.101 315.1H68.6328L202.867 82.5996Z" fill="#9000FF" fill-opacity="0.2"/>
<path d="M203.296 79.3496L202.863 78.5996L202.43 79.3496L65.5982 316.35L65.1652 317.1H66.0312H339.695H340.561L340.128 316.35L203.296 79.3496ZM333.633 313.1H72.0934L202.863 86.5996L333.633 313.1Z" fill="white" stroke="white"/>
<path d="M75 314C75 318.971 70.9706 323 66 323C61.0294 323 57 318.971 57 314C57 309.029 61.0294 305 66 305C70.9706 305 75 309.029 75 314Z" fill="white"/>
<path d="M349 314C349 318.971 344.971 323 340 323C335.029 323 331 318.971 331 314C331 309.029 335.029 305 340 305C344.971 305 349 309.029 349 314Z" fill="white"/>
<path d="M212 81C212 85.9706 207.971 90 203 90C198.029 90 194 85.9706 194 81C194 76.0294 198.029 72 203 72C207.971 72 212 76.0294 212 81Z" fill="white"/>
<path fill-rule="evenodd" clip-rule="evenodd" d="M190.343 104.533L191.136 105.806C195.187 112.306 199.277 115.084 202.938 115.1C206.582 115.115 210.622 112.391 214.579 105.825L215.353 104.541L217.922 106.089L217.148 107.374C213.024 114.217 208.195 118.122 202.925 118.1C197.671 118.077 192.802 114.15 188.59 107.393L187.797 106.12L190.343 104.533Z" fill="white"/>
<path fill-rule="evenodd" clip-rule="evenodd" d="M305.257 297.286C308.363 293.049 314.402 291.417 322.345 291.982L323.841 292.088L323.628 295.081L322.132 294.974C314.493 294.431 309.841 296.107 307.677 299.06C305.522 301.999 305.351 306.868 308.338 313.928L308.922 315.31L306.159 316.479L305.574 315.097C302.462 307.738 302.142 301.536 305.257 297.286Z" fill="white"/>
<path fill-rule="evenodd" clip-rule="evenodd" d="M97.4259 299.06C95.2617 296.107 90.6102 294.431 82.9706 294.974L81.4744 295.081L81.2617 292.088L82.7579 291.982C90.7002 291.417 96.7392 293.049 99.8454 297.286C102.961 301.536 102.641 307.738 99.5282 315.097L98.9439 316.479L96.1809 315.31L96.7652 313.928C99.7514 306.868 99.5805 301.999 97.4259 299.06Z" fill="white"/>
<path d="M196.895 57.4L194.345 64.6H187.195L198.195 34H205.545L216.545 64.6H209.495L206.845 57.4H196.895ZM205.995 52.15L201.895 41.1L197.745 52.15H205.995Z" fill="white"/>
<path d="M383.95 323.05C381.183 324.05 378.3 324.55 375.3 324.55C370.233 324.55 366.417 323.217 363.85 320.55C361.283 317.883 360 314.083 360 309.15C360 303.917 361.25 299.917 363.75 297.15C366.25 294.383 370.083 293 375.25 293C378.517 293 381.4 293.5 383.9 294.5V301.05C381.233 299.883 378.517 299.3 375.75 299.3C372.717 299.3 370.483 300.133 369.05 301.8C367.65 303.433 366.95 305.883 366.95 309.15C366.95 315.183 369.917 318.2 375.85 318.2C378.55 318.2 381.25 317.633 383.95 316.5V323.05Z" fill="white"/>
<path d="M43.35 321.3C41.75 322.833 39.45 323.6 36.45 323.6H21V293H35.95C38.8167 293 40.9833 293.717 42.45 295.15C43.9167 296.55 44.65 298.617 44.65 301.35C44.65 302.917 44.3667 304.25 43.8 305.35C43.2333 306.45 42.45 307.3 41.45 307.9C42.8833 308.4 43.95 309.183 44.65 310.25C45.3833 311.283 45.75 312.733 45.75 314.6C45.75 317.533 44.95 319.767 43.35 321.3ZM37.35 299.15C36.75 298.517 35.7 298.2 34.2 298.2H27.4V305.7H34.55C37.05 305.7 38.3 304.467 38.3 302C38.3 300.7 37.9833 299.75 37.35 299.15ZM37.7 311.35C36.9667 310.75 35.8833 310.45 34.45 310.45H27.4V318.4H34.75C36.15 318.4 37.1667 318.067 37.8 317.4C38.4667 316.733 38.8 315.683 38.8 314.25C38.8 312.883 38.4333 311.917 37.7 311.35Z" fill="white"/>
<path d="M567.816 143.294L668.061 316.924H467.57L567.816 143.294Z" fill="#9000FF" fill-opacity="0.2"/>
<path d="M568.248 140.804L567.815 140.054L567.382 140.804L465.196 317.795L464.763 318.545H465.629H670H670.866L670.433 317.795L568.248 140.804ZM665.254 315.304H470.375L567.815 146.534L665.254 315.304Z" fill="white" stroke="white"/>
<path d="M472.325 316.103C472.325 319.815 469.316 322.824 465.604 322.824C461.892 322.824 458.883 319.815 458.883 316.103C458.883 312.391 461.892 309.382 465.604 309.382C469.316 309.382 472.325 312.391 472.325 316.103Z" fill="white"/>
<path d="M676.95 316.103C676.95 319.815 673.941 322.824 670.229 322.824C666.517 322.824 663.508 319.815 663.508 316.103C663.508 312.391 666.517 309.382 670.229 309.382C673.941 309.382 676.95 312.391 676.95 316.103Z" fill="white"/>
<path d="M574.638 142.099C574.638 145.811 571.628 148.82 567.916 148.82C564.204 148.82 561.195 145.811 561.195 142.099C561.195 138.387 564.204 135.378 567.916 135.378C571.628 135.378 574.638 138.387 574.638 142.099Z" fill="white"/>
<path fill-rule="evenodd" clip-rule="evenodd" d="M558.464 159.674L559.056 160.624C562.082 165.478 565.136 167.553 567.87 167.565C570.591 167.576 573.608 165.542 576.563 160.639L577.141 159.679L579.06 160.836L578.482 161.795C575.402 166.906 571.796 169.822 567.86 169.805C563.937 169.788 560.3 166.856 557.155 161.81L556.562 160.859L558.464 159.674Z" fill="white"/>
<path fill-rule="evenodd" clip-rule="evenodd" d="M644.283 303.621C646.602 300.456 651.112 299.238 657.044 299.66L658.161 299.739L658.002 301.974L656.885 301.895C651.18 301.489 647.706 302.741 646.09 304.945C644.48 307.14 644.353 310.776 646.583 316.049L647.019 317.081L644.956 317.954L644.52 316.922C642.195 311.426 641.956 306.795 644.283 303.621Z" fill="white"/>
<path fill-rule="evenodd" clip-rule="evenodd" d="M489.075 304.945C487.459 302.741 483.985 301.489 478.28 301.895L477.163 301.974L477.004 299.739L478.121 299.66C484.053 299.238 488.562 300.456 490.882 303.621C493.209 306.795 492.97 311.426 490.645 316.922L490.209 317.954L488.146 317.081L488.582 316.049C490.812 310.776 490.684 307.14 489.075 304.945Z" fill="white"/>
<path d="M563.357 124.475L561.453 129.852H556.113L564.328 107H569.817L578.032 129.852H572.767L570.788 124.475H563.357ZM570.153 120.554L567.091 112.302L563.992 120.554H570.153Z" fill="white"/>
<path d="M703.05 322.862C700.984 323.609 698.83 323.982 696.59 323.982C692.806 323.982 689.956 322.987 688.039 320.995C686.122 319.004 685.164 316.166 685.164 312.482C685.164 308.573 686.098 305.586 687.965 303.52C689.832 301.454 692.694 300.421 696.553 300.421C698.992 300.421 701.146 300.794 703.013 301.541V306.433C701.021 305.561 698.992 305.126 696.926 305.126C694.661 305.126 692.993 305.748 691.923 306.993C690.877 308.212 690.354 310.042 690.354 312.482C690.354 316.987 692.57 319.24 697.001 319.24C699.017 319.24 701.034 318.817 703.05 317.971V322.862Z" fill="white"/>
<path d="M448.691 321.555C447.496 322.7 445.778 323.273 443.538 323.273H432V300.421H443.165C445.305 300.421 446.923 300.956 448.019 302.027C449.114 303.072 449.662 304.615 449.662 306.657C449.662 307.827 449.45 308.822 449.027 309.644C448.604 310.465 448.019 311.1 447.272 311.548C448.342 311.922 449.139 312.507 449.662 313.303C450.209 314.075 450.483 315.158 450.483 316.552C450.483 318.742 449.886 320.41 448.691 321.555ZM444.21 305.014C443.762 304.541 442.978 304.304 441.858 304.304H436.78V309.905H442.119C443.986 309.905 444.92 308.984 444.92 307.142C444.92 306.171 444.683 305.462 444.21 305.014ZM444.472 314.125C443.924 313.677 443.115 313.453 442.044 313.453H436.78V319.39H442.268C443.314 319.39 444.073 319.141 444.546 318.643C445.044 318.145 445.293 317.361 445.293 316.29C445.293 315.27 445.019 314.548 444.472 314.125Z" fill="white"/>
</svg>
