<svg width="513" height="516" viewBox="0 0 513 516" fill="none" xmlns="http://www.w3.org/2000/svg">
<g clip-path="url(#clip0_1971_279)">
<path d="M117.975 113.808C117.526 113.359 116.917 113.106 116.282 113.106L116.222 113.106C114.9 113.106 113.828 114.178 113.828 115.5L113.828 400.346C113.828 401.668 114.9 402.74 116.222 402.74L401.068 402.74C402.39 402.74 403.461 401.668 403.461 400.346L403.461 400.286C403.461 399.651 403.209 399.042 402.76 398.593L117.975 113.808Z" fill="#9000FF" fill-opacity="0.2"/>
<g filter="url(#filter0_d_1971_279)">
<path fill-rule="evenodd" clip-rule="evenodd" d="M116.221 108.319L116.281 108.319C118.186 108.319 120.012 109.076 121.359 110.423L406.145 395.208C407.491 396.555 408.248 398.381 408.248 400.286L408.248 400.346C408.248 404.312 405.033 407.527 401.067 407.527L150.924 407.527L150.924 407.53L109.035 407.53L109.035 363.247L109.04 363.247L109.04 115.5C109.04 111.534 112.255 108.319 116.221 108.319ZM401.067 402.74L150.924 402.74L150.924 363.247L113.827 363.247L113.827 152.699C121.391 158.13 128.419 160.301 134.27 158.418C140.251 156.493 144.139 150.605 146.057 141.891L402.759 398.593C403.208 399.042 403.461 399.651 403.461 400.286L403.461 400.346C403.461 401.668 402.389 402.74 401.067 402.74ZM143.021 138.854L142.701 140.418C140.906 149.196 137.339 153.878 132.959 155.287C128.598 156.691 122.52 155.137 114.804 149.291L113.827 148.552L113.827 115.5C113.827 114.178 114.899 113.107 116.221 113.107L116.281 113.107C116.916 113.107 117.525 113.359 117.974 113.808L143.021 138.854ZM116.221 402.74L146.137 402.74L146.137 368.034L113.827 368.034L113.827 400.346C113.827 401.668 114.899 402.74 116.221 402.74Z" fill="#24F2EB"/>
<path d="M152.418 409.027L401.067 409.027C405.861 409.027 409.748 405.141 409.748 400.346L409.748 400.286C409.748 397.984 408.833 395.776 407.205 394.148L122.42 109.362C120.792 107.734 118.584 106.819 116.281 106.819C116.281 106.819 116.281 106.819 116.281 106.819L116.221 106.819L116.221 106.819C111.426 106.819 107.54 110.706 107.54 115.5L107.54 361.741L107.535 361.741L107.535 363.247L107.535 407.53L107.535 409.03L109.035 409.03L150.924 409.03L152.418 409.03L152.418 409.027ZM152.424 363.247L152.424 361.747L150.924 361.747L115.327 361.747L115.327 155.529C122.195 159.912 128.868 161.732 134.73 159.846C140.792 157.895 144.712 152.399 146.867 144.822L401.699 399.654C401.866 399.822 401.961 400.049 401.961 400.286L401.961 400.346C401.961 400.84 401.56 401.24 401.067 401.24L152.424 401.24L152.424 363.247ZM116.221 114.607L116.221 114.607L116.281 114.607C116.281 114.607 116.281 114.607 116.281 114.607C116.281 114.607 116.281 114.607 116.281 114.607C116.518 114.607 116.746 114.701 116.913 114.868L116.913 114.868L141.389 139.345L141.231 140.117C139.476 148.7 136.105 152.699 132.5 153.859C128.853 155.033 123.306 153.85 115.709 148.096L114.804 149.291L115.709 148.096L115.327 147.806L115.327 115.5C115.327 115.007 115.727 114.607 116.221 114.607ZM144.637 401.24L116.221 401.24C115.727 401.24 115.327 400.84 115.327 400.346L115.327 369.534L144.637 369.534L144.637 401.24Z" stroke="black" stroke-width="3" stroke-linecap="square"/>
</g>
<g filter="url(#filter1_d_1971_279)">
<mask id="path-4-outside-1_1971_279" maskUnits="userSpaceOnUse" x="86.9336" y="59.9121" width="34" height="35" fill="black">
<rect fill="white" x="86.9336" y="59.9121" width="34" height="35"/>
<path d="M97.1215 75.4751V90.9121H91.2305V64.5961H97.0355L103.958 79.3451L110.795 64.5961H116.6V90.9121H110.752V75.4751L105.592 86.3541H102.281L97.1215 75.4751Z"/>
</mask>
<path d="M97.1215 75.4751V90.9121H91.2305V64.5961H97.0355L103.958 79.3451L110.795 64.5961H116.6V90.9121H110.752V75.4751L105.592 86.3541H102.281L97.1215 75.4751Z" fill="#24F2EB"/>
<path d="M97.1215 75.4751L100.736 73.7609L93.1215 75.4751H97.1215ZM97.1215 90.9121V94.9121H101.121V90.9121H97.1215ZM91.2305 90.9121H87.2305V94.9121H91.2305V90.9121ZM91.2305 64.5961V60.5961H87.2305V64.5961H91.2305ZM97.0355 64.5961L100.656 62.8965L99.5766 60.5961H97.0355V64.5961ZM103.958 79.3451L100.338 81.0447L103.981 88.8072L107.587 81.0274L103.958 79.3451ZM110.795 64.5961V60.5961H108.241L107.166 62.9138L110.795 64.5961ZM116.6 64.5961H120.6V60.5961H116.6V64.5961ZM116.6 90.9121V94.9121H120.6V90.9121H116.6ZM110.752 90.9121H106.752V94.9121H110.752V90.9121ZM110.752 75.4751H114.752L107.138 73.7609L110.752 75.4751ZM105.592 86.3541V90.3541H108.122L109.207 88.0683L105.592 86.3541ZM102.281 86.3541L98.6674 88.0683L99.7516 90.3541H102.281V86.3541ZM93.1215 75.4751V90.9121H101.121V75.4751H93.1215ZM97.1215 86.9121H91.2305V94.9121H97.1215V86.9121ZM95.2305 90.9121V64.5961H87.2305V90.9121H95.2305ZM91.2305 68.5961H97.0355V60.5961H91.2305V68.5961ZM93.4145 66.2957L100.338 81.0447L107.579 77.6455L100.656 62.8965L93.4145 66.2957ZM107.587 81.0274L114.424 66.2784L107.166 62.9138L100.329 77.6628L107.587 81.0274ZM110.795 68.5961H116.6V60.5961H110.795V68.5961ZM112.6 64.5961V90.9121H120.6V64.5961H112.6ZM116.6 86.9121H110.752V94.9121H116.6V86.9121ZM114.752 90.9121V75.4751H106.752V90.9121H114.752ZM107.138 73.7609L101.978 84.6399L109.207 88.0683L114.367 77.1893L107.138 73.7609ZM105.592 82.3541H102.281V90.3541H105.592V82.3541ZM105.896 84.6399L100.736 73.7609L93.5074 77.1893L98.6674 88.0683L105.896 84.6399Z" fill="black" mask="url(#path-4-outside-1_1971_279)"/>
</g>
<g filter="url(#filter2_d_1971_279)">
<mask id="path-6-outside-2_1971_279" maskUnits="userSpaceOnUse" x="57.9336" y="396.912" width="30" height="35" fill="black">
<rect fill="white" x="57.9336" y="396.912" width="30" height="35"/>
<path d="M67.9061 411.959V427.912H62.0151V401.596H67.0461L77.9681 417.592V401.596H83.8591V427.912H78.7851L67.9061 411.959Z"/>
</mask>
<path d="M67.9061 411.959V427.912H62.0151V401.596H67.0461L77.9681 417.592V401.596H83.8591V427.912H78.7851L67.9061 411.959Z" fill="#24F2EB"/>
<path d="M67.9061 411.959L71.2108 409.705L63.9061 398.994V411.959H67.9061ZM67.9061 427.912V431.912H71.9061V427.912H67.9061ZM62.0151 427.912H58.0151V431.912H62.0151V427.912ZM62.0151 401.596V397.596H58.0151V401.596H62.0151ZM67.0461 401.596L70.3495 399.341L69.1584 397.596H67.0461V401.596ZM77.9681 417.592L74.6647 419.848L81.9681 430.544V417.592H77.9681ZM77.9681 401.596V397.596H73.9681V401.596H77.9681ZM83.8591 401.596H87.8591V397.596H83.8591V401.596ZM83.8591 427.912V431.912H87.8591V427.912H83.8591ZM78.7851 427.912L75.4804 430.166L76.6713 431.912H78.7851V427.912ZM63.9061 411.959V427.912H71.9061V411.959H63.9061ZM67.9061 423.912H62.0151V431.912H67.9061V423.912ZM66.0151 427.912V401.596H58.0151V427.912H66.0151ZM62.0151 405.596H67.0461V397.596H62.0151V405.596ZM63.7427 403.852L74.6647 419.848L81.2715 415.337L70.3495 399.341L63.7427 403.852ZM81.9681 417.592V401.596H73.9681V417.592H81.9681ZM77.9681 405.596H83.8591V397.596H77.9681V405.596ZM79.8591 401.596V427.912H87.8591V401.596H79.8591ZM83.8591 423.912H78.7851V431.912H83.8591V423.912ZM82.0898 425.658L71.2108 409.705L64.6014 414.213L75.4804 430.166L82.0898 425.658Z" fill="black" mask="url(#path-6-outside-2_1971_279)"/>
</g>
<g filter="url(#filter3_d_1971_279)">
<mask id="path-8-outside-3_1971_279" maskUnits="userSpaceOnUse" x="51.9336" y="241.912" width="32" height="45" fill="black">
<rect fill="white" x="51.9336" y="241.912" width="32" height="45"/>
<path d="M70.4775 267.457C69.0475 267.457 68.0025 267.255 67.3425 266.852V268.777V282.912H60.3575V268.887C60.3575 265.294 60.1741 262.214 59.8075 259.647C59.4408 257.08 58.7075 253.982 57.6075 250.352L64.3175 247.987L66.7925 257.557C67.1958 259.28 68.2041 260.142 69.8175 260.142C70.6241 260.142 71.2841 259.922 71.7975 259.482C72.3475 259.005 72.6225 258.382 72.6225 257.612C72.6225 256.585 72.2558 253.854 71.5225 249.417L78.5625 247.987C79.2958 252.424 79.6625 255.76 79.6625 257.997C79.6625 259.83 79.2591 261.462 78.4525 262.892C77.6825 264.322 76.6008 265.44 75.2075 266.247C73.8141 267.054 72.2375 267.457 70.4775 267.457Z"/>
</mask>
<path d="M70.4775 267.457C69.0475 267.457 68.0025 267.255 67.3425 266.852V268.777V282.912H60.3575V268.887C60.3575 265.294 60.1741 262.214 59.8075 259.647C59.4408 257.08 58.7075 253.982 57.6075 250.352L64.3175 247.987L66.7925 257.557C67.1958 259.28 68.2041 260.142 69.8175 260.142C70.6241 260.142 71.2841 259.922 71.7975 259.482C72.3475 259.005 72.6225 258.382 72.6225 257.612C72.6225 256.585 72.2558 253.854 71.5225 249.417L78.5625 247.987C79.2958 252.424 79.6625 255.76 79.6625 257.997C79.6625 259.83 79.2591 261.462 78.4525 262.892C77.6825 264.322 76.6008 265.44 75.2075 266.247C73.8141 267.054 72.2375 267.457 70.4775 267.457Z" fill="#24F2EB"/>
<path d="M67.3425 266.852L69.4283 263.439L63.3425 259.72V266.852H67.3425ZM67.3425 282.912V286.912H71.3425V282.912H67.3425ZM60.3575 282.912H56.3575V286.912H60.3575V282.912ZM59.8075 259.647L55.8477 260.213L55.8477 260.213L59.8075 259.647ZM57.6075 250.352L56.2778 246.58L52.67 247.851L53.7794 251.512L57.6075 250.352ZM64.3175 247.987L68.19 246.986L67.0987 242.766L62.9878 244.215L64.3175 247.987ZM66.7925 257.557L70.6872 256.646L70.6767 256.6L70.665 256.556L66.7925 257.557ZM71.7975 259.482L74.4006 262.519L74.4089 262.512L74.4172 262.505L71.7975 259.482ZM71.5225 249.417L70.7262 245.497L66.9471 246.265L67.576 250.069L71.5225 249.417ZM78.5625 247.987L82.5089 247.335L81.8323 243.241L77.7662 244.067L78.5625 247.987ZM78.4525 262.892L74.9685 260.927L74.9492 260.961L74.9306 260.996L78.4525 262.892ZM75.2075 266.247L77.2116 269.709L77.2116 269.709L75.2075 266.247ZM70.4775 263.457C69.9362 263.457 69.5836 263.418 69.3792 263.378C69.1622 263.336 69.2281 263.317 69.4283 263.439L65.2567 270.265C66.8809 271.258 68.8431 271.457 70.4775 271.457V263.457ZM63.3425 266.852V268.777H71.3425V266.852H63.3425ZM63.3425 268.777V282.912H71.3425V268.777H63.3425ZM67.3425 278.912H60.3575V286.912H67.3425V278.912ZM64.3575 282.912V268.887H56.3575V282.912H64.3575ZM64.3575 268.887C64.3575 265.171 64.1687 261.891 63.7673 259.081L55.8477 260.213C56.1796 262.536 56.3575 265.417 56.3575 268.887H64.3575ZM63.7673 259.081C63.362 256.245 62.5702 252.936 61.4356 249.192L53.7794 251.512C54.8448 255.028 55.5196 257.916 55.8477 260.213L63.7673 259.081ZM58.9371 254.125L65.6471 251.76L62.9878 244.215L56.2778 246.58L58.9371 254.125ZM60.4449 248.989L62.9199 258.559L70.665 256.556L68.19 246.986L60.4449 248.989ZM62.8977 258.469C63.2293 259.885 63.9147 261.393 65.2526 262.537C66.6291 263.713 68.2727 264.142 69.8175 264.142V256.142C69.7683 256.142 69.8329 256.136 69.9699 256.181C70.1169 256.229 70.2898 256.318 70.4498 256.455C70.7794 256.737 70.759 256.952 70.6872 256.646L62.8977 258.469ZM69.8175 264.142C71.3857 264.142 73.0279 263.696 74.4006 262.519L69.1943 256.445C69.342 256.319 69.5062 256.231 69.6526 256.182C69.7896 256.137 69.858 256.142 69.8175 256.142V264.142ZM74.4172 262.505C75.9 261.22 76.6225 259.466 76.6225 257.612H68.6225C68.6225 257.513 68.6421 257.302 68.7565 257.043C68.8735 256.777 69.0374 256.581 69.1777 256.459L74.4172 262.505ZM76.6225 257.612C76.6225 256.178 76.1788 253.06 75.4689 248.765L67.576 250.069C68.3328 254.648 68.6225 256.993 68.6225 257.612H76.6225ZM72.3187 253.337L79.3587 251.907L77.7662 244.067L70.7262 245.497L72.3187 253.337ZM74.616 248.639C75.3418 253.03 75.6625 256.102 75.6625 257.997H83.6625C83.6625 255.419 83.2498 251.817 82.5089 247.335L74.616 248.639ZM75.6625 257.997C75.6625 259.224 75.3988 260.164 74.9685 260.927L81.9364 264.857C83.1195 262.76 83.6625 260.437 83.6625 257.997H75.6625ZM74.9306 260.996C74.5085 261.78 73.9496 262.353 73.2033 262.785L77.2116 269.709C79.252 268.528 80.8564 266.865 81.9743 264.789L74.9306 260.996ZM73.2033 262.785C72.4749 263.207 71.6012 263.457 70.4775 263.457V271.457C72.8737 271.457 75.1534 270.9 77.2116 269.709L73.2033 262.785Z" fill="black" mask="url(#path-8-outside-3_1971_279)"/>
</g>
<g filter="url(#filter4_d_1971_279)">
<mask id="path-10-outside-4_1971_279" maskUnits="userSpaceOnUse" x="208.934" y="425.912" width="85" height="46" fill="black">
<rect fill="white" x="208.934" y="425.912" width="85" height="46"/>
<path d="M226.891 452.457C225.461 452.457 224.416 452.255 223.756 451.852V453.777V467.912H216.771V453.887C216.771 450.294 216.587 447.214 216.221 444.647C215.854 442.08 215.121 438.982 214.021 435.352L220.731 432.987L223.206 442.557C223.609 444.28 224.617 445.142 226.231 445.142C227.037 445.142 227.697 444.922 228.211 444.482C228.761 444.005 229.036 443.382 229.036 442.612C229.036 441.585 228.669 438.854 227.936 434.417L234.976 432.987C235.709 437.424 236.076 440.76 236.076 442.997C236.076 444.83 235.672 446.462 234.866 447.892C234.096 449.322 233.014 450.44 231.621 451.247C230.227 452.054 228.651 452.457 226.891 452.457ZM247.013 467.912C245.656 467.912 244.629 467.582 243.933 466.922C243.273 466.225 242.943 465.125 242.943 463.622C242.943 462.119 243.273 461.055 243.933 460.432C244.629 459.809 245.656 459.497 247.013 459.497C248.406 459.497 249.433 459.809 250.093 460.432C250.789 461.055 251.138 462.119 251.138 463.622C251.138 465.125 250.789 466.225 250.093 466.922C249.433 467.582 248.406 467.912 247.013 467.912ZM258.024 457.682C258.024 455.042 258.831 452.274 260.444 449.377C262.094 446.444 264.789 443.235 268.529 439.752L266.164 437.607L270.454 432.382C275.294 436.012 279.071 439.184 281.784 441.897C284.497 444.61 286.422 447.14 287.559 449.487C288.696 451.797 289.264 454.235 289.264 456.802C289.264 459.112 288.806 461.11 287.889 462.797C286.972 464.484 285.762 465.767 284.259 466.647C282.792 467.49 281.216 467.912 279.529 467.912C276.559 467.912 274.469 467.197 273.259 465.767C272.672 466.464 271.847 466.995 270.784 467.362C269.757 467.729 268.584 467.912 267.264 467.912C264.331 467.912 262.057 467.014 260.444 465.217C258.831 463.384 258.024 460.872 258.024 457.682ZM282.279 456.747C282.279 454.657 281.582 452.622 280.189 450.642C278.796 448.662 276.559 446.462 273.479 444.042C270.546 446.572 268.382 448.9 266.989 451.027C265.632 453.117 264.954 455.189 264.954 457.242C264.954 459.479 265.907 460.597 267.814 460.597C268.804 460.597 269.556 460.304 270.069 459.717C270.582 459.13 270.839 458.305 270.839 457.242V453.722H276.944V457.407C276.944 458.36 276.871 459.112 276.724 459.662C277.201 460.285 278.117 460.597 279.474 460.597C280.281 460.597 280.941 460.267 281.454 459.607C282.004 458.947 282.279 457.994 282.279 456.747Z"/>
</mask>
<path d="M226.891 452.457C225.461 452.457 224.416 452.255 223.756 451.852V453.777V467.912H216.771V453.887C216.771 450.294 216.587 447.214 216.221 444.647C215.854 442.08 215.121 438.982 214.021 435.352L220.731 432.987L223.206 442.557C223.609 444.28 224.617 445.142 226.231 445.142C227.037 445.142 227.697 444.922 228.211 444.482C228.761 444.005 229.036 443.382 229.036 442.612C229.036 441.585 228.669 438.854 227.936 434.417L234.976 432.987C235.709 437.424 236.076 440.76 236.076 442.997C236.076 444.83 235.672 446.462 234.866 447.892C234.096 449.322 233.014 450.44 231.621 451.247C230.227 452.054 228.651 452.457 226.891 452.457ZM247.013 467.912C245.656 467.912 244.629 467.582 243.933 466.922C243.273 466.225 242.943 465.125 242.943 463.622C242.943 462.119 243.273 461.055 243.933 460.432C244.629 459.809 245.656 459.497 247.013 459.497C248.406 459.497 249.433 459.809 250.093 460.432C250.789 461.055 251.138 462.119 251.138 463.622C251.138 465.125 250.789 466.225 250.093 466.922C249.433 467.582 248.406 467.912 247.013 467.912ZM258.024 457.682C258.024 455.042 258.831 452.274 260.444 449.377C262.094 446.444 264.789 443.235 268.529 439.752L266.164 437.607L270.454 432.382C275.294 436.012 279.071 439.184 281.784 441.897C284.497 444.61 286.422 447.14 287.559 449.487C288.696 451.797 289.264 454.235 289.264 456.802C289.264 459.112 288.806 461.11 287.889 462.797C286.972 464.484 285.762 465.767 284.259 466.647C282.792 467.49 281.216 467.912 279.529 467.912C276.559 467.912 274.469 467.197 273.259 465.767C272.672 466.464 271.847 466.995 270.784 467.362C269.757 467.729 268.584 467.912 267.264 467.912C264.331 467.912 262.057 467.014 260.444 465.217C258.831 463.384 258.024 460.872 258.024 457.682ZM282.279 456.747C282.279 454.657 281.582 452.622 280.189 450.642C278.796 448.662 276.559 446.462 273.479 444.042C270.546 446.572 268.382 448.9 266.989 451.027C265.632 453.117 264.954 455.189 264.954 457.242C264.954 459.479 265.907 460.597 267.814 460.597C268.804 460.597 269.556 460.304 270.069 459.717C270.582 459.13 270.839 458.305 270.839 457.242V453.722H276.944V457.407C276.944 458.36 276.871 459.112 276.724 459.662C277.201 460.285 278.117 460.597 279.474 460.597C280.281 460.597 280.941 460.267 281.454 459.607C282.004 458.947 282.279 457.994 282.279 456.747Z" fill="#24F2EB"/>
<path d="M223.756 451.852L225.841 448.439L219.756 444.72V451.852H223.756ZM223.756 467.912V471.912H227.756V467.912H223.756ZM216.771 467.912H212.771V471.912H216.771V467.912ZM216.221 444.647L212.261 445.213L212.261 445.213L216.221 444.647ZM214.021 435.352L212.691 431.58L209.083 432.851L210.192 436.512L214.021 435.352ZM220.731 432.987L224.603 431.986L223.512 427.766L219.401 429.215L220.731 432.987ZM223.206 442.557L227.1 441.646L227.09 441.6L227.078 441.556L223.206 442.557ZM228.211 444.482L230.814 447.519L230.822 447.512L230.83 447.505L228.211 444.482ZM227.936 434.417L227.139 430.497L223.36 431.265L223.989 435.069L227.936 434.417ZM234.976 432.987L238.922 432.335L238.245 428.241L234.179 429.067L234.976 432.987ZM234.866 447.892L231.382 445.927L231.362 445.961L231.344 445.996L234.866 447.892ZM231.621 451.247L233.625 454.709L233.625 454.709L231.621 451.247ZM226.891 448.457C226.349 448.457 225.997 448.418 225.792 448.378C225.575 448.336 225.641 448.317 225.841 448.439L221.67 455.265C223.294 456.258 225.256 456.457 226.891 456.457V448.457ZM219.756 451.852V453.777H227.756V451.852H219.756ZM219.756 453.777V467.912H227.756V453.777H219.756ZM223.756 463.912H216.771V471.912H223.756V463.912ZM220.771 467.912V453.887H212.771V467.912H220.771ZM220.771 453.887C220.771 450.171 220.582 446.891 220.18 444.081L212.261 445.213C212.593 447.536 212.771 450.417 212.771 453.887H220.771ZM220.18 444.081C219.775 441.245 218.983 437.936 217.849 434.192L210.192 436.512C211.258 440.028 211.933 442.916 212.261 445.213L220.18 444.081ZM215.35 439.125L222.06 436.76L219.401 429.215L212.691 431.58L215.35 439.125ZM216.858 433.989L219.333 443.559L227.078 441.556L224.603 431.986L216.858 433.989ZM219.311 443.469C219.642 444.885 220.328 446.393 221.666 447.537C223.042 448.713 224.686 449.142 226.231 449.142V441.142C226.181 441.142 226.246 441.136 226.383 441.181C226.53 441.229 226.703 441.318 226.863 441.455C227.192 441.737 227.172 441.952 227.1 441.646L219.311 443.469ZM226.231 449.142C227.799 449.142 229.441 448.696 230.814 447.519L225.607 441.445C225.755 441.319 225.919 441.231 226.066 441.182C226.203 441.137 226.271 441.142 226.231 441.142V449.142ZM230.83 447.505C232.313 446.22 233.036 444.466 233.036 442.612H225.036C225.036 442.513 225.055 442.302 225.17 442.043C225.287 441.777 225.451 441.581 225.591 441.459L230.83 447.505ZM233.036 442.612C233.036 441.178 232.592 438.06 231.882 433.765L223.989 435.069C224.746 439.648 225.036 441.993 225.036 442.612H233.036ZM228.732 438.337L235.772 436.907L234.179 429.067L227.139 430.497L228.732 438.337ZM231.029 433.639C231.755 438.03 232.076 441.102 232.076 442.997H240.076C240.076 440.419 239.663 436.817 238.922 432.335L231.029 433.639ZM232.076 442.997C232.076 444.224 231.812 445.164 231.382 445.927L238.349 449.857C239.533 447.76 240.076 445.437 240.076 442.997H232.076ZM231.344 445.996C230.922 446.78 230.363 447.353 229.616 447.785L233.625 454.709C235.665 453.528 237.269 451.865 238.387 449.789L231.344 445.996ZM229.616 447.785C228.888 448.207 228.014 448.457 226.891 448.457V456.457C229.287 456.457 231.566 455.9 233.625 454.709L229.616 447.785ZM243.933 466.922L241.029 469.673L241.103 469.752L241.182 469.826L243.933 466.922ZM243.933 460.432L241.266 457.451L241.225 457.487L241.186 457.524L243.933 460.432ZM250.093 460.432L247.346 463.34L247.385 463.377L247.426 463.413L250.093 460.432ZM250.093 466.922L252.921 469.751L252.921 469.751L250.093 466.922ZM247.013 463.912C246.648 463.912 246.48 463.866 246.449 463.856C246.438 463.853 246.462 463.859 246.51 463.887C246.559 463.915 246.62 463.958 246.684 464.018L241.182 469.826C242.881 471.436 245.057 471.912 247.013 471.912V463.912ZM246.837 464.171C247.013 464.358 247.042 464.493 247.022 464.425C246.997 464.343 246.943 464.097 246.943 463.622H238.943C238.943 465.59 239.357 467.908 241.029 469.673L246.837 464.171ZM246.943 463.622C246.943 463.39 246.956 463.214 246.972 463.087C246.988 462.96 247.006 462.896 247.011 462.883C247.017 462.86 246.951 463.084 246.679 463.34L241.186 457.524C239.334 459.273 238.943 461.709 238.943 463.622H246.943ZM246.6 463.413C246.454 463.543 246.349 463.57 246.387 463.558C246.44 463.542 246.629 463.497 247.013 463.497V455.497C245.109 455.497 242.967 455.929 241.266 457.451L246.6 463.413ZM247.013 463.497C247.427 463.497 247.622 463.545 247.666 463.558C247.694 463.567 247.541 463.524 247.346 463.34L252.839 457.524C251.125 455.905 248.897 455.497 247.013 455.497V463.497ZM247.426 463.413C247.298 463.299 247.208 463.183 247.15 463.089C247.093 462.998 247.075 462.941 247.075 462.942C247.076 462.945 247.093 462.998 247.109 463.115C247.125 463.232 247.138 463.398 247.138 463.622H255.138C255.138 461.657 254.704 459.19 252.76 457.451L247.426 463.413ZM247.138 463.622C247.138 464.081 247.083 464.305 247.063 464.367C247.05 464.41 247.087 464.271 247.264 464.094L252.921 469.751C254.682 467.989 255.138 465.639 255.138 463.622H247.138ZM247.264 464.094C247.351 464.007 247.436 463.946 247.504 463.906C247.571 463.867 247.609 463.855 247.604 463.856C247.597 463.859 247.549 463.873 247.449 463.887C247.348 463.901 247.205 463.912 247.013 463.912V471.912C248.949 471.912 251.211 471.461 252.921 469.751L247.264 464.094ZM260.444 449.377L256.958 447.416L256.954 447.423L256.949 447.431L260.444 449.377ZM268.529 439.752L271.255 442.679L274.44 439.713L271.216 436.789L268.529 439.752ZM266.164 437.607L263.073 435.069L260.656 438.012L263.477 440.57L266.164 437.607ZM270.454 432.382L272.854 429.182L269.792 426.885L267.363 429.844L270.454 432.382ZM281.784 441.897L278.956 444.726L278.956 444.726L281.784 441.897ZM287.559 449.487L283.959 451.231L283.964 451.242L283.97 451.253L287.559 449.487ZM287.889 462.797L284.374 460.887L284.374 460.887L287.889 462.797ZM284.259 466.647L286.253 470.115L286.266 470.107L286.28 470.099L284.259 466.647ZM273.259 465.767L276.313 463.183L273.252 459.566L270.199 463.191L273.259 465.767ZM270.784 467.362L269.48 463.581L269.459 463.588L269.439 463.595L270.784 467.362ZM260.444 465.217L257.441 467.86L257.454 467.875L257.468 467.89L260.444 465.217ZM280.189 450.642L283.46 448.34L283.46 448.34L280.189 450.642ZM273.479 444.042L275.95 440.897L273.361 438.862L270.866 441.013L273.479 444.042ZM266.989 451.027L263.643 448.835L263.638 448.842L263.634 448.849L266.989 451.027ZM270.839 453.722V449.722H266.839V453.722H270.839ZM276.944 453.722H280.944V449.722H276.944V453.722ZM276.724 459.662L272.859 458.631L272.353 460.531L273.547 462.092L276.724 459.662ZM281.454 459.607L278.381 457.046L278.338 457.098L278.297 457.151L281.454 459.607ZM262.024 457.682C262.024 455.876 262.573 453.775 263.939 451.323L256.949 447.431C255.088 450.773 254.024 454.208 254.024 457.682H262.024ZM263.93 451.338C265.302 448.899 267.677 446.011 271.255 442.679L265.803 436.825C261.901 440.459 258.886 443.988 256.958 447.416L263.93 451.338ZM271.216 436.789L268.851 434.644L263.477 440.57L265.842 442.715L271.216 436.789ZM269.255 440.145L273.545 434.92L267.363 429.844L263.073 435.069L269.255 440.145ZM268.054 435.582C272.818 439.155 276.429 442.199 278.956 444.726L284.612 439.069C281.712 436.168 277.77 432.869 272.854 429.182L268.054 435.582ZM278.956 444.726C281.488 447.258 283.086 449.428 283.959 451.231L291.159 447.743C289.759 444.853 287.507 441.963 284.612 439.069L278.956 444.726ZM283.97 451.253C284.837 453.015 285.264 454.85 285.264 456.802H293.264C293.264 453.621 292.554 450.579 291.148 447.721L283.97 451.253ZM285.264 456.802C285.264 458.58 284.914 459.895 284.374 460.887L291.403 464.707C292.698 462.326 293.264 459.644 293.264 456.802H285.264ZM284.374 460.887C283.769 462.001 283.049 462.72 282.238 463.195L286.28 470.099C288.475 468.814 290.175 466.967 291.403 464.707L284.374 460.887ZM282.265 463.179C281.403 463.675 280.514 463.912 279.529 463.912V471.912C281.918 471.912 284.182 471.306 286.253 470.115L282.265 463.179ZM279.529 463.912C277.052 463.912 276.411 463.299 276.313 463.183L270.205 468.351C272.527 471.095 276.066 471.912 279.529 471.912V463.912ZM270.199 463.191C270.176 463.218 270.02 463.394 269.48 463.581L272.088 471.144C273.675 470.596 275.168 469.71 276.319 468.344L270.199 463.191ZM269.439 463.595C268.924 463.779 268.219 463.912 267.264 463.912V471.912C268.949 471.912 270.591 471.679 272.129 471.129L269.439 463.595ZM267.264 463.912C265.202 463.912 264.114 463.318 263.42 462.545L257.468 467.89C260 470.71 263.46 471.912 267.264 471.912V463.912ZM263.447 462.575C262.652 461.671 262.024 460.204 262.024 457.682H254.024C254.024 461.541 255.009 465.096 257.441 467.86L263.447 462.575ZM286.279 456.747C286.279 453.708 285.25 450.884 283.46 448.34L276.918 452.944C277.914 454.36 278.279 455.606 278.279 456.747H286.279ZM283.46 448.34C281.748 445.907 279.172 443.429 275.95 440.897L271.008 447.187C273.946 449.496 275.843 451.417 276.918 452.944L283.46 448.34ZM270.866 441.013C267.782 443.673 265.318 446.279 263.643 448.835L270.335 453.219C271.447 451.522 273.309 449.471 276.091 447.071L270.866 441.013ZM263.634 448.849C261.947 451.448 260.954 454.265 260.954 457.242H268.954C268.954 456.113 269.318 454.786 270.344 453.205L263.634 448.849ZM260.954 457.242C260.954 458.835 261.28 460.775 262.625 462.353C264.074 464.053 266.062 464.597 267.814 464.597V456.597C267.719 456.597 267.815 456.582 268.019 456.662C268.248 456.751 268.504 456.918 268.713 457.163C268.91 457.395 268.972 457.585 268.98 457.617C268.986 457.637 268.954 457.53 268.954 457.242H260.954ZM267.814 464.597C269.623 464.597 271.611 464.029 273.079 462.351L267.059 457.083C267.241 456.875 267.465 456.729 267.666 456.651C267.846 456.581 267.921 456.597 267.814 456.597V464.597ZM273.079 462.351C274.431 460.807 274.839 458.92 274.839 457.242H266.839C266.839 457.46 266.812 457.519 266.827 457.47C266.835 457.443 266.855 457.389 266.894 457.317C266.934 457.244 266.988 457.164 267.059 457.083L273.079 462.351ZM274.839 457.242V453.722H266.839V457.242H274.839ZM270.839 457.722H276.944V449.722H270.839V457.722ZM272.944 453.722V457.407H280.944V453.722H272.944ZM272.944 457.407C272.944 457.786 272.929 458.079 272.908 458.297C272.897 458.405 272.886 458.487 272.876 458.545C272.871 458.574 272.867 458.596 272.864 458.61C272.861 458.625 272.859 458.632 272.859 458.631L280.589 460.693C280.865 459.656 280.944 458.508 280.944 457.407H272.944ZM273.547 462.092C275.19 464.241 277.753 464.597 279.474 464.597V456.597C279.072 456.597 278.971 456.547 279.057 456.576C279.172 456.616 279.556 456.781 279.901 457.232L273.547 462.092ZM279.474 464.597C281.567 464.597 283.372 463.656 284.611 462.063L278.297 457.151C278.358 457.073 278.514 456.908 278.785 456.772C279.061 456.634 279.315 456.597 279.474 456.597V464.597ZM284.527 462.168C285.895 460.526 286.279 458.518 286.279 456.747H278.279C278.279 457.087 278.24 457.251 278.229 457.288C278.222 457.315 278.251 457.203 278.381 457.046L284.527 462.168Z" fill="black" mask="url(#path-10-outside-4_1971_279)"/>
</g>
<g filter="url(#filter5_d_1971_279)">
<mask id="path-12-outside-5_1971_279" maskUnits="userSpaceOnUse" x="426.934" y="396.912" width="34" height="36" fill="black">
<rect fill="white" x="426.934" y="396.912" width="34" height="36"/>
<path d="M456.162 414.883C456.162 423.856 452.092 428.342 443.95 428.342C435.78 428.342 431.695 423.856 431.695 414.883C431.695 410.096 432.713 406.627 434.748 404.477C436.784 402.298 439.851 401.209 443.95 401.209C448.05 401.209 451.103 402.298 453.109 404.477C455.145 406.627 456.162 410.096 456.162 414.883ZM439.177 420.946C440.209 422.236 441.8 422.881 443.95 422.881C446.1 422.881 447.677 422.236 448.68 420.946C449.712 419.627 450.228 417.606 450.228 414.883C450.228 411.93 449.727 409.823 448.723 408.562C447.72 407.272 446.129 406.627 443.95 406.627C441.772 406.627 440.181 407.272 439.177 408.562C438.174 409.823 437.672 411.93 437.672 414.883C437.672 417.606 438.174 419.627 439.177 420.946Z"/>
</mask>
<path d="M456.162 414.883C456.162 423.856 452.092 428.342 443.95 428.342C435.78 428.342 431.695 423.856 431.695 414.883C431.695 410.096 432.713 406.627 434.748 404.477C436.784 402.298 439.851 401.209 443.95 401.209C448.05 401.209 451.103 402.298 453.109 404.477C455.145 406.627 456.162 410.096 456.162 414.883ZM439.177 420.946C440.209 422.236 441.8 422.881 443.95 422.881C446.1 422.881 447.677 422.236 448.68 420.946C449.712 419.627 450.228 417.606 450.228 414.883C450.228 411.93 449.727 409.823 448.723 408.562C447.72 407.272 446.129 406.627 443.95 406.627C441.772 406.627 440.181 407.272 439.177 408.562C438.174 409.823 437.672 411.93 437.672 414.883C437.672 417.606 438.174 419.627 439.177 420.946Z" fill="#24F2EB"/>
<path d="M434.748 404.477L437.653 407.227L437.662 407.217L437.671 407.208L434.748 404.477ZM453.109 404.477L450.167 407.187L450.186 407.207L450.204 407.227L453.109 404.477ZM439.177 420.946L435.994 423.368L436.023 423.407L436.054 423.445L439.177 420.946ZM448.68 420.946L445.53 418.481L445.523 418.49L448.68 420.946ZM448.723 408.562L445.566 411.018L445.579 411.035L445.593 411.052L448.723 408.562ZM439.177 408.562L442.308 411.052L442.321 411.035L442.335 411.018L439.177 408.562ZM452.162 414.883C452.162 418.844 451.255 421.068 450.147 422.289C449.105 423.437 447.299 424.342 443.95 424.342V432.342C448.743 432.342 453.042 431.004 456.072 427.665C459.034 424.401 460.162 419.895 460.162 414.883H452.162ZM443.95 424.342C440.583 424.342 438.764 423.435 437.717 422.284C436.604 421.063 435.695 418.841 435.695 414.883H427.695C427.695 419.898 428.829 424.406 431.801 427.67C434.839 431.006 439.147 432.342 443.95 432.342V424.342ZM435.695 414.883C435.695 410.519 436.647 408.29 437.653 407.227L431.843 401.727C428.779 404.964 427.695 409.673 427.695 414.883H435.695ZM437.671 407.208C438.7 406.107 440.53 405.209 443.95 405.209V397.209C439.172 397.209 434.867 398.49 431.825 401.746L437.671 407.208ZM443.95 405.209C447.375 405.209 449.173 406.108 450.167 407.187L456.051 401.767C453.032 398.489 448.724 397.209 443.95 397.209V405.209ZM450.204 407.227C451.211 408.29 452.162 410.519 452.162 414.883H460.162C460.162 409.673 459.078 404.964 456.014 401.727L450.204 407.227ZM436.054 423.445C438.062 425.955 440.981 426.881 443.95 426.881V418.881C442.619 418.881 442.357 418.517 442.301 418.447L436.054 423.445ZM443.95 426.881C446.913 426.881 449.851 425.957 451.838 423.402L445.523 418.49C445.503 418.516 445.288 418.881 443.95 418.881V426.881ZM451.83 423.411C453.664 421.068 454.228 417.983 454.228 414.883H446.228C446.228 417.23 445.76 418.187 445.53 418.481L451.83 423.411ZM454.228 414.883C454.228 411.687 453.726 408.426 451.854 406.072L445.593 411.052C445.727 411.221 446.228 412.174 446.228 414.883H454.228ZM451.881 406.106C449.884 403.539 446.92 402.627 443.95 402.627V410.627C445.338 410.627 445.556 411.005 445.566 411.018L451.881 406.106ZM443.95 402.627C440.98 402.627 438.017 403.539 436.02 406.106L442.335 411.018C442.344 411.005 442.563 410.627 443.95 410.627V402.627ZM436.047 406.072C434.174 408.426 433.672 411.687 433.672 414.883H441.672C441.672 412.174 442.174 411.221 442.308 411.052L436.047 406.072ZM433.672 414.883C433.672 417.965 434.216 421.031 435.994 423.368L442.361 418.524C442.132 418.224 441.672 417.248 441.672 414.883H433.672Z" fill="black" mask="url(#path-12-outside-5_1971_279)"/>
</g>
</g>
<defs>
<filter id="filter0_d_1971_279" x="74.5352" y="73.8193" width="368.211" height="368.21" filterUnits="userSpaceOnUse" color-interpolation-filters="sRGB">
<feFlood flood-opacity="0" result="BackgroundImageFix"/>
<feColorMatrix in="SourceAlpha" type="matrix" values="0 0 0 0 0 0 0 0 0 0 0 0 0 0 0 0 0 0 127 0" result="hardAlpha"/>
<feOffset/>
<feGaussianBlur stdDeviation="15.75"/>
<feComposite in2="hardAlpha" operator="out"/>
<feColorMatrix type="matrix" values="0 0 0 0 0 0 0 0 0 1 0 0 0 0 0.916667 0 0 0 0.7 0"/>
<feBlend mode="normal" in2="BackgroundImageFix" result="effect1_dropShadow_1971_279"/>
<feBlend mode="normal" in="SourceGraphic" in2="effect1_dropShadow_1971_279" result="shape"/>
</filter>
<filter id="filter1_d_1971_279" x="59.7305" y="33.0957" width="88.3711" height="89.3164" filterUnits="userSpaceOnUse" color-interpolation-filters="sRGB">
<feFlood flood-opacity="0" result="BackgroundImageFix"/>
<feColorMatrix in="SourceAlpha" type="matrix" values="0 0 0 0 0 0 0 0 0 0 0 0 0 0 0 0 0 0 127 0" result="hardAlpha"/>
<feOffset/>
<feGaussianBlur stdDeviation="15.75"/>
<feComposite in2="hardAlpha" operator="out"/>
<feColorMatrix type="matrix" values="0 0 0 0 0 0 0 0 0 1 0 0 0 0 0.916667 0 0 0 0.7 0"/>
<feBlend mode="normal" in2="BackgroundImageFix" result="effect1_dropShadow_1971_279"/>
<feBlend mode="normal" in="SourceGraphic" in2="effect1_dropShadow_1971_279" result="shape"/>
</filter>
<filter id="filter2_d_1971_279" x="30.5156" y="370.096" width="84.8438" height="89.3164" filterUnits="userSpaceOnUse" color-interpolation-filters="sRGB">
<feFlood flood-opacity="0" result="BackgroundImageFix"/>
<feColorMatrix in="SourceAlpha" type="matrix" values="0 0 0 0 0 0 0 0 0 0 0 0 0 0 0 0 0 0 127 0" result="hardAlpha"/>
<feOffset/>
<feGaussianBlur stdDeviation="15.75"/>
<feComposite in2="hardAlpha" operator="out"/>
<feColorMatrix type="matrix" values="0 0 0 0 0 0 0 0 0 1 0 0 0 0 0.916667 0 0 0 0.7 0"/>
<feBlend mode="normal" in2="BackgroundImageFix" result="effect1_dropShadow_1971_279"/>
<feBlend mode="normal" in="SourceGraphic" in2="effect1_dropShadow_1971_279" result="shape"/>
</filter>
<filter id="filter3_d_1971_279" x="26.1094" y="216.487" width="85.0547" height="97.9248" filterUnits="userSpaceOnUse" color-interpolation-filters="sRGB">
<feFlood flood-opacity="0" result="BackgroundImageFix"/>
<feColorMatrix in="SourceAlpha" type="matrix" values="0 0 0 0 0 0 0 0 0 0 0 0 0 0 0 0 0 0 127 0" result="hardAlpha"/>
<feOffset/>
<feGaussianBlur stdDeviation="15.75"/>
<feComposite in2="hardAlpha" operator="out"/>
<feColorMatrix type="matrix" values="0 0 0 0 0 0 0 0 0 1 0 0 0 0 0.916667 0 0 0 0.7 0"/>
<feBlend mode="normal" in2="BackgroundImageFix" result="effect1_dropShadow_1971_279"/>
<feBlend mode="normal" in="SourceGraphic" in2="effect1_dropShadow_1971_279" result="shape"/>
</filter>
<filter id="filter4_d_1971_279" x="182.52" y="400.882" width="138.246" height="98.5303" filterUnits="userSpaceOnUse" color-interpolation-filters="sRGB">
<feFlood flood-opacity="0" result="BackgroundImageFix"/>
<feColorMatrix in="SourceAlpha" type="matrix" values="0 0 0 0 0 0 0 0 0 0 0 0 0 0 0 0 0 0 127 0" result="hardAlpha"/>
<feOffset/>
<feGaussianBlur stdDeviation="15.75"/>
<feComposite in2="hardAlpha" operator="out"/>
<feColorMatrix type="matrix" values="0 0 0 0 0 0 0 0 0 1 0 0 0 0 0.916667 0 0 0 0.7 0"/>
<feBlend mode="normal" in2="BackgroundImageFix" result="effect1_dropShadow_1971_279"/>
<feBlend mode="normal" in="SourceGraphic" in2="effect1_dropShadow_1971_279" result="shape"/>
</filter>
<filter id="filter5_d_1971_279" x="400.195" y="369.709" width="87.4688" height="90.1328" filterUnits="userSpaceOnUse" color-interpolation-filters="sRGB">
<feFlood flood-opacity="0" result="BackgroundImageFix"/>
<feColorMatrix in="SourceAlpha" type="matrix" values="0 0 0 0 0 0 0 0 0 0 0 0 0 0 0 0 0 0 127 0" result="hardAlpha"/>
<feOffset/>
<feGaussianBlur stdDeviation="15.75"/>
<feComposite in2="hardAlpha" operator="out"/>
<feColorMatrix type="matrix" values="0 0 0 0 0 0 0 0 0 1 0 0 0 0 0.916667 0 0 0 0.7 0"/>
<feBlend mode="normal" in2="BackgroundImageFix" result="effect1_dropShadow_1971_279"/>
<feBlend mode="normal" in="SourceGraphic" in2="effect1_dropShadow_1971_279" result="shape"/>
</filter>
<clipPath id="clip0_1971_279">
<rect width="513" height="516" fill="white"/>
</clipPath>
</defs>
</svg>
