<svg width="614" height="847" viewBox="0 0 614 847" fill="none" xmlns="http://www.w3.org/2000/svg">
<path d="M494.388 91.5565C494.995 90.5599 495.819 90 496.679 90L496.76 90C498.55 90 500 92.3792 500 95.3141L500 727.686C500 730.621 498.55 733 496.76 733L111.24 733C109.45 733 108 730.621 108 727.686L108 727.552C108 726.142 108.341 724.791 108.949 723.794L494.388 91.5565Z" fill="#9000FF" fill-opacity="0.2"/>
<path fill-rule="evenodd" clip-rule="evenodd" d="M496.76 82H496.679C492.068 82 489.034 84.9689 487.557 87.3922L102.118 719.63C100.601 722.119 100 724.979 100 727.552V727.686C100 730.377 100.649 733.197 102.118 735.608C103.502 737.878 106.494 741 111.24 741H508V95.3141C508 92.6234 507.351 89.8028 505.882 87.3922C504.498 85.1217 501.506 82 496.76 82ZM496.76 733H447V680H500V727.686C500 730.621 498.55 733 496.76 733ZM500 672V95.3141C500 95.1998 499.998 95.0864 499.993 94.9739C499.887 92.1976 498.48 90 496.76 90H496.679C495.819 90 494.995 90.5599 494.388 91.5565L138.716 674.968C159.418 670.803 175.769 673.323 185.87 683.51C196.286 694.016 198.649 711.272 194.193 733H439V672H500ZM186.016 733C190.764 711.345 187.961 696.981 180.189 689.143C172.265 681.151 157.623 678.396 135.161 683.966L132.886 684.529L108.949 723.794C108.341 724.791 108 726.142 108 727.552V727.686C108 730.621 109.45 733 111.24 733H186.016ZM491.991 95.202C491.991 95.202 491.992 95.213 491.997 95.2341C491.994 95.2125 491.991 95.202 491.991 95.202Z" fill="white"/>
<path d="M48.5359 732.36L45.4759 741H36.8959L50.0959 704.28H58.9159L72.1159 741H63.6559L60.4759 732.36H48.5359ZM59.4559 726.06L54.5359 712.8L49.5559 726.06H59.4559Z" fill="white"/>
<path d="M563.581 740.24C561.661 742.08 558.901 743 555.301 743H536.761V706.28H554.701C558.141 706.28 560.741 707.14 562.501 708.86C564.261 710.54 565.141 713.02 565.141 716.3C565.141 718.18 564.801 719.78 564.121 721.1C563.441 722.42 562.501 723.44 561.301 724.16C563.021 724.76 564.301 725.7 565.141 726.98C566.021 728.22 566.461 729.96 566.461 732.2C566.461 735.72 565.501 738.4 563.581 740.24ZM556.381 713.66C555.661 712.9 554.401 712.52 552.601 712.52H544.441V721.52H553.021C556.021 721.52 557.521 720.04 557.521 717.08C557.521 715.52 557.141 714.38 556.381 713.66ZM556.801 728.3C555.921 727.58 554.621 727.22 552.901 727.22H544.441V736.76H553.261C554.941 736.76 556.161 736.36 556.921 735.56C557.721 734.76 558.121 733.5 558.121 731.78C558.121 730.14 557.681 728.98 556.801 728.3Z" fill="white"/>
<path d="M548.329 80.8C545.009 82 541.549 82.6 537.949 82.6C531.869 82.6 527.289 81 524.209 77.8C521.129 74.6 519.589 70.04 519.589 64.12C519.589 57.84 521.089 53.04 524.089 49.72C527.089 46.4 531.689 44.74 537.889 44.74C541.809 44.74 545.269 45.34 548.269 46.54V54.4C545.069 53 541.809 52.3 538.489 52.3C534.849 52.3 532.169 53.3 530.449 55.3C528.769 57.26 527.929 60.2 527.929 64.12C527.929 71.36 531.489 74.98 538.609 74.98C541.849 74.98 545.089 74.3 548.329 72.94V80.8Z" fill="white"/>
<path d="M545.134 440.98C545.134 437.62 546.161 434.097 548.214 430.41C550.314 426.677 553.744 422.593 558.504 418.16L555.494 415.43L560.954 408.78C567.114 413.4 571.921 417.437 575.374 420.89C578.828 424.343 581.278 427.563 582.724 430.55C584.171 433.49 584.894 436.593 584.894 439.86C584.894 442.8 584.311 445.343 583.144 447.49C581.978 449.637 580.438 451.27 578.524 452.39C576.658 453.463 574.651 454 572.504 454C568.724 454 566.064 453.09 564.524 451.27C563.778 452.157 562.728 452.833 561.374 453.3C560.068 453.767 558.574 454 556.894 454C553.161 454 550.268 452.857 548.214 450.57C546.161 448.237 545.134 445.04 545.134 440.98ZM576.004 439.79C576.004 437.13 575.118 434.54 573.344 432.02C571.571 429.5 568.724 426.7 564.804 423.62C561.071 426.84 558.318 429.803 556.544 432.51C554.818 435.17 553.954 437.807 553.954 440.42C553.954 443.267 555.168 444.69 557.594 444.69C558.854 444.69 559.811 444.317 560.464 443.57C561.118 442.823 561.444 441.773 561.444 440.42V435.94H569.214V440.63C569.214 441.843 569.121 442.8 568.934 443.5C569.541 444.293 570.708 444.69 572.434 444.69C573.461 444.69 574.301 444.27 574.954 443.43C575.654 442.59 576.004 441.377 576.004 439.79Z" fill="white"/>
<path d="M323.324 776.55C324.257 782.01 324.724 786.21 324.724 789.15C324.724 789.57 324.677 790.013 324.584 790.48C324.957 790.993 325.4 791.39 325.914 791.67C326.474 791.903 327.174 792.02 328.014 792.02C328.994 792.02 329.81 791.74 330.464 791.18C331.164 790.573 331.514 789.78 331.514 788.8C331.514 787.4 331.07 783.923 330.184 778.37L339.144 776.55C340.03 782.197 340.474 786.443 340.474 789.29C340.474 791.623 339.96 793.7 338.934 795.52C337.954 797.34 336.577 798.763 334.804 799.79C333.077 800.817 331.094 801.33 328.854 801.33C327.127 801.33 325.54 801.05 324.094 800.49C322.647 799.883 321.597 799.137 320.944 798.25C320.197 799.23 319.1 800 317.654 800.56C316.254 801.073 314.737 801.33 313.104 801.33C311.284 801.33 309.954 801.073 309.114 800.56V803.01V821H300.224V803.15C300.224 798.577 299.99 794.657 299.524 791.39C299.057 788.123 298.124 784.18 296.724 779.56L305.264 776.55L308.414 788.73C308.927 790.923 310.21 792.02 312.264 792.02C313.29 792.02 314.13 791.74 314.784 791.18C315.484 790.573 315.834 789.78 315.834 788.8C315.834 787.493 315.367 784.017 314.434 778.37L323.324 776.55Z" fill="white"/>
</svg>
