<svg width="609" height="474" viewBox="0 0 609 474" fill="none" xmlns="http://www.w3.org/2000/svg">
<path d="M71.7257 380.808L69.5327 387H63.3837L72.8437 360.684H79.1647L88.6247 387H82.5617L80.2827 380.808H71.7257ZM79.5517 376.293L76.0257 366.79L72.4567 376.293H79.5517Z" fill="white"/>
<path d="M544.016 385.022C542.64 386.341 540.662 387 538.082 387H524.795V360.684H537.652C540.118 360.684 541.981 361.3 543.242 362.533C544.504 363.737 545.134 365.514 545.134 367.865C545.134 369.212 544.891 370.359 544.403 371.305C543.916 372.251 543.242 372.982 542.382 373.498C543.615 373.928 544.532 374.602 545.134 375.519C545.765 376.408 546.08 377.655 546.08 379.26C546.08 381.783 545.392 383.703 544.016 385.022ZM538.856 365.973C538.34 365.428 537.437 365.156 536.147 365.156H530.299V371.606H536.448C538.598 371.606 539.673 370.545 539.673 368.424C539.673 367.306 539.401 366.489 538.856 365.973ZM539.157 376.465C538.527 375.949 537.595 375.691 536.362 375.691H530.299V382.528H536.62C537.824 382.528 538.699 382.241 539.243 381.668C539.817 381.095 540.103 380.192 540.103 378.959C540.103 377.784 539.788 376.952 539.157 376.465Z" fill="white"/>
<path d="M544.769 105.14C542.39 106 539.91 106.43 537.33 106.43C532.973 106.43 529.691 105.283 527.483 102.99C525.276 100.697 524.172 97.4287 524.172 93.186C524.172 88.6853 525.247 85.2453 527.397 82.866C529.547 80.4867 532.844 79.297 537.287 79.297C540.097 79.297 542.576 79.727 544.726 80.587V86.22C542.433 85.2167 540.097 84.715 537.717 84.715C535.109 84.715 533.188 85.4317 531.955 86.865C530.751 88.2697 530.149 90.3767 530.149 93.186C530.149 98.3747 532.701 100.969 537.803 100.969C540.125 100.969 542.447 100.482 544.769 99.507V105.14Z" fill="white"/>
<path d="M496.388 100.685C496.995 100.246 497.819 100 498.679 100L498.76 100C500.55 100 502 101.047 502 102.339V380.661C502 381.953 500.55 383 498.76 383H113.24C111.45 383 110 381.953 110 380.661L110 380.602C110 379.982 110.341 379.387 110.949 378.948L496.388 100.685Z" fill="#9000FF" fill-opacity="0.2"/>
<path fill-rule="evenodd" clip-rule="evenodd" d="M498.76 96H498.679C497.107 96 495.432 96.4413 494.046 97.4419L108.608 375.705C107.203 376.719 106 378.422 106 380.602V380.661C106 382.915 107.273 384.595 108.608 385.558C109.947 386.525 111.598 387 113.24 387H506V102.339C506 100.085 504.727 98.4054 503.392 97.4419C502.053 96.4745 500.402 96 498.76 96ZM498.76 383H473V356H502V380.661C502 381.953 500.55 383 498.76 383ZM502 352V102.339C502 101.047 500.55 100 498.76 100H498.679C497.819 100 496.995 100.246 496.388 100.685L146.659 353.168C154.769 356.341 160.065 360.595 161.733 365.872C163.459 371.331 161.119 377.186 155.483 383H469V352H502ZM151.156 383L151.564 382.626C158.285 376.46 160.238 371.096 158.872 366.776C157.517 362.489 152.688 358.432 143.731 355.281L110.949 378.948C110.341 379.387 110 379.982 110 380.602V380.661C110 381.953 111.45 383 113.24 383H151.156Z" fill="white"/>
</svg>
