<svg width="424" height="406" viewBox="0 0 424 406" fill="none" xmlns="http://www.w3.org/2000/svg">
<path d="M296.165 79.75L295.443 78.5L294 78.5L130 78.5H128.557L127.835 79.75L45.8349 221.778L45.1132 223.028L45.8349 224.278L127.835 366.306L128.557 367.556H130H294H295.443L296.165 366.306L378.165 224.278L378.887 223.028L378.165 221.778L296.165 79.75Z" fill="#9000FF" fill-opacity="0.2" stroke="white" stroke-width="5"/>
<line x1="212" y1="368" x2="212" y2="223" stroke="white" stroke-width="4" stroke-dasharray="2 2"/>
<line x1="211.734" y1="222.997" x2="127.734" y2="368.997" stroke="white" stroke-width="4"/>
<line x1="212.736" y1="223.006" x2="295.736" y2="368.006" stroke="white" stroke-width="4"/>
<circle cx="212" cy="223" r="5" fill="white"/>
<mask id="path-6-outside-1_2083_18" maskUnits="userSpaceOnUse" x="191" y="343" width="23" height="23" fill="black">
<rect fill="white" x="191" y="343" width="23" height="23"/>
<path d="M193 345H214V366H193V345Z"/>
</mask>
<path d="M193 345V343H191V345H193ZM193 347H214V343H193V347ZM195 366V345H191V366H195Z" fill="white" mask="url(#path-6-outside-1_2083_18)"/>
<path d="M181.425 24.425C182.025 27.935 182.325 30.635 182.325 32.525C182.325 32.795 182.295 33.08 182.235 33.38C182.475 33.71 182.76 33.965 183.09 34.145C183.45 34.295 183.9 34.37 184.44 34.37C185.07 34.37 185.595 34.19 186.015 33.83C186.465 33.44 186.69 32.93 186.69 32.3C186.69 31.4 186.405 29.165 185.835 25.595L191.595 24.425C192.165 28.055 192.45 30.785 192.45 32.615C192.45 34.115 192.12 35.45 191.46 36.62C190.83 37.79 189.945 38.705 188.805 39.365C187.695 40.025 186.42 40.355 184.98 40.355C183.87 40.355 182.85 40.175 181.92 39.815C180.99 39.425 180.315 38.945 179.895 38.375C179.415 39.005 178.71 39.5 177.78 39.86C176.88 40.19 175.905 40.355 174.855 40.355C173.685 40.355 172.83 40.19 172.29 39.86V41.435V53H166.575V41.525C166.575 38.585 166.425 36.065 166.125 33.965C165.825 31.865 165.225 29.33 164.325 26.36L169.815 24.425L171.84 32.255C172.17 33.665 172.995 34.37 174.315 34.37C174.975 34.37 175.515 34.19 175.935 33.83C176.385 33.44 176.61 32.93 176.61 32.3C176.61 31.46 176.31 29.225 175.71 25.595L181.425 24.425ZM224.453 52.1C222.533 53 220.298 53.45 217.748 53.45C214.328 53.45 211.673 52.55 209.783 50.75C207.923 48.92 206.993 46.295 206.993 42.875C206.993 39.365 207.968 36.725 209.918 34.955C211.868 33.185 214.538 32.3 217.928 32.3C219.278 32.3 220.463 32.405 221.483 32.615C222.503 32.795 223.478 33.125 224.408 33.605V38.42C222.848 37.64 221.108 37.25 219.188 37.25C217.208 37.25 215.723 37.7 214.733 38.6C213.743 39.5 213.248 40.925 213.248 42.875C213.248 44.825 213.713 46.25 214.643 47.15C215.573 48.05 217.073 48.5 219.143 48.5C220.913 48.5 222.683 48.035 224.453 47.105V52.1ZM236.46 37.835C235.8 38.165 235.215 38.585 234.705 39.095V53H228.765V32.75H234.39L234.615 34.505C236.595 33.035 238.74 32.3 241.05 32.3C242.31 32.3 243.3 32.495 244.02 32.885C244.77 33.275 245.355 33.875 245.775 34.685C246.735 33.905 247.77 33.32 248.88 32.93C249.99 32.51 251.265 32.3 252.705 32.3C254.925 32.3 256.56 32.915 257.61 34.145C258.66 35.345 259.185 37.205 259.185 39.725V53H253.155V40.49C253.155 39.35 252.915 38.54 252.435 38.06C251.985 37.58 251.22 37.34 250.14 37.34C248.73 37.34 247.56 37.85 246.63 38.87C246.72 39.26 246.765 39.845 246.765 40.625V53H241.095V40.4C241.095 39.29 240.9 38.51 240.51 38.06C240.12 37.58 239.445 37.34 238.485 37.34C237.825 37.34 237.15 37.505 236.46 37.835Z" fill="white"/>
</svg>
