<svg width="450" height="473" viewBox="0 0 450 473" fill="none" xmlns="http://www.w3.org/2000/svg">
<g clip-path="url(#clip0_1971_279)">
<path d="M82.9748 92.8075C82.5259 92.3586 81.917 92.1064 81.2822 92.1064L81.2218 92.1064C79.8998 92.1064 78.8281 93.1781 78.8281 94.5001L78.8281 379.346C78.8281 380.668 79.8998 381.74 81.2218 381.74L366.068 381.74C367.39 381.74 368.461 380.668 368.461 379.346L368.461 379.286C368.461 378.651 368.209 378.042 367.76 377.593L82.9748 92.8075Z" fill="#9000FF" fill-opacity="0.2"/>
<path fill-rule="evenodd" clip-rule="evenodd" d="M81.2208 87.3193L81.2812 87.3193C83.1857 87.3193 85.0123 88.0759 86.359 89.4226L371.145 374.208C372.491 375.555 373.248 377.381 373.248 379.286L373.248 379.346C373.248 383.312 370.033 386.527 366.067 386.527L115.924 386.527L115.924 386.53L74.0352 386.53L74.0352 342.247L74.0398 342.247L74.0398 94.5003C74.0398 90.5344 77.2548 87.3193 81.2208 87.3193ZM366.067 381.74L115.924 381.74L115.924 342.247L78.8271 342.247L78.8271 131.699C86.3914 137.13 93.4189 139.301 99.2701 137.418C105.251 135.493 109.139 129.605 111.057 120.891L367.759 377.593C368.208 378.042 368.461 378.651 368.461 379.286L368.461 379.346C368.461 380.668 367.389 381.74 366.067 381.74ZM108.021 117.854L107.701 119.418C105.906 128.196 102.339 132.878 97.9595 134.287C93.598 135.691 87.5198 134.137 79.8037 128.291L78.8271 127.552L78.8271 94.5003C78.8271 93.1783 79.8988 92.1067 81.2208 92.1067L81.2812 92.1067C81.9161 92.1067 82.5249 92.3589 82.9738 92.8078L108.021 117.854ZM81.2208 381.74L111.137 381.74L111.137 347.034L78.8271 347.034L78.8272 379.346C78.8271 380.668 79.8988 381.74 81.2208 381.74Z" fill="white"/>
<path d="M62.1215 54.4751V69.9121H56.2305V43.5961H62.0355L68.9585 58.3451L75.7955 43.5961H81.6005V69.9121H75.7525V54.4751L70.5925 65.3541H67.2815L62.1215 54.4751Z" fill="white"/>
<path d="M32.9061 390.959V406.912H27.0151V380.596H32.0461L42.9681 396.592V380.596H48.8591V406.912H43.7851L32.9061 390.959Z" fill="white"/>
<path d="M35.4775 246.457C34.0475 246.457 33.0025 246.255 32.3425 245.852V247.777V261.912H25.3575V247.887C25.3575 244.294 25.1741 241.214 24.8075 238.647C24.4408 236.08 23.7075 232.982 22.6075 229.352L29.3175 226.987L31.7925 236.557C32.1958 238.28 33.2041 239.142 34.8175 239.142C35.6241 239.142 36.2841 238.922 36.7975 238.482C37.3475 238.005 37.6225 237.382 37.6225 236.612C37.6225 235.585 37.2558 232.854 36.5225 228.417L43.5625 226.987C44.2958 231.424 44.6625 234.76 44.6625 236.997C44.6625 238.83 44.2591 240.462 43.4525 241.892C42.6825 243.322 41.6008 244.44 40.2075 245.247C38.8141 246.054 37.2375 246.457 35.4775 246.457Z" fill="white"/>
<path d="M185.957 431.545C184.527 431.545 183.482 431.343 182.822 430.94V432.865V447H175.837V432.975C175.837 429.382 175.654 426.302 175.287 423.735C174.92 421.168 174.187 418.07 173.087 414.44L179.797 412.075L182.272 421.645C182.675 423.368 183.684 424.23 185.297 424.23C186.104 424.23 186.764 424.01 187.277 423.57C187.827 423.093 188.102 422.47 188.102 421.7C188.102 420.673 187.735 417.942 187.002 413.505L194.042 412.075C194.775 416.512 195.142 419.848 195.142 422.085C195.142 423.918 194.739 425.55 193.932 426.98C193.162 428.41 192.08 429.528 190.687 430.335C189.294 431.142 187.717 431.545 185.957 431.545ZM206.079 447C204.723 447 203.696 446.67 202.999 446.01C202.339 445.313 202.009 444.213 202.009 442.71C202.009 441.207 202.339 440.143 202.999 439.52C203.696 438.897 204.723 438.585 206.079 438.585C207.473 438.585 208.499 438.897 209.159 439.52C209.856 440.143 210.204 441.207 210.204 442.71C210.204 444.213 209.856 445.313 209.159 446.01C208.499 446.67 207.473 447 206.079 447ZM217.09 436.77C217.09 434.13 217.897 431.362 219.51 428.465C221.16 425.532 223.855 422.323 227.595 418.84L225.23 416.695L229.52 411.47C234.36 415.1 238.137 418.272 240.85 420.985C243.564 423.698 245.489 426.228 246.625 428.575C247.762 430.885 248.33 433.323 248.33 435.89C248.33 438.2 247.872 440.198 246.955 441.885C246.039 443.572 244.829 444.855 243.325 445.735C241.859 446.578 240.282 447 238.595 447C235.625 447 233.535 446.285 232.325 444.855C231.739 445.552 230.914 446.083 229.85 446.45C228.824 446.817 227.65 447 226.33 447C223.397 447 221.124 446.102 219.51 444.305C217.897 442.472 217.09 439.96 217.09 436.77ZM241.345 435.835C241.345 433.745 240.649 431.71 239.255 429.73C237.862 427.75 235.625 425.55 232.545 423.13C229.612 425.66 227.449 427.988 226.055 430.115C224.699 432.205 224.02 434.277 224.02 436.33C224.02 438.567 224.974 439.685 226.88 439.685C227.87 439.685 228.622 439.392 229.135 438.805C229.649 438.218 229.905 437.393 229.905 436.33V432.81H236.01V436.495C236.01 437.448 235.937 438.2 235.79 438.75C236.267 439.373 237.184 439.685 238.54 439.685C239.347 439.685 240.007 439.355 240.52 438.695C241.07 438.035 241.345 437.082 241.345 435.835Z" fill="white"/>
<path d="M421.162 393.883C421.162 402.856 417.092 407.342 408.95 407.342C400.78 407.342 396.695 402.856 396.695 393.883C396.695 389.096 397.713 385.627 399.748 383.477C401.784 381.298 404.851 380.209 408.95 380.209C413.05 380.209 416.103 381.298 418.109 383.477C420.145 385.627 421.162 389.096 421.162 393.883ZM404.177 399.946C405.209 401.236 406.8 401.881 408.95 401.881C411.1 401.881 412.677 401.236 413.68 399.946C414.712 398.627 415.228 396.606 415.228 393.883C415.228 390.93 414.727 388.823 413.723 387.562C412.72 386.272 411.129 385.627 408.95 385.627C406.772 385.627 405.181 386.272 404.177 387.562C403.174 388.823 402.672 390.93 402.672 393.883C402.672 396.606 403.174 398.627 404.177 399.946Z" fill="white"/>
</g>
<defs>
<clipPath id="clip0_1971_279">
<rect width="450" height="473" fill="white"/>
</clipPath>
</defs>
</svg>
