<svg width="720" height="528" viewBox="0 0 720 528" fill="none" xmlns="http://www.w3.org/2000/svg">
<path d="M660.275 434.638C661.596 434.638 662.762 433.774 663.146 432.51C663.53 431.246 663.042 429.88 661.944 429.145L166.669 97.5072C165.897 96.9899 164.928 96.8601 164.046 97.1556C163.165 97.4511 162.47 98.1387 162.166 99.0171L47.1656 430.655C46.8476 431.572 46.9929 432.586 47.5558 433.377C48.1186 434.168 49.0293 434.638 50 434.638H660.17H660.275Z" fill="#9000FF" fill-opacity="0.2" stroke="white" stroke-width="6" stroke-linejoin="round"/>
<path d="M94.1728 435.859C96.5401 433.727 98.3977 431.093 99.6455 428.12C100.893 425.148 101.502 421.907 101.463 418.589C101.423 415.272 100.736 411.937 99.457 408.772C98.1784 405.606 96.3291 402.659 94.0179 400.092C91.7067 397.526 88.9691 395.378 85.9546 393.776C82.94 392.173 79.6959 391.141 76.401 390.755C73.1052 390.369 69.8179 390.636 66.7322 391.566C63.6448 392.496 60.8312 394.068 58.4638 396.2" stroke="white" stroke-width="6"/>
<path d="M156.16 65.8L153.61 73H146.46L157.46 42.4H164.81L175.81 73H168.76L166.11 65.8H156.16ZM165.26 60.55L161.16 49.5L157.01 60.55H165.26Z" fill="white"/>
<path d="M72.5184 485.7C70.9184 487.233 68.6184 488 65.6184 488H50.1684V457.4H65.1184C67.985 457.4 70.1517 458.117 71.6184 459.55C73.085 460.95 73.8184 463.017 73.8184 465.75C73.8184 467.317 73.535 468.65 72.9684 469.75C72.4017 470.85 71.6184 471.7 70.6184 472.3C72.0517 472.8 73.1184 473.583 73.8184 474.65C74.5517 475.683 74.9184 477.133 74.9184 479C74.9184 481.933 74.1184 484.167 72.5184 485.7ZM66.5184 463.55C65.9184 462.917 64.8684 462.6 63.3684 462.6H56.5684V470.1H63.7184C66.2184 470.1 67.4684 468.867 67.4684 466.4C67.4684 465.1 67.1517 464.15 66.5184 463.55ZM66.8684 475.75C66.135 475.15 65.0517 474.85 63.6184 474.85H56.5684V482.8H63.9184C65.3184 482.8 66.335 482.467 66.9684 481.8C67.635 481.133 67.9684 480.083 67.9684 478.65C67.9684 477.283 67.6017 476.317 66.8684 475.75Z" fill="white"/>
<path d="M293.599 478.7C293.599 476.3 294.333 473.783 295.799 471.15C297.299 468.483 299.749 465.567 303.149 462.4L300.999 460.45L304.899 455.7C309.299 459 312.733 461.883 315.199 464.35C317.666 466.817 319.416 469.117 320.449 471.25C321.483 473.35 321.999 475.567 321.999 477.9C321.999 480 321.583 481.817 320.749 483.35C319.916 484.883 318.816 486.05 317.449 486.85C316.116 487.617 314.683 488 313.149 488C310.449 488 308.549 487.35 307.449 486.05C306.916 486.683 306.166 487.167 305.199 487.5C304.266 487.833 303.199 488 301.999 488C299.333 488 297.266 487.183 295.799 485.55C294.333 483.883 293.599 481.6 293.599 478.7ZM315.649 477.85C315.649 475.95 315.016 474.1 313.749 472.3C312.483 470.5 310.449 468.5 307.649 466.3C304.983 468.6 303.016 470.717 301.749 472.65C300.516 474.55 299.899 476.433 299.899 478.3C299.899 480.333 300.766 481.35 302.499 481.35C303.399 481.35 304.083 481.083 304.549 480.55C305.016 480.017 305.249 479.267 305.249 478.3V475.1H310.799V478.45C310.799 479.317 310.733 480 310.599 480.5C311.033 481.067 311.866 481.35 313.099 481.35C313.833 481.35 314.433 481.05 314.899 480.45C315.399 479.85 315.649 478.983 315.649 477.85ZM355.514 487C353.381 488 350.897 488.5 348.064 488.5C344.264 488.5 341.314 487.5 339.214 485.5C337.147 483.467 336.114 480.55 336.114 476.75C336.114 472.85 337.197 469.917 339.364 467.95C341.531 465.983 344.497 465 348.264 465C349.764 465 351.081 465.117 352.214 465.35C353.347 465.55 354.431 465.917 355.464 466.45V471.8C353.731 470.933 351.797 470.5 349.664 470.5C347.464 470.5 345.814 471 344.714 472C343.614 473 343.064 474.583 343.064 476.75C343.064 478.917 343.581 480.5 344.614 481.5C345.647 482.5 347.314 483 349.614 483C351.581 483 353.547 482.483 355.514 481.45V487ZM367.855 471.15C367.122 471.517 366.472 471.983 365.905 472.55V488H359.305V465.5H365.555L365.805 467.45C368.005 465.817 370.388 465 372.955 465C374.355 465 375.455 465.217 376.255 465.65C377.088 466.083 377.738 466.75 378.205 467.65C379.272 466.783 380.422 466.133 381.655 465.7C382.888 465.233 384.305 465 385.905 465C388.372 465 390.188 465.683 391.355 467.05C392.522 468.383 393.105 470.45 393.105 473.25V488H386.405V474.1C386.405 472.833 386.138 471.933 385.605 471.4C385.105 470.867 384.255 470.6 383.055 470.6C381.488 470.6 380.188 471.167 379.155 472.3C379.255 472.733 379.305 473.383 379.305 474.25V488H373.005V474C373.005 472.767 372.788 471.9 372.355 471.4C371.922 470.867 371.172 470.6 370.105 470.6C369.372 470.6 368.622 470.783 367.855 471.15Z" fill="white"/>
<path d="M46.5178 267.098C50.4106 267.805 53.3437 268.518 55.3171 269.236C55.599 269.339 55.8851 269.478 56.1756 269.655C56.6113 269.53 56.9859 269.329 57.2992 269.053C57.5926 268.734 57.842 268.293 58.0472 267.729C58.2866 267.071 58.2982 266.455 58.0819 265.879C57.8457 265.261 57.3987 264.833 56.7409 264.593C55.8012 264.251 53.3594 263.699 49.4153 262.938L50.3826 256.479C54.3893 257.263 57.348 258.003 59.2588 258.699C60.8249 259.269 62.0934 260.121 63.0642 261.254C64.0463 262.357 64.6654 263.629 64.9213 265.07C65.1885 266.479 65.0486 267.936 64.5013 269.44C64.0795 270.599 63.504 271.595 62.7747 272.429C62.014 273.252 61.2564 273.775 60.5016 273.996C60.977 274.737 61.2259 275.661 61.2483 276.769C61.2509 277.834 61.0526 278.915 60.6536 280.011C60.209 281.233 59.7118 282.063 59.162 282.501L60.8065 283.1L72.8815 287.495L70.7097 293.462L58.7286 289.101C55.659 287.984 52.9708 287.183 50.6642 286.698C48.3576 286.213 45.4828 285.876 42.0398 285.687L42.1057 279.22L51.0506 280.081C52.6482 280.272 53.6978 279.679 54.1994 278.301C54.4503 277.611 54.4675 276.979 54.2513 276.404C54.0151 275.786 53.5681 275.357 52.9103 275.118C52.0333 274.798 49.5857 274.262 45.5676 273.509L46.5178 267.098ZM91.0808 234.569C91.2909 236.915 90.9114 239.42 89.9423 242.083C88.6426 245.653 86.694 248.083 84.0963 249.373C81.4788 250.619 78.3846 250.593 74.8138 249.293C71.149 247.959 68.7631 245.938 67.656 243.229C66.549 240.521 66.6397 237.397 67.9279 233.857C68.441 232.448 69.0009 231.25 69.6078 230.265C70.1834 229.268 70.8984 228.376 71.753 227.587L76.7804 229.417C75.3731 230.749 74.3047 232.418 73.5751 234.423C72.8226 236.49 72.7281 238.211 73.2916 239.587C73.8551 240.963 75.1548 242.021 77.1908 242.762C79.2268 243.503 80.8914 243.559 82.1845 242.93C83.4776 242.301 84.5175 240.906 85.3041 238.745C85.9768 236.897 86.1639 234.872 85.8655 232.671L91.0808 234.569ZM80.4076 217.551C80.5013 218.366 80.7175 219.136 81.0562 219.862L95.5744 225.146L93.3171 231.348L72.174 223.653L74.3117 217.78L76.2296 218.212C75.4472 215.586 75.4949 213.067 76.3728 210.655C76.8516 209.34 77.4314 208.38 78.1122 207.776C78.8044 207.142 79.6532 206.759 80.6585 206.628C80.209 205.329 79.9915 204.026 80.0061 202.719C79.9894 201.401 80.2547 199.99 80.8019 198.486C81.6456 196.168 82.909 194.695 84.5923 194.066C86.2442 193.426 88.3858 193.584 91.0169 194.542L104.877 199.587L102.586 205.883L89.5241 201.129C88.3339 200.695 87.3969 200.638 86.7133 200.957C86.0412 201.244 85.4999 201.952 85.0894 203.08C84.5536 204.552 84.6415 205.967 85.353 207.326C85.7944 207.38 86.4223 207.555 87.2367 207.852L100.158 212.555L98.0028 218.475L84.8471 213.686C83.6881 213.265 82.7996 213.172 82.1816 213.408C81.5322 213.633 81.0251 214.246 80.6603 215.249C80.4095 215.938 80.3252 216.705 80.4076 217.551Z" fill="white"/>
<path d="M119.208 396C118.208 390.233 116.941 385.233 115.408 381C113.908 376.733 111.808 372.3 109.108 367.7L114.508 364C116.608 367.467 118.291 370.917 119.558 374.35C120.858 377.75 121.808 381.283 122.408 384.95C123.041 381.083 123.941 377.467 125.108 374.1C126.274 370.7 127.858 367.333 129.858 364L135.508 367.7C132.941 371.933 130.891 376.2 129.358 380.5C127.824 384.8 126.491 389.967 125.358 396H119.208ZM135.72 386.7C135.72 384.3 136.454 381.783 137.92 379.15C139.42 376.483 141.87 373.567 145.27 370.4L143.12 368.45L147.02 363.7C151.42 367 154.854 369.883 157.32 372.35C159.787 374.817 161.537 377.117 162.57 379.25C163.604 381.35 164.12 383.567 164.12 385.9C164.12 388 163.704 389.817 162.87 391.35C162.037 392.883 160.937 394.05 159.57 394.85C158.237 395.617 156.804 396 155.27 396C152.57 396 150.67 395.35 149.57 394.05C149.037 394.683 148.287 395.167 147.32 395.5C146.387 395.833 145.32 396 144.12 396C141.454 396 139.387 395.183 137.92 393.55C136.454 391.883 135.72 389.6 135.72 386.7ZM157.77 385.85C157.77 383.95 157.137 382.1 155.87 380.3C154.604 378.5 152.57 376.5 149.77 374.3C147.104 376.6 145.137 378.717 143.87 380.65C142.637 382.55 142.02 384.433 142.02 386.3C142.02 388.333 142.887 389.35 144.62 389.35C145.52 389.35 146.204 389.083 146.67 388.55C147.137 388.017 147.37 387.267 147.37 386.3V383.1H152.92V386.45C152.92 387.317 152.854 388 152.72 388.5C153.154 389.067 153.987 389.35 155.22 389.35C155.954 389.35 156.554 389.05 157.02 388.45C157.52 387.85 157.77 386.983 157.77 385.85Z" fill="white"/>
<path d="M167.307 344.25C168.974 344.25 170.574 344.717 172.107 345.65C173.674 346.583 174.924 347.817 175.857 349.35C176.791 350.883 177.257 352.483 177.257 354.15C177.257 355.817 176.791 357.433 175.857 359C174.924 360.533 173.674 361.767 172.107 362.7C170.574 363.633 168.974 364.1 167.307 364.1C165.641 364.1 164.024 363.633 162.457 362.7C160.924 361.767 159.691 360.533 158.757 359C157.824 357.433 157.357 355.817 157.357 354.15C157.357 352.483 157.824 350.883 158.757 349.35C159.691 347.817 160.924 346.583 162.457 345.65C164.024 344.717 165.641 344.25 167.307 344.25ZM167.307 359.15C168.107 359.15 168.891 358.917 169.657 358.45C170.457 357.95 171.091 357.317 171.557 356.55C172.057 355.75 172.307 354.95 172.307 354.15C172.307 353.35 172.057 352.567 171.557 351.8C171.091 351.033 170.457 350.417 169.657 349.95C168.891 349.483 168.107 349.25 167.307 349.25C166.507 349.25 165.707 349.5 164.907 350C164.141 350.467 163.507 351.083 163.007 351.85C162.541 352.583 162.307 353.35 162.307 354.15C162.307 354.95 162.541 355.75 163.007 356.55C163.507 357.317 164.141 357.95 164.907 358.45C165.707 358.917 166.507 359.15 167.307 359.15Z" fill="white"/>
<path d="M674.732 487C671.965 488 669.082 488.5 666.082 488.5C661.015 488.5 657.199 487.167 654.632 484.5C652.065 481.833 650.782 478.033 650.782 473.1C650.782 467.867 652.032 463.867 654.532 461.1C657.032 458.333 660.865 456.95 666.032 456.95C669.299 456.95 672.182 457.45 674.682 458.45V465C672.015 463.833 669.299 463.25 666.532 463.25C663.499 463.25 661.265 464.083 659.832 465.75C658.432 467.383 657.732 469.833 657.732 473.1C657.732 479.133 660.699 482.15 666.632 482.15C669.332 482.15 672.032 481.583 674.732 480.45V487Z" fill="white"/>
</svg>
