<svg width="809" height="562" viewBox="0 0 809 562" fill="none" xmlns="http://www.w3.org/2000/svg">
<g clip-path="url(#clip0_1907_2)">
<path d="M431.288 433.167L543.773 272.342L640.859 142.123L706.382 343.784L431.288 433.167Z" fill="#9000FF" fill-opacity="0.2"/>
<path fill-rule="evenodd" clip-rule="evenodd" d="M418.635 442.537L712.685 346.994L642.629 131.386L539.721 269.415L418.635 442.537ZM640.861 142.123L543.775 272.342L431.29 433.168L706.384 343.784L640.861 142.123Z" fill="white"/>
<rect x="-2.52015" y="-1.28408" width="39.471" height="40.0024" transform="matrix(-0.309017 -0.951056 -0.951056 0.309017 707.605 343.685)" stroke="white" stroke-width="4"/>
<path d="M477.237 416.518C481.03 400.172 473.811 392.722 457.488 396.769" stroke="white" stroke-width="3" stroke-linecap="square"/>
<path d="M425.26 424.955C418.442 423.875 412.038 428.527 410.959 435.346C409.879 442.164 414.531 448.567 421.349 449.647C428.168 450.727 434.571 446.075 435.651 439.256C436.731 432.438 432.079 426.035 425.26 424.955Z" fill="white"/>
<path d="M642.26 123.955C635.442 122.875 629.038 127.527 627.959 134.346C626.879 141.164 631.531 147.567 638.349 148.647C645.168 149.727 651.571 145.075 652.651 138.256C653.731 131.438 649.079 125.035 642.26 123.955Z" fill="white"/>
<path d="M711.26 330.955C704.442 329.875 698.038 334.527 696.959 341.346C695.879 348.164 700.531 354.567 707.349 355.647C714.168 356.727 720.571 352.075 721.651 345.256C722.731 338.438 718.079 332.035 711.26 330.955Z" fill="white"/>
<path d="M650.726 110.388C647.754 111.462 644.657 111.999 641.435 111.999C635.992 111.999 631.893 110.567 629.136 107.703C626.379 104.838 625 100.756 625 95.4571C625 89.8356 626.343 85.539 629.028 82.5671C631.714 79.5953 635.831 78.1094 641.381 78.1094C644.89 78.1094 647.987 78.6465 650.672 79.7206L650.672 86.7564C647.808 85.5032 644.89 84.8766 641.918 84.8766C638.66 84.8766 636.261 85.7717 634.721 87.562C633.217 89.3165 632.465 91.9482 632.465 95.4571C632.465 101.938 635.652 105.178 642.025 105.178C644.926 105.178 647.826 104.57 650.726 103.352L650.726 110.388Z" fill="white"/>
<path d="M729.008 401.507C727.289 403.154 724.818 403.978 721.596 403.978L705 403.978L705 371.108L721.059 371.108C724.138 371.108 726.465 371.878 728.041 373.418C729.616 374.922 730.404 377.142 730.404 380.078C730.404 381.761 730.1 383.193 729.491 384.374C728.882 385.556 728.041 386.469 726.967 387.113C728.506 387.65 729.652 388.492 730.404 389.638C731.192 390.748 731.586 392.305 731.586 394.31C731.586 397.461 730.726 399.86 729.008 401.507ZM722.563 377.714C721.918 377.034 720.79 376.694 719.179 376.694L711.875 376.694L711.875 384.75L719.555 384.75C722.24 384.75 723.583 383.425 723.583 380.776C723.583 379.379 723.243 378.359 722.563 377.714ZM722.939 390.819C722.151 390.175 720.987 389.853 719.447 389.853L711.875 389.853L711.875 398.392L719.77 398.392C721.274 398.392 722.366 398.034 723.046 397.318C723.762 396.602 724.12 395.474 724.12 393.934C724.12 392.466 723.726 391.428 722.939 390.819Z" fill="white"/>
<path d="M391.423 498.956L388.684 506.69L381.004 506.69L392.82 473.82L400.715 473.82L412.531 506.69L404.958 506.69L402.111 498.956L391.423 498.956ZM401.198 493.316L396.794 481.447L392.336 493.316L401.198 493.316Z" fill="white"/>
<path d="M415.78 474.694C414.66 474.655 413.851 474.346 413.351 473.768C412.852 473.151 412.628 472.102 412.68 470.623C412.786 467.585 413.001 465.431 413.326 464.162C413.652 462.852 414.244 461.932 415.103 461.402C415.962 460.872 417.398 460.442 419.411 460.112L419.294 463.47C418.126 463.669 417.318 463.881 416.87 464.105C416.462 464.331 416.189 464.682 416.053 465.157C415.916 465.633 415.826 466.49 415.783 467.73C417.022 467.773 417.912 468.064 418.454 468.603C418.997 469.103 419.247 469.972 419.203 471.211C419.159 472.49 418.847 473.4 418.268 473.94C417.728 474.482 416.899 474.733 415.78 474.694Z" fill="white"/>
<path d="M740.983 371.804C739.863 371.765 739.054 371.457 738.554 370.879C738.055 370.261 737.831 369.213 737.883 367.733C737.989 364.695 738.204 362.542 738.529 361.272C738.855 359.963 739.447 359.043 740.306 358.512C741.165 357.982 742.601 357.552 744.614 357.222L744.497 360.58C743.329 360.779 742.521 360.991 742.073 361.216C741.665 361.442 741.392 361.792 741.256 362.268C741.119 362.743 741.029 363.601 740.986 364.84C742.225 364.883 743.115 365.175 743.657 365.714C744.2 366.213 744.45 367.082 744.406 368.321C744.362 369.601 744.05 370.51 743.471 371.05C742.931 371.592 742.102 371.843 740.983 371.804Z" fill="white"/>
<path d="M659.237 79.8041C658.117 79.765 657.308 79.4566 656.808 78.8788C656.309 78.261 656.085 77.2126 656.137 75.7335C656.243 72.6953 656.458 70.5415 656.783 69.2721C657.109 67.9626 657.701 67.0428 658.56 66.5124C659.419 65.9821 660.855 65.5519 662.868 65.222L662.751 68.5799C661.583 68.7793 660.775 68.9912 660.327 69.2157C659.919 69.4416 659.646 69.7923 659.51 70.2678C659.373 70.7434 659.283 71.6007 659.24 72.84C660.479 72.8833 661.369 73.1745 661.911 73.7137C662.454 74.213 662.704 75.0822 662.66 76.3215C662.616 77.6007 662.304 78.5104 661.725 79.0505C661.185 79.592 660.356 79.8432 659.237 79.8041Z" fill="white"/>
<path d="M123.919 326.322L259.316 224.182L373.883 143.084L373.883 326.322L123.919 326.322Z" fill="#9000FF" fill-opacity="0.2"/>
<path fill-rule="evenodd" clip-rule="evenodd" d="M111.019 330.643L378.206 330.643L378.206 134.732L256.769 220.694L111.019 330.643ZM373.885 143.084L259.318 224.183L123.922 326.323L373.885 326.323L373.885 143.084Z" fill="white"/>
<rect x="-2" y="-2" width="33" height="39" transform="matrix(-2.60482e-08 -1 -1 2.60482e-08 374 326)" stroke="white" stroke-width="4"/>
<path d="M167.107 327.233C176.075 312.347 171.349 302.698 153.975 301.461" stroke="white" stroke-width="3" stroke-linecap="square"/>
<path d="M121.433 317.904C116.118 315.196 109.613 317.309 106.904 322.625C104.196 327.94 106.31 334.445 111.625 337.154C116.941 339.862 123.446 337.748 126.154 332.433C128.863 327.117 126.749 320.612 121.433 317.904Z" fill="white"/>
<path d="M380.433 126.904C375.118 124.196 368.613 126.309 365.904 131.625C363.196 136.94 365.31 143.445 370.625 146.154C375.941 148.862 382.446 146.748 385.154 141.433C387.863 136.117 385.749 129.612 380.433 126.904Z" fill="white"/>
<path d="M382.433 317.904C377.118 315.196 370.613 317.309 367.904 322.625C365.196 327.94 367.31 334.445 372.625 337.154C377.941 339.862 384.446 337.748 387.154 332.433C389.863 327.117 387.749 320.612 382.433 317.904Z" fill="white"/>
<path d="M387.232 108.184C384.664 109.113 381.987 109.577 379.202 109.577C374.499 109.577 370.956 108.339 368.574 105.864C366.191 103.388 365 99.8609 365 95.2815C365 90.4236 366.16 86.7105 368.481 84.1423C370.802 81.5741 374.36 80.29 379.156 80.29C382.188 80.29 384.865 80.7542 387.185 81.6824L387.185 87.7625C384.71 86.6796 382.188 86.1381 379.62 86.1381C376.804 86.1381 374.731 86.9116 373.401 88.4587C372.101 89.9749 371.451 92.2491 371.451 95.2815C371.451 100.882 374.205 103.682 379.713 103.682C382.219 103.682 384.726 103.156 387.232 102.104L387.232 108.184Z" fill="white"/>
<path d="M379.672 382.376C378.187 383.8 376.052 384.511 373.267 384.511L358.926 384.511L358.926 356.106L372.803 356.106C375.464 356.106 377.476 356.772 378.837 358.102C380.198 359.402 380.879 361.32 380.879 363.857C380.879 365.312 380.616 366.549 380.09 367.57C379.564 368.592 378.837 369.381 377.909 369.938C379.239 370.402 380.229 371.129 380.879 372.119C381.56 373.078 381.9 374.424 381.9 376.157C381.9 378.88 381.158 380.953 379.672 382.376ZM374.103 361.815C373.546 361.227 372.571 360.933 371.179 360.933L364.867 360.933L364.867 367.895L371.504 367.895C373.824 367.895 374.985 366.751 374.985 364.461C374.985 363.254 374.691 362.372 374.103 361.815ZM374.428 373.14C373.747 372.583 372.741 372.305 371.411 372.305L364.867 372.305L364.867 379.684L371.689 379.684C372.989 379.684 373.933 379.375 374.521 378.756C375.139 378.137 375.449 377.163 375.449 375.832C375.449 374.563 375.108 373.666 374.428 373.14Z" fill="white"/>
<path d="M75.6799 371.542L73.3128 378.225L66.6758 378.225L76.8867 349.82L83.7094 349.82L93.9203 378.225L87.376 378.225L84.9161 371.542L75.6799 371.542ZM84.1271 366.668L80.3212 356.411L76.4689 366.668L84.1271 366.668Z" fill="white"/>
<path d="M99.2413 354.815C98.2735 354.815 97.5648 354.573 97.1155 354.089C96.6661 353.57 96.4414 352.672 96.4414 351.393C96.4414 348.765 96.5624 346.899 96.8044 345.793C97.0463 344.652 97.5303 343.84 98.2562 343.356C98.9821 342.872 100.209 342.457 101.938 342.111L101.938 345.015C100.935 345.222 100.244 345.43 99.8635 345.637C99.5179 345.845 99.2932 346.156 99.1895 346.57C99.0858 346.985 99.0339 347.728 99.0339 348.8C100.105 348.8 100.883 349.025 101.367 349.474C101.851 349.889 102.093 350.632 102.093 351.704C102.093 352.81 101.851 353.605 101.367 354.089C100.918 354.573 100.209 354.815 99.2413 354.815Z" fill="white"/>
<path d="M391.038 360.576C390.07 360.576 389.362 360.334 388.912 359.85C388.463 359.332 388.238 358.433 388.238 357.154C388.238 354.527 388.359 352.661 388.601 351.554C388.843 350.414 389.327 349.601 390.053 349.117C390.779 348.634 392.006 348.219 393.734 347.873L393.734 350.777C392.732 350.984 392.041 351.191 391.66 351.399C391.315 351.606 391.09 351.917 390.986 352.332C390.883 352.747 390.831 353.49 390.831 354.562C391.902 354.562 392.68 354.786 393.164 355.236C393.648 355.651 393.89 356.394 393.89 357.465C393.89 358.572 393.648 359.367 393.164 359.85C392.715 360.334 392.006 360.576 391.038 360.576Z" fill="white"/>
<path d="M398.765 79.7033C397.797 79.7033 397.088 79.4614 396.639 78.9774C396.19 78.4589 395.965 77.5602 395.965 76.2812C395.965 73.6541 396.086 71.7875 396.328 70.6814C396.57 69.5407 397.054 68.7283 397.78 68.2444C398.506 67.7605 399.733 67.3457 401.461 67L401.461 69.9036C400.459 70.111 399.767 70.3184 399.387 70.5258C399.041 70.7332 398.817 71.0443 398.713 71.4591C398.609 71.8739 398.557 72.6171 398.557 73.6887C399.629 73.6887 400.407 73.9134 400.891 74.3627C401.375 74.7776 401.617 75.5207 401.617 76.5923C401.617 77.6985 401.375 78.4935 400.891 78.9774C400.441 79.4614 399.733 79.7033 398.765 79.7033Z" fill="white"/>
</g>
<defs>
<clipPath id="clip0_1907_2">
<rect width="809" height="562" fill="white"/>
</clipPath>
</defs>
</svg>
