<svg width="681" height="372" viewBox="0 0 681 372" fill="none" xmlns="http://www.w3.org/2000/svg">
<path d="M338.852 303.439L479.116 235.118L593.434 175.084L443.244 98.5576L338.852 303.439Z" fill="#9000FF" fill-opacity="0.2"/>
<path d="M443.272 95.2035L441.936 94.5225L441.255 95.8591L334.148 306.068L332.114 310.059L336.141 308.097L480.453 237.805L480.473 237.795L480.494 237.785L597.399 176.391L599.966 175.043L597.383 173.727L443.272 95.2035ZM477.764 232.441L345.594 296.819L444.558 102.593L586.908 175.124L477.764 232.441Z" fill="white" stroke="black" stroke-width="3"/>
<path d="M563.312 161.164C545.716 168.521 543.946 179.759 559.05 191.495" stroke="white" stroke-width="3" stroke-linecap="square"/>
<path d="M357.641 269.43C370.946 268.484 375.898 275.079 370.691 287.392" stroke="white" stroke-width="3" stroke-linecap="square"/>
<path d="M342.371 305.685C342.371 309.93 338.93 313.371 334.685 313.371C330.441 313.371 327 309.93 327 305.685C327 301.441 330.441 298 334.685 298C338.93 298 342.371 301.441 342.371 305.685Z" fill="white"/>
<path d="M602.714 175.41C602.714 179.654 599.273 183.095 595.029 183.095C590.785 183.095 587.344 179.654 587.344 175.41C587.344 171.165 590.785 167.725 595.029 167.725C599.273 167.725 602.714 171.165 602.714 175.41Z" fill="white"/>
<path d="M636.791 188.601L637.451 188.362V187.66V182.067V180.563L636.064 181.145C633.871 182.066 631.696 182.519 629.535 182.519C627.16 182.519 625.561 181.916 624.548 180.886C623.531 179.852 622.935 178.217 622.935 175.791C622.935 173.121 623.51 171.306 624.487 170.166C625.456 169.039 627.035 168.38 629.449 168.38C631.667 168.38 633.85 168.846 636.008 169.79L637.409 170.403V168.874V163.281V162.604L636.78 162.352C634.505 161.442 631.913 161 629.022 161C624.44 161 620.849 162.23 618.46 164.873C616.103 167.482 615 171.174 615 175.791C615 180.174 616.143 183.7 618.567 186.219C621.009 188.756 624.57 189.941 629.065 189.941C631.74 189.941 634.318 189.495 636.791 188.601Z" fill="white" stroke="black" stroke-width="2"/>
<path d="M294 323.13V324.13H295H308.193C310.92 324.13 313.167 323.431 314.777 321.888C316.398 320.335 317.134 318.13 317.134 315.445C317.134 313.744 316.804 312.279 316.021 311.166C315.577 310.493 315 309.942 314.311 309.504C314.72 309.066 315.07 308.564 315.358 308.004C315.932 306.89 316.195 305.586 316.195 304.13C316.195 301.624 315.52 299.559 314.011 298.117C312.508 296.651 310.368 296 307.766 296H295H294V297V323.13ZM308.236 302.939L308.254 302.959L308.274 302.978C308.535 303.225 308.773 303.715 308.773 304.685C308.773 305.581 308.547 306.07 308.27 306.343C307.99 306.619 307.487 306.845 306.571 306.845H301.465V302.44H306.272C307.464 302.44 308.01 302.701 308.236 302.939ZM308.627 313.443L308.638 313.452L308.649 313.461C308.93 313.678 309.2 314.136 309.2 315.146C309.2 316.24 308.942 316.825 308.639 317.128L308.63 317.138L308.621 317.147C308.348 317.434 307.805 317.69 306.741 317.69H301.465V312.901H306.485C307.592 312.901 308.251 313.136 308.627 313.443Z" fill="white" stroke="black" stroke-width="2"/>
<path d="M437.106 84.1299H437.812L438.048 83.4637L439.99 77.9817H447.082L449.104 83.4753L449.345 84.1299H450.042H456.062H457.485L457.004 82.7916L447.61 56.6617L447.373 56H446.669H440.393H439.69L439.452 56.6617L430.059 82.7916L429.578 84.1299H431H437.106ZM441.453 71.4986L443.547 65.9222L445.616 71.4986H441.453Z" fill="white" stroke="black" stroke-width="2"/>
<rect x="443.312" y="98.8984" width="29.0257" height="29.6519" transform="rotate(27 443.312 98.8984)" stroke="white" stroke-width="3"/>
<path d="M451.288 99.9235C451.288 104.168 447.848 107.609 443.603 107.609C439.359 107.609 435.918 104.168 435.918 99.9235C435.918 95.6791 439.359 92.2383 443.603 92.2383C447.848 92.2383 451.288 95.6791 451.288 99.9235Z" fill="white"/>
<path d="M79.6445 281.286L192.502 226.315L284.484 178.011L163.639 116.438L79.6445 281.286Z" fill="#9000FF" fill-opacity="0.2"/>
<path d="M163.793 113.478L162.457 112.797L161.776 114.133L75.5971 283.269L73.5636 287.26L77.5904 285.298L193.705 228.741L193.725 228.731L193.745 228.72L287.808 179.323L290.375 177.975L287.792 176.658L163.793 113.478ZM191.281 223.9L85.7266 275.314L164.823 120.079L278.593 178.047L191.281 223.9Z" fill="white" stroke="black" stroke-width="3"/>
<path d="M260.246 166.812C246.088 172.731 244.664 181.773 256.816 191.216" stroke="white" stroke-width="3" stroke-linecap="square"/>
<path d="M94.7617 253.923C105.467 253.162 109.452 258.467 105.262 268.375" stroke="white" stroke-width="3" stroke-linecap="square"/>
<path d="M82.4727 283.094C82.4727 286.509 79.7042 289.277 76.2891 289.277C72.874 289.277 70.1055 286.509 70.1055 283.094C70.1055 279.679 72.874 276.91 76.2891 276.91C79.7042 276.91 82.4727 279.679 82.4727 283.094Z" fill="white"/>
<path d="M291.949 178.273C291.949 181.689 289.181 184.457 285.766 184.457C282.351 184.457 279.582 181.689 279.582 178.273C279.582 174.858 282.351 172.09 285.766 172.09C289.181 172.09 291.949 174.858 291.949 178.273Z" fill="white"/>
<path d="M319.432 189.07L320.092 188.832V188.13V183.629V182.125L318.705 182.707C316.962 183.439 315.238 183.798 313.527 183.798C311.647 183.798 310.42 183.321 309.654 182.542C308.884 181.76 308.412 180.502 308.412 178.58C308.412 176.455 308.87 175.049 309.613 174.181C310.344 173.332 311.55 172.812 313.458 172.812C315.214 172.812 316.944 173.181 318.657 173.93L320.058 174.543V173.014V168.514V167.837L319.429 167.586C317.571 166.842 315.46 166.483 313.115 166.483C309.395 166.483 306.443 167.482 304.471 169.664C302.531 171.812 301.637 174.836 301.637 178.58C301.637 182.139 302.565 185.032 304.561 187.106C306.575 189.197 309.499 190.16 313.149 190.16C315.324 190.16 317.42 189.797 319.432 189.07Z" fill="white" stroke="black" stroke-width="2"/>
<path d="M43.3594 297.13V298.13H44.3594H54.9746C57.2005 298.13 59.0639 297.559 60.4072 296.271C61.7611 294.974 62.3643 293.142 62.3643 290.946C62.3643 289.557 62.0954 288.334 61.4346 287.394C61.1025 286.892 60.6843 286.472 60.1928 286.128C60.4696 285.805 60.7098 285.444 60.9135 285.049C61.3926 284.119 61.6085 283.037 61.6085 281.842C61.6085 279.792 61.0556 278.072 59.7917 276.863C58.5337 275.637 56.7543 275.105 54.631 275.105H44.3594H43.3594V276.105V297.13ZM54.867 281.019L54.8856 281.038L54.9052 281.057C55.0608 281.204 55.2456 281.536 55.2456 282.289C55.2456 282.979 55.072 283.313 54.8992 283.484C54.7239 283.657 54.3772 283.831 53.6691 283.831H49.7566V280.678H53.4287C54.3704 280.678 54.7416 280.886 54.867 281.019ZM55.2002 289.487L55.2109 289.496L55.222 289.504C55.3811 289.627 55.5892 289.924 55.5892 290.706C55.5892 291.561 55.3875 291.97 55.195 292.163L55.1859 292.172L55.1771 292.181C55.0101 292.357 54.6361 292.557 53.8066 292.557H49.7566V289.095H53.6004C54.4677 289.095 54.9465 289.28 55.2002 289.487Z" fill="white" stroke="black" stroke-width="2"/>
<path d="M158.698 105.024H159.404L159.64 104.358L161.156 100.077H166.589L168.168 104.37L168.409 105.024H169.107H173.951H175.373L174.892 103.686L167.334 82.6617L167.096 82H166.393H161.343H160.64L160.402 82.6617L152.844 103.686L152.363 105.024H153.785H158.698ZM162.477 94.4703L163.879 90.7375L165.264 94.4703H162.477Z" fill="white" stroke="black" stroke-width="2"/>
<rect x="163.82" y="117.106" width="22.7681" height="23.2719" transform="rotate(27 163.82 117.106)" stroke="white" stroke-width="3"/>
<path d="M170.109 117.536C170.109 120.951 167.341 123.72 163.926 123.72C160.511 123.72 157.742 120.951 157.742 117.536C157.742 114.121 160.511 111.353 163.926 111.353C167.341 111.353 170.109 114.121 170.109 117.536Z" fill="white"/>
</svg>
