<svg width="785" height="772" viewBox="0 0 785 772" fill="none" xmlns="http://www.w3.org/2000/svg">
<rect x="132" y="137" width="511" height="511" fill="#9000FF" fill-opacity="0.2" stroke="white" stroke-width="8"/>
<path d="M90.5359 112.36L87.4759 121H78.8959L92.0959 84.28H100.916L114.116 121H105.656L102.476 112.36H90.5359ZM101.456 106.06L96.5359 92.8L91.5559 106.06H101.456Z" fill="white"/>
<path d="M89.2288 409.6C89.2288 404.373 88.9621 399.893 88.4288 396.16C87.8954 392.427 86.8288 387.92 85.2288 382.64L95.1488 379.2C96.8554 384.48 97.9754 389.2 98.5088 393.36C99.0954 397.467 99.3888 402.827 99.3888 409.44V430H89.2288V409.6Z" fill="white"/>
<path d="M676.229 409.6C676.229 404.373 675.962 399.893 675.429 396.16C674.895 392.427 673.829 387.92 672.229 382.64L682.149 379.2C683.855 384.48 684.975 389.2 685.509 393.36C686.095 397.467 686.389 402.827 686.389 409.44V430H676.229V409.6Z" fill="white"/>
<path d="M378.229 719.6C378.229 714.373 377.962 709.893 377.429 706.16C376.895 702.427 375.829 697.92 374.229 692.64L384.149 689.2C385.855 694.48 386.975 699.2 387.509 703.36C388.095 707.467 388.389 712.827 388.389 719.44V740H378.229V719.6Z" fill="white"/>
<path d="M377.229 81.6C377.229 76.3733 376.962 71.8933 376.429 68.16C375.895 64.4267 374.829 59.92 373.229 54.64L383.149 51.2C384.855 56.48 385.975 61.2 386.509 65.36C387.095 69.4667 387.389 74.8267 387.389 81.44V102H377.229V81.6Z" fill="white"/>
<path d="M159.926 236C159.926 232.733 159.759 229.917 159.426 227.55C159.092 225.15 158.426 222.283 157.426 218.95L162.426 217.2C163.492 220.567 164.192 223.517 164.526 226.05C164.892 228.583 165.076 231.883 165.076 235.95V249H159.926V236Z" fill="white"/>
<path d="M545.926 614C545.926 610.733 545.759 607.917 545.426 605.55C545.092 603.15 544.426 600.283 543.426 596.95L548.426 595.2C549.492 598.567 550.192 601.517 550.526 604.05C550.892 606.583 551.076 609.883 551.076 613.95V627H545.926V614Z" fill="white"/>
<path d="M226.25 176.2C224.617 176.2 223.483 175.85 222.85 175.15C222.883 175.683 222.9 176.617 222.9 177.95V191H217.75V178C217.75 174.733 217.583 171.917 217.25 169.55C216.917 167.15 216.25 164.283 215.25 160.95L220.2 159.2L222.45 167.95C222.95 169.85 224.083 170.8 225.85 170.8C226.75 170.8 227.517 170.533 228.15 170C228.783 169.433 229.1 168.717 229.1 167.85C229.1 166.717 228.767 164.2 228.1 160.3L233.3 159.2C233.967 163.167 234.3 166.1 234.3 168C234.3 169.567 233.95 170.983 233.25 172.25C232.55 173.483 231.583 174.45 230.35 175.15C229.15 175.85 227.783 176.2 226.25 176.2Z" fill="white"/>
<path d="M612.25 554.2C610.617 554.2 609.483 553.85 608.85 553.15C608.883 553.683 608.9 554.617 608.9 555.95V569H603.75V556C603.75 552.733 603.583 549.917 603.25 547.55C602.917 545.15 602.25 542.283 601.25 538.95L606.2 537.2L608.45 545.95C608.95 547.85 610.083 548.8 611.85 548.8C612.75 548.8 613.517 548.533 614.15 548C614.783 547.433 615.1 546.717 615.1 545.85C615.1 544.717 614.767 542.2 614.1 538.3L619.3 537.2C619.967 541.167 620.3 544.1 620.3 546C620.3 547.567 619.95 548.983 619.25 550.25C618.55 551.483 617.583 552.45 616.35 553.15C615.15 553.85 613.783 554.2 612.25 554.2Z" fill="white"/>
<path d="M110.024 688.62C107.384 691.54 103.364 693 97.9644 693H83.2044V656.28H97.9644C103.324 656.28 107.324 657.76 109.964 660.72C112.644 663.64 113.984 668.36 113.984 674.88C113.984 681.12 112.664 685.7 110.024 688.62ZM102.284 664.86C101.004 664.06 99.1844 663.66 96.8244 663.66H91.4244V686.1H96.8244C98.9044 686.1 100.564 685.8 101.804 685.2C103.084 684.56 104.044 683.44 104.684 681.84C105.364 680.2 105.704 677.88 105.704 674.88C105.704 672.16 105.444 670 104.924 668.4C104.444 666.8 103.564 665.62 102.284 664.86Z" fill="white"/>
<path d="M686.581 118.24C684.661 120.08 681.901 121 678.301 121H659.761V84.28H677.701C681.141 84.28 683.741 85.14 685.501 86.86C687.261 88.54 688.141 91.02 688.141 94.3C688.141 96.18 687.801 97.78 687.121 99.1C686.441 100.42 685.501 101.44 684.301 102.16C686.021 102.76 687.301 103.7 688.141 104.98C689.021 106.22 689.461 107.96 689.461 110.2C689.461 113.72 688.501 116.4 686.581 118.24ZM679.381 91.66C678.661 90.9 677.401 90.52 675.601 90.52H667.441V99.52H676.021C679.021 99.52 680.521 98.04 680.521 95.08C680.521 93.52 680.141 92.38 679.381 91.66ZM679.801 106.3C678.921 105.58 677.621 105.22 675.901 105.22H667.441V114.76H676.261C677.941 114.76 679.161 114.36 679.921 113.56C680.721 112.76 681.121 111.5 681.121 109.78C681.121 108.14 680.681 106.98 679.801 106.3Z" fill="white"/>
<path d="M685.329 690.8C682.009 692 678.549 692.6 674.949 692.6C668.869 692.6 664.289 691 661.209 687.8C658.129 684.6 656.589 680.04 656.589 674.12C656.589 667.84 658.089 663.04 661.089 659.72C664.089 656.4 668.689 654.74 674.889 654.74C678.809 654.74 682.269 655.34 685.269 656.54V664.4C682.069 663 678.809 662.3 675.489 662.3C671.849 662.3 669.169 663.3 667.449 665.3C665.769 667.26 664.929 670.2 664.929 674.12C664.929 681.36 668.489 684.98 675.609 684.98C678.849 684.98 682.089 684.3 685.329 682.94V690.8Z" fill="white"/>
<rect x="132" y="602" width="45" height="46" stroke="white" stroke-width="8"/>
<rect x="598" y="137" width="45" height="46" stroke="white" stroke-width="8"/>
<path d="M133 184.145C168.107 193.1 183.642 178.073 174.145 143" stroke="white" stroke-width="8" stroke-linecap="square"/>
<path d="M600.738 645.334C589.355 610.937 603.262 594.392 638.913 601.419" stroke="white" stroke-width="8" stroke-linecap="square"/>
<line x1="135.826" y1="141.169" x2="641.826" y2="646.169" stroke="white" stroke-opacity="0.6" stroke-width="8" stroke-dasharray="5 5"/>
</svg>
