<svg width="503" height="330" viewBox="0 0 503 330" fill="none" xmlns="http://www.w3.org/2000/svg">
<g clip-path="url(#clip0_1969_237)">
<path d="M74.94 98.4873C71.1779 96.5902 72.5366 90.9209 76.75 90.9209L421.936 90.9209C424.145 90.9209 425.936 92.7118 425.936 94.9209L425.936 266.554C425.936 269.502 422.914 271.464 420.26 270.182C396.878 258.892 306.392 215.115 245.436 184.421C190.449 156.732 108.389 115.355 74.94 98.4873Z" fill="#9000FF" fill-opacity="0.2"/>
<path fill-rule="evenodd" clip-rule="evenodd" d="M76.7498 85.9209L421.936 85.9209C426.907 85.9209 430.936 89.9503 430.936 94.9209L430.936 266.554C430.936 273.053 424.181 277.628 418.085 274.685C394.708 263.397 304.186 219.602 243.187 188.887C188.198 161.197 106.137 119.82 72.6884 102.952C64.1861 98.6642 67.3115 85.9209 76.7498 85.9209ZM76.7498 90.9209C72.5364 90.9209 71.1776 96.5902 74.9397 98.4873C108.389 115.355 190.448 156.732 245.436 184.421C306.392 215.115 396.878 258.892 420.259 270.182C422.914 271.464 425.936 269.502 425.936 266.554L425.936 94.9209C425.936 92.7118 424.145 90.9209 421.936 90.9209L76.7498 90.9209Z" fill="white"/>
<g filter="url(#filter0_d_1969_237)">
<path d="M117.932 89.9716C126.532 104.248 122 113.502 105.337 114.689" stroke="white" stroke-width="3" stroke-linecap="square"/>
</g>
<path d="M428.934 95.9219L428.934 119.922L395.934 119.922L395.934 88.9219L421.934 88.9219C425.8 88.9219 428.934 92.0559 428.934 95.9219Z" stroke="white" stroke-width="4"/>
<path d="M40.7467 100.108C38.396 101.656 35.3 102.43 31.4587 102.43C27.1873 102.43 23.948 101.283 21.7407 98.9899C19.562 96.6965 18.4727 93.4285 18.4727 89.1859C18.4727 84.7139 19.5763 81.2882 21.7837 78.9089C24.0197 76.5009 27.3593 75.2969 31.8027 75.2969C34.8413 75.2969 37.3497 75.6552 39.3277 76.3719V81.9189C37.321 81.1162 34.956 80.7149 32.2327 80.7149C27.044 80.7149 24.4497 83.5385 24.4497 89.1859C24.4497 91.7945 25.023 93.7439 26.1697 95.0339C27.345 96.3239 29.108 96.9689 31.4587 96.9689C33.064 96.9689 34.526 96.7252 35.8447 96.2379V91.0779H30.3837V87.0789H40.7467V100.108Z" fill="white"/>
<path d="M432.103 64.586V69.316H414V43H432.103V47.73H419.891V53.707H430.641V58.609H419.891V64.586H432.103Z" fill="white"/>
<path d="M415.891 306.609V317.316H410V291H427.802V295.73H415.891V301.707H426.34V306.609H415.891Z" fill="white"/>
<path d="M242.477 41.99C241.964 40.9267 241.707 39.5883 241.707 37.975C241.707 36.1783 242.165 34.5283 243.082 33.025C244.035 31.485 245.319 30.275 246.932 29.395C248.582 28.515 250.397 28.075 252.377 28.075C254.724 28.075 257.125 28.625 259.582 29.725L257.822 36.16C255.915 35.4267 254.192 35.06 252.652 35.06C251.405 35.06 250.397 35.4267 249.627 36.16C248.894 36.8933 248.527 37.81 248.527 38.91C248.527 40.12 248.839 41.055 249.462 41.715C250.122 42.375 250.929 42.705 251.882 42.705C253.899 42.705 256.429 42.0817 259.472 40.835L261.177 47.27C257.144 49.0667 253.184 49.965 249.297 49.965C247.354 49.965 245.594 49.8 244.017 49.47C242.44 49.1033 241.139 48.6083 240.112 47.985V49.745V63H233.127V48.975C233.127 45.3817 232.944 42.3017 232.577 39.735C232.21 37.1683 231.477 34.07 230.377 30.44L237.087 28.075C237.49 29.3217 237.93 31.045 238.407 33.245C238.884 35.445 239.269 37.425 239.562 39.185C239.709 39.955 239.984 40.56 240.387 41C240.79 41.4033 241.487 41.7333 242.477 41.99Z" fill="white"/>
<path d="M476.544 187.545C475.114 187.545 474.069 187.343 473.409 186.94V188.865V203H466.424V188.975C466.424 185.382 466.241 182.302 465.874 179.735C465.507 177.168 464.774 174.07 463.674 170.44L470.384 168.075L472.859 177.645C473.262 179.368 474.271 180.23 475.884 180.23C476.691 180.23 477.351 180.01 477.864 179.57C478.414 179.093 478.689 178.47 478.689 177.7C478.689 176.673 478.322 173.942 477.589 169.505L484.629 168.075C485.362 172.512 485.729 175.848 485.729 178.085C485.729 179.918 485.326 181.55 484.519 182.98C483.749 184.41 482.667 185.528 481.274 186.335C479.881 187.142 478.304 187.545 476.544 187.545Z" fill="white"/>
</g>
<defs>
<filter id="filter0_d_1969_237" x="72.2344" y="56.4131" width="82.9609" height="91.3789" filterUnits="userSpaceOnUse" color-interpolation-filters="sRGB">
<feFlood flood-opacity="0" result="BackgroundImageFix"/>
<feColorMatrix in="SourceAlpha" type="matrix" values="0 0 0 0 0 0 0 0 0 0 0 0 0 0 0 0 0 0 127 0" result="hardAlpha"/>
<feOffset/>
<feGaussianBlur stdDeviation="15.75"/>
<feComposite in2="hardAlpha" operator="out"/>
<feColorMatrix type="matrix" values="0 0 0 0 0 0 0 0 0 1 0 0 0 0 0.916667 0 0 0 0.7 0"/>
<feBlend mode="normal" in2="BackgroundImageFix" result="effect1_dropShadow_1969_237"/>
<feBlend mode="normal" in="SourceGraphic" in2="effect1_dropShadow_1969_237" result="shape"/>
</filter>
<clipPath id="clip0_1969_237">
<rect width="503" height="330" fill="white"/>
</clipPath>
</defs>
</svg>
