<svg width="890" height="683" viewBox="0 0 890 683" fill="none" xmlns="http://www.w3.org/2000/svg">
<path d="M443.609 109.821L440.255 104.657L436.9 109.821L105.645 619.821L101.632 626H109H771.51H778.877L774.864 619.821L443.609 109.821Z" fill="#9000FF" fill-opacity="0.2" stroke="white" stroke-width="8"/>
<path d="M433.536 73.36L430.476 82H421.896L435.096 45.28H443.916L457.116 82H448.656L445.476 73.36H433.536ZM444.456 67.06L439.536 53.8L434.556 67.06H444.456Z" fill="white"/>
<path d="M228.746 348.52C226.666 348.52 225.146 348.227 224.186 347.64V350.44V371H214.026V350.6C214.026 345.373 213.759 340.893 213.226 337.16C212.692 333.427 211.626 328.92 210.026 323.64L219.786 320.2L223.386 334.12C223.972 336.627 225.439 337.88 227.786 337.88C228.959 337.88 229.919 337.56 230.666 336.92C231.466 336.227 231.866 335.32 231.866 334.2C231.866 332.707 231.332 328.733 230.266 322.28L240.506 320.2C241.572 326.653 242.106 331.507 242.106 334.76C242.106 337.427 241.519 339.8 240.346 341.88C239.226 343.96 237.652 345.587 235.626 346.76C233.599 347.933 231.306 348.52 228.746 348.52Z" fill="white"/>
<path d="M653.328 592.04C651.461 593.533 649.674 595.373 647.968 597.56C646.261 599.747 644.554 602.347 642.848 605.36L639.368 603.44C640.274 601.787 641.274 600.173 642.368 598.6C643.461 597 644.568 595.627 645.688 594.48C645.421 594.56 645.154 594.6 644.888 594.6C642.621 594.6 640.874 593.973 639.648 592.72C638.448 591.44 637.848 589.733 637.848 587.6C637.848 586.16 638.168 584.827 638.808 583.6C639.474 582.373 640.368 581.4 641.488 580.68C642.634 579.933 643.888 579.56 645.248 579.56C646.128 579.56 646.968 579.667 647.768 579.88C648.568 580.093 649.421 580.44 650.328 580.92L648.928 584.36C647.674 583.933 646.501 583.72 645.408 583.72C644.421 583.72 643.594 584.067 642.928 584.76C642.288 585.427 641.968 586.24 641.968 587.2C641.968 589.36 643.221 590.44 645.728 590.44C646.501 590.44 647.381 590.32 648.368 590.08C649.354 589.84 650.368 589.467 651.408 588.96L653.328 592.04ZM666.862 585.2C668.196 585.2 669.476 585.573 670.702 586.32C671.956 587.067 672.956 588.053 673.702 589.28C674.449 590.507 674.822 591.787 674.822 593.12C674.822 594.453 674.449 595.747 673.702 597C672.956 598.227 671.956 599.213 670.702 599.96C669.476 600.707 668.196 601.08 666.862 601.08C665.529 601.08 664.236 600.707 662.982 599.96C661.756 599.213 660.769 598.227 660.022 597C659.276 595.747 658.902 594.453 658.902 593.12C658.902 591.787 659.276 590.507 660.022 589.28C660.769 588.053 661.756 587.067 662.982 586.32C664.236 585.573 665.529 585.2 666.862 585.2ZM666.862 597.12C667.502 597.12 668.129 596.933 668.742 596.56C669.382 596.16 669.889 595.653 670.262 595.04C670.662 594.4 670.862 593.76 670.862 593.12C670.862 592.48 670.662 591.853 670.262 591.24C669.889 590.627 669.382 590.133 668.742 589.76C668.129 589.387 667.502 589.2 666.862 589.2C666.222 589.2 665.582 589.4 664.942 589.8C664.329 590.173 663.822 590.667 663.422 591.28C663.049 591.867 662.862 592.48 662.862 593.12C662.862 593.76 663.049 594.4 663.422 595.04C663.822 595.653 664.329 596.16 664.942 596.56C665.582 596.933 666.222 597.12 666.862 597.12Z" fill="white"/>
<path d="M680.002 562.625C680.835 562.625 681.635 562.858 682.402 563.325C683.185 563.792 683.81 564.408 684.277 565.175C684.744 565.942 684.977 566.742 684.977 567.575C684.977 568.408 684.744 569.217 684.277 570C683.81 570.767 683.185 571.383 682.402 571.85C681.635 572.317 680.835 572.55 680.002 572.55C679.169 572.55 678.36 572.317 677.577 571.85C676.81 571.383 676.194 570.767 675.727 570C675.26 569.217 675.027 568.408 675.027 567.575C675.027 566.742 675.26 565.942 675.727 565.175C676.194 564.408 676.81 563.792 677.577 563.325C678.36 562.858 679.169 562.625 680.002 562.625ZM680.002 570.075C680.402 570.075 680.794 569.958 681.177 569.725C681.577 569.475 681.894 569.158 682.127 568.775C682.377 568.375 682.502 567.975 682.502 567.575C682.502 567.175 682.377 566.783 682.127 566.4C681.894 566.017 681.577 565.708 681.177 565.475C680.794 565.242 680.402 565.125 680.002 565.125C679.602 565.125 679.202 565.25 678.802 565.5C678.419 565.733 678.102 566.042 677.852 566.425C677.619 566.792 677.502 567.175 677.502 567.575C677.502 567.975 677.619 568.375 677.852 568.775C678.102 569.158 678.419 569.475 678.802 569.725C679.202 569.958 679.602 570.075 680.002 570.075Z" fill="white"/>
<path d="M212.328 592.04C210.461 593.533 208.674 595.373 206.968 597.56C205.261 599.747 203.554 602.347 201.848 605.36L198.368 603.44C199.274 601.787 200.274 600.173 201.368 598.6C202.461 597 203.568 595.627 204.688 594.48C204.421 594.56 204.154 594.6 203.888 594.6C201.621 594.6 199.874 593.973 198.648 592.72C197.448 591.44 196.848 589.733 196.848 587.6C196.848 586.16 197.168 584.827 197.808 583.6C198.474 582.373 199.368 581.4 200.488 580.68C201.634 579.933 202.888 579.56 204.248 579.56C205.128 579.56 205.968 579.667 206.768 579.88C207.568 580.093 208.421 580.44 209.328 580.92L207.928 584.36C206.674 583.933 205.501 583.72 204.408 583.72C203.421 583.72 202.594 584.067 201.928 584.76C201.288 585.427 200.968 586.24 200.968 587.2C200.968 589.36 202.221 590.44 204.728 590.44C205.501 590.44 206.381 590.32 207.368 590.08C208.354 589.84 209.368 589.467 210.408 588.96L212.328 592.04ZM225.862 585.2C227.196 585.2 228.476 585.573 229.702 586.32C230.956 587.067 231.956 588.053 232.702 589.28C233.449 590.507 233.822 591.787 233.822 593.12C233.822 594.453 233.449 595.747 232.702 597C231.956 598.227 230.956 599.213 229.702 599.96C228.476 600.707 227.196 601.08 225.862 601.08C224.529 601.08 223.236 600.707 221.982 599.96C220.756 599.213 219.769 598.227 219.022 597C218.276 595.747 217.902 594.453 217.902 593.12C217.902 591.787 218.276 590.507 219.022 589.28C219.769 588.053 220.756 587.067 221.982 586.32C223.236 585.573 224.529 585.2 225.862 585.2ZM225.862 597.12C226.502 597.12 227.129 596.933 227.742 596.56C228.382 596.16 228.889 595.653 229.262 595.04C229.662 594.4 229.862 593.76 229.862 593.12C229.862 592.48 229.662 591.853 229.262 591.24C228.889 590.627 228.382 590.133 227.742 589.76C227.129 589.387 226.502 589.2 225.862 589.2C225.222 589.2 224.582 589.4 223.942 589.8C223.329 590.173 222.822 590.667 222.422 591.28C222.049 591.867 221.862 592.48 221.862 593.12C221.862 593.76 222.049 594.4 222.422 595.04C222.822 595.653 223.329 596.16 223.942 596.56C224.582 596.933 225.222 597.12 225.862 597.12Z" fill="white"/>
<path d="M235.002 572.625C235.835 572.625 236.635 572.858 237.402 573.325C238.185 573.792 238.81 574.408 239.277 575.175C239.744 575.942 239.977 576.742 239.977 577.575C239.977 578.408 239.744 579.217 239.277 580C238.81 580.767 238.185 581.383 237.402 581.85C236.635 582.317 235.835 582.55 235.002 582.55C234.169 582.55 233.36 582.317 232.577 581.85C231.81 581.383 231.194 580.767 230.727 580C230.26 579.217 230.027 578.408 230.027 577.575C230.027 576.742 230.26 575.942 230.727 575.175C231.194 574.408 231.81 573.792 232.577 573.325C233.36 572.858 234.169 572.625 235.002 572.625ZM235.002 580.075C235.402 580.075 235.794 579.958 236.177 579.725C236.577 579.475 236.894 579.158 237.127 578.775C237.377 578.375 237.502 577.975 237.502 577.575C237.502 577.175 237.377 576.783 237.127 576.4C236.894 576.017 236.577 575.708 236.177 575.475C235.794 575.242 235.402 575.125 235.002 575.125C234.602 575.125 234.202 575.25 233.802 575.5C233.419 575.733 233.102 576.042 232.852 576.425C232.619 576.792 232.502 577.175 232.502 577.575C232.502 577.975 232.619 578.375 232.852 578.775C233.102 579.158 233.419 579.475 233.802 579.725C234.202 579.958 234.602 580.075 235.002 580.075Z" fill="white"/>
<path d="M403.328 215.04C401.461 216.533 399.674 218.373 397.968 220.56C396.261 222.747 394.554 225.347 392.848 228.36L389.368 226.44C390.274 224.787 391.274 223.173 392.368 221.6C393.461 220 394.568 218.627 395.688 217.48C395.421 217.56 395.154 217.6 394.888 217.6C392.621 217.6 390.874 216.973 389.648 215.72C388.448 214.44 387.848 212.733 387.848 210.6C387.848 209.16 388.168 207.827 388.808 206.6C389.474 205.373 390.368 204.4 391.488 203.68C392.634 202.933 393.888 202.56 395.248 202.56C396.128 202.56 396.968 202.667 397.768 202.88C398.568 203.093 399.421 203.44 400.328 203.92L398.928 207.36C397.674 206.933 396.501 206.72 395.408 206.72C394.421 206.72 393.594 207.067 392.928 207.76C392.288 208.427 391.968 209.24 391.968 210.2C391.968 212.36 393.221 213.44 395.728 213.44C396.501 213.44 397.381 213.32 398.368 213.08C399.354 212.84 400.368 212.467 401.408 211.96L403.328 215.04ZM416.862 208.2C418.196 208.2 419.476 208.573 420.702 209.32C421.956 210.067 422.956 211.053 423.702 212.28C424.449 213.507 424.822 214.787 424.822 216.12C424.822 217.453 424.449 218.747 423.702 220C422.956 221.227 421.956 222.213 420.702 222.96C419.476 223.707 418.196 224.08 416.862 224.08C415.529 224.08 414.236 223.707 412.982 222.96C411.756 222.213 410.769 221.227 410.022 220C409.276 218.747 408.902 217.453 408.902 216.12C408.902 214.787 409.276 213.507 410.022 212.28C410.769 211.053 411.756 210.067 412.982 209.32C414.236 208.573 415.529 208.2 416.862 208.2ZM416.862 220.12C417.502 220.12 418.129 219.933 418.742 219.56C419.382 219.16 419.889 218.653 420.262 218.04C420.662 217.4 420.862 216.76 420.862 216.12C420.862 215.48 420.662 214.853 420.262 214.24C419.889 213.627 419.382 213.133 418.742 212.76C418.129 212.387 417.502 212.2 416.862 212.2C416.222 212.2 415.582 212.4 414.942 212.8C414.329 213.173 413.822 213.667 413.422 214.28C413.049 214.867 412.862 215.48 412.862 216.12C412.862 216.76 413.049 217.4 413.422 218.04C413.822 218.653 414.329 219.16 414.942 219.56C415.582 219.933 416.222 220.12 416.862 220.12Z" fill="white"/>
<path d="M425.002 194.625C425.835 194.625 426.635 194.858 427.402 195.325C428.185 195.792 428.81 196.408 429.277 197.175C429.744 197.942 429.977 198.742 429.977 199.575C429.977 200.408 429.744 201.217 429.277 202C428.81 202.767 428.185 203.383 427.402 203.85C426.635 204.317 425.835 204.55 425.002 204.55C424.169 204.55 423.36 204.317 422.577 203.85C421.81 203.383 421.194 202.767 420.727 202C420.26 201.217 420.027 200.408 420.027 199.575C420.027 198.742 420.26 197.942 420.727 197.175C421.194 196.408 421.81 195.792 422.577 195.325C423.36 194.858 424.169 194.625 425.002 194.625ZM425.002 202.075C425.402 202.075 425.794 201.958 426.177 201.725C426.577 201.475 426.894 201.158 427.127 200.775C427.377 200.375 427.502 199.975 427.502 199.575C427.502 199.175 427.377 198.783 427.127 198.4C426.894 198.017 426.577 197.708 426.177 197.475C425.794 197.242 425.402 197.125 425.002 197.125C424.602 197.125 424.202 197.25 423.802 197.5C423.419 197.733 423.102 198.042 422.852 198.425C422.619 198.792 422.502 199.175 422.502 199.575C422.502 199.975 422.619 200.375 422.852 200.775C423.102 201.158 423.419 201.475 423.802 201.725C424.202 201.958 424.602 202.075 425.002 202.075Z" fill="white"/>
<path d="M69.581 633.24C67.661 635.08 64.901 636 61.301 636H42.761V599.28H60.701C64.141 599.28 66.741 600.14 68.501 601.86C70.261 603.54 71.141 606.02 71.141 609.3C71.141 611.18 70.801 612.78 70.121 614.1C69.441 615.42 68.501 616.44 67.301 617.16C69.021 617.76 70.301 618.7 71.141 619.98C72.021 621.22 72.461 622.96 72.461 625.2C72.461 628.72 71.501 631.4 69.581 633.24ZM62.381 606.66C61.661 605.9 60.401 605.52 58.601 605.52H50.441V614.52H59.021C62.021 614.52 63.521 613.04 63.521 610.08C63.521 608.52 63.141 607.38 62.381 606.66ZM62.801 621.3C61.921 620.58 60.621 620.22 58.901 620.22H50.441V629.76H59.261C60.941 629.76 62.161 629.36 62.921 628.56C63.721 627.76 64.121 626.5 64.121 624.78C64.121 623.14 63.681 621.98 62.801 621.3Z" fill="white"/>
<path d="M829.329 634.8C826.009 636 822.549 636.6 818.949 636.6C812.869 636.6 808.289 635 805.209 631.8C802.129 628.6 800.589 624.04 800.589 618.12C800.589 611.84 802.089 607.04 805.089 603.72C808.089 600.4 812.689 598.74 818.889 598.74C822.809 598.74 826.269 599.34 829.269 600.54V608.4C826.069 607 822.809 606.3 819.489 606.3C815.849 606.3 813.169 607.3 811.449 609.3C809.769 611.26 808.929 614.2 808.929 618.12C808.929 625.36 812.489 628.98 819.609 628.98C822.849 628.98 826.089 628.3 829.329 626.94V634.8Z" fill="white"/>
<rect x="413" y="568" width="56" height="57" stroke="white" stroke-width="8"/>
<path d="M171.176 625.334C182.559 590.937 168.652 574.392 133.001 581.419" stroke="white" stroke-width="8" stroke-linecap="square"/>
<path d="M705.738 625.334C694.355 590.937 708.262 574.392 743.913 581.419" stroke="white" stroke-width="8" stroke-linecap="square"/>
<path d="M470.188 159C451.696 190.157 430.085 190.516 412 159" stroke="white" stroke-width="8" stroke-linecap="square"/>
<line x1="440" y1="110" x2="440" y2="621" stroke="white" stroke-opacity="0.6" stroke-width="8" stroke-dasharray="5 5"/>
</svg>
