<svg width="723" height="361" viewBox="0 0 723 361" fill="none" xmlns="http://www.w3.org/2000/svg">
<g clip-path="url(#clip0_1937_49)">
<g filter="url(#filter0_f_1937_49)">
<path d="M122 267L628 96V267H122Z" fill="#9000FF" fill-opacity="0.2"/>
</g>
<g filter="url(#filter1_d_1937_49)">
<path d="M200.254 264.865C207.039 253.795 202.891 246.276 188.763 244.763" stroke="white" stroke-width="4" stroke-linecap="square"/>
</g>
<path d="M333.451 177.66C331.089 178.514 328.627 178.941 326.065 178.941C321.738 178.941 318.479 177.803 316.288 175.525C314.096 173.248 313 170.003 313 165.791C313 161.322 314.067 157.906 316.202 155.544C318.337 153.181 321.61 152 326.022 152C328.812 152 331.274 152.427 333.409 153.281L333.409 158.874C331.132 157.878 328.812 157.38 326.449 157.38C323.859 157.38 321.952 158.091 320.728 159.514C319.532 160.909 318.935 163.001 318.935 165.791C318.935 170.943 321.468 173.519 326.535 173.519C328.84 173.519 331.146 173.035 333.451 172.067L333.451 177.66Z" fill="white"/>
<path d="M333.085 312.166C331.719 313.475 329.755 314.13 327.193 314.13L314 314.13L314 288L326.766 288C329.214 288 331.064 288.612 332.317 289.836C333.569 291.031 334.195 292.796 334.195 295.13C334.195 296.468 333.953 297.607 333.469 298.546C332.985 299.485 332.317 300.211 331.463 300.723C332.687 301.15 333.597 301.819 334.195 302.73C334.821 303.612 335.134 304.851 335.134 306.445C335.134 308.949 334.451 310.857 333.085 312.166ZM327.962 293.252C327.449 292.711 326.553 292.44 325.272 292.44L319.465 292.44L319.465 298.845L325.571 298.845C327.705 298.845 328.773 297.792 328.773 295.685C328.773 294.575 328.502 293.764 327.962 293.252ZM328.26 303.669C327.634 303.157 326.709 302.901 325.485 302.901L319.465 302.901L319.465 309.69L325.741 309.69C326.937 309.69 327.805 309.405 328.346 308.836C328.915 308.266 329.2 307.37 329.2 306.146C329.2 304.979 328.887 304.153 328.26 303.669Z" fill="white"/>
<path d="M81.5588 273.647L79.3088 280L73 280L82.7059 253L89.1912 253L98.8971 280L92.6765 280L90.3382 273.647L81.5588 273.647ZM89.5882 269.015L85.9706 259.265L82.3088 269.015L89.5882 269.015Z" fill="white"/>
<path fill-rule="evenodd" clip-rule="evenodd" d="M460 268L460 152L464 152L464 268L460 268Z" fill="white"/>
<path d="M595 117C602.179 117 608 111.18 608 104C608 103.746 607.992 103.493 607.978 103.243L628.536 96.2498L627.247 92.4629L607.127 99.3073C605.245 94.4467 600.525 91 595 91C587.82 91 582 96.8203 582 104C582 105.276 582.184 106.51 582.526 107.676L120.035 265L119.499 265.5C119.499 265.5 105.001 269.5 118.499 267.5C131.996 265.5 99.9977 269 116.999 269C134 269 628 269 628 269V265H132.455L584.251 111.314C586.591 114.746 590.532 117 595 117Z" fill="white"/>
<path fill-rule="evenodd" clip-rule="evenodd" d="M327 268L327 269H325H306H304V267V246V244H306H323L323 197H327V244V246V267L327 268ZM323 248H308V265H323V248Z" fill="white"/>
<rect x="443" y="246" width="19" height="21" stroke="white" stroke-width="4"/>
<path d="M473.767 309.27V314H455.664V287.684H473.767V292.414H461.555V298.391H472.305V303.293H461.555V309.27H473.767Z" fill="white"/>
<path d="M461.555 117.293V128H455.664V101.684H473.466V106.414H461.555V112.391H472.004V117.293H461.555Z" fill="white"/>
<path d="M587.555 65.5626V80.9996H581.664V54.6836H587.469L594.392 69.4326L601.229 54.6836H607.034V80.9996H601.186V65.5626L596.026 76.4416H592.715L587.555 65.5626Z" fill="white"/>
</g>
<defs>
<filter id="filter0_f_1937_49" x="100" y="74" width="550" height="215" filterUnits="userSpaceOnUse" color-interpolation-filters="sRGB">
<feFlood flood-opacity="0" result="BackgroundImageFix"/>
<feBlend mode="normal" in="SourceGraphic" in2="BackgroundImageFix" result="shape"/>
<feGaussianBlur stdDeviation="11" result="effect1_foregroundBlur_1937_49"/>
</filter>
<filter id="filter1_d_1937_49" x="155.062" y="211.062" width="81.8828" height="88.0547" filterUnits="userSpaceOnUse" color-interpolation-filters="sRGB">
<feFlood flood-opacity="0" result="BackgroundImageFix"/>
<feColorMatrix in="SourceAlpha" type="matrix" values="0 0 0 0 0 0 0 0 0 0 0 0 0 0 0 0 0 0 127 0" result="hardAlpha"/>
<feOffset/>
<feGaussianBlur stdDeviation="15.75"/>
<feComposite in2="hardAlpha" operator="out"/>
<feColorMatrix type="matrix" values="0 0 0 0 0 0 0 0 0 1 0 0 0 0 0.916667 0 0 0 0.7 0"/>
<feBlend mode="normal" in2="BackgroundImageFix" result="effect1_dropShadow_1937_49"/>
<feBlend mode="normal" in="SourceGraphic" in2="effect1_dropShadow_1937_49" result="shape"/>
</filter>
<clipPath id="clip0_1937_49">
<rect width="723" height="361" fill="white"/>
</clipPath>
</defs>
</svg>
