<svg width="1070" height="370" viewBox="0 0 1070 370" fill="none" xmlns="http://www.w3.org/2000/svg">
<path d="M981 305C982.392 305 983.602 304.042 983.92 302.687C984.239 301.331 983.583 299.935 982.337 299.314L536.337 77.3143C535.495 76.8952 534.505 76.8952 533.663 77.3143L87.6632 299.314C86.4167 299.935 85.761 301.331 86.0796 302.687C86.3983 304.042 87.6077 305 89 305H981Z" fill="#9000FF" fill-opacity="0.2" stroke="white" stroke-width="6" stroke-linejoin="round"/>
<path d="M216.917 305.076C220.118 304.278 223.024 302.611 225.473 300.234C227.915 297.863 229.842 294.845 231.196 291.405C232.55 287.965 233.318 284.138 233.489 280.151C233.66 276.163 233.231 272.061 232.237 268.072C231.242 264.083 229.695 260.26 227.671 256.819C225.649 253.379 223.175 250.361 220.364 247.959C217.553 245.557 214.435 243.798 211.166 242.851C207.888 241.901 204.539 241.794 201.338 242.592" stroke="white" stroke-width="6"/>
<path d="M852.474 305.076C849.272 304.278 846.366 302.611 843.918 300.234C841.476 297.863 839.549 294.845 838.194 291.405C836.84 287.965 836.073 284.138 835.902 280.151C835.731 276.163 836.159 272.061 837.154 268.072C838.148 264.083 839.696 260.26 841.719 256.819C843.742 253.379 846.216 250.361 849.027 247.959C851.837 245.557 854.956 243.798 858.225 242.851C861.503 241.901 864.852 241.794 868.053 242.592" stroke="white" stroke-width="6"/>
<path d="M289.367 142.38C291.732 145.553 293.391 148.074 294.344 149.945C294.48 150.213 294.594 150.51 294.686 150.837C295.09 151.043 295.501 151.152 295.919 151.163C296.351 151.13 296.834 150.978 297.369 150.705C297.992 150.387 298.421 149.944 298.656 149.376C298.904 148.763 298.87 148.145 298.552 147.521C298.098 146.63 296.689 144.561 294.323 141.314L299.436 137.25C301.831 140.556 303.49 143.115 304.413 144.927C305.17 146.412 305.517 147.9 305.454 149.392C305.42 150.868 305.005 152.22 304.21 153.448C303.444 154.662 302.348 155.632 300.922 156.358C299.823 156.918 298.723 157.254 297.621 157.367C296.503 157.45 295.593 157.315 294.889 156.963C294.732 157.829 294.284 158.674 293.545 159.5C292.82 160.28 291.938 160.936 290.899 161.465C289.74 162.056 288.811 162.323 288.11 162.269L288.904 163.828L294.738 175.278L289.08 178.161L283.292 166.8C281.808 163.89 280.389 161.471 279.032 159.543C277.676 157.615 275.803 155.408 273.414 152.922L277.873 148.237L283.828 154.967C284.866 156.197 286.038 156.478 287.345 155.813C287.998 155.48 288.442 155.029 288.676 154.461C288.925 153.848 288.891 153.229 288.573 152.606C288.149 151.774 286.725 149.713 284.3 146.422L289.367 142.38ZM344.143 148.982C342.696 150.842 340.711 152.415 338.186 153.701C334.8 155.426 331.718 155.874 328.939 155.046C326.174 154.172 323.929 152.043 322.204 148.657C320.434 145.182 320.067 142.076 321.105 139.34C322.143 136.604 324.34 134.381 327.696 132.671C329.032 131.99 330.258 131.497 331.374 131.19C332.475 130.854 333.606 130.689 334.769 130.695L337.198 135.462C335.26 135.476 333.341 135.968 331.44 136.936C329.48 137.935 328.237 139.13 327.711 140.52C327.184 141.911 327.413 143.571 328.397 145.502C329.38 147.432 330.56 148.608 331.934 149.03C333.309 149.452 335.021 149.141 337.07 148.097C338.823 147.204 340.34 145.851 341.624 144.037L344.143 148.982ZM347.943 129.257C347.456 129.917 347.089 130.628 346.842 131.39L353.856 145.156L347.975 148.152L337.76 128.104L343.329 125.267L344.437 126.891C345.656 124.437 347.409 122.627 349.696 121.462C350.943 120.826 352.021 120.52 352.931 120.543C353.87 120.551 354.752 120.85 355.576 121.44C356.133 120.183 356.863 119.082 357.765 118.136C358.652 117.16 359.808 116.309 361.234 115.583C363.432 114.463 365.361 114.247 367.021 114.935C368.666 115.593 370.124 117.17 371.395 119.665L378.091 132.807L372.121 135.849L365.811 123.464C365.236 122.335 364.59 121.654 363.872 121.421C363.185 121.173 362.306 121.322 361.237 121.866C359.841 122.578 358.94 123.673 358.534 125.152C358.82 125.492 359.159 126.049 359.553 126.821L365.795 139.072L360.182 141.932L353.826 129.458C353.266 128.359 352.68 127.686 352.066 127.437C351.438 127.158 350.649 127.261 349.699 127.745C349.045 128.078 348.46 128.582 347.943 129.257Z" fill="white"/>
<path d="M289.192 247.25C289.858 251.15 290.192 254.15 290.192 256.25C290.192 256.55 290.158 256.867 290.092 257.2C290.358 257.567 290.675 257.85 291.042 258.05C291.442 258.217 291.942 258.3 292.542 258.3C293.242 258.3 293.825 258.1 294.292 257.7C294.792 257.267 295.042 256.7 295.042 256C295.042 255 294.725 252.517 294.092 248.55L300.492 247.25C301.125 251.283 301.442 254.317 301.442 256.35C301.442 258.017 301.075 259.5 300.342 260.8C299.642 262.1 298.658 263.117 297.392 263.85C296.158 264.583 294.742 264.95 293.142 264.95C291.908 264.95 290.775 264.75 289.742 264.35C288.708 263.917 287.958 263.383 287.492 262.75C286.958 263.45 286.175 264 285.142 264.4C284.142 264.767 283.058 264.95 281.892 264.95C280.592 264.95 279.642 264.767 279.042 264.4V266.15V279H272.692V266.25C272.692 262.983 272.525 260.183 272.192 257.85C271.858 255.517 271.192 252.7 270.192 249.4L276.292 247.25L278.542 255.95C278.908 257.517 279.825 258.3 281.292 258.3C282.025 258.3 282.625 258.1 283.092 257.7C283.592 257.267 283.842 256.7 283.842 256C283.842 255.067 283.508 252.583 282.842 248.55L289.192 247.25ZM315.5 253.95C317.234 253.95 318.884 254.433 320.45 255.4C322.017 256.333 323.267 257.583 324.2 259.15C325.167 260.717 325.65 262.367 325.65 264.1C325.65 265.8 325.167 267.45 324.2 269.05C323.234 270.617 321.967 271.883 320.4 272.85C318.834 273.817 317.2 274.3 315.5 274.3C313.767 274.3 312.1 273.817 310.5 272.85C308.934 271.883 307.667 270.617 306.7 269.05C305.734 267.45 305.25 265.8 305.25 264.1C305.25 262.367 305.734 260.717 306.7 259.15C307.667 257.583 308.934 256.333 310.5 255.4C312.1 254.433 313.767 253.95 315.5 253.95ZM315.5 268.2C316.534 268.2 317.467 267.783 318.3 266.95C319.134 266.083 319.55 265.133 319.55 264.1C319.55 263.067 319.134 262.133 318.3 261.3C317.467 260.467 316.534 260.05 315.5 260.05C314.434 260.05 313.467 260.467 312.6 261.3C311.767 262.133 311.35 263.067 311.35 264.1C311.35 265.133 311.784 266.083 312.65 266.95C313.517 267.783 314.467 268.2 315.5 268.2Z" fill="white"/>
<path d="M746.192 247.25C746.858 251.15 747.192 254.15 747.192 256.25C747.192 256.55 747.158 256.867 747.092 257.2C747.358 257.567 747.675 257.85 748.042 258.05C748.442 258.217 748.942 258.3 749.542 258.3C750.242 258.3 750.825 258.1 751.292 257.7C751.792 257.267 752.042 256.7 752.042 256C752.042 255 751.725 252.517 751.092 248.55L757.492 247.25C758.125 251.283 758.442 254.317 758.442 256.35C758.442 258.017 758.075 259.5 757.342 260.8C756.642 262.1 755.658 263.117 754.392 263.85C753.158 264.583 751.742 264.95 750.142 264.95C748.908 264.95 747.775 264.75 746.742 264.35C745.708 263.917 744.958 263.383 744.492 262.75C743.958 263.45 743.175 264 742.142 264.4C741.142 264.767 740.058 264.95 738.892 264.95C737.592 264.95 736.642 264.767 736.042 264.4V266.15V279H729.692V266.25C729.692 262.983 729.525 260.183 729.192 257.85C728.858 255.517 728.192 252.7 727.192 249.4L733.292 247.25L735.542 255.95C735.908 257.517 736.825 258.3 738.292 258.3C739.025 258.3 739.625 258.1 740.092 257.7C740.592 257.267 740.842 256.7 740.842 256C740.842 255.067 740.508 252.583 739.842 248.55L746.192 247.25ZM772.5 253.95C774.234 253.95 775.884 254.433 777.45 255.4C779.017 256.333 780.267 257.583 781.2 259.15C782.167 260.717 782.65 262.367 782.65 264.1C782.65 265.8 782.167 267.45 781.2 269.05C780.234 270.617 778.967 271.883 777.4 272.85C775.834 273.817 774.2 274.3 772.5 274.3C770.767 274.3 769.1 273.817 767.5 272.85C765.934 271.883 764.667 270.617 763.7 269.05C762.734 267.45 762.25 265.8 762.25 264.1C762.25 262.367 762.734 260.717 763.7 259.15C764.667 257.583 765.934 256.333 767.5 255.4C769.1 254.433 770.767 253.95 772.5 253.95ZM772.5 268.2C773.534 268.2 774.467 267.783 775.3 266.95C776.134 266.083 776.55 265.133 776.55 264.1C776.55 263.067 776.134 262.133 775.3 261.3C774.467 260.467 773.534 260.05 772.5 260.05C771.434 260.05 770.467 260.467 769.6 261.3C768.767 262.133 768.35 263.067 768.35 264.1C768.35 265.133 768.784 266.083 769.65 266.95C770.517 267.783 771.467 268.2 772.5 268.2Z" fill="white"/>
<path d="M721.207 113.058C720.03 116.835 718.965 119.66 718.012 121.531C717.876 121.798 717.702 122.065 717.491 122.332C717.563 122.78 717.716 123.176 717.952 123.521C718.233 123.851 718.64 124.152 719.175 124.424C719.799 124.742 720.409 124.829 721.007 124.684C721.649 124.525 722.129 124.134 722.447 123.51C722.901 122.619 723.746 120.262 724.982 116.441L731.275 118.188C730.008 122.069 728.913 124.916 727.99 126.727C727.234 128.212 726.233 129.368 724.99 130.193C723.776 131.033 722.438 131.493 720.977 131.571C719.545 131.665 718.116 131.348 716.691 130.622C715.592 130.062 714.673 129.369 713.933 128.544C713.21 127.688 712.783 126.873 712.655 126.097C711.862 126.478 710.914 126.613 709.812 126.5C708.755 126.373 707.706 126.044 706.667 125.514C705.508 124.924 704.745 124.33 704.377 123.731L703.583 125.29L697.749 136.739L692.091 133.856L697.879 122.496C699.362 119.585 700.485 117.015 701.247 114.785C702.01 112.554 702.694 109.742 703.301 106.348L709.713 107.201L707.768 115.975C707.383 117.537 707.844 118.651 709.151 119.317C709.805 119.65 710.43 119.744 711.027 119.599C711.67 119.44 712.15 119.049 712.467 118.425C712.891 117.594 713.721 115.23 714.959 111.333L721.207 113.058ZM748.062 161.253C745.707 161.175 743.268 160.493 740.743 159.207C737.357 157.482 735.183 155.252 734.22 152.516C733.301 149.766 733.705 146.698 735.43 143.313C737.201 139.838 739.498 137.716 742.321 136.947C745.144 136.179 748.234 136.649 751.59 138.359C752.927 139.04 754.047 139.742 754.951 140.464C755.87 141.157 756.669 141.976 757.347 142.92L754.918 147.687C753.767 146.128 752.241 144.864 750.341 143.895C748.38 142.897 746.683 142.593 745.249 142.985C743.815 143.376 742.606 144.537 741.623 146.468C740.639 148.398 740.38 150.044 740.847 151.404C741.314 152.764 742.572 153.966 744.621 155.01C746.374 155.903 748.36 156.336 750.582 156.308L748.062 161.253ZM766.254 152.733C765.434 152.727 764.643 152.848 763.881 153.095L756.867 166.861L750.986 163.865L761.201 143.817L766.77 146.655L766.107 148.506C768.809 148.049 771.303 148.404 773.59 149.569C774.837 150.204 775.719 150.897 776.235 151.646C776.781 152.411 777.058 153.3 777.065 154.313C778.409 154.025 779.728 153.968 781.024 154.142C782.335 154.286 783.703 154.722 785.129 155.448C787.326 156.568 788.635 158.001 789.054 159.749C789.488 161.466 789.07 163.573 787.798 166.068L781.102 179.21L775.132 176.168L781.443 163.783C782.018 162.655 782.189 161.732 781.956 161.014C781.752 160.312 781.116 159.689 780.047 159.144C778.651 158.432 777.235 158.347 775.8 158.888C775.693 159.319 775.442 159.921 775.049 160.693L768.806 172.945L763.193 170.085L769.549 157.611C770.109 156.512 770.309 155.641 770.15 154.999C770.006 154.327 769.459 153.749 768.508 153.265C767.855 152.932 767.103 152.754 766.254 152.733Z" fill="white"/>
<path d="M547.518 57.7C545.918 59.2333 543.618 60 540.618 60H525.168V29.4H540.118C542.985 29.4 545.152 30.1167 546.618 31.55C548.085 32.95 548.818 35.0167 548.818 37.75C548.818 39.3167 548.535 40.65 547.968 41.75C547.402 42.85 546.618 43.7 545.618 44.3C547.052 44.8 548.118 45.5833 548.818 46.65C549.552 47.6833 549.918 49.1333 549.918 51C549.918 53.9333 549.118 56.1667 547.518 57.7ZM541.518 35.55C540.918 34.9167 539.868 34.6 538.368 34.6H531.568V42.1H538.718C541.218 42.1 542.468 40.8667 542.468 38.4C542.468 37.1 542.152 36.15 541.518 35.55ZM541.868 47.75C541.135 47.15 540.052 46.85 538.618 46.85H531.568V54.8H538.918C540.318 54.8 541.335 54.4667 541.968 53.8C542.635 53.1333 542.968 52.0833 542.968 50.65C542.968 49.2833 542.602 48.3167 541.868 47.75Z" fill="white"/>
<path d="M49.1598 305.8L46.6098 313H39.4598L50.4598 282.4H57.8098L68.8098 313H61.7598L59.1098 305.8H49.1598ZM58.2598 300.55L54.1598 289.5L50.0098 300.55H58.2598Z" fill="white"/>
<path d="M1030.73 312C1027.97 313 1025.08 313.5 1022.08 313.5C1017.02 313.5 1013.2 312.167 1010.63 309.5C1008.07 306.833 1006.78 303.033 1006.78 298.1C1006.78 292.867 1008.03 288.867 1010.53 286.1C1013.03 283.333 1016.87 281.95 1022.03 281.95C1025.3 281.95 1028.18 282.45 1030.68 283.45V290C1028.02 288.833 1025.3 288.25 1022.53 288.25C1019.5 288.25 1017.27 289.083 1015.83 290.75C1014.43 292.383 1013.73 294.833 1013.73 298.1C1013.73 304.133 1016.7 307.15 1022.63 307.15C1025.33 307.15 1028.03 306.583 1030.73 305.45V312Z" fill="white"/>
<path d="M329.307 226.25C330.974 226.25 332.574 226.717 334.107 227.65C335.674 228.583 336.924 229.817 337.857 231.35C338.791 232.883 339.257 234.483 339.257 236.15C339.257 237.817 338.791 239.433 337.857 241C336.924 242.533 335.674 243.767 334.107 244.7C332.574 245.633 330.974 246.1 329.307 246.1C327.641 246.1 326.024 245.633 324.457 244.7C322.924 243.767 321.691 242.533 320.757 241C319.824 239.433 319.357 237.817 319.357 236.15C319.357 234.483 319.824 232.883 320.757 231.35C321.691 229.817 322.924 228.583 324.457 227.65C326.024 226.717 327.641 226.25 329.307 226.25ZM329.307 241.15C330.107 241.15 330.891 240.917 331.657 240.45C332.457 239.95 333.091 239.317 333.557 238.55C334.057 237.75 334.307 236.95 334.307 236.15C334.307 235.35 334.057 234.567 333.557 233.8C333.091 233.033 332.457 232.417 331.657 231.95C330.891 231.483 330.107 231.25 329.307 231.25C328.507 231.25 327.707 231.5 326.907 232C326.141 232.467 325.507 233.083 325.007 233.85C324.541 234.583 324.307 235.35 324.307 236.15C324.307 236.95 324.541 237.75 325.007 238.55C325.507 239.317 326.141 239.95 326.907 240.45C327.707 240.917 328.507 241.15 329.307 241.15Z" fill="white"/>
<path d="M786.307 226.25C787.974 226.25 789.574 226.717 791.107 227.65C792.674 228.583 793.924 229.817 794.857 231.35C795.791 232.883 796.257 234.483 796.257 236.15C796.257 237.817 795.791 239.433 794.857 241C793.924 242.533 792.674 243.767 791.107 244.7C789.574 245.633 787.974 246.1 786.307 246.1C784.641 246.1 783.024 245.633 781.457 244.7C779.924 243.767 778.691 242.533 777.757 241C776.824 239.433 776.357 237.817 776.357 236.15C776.357 234.483 776.824 232.883 777.757 231.35C778.691 229.817 779.924 228.583 781.457 227.65C783.024 226.717 784.641 226.25 786.307 226.25ZM786.307 241.15C787.107 241.15 787.891 240.917 788.657 240.45C789.457 239.95 790.091 239.317 790.557 238.55C791.057 237.75 791.307 236.95 791.307 236.15C791.307 235.35 791.057 234.567 790.557 233.8C790.091 233.033 789.457 232.417 788.657 231.95C787.891 231.483 787.107 231.25 786.307 231.25C785.507 231.25 784.707 231.5 783.907 232C783.141 232.467 782.507 233.083 782.007 233.85C781.541 234.583 781.307 235.35 781.307 236.15C781.307 236.95 781.541 237.75 782.007 238.55C782.507 239.317 783.141 239.95 783.907 240.45C784.707 240.917 785.507 241.15 786.307 241.15Z" fill="white"/>
</svg>
