<svg width="570" height="457" viewBox="0 0 570 457" fill="none" xmlns="http://www.w3.org/2000/svg">
<ellipse cx="29" cy="29.5" rx="9" ry="22.5" stroke="#B5B5B5"/>
<ellipse cx="29" cy="29.5" rx="9" ry="22.5" stroke="#B5B5B5"/>
<ellipse cx="29" cy="29.5" rx="9" ry="22.5" transform="rotate(-90 29 29.5)" stroke="#B5B5B5"/>
<ellipse cx="29.0004" cy="29.4991" rx="9" ry="22.5" transform="rotate(-45 29.0004 29.4991)" stroke="#B5B5B5"/>
<ellipse cx="9" cy="22.5" rx="9" ry="22.5" transform="matrix(-0.707107 -0.707107 -0.707107 0.707107 51.2734 19.9531)" stroke="#B5B5B5"/>
<circle cx="29" cy="29" r="6" fill="#FF005C"/>
<ellipse cx="86" cy="29.5" rx="9" ry="22.5" stroke="#B5B5B5"/>
<ellipse cx="86" cy="29.5" rx="9" ry="22.5" stroke="#B5B5B5"/>
<ellipse cx="86" cy="29.5" rx="9" ry="22.5" transform="rotate(-90 86 29.5)" stroke="#B5B5B5"/>
<ellipse cx="86.0004" cy="29.4991" rx="9" ry="22.5" transform="rotate(-45 86.0004 29.4991)" stroke="#B5B5B5"/>
<ellipse cx="9" cy="22.5" rx="9" ry="22.5" transform="matrix(-0.707107 -0.707107 -0.707107 0.707107 108.273 19.9531)" stroke="#B5B5B5"/>
<circle cx="86" cy="29" r="6" fill="#FF005C"/>
<ellipse cx="143" cy="29.5" rx="9" ry="22.5" stroke="#B5B5B5"/>
<ellipse cx="143" cy="29.5" rx="9" ry="22.5" stroke="#B5B5B5"/>
<ellipse cx="143" cy="29.5" rx="9" ry="22.5" transform="rotate(-90 143 29.5)" stroke="#B5B5B5"/>
<ellipse cx="143" cy="29.4991" rx="9" ry="22.5" transform="rotate(-45 143 29.4991)" stroke="#B5B5B5"/>
<ellipse cx="9" cy="22.5" rx="9" ry="22.5" transform="matrix(-0.707107 -0.707107 -0.707107 0.707107 165.273 19.9531)" stroke="#B5B5B5"/>
<circle cx="143" cy="29" r="6" fill="#FF005C"/>
<ellipse cx="200" cy="29.5" rx="9" ry="22.5" stroke="#B5B5B5"/>
<ellipse cx="200" cy="29.5" rx="9" ry="22.5" stroke="#B5B5B5"/>
<ellipse cx="200" cy="29.5" rx="9" ry="22.5" transform="rotate(-90 200 29.5)" stroke="#B5B5B5"/>
<ellipse cx="200" cy="29.4991" rx="9" ry="22.5" transform="rotate(-45 200 29.4991)" stroke="#B5B5B5"/>
<ellipse cx="9" cy="22.5" rx="9" ry="22.5" transform="matrix(-0.707107 -0.707107 -0.707107 0.707107 222.273 19.9531)" stroke="#B5B5B5"/>
<circle cx="200" cy="29" r="6" fill="#FF005C"/>
<ellipse cx="257" cy="29.5" rx="9" ry="22.5" stroke="#B5B5B5"/>
<ellipse cx="257" cy="29.5" rx="9" ry="22.5" stroke="#B5B5B5"/>
<ellipse cx="257" cy="29.5" rx="9" ry="22.5" transform="rotate(-90 257 29.5)" stroke="#B5B5B5"/>
<ellipse cx="257" cy="29.4991" rx="9" ry="22.5" transform="rotate(-45 257 29.4991)" stroke="#B5B5B5"/>
<ellipse cx="9" cy="22.5" rx="9" ry="22.5" transform="matrix(-0.707107 -0.707107 -0.707107 0.707107 279.273 19.9531)" stroke="#B5B5B5"/>
<circle cx="257" cy="29" r="6" fill="#FF005C"/>
<ellipse cx="314" cy="29.5" rx="9" ry="22.5" stroke="#B5B5B5"/>
<ellipse cx="314" cy="29.5" rx="9" ry="22.5" stroke="#B5B5B5"/>
<ellipse cx="314" cy="29.5" rx="9" ry="22.5" transform="rotate(-90 314 29.5)" stroke="#B5B5B5"/>
<ellipse cx="314" cy="29.4991" rx="9" ry="22.5" transform="rotate(-45 314 29.4991)" stroke="#B5B5B5"/>
<ellipse cx="9" cy="22.5" rx="9" ry="22.5" transform="matrix(-0.707107 -0.707107 -0.707107 0.707107 336.273 19.9531)" stroke="#B5B5B5"/>
<circle cx="314" cy="29" r="6" fill="#FF005C"/>
<ellipse cx="371" cy="29.5" rx="9" ry="22.5" stroke="#B5B5B5"/>
<ellipse cx="371" cy="29.5" rx="9" ry="22.5" stroke="#B5B5B5"/>
<ellipse cx="371" cy="29.5" rx="9" ry="22.5" transform="rotate(-90 371 29.5)" stroke="#B5B5B5"/>
<ellipse cx="371" cy="29.4991" rx="9" ry="22.5" transform="rotate(-45 371 29.4991)" stroke="#B5B5B5"/>
<ellipse cx="9" cy="22.5" rx="9" ry="22.5" transform="matrix(-0.707107 -0.707107 -0.707107 0.707107 393.273 19.9531)" stroke="#B5B5B5"/>
<circle cx="371" cy="29" r="6" fill="#FF005C"/>
<ellipse cx="428" cy="29.5" rx="9" ry="22.5" stroke="#B5B5B5"/>
<ellipse cx="428" cy="29.5" rx="9" ry="22.5" stroke="#B5B5B5"/>
<ellipse cx="428" cy="29.5" rx="9" ry="22.5" transform="rotate(-90 428 29.5)" stroke="#B5B5B5"/>
<ellipse cx="428" cy="29.4991" rx="9" ry="22.5" transform="rotate(-45 428 29.4991)" stroke="#B5B5B5"/>
<ellipse cx="9" cy="22.5" rx="9" ry="22.5" transform="matrix(-0.707107 -0.707107 -0.707107 0.707107 450.273 19.9531)" stroke="#B5B5B5"/>
<circle cx="428" cy="29" r="6" fill="#FF005C"/>
<ellipse cx="485" cy="29.5" rx="9" ry="22.5" stroke="#B5B5B5"/>
<ellipse cx="485" cy="29.5" rx="9" ry="22.5" stroke="#B5B5B5"/>
<ellipse cx="485" cy="29.5" rx="9" ry="22.5" transform="rotate(-90 485 29.5)" stroke="#B5B5B5"/>
<ellipse cx="485" cy="29.4991" rx="9" ry="22.5" transform="rotate(-45 485 29.4991)" stroke="#B5B5B5"/>
<ellipse cx="9" cy="22.5" rx="9" ry="22.5" transform="matrix(-0.707107 -0.707107 -0.707107 0.707107 507.273 19.9531)" stroke="#B5B5B5"/>
<circle cx="485" cy="29" r="6" fill="#FF005C"/>
<g clip-path="url(#clip0_1546_186)">
<ellipse cx="542" cy="29.5" rx="9" ry="22.5" stroke="#B5B5B5"/>
<ellipse cx="542" cy="29.5" rx="9" ry="22.5" stroke="#B5B5B5"/>
<ellipse cx="542" cy="29.5" rx="9" ry="22.5" transform="rotate(-90 542 29.5)" stroke="#B5B5B5"/>
<ellipse cx="542" cy="29.4991" rx="9" ry="22.5" transform="rotate(-45 542 29.4991)" stroke="#B5B5B5"/>
<ellipse cx="9" cy="22.5" rx="9" ry="22.5" transform="matrix(-0.707107 -0.707107 -0.707107 0.707107 564.273 19.9531)" stroke="#B5B5B5"/>
<g filter="url(#filter0_d_1546_186)">
<circle cx="542" cy="29" r="6" fill="#3987E2"/>
</g>
</g>
<ellipse cx="29" cy="87.5" rx="9" ry="22.5" stroke="#B5B5B5"/>
<ellipse cx="29" cy="87.5" rx="9" ry="22.5" stroke="#B5B5B5"/>
<ellipse cx="29" cy="87.5" rx="9" ry="22.5" transform="rotate(-90 29 87.5)" stroke="#B5B5B5"/>
<ellipse cx="29.0004" cy="87.4991" rx="9" ry="22.5" transform="rotate(-45 29.0004 87.4991)" stroke="#B5B5B5"/>
<ellipse cx="9" cy="22.5" rx="9" ry="22.5" transform="matrix(-0.707107 -0.707107 -0.707107 0.707107 51.2734 77.9531)" stroke="#B5B5B5"/>
<circle cx="29" cy="87" r="6" fill="#FF005C"/>
<ellipse cx="86" cy="87.5" rx="9" ry="22.5" stroke="#B5B5B5"/>
<ellipse cx="86" cy="87.5" rx="9" ry="22.5" stroke="#B5B5B5"/>
<ellipse cx="86" cy="87.5" rx="9" ry="22.5" transform="rotate(-90 86 87.5)" stroke="#B5B5B5"/>
<ellipse cx="86.0004" cy="87.4991" rx="9" ry="22.5" transform="rotate(-45 86.0004 87.4991)" stroke="#B5B5B5"/>
<ellipse cx="9" cy="22.5" rx="9" ry="22.5" transform="matrix(-0.707107 -0.707107 -0.707107 0.707107 108.273 77.9531)" stroke="#B5B5B5"/>
<circle cx="86" cy="87" r="6" fill="#FF005C"/>
<ellipse cx="143" cy="87.5" rx="9" ry="22.5" stroke="#B5B5B5"/>
<ellipse cx="143" cy="87.5" rx="9" ry="22.5" stroke="#B5B5B5"/>
<ellipse cx="143" cy="87.5" rx="9" ry="22.5" transform="rotate(-90 143 87.5)" stroke="#B5B5B5"/>
<ellipse cx="143" cy="87.4991" rx="9" ry="22.5" transform="rotate(-45 143 87.4991)" stroke="#B5B5B5"/>
<ellipse cx="9" cy="22.5" rx="9" ry="22.5" transform="matrix(-0.707107 -0.707107 -0.707107 0.707107 165.273 77.9531)" stroke="#B5B5B5"/>
<circle cx="143" cy="87" r="6" fill="#FF005C"/>
<ellipse cx="200" cy="87.5" rx="9" ry="22.5" stroke="#B5B5B5"/>
<ellipse cx="200" cy="87.5" rx="9" ry="22.5" stroke="#B5B5B5"/>
<ellipse cx="200" cy="87.5" rx="9" ry="22.5" transform="rotate(-90 200 87.5)" stroke="#B5B5B5"/>
<ellipse cx="200" cy="87.4991" rx="9" ry="22.5" transform="rotate(-45 200 87.4991)" stroke="#B5B5B5"/>
<ellipse cx="9" cy="22.5" rx="9" ry="22.5" transform="matrix(-0.707107 -0.707107 -0.707107 0.707107 222.273 77.9531)" stroke="#B5B5B5"/>
<circle cx="200" cy="87" r="6" fill="#FF005C"/>
<ellipse cx="257" cy="87.5" rx="9" ry="22.5" stroke="#B5B5B5"/>
<ellipse cx="257" cy="87.5" rx="9" ry="22.5" stroke="#B5B5B5"/>
<ellipse cx="257" cy="87.5" rx="9" ry="22.5" transform="rotate(-90 257 87.5)" stroke="#B5B5B5"/>
<ellipse cx="257" cy="87.4991" rx="9" ry="22.5" transform="rotate(-45 257 87.4991)" stroke="#B5B5B5"/>
<ellipse cx="9" cy="22.5" rx="9" ry="22.5" transform="matrix(-0.707107 -0.707107 -0.707107 0.707107 279.273 77.9531)" stroke="#B5B5B5"/>
<circle cx="257" cy="87" r="6" fill="#FF005C"/>
<ellipse cx="314" cy="87.5" rx="9" ry="22.5" stroke="#B5B5B5"/>
<ellipse cx="314" cy="87.5" rx="9" ry="22.5" stroke="#B5B5B5"/>
<ellipse cx="314" cy="87.5" rx="9" ry="22.5" transform="rotate(-90 314 87.5)" stroke="#B5B5B5"/>
<ellipse cx="314" cy="87.4991" rx="9" ry="22.5" transform="rotate(-45 314 87.4991)" stroke="#B5B5B5"/>
<ellipse cx="9" cy="22.5" rx="9" ry="22.5" transform="matrix(-0.707107 -0.707107 -0.707107 0.707107 336.273 77.9531)" stroke="#B5B5B5"/>
<circle cx="314" cy="87" r="6" fill="#FF005C"/>
<ellipse cx="371" cy="87.5" rx="9" ry="22.5" stroke="#B5B5B5"/>
<ellipse cx="371" cy="87.5" rx="9" ry="22.5" stroke="#B5B5B5"/>
<ellipse cx="371" cy="87.5" rx="9" ry="22.5" transform="rotate(-90 371 87.5)" stroke="#B5B5B5"/>
<ellipse cx="371" cy="87.4991" rx="9" ry="22.5" transform="rotate(-45 371 87.4991)" stroke="#B5B5B5"/>
<ellipse cx="9" cy="22.5" rx="9" ry="22.5" transform="matrix(-0.707107 -0.707107 -0.707107 0.707107 393.273 77.9531)" stroke="#B5B5B5"/>
<circle cx="371" cy="87" r="6" fill="#FF005C"/>
<ellipse cx="428" cy="87.5" rx="9" ry="22.5" stroke="#B5B5B5"/>
<ellipse cx="428" cy="87.5" rx="9" ry="22.5" stroke="#B5B5B5"/>
<ellipse cx="428" cy="87.5" rx="9" ry="22.5" transform="rotate(-90 428 87.5)" stroke="#B5B5B5"/>
<ellipse cx="428" cy="87.4991" rx="9" ry="22.5" transform="rotate(-45 428 87.4991)" stroke="#B5B5B5"/>
<ellipse cx="9" cy="22.5" rx="9" ry="22.5" transform="matrix(-0.707107 -0.707107 -0.707107 0.707107 450.273 77.9531)" stroke="#B5B5B5"/>
<circle cx="428" cy="87" r="6" fill="#FF005C"/>
<ellipse cx="485" cy="87.5" rx="9" ry="22.5" stroke="#B5B5B5"/>
<ellipse cx="485" cy="87.5" rx="9" ry="22.5" stroke="#B5B5B5"/>
<ellipse cx="485" cy="87.5" rx="9" ry="22.5" transform="rotate(-90 485 87.5)" stroke="#B5B5B5"/>
<ellipse cx="485" cy="87.4991" rx="9" ry="22.5" transform="rotate(-45 485 87.4991)" stroke="#B5B5B5"/>
<ellipse cx="9" cy="22.5" rx="9" ry="22.5" transform="matrix(-0.707107 -0.707107 -0.707107 0.707107 507.273 77.9531)" stroke="#B5B5B5"/>
<circle cx="485" cy="87" r="6" fill="#FF005C"/>
<ellipse cx="542" cy="87.5" rx="9" ry="22.5" stroke="#B5B5B5"/>
<ellipse cx="542" cy="87.5" rx="9" ry="22.5" stroke="#B5B5B5"/>
<ellipse cx="542" cy="87.5" rx="9" ry="22.5" transform="rotate(-90 542 87.5)" stroke="#B5B5B5"/>
<ellipse cx="542" cy="87.4991" rx="9" ry="22.5" transform="rotate(-45 542 87.4991)" stroke="#B5B5B5"/>
<ellipse cx="9" cy="22.5" rx="9" ry="22.5" transform="matrix(-0.707107 -0.707107 -0.707107 0.707107 564.273 77.9531)" stroke="#B5B5B5"/>
<circle cx="542" cy="87" r="6" fill="#FF005C"/>
<ellipse cx="29" cy="145.5" rx="9" ry="22.5" stroke="#B5B5B5"/>
<ellipse cx="29" cy="145.5" rx="9" ry="22.5" stroke="#B5B5B5"/>
<ellipse cx="29" cy="145.5" rx="9" ry="22.5" transform="rotate(-90 29 145.5)" stroke="#B5B5B5"/>
<ellipse cx="29.0004" cy="145.499" rx="9" ry="22.5" transform="rotate(-45 29.0004 145.499)" stroke="#B5B5B5"/>
<ellipse cx="9" cy="22.5" rx="9" ry="22.5" transform="matrix(-0.707107 -0.707107 -0.707107 0.707107 51.2734 135.953)" stroke="#B5B5B5"/>
<circle cx="29" cy="145" r="6" fill="#FF005C"/>
<ellipse cx="86" cy="145.5" rx="9" ry="22.5" stroke="#B5B5B5"/>
<ellipse cx="86" cy="145.5" rx="9" ry="22.5" stroke="#B5B5B5"/>
<ellipse cx="86" cy="145.5" rx="9" ry="22.5" transform="rotate(-90 86 145.5)" stroke="#B5B5B5"/>
<ellipse cx="86.0004" cy="145.499" rx="9" ry="22.5" transform="rotate(-45 86.0004 145.499)" stroke="#B5B5B5"/>
<ellipse cx="9" cy="22.5" rx="9" ry="22.5" transform="matrix(-0.707107 -0.707107 -0.707107 0.707107 108.273 135.953)" stroke="#B5B5B5"/>
<circle cx="86" cy="145" r="6" fill="#FF005C"/>
<ellipse cx="143" cy="145.5" rx="9" ry="22.5" stroke="#B5B5B5"/>
<ellipse cx="143" cy="145.5" rx="9" ry="22.5" stroke="#B5B5B5"/>
<ellipse cx="143" cy="145.5" rx="9" ry="22.5" transform="rotate(-90 143 145.5)" stroke="#B5B5B5"/>
<ellipse cx="143" cy="145.499" rx="9" ry="22.5" transform="rotate(-45 143 145.499)" stroke="#B5B5B5"/>
<ellipse cx="9" cy="22.5" rx="9" ry="22.5" transform="matrix(-0.707107 -0.707107 -0.707107 0.707107 165.273 135.953)" stroke="#B5B5B5"/>
<circle cx="143" cy="145" r="6" fill="#FF005C"/>
<ellipse cx="200" cy="145.5" rx="9" ry="22.5" stroke="#B5B5B5"/>
<ellipse cx="200" cy="145.5" rx="9" ry="22.5" stroke="#B5B5B5"/>
<ellipse cx="200" cy="145.5" rx="9" ry="22.5" transform="rotate(-90 200 145.5)" stroke="#B5B5B5"/>
<ellipse cx="200" cy="145.499" rx="9" ry="22.5" transform="rotate(-45 200 145.499)" stroke="#B5B5B5"/>
<ellipse cx="9" cy="22.5" rx="9" ry="22.5" transform="matrix(-0.707107 -0.707107 -0.707107 0.707107 222.273 135.953)" stroke="#B5B5B5"/>
<circle cx="200" cy="145" r="6" fill="#FF005C"/>
<g clip-path="url(#clip1_1546_186)">
<ellipse cx="257" cy="145.5" rx="9" ry="22.5" stroke="#B5B5B5"/>
<ellipse cx="257" cy="145.5" rx="9" ry="22.5" stroke="#B5B5B5"/>
<ellipse cx="257" cy="145.5" rx="9" ry="22.5" transform="rotate(-90 257 145.5)" stroke="#B5B5B5"/>
<ellipse cx="257" cy="145.499" rx="9" ry="22.5" transform="rotate(-45 257 145.499)" stroke="#B5B5B5"/>
<ellipse cx="9" cy="22.5" rx="9" ry="22.5" transform="matrix(-0.707107 -0.707107 -0.707107 0.707107 279.273 135.953)" stroke="#B5B5B5"/>
<g filter="url(#filter1_d_1546_186)">
<circle cx="257" cy="145" r="6" fill="#3987E2"/>
</g>
</g>
<ellipse cx="314" cy="145.5" rx="9" ry="22.5" stroke="#B5B5B5"/>
<ellipse cx="314" cy="145.5" rx="9" ry="22.5" stroke="#B5B5B5"/>
<ellipse cx="314" cy="145.5" rx="9" ry="22.5" transform="rotate(-90 314 145.5)" stroke="#B5B5B5"/>
<ellipse cx="314" cy="145.499" rx="9" ry="22.5" transform="rotate(-45 314 145.499)" stroke="#B5B5B5"/>
<ellipse cx="9" cy="22.5" rx="9" ry="22.5" transform="matrix(-0.707107 -0.707107 -0.707107 0.707107 336.273 135.953)" stroke="#B5B5B5"/>
<circle cx="314" cy="145" r="6" fill="#FF005C"/>
<ellipse cx="371" cy="145.5" rx="9" ry="22.5" stroke="#B5B5B5"/>
<ellipse cx="371" cy="145.5" rx="9" ry="22.5" stroke="#B5B5B5"/>
<ellipse cx="371" cy="145.5" rx="9" ry="22.5" transform="rotate(-90 371 145.5)" stroke="#B5B5B5"/>
<ellipse cx="371" cy="145.499" rx="9" ry="22.5" transform="rotate(-45 371 145.499)" stroke="#B5B5B5"/>
<ellipse cx="9" cy="22.5" rx="9" ry="22.5" transform="matrix(-0.707107 -0.707107 -0.707107 0.707107 393.273 135.953)" stroke="#B5B5B5"/>
<circle cx="371" cy="145" r="6" fill="#FF005C"/>
<ellipse cx="428" cy="145.5" rx="9" ry="22.5" stroke="#B5B5B5"/>
<ellipse cx="428" cy="145.5" rx="9" ry="22.5" stroke="#B5B5B5"/>
<ellipse cx="428" cy="145.5" rx="9" ry="22.5" transform="rotate(-90 428 145.5)" stroke="#B5B5B5"/>
<ellipse cx="428" cy="145.499" rx="9" ry="22.5" transform="rotate(-45 428 145.499)" stroke="#B5B5B5"/>
<ellipse cx="9" cy="22.5" rx="9" ry="22.5" transform="matrix(-0.707107 -0.707107 -0.707107 0.707107 450.273 135.953)" stroke="#B5B5B5"/>
<circle cx="428" cy="145" r="6" fill="#FF005C"/>
<ellipse cx="485" cy="145.5" rx="9" ry="22.5" stroke="#B5B5B5"/>
<ellipse cx="485" cy="145.5" rx="9" ry="22.5" stroke="#B5B5B5"/>
<ellipse cx="485" cy="145.5" rx="9" ry="22.5" transform="rotate(-90 485 145.5)" stroke="#B5B5B5"/>
<ellipse cx="485" cy="145.499" rx="9" ry="22.5" transform="rotate(-45 485 145.499)" stroke="#B5B5B5"/>
<ellipse cx="9" cy="22.5" rx="9" ry="22.5" transform="matrix(-0.707107 -0.707107 -0.707107 0.707107 507.273 135.953)" stroke="#B5B5B5"/>
<circle cx="485" cy="145" r="6" fill="#FF005C"/>
<ellipse cx="542" cy="145.5" rx="9" ry="22.5" stroke="#B5B5B5"/>
<ellipse cx="542" cy="145.5" rx="9" ry="22.5" stroke="#B5B5B5"/>
<ellipse cx="542" cy="145.5" rx="9" ry="22.5" transform="rotate(-90 542 145.5)" stroke="#B5B5B5"/>
<ellipse cx="542" cy="145.499" rx="9" ry="22.5" transform="rotate(-45 542 145.499)" stroke="#B5B5B5"/>
<ellipse cx="9" cy="22.5" rx="9" ry="22.5" transform="matrix(-0.707107 -0.707107 -0.707107 0.707107 564.273 135.953)" stroke="#B5B5B5"/>
<circle cx="542" cy="145" r="6" fill="#FF005C"/>
<g clip-path="url(#clip2_1546_186)">
<ellipse cx="29" cy="203.5" rx="9" ry="22.5" stroke="#B5B5B5"/>
<ellipse cx="29" cy="203.5" rx="9" ry="22.5" stroke="#B5B5B5"/>
<ellipse cx="29" cy="203.5" rx="9" ry="22.5" transform="rotate(-90 29 203.5)" stroke="#B5B5B5"/>
<ellipse cx="29.0004" cy="203.499" rx="9" ry="22.5" transform="rotate(-45 29.0004 203.499)" stroke="#B5B5B5"/>
<ellipse cx="9" cy="22.5" rx="9" ry="22.5" transform="matrix(-0.707107 -0.707107 -0.707107 0.707107 51.2734 193.953)" stroke="#B5B5B5"/>
<g filter="url(#filter2_d_1546_186)">
<circle cx="29" cy="203" r="6" fill="#3987E2"/>
</g>
</g>
<ellipse cx="86" cy="203.5" rx="9" ry="22.5" stroke="#B5B5B5"/>
<ellipse cx="86" cy="203.5" rx="9" ry="22.5" stroke="#B5B5B5"/>
<ellipse cx="86" cy="203.5" rx="9" ry="22.5" transform="rotate(-90 86 203.5)" stroke="#B5B5B5"/>
<ellipse cx="86.0004" cy="203.499" rx="9" ry="22.5" transform="rotate(-45 86.0004 203.499)" stroke="#B5B5B5"/>
<ellipse cx="9" cy="22.5" rx="9" ry="22.5" transform="matrix(-0.707107 -0.707107 -0.707107 0.707107 108.273 193.953)" stroke="#B5B5B5"/>
<circle cx="86" cy="203" r="6" fill="#FF005C"/>
<ellipse cx="143" cy="203.5" rx="9" ry="22.5" stroke="#B5B5B5"/>
<ellipse cx="143" cy="203.5" rx="9" ry="22.5" stroke="#B5B5B5"/>
<ellipse cx="143" cy="203.5" rx="9" ry="22.5" transform="rotate(-90 143 203.5)" stroke="#B5B5B5"/>
<ellipse cx="143" cy="203.499" rx="9" ry="22.5" transform="rotate(-45 143 203.499)" stroke="#B5B5B5"/>
<ellipse cx="9" cy="22.5" rx="9" ry="22.5" transform="matrix(-0.707107 -0.707107 -0.707107 0.707107 165.273 193.953)" stroke="#B5B5B5"/>
<circle cx="143" cy="203" r="6" fill="#FF005C"/>
<ellipse cx="200" cy="203.5" rx="9" ry="22.5" stroke="#B5B5B5"/>
<ellipse cx="200" cy="203.5" rx="9" ry="22.5" stroke="#B5B5B5"/>
<ellipse cx="200" cy="203.5" rx="9" ry="22.5" transform="rotate(-90 200 203.5)" stroke="#B5B5B5"/>
<ellipse cx="200" cy="203.499" rx="9" ry="22.5" transform="rotate(-45 200 203.499)" stroke="#B5B5B5"/>
<ellipse cx="9" cy="22.5" rx="9" ry="22.5" transform="matrix(-0.707107 -0.707107 -0.707107 0.707107 222.273 193.953)" stroke="#B5B5B5"/>
<circle cx="200" cy="203" r="6" fill="#FF005C"/>
<ellipse cx="257" cy="203.5" rx="9" ry="22.5" stroke="#B5B5B5"/>
<ellipse cx="257" cy="203.5" rx="9" ry="22.5" stroke="#B5B5B5"/>
<ellipse cx="257" cy="203.5" rx="9" ry="22.5" transform="rotate(-90 257 203.5)" stroke="#B5B5B5"/>
<ellipse cx="257" cy="203.499" rx="9" ry="22.5" transform="rotate(-45 257 203.499)" stroke="#B5B5B5"/>
<ellipse cx="9" cy="22.5" rx="9" ry="22.5" transform="matrix(-0.707107 -0.707107 -0.707107 0.707107 279.273 193.953)" stroke="#B5B5B5"/>
<circle cx="257" cy="203" r="6" fill="#FF005C"/>
<ellipse cx="314" cy="203.5" rx="9" ry="22.5" stroke="#B5B5B5"/>
<ellipse cx="314" cy="203.5" rx="9" ry="22.5" stroke="#B5B5B5"/>
<ellipse cx="314" cy="203.5" rx="9" ry="22.5" transform="rotate(-90 314 203.5)" stroke="#B5B5B5"/>
<ellipse cx="314" cy="203.499" rx="9" ry="22.5" transform="rotate(-45 314 203.499)" stroke="#B5B5B5"/>
<ellipse cx="9" cy="22.5" rx="9" ry="22.5" transform="matrix(-0.707107 -0.707107 -0.707107 0.707107 336.273 193.953)" stroke="#B5B5B5"/>
<circle cx="314" cy="203" r="6" fill="#FF005C"/>
<ellipse cx="371" cy="203.5" rx="9" ry="22.5" stroke="#B5B5B5"/>
<ellipse cx="371" cy="203.5" rx="9" ry="22.5" stroke="#B5B5B5"/>
<ellipse cx="371" cy="203.5" rx="9" ry="22.5" transform="rotate(-90 371 203.5)" stroke="#B5B5B5"/>
<ellipse cx="371" cy="203.499" rx="9" ry="22.5" transform="rotate(-45 371 203.499)" stroke="#B5B5B5"/>
<ellipse cx="9" cy="22.5" rx="9" ry="22.5" transform="matrix(-0.707107 -0.707107 -0.707107 0.707107 393.273 193.953)" stroke="#B5B5B5"/>
<circle cx="371" cy="203" r="6" fill="#FF005C"/>
<ellipse cx="428" cy="203.5" rx="9" ry="22.5" stroke="#B5B5B5"/>
<ellipse cx="428" cy="203.5" rx="9" ry="22.5" stroke="#B5B5B5"/>
<ellipse cx="428" cy="203.5" rx="9" ry="22.5" transform="rotate(-90 428 203.5)" stroke="#B5B5B5"/>
<ellipse cx="428" cy="203.499" rx="9" ry="22.5" transform="rotate(-45 428 203.499)" stroke="#B5B5B5"/>
<ellipse cx="9" cy="22.5" rx="9" ry="22.5" transform="matrix(-0.707107 -0.707107 -0.707107 0.707107 450.273 193.953)" stroke="#B5B5B5"/>
<circle cx="428" cy="203" r="6" fill="#FF005C"/>
<ellipse cx="485" cy="203.5" rx="9" ry="22.5" stroke="#B5B5B5"/>
<ellipse cx="485" cy="203.5" rx="9" ry="22.5" stroke="#B5B5B5"/>
<ellipse cx="485" cy="203.5" rx="9" ry="22.5" transform="rotate(-90 485 203.5)" stroke="#B5B5B5"/>
<ellipse cx="485" cy="203.499" rx="9" ry="22.5" transform="rotate(-45 485 203.499)" stroke="#B5B5B5"/>
<ellipse cx="9" cy="22.5" rx="9" ry="22.5" transform="matrix(-0.707107 -0.707107 -0.707107 0.707107 507.273 193.953)" stroke="#B5B5B5"/>
<circle cx="485" cy="203" r="6" fill="#FF005C"/>
<ellipse cx="542" cy="203.5" rx="9" ry="22.5" stroke="#B5B5B5"/>
<ellipse cx="542" cy="203.5" rx="9" ry="22.5" stroke="#B5B5B5"/>
<ellipse cx="542" cy="203.5" rx="9" ry="22.5" transform="rotate(-90 542 203.5)" stroke="#B5B5B5"/>
<ellipse cx="542" cy="203.499" rx="9" ry="22.5" transform="rotate(-45 542 203.499)" stroke="#B5B5B5"/>
<ellipse cx="9" cy="22.5" rx="9" ry="22.5" transform="matrix(-0.707107 -0.707107 -0.707107 0.707107 564.273 193.953)" stroke="#B5B5B5"/>
<circle cx="542" cy="203" r="6" fill="#FF005C"/>
<ellipse cx="29" cy="261.5" rx="9" ry="22.5" stroke="#B5B5B5"/>
<ellipse cx="29" cy="261.5" rx="9" ry="22.5" stroke="#B5B5B5"/>
<ellipse cx="29" cy="261.5" rx="9" ry="22.5" transform="rotate(-90 29 261.5)" stroke="#B5B5B5"/>
<ellipse cx="29.0004" cy="261.499" rx="9" ry="22.5" transform="rotate(-45 29.0004 261.499)" stroke="#B5B5B5"/>
<ellipse cx="9" cy="22.5" rx="9" ry="22.5" transform="matrix(-0.707107 -0.707107 -0.707107 0.707107 51.2734 251.953)" stroke="#B5B5B5"/>
<circle cx="29" cy="261" r="6" fill="#FF005C"/>
<ellipse cx="86" cy="261.5" rx="9" ry="22.5" stroke="#B5B5B5"/>
<ellipse cx="86" cy="261.5" rx="9" ry="22.5" stroke="#B5B5B5"/>
<ellipse cx="86" cy="261.5" rx="9" ry="22.5" transform="rotate(-90 86 261.5)" stroke="#B5B5B5"/>
<ellipse cx="86.0004" cy="261.499" rx="9" ry="22.5" transform="rotate(-45 86.0004 261.499)" stroke="#B5B5B5"/>
<ellipse cx="9" cy="22.5" rx="9" ry="22.5" transform="matrix(-0.707107 -0.707107 -0.707107 0.707107 108.273 251.953)" stroke="#B5B5B5"/>
<circle cx="86" cy="261" r="6" fill="#FF005C"/>
<ellipse cx="143" cy="261.5" rx="9" ry="22.5" stroke="#B5B5B5"/>
<ellipse cx="143" cy="261.5" rx="9" ry="22.5" stroke="#B5B5B5"/>
<ellipse cx="143" cy="261.5" rx="9" ry="22.5" transform="rotate(-90 143 261.5)" stroke="#B5B5B5"/>
<ellipse cx="143" cy="261.499" rx="9" ry="22.5" transform="rotate(-45 143 261.499)" stroke="#B5B5B5"/>
<ellipse cx="9" cy="22.5" rx="9" ry="22.5" transform="matrix(-0.707107 -0.707107 -0.707107 0.707107 165.273 251.953)" stroke="#B5B5B5"/>
<circle cx="143" cy="261" r="6" fill="#FF005C"/>
<ellipse cx="200" cy="261.5" rx="9" ry="22.5" stroke="#B5B5B5"/>
<ellipse cx="200" cy="261.5" rx="9" ry="22.5" stroke="#B5B5B5"/>
<ellipse cx="200" cy="261.5" rx="9" ry="22.5" transform="rotate(-90 200 261.5)" stroke="#B5B5B5"/>
<ellipse cx="200" cy="261.499" rx="9" ry="22.5" transform="rotate(-45 200 261.499)" stroke="#B5B5B5"/>
<ellipse cx="9" cy="22.5" rx="9" ry="22.5" transform="matrix(-0.707107 -0.707107 -0.707107 0.707107 222.273 251.953)" stroke="#B5B5B5"/>
<circle cx="200" cy="261" r="6" fill="#FF005C"/>
<ellipse cx="257" cy="261.5" rx="9" ry="22.5" stroke="#B5B5B5"/>
<ellipse cx="257" cy="261.5" rx="9" ry="22.5" stroke="#B5B5B5"/>
<ellipse cx="257" cy="261.5" rx="9" ry="22.5" transform="rotate(-90 257 261.5)" stroke="#B5B5B5"/>
<ellipse cx="257" cy="261.499" rx="9" ry="22.5" transform="rotate(-45 257 261.499)" stroke="#B5B5B5"/>
<ellipse cx="9" cy="22.5" rx="9" ry="22.5" transform="matrix(-0.707107 -0.707107 -0.707107 0.707107 279.273 251.953)" stroke="#B5B5B5"/>
<circle cx="257" cy="261" r="6" fill="#FF005C"/>
<ellipse cx="314" cy="261.5" rx="9" ry="22.5" stroke="#B5B5B5"/>
<ellipse cx="314" cy="261.5" rx="9" ry="22.5" stroke="#B5B5B5"/>
<ellipse cx="314" cy="261.5" rx="9" ry="22.5" transform="rotate(-90 314 261.5)" stroke="#B5B5B5"/>
<ellipse cx="314" cy="261.499" rx="9" ry="22.5" transform="rotate(-45 314 261.499)" stroke="#B5B5B5"/>
<ellipse cx="9" cy="22.5" rx="9" ry="22.5" transform="matrix(-0.707107 -0.707107 -0.707107 0.707107 336.273 251.953)" stroke="#B5B5B5"/>
<circle cx="314" cy="261" r="6" fill="#FF005C"/>
<ellipse cx="371" cy="261.5" rx="9" ry="22.5" stroke="#B5B5B5"/>
<ellipse cx="371" cy="261.5" rx="9" ry="22.5" stroke="#B5B5B5"/>
<ellipse cx="371" cy="261.5" rx="9" ry="22.5" transform="rotate(-90 371 261.5)" stroke="#B5B5B5"/>
<ellipse cx="371" cy="261.499" rx="9" ry="22.5" transform="rotate(-45 371 261.499)" stroke="#B5B5B5"/>
<ellipse cx="9" cy="22.5" rx="9" ry="22.5" transform="matrix(-0.707107 -0.707107 -0.707107 0.707107 393.273 251.953)" stroke="#B5B5B5"/>
<circle cx="371" cy="261" r="6" fill="#FF005C"/>
<ellipse cx="428" cy="261.5" rx="9" ry="22.5" stroke="#B5B5B5"/>
<ellipse cx="428" cy="261.5" rx="9" ry="22.5" stroke="#B5B5B5"/>
<ellipse cx="428" cy="261.5" rx="9" ry="22.5" transform="rotate(-90 428 261.5)" stroke="#B5B5B5"/>
<ellipse cx="428" cy="261.499" rx="9" ry="22.5" transform="rotate(-45 428 261.499)" stroke="#B5B5B5"/>
<ellipse cx="9" cy="22.5" rx="9" ry="22.5" transform="matrix(-0.707107 -0.707107 -0.707107 0.707107 450.273 251.953)" stroke="#B5B5B5"/>
<circle cx="428" cy="261" r="6" fill="#FF005C"/>
<ellipse cx="485" cy="261.5" rx="9" ry="22.5" stroke="#B5B5B5"/>
<ellipse cx="485" cy="261.5" rx="9" ry="22.5" stroke="#B5B5B5"/>
<ellipse cx="485" cy="261.5" rx="9" ry="22.5" transform="rotate(-90 485 261.5)" stroke="#B5B5B5"/>
<ellipse cx="485" cy="261.499" rx="9" ry="22.5" transform="rotate(-45 485 261.499)" stroke="#B5B5B5"/>
<ellipse cx="9" cy="22.5" rx="9" ry="22.5" transform="matrix(-0.707107 -0.707107 -0.707107 0.707107 507.273 251.953)" stroke="#B5B5B5"/>
<circle cx="485" cy="261" r="6" fill="#FF005C"/>
<ellipse cx="542" cy="261.5" rx="9" ry="22.5" stroke="#B5B5B5"/>
<ellipse cx="542" cy="261.5" rx="9" ry="22.5" stroke="#B5B5B5"/>
<ellipse cx="542" cy="261.5" rx="9" ry="22.5" transform="rotate(-90 542 261.5)" stroke="#B5B5B5"/>
<ellipse cx="542" cy="261.499" rx="9" ry="22.5" transform="rotate(-45 542 261.499)" stroke="#B5B5B5"/>
<ellipse cx="9" cy="22.5" rx="9" ry="22.5" transform="matrix(-0.707107 -0.707107 -0.707107 0.707107 564.273 251.953)" stroke="#B5B5B5"/>
<circle cx="542" cy="261" r="6" fill="#FF005C"/>
<ellipse cx="154" cy="374" rx="9" ry="22.5" stroke="#B5B5B5"/>
<ellipse cx="154" cy="374" rx="9" ry="22.5" stroke="#B5B5B5"/>
<ellipse cx="154" cy="374" rx="9" ry="22.5" transform="rotate(-90 154 374)" stroke="#B5B5B5"/>
<ellipse cx="154" cy="373.999" rx="9" ry="22.5" transform="rotate(-45 154 373.999)" stroke="#B5B5B5"/>
<ellipse cx="9" cy="22.5" rx="9" ry="22.5" transform="matrix(-0.707107 -0.707107 -0.707107 0.707107 176.273 364.453)" stroke="#B5B5B5"/>
<circle cx="154" cy="373.5" r="6" fill="#FF005C"/>
<g filter="url(#filter3_d_1546_186)">
<mask id="path-307-outside-1_1546_186" maskUnits="userSpaceOnUse" x="213" y="355" width="29" height="29" fill="black">
<rect fill="white" x="213" y="355" width="29" height="29"/>
<path d="M231.143 379.094V383H214.259V357.296H218.879V379.094H231.143ZM240.789 356.456V360.446H235.749V356.456H240.789ZM240.789 364.1V383H236.169V367.838H233.439L233.733 364.1H240.789Z"/>
</mask>
<path d="M231.143 379.094V383H214.259V357.296H218.879V379.094H231.143ZM240.789 356.456V360.446H235.749V356.456H240.789ZM240.789 364.1V383H236.169V367.838H233.439L233.733 364.1H240.789Z" fill="#FF005C"/>
<path d="M231.143 379.094H232.143V378.094H231.143V379.094ZM231.143 383V384H232.143V383H231.143ZM214.259 383H213.259V384H214.259V383ZM214.259 357.296V356.296H213.259V357.296H214.259ZM218.879 357.296H219.879V356.296H218.879V357.296ZM218.879 379.094H217.879V380.094H218.879V379.094ZM230.143 379.094V383H232.143V379.094H230.143ZM231.143 382H214.259V384H231.143V382ZM215.259 383V357.296H213.259V383H215.259ZM214.259 358.296H218.879V356.296H214.259V358.296ZM217.879 357.296V379.094H219.879V357.296H217.879ZM218.879 380.094H231.143V378.094H218.879V380.094ZM240.789 356.456H241.789V355.456H240.789V356.456ZM240.789 360.446V361.446H241.789V360.446H240.789ZM235.749 360.446H234.749V361.446H235.749V360.446ZM235.749 356.456V355.456H234.749V356.456H235.749ZM240.789 364.1H241.789V363.1H240.789V364.1ZM240.789 383V384H241.789V383H240.789ZM236.169 383H235.169V384H236.169V383ZM236.169 367.838H237.169V366.838H236.169V367.838ZM233.439 367.838L232.442 367.76L232.357 368.838H233.439V367.838ZM233.733 364.1V363.1H232.808L232.736 364.022L233.733 364.1ZM239.789 356.456V360.446H241.789V356.456H239.789ZM240.789 359.446H235.749V361.446H240.789V359.446ZM236.749 360.446V356.456H234.749V360.446H236.749ZM235.749 357.456H240.789V355.456H235.749V357.456ZM239.789 364.1V383H241.789V364.1H239.789ZM240.789 382H236.169V384H240.789V382ZM237.169 383V367.838H235.169V383H237.169ZM236.169 366.838H233.439V368.838H236.169V366.838ZM234.436 367.916L234.73 364.178L232.736 364.022L232.442 367.76L234.436 367.916ZM233.733 365.1H240.789V363.1H233.733V365.1Z" fill="black" mask="url(#path-307-outside-1_1546_186)"/>
<mask id="path-309-outside-2_1546_186" maskUnits="userSpaceOnUse" x="191" y="352" width="17" height="37" fill="black">
<rect fill="white" x="191" y="352" width="17" height="37"/>
<path d="M197.632 368C197.207 365.463 196.627 363.204 195.894 361.224C195.175 359.244 194.207 357.249 192.99 355.24L194.882 353.898C196.906 357.198 198.204 360.535 198.776 363.908C199.407 360.183 200.639 356.846 202.472 353.898L204.452 355.24C203.293 357.073 202.355 358.987 201.636 360.982C200.917 362.962 200.309 365.301 199.81 368H197.632ZM201.152 374.008C201.445 375.753 201.592 377.044 201.592 377.88C201.592 377.924 201.57 378.122 201.526 378.474C201.834 378.899 202.267 379.112 202.824 379.112C203.22 379.112 203.55 378.995 203.814 378.76C204.093 378.511 204.232 378.195 204.232 377.814C204.232 377.345 204.093 376.237 203.814 374.492L206.08 374.008C206.373 375.753 206.52 377.044 206.52 377.88C206.52 378.569 206.366 379.193 206.058 379.75C205.765 380.293 205.347 380.718 204.804 381.026C204.276 381.334 203.675 381.488 203 381.488C202.472 381.488 201.981 381.4 201.526 381.224C201.086 381.033 200.756 380.784 200.536 380.476C200.301 380.799 199.957 381.048 199.502 381.224C199.062 381.4 198.578 381.488 198.05 381.488C197.331 381.488 196.833 381.334 196.554 381.026C196.569 381.261 196.576 381.671 196.576 382.258V388H194.31V382.28C194.31 380.843 194.237 379.603 194.09 378.562C193.943 377.506 193.65 376.245 193.21 374.778L195.388 374.008L196.378 377.858C196.598 378.694 197.097 379.112 197.874 379.112C198.27 379.112 198.607 378.995 198.886 378.76C199.165 378.511 199.304 378.195 199.304 377.814C199.304 377.315 199.157 376.208 198.864 374.492L201.152 374.008Z"/>
</mask>
<path d="M197.632 368C197.207 365.463 196.627 363.204 195.894 361.224C195.175 359.244 194.207 357.249 192.99 355.24L194.882 353.898C196.906 357.198 198.204 360.535 198.776 363.908C199.407 360.183 200.639 356.846 202.472 353.898L204.452 355.24C203.293 357.073 202.355 358.987 201.636 360.982C200.917 362.962 200.309 365.301 199.81 368H197.632ZM201.152 374.008C201.445 375.753 201.592 377.044 201.592 377.88C201.592 377.924 201.57 378.122 201.526 378.474C201.834 378.899 202.267 379.112 202.824 379.112C203.22 379.112 203.55 378.995 203.814 378.76C204.093 378.511 204.232 378.195 204.232 377.814C204.232 377.345 204.093 376.237 203.814 374.492L206.08 374.008C206.373 375.753 206.52 377.044 206.52 377.88C206.52 378.569 206.366 379.193 206.058 379.75C205.765 380.293 205.347 380.718 204.804 381.026C204.276 381.334 203.675 381.488 203 381.488C202.472 381.488 201.981 381.4 201.526 381.224C201.086 381.033 200.756 380.784 200.536 380.476C200.301 380.799 199.957 381.048 199.502 381.224C199.062 381.4 198.578 381.488 198.05 381.488C197.331 381.488 196.833 381.334 196.554 381.026C196.569 381.261 196.576 381.671 196.576 382.258V388H194.31V382.28C194.31 380.843 194.237 379.603 194.09 378.562C193.943 377.506 193.65 376.245 193.21 374.778L195.388 374.008L196.378 377.858C196.598 378.694 197.097 379.112 197.874 379.112C198.27 379.112 198.607 378.995 198.886 378.76C199.165 378.511 199.304 378.195 199.304 377.814C199.304 377.315 199.157 376.208 198.864 374.492L201.152 374.008Z" fill="#FF005C"/>
<path d="M197.632 368L196.646 368.165L196.786 369H197.632V368ZM195.894 361.224L194.954 361.565L194.956 361.571L195.894 361.224ZM192.99 355.24L192.411 354.424L191.653 354.963L192.135 355.758L192.99 355.24ZM194.882 353.898L195.734 353.375L195.175 352.464L194.303 353.082L194.882 353.898ZM198.776 363.908L197.79 364.075L199.762 364.075L198.776 363.908ZM202.472 353.898L203.033 353.07L202.172 352.487L201.623 353.37L202.472 353.898ZM204.452 355.24L205.297 355.774L205.815 354.956L205.013 354.412L204.452 355.24ZM201.636 360.982L202.576 361.323L202.577 361.321L201.636 360.982ZM199.81 368V369H200.642L200.793 368.182L199.81 368ZM198.618 367.835C198.185 365.248 197.591 362.927 196.832 360.877L194.956 361.571C195.664 363.481 196.229 365.677 196.646 368.165L198.618 367.835ZM196.834 360.883C196.091 358.835 195.093 356.781 193.845 354.722L192.135 355.758C193.322 357.718 194.26 359.653 194.954 361.565L196.834 360.883ZM193.569 356.056L195.461 354.714L194.303 353.082L192.411 354.424L193.569 356.056ZM194.03 354.421C195.995 357.626 197.242 360.843 197.79 364.075L199.762 363.741C199.166 360.226 197.817 356.77 195.734 353.375L194.03 354.421ZM199.762 364.075C200.373 360.466 201.562 357.254 203.321 354.426L201.623 353.37C199.715 356.438 198.44 359.899 197.79 363.741L199.762 364.075ZM201.911 354.726L203.891 356.068L205.013 354.412L203.033 353.07L201.911 354.726ZM203.607 354.706C202.41 356.599 201.439 358.578 200.695 360.643L202.577 361.321C203.27 359.396 204.177 357.548 205.297 355.774L203.607 354.706ZM200.696 360.641C199.954 362.685 199.333 365.081 198.827 367.818L200.793 368.182C201.285 365.522 201.881 363.238 202.576 361.323L200.696 360.641ZM199.81 367H197.632V369H199.81V367ZM201.152 374.008L202.138 373.842L201.965 372.814L200.945 373.03L201.152 374.008ZM201.526 378.474L200.534 378.35L200.485 378.741L200.716 379.061L201.526 378.474ZM203.814 378.76L204.478 379.507L204.481 379.505L203.814 378.76ZM203.814 374.492L203.605 373.514L202.677 373.712L202.827 374.65L203.814 374.492ZM206.08 374.008L207.066 373.842L206.893 372.812L205.871 373.03L206.08 374.008ZM206.058 379.75L205.183 379.266L205.178 379.274L206.058 379.75ZM204.804 381.026L204.31 380.156L204.3 380.162L204.804 381.026ZM201.526 381.224L201.128 382.142L201.147 382.149L201.165 382.157L201.526 381.224ZM200.536 380.476L201.35 379.895L200.543 378.766L199.727 379.888L200.536 380.476ZM199.502 381.224L199.141 380.291L199.131 380.296L199.502 381.224ZM196.554 381.026L197.296 380.355L195.378 378.235L195.556 381.088L196.554 381.026ZM196.576 388V389H197.576V388H196.576ZM194.31 388H193.31V389H194.31V388ZM194.09 378.562L193.1 378.7L193.1 378.701L194.09 378.562ZM193.21 374.778L192.877 373.835L191.978 374.153L192.252 375.065L193.21 374.778ZM195.388 374.008L196.356 373.759L196.084 372.701L195.055 373.065L195.388 374.008ZM196.378 377.858L195.409 378.107L195.411 378.112L196.378 377.858ZM198.886 378.76L199.53 379.525L199.542 379.515L199.553 379.505L198.886 378.76ZM198.864 374.492L198.657 373.514L197.716 373.713L197.878 374.66L198.864 374.492ZM200.166 374.174C200.458 375.911 200.592 377.132 200.592 377.88H202.592C202.592 376.956 202.433 375.596 202.138 373.842L200.166 374.174ZM200.592 377.88C200.592 377.864 200.592 377.851 200.593 377.847C200.593 377.841 200.593 377.838 200.593 377.837C200.593 377.837 200.593 377.841 200.592 377.851C200.59 377.872 200.587 377.905 200.582 377.951C200.571 378.043 200.556 378.176 200.534 378.35L202.518 378.598C202.54 378.42 202.558 378.278 202.569 378.172C202.578 378.098 202.592 377.971 202.592 377.88H200.592ZM200.716 379.061C201.225 379.764 201.969 380.112 202.824 380.112V378.112C202.564 378.112 202.443 378.035 202.336 377.887L200.716 379.061ZM202.824 380.112C203.433 380.112 204.009 379.925 204.478 379.507L203.15 378.013C203.091 378.065 203.007 378.112 202.824 378.112V380.112ZM204.481 379.505C204.976 379.062 205.232 378.473 205.232 377.814H203.232C203.232 377.917 203.209 377.959 203.147 378.015L204.481 379.505ZM205.232 377.814C205.232 377.248 205.076 376.053 204.801 374.334L202.827 374.65C203.109 376.421 203.232 377.441 203.232 377.814H205.232ZM204.023 375.47L206.289 374.986L205.871 373.03L203.605 373.514L204.023 375.47ZM205.094 374.174C205.386 375.911 205.52 377.132 205.52 377.88H207.52C207.52 376.956 207.361 375.596 207.066 373.842L205.094 374.174ZM205.52 377.88C205.52 378.415 205.402 378.869 205.183 379.266L206.933 380.234C207.33 379.516 207.52 378.724 207.52 377.88H205.52ZM205.178 379.274C204.975 379.65 204.692 379.94 204.31 380.156L205.298 381.896C206.001 381.496 206.554 380.935 206.938 380.226L205.178 379.274ZM204.3 380.162C203.941 380.372 203.516 380.488 203 380.488V382.488C203.833 382.488 204.611 382.296 205.308 381.89L204.3 380.162ZM203 380.488C202.585 380.488 202.217 380.419 201.887 380.291L201.165 382.157C201.744 382.381 202.359 382.488 203 382.488V380.488ZM201.924 380.306C201.606 380.169 201.439 380.02 201.35 379.895L199.722 381.057C200.073 381.548 200.566 381.898 201.128 382.142L201.924 380.306ZM199.727 379.888C199.628 380.024 199.456 380.169 199.141 380.291L199.863 382.157C200.457 381.927 200.974 381.574 201.345 381.064L199.727 379.888ZM199.131 380.296C198.821 380.419 198.465 380.488 198.05 380.488V382.488C198.691 382.488 199.303 382.381 199.873 382.152L199.131 380.296ZM198.05 380.488C197.756 380.488 197.557 380.456 197.432 380.417C197.311 380.38 197.287 380.346 197.296 380.355L195.812 381.697C196.381 382.325 197.244 382.488 198.05 382.488V380.488ZM195.556 381.088C195.568 381.288 195.576 381.671 195.576 382.258H197.576C197.576 381.672 197.569 381.233 197.552 380.964L195.556 381.088ZM195.576 382.258V388H197.576V382.258H195.576ZM196.576 387H194.31V389H196.576V387ZM195.31 388V382.28H193.31V388H195.31ZM195.31 382.28C195.31 380.812 195.235 379.523 195.08 378.423L193.1 378.701C193.238 379.683 193.31 380.874 193.31 382.28H195.31ZM195.08 378.424C194.924 377.301 194.617 375.987 194.168 374.491L192.252 375.065C192.683 376.502 192.962 377.711 193.1 378.7L195.08 378.424ZM193.543 375.721L195.721 374.951L195.055 373.065L192.877 373.835L193.543 375.721ZM194.42 374.257L195.41 378.107L197.346 377.609L196.356 373.759L194.42 374.257ZM195.411 378.112C195.556 378.666 195.822 379.185 196.275 379.565C196.737 379.953 197.298 380.112 197.874 380.112V378.112C197.672 378.112 197.595 378.062 197.559 378.032C197.513 377.994 197.42 377.886 197.345 377.604L195.411 378.112ZM197.874 380.112C198.484 380.112 199.055 379.925 199.53 379.525L198.242 377.995C198.16 378.064 198.056 378.112 197.874 378.112V380.112ZM199.553 379.505C200.048 379.062 200.304 378.473 200.304 377.814H198.304C198.304 377.917 198.281 377.959 198.219 378.015L199.553 379.505ZM200.304 377.814C200.304 377.213 200.139 376.016 199.85 374.324L197.878 374.66C198.176 376.4 198.304 377.417 198.304 377.814H200.304ZM199.071 375.47L201.359 374.986L200.945 373.03L198.657 373.514L199.071 375.47Z" fill="black" mask="url(#path-309-outside-2_1546_186)"/>
</g>
<ellipse cx="355" cy="374" rx="9" ry="22.5" stroke="#B5B5B5"/>
<ellipse cx="355" cy="374" rx="9" ry="22.5" stroke="#B5B5B5"/>
<ellipse cx="355" cy="374" rx="9" ry="22.5" transform="rotate(-90 355 374)" stroke="#B5B5B5"/>
<ellipse cx="355" cy="373.999" rx="9" ry="22.5" transform="rotate(-45 355 373.999)" stroke="#B5B5B5"/>
<ellipse cx="9" cy="22.5" rx="9" ry="22.5" transform="matrix(-0.707107 -0.707107 -0.707107 0.707107 377.273 364.453)" stroke="#B5B5B5"/>
<circle cx="355" cy="373.5" r="6" fill="#3987E2"/>
<g filter="url(#filter4_d_1546_186)">
<mask id="path-317-outside-3_1546_186" maskUnits="userSpaceOnUse" x="414" y="355" width="29" height="29" fill="black">
<rect fill="white" x="414" y="355" width="29" height="29"/>
<path d="M432.143 379.094V383H415.259V357.296H419.879V379.094H432.143ZM441.789 356.456V360.446H436.749V356.456H441.789ZM441.789 364.1V383H437.169V367.838H434.439L434.733 364.1H441.789Z"/>
</mask>
<path d="M432.143 379.094V383H415.259V357.296H419.879V379.094H432.143ZM441.789 356.456V360.446H436.749V356.456H441.789ZM441.789 364.1V383H437.169V367.838H434.439L434.733 364.1H441.789Z" fill="#3987E2"/>
<path d="M432.143 379.094H433.143V378.094H432.143V379.094ZM432.143 383V384H433.143V383H432.143ZM415.259 383H414.259V384H415.259V383ZM415.259 357.296V356.296H414.259V357.296H415.259ZM419.879 357.296H420.879V356.296H419.879V357.296ZM419.879 379.094H418.879V380.094H419.879V379.094ZM431.143 379.094V383H433.143V379.094H431.143ZM432.143 382H415.259V384H432.143V382ZM416.259 383V357.296H414.259V383H416.259ZM415.259 358.296H419.879V356.296H415.259V358.296ZM418.879 357.296V379.094H420.879V357.296H418.879ZM419.879 380.094H432.143V378.094H419.879V380.094ZM441.789 356.456H442.789V355.456H441.789V356.456ZM441.789 360.446V361.446H442.789V360.446H441.789ZM436.749 360.446H435.749V361.446H436.749V360.446ZM436.749 356.456V355.456H435.749V356.456H436.749ZM441.789 364.1H442.789V363.1H441.789V364.1ZM441.789 383V384H442.789V383H441.789ZM437.169 383H436.169V384H437.169V383ZM437.169 367.838H438.169V366.838H437.169V367.838ZM434.439 367.838L433.442 367.76L433.357 368.838H434.439V367.838ZM434.733 364.1V363.1H433.808L433.736 364.022L434.733 364.1ZM440.789 356.456V360.446H442.789V356.456H440.789ZM441.789 359.446H436.749V361.446H441.789V359.446ZM437.749 360.446V356.456H435.749V360.446H437.749ZM436.749 357.456H441.789V355.456H436.749V357.456ZM440.789 364.1V383H442.789V364.1H440.789ZM441.789 382H437.169V384H441.789V382ZM438.169 383V367.838H436.169V383H438.169ZM437.169 366.838H434.439V368.838H437.169V366.838ZM435.436 367.916L435.73 364.178L433.736 364.022L433.442 367.76L435.436 367.916ZM434.733 365.1H441.789V363.1H434.733V365.1Z" fill="black" mask="url(#path-317-outside-3_1546_186)"/>
<mask id="path-319-outside-4_1546_186" maskUnits="userSpaceOnUse" x="392" y="353" width="17" height="36" fill="black">
<rect fill="white" x="392" y="353" width="17" height="36"/>
<path d="M403.164 360.872C402.137 361.693 401.155 362.705 400.216 363.908C399.277 365.111 398.339 366.541 397.4 368.198L395.486 367.142C395.985 366.233 396.535 365.345 397.136 364.48C397.737 363.6 398.346 362.845 398.962 362.214C398.815 362.258 398.669 362.28 398.522 362.28C397.275 362.28 396.315 361.935 395.64 361.246C394.98 360.542 394.65 359.603 394.65 358.43C394.65 357.638 394.826 356.905 395.178 356.23C395.545 355.555 396.036 355.02 396.652 354.624C397.283 354.213 397.972 354.008 398.72 354.008C399.204 354.008 399.666 354.067 400.106 354.184C400.546 354.301 401.015 354.492 401.514 354.756L400.744 356.648C400.055 356.413 399.409 356.296 398.808 356.296C398.265 356.296 397.811 356.487 397.444 356.868C397.092 357.235 396.916 357.682 396.916 358.21C396.916 359.398 397.605 359.992 398.984 359.992C399.409 359.992 399.893 359.926 400.436 359.794C400.979 359.662 401.536 359.457 402.108 359.178L403.164 360.872ZM402.152 374.008C402.445 375.753 402.592 377.044 402.592 377.88C402.592 377.924 402.57 378.122 402.526 378.474C402.834 378.899 403.267 379.112 403.824 379.112C404.22 379.112 404.55 378.995 404.814 378.76C405.093 378.511 405.232 378.195 405.232 377.814C405.232 377.345 405.093 376.237 404.814 374.492L407.08 374.008C407.373 375.753 407.52 377.044 407.52 377.88C407.52 378.569 407.366 379.193 407.058 379.75C406.765 380.293 406.347 380.718 405.804 381.026C405.276 381.334 404.675 381.488 404 381.488C403.472 381.488 402.981 381.4 402.526 381.224C402.086 381.033 401.756 380.784 401.536 380.476C401.301 380.799 400.957 381.048 400.502 381.224C400.062 381.4 399.578 381.488 399.05 381.488C398.331 381.488 397.833 381.334 397.554 381.026C397.569 381.261 397.576 381.671 397.576 382.258V388H395.31V382.28C395.31 380.843 395.237 379.603 395.09 378.562C394.943 377.506 394.65 376.245 394.21 374.778L396.388 374.008L397.378 377.858C397.598 378.694 398.097 379.112 398.874 379.112C399.27 379.112 399.607 378.995 399.886 378.76C400.165 378.511 400.304 378.195 400.304 377.814C400.304 377.315 400.157 376.208 399.864 374.492L402.152 374.008Z"/>
</mask>
<path d="M403.164 360.872C402.137 361.693 401.155 362.705 400.216 363.908C399.277 365.111 398.339 366.541 397.4 368.198L395.486 367.142C395.985 366.233 396.535 365.345 397.136 364.48C397.737 363.6 398.346 362.845 398.962 362.214C398.815 362.258 398.669 362.28 398.522 362.28C397.275 362.28 396.315 361.935 395.64 361.246C394.98 360.542 394.65 359.603 394.65 358.43C394.65 357.638 394.826 356.905 395.178 356.23C395.545 355.555 396.036 355.02 396.652 354.624C397.283 354.213 397.972 354.008 398.72 354.008C399.204 354.008 399.666 354.067 400.106 354.184C400.546 354.301 401.015 354.492 401.514 354.756L400.744 356.648C400.055 356.413 399.409 356.296 398.808 356.296C398.265 356.296 397.811 356.487 397.444 356.868C397.092 357.235 396.916 357.682 396.916 358.21C396.916 359.398 397.605 359.992 398.984 359.992C399.409 359.992 399.893 359.926 400.436 359.794C400.979 359.662 401.536 359.457 402.108 359.178L403.164 360.872ZM402.152 374.008C402.445 375.753 402.592 377.044 402.592 377.88C402.592 377.924 402.57 378.122 402.526 378.474C402.834 378.899 403.267 379.112 403.824 379.112C404.22 379.112 404.55 378.995 404.814 378.76C405.093 378.511 405.232 378.195 405.232 377.814C405.232 377.345 405.093 376.237 404.814 374.492L407.08 374.008C407.373 375.753 407.52 377.044 407.52 377.88C407.52 378.569 407.366 379.193 407.058 379.75C406.765 380.293 406.347 380.718 405.804 381.026C405.276 381.334 404.675 381.488 404 381.488C403.472 381.488 402.981 381.4 402.526 381.224C402.086 381.033 401.756 380.784 401.536 380.476C401.301 380.799 400.957 381.048 400.502 381.224C400.062 381.4 399.578 381.488 399.05 381.488C398.331 381.488 397.833 381.334 397.554 381.026C397.569 381.261 397.576 381.671 397.576 382.258V388H395.31V382.28C395.31 380.843 395.237 379.603 395.09 378.562C394.943 377.506 394.65 376.245 394.21 374.778L396.388 374.008L397.378 377.858C397.598 378.694 398.097 379.112 398.874 379.112C399.27 379.112 399.607 378.995 399.886 378.76C400.165 378.511 400.304 378.195 400.304 377.814C400.304 377.315 400.157 376.208 399.864 374.492L402.152 374.008Z" fill="#3987E2"/>
<path d="M403.164 360.872L403.789 361.653L404.483 361.097L404.013 360.343L403.164 360.872ZM397.4 368.198L396.917 369.074L397.783 369.551L398.27 368.691L397.4 368.198ZM395.486 367.142L394.609 366.661L394.13 367.536L395.003 368.018L395.486 367.142ZM397.136 364.48L397.957 365.051L397.962 365.044L397.136 364.48ZM398.962 362.214L399.677 362.913L402.382 360.144L398.675 361.256L398.962 362.214ZM395.64 361.246L394.91 361.93L394.918 361.938L394.925 361.945L395.64 361.246ZM395.178 356.23L394.299 355.752L394.295 355.76L394.291 355.767L395.178 356.23ZM396.652 354.624L397.193 355.465L397.198 355.462L396.652 354.624ZM401.514 354.756L402.44 355.133L402.781 354.295L401.982 353.872L401.514 354.756ZM400.744 356.648L400.422 357.595L401.315 357.899L401.67 357.025L400.744 356.648ZM397.444 356.868L396.723 356.175L396.723 356.175L397.444 356.868ZM402.108 359.178L402.957 358.649L402.48 357.884L401.67 358.279L402.108 359.178ZM402.539 360.091C401.443 360.968 400.407 362.038 399.428 363.293L401.004 364.523C401.903 363.372 402.832 362.419 403.789 361.653L402.539 360.091ZM399.428 363.293C398.452 364.542 397.487 366.015 396.53 367.705L398.27 368.691C399.19 367.066 400.102 365.679 401.004 364.523L399.428 363.293ZM397.883 367.322L395.969 366.266L395.003 368.018L396.917 369.074L397.883 367.322ZM396.363 367.623C396.844 366.745 397.376 365.888 397.957 365.051L396.315 363.909C395.694 364.803 395.125 365.72 394.609 366.661L396.363 367.623ZM397.962 365.044C398.537 364.203 399.109 363.494 399.677 362.913L398.247 361.515C397.583 362.195 396.938 362.997 396.31 363.916L397.962 365.044ZM398.675 361.256C398.617 361.273 398.567 361.28 398.522 361.28V363.28C398.77 363.28 399.014 363.243 399.249 363.172L398.675 361.256ZM398.522 361.28C397.462 361.28 396.79 360.992 396.355 360.547L394.925 361.945C395.839 362.879 397.089 363.28 398.522 363.28V361.28ZM396.37 360.562C395.919 360.082 395.65 359.407 395.65 358.43H393.65C393.65 359.8 394.041 361.002 394.91 361.93L396.37 360.562ZM395.65 358.43C395.65 357.792 395.79 357.219 396.065 356.693L394.291 355.767C393.862 356.591 393.65 357.484 393.65 358.43H395.65ZM396.057 356.708C396.347 356.173 396.725 355.766 397.193 355.465L396.111 353.783C395.347 354.274 394.742 354.938 394.299 355.752L396.057 356.708ZM397.198 355.462C397.667 355.156 398.167 355.008 398.72 355.008V353.008C397.777 353.008 396.898 353.27 396.106 353.786L397.198 355.462ZM398.72 355.008C399.122 355.008 399.497 355.057 399.848 355.15L400.364 353.218C399.835 353.077 399.286 353.008 398.72 353.008V355.008ZM399.848 355.15C400.2 355.244 400.599 355.403 401.046 355.64L401.982 353.872C401.432 353.581 400.892 353.359 400.364 353.218L399.848 355.15ZM400.588 354.379L399.818 356.271L401.67 357.025L402.44 355.133L400.588 354.379ZM401.066 355.701C400.294 355.439 399.539 355.296 398.808 355.296V357.296C399.279 357.296 399.815 357.388 400.422 357.595L401.066 355.701ZM398.808 355.296C398.001 355.296 397.284 355.592 396.723 356.175L398.165 357.561C398.338 357.381 398.529 357.296 398.808 357.296V355.296ZM396.723 356.175C396.184 356.736 395.916 357.435 395.916 358.21H397.916C397.916 357.929 398 357.733 398.165 357.561L396.723 356.175ZM395.916 358.21C395.916 359 396.152 359.763 396.78 360.304C397.38 360.821 398.174 360.992 398.984 360.992V358.992C398.415 358.992 398.176 358.866 398.086 358.789C398.024 358.736 397.916 358.608 397.916 358.21H395.916ZM398.984 360.992C399.509 360.992 400.075 360.911 400.672 360.766L400.2 358.822C399.712 358.941 399.309 358.992 398.984 358.992V360.992ZM400.672 360.766C401.293 360.615 401.918 360.383 402.546 360.077L401.67 358.279C401.154 358.531 400.664 358.709 400.2 358.822L400.672 360.766ZM401.259 359.707L402.315 361.401L404.013 360.343L402.957 358.649L401.259 359.707ZM402.152 374.008L403.138 373.842L402.965 372.814L401.945 373.03L402.152 374.008ZM402.526 378.474L401.534 378.35L401.485 378.741L401.716 379.061L402.526 378.474ZM404.814 378.76L405.478 379.507L405.481 379.505L404.814 378.76ZM404.814 374.492L404.605 373.514L403.677 373.712L403.827 374.65L404.814 374.492ZM407.08 374.008L408.066 373.842L407.893 372.812L406.871 373.03L407.08 374.008ZM407.058 379.75L406.183 379.266L406.178 379.274L407.058 379.75ZM405.804 381.026L405.31 380.156L405.3 380.162L405.804 381.026ZM402.526 381.224L402.128 382.142L402.147 382.149L402.165 382.157L402.526 381.224ZM401.536 380.476L402.35 379.895L401.543 378.766L400.727 379.888L401.536 380.476ZM400.502 381.224L400.141 380.291L400.131 380.296L400.502 381.224ZM397.554 381.026L398.296 380.355L396.378 378.235L396.556 381.088L397.554 381.026ZM397.576 388V389H398.576V388H397.576ZM395.31 388H394.31V389H395.31V388ZM395.09 378.562L394.1 378.7L394.1 378.701L395.09 378.562ZM394.21 374.778L393.877 373.835L392.978 374.153L393.252 375.065L394.21 374.778ZM396.388 374.008L397.356 373.759L397.084 372.701L396.055 373.065L396.388 374.008ZM397.378 377.858L396.409 378.107L396.411 378.112L397.378 377.858ZM399.886 378.76L400.53 379.525L400.542 379.515L400.553 379.505L399.886 378.76ZM399.864 374.492L399.657 373.514L398.716 373.713L398.878 374.66L399.864 374.492ZM401.166 374.174C401.458 375.911 401.592 377.132 401.592 377.88H403.592C403.592 376.956 403.433 375.596 403.138 373.842L401.166 374.174ZM401.592 377.88C401.592 377.864 401.592 377.851 401.593 377.847C401.593 377.841 401.593 377.838 401.593 377.837C401.593 377.837 401.593 377.841 401.592 377.851C401.59 377.872 401.587 377.905 401.582 377.951C401.571 378.043 401.556 378.176 401.534 378.35L403.518 378.598C403.54 378.42 403.558 378.278 403.569 378.172C403.578 378.098 403.592 377.971 403.592 377.88H401.592ZM401.716 379.061C402.225 379.764 402.969 380.112 403.824 380.112V378.112C403.564 378.112 403.443 378.035 403.336 377.887L401.716 379.061ZM403.824 380.112C404.433 380.112 405.009 379.925 405.478 379.507L404.15 378.013C404.091 378.065 404.007 378.112 403.824 378.112V380.112ZM405.481 379.505C405.976 379.062 406.232 378.473 406.232 377.814H404.232C404.232 377.917 404.209 377.959 404.147 378.015L405.481 379.505ZM406.232 377.814C406.232 377.248 406.076 376.053 405.801 374.334L403.827 374.65C404.109 376.421 404.232 377.441 404.232 377.814H406.232ZM405.023 375.47L407.289 374.986L406.871 373.03L404.605 373.514L405.023 375.47ZM406.094 374.174C406.386 375.911 406.52 377.132 406.52 377.88H408.52C408.52 376.956 408.361 375.596 408.066 373.842L406.094 374.174ZM406.52 377.88C406.52 378.415 406.402 378.869 406.183 379.266L407.933 380.234C408.33 379.516 408.52 378.724 408.52 377.88H406.52ZM406.178 379.274C405.975 379.65 405.692 379.94 405.31 380.156L406.298 381.896C407.001 381.496 407.554 380.935 407.938 380.226L406.178 379.274ZM405.3 380.162C404.941 380.372 404.516 380.488 404 380.488V382.488C404.833 382.488 405.611 382.296 406.308 381.89L405.3 380.162ZM404 380.488C403.585 380.488 403.217 380.419 402.887 380.291L402.165 382.157C402.744 382.381 403.359 382.488 404 382.488V380.488ZM402.924 380.306C402.606 380.169 402.439 380.02 402.35 379.895L400.722 381.057C401.073 381.548 401.566 381.898 402.128 382.142L402.924 380.306ZM400.727 379.888C400.628 380.024 400.456 380.169 400.141 380.291L400.863 382.157C401.457 381.927 401.974 381.574 402.345 381.064L400.727 379.888ZM400.131 380.296C399.821 380.419 399.465 380.488 399.05 380.488V382.488C399.691 382.488 400.303 382.381 400.873 382.152L400.131 380.296ZM399.05 380.488C398.756 380.488 398.557 380.456 398.432 380.417C398.311 380.38 398.287 380.346 398.296 380.355L396.812 381.697C397.381 382.325 398.244 382.488 399.05 382.488V380.488ZM396.556 381.088C396.568 381.288 396.576 381.671 396.576 382.258H398.576C398.576 381.672 398.569 381.233 398.552 380.964L396.556 381.088ZM396.576 382.258V388H398.576V382.258H396.576ZM397.576 387H395.31V389H397.576V387ZM396.31 388V382.28H394.31V388H396.31ZM396.31 382.28C396.31 380.812 396.235 379.523 396.08 378.423L394.1 378.701C394.238 379.683 394.31 380.874 394.31 382.28H396.31ZM396.08 378.424C395.924 377.301 395.617 375.987 395.168 374.491L393.252 375.065C393.683 376.502 393.962 377.711 394.1 378.7L396.08 378.424ZM394.543 375.721L396.721 374.951L396.055 373.065L393.877 373.835L394.543 375.721ZM395.42 374.257L396.41 378.107L398.346 377.609L397.356 373.759L395.42 374.257ZM396.411 378.112C396.556 378.666 396.822 379.185 397.275 379.565C397.737 379.953 398.298 380.112 398.874 380.112V378.112C398.672 378.112 398.595 378.062 398.559 378.032C398.513 377.994 398.42 377.886 398.345 377.604L396.411 378.112ZM398.874 380.112C399.484 380.112 400.055 379.925 400.53 379.525L399.242 377.995C399.16 378.064 399.056 378.112 398.874 378.112V380.112ZM400.553 379.505C401.048 379.062 401.304 378.473 401.304 377.814H399.304C399.304 377.917 399.281 377.959 399.219 378.015L400.553 379.505ZM401.304 377.814C401.304 377.213 401.139 376.016 400.85 374.324L398.878 374.66C399.176 376.4 399.304 377.417 399.304 377.814H401.304ZM400.071 375.47L402.359 374.986L401.945 373.03L399.657 373.514L400.071 375.47Z" fill="black" mask="url(#path-319-outside-4_1546_186)"/>
</g>
<defs>
<filter id="filter0_d_1546_186" x="510.6" y="-2.4" width="62.8" height="62.8" filterUnits="userSpaceOnUse" color-interpolation-filters="sRGB">
<feFlood flood-opacity="0" result="BackgroundImageFix"/>
<feColorMatrix in="SourceAlpha" type="matrix" values="0 0 0 0 0 0 0 0 0 0 0 0 0 0 0 0 0 0 127 0" result="hardAlpha"/>
<feMorphology radius="13" operator="dilate" in="SourceAlpha" result="effect1_dropShadow_1546_186"/>
<feOffset/>
<feGaussianBlur stdDeviation="6.2"/>
<feComposite in2="hardAlpha" operator="out"/>
<feColorMatrix type="matrix" values="0 0 0 0 0 0 0 0 0 0.64 0 0 0 0 1 0 0 0 0.72 0"/>
<feBlend mode="normal" in2="BackgroundImageFix" result="effect1_dropShadow_1546_186"/>
<feBlend mode="normal" in="SourceGraphic" in2="effect1_dropShadow_1546_186" result="shape"/>
</filter>
<filter id="filter1_d_1546_186" x="225.6" y="113.6" width="62.8" height="62.8" filterUnits="userSpaceOnUse" color-interpolation-filters="sRGB">
<feFlood flood-opacity="0" result="BackgroundImageFix"/>
<feColorMatrix in="SourceAlpha" type="matrix" values="0 0 0 0 0 0 0 0 0 0 0 0 0 0 0 0 0 0 127 0" result="hardAlpha"/>
<feMorphology radius="13" operator="dilate" in="SourceAlpha" result="effect1_dropShadow_1546_186"/>
<feOffset/>
<feGaussianBlur stdDeviation="6.2"/>
<feComposite in2="hardAlpha" operator="out"/>
<feColorMatrix type="matrix" values="0 0 0 0 0 0 0 0 0 0.64 0 0 0 0 1 0 0 0 0.72 0"/>
<feBlend mode="normal" in2="BackgroundImageFix" result="effect1_dropShadow_1546_186"/>
<feBlend mode="normal" in="SourceGraphic" in2="effect1_dropShadow_1546_186" result="shape"/>
</filter>
<filter id="filter2_d_1546_186" x="-2.4" y="171.6" width="62.8" height="62.8" filterUnits="userSpaceOnUse" color-interpolation-filters="sRGB">
<feFlood flood-opacity="0" result="BackgroundImageFix"/>
<feColorMatrix in="SourceAlpha" type="matrix" values="0 0 0 0 0 0 0 0 0 0 0 0 0 0 0 0 0 0 127 0" result="hardAlpha"/>
<feMorphology radius="13" operator="dilate" in="SourceAlpha" result="effect1_dropShadow_1546_186"/>
<feOffset/>
<feGaussianBlur stdDeviation="6.2"/>
<feComposite in2="hardAlpha" operator="out"/>
<feColorMatrix type="matrix" values="0 0 0 0 0 0 0 0 0 0.64 0 0 0 0 1 0 0 0 0.72 0"/>
<feBlend mode="normal" in2="BackgroundImageFix" result="effect1_dropShadow_1546_186"/>
<feBlend mode="normal" in="SourceGraphic" in2="effect1_dropShadow_1546_186" result="shape"/>
</filter>
<filter id="filter3_d_1546_186" x="178.792" y="339.698" width="76.1969" height="62.5016" filterUnits="userSpaceOnUse" color-interpolation-filters="sRGB">
<feFlood flood-opacity="0" result="BackgroundImageFix"/>
<feColorMatrix in="SourceAlpha" type="matrix" values="0 0 0 0 0 0 0 0 0 0 0 0 0 0 0 0 0 0 127 0" result="hardAlpha"/>
<feOffset/>
<feGaussianBlur stdDeviation="7.1"/>
<feComposite in2="hardAlpha" operator="out"/>
<feColorMatrix type="matrix" values="0 0 0 0 1 0 0 0 0 0.440192 0 0 0 0 0.440192 0 0 0 0.58 0"/>
<feBlend mode="normal" in2="BackgroundImageFix" result="effect1_dropShadow_1546_186"/>
<feBlend mode="normal" in="SourceGraphic" in2="effect1_dropShadow_1546_186" result="shape"/>
</filter>
<filter id="filter4_d_1546_186" x="377.611" y="337.408" width="80.7781" height="67.1922" filterUnits="userSpaceOnUse" color-interpolation-filters="sRGB">
<feFlood flood-opacity="0" result="BackgroundImageFix"/>
<feColorMatrix in="SourceAlpha" type="matrix" values="0 0 0 0 0 0 0 0 0 0 0 0 0 0 0 0 0 0 127 0" result="hardAlpha"/>
<feOffset/>
<feGaussianBlur stdDeviation="8.3"/>
<feComposite in2="hardAlpha" operator="out"/>
<feColorMatrix type="matrix" values="0 0 0 0 0 0 0 0 0 0.46 0 0 0 0 1 0 0 0 0.58 0"/>
<feBlend mode="normal" in2="BackgroundImageFix" result="effect1_dropShadow_1546_186"/>
<feBlend mode="normal" in="SourceGraphic" in2="effect1_dropShadow_1546_186" result="shape"/>
</filter>
<clipPath id="clip0_1546_186">
<rect width="57" height="58" fill="white" transform="translate(513)"/>
</clipPath>
<clipPath id="clip1_1546_186">
<rect width="57" height="58" fill="white" transform="translate(228 116)"/>
</clipPath>
<clipPath id="clip2_1546_186">
<rect width="57" height="58" fill="white" transform="translate(0 174)"/>
</clipPath>
</defs>
</svg>
