<svg width="497" height="463" viewBox="0 0 497 463" fill="none" xmlns="http://www.w3.org/2000/svg">
<rect x="37" y="250" width="93" height="46" stroke="#9B51E0" stroke-width="4"/>
<path d="M66.5658 274.732C66.5658 275.407 66.6831 275.891 66.9178 276.184C67.1524 276.477 67.4971 276.624 67.9518 276.624H68.5678C68.6411 276.624 68.6924 276.705 68.7218 276.866C68.7658 277.027 68.7878 277.357 68.7878 277.856C68.7878 278.325 68.7658 278.633 68.7218 278.78C68.6924 278.927 68.6411 279 68.5678 279H67.9518C67.1451 279 66.4851 278.853 65.9718 278.56C65.4731 278.252 65.1284 277.761 64.9378 277.086C64.6298 277.379 64.2118 277.599 63.6838 277.746C63.1558 277.893 62.5984 277.966 62.0118 277.966C60.7211 277.966 59.7384 277.621 59.0638 276.932C58.3891 276.228 58.0518 275.194 58.0518 273.83C58.0518 273.009 58.2351 272.253 58.6018 271.564C58.9684 270.86 59.4818 270.303 60.1418 269.892C60.8164 269.467 61.5864 269.254 62.4518 269.254H64.2998V267.78H66.5658V274.732ZM60.3178 273.808C60.3178 274.996 60.9191 275.59 62.1218 275.59C62.8111 275.59 63.3464 275.473 63.7278 275.238C64.1091 274.989 64.2998 274.651 64.2998 274.226V271.542H62.4518C61.7771 271.542 61.2491 271.74 60.8678 272.136C60.5011 272.517 60.3178 273.075 60.3178 273.808ZM74.1719 275.304C74.1719 276.463 73.8272 277.372 73.1379 278.032C72.4486 278.677 71.5246 279 70.3659 279H68.1219C67.9752 279 67.9019 278.619 67.9019 277.856C67.9019 277.035 67.9752 276.624 68.1219 276.624H70.3659C70.8206 276.624 71.1872 276.507 71.4659 276.272C71.7446 276.023 71.8839 275.678 71.8839 275.238V271.696H74.1719V275.304ZM70.4539 269.188V267.032H73.0939V269.188H70.4539ZM77.2218 264.788H79.4878V279H77.2218V264.788ZM91.1135 278.208C91.1135 279.469 90.8788 280.555 90.4095 281.464C89.9401 282.388 89.2728 283.092 88.4075 283.576C87.5568 284.075 86.5521 284.324 85.3935 284.324H82.5555L82.3575 281.948H85.4595C86.5008 281.948 87.3221 281.684 87.9235 281.156C88.5248 280.628 88.8328 279.909 88.8475 279H86.9555C85.4008 279 84.2861 278.685 83.6115 278.054C82.9368 277.409 82.5995 276.404 82.5995 275.04C82.5995 274.101 82.7755 273.273 83.1275 272.554C83.4941 271.835 84.0001 271.278 84.6455 270.882C85.3055 270.471 86.0608 270.266 86.9115 270.266C88.2168 270.266 89.2435 270.706 89.9915 271.586C90.7395 272.451 91.1135 273.639 91.1135 275.15V278.208ZM84.8875 274.93C84.8875 275.546 85.0488 275.986 85.3715 276.25C85.6941 276.499 86.2588 276.624 87.0655 276.624H88.8475V275.194C88.8475 274.329 88.6715 273.676 88.3195 273.236C87.9675 272.781 87.4615 272.554 86.8015 272.554C86.2001 272.554 85.7308 272.774 85.3935 273.214C85.0561 273.639 84.8875 274.211 84.8875 274.93ZM92.3822 281.948C93.5116 281.948 94.3916 281.625 95.0222 280.98C95.6676 280.349 95.9902 279.455 95.9902 278.296V271.696H98.2782V275.084C98.2782 276.111 98.8356 276.624 99.9502 276.624H100.258C100.405 276.624 100.478 277.035 100.478 277.856C100.478 278.619 100.405 279 100.258 279H99.9502C99.5836 279 99.2462 278.949 98.9382 278.846C98.6449 278.729 98.4249 278.575 98.2782 278.384V278.516C98.2489 279.66 97.9849 280.672 97.4862 281.552C97.0022 282.432 96.3202 283.114 95.4402 283.598C94.5749 284.082 93.5629 284.324 92.4042 284.324H91.7662L91.5682 281.948H92.3822ZM105.159 276.624C105.614 276.624 105.98 276.507 106.259 276.272C106.538 276.023 106.677 275.678 106.677 275.238V271.696H108.965V275.304C108.965 276.463 108.62 277.372 107.931 278.032C107.256 278.677 106.332 279 105.159 279H99.8131C99.6664 279 99.5931 278.619 99.5931 277.856C99.5931 277.035 99.6664 276.624 99.8131 276.624H105.159ZM106.017 281.574V283.686H100.033V281.574H106.017ZM101.925 286.92V284.874H104.125V286.92H101.925Z" fill="white"/>
<rect x="202" y="250" width="93" height="46" fill="#00FFD5" fill-opacity="0.18"/>
<rect x="202" y="250" width="93" height="46" stroke="#9B51E0" stroke-width="4"/>
<path d="M241.935 284.324C240.058 284.324 238.613 283.781 237.601 282.696C236.589 281.625 236.083 280.115 236.083 278.164V273.896H238.349V278.12C238.349 280.672 239.552 281.948 241.957 281.948H242.859C244.032 281.948 244.956 281.625 245.631 280.98C246.306 280.335 246.643 279.447 246.643 278.318V264.788H248.931V275.26C248.931 275.685 249.056 276.023 249.305 276.272C249.569 276.507 249.943 276.624 250.427 276.624H250.933C251.08 276.624 251.153 277.035 251.153 277.856C251.153 278.619 251.08 279 250.933 279H250.515C250.178 279 249.862 278.956 249.569 278.868C249.29 278.78 249.078 278.67 248.931 278.538V278.648C248.902 279.748 248.63 280.731 248.117 281.596C247.604 282.461 246.892 283.129 245.983 283.598C245.074 284.082 244.032 284.324 242.859 284.324H241.935ZM259.711 260.96L260.129 262.39L252.451 265.558V263.996L259.711 260.96ZM256.499 276.624C257.056 276.624 257.489 276.529 257.797 276.338C258.105 276.133 258.259 275.861 258.259 275.524C258.259 275.245 258.193 274.989 258.061 274.754C257.929 274.519 257.716 274.248 257.423 273.94L252.451 269.034V267.12L260.591 263.93L261.273 266.108L255.179 268.44L259.139 272.444C260.063 273.353 260.525 274.402 260.525 275.59C260.525 276.602 260.173 277.423 259.469 278.054C258.765 278.685 257.775 279 256.499 279H250.493C250.346 279 250.273 278.619 250.273 277.856C250.273 277.035 250.346 276.624 250.493 276.624H256.499Z" fill="white"/>
<rect x="202" y="368" width="93" height="46" stroke="#9B51E0" stroke-width="4"/>
<path d="M222.405 402.324C220.527 402.324 219.083 401.781 218.071 400.696C217.059 399.625 216.553 398.115 216.553 396.164V391.896H218.819V396.12C218.819 398.672 220.021 399.948 222.427 399.948H223.329C224.502 399.948 225.426 399.625 226.101 398.98C226.775 398.335 227.113 397.447 227.113 396.318V389.696H229.401V396.12C229.401 397.411 229.144 398.518 228.631 399.442C228.117 400.381 227.399 401.092 226.475 401.576C225.565 402.075 224.517 402.324 223.329 402.324H222.405ZM221.217 389.168V387.012H223.857V389.168H221.217ZM236.713 394.624C236.786 394.624 236.838 394.705 236.867 394.866C236.911 395.027 236.933 395.357 236.933 395.856C236.933 396.325 236.911 396.633 236.867 396.78C236.838 396.927 236.786 397 236.713 397H236.053C234.88 397 233.992 396.655 233.391 395.966C232.79 395.277 232.489 394.301 232.489 393.04V382.788H234.755V392.886C234.755 393.487 234.865 393.927 235.085 394.206C235.32 394.485 235.686 394.624 236.185 394.624H236.713ZM238.921 394.624C239.39 394.624 239.764 394.507 240.043 394.272C240.336 394.023 240.483 393.678 240.483 393.238V389.696H242.771V393.15C242.771 394.133 243.277 394.624 244.289 394.624H245.037C245.183 394.624 245.257 395.027 245.257 395.834C245.257 396.611 245.183 397 245.037 397H244.201C242.895 397 242.03 396.604 241.605 395.812C241.091 396.604 240.197 397 238.921 397H236.281C236.134 397 236.061 396.619 236.061 395.856C236.061 395.035 236.134 394.624 236.281 394.624H238.921ZM243.475 385.076V387.188H237.491V385.076H243.475ZM246.344 394.624C246.946 394.624 247.4 394.492 247.708 394.228C248.016 393.949 248.17 393.561 248.17 393.062V389.696H250.458V393.062C250.458 394.103 251.052 394.624 252.24 394.624C252.842 394.624 253.296 394.492 253.604 394.228C253.912 393.949 254.066 393.561 254.066 393.062V389.696H256.354V393.062C256.354 393.561 256.494 393.949 256.772 394.228C257.051 394.492 257.469 394.624 258.026 394.624C258.598 394.624 259.024 394.492 259.302 394.228C259.596 393.949 259.742 393.561 259.742 393.062V389.696H262.008V393.062C262.008 394.103 262.514 394.624 263.526 394.624H264.296C264.443 394.624 264.516 395.035 264.516 395.856C264.516 396.619 264.443 397 264.296 397H263.526C262.808 397 262.221 396.905 261.766 396.714C261.326 396.523 260.996 396.223 260.776 395.812C260.498 396.223 260.131 396.523 259.676 396.714C259.236 396.905 258.686 397 258.026 397C256.53 397 255.562 396.575 255.122 395.724C254.55 396.575 253.59 397 252.24 397C251.419 397 250.766 396.897 250.282 396.692C249.798 396.472 249.446 396.149 249.226 395.724C248.654 396.575 247.694 397 246.344 397H244.606C244.46 397 244.386 396.619 244.386 395.856C244.386 395.035 244.46 394.624 244.606 394.624H246.344ZM264.572 394.624C265.027 394.624 265.393 394.507 265.672 394.272C265.951 394.023 266.09 393.678 266.09 393.238V382.788H268.378V393.128C268.378 393.627 268.51 394.001 268.774 394.25C269.038 394.499 269.405 394.624 269.874 394.624H270.468C270.615 394.624 270.688 395.027 270.688 395.834C270.688 396.611 270.615 397 270.468 397H269.764C269.133 397 268.598 396.897 268.158 396.692C267.733 396.487 267.425 396.186 267.234 395.79C266.706 396.597 265.819 397 264.572 397H263.846C263.699 397 263.626 396.619 263.626 395.856C263.626 395.035 263.699 394.624 263.846 394.624H264.572ZM279.241 378.96L279.659 380.39L271.981 383.558V381.996L279.241 378.96ZM276.029 394.624C276.586 394.624 277.019 394.529 277.327 394.338C277.635 394.133 277.789 393.861 277.789 393.524C277.789 393.245 277.723 392.989 277.591 392.754C277.459 392.519 277.246 392.248 276.953 391.94L271.981 387.034V385.12L280.121 381.93L280.803 384.108L274.709 386.44L278.669 390.444C279.593 391.353 280.055 392.402 280.055 393.59C280.055 394.602 279.703 395.423 278.999 396.054C278.295 396.685 277.305 397 276.029 397H270.023C269.876 397 269.803 396.619 269.803 395.856C269.803 395.035 269.876 394.624 270.023 394.624H276.029Z" fill="white"/>
<rect x="202" y="132" width="93" height="46" stroke="#9B51E0" stroke-width="4"/>
<path d="M239.551 159.35C238.729 158.719 238.319 157.766 238.319 156.49C238.319 155.654 238.502 154.899 238.869 154.224C239.235 153.549 239.749 153.021 240.409 152.64C241.083 152.244 241.853 152.046 242.719 152.046C243.276 152.046 243.811 152.119 244.325 152.266C244.853 152.413 245.403 152.662 245.975 153.014L245.205 154.906C244.354 154.525 243.525 154.334 242.719 154.334C242.103 154.334 241.589 154.532 241.179 154.928C240.783 155.309 240.585 155.793 240.585 156.38C240.585 157.011 240.768 157.524 241.135 157.92C241.501 158.301 242.007 158.492 242.653 158.492H246.547L246.349 160.868H242.235C241.399 160.868 240.709 161.132 240.167 161.66C239.639 162.203 239.375 162.892 239.375 163.728C239.375 164.579 239.653 165.209 240.211 165.62C240.783 166.031 241.685 166.236 242.917 166.236H247.009L246.811 168.612H242.807C240.856 168.612 239.419 168.216 238.495 167.424C237.571 166.632 237.109 165.429 237.109 163.816C237.109 162.863 237.329 161.983 237.769 161.176C238.209 160.369 238.803 159.761 239.551 159.35ZM241.223 149.472V147.316H243.863V149.472H241.223ZM254.304 158.624C254.377 158.624 254.429 158.705 254.458 158.866C254.502 159.027 254.524 159.357 254.524 159.856C254.524 160.325 254.502 160.633 254.458 160.78C254.429 160.927 254.377 161 254.304 161H253.644C252.471 161 251.583 160.655 250.982 159.966C250.381 159.277 250.08 158.301 250.08 157.04V146.788H252.346V156.886C252.346 157.487 252.456 157.927 252.676 158.206C252.911 158.485 253.277 158.624 253.776 158.624H254.304ZM259.922 157.304C259.922 158.463 259.577 159.372 258.888 160.032C258.198 160.677 257.274 161 256.116 161H253.872C253.725 161 253.652 160.619 253.652 159.856C253.652 159.035 253.725 158.624 253.872 158.624H256.116C256.57 158.624 256.937 158.507 257.216 158.272C257.494 158.023 257.634 157.678 257.634 157.238V153.696H259.922V157.304ZM254.312 165.73V163.574H256.952V165.73H254.312Z" fill="white"/>
<rect x="367" y="250" width="93" height="46" stroke="#9B51E0" stroke-width="4"/>
<path d="M401.886 284.324C400.008 284.324 398.564 283.781 397.552 282.696C396.54 281.625 396.034 280.115 396.034 278.164V273.896H398.3V278.12C398.3 280.672 399.502 281.948 401.908 281.948H402.81C403.983 281.948 404.907 281.625 405.582 280.98C406.256 280.335 406.594 279.447 406.594 278.318V264.788H408.882V275.26C408.882 275.685 409.006 276.023 409.256 276.272C409.52 276.507 409.894 276.624 410.378 276.624H410.884C411.03 276.624 411.104 277.035 411.104 277.856C411.104 278.619 411.03 279 410.884 279H410.466C410.128 279 409.813 278.956 409.52 278.868C409.241 278.78 409.028 278.67 408.882 278.538V278.648C408.852 279.748 408.581 280.731 408.068 281.596C407.554 282.461 406.843 283.129 405.934 283.598C405.024 284.082 403.983 284.324 402.81 284.324H401.886ZM413.084 276.624C413.553 276.624 413.927 276.507 414.206 276.272C414.499 276.023 414.646 275.678 414.646 275.238V271.696H416.934V275.15C416.934 276.133 417.44 276.624 418.452 276.624H419.2C419.346 276.624 419.42 277.027 419.42 277.834C419.42 278.611 419.346 279 419.2 279H418.364C417.058 279 416.193 278.604 415.768 277.812C415.254 278.604 414.36 279 413.084 279H410.444C410.297 279 410.224 278.619 410.224 277.856C410.224 277.035 410.297 276.624 410.444 276.624H413.084ZM410.708 283.73V281.574H413.348V283.73H410.708ZM419.495 276.624C419.95 276.624 420.317 276.507 420.595 276.272C420.874 276.023 421.013 275.678 421.013 275.238V264.788H423.301V275.128C423.301 275.627 423.433 276.001 423.697 276.25C423.961 276.499 424.328 276.624 424.797 276.624H425.391C425.538 276.624 425.611 277.027 425.611 277.834C425.611 278.611 425.538 279 425.391 279H424.687C424.057 279 423.521 278.897 423.081 278.692C422.656 278.487 422.348 278.186 422.157 277.79C421.629 278.597 420.742 279 419.495 279H418.769C418.623 279 418.549 278.619 418.549 277.856C418.549 277.035 418.623 276.624 418.769 276.624H419.495ZM430.996 275.304C430.996 276.463 430.652 277.372 429.962 278.032C429.273 278.677 428.349 279 427.19 279H424.946C424.8 279 424.726 278.619 424.726 277.856C424.726 277.035 424.8 276.624 424.946 276.624H427.19C427.645 276.624 428.012 276.507 428.29 276.272C428.569 276.023 428.708 275.678 428.708 275.238V271.696H430.996V275.304ZM425.386 283.73V281.574H428.026V283.73H425.386Z" fill="white"/>
<line x1="132" y1="273" x2="201" y2="273" stroke="#9B51E0" stroke-width="4"/>
<line x1="296" y1="273" x2="365" y2="273" stroke="#9B51E0" stroke-width="4"/>
<line x1="249" y1="249" x2="249" y2="180" stroke="#9B51E0" stroke-width="4"/>
<line x1="249" y1="367" x2="249" y2="298" stroke="#9B51E0" stroke-width="4"/>
<path d="M122.911 56.894C122.911 58.3753 123.102 59.6073 123.483 60.59C123.865 61.558 124.554 62.526 125.551 63.494L124.209 64.77C122.933 63.6847 122.017 62.526 121.459 61.294C120.917 60.062 120.645 58.5953 120.645 56.894C120.645 55.1927 120.917 53.726 121.459 52.494C122.017 51.262 122.933 50.1033 124.209 49.018L125.551 50.316C124.554 51.284 123.865 52.252 123.483 53.22C123.102 54.188 122.911 55.4127 122.911 56.894ZM143.856 61.624C144.003 61.624 144.076 62.0347 144.076 62.856C144.076 63.6187 144.003 64 143.856 64H141.7C141.862 64.1907 141.942 64.484 141.942 64.88C141.942 65.7453 141.693 66.5153 141.194 67.19C140.696 67.8647 139.992 68.3853 139.082 68.752C138.173 69.1333 137.124 69.324 135.936 69.324H134.264C132.387 69.324 130.942 68.7813 129.93 67.696C128.918 66.6253 128.412 65.1147 128.412 63.164V58.896H130.678V63.12C130.678 65.672 131.881 66.948 134.286 66.948H135.936C137.183 66.948 138.114 66.772 138.73 66.42C139.346 66.068 139.654 65.562 139.654 64.902C139.654 64.55 139.559 64.2933 139.368 64.132C139.192 63.9853 138.906 63.912 138.51 63.912H134.55L134.77 61.624H143.856ZM152.642 45.96L153.06 47.39L145.382 50.558V48.996L152.642 45.96ZM149.43 61.624C149.987 61.624 150.42 61.5287 150.728 61.338C151.036 61.1327 151.19 60.8613 151.19 60.524C151.19 60.2453 151.124 59.9887 150.992 59.754C150.86 59.5193 150.647 59.248 150.354 58.94L145.382 54.034V52.12L153.522 48.93L154.204 51.108L148.11 53.44L152.048 57.422C153.397 58.7567 154.387 59.71 155.018 60.282C155.663 60.8393 156.177 61.206 156.558 61.382C156.939 61.5433 157.379 61.624 157.878 61.624C158.025 61.624 158.098 62.0347 158.098 62.856C158.098 63.6187 158.025 64 157.878 64C157.189 64 156.624 63.9487 156.184 63.846C155.759 63.7287 155.319 63.5087 154.864 63.186C154.424 62.8633 153.859 62.3573 153.17 61.668C153.009 62.3867 152.598 62.9587 151.938 63.384C151.278 63.7947 150.442 64 149.43 64H143.424C143.277 64 143.204 63.6187 143.204 62.856C143.204 62.0347 143.277 61.624 143.424 61.624H149.43ZM160.083 61.624C160.552 61.624 160.926 61.5067 161.205 61.272C161.498 61.0227 161.645 60.678 161.645 60.238V56.696H163.933V60.15C163.933 61.1327 164.439 61.624 165.451 61.624H166.199C166.346 61.624 166.419 62.0273 166.419 62.834C166.419 63.6113 166.346 64 166.199 64H165.363C164.058 64 163.192 63.604 162.767 62.812C162.254 63.604 161.359 64 160.083 64H157.443C157.296 64 157.223 63.6187 157.223 62.856C157.223 62.0347 157.296 61.624 157.443 61.624H160.083ZM164.637 52.076V54.188H158.653V52.076H164.637ZM167.506 61.624C168.108 61.624 168.562 61.492 168.87 61.228C169.178 60.9493 169.332 60.5607 169.332 60.062V56.696H171.62V60.062C171.62 61.1033 172.214 61.624 173.402 61.624C174.004 61.624 174.458 61.492 174.766 61.228C175.074 60.9493 175.228 60.5607 175.228 60.062V56.696H177.516V60.062C177.516 60.5607 177.656 60.9493 177.934 61.228C178.213 61.492 178.631 61.624 179.188 61.624C179.76 61.624 180.186 61.492 180.464 61.228C180.758 60.9493 180.904 60.5607 180.904 60.062V56.696H183.17V60.062C183.17 61.1033 183.676 61.624 184.688 61.624H185.458C185.605 61.624 185.678 62.0347 185.678 62.856C185.678 63.6187 185.605 64 185.458 64H184.688C183.97 64 183.383 63.9047 182.928 63.714C182.488 63.5233 182.158 63.2227 181.938 62.812C181.66 63.2227 181.293 63.5233 180.838 63.714C180.398 63.9047 179.848 64 179.188 64C177.692 64 176.724 63.5747 176.284 62.724C175.712 63.5747 174.752 64 173.402 64C172.581 64 171.928 63.8973 171.444 63.692C170.96 63.472 170.608 63.1493 170.388 62.724C169.816 63.5747 168.856 64 167.506 64H165.768C165.622 64 165.548 63.6187 165.548 62.856C165.548 62.0347 165.622 61.624 165.768 61.624H167.506ZM187.648 61.624C188.117 61.624 188.491 61.5067 188.77 61.272C189.063 61.0227 189.21 60.678 189.21 60.238V56.696H191.498V60.15C191.498 61.1327 192.004 61.624 193.016 61.624H193.764C193.911 61.624 193.984 62.0273 193.984 62.834C193.984 63.6113 193.911 64 193.764 64H192.928C191.623 64 190.757 63.604 190.332 62.812C189.819 63.604 188.924 64 187.648 64H185.008C184.861 64 184.788 63.6187 184.788 62.856C184.788 62.0347 184.861 61.624 185.008 61.624H187.648ZM185.272 68.73V66.574H187.912V68.73H185.272ZM193.862 61.624C194.346 61.624 194.69 61.5287 194.896 61.338C195.116 61.1327 195.226 60.8173 195.226 60.392V59.622C195.226 58.214 195.614 57.0993 196.392 56.278C197.184 55.4567 198.254 55.046 199.604 55.046C200.953 55.046 201.987 55.442 202.706 56.234C203.424 57.0113 203.784 58.1333 203.784 59.6V60.106C203.784 60.6487 203.894 61.0373 204.114 61.272C204.348 61.5067 204.693 61.624 205.148 61.624H205.698C205.844 61.624 205.918 62.0347 205.918 62.856C205.918 63.6187 205.844 64 205.698 64H205.148C203.872 64 203.036 63.5893 202.64 62.768C202.332 63.1787 201.899 63.4867 201.342 63.692C200.784 63.8973 200.176 64 199.516 64C198.768 64 198.137 63.8973 197.624 63.692C197.11 63.472 196.736 63.1713 196.502 62.79C196.238 63.2153 195.893 63.5233 195.468 63.714C195.057 63.9047 194.522 64 193.862 64H193.334C193.187 64 193.114 63.6187 193.114 62.856C193.114 62.0347 193.187 61.624 193.334 61.624H193.862ZM201.518 59.6C201.518 58.8373 201.349 58.2727 201.012 57.906C200.689 57.5247 200.19 57.334 199.516 57.334C198.841 57.334 198.335 57.5247 197.998 57.906C197.675 58.2727 197.514 58.8447 197.514 59.622C197.514 60.2673 197.682 60.766 198.02 61.118C198.357 61.4553 198.856 61.624 199.516 61.624C200.19 61.624 200.689 61.4627 201.012 61.14C201.349 60.8027 201.518 60.2893 201.518 59.6ZM208.129 61.624C207.792 61.316 207.521 60.9273 207.315 60.458C207.11 59.9887 207.007 59.512 207.007 59.028C207.007 58.2067 207.198 57.4733 207.579 56.828C207.961 56.168 208.481 55.6547 209.141 55.288C209.801 54.9067 210.542 54.716 211.363 54.716C212.141 54.716 212.837 54.8993 213.453 55.266C214.084 55.6327 214.575 56.1313 214.927 56.762C215.294 57.378 215.477 58.0673 215.477 58.83C215.477 59.3873 215.345 59.9153 215.081 60.414C214.832 60.9127 214.487 61.316 214.047 61.624H216.731C217.274 61.624 217.685 61.5287 217.963 61.338C218.242 61.1473 218.381 60.876 218.381 60.524C218.381 60.26 218.315 60.0107 218.183 59.776C218.066 59.5267 217.824 59.2187 217.457 58.852L213.101 54.254L214.729 52.56L219.195 57.356C219.709 57.8987 220.083 58.434 220.317 58.962C220.552 59.49 220.669 60.0327 220.669 60.59C220.669 61.6167 220.317 62.4453 219.613 63.076C218.909 63.692 217.949 64 216.731 64H214.267C213.314 64 212.625 63.978 212.199 63.934C211.789 63.8753 211.451 63.7653 211.187 63.604C210.923 63.7507 210.549 63.8533 210.065 63.912C209.596 63.9707 208.921 64 208.041 64H205.247C205.101 64 205.027 63.6187 205.027 62.856C205.027 62.0347 205.101 61.624 205.247 61.624H208.129ZM211.143 61.602C211.833 61.3087 212.361 60.942 212.727 60.502C213.094 60.062 213.277 59.5707 213.277 59.028C213.277 58.4267 213.094 57.9427 212.727 57.576C212.361 57.1947 211.869 57.004 211.253 57.004C210.637 57.004 210.139 57.1947 209.757 57.576C209.391 57.9427 209.207 58.4267 209.207 59.028C209.207 60.1427 209.853 61.0007 211.143 61.602ZM226.156 56.894C226.156 55.4127 225.965 54.188 225.584 53.22C225.203 52.252 224.513 51.284 223.516 50.316L224.858 49.018C226.134 50.1033 227.043 51.262 227.586 52.494C228.143 53.726 228.422 55.1927 228.422 56.894C228.422 58.5953 228.143 60.062 227.586 61.294C227.043 62.526 226.134 63.6847 224.858 64.77L223.516 63.494C224.513 62.526 225.203 61.558 225.584 60.59C225.965 59.6073 226.156 58.3753 226.156 56.894ZM247.527 61.624C247.997 61.624 248.371 61.5067 248.649 61.272C248.943 61.0227 249.089 60.6853 249.089 60.26V56.696H251.377V60.15C251.377 61.1327 251.883 61.624 252.895 61.624H253.643C253.79 61.624 253.863 62.0347 253.863 62.856C253.863 63.6187 253.79 64 253.643 64H252.807C251.502 64 250.637 63.604 250.211 62.812C249.698 63.604 248.803 64 247.527 64H239.981C238.676 64 237.686 63.6627 237.011 62.988C236.337 62.2987 235.999 61.3307 235.999 60.084V56.696H238.265V59.776C238.265 60.392 238.412 60.854 238.705 61.162C238.999 61.47 239.461 61.624 240.091 61.624H247.527ZM242.357 68.73V66.574H244.997V68.73H242.357ZM254.94 61.624C255.541 61.624 255.996 61.492 256.304 61.228C256.612 60.9493 256.766 60.5607 256.766 60.062V56.696H259.054V60.062C259.054 61.1033 259.648 61.624 260.836 61.624C261.437 61.624 261.892 61.492 262.2 61.228C262.508 60.9493 262.662 60.5607 262.662 60.062V56.696H264.95V60.062C264.95 60.5607 265.089 60.9493 265.368 61.228C265.647 61.492 266.065 61.624 266.622 61.624C267.194 61.624 267.619 61.492 267.898 61.228C268.191 60.9493 268.338 60.5607 268.338 60.062V56.696H270.604V60.04C270.604 61.2867 270.252 62.262 269.548 62.966C268.844 63.6553 267.869 64 266.622 64C265.126 64 264.158 63.5747 263.718 62.724C263.146 63.5747 262.185 64 260.836 64C260.015 64 259.362 63.8973 258.878 63.692C258.394 63.472 258.042 63.1493 257.822 62.724C257.25 63.5747 256.289 64 254.94 64H253.202C253.055 64 252.982 63.6187 252.982 62.856C252.982 62.0347 253.055 61.624 253.202 61.624H254.94ZM277.913 61.624C277.986 61.624 278.037 61.7047 278.067 61.866C278.111 62.0273 278.133 62.3573 278.133 62.856C278.133 63.3253 278.111 63.6333 278.067 63.78C278.037 63.9267 277.986 64 277.913 64H277.253C276.079 64 275.192 63.6553 274.591 62.966C273.989 62.2767 273.689 61.3013 273.689 60.04V49.788H275.955V59.886C275.955 60.4873 276.065 60.9273 276.285 61.206C276.519 61.4847 276.886 61.624 277.385 61.624H277.913ZM280.12 61.624C280.59 61.624 280.964 61.5067 281.242 61.272C281.536 61.0227 281.682 60.678 281.682 60.238V56.696H283.97V60.15C283.97 61.1327 284.476 61.624 285.488 61.624H286.236C286.383 61.624 286.456 62.0273 286.456 62.834C286.456 63.6113 286.383 64 286.236 64H285.4C284.095 64 283.23 63.604 282.804 62.812C282.291 63.604 281.396 64 280.12 64H277.48C277.334 64 277.26 63.6187 277.26 62.856C277.26 62.0347 277.334 61.624 277.48 61.624H280.12ZM280.362 54.188V52.032H283.002V54.188H280.362ZM291.856 60.304C291.856 61.4627 291.511 62.372 290.822 63.032C290.133 63.6773 289.209 64 288.05 64H285.806C285.659 64 285.586 63.6187 285.586 62.856C285.586 62.0347 285.659 61.624 285.806 61.624H288.05C288.505 61.624 288.871 61.5067 289.15 61.272C289.429 61.0227 289.568 60.678 289.568 60.238V56.696H291.856V60.304ZM292.45 52.076V54.188H286.466V52.076H292.45ZM307.916 59.732C307.916 60.4067 308.033 60.8907 308.268 61.184C308.503 61.4773 308.847 61.624 309.302 61.624H309.918C309.991 61.624 310.043 61.7047 310.072 61.866C310.116 62.0273 310.138 62.3573 310.138 62.856C310.138 63.3253 310.116 63.6333 310.072 63.78C310.043 63.9267 309.991 64 309.918 64H309.302C308.495 64 307.835 63.8533 307.322 63.56C306.823 63.252 306.479 62.7607 306.288 62.086C305.98 62.3793 305.562 62.5993 305.034 62.746C304.506 62.8927 303.949 62.966 303.362 62.966C302.071 62.966 301.089 62.6213 300.414 61.932C299.739 61.228 299.402 60.194 299.402 58.83C299.402 58.0087 299.585 57.2533 299.952 56.564C300.319 55.86 300.832 55.3027 301.492 54.892C302.167 54.4667 302.937 54.254 303.802 54.254H305.65V52.78H307.916V59.732ZM301.668 58.808C301.668 59.996 302.269 60.59 303.472 60.59C304.161 60.59 304.697 60.4727 305.078 60.238C305.459 59.9887 305.65 59.6513 305.65 59.226V56.542H303.802C303.127 56.542 302.599 56.74 302.218 57.136C301.851 57.5173 301.668 58.0747 301.668 58.808ZM315.522 60.304C315.522 61.4627 315.178 62.372 314.488 63.032C313.799 63.6773 312.875 64 311.716 64H309.472C309.326 64 309.252 63.6187 309.252 62.856C309.252 62.0347 309.326 61.624 309.472 61.624H311.716C312.171 61.624 312.538 61.5067 312.816 61.272C313.095 61.0227 313.234 60.678 313.234 60.238V56.696H315.522V60.304ZM314.224 66.574V68.686H308.24V66.574H314.224ZM322.796 61.624C322.87 61.624 322.921 61.7047 322.95 61.866C322.994 62.0273 323.016 62.3573 323.016 62.856C323.016 63.3253 322.994 63.6333 322.95 63.78C322.921 63.9267 322.87 64 322.796 64H322.136C320.963 64 320.076 63.6553 319.474 62.966C318.873 62.2767 318.572 61.3013 318.572 60.04V49.788H320.838V59.886C320.838 60.4873 320.948 60.9273 321.168 61.206C321.403 61.4847 321.77 61.624 322.268 61.624H322.796ZM328.414 60.304C328.414 61.4627 328.069 62.372 327.38 63.032C326.69 63.6773 325.766 64 324.608 64H322.364C322.217 64 322.144 63.6187 322.144 62.856C322.144 62.0347 322.217 61.624 322.364 61.624H324.608C325.062 61.624 325.429 61.5067 325.708 61.272C325.986 61.0227 326.126 60.678 326.126 60.238V56.696H328.414V60.304ZM327.116 66.574V68.686H321.132V66.574H327.116ZM323.024 71.92V69.874H325.224V71.92H323.024ZM334.904 66.948C336.033 66.948 336.913 66.6253 337.544 65.98C338.189 65.3493 338.512 64.4547 338.512 63.296V56.696H340.8V60.084C340.8 61.1107 341.357 61.624 342.472 61.624H342.78C342.927 61.624 343 62.0347 343 62.856C343 63.6187 342.927 64 342.78 64H342.472C342.105 64 341.768 63.9487 341.46 63.846C341.167 63.7287 340.947 63.5747 340.8 63.384V63.516C340.771 64.66 340.507 65.672 340.008 66.552C339.524 67.432 338.842 68.114 337.962 68.598C337.097 69.082 336.085 69.324 334.926 69.324H334.288L334.09 66.948H334.904ZM348.385 60.304C348.385 61.4627 348.04 62.372 347.351 63.032C346.661 63.6773 345.737 64 344.579 64H342.335C342.188 64 342.115 63.6187 342.115 62.856C342.115 62.0347 342.188 61.624 342.335 61.624H344.579C345.033 61.624 345.4 61.5067 345.679 61.272C345.957 61.0227 346.097 60.678 346.097 60.238V56.696H348.385V60.304ZM342.775 68.73V66.574H345.415V68.73H342.775ZM366.517 64.088C365.344 64.088 364.398 63.736 363.679 63.032C362.96 62.3133 362.601 61.3673 362.601 60.194C362.601 59.006 362.96 58.06 363.679 57.356C364.398 56.6373 365.344 56.278 366.517 56.278C367.69 56.278 368.636 56.6373 369.355 57.356C370.074 58.06 370.433 59.006 370.433 60.194C370.433 61.3673 370.074 62.3133 369.355 63.032C368.636 63.736 367.69 64.088 366.517 64.088Z" fill="white"/>
</svg>
