<svg width="497" height="463" viewBox="0 0 497 463" fill="none" xmlns="http://www.w3.org/2000/svg">
<rect x="37" y="250" width="93" height="46" stroke="#9B51E0" stroke-width="4"/>
<path d="M66.5658 274.732C66.5658 275.407 66.6831 275.891 66.9178 276.184C67.1524 276.477 67.4971 276.624 67.9518 276.624H68.5678C68.6411 276.624 68.6924 276.705 68.7218 276.866C68.7658 277.027 68.7878 277.357 68.7878 277.856C68.7878 278.325 68.7658 278.633 68.7218 278.78C68.6924 278.927 68.6411 279 68.5678 279H67.9518C67.1451 279 66.4851 278.853 65.9718 278.56C65.4731 278.252 65.1284 277.761 64.9378 277.086C64.6298 277.379 64.2118 277.599 63.6838 277.746C63.1558 277.893 62.5984 277.966 62.0118 277.966C60.7211 277.966 59.7384 277.621 59.0638 276.932C58.3891 276.228 58.0518 275.194 58.0518 273.83C58.0518 273.009 58.2351 272.253 58.6018 271.564C58.9684 270.86 59.4818 270.303 60.1418 269.892C60.8164 269.467 61.5864 269.254 62.4518 269.254H64.2998V267.78H66.5658V274.732ZM60.3178 273.808C60.3178 274.996 60.9191 275.59 62.1218 275.59C62.8111 275.59 63.3464 275.473 63.7278 275.238C64.1091 274.989 64.2998 274.651 64.2998 274.226V271.542H62.4518C61.7771 271.542 61.2491 271.74 60.8678 272.136C60.5011 272.517 60.3178 273.075 60.3178 273.808ZM74.1719 275.304C74.1719 276.463 73.8272 277.372 73.1379 278.032C72.4486 278.677 71.5246 279 70.3659 279H68.1219C67.9752 279 67.9019 278.619 67.9019 277.856C67.9019 277.035 67.9752 276.624 68.1219 276.624H70.3659C70.8206 276.624 71.1872 276.507 71.4659 276.272C71.7446 276.023 71.8839 275.678 71.8839 275.238V271.696H74.1719V275.304ZM70.4539 269.188V267.032H73.0939V269.188H70.4539ZM77.2218 264.788H79.4878V279H77.2218V264.788ZM91.1135 278.208C91.1135 279.469 90.8788 280.555 90.4095 281.464C89.9401 282.388 89.2728 283.092 88.4075 283.576C87.5568 284.075 86.5521 284.324 85.3935 284.324H82.5555L82.3575 281.948H85.4595C86.5008 281.948 87.3221 281.684 87.9235 281.156C88.5248 280.628 88.8328 279.909 88.8475 279H86.9555C85.4008 279 84.2861 278.685 83.6115 278.054C82.9368 277.409 82.5995 276.404 82.5995 275.04C82.5995 274.101 82.7755 273.273 83.1275 272.554C83.4941 271.835 84.0001 271.278 84.6455 270.882C85.3055 270.471 86.0608 270.266 86.9115 270.266C88.2168 270.266 89.2435 270.706 89.9915 271.586C90.7395 272.451 91.1135 273.639 91.1135 275.15V278.208ZM84.8875 274.93C84.8875 275.546 85.0488 275.986 85.3715 276.25C85.6941 276.499 86.2588 276.624 87.0655 276.624H88.8475V275.194C88.8475 274.329 88.6715 273.676 88.3195 273.236C87.9675 272.781 87.4615 272.554 86.8015 272.554C86.2001 272.554 85.7308 272.774 85.3935 273.214C85.0561 273.639 84.8875 274.211 84.8875 274.93ZM92.3822 281.948C93.5116 281.948 94.3916 281.625 95.0222 280.98C95.6676 280.349 95.9902 279.455 95.9902 278.296V271.696H98.2782V275.084C98.2782 276.111 98.8356 276.624 99.9502 276.624H100.258C100.405 276.624 100.478 277.035 100.478 277.856C100.478 278.619 100.405 279 100.258 279H99.9502C99.5836 279 99.2462 278.949 98.9382 278.846C98.6449 278.729 98.4249 278.575 98.2782 278.384V278.516C98.2489 279.66 97.9849 280.672 97.4862 281.552C97.0022 282.432 96.3202 283.114 95.4402 283.598C94.5749 284.082 93.5629 284.324 92.4042 284.324H91.7662L91.5682 281.948H92.3822ZM105.159 276.624C105.614 276.624 105.98 276.507 106.259 276.272C106.538 276.023 106.677 275.678 106.677 275.238V271.696H108.965V275.304C108.965 276.463 108.62 277.372 107.931 278.032C107.256 278.677 106.332 279 105.159 279H99.8131C99.6664 279 99.5931 278.619 99.5931 277.856C99.5931 277.035 99.6664 276.624 99.8131 276.624H105.159ZM106.017 281.574V283.686H100.033V281.574H106.017ZM101.925 286.92V284.874H104.125V286.92H101.925Z" fill="white"/>
<rect x="202" y="250" width="93" height="46" fill="#00FFD4" fill-opacity="0.18"/>
<rect x="202" y="250" width="93" height="46" stroke="#9B51E0" stroke-width="4"/>
<path d="M231.379 276.624C231.526 276.624 231.599 277.035 231.599 277.856C231.599 278.619 231.526 279 231.379 279H229.223C229.384 279.191 229.465 279.484 229.465 279.88C229.465 280.745 229.216 281.515 228.717 282.19C228.218 282.865 227.514 283.385 226.605 283.752C225.696 284.133 224.647 284.324 223.459 284.324H221.787C219.91 284.324 218.465 283.781 217.453 282.696C216.441 281.625 215.935 280.115 215.935 278.164V273.896H218.201V278.12C218.201 280.672 219.404 281.948 221.809 281.948H223.459C224.706 281.948 225.637 281.772 226.253 281.42C226.869 281.068 227.177 280.562 227.177 279.902C227.177 279.55 227.082 279.293 226.891 279.132C226.715 278.985 226.429 278.912 226.033 278.912H222.073L222.293 276.624H231.379ZM236.996 275.304C236.996 276.463 236.652 277.372 235.962 278.032C235.273 278.677 234.349 279 233.19 279H230.946C230.8 279 230.726 278.619 230.726 277.856C230.726 277.035 230.8 276.624 230.946 276.624H233.19C233.645 276.624 234.012 276.507 234.29 276.272C234.569 276.023 234.708 275.678 234.708 275.238V271.696H236.996V275.304ZM233.278 269.188V267.032H235.918V269.188H233.278ZM244.27 276.624C244.344 276.624 244.395 276.705 244.424 276.866C244.468 277.027 244.49 277.357 244.49 277.856C244.49 278.325 244.468 278.633 244.424 278.78C244.395 278.927 244.344 279 244.27 279H243.61C242.437 279 241.55 278.655 240.948 277.966C240.347 277.277 240.046 276.301 240.046 275.04V264.788H242.312V274.886C242.312 275.487 242.422 275.927 242.642 276.206C242.877 276.485 243.244 276.624 243.742 276.624H244.27ZM249.888 275.304C249.888 276.463 249.543 277.372 248.854 278.032C248.165 278.677 247.241 279 246.082 279H243.838C243.691 279 243.618 278.619 243.618 277.856C243.618 277.035 243.691 276.624 243.838 276.624H246.082C246.537 276.624 246.903 276.507 247.182 276.272C247.461 276.023 247.6 275.678 247.6 275.238V271.696H249.888V275.304ZM244.278 283.73V281.574H246.918V283.73H244.278ZM250.308 281.948C251.438 281.948 252.318 281.625 252.948 280.98C253.594 280.349 253.916 279.455 253.916 278.296V271.696H256.204V275.084C256.204 276.111 256.762 276.624 257.876 276.624H258.184C258.331 276.624 258.404 277.035 258.404 277.856C258.404 278.619 258.331 279 258.184 279H257.876C257.51 279 257.172 278.949 256.864 278.846C256.571 278.729 256.351 278.575 256.204 278.384V278.516C256.175 279.66 255.911 280.672 255.412 281.552C254.928 282.432 254.246 283.114 253.366 283.598C252.501 284.082 251.489 284.324 250.33 284.324H249.692L249.494 281.948H250.308ZM271.049 276.624C271.196 276.624 271.269 277.035 271.269 277.856C271.269 278.619 271.196 279 271.049 279C270.198 279 269.56 279.117 269.135 279.352C268.71 279.587 268.299 280.063 267.903 280.782L265.945 284.28H264.691C263.107 284.28 261.868 283.84 260.973 282.96C260.078 282.08 259.631 280.841 259.631 279.242V279H257.739C257.592 279 257.519 278.619 257.519 277.856C257.519 277.035 257.592 276.624 257.739 276.624H259.631V274.6C259.631 273.133 260.005 271.967 260.753 271.102C261.516 270.237 262.542 269.804 263.833 269.804C265.08 269.804 266.07 270.163 266.803 270.882C267.536 271.601 267.903 272.576 267.903 273.808C267.903 274.747 267.639 275.605 267.111 276.382C266.598 277.145 265.886 277.753 264.977 278.208C264.068 278.648 263.048 278.883 261.919 278.912V279.154C261.919 280.137 262.139 280.855 262.579 281.31C263.019 281.765 263.723 281.992 264.691 281.992L266.099 279.55C266.568 278.743 267.008 278.135 267.419 277.724C267.844 277.313 268.328 277.027 268.871 276.866C269.428 276.705 270.154 276.624 271.049 276.624ZM265.637 273.918C265.637 273.331 265.476 272.884 265.153 272.576C264.845 272.253 264.405 272.092 263.833 272.092C263.202 272.092 262.726 272.305 262.403 272.73C262.08 273.155 261.919 273.779 261.919 274.6V276.624C263.078 276.624 263.987 276.389 264.647 275.92C265.307 275.436 265.637 274.769 265.637 273.918ZM271.147 276.624C271.631 276.624 271.976 276.529 272.181 276.338C272.401 276.133 272.511 275.817 272.511 275.392V274.622C272.511 273.214 272.9 272.099 273.677 271.278C274.469 270.457 275.54 270.046 276.889 270.046C278.239 270.046 279.273 270.442 279.991 271.234C280.71 272.011 281.069 273.133 281.069 274.6C281.069 275.993 280.688 277.079 279.925 277.856C279.177 278.619 278.136 279 276.801 279C276.053 279 275.423 278.897 274.909 278.692C274.396 278.472 274.022 278.171 273.787 277.79C273.523 278.215 273.179 278.523 272.753 278.714C272.343 278.905 271.807 279 271.147 279H270.619C270.473 279 270.399 278.619 270.399 277.856C270.399 277.035 270.473 276.624 270.619 276.624H271.147ZM278.803 274.6C278.803 273.837 278.635 273.273 278.297 272.906C277.975 272.525 277.476 272.334 276.801 272.334C276.127 272.334 275.621 272.525 275.283 272.906C274.961 273.273 274.799 273.845 274.799 274.622C274.799 275.267 274.968 275.766 275.305 276.118C275.643 276.455 276.141 276.624 276.801 276.624C277.476 276.624 277.975 276.463 278.297 276.14C278.635 275.803 278.803 275.289 278.803 274.6Z" fill="white"/>
<rect x="202" y="368" width="93" height="46" stroke="#9B51E0" stroke-width="4"/>
<path d="M222.405 402.324C220.527 402.324 219.083 401.781 218.071 400.696C217.059 399.625 216.553 398.115 216.553 396.164V391.896H218.819V396.12C218.819 398.672 220.021 399.948 222.427 399.948H223.329C224.502 399.948 225.426 399.625 226.101 398.98C226.775 398.335 227.113 397.447 227.113 396.318V389.696H229.401V396.12C229.401 397.411 229.144 398.518 228.631 399.442C228.117 400.381 227.399 401.092 226.475 401.576C225.565 402.075 224.517 402.324 223.329 402.324H222.405ZM221.217 389.168V387.012H223.857V389.168H221.217ZM236.713 394.624C236.786 394.624 236.838 394.705 236.867 394.866C236.911 395.027 236.933 395.357 236.933 395.856C236.933 396.325 236.911 396.633 236.867 396.78C236.838 396.927 236.786 397 236.713 397H236.053C234.88 397 233.992 396.655 233.391 395.966C232.79 395.277 232.489 394.301 232.489 393.04V382.788H234.755V392.886C234.755 393.487 234.865 393.927 235.085 394.206C235.32 394.485 235.686 394.624 236.185 394.624H236.713ZM238.921 394.624C239.39 394.624 239.764 394.507 240.043 394.272C240.336 394.023 240.483 393.678 240.483 393.238V389.696H242.771V393.15C242.771 394.133 243.277 394.624 244.289 394.624H245.037C245.183 394.624 245.257 395.027 245.257 395.834C245.257 396.611 245.183 397 245.037 397H244.201C242.895 397 242.03 396.604 241.605 395.812C241.091 396.604 240.197 397 238.921 397H236.281C236.134 397 236.061 396.619 236.061 395.856C236.061 395.035 236.134 394.624 236.281 394.624H238.921ZM243.475 385.076V387.188H237.491V385.076H243.475ZM246.344 394.624C246.946 394.624 247.4 394.492 247.708 394.228C248.016 393.949 248.17 393.561 248.17 393.062V389.696H250.458V393.062C250.458 394.103 251.052 394.624 252.24 394.624C252.842 394.624 253.296 394.492 253.604 394.228C253.912 393.949 254.066 393.561 254.066 393.062V389.696H256.354V393.062C256.354 393.561 256.494 393.949 256.772 394.228C257.051 394.492 257.469 394.624 258.026 394.624C258.598 394.624 259.024 394.492 259.302 394.228C259.596 393.949 259.742 393.561 259.742 393.062V389.696H262.008V393.062C262.008 394.103 262.514 394.624 263.526 394.624H264.296C264.443 394.624 264.516 395.035 264.516 395.856C264.516 396.619 264.443 397 264.296 397H263.526C262.808 397 262.221 396.905 261.766 396.714C261.326 396.523 260.996 396.223 260.776 395.812C260.498 396.223 260.131 396.523 259.676 396.714C259.236 396.905 258.686 397 258.026 397C256.53 397 255.562 396.575 255.122 395.724C254.55 396.575 253.59 397 252.24 397C251.419 397 250.766 396.897 250.282 396.692C249.798 396.472 249.446 396.149 249.226 395.724C248.654 396.575 247.694 397 246.344 397H244.606C244.46 397 244.386 396.619 244.386 395.856C244.386 395.035 244.46 394.624 244.606 394.624H246.344ZM264.572 394.624C265.027 394.624 265.393 394.507 265.672 394.272C265.951 394.023 266.09 393.678 266.09 393.238V382.788H268.378V393.128C268.378 393.627 268.51 394.001 268.774 394.25C269.038 394.499 269.405 394.624 269.874 394.624H270.468C270.615 394.624 270.688 395.027 270.688 395.834C270.688 396.611 270.615 397 270.468 397H269.764C269.133 397 268.598 396.897 268.158 396.692C267.733 396.487 267.425 396.186 267.234 395.79C266.706 396.597 265.819 397 264.572 397H263.846C263.699 397 263.626 396.619 263.626 395.856C263.626 395.035 263.699 394.624 263.846 394.624H264.572ZM279.241 378.96L279.659 380.39L271.981 383.558V381.996L279.241 378.96ZM276.029 394.624C276.586 394.624 277.019 394.529 277.327 394.338C277.635 394.133 277.789 393.861 277.789 393.524C277.789 393.245 277.723 392.989 277.591 392.754C277.459 392.519 277.246 392.248 276.953 391.94L271.981 387.034V385.12L280.121 381.93L280.803 384.108L274.709 386.44L278.669 390.444C279.593 391.353 280.055 392.402 280.055 393.59C280.055 394.602 279.703 395.423 278.999 396.054C278.295 396.685 277.305 397 276.029 397H270.023C269.876 397 269.803 396.619 269.803 395.856C269.803 395.035 269.876 394.624 270.023 394.624H276.029Z" fill="white"/>
<rect x="202" y="132" width="93" height="46" stroke="#9B51E0" stroke-width="4"/>
<path d="M239.551 159.35C238.729 158.719 238.319 157.766 238.319 156.49C238.319 155.654 238.502 154.899 238.869 154.224C239.235 153.549 239.749 153.021 240.409 152.64C241.083 152.244 241.853 152.046 242.719 152.046C243.276 152.046 243.811 152.119 244.325 152.266C244.853 152.413 245.403 152.662 245.975 153.014L245.205 154.906C244.354 154.525 243.525 154.334 242.719 154.334C242.103 154.334 241.589 154.532 241.179 154.928C240.783 155.309 240.585 155.793 240.585 156.38C240.585 157.011 240.768 157.524 241.135 157.92C241.501 158.301 242.007 158.492 242.653 158.492H246.547L246.349 160.868H242.235C241.399 160.868 240.709 161.132 240.167 161.66C239.639 162.203 239.375 162.892 239.375 163.728C239.375 164.579 239.653 165.209 240.211 165.62C240.783 166.031 241.685 166.236 242.917 166.236H247.009L246.811 168.612H242.807C240.856 168.612 239.419 168.216 238.495 167.424C237.571 166.632 237.109 165.429 237.109 163.816C237.109 162.863 237.329 161.983 237.769 161.176C238.209 160.369 238.803 159.761 239.551 159.35ZM241.223 149.472V147.316H243.863V149.472H241.223ZM254.304 158.624C254.377 158.624 254.429 158.705 254.458 158.866C254.502 159.027 254.524 159.357 254.524 159.856C254.524 160.325 254.502 160.633 254.458 160.78C254.429 160.927 254.377 161 254.304 161H253.644C252.471 161 251.583 160.655 250.982 159.966C250.381 159.277 250.08 158.301 250.08 157.04V146.788H252.346V156.886C252.346 157.487 252.456 157.927 252.676 158.206C252.911 158.485 253.277 158.624 253.776 158.624H254.304ZM259.922 157.304C259.922 158.463 259.577 159.372 258.888 160.032C258.198 160.677 257.274 161 256.116 161H253.872C253.725 161 253.652 160.619 253.652 159.856C253.652 159.035 253.725 158.624 253.872 158.624H256.116C256.57 158.624 256.937 158.507 257.216 158.272C257.494 158.023 257.634 157.678 257.634 157.238V153.696H259.922V157.304ZM254.312 165.73V163.574H256.952V165.73H254.312Z" fill="white"/>
<rect x="367" y="250" width="93" height="46" stroke="#9B51E0" stroke-width="4"/>
<path d="M401.886 284.324C400.008 284.324 398.564 283.781 397.552 282.696C396.54 281.625 396.034 280.115 396.034 278.164V273.896H398.3V278.12C398.3 280.672 399.502 281.948 401.908 281.948H402.81C403.983 281.948 404.907 281.625 405.582 280.98C406.256 280.335 406.594 279.447 406.594 278.318V264.788H408.882V275.26C408.882 275.685 409.006 276.023 409.256 276.272C409.52 276.507 409.894 276.624 410.378 276.624H410.884C411.03 276.624 411.104 277.035 411.104 277.856C411.104 278.619 411.03 279 410.884 279H410.466C410.128 279 409.813 278.956 409.52 278.868C409.241 278.78 409.028 278.67 408.882 278.538V278.648C408.852 279.748 408.581 280.731 408.068 281.596C407.554 282.461 406.843 283.129 405.934 283.598C405.024 284.082 403.983 284.324 402.81 284.324H401.886ZM413.084 276.624C413.553 276.624 413.927 276.507 414.206 276.272C414.499 276.023 414.646 275.678 414.646 275.238V271.696H416.934V275.15C416.934 276.133 417.44 276.624 418.452 276.624H419.2C419.346 276.624 419.42 277.027 419.42 277.834C419.42 278.611 419.346 279 419.2 279H418.364C417.058 279 416.193 278.604 415.768 277.812C415.254 278.604 414.36 279 413.084 279H410.444C410.297 279 410.224 278.619 410.224 277.856C410.224 277.035 410.297 276.624 410.444 276.624H413.084ZM410.708 283.73V281.574H413.348V283.73H410.708ZM419.495 276.624C419.95 276.624 420.317 276.507 420.595 276.272C420.874 276.023 421.013 275.678 421.013 275.238V264.788H423.301V275.128C423.301 275.627 423.433 276.001 423.697 276.25C423.961 276.499 424.328 276.624 424.797 276.624H425.391C425.538 276.624 425.611 277.027 425.611 277.834C425.611 278.611 425.538 279 425.391 279H424.687C424.057 279 423.521 278.897 423.081 278.692C422.656 278.487 422.348 278.186 422.157 277.79C421.629 278.597 420.742 279 419.495 279H418.769C418.623 279 418.549 278.619 418.549 277.856C418.549 277.035 418.623 276.624 418.769 276.624H419.495ZM430.996 275.304C430.996 276.463 430.652 277.372 429.962 278.032C429.273 278.677 428.349 279 427.19 279H424.946C424.8 279 424.726 278.619 424.726 277.856C424.726 277.035 424.8 276.624 424.946 276.624H427.19C427.645 276.624 428.012 276.507 428.29 276.272C428.569 276.023 428.708 275.678 428.708 275.238V271.696H430.996V275.304ZM425.386 283.73V281.574H428.026V283.73H425.386Z" fill="white"/>
<line x1="132" y1="273" x2="201" y2="273" stroke="#9B51E0" stroke-width="4"/>
<line x1="296" y1="273" x2="365" y2="273" stroke="#9B51E0" stroke-width="4"/>
<line x1="249" y1="249" x2="249" y2="180" stroke="#9B51E0" stroke-width="4"/>
<line x1="249" y1="367" x2="249" y2="298" stroke="#9B51E0" stroke-width="4"/>
<path d="M124.608 56.894C124.608 58.3753 124.799 59.6073 125.18 60.59C125.561 61.558 126.251 62.526 127.248 63.494L125.906 64.77C124.63 63.6847 123.713 62.526 123.156 61.294C122.613 60.062 122.342 58.5953 122.342 56.894C122.342 55.1927 122.613 53.726 123.156 52.494C123.713 51.262 124.63 50.1033 125.906 49.018L127.248 50.316C126.251 51.284 125.561 52.252 125.18 53.22C124.799 54.188 124.608 55.4127 124.608 56.894ZM145.553 61.624C145.7 61.624 145.773 62.0347 145.773 62.856C145.773 63.6187 145.7 64 145.553 64H143.397C143.558 64.1907 143.639 64.484 143.639 64.88C143.639 65.7453 143.39 66.5153 142.891 67.19C142.392 67.8647 141.688 68.3853 140.779 68.752C139.87 69.1333 138.821 69.324 137.633 69.324H135.961C134.084 69.324 132.639 68.7813 131.627 67.696C130.615 66.6253 130.109 65.1147 130.109 63.164V58.896H132.375V63.12C132.375 65.672 133.578 66.948 135.983 66.948H137.633C138.88 66.948 139.811 66.772 140.427 66.42C141.043 66.068 141.351 65.562 141.351 64.902C141.351 64.55 141.256 64.2933 141.065 64.132C140.889 63.9853 140.603 63.912 140.207 63.912H136.247L136.467 61.624H145.553ZM150.467 61.624C150.921 61.624 151.288 61.5067 151.567 61.272C151.845 61.0227 151.985 60.678 151.985 60.238V56.696H154.273V60.304C154.273 61.4627 153.928 62.372 153.239 63.032C152.564 63.6773 151.64 64 150.467 64H145.121C144.974 64 144.901 63.6187 144.901 62.856C144.901 62.0347 144.974 61.624 145.121 61.624H150.467ZM151.325 66.574V68.686H145.341V66.574H151.325ZM161.56 61.624C161.633 61.624 161.685 61.7047 161.714 61.866C161.758 62.0273 161.78 62.3573 161.78 62.856C161.78 63.3253 161.758 63.6333 161.714 63.78C161.685 63.9267 161.633 64 161.56 64H160.9C159.727 64 158.839 63.6553 158.238 62.966C157.637 62.2767 157.336 61.3013 157.336 60.04V49.788H159.602V59.886C159.602 60.4873 159.712 60.9273 159.932 61.206C160.167 61.4847 160.533 61.624 161.032 61.624H161.56ZM163.767 61.624C164.237 61.624 164.611 61.5067 164.889 61.272C165.183 61.0227 165.329 60.678 165.329 60.238V56.696H167.617V60.15C167.617 61.1327 168.123 61.624 169.135 61.624H169.883C170.03 61.624 170.103 62.0273 170.103 62.834C170.103 63.6113 170.03 64 169.883 64H169.047C167.742 64 166.877 63.604 166.451 62.812C165.938 63.604 165.043 64 163.767 64H161.127C160.981 64 160.907 63.6187 160.907 62.856C160.907 62.0347 160.981 61.624 161.127 61.624H163.767ZM164.009 54.188V52.032H166.649V54.188H164.009ZM171.125 61.624C171.917 61.624 172.511 61.6093 172.907 61.58C173.303 61.536 173.618 61.47 173.853 61.382L171.125 57.422L172.313 55.2H177.879C178.788 55.2 179.522 55.4127 180.079 55.838C180.636 56.2633 180.915 56.8867 180.915 57.708C180.915 58.3093 180.746 58.8813 180.409 59.424C180.086 59.952 179.448 60.634 178.495 61.47C178.818 61.5727 179.463 61.624 180.431 61.624H182.719C182.792 61.624 182.844 61.7047 182.873 61.866C182.917 62.0273 182.939 62.3573 182.939 62.856C182.939 63.3253 182.917 63.6333 182.873 63.78C182.844 63.9267 182.792 64 182.719 64H180.431C179.082 64 178.106 63.9267 177.505 63.78C176.904 63.6333 176.383 63.3547 175.943 62.944C175.327 63.34 174.645 63.6187 173.897 63.78C173.149 63.9267 172.196 64 171.037 64H169.453C169.306 64 169.233 63.6187 169.233 62.856C169.233 62.0347 169.306 61.624 169.453 61.624H171.125ZM178.737 58.17C178.737 57.9207 178.634 57.73 178.429 57.598C178.224 57.466 177.938 57.4 177.571 57.4H173.677L176.163 61.052C177.175 60.1867 177.857 59.556 178.209 59.16C178.561 58.764 178.737 58.434 178.737 58.17ZM182.797 61.624C183.281 61.624 183.626 61.5287 183.831 61.338C184.051 61.1327 184.161 60.8173 184.161 60.392V59.622C184.161 58.214 184.55 57.0993 185.327 56.278C186.119 55.4567 187.19 55.046 188.539 55.046C189.888 55.046 190.922 55.442 191.641 56.234C192.36 57.0113 192.719 58.1333 192.719 59.6C192.719 60.9933 192.338 62.0787 191.575 62.856C190.827 63.6187 189.786 64 188.451 64C187.703 64 187.072 63.8973 186.559 63.692C186.046 63.472 185.672 63.1713 185.437 62.79C185.173 63.2153 184.828 63.5233 184.403 63.714C183.992 63.9047 183.457 64 182.797 64H182.269C182.122 64 182.049 63.6187 182.049 62.856C182.049 62.0347 182.122 61.624 182.269 61.624H182.797ZM190.453 59.6C190.453 58.8373 190.284 58.2727 189.947 57.906C189.624 57.5247 189.126 57.334 188.451 57.334C187.776 57.334 187.27 57.5247 186.933 57.906C186.61 58.2727 186.449 58.8447 186.449 59.622C186.449 60.2673 186.618 60.766 186.955 61.118C187.292 61.4553 187.791 61.624 188.451 61.624C189.126 61.624 189.624 61.4627 189.947 61.14C190.284 60.8027 190.453 60.2893 190.453 59.6ZM209.809 64C208.547 64 207.711 63.5967 207.301 62.79C206.773 63.5967 205.724 64 204.155 64C202.791 64 201.757 63.6773 201.053 63.032C200.349 62.372 199.997 61.4627 199.997 60.304V59.05C199.997 58.258 200.187 57.6493 200.569 57.224H199.711C198.963 57.224 198.391 57.422 197.995 57.818C197.599 58.1993 197.401 58.742 197.401 59.446V69.324H195.135V59.446C195.135 58.0673 195.553 56.9747 196.389 56.168C197.239 55.3467 198.383 54.936 199.821 54.936H204.441C205.775 54.936 206.773 55.266 207.433 55.926C208.107 56.5713 208.445 57.5027 208.445 58.72V60.062C208.445 61.1033 208.899 61.624 209.809 61.624H210.425C210.571 61.624 210.645 62.0347 210.645 62.856C210.645 63.6187 210.571 64 210.425 64H209.809ZM204.265 61.624C204.881 61.624 205.35 61.4993 205.673 61.25C205.995 61.0007 206.157 60.5827 206.157 59.996V58.918C206.157 58.3753 206.003 57.9573 205.695 57.664C205.401 57.3707 204.983 57.224 204.441 57.224H203.891C203.363 57.224 202.959 57.3853 202.681 57.708C202.417 58.016 202.285 58.4267 202.285 58.94V59.864C202.285 60.5093 202.439 60.964 202.747 61.228C203.069 61.492 203.575 61.624 204.265 61.624ZM212.856 61.624C212.519 61.316 212.248 60.9273 212.042 60.458C211.837 59.9887 211.734 59.512 211.734 59.028C211.734 58.2067 211.925 57.4733 212.306 56.828C212.688 56.168 213.208 55.6547 213.868 55.288C214.528 54.9067 215.269 54.716 216.09 54.716C216.868 54.716 217.564 54.8993 218.18 55.266C218.811 55.6327 219.302 56.1313 219.654 56.762C220.021 57.378 220.204 58.0673 220.204 58.83C220.204 59.3873 220.072 59.9153 219.808 60.414C219.559 60.9127 219.214 61.316 218.774 61.624H221.458C222.001 61.624 222.412 61.5287 222.69 61.338C222.969 61.1473 223.108 60.876 223.108 60.524C223.108 60.26 223.042 60.0107 222.91 59.776C222.793 59.5267 222.551 59.2187 222.184 58.852L217.828 54.254L219.456 52.56L223.922 57.356C224.436 57.8987 224.81 58.434 225.044 58.962C225.279 59.49 225.396 60.0327 225.396 60.59C225.396 61.6167 225.044 62.4453 224.34 63.076C223.636 63.692 222.676 64 221.458 64H218.994C218.041 64 217.352 63.978 216.926 63.934C216.516 63.8753 216.178 63.7653 215.914 63.604C215.65 63.7507 215.276 63.8533 214.792 63.912C214.323 63.9707 213.648 64 212.768 64H209.974C209.828 64 209.754 63.6187 209.754 62.856C209.754 62.0347 209.828 61.624 209.974 61.624H212.856ZM215.87 61.602C216.56 61.3087 217.088 60.942 217.454 60.502C217.821 60.062 218.004 59.5707 218.004 59.028C218.004 58.4267 217.821 57.9427 217.454 57.576C217.088 57.1947 216.596 57.004 215.98 57.004C215.364 57.004 214.866 57.1947 214.484 57.576C214.118 57.9427 213.934 58.4267 213.934 59.028C213.934 60.1427 214.58 61.0007 215.87 61.602ZM230.883 56.894C230.883 55.4127 230.692 54.188 230.311 53.22C229.93 52.252 229.24 51.284 228.243 50.316L229.585 49.018C230.861 50.1033 231.77 51.262 232.313 52.494C232.87 53.726 233.149 55.1927 233.149 56.894C233.149 58.5953 232.87 60.062 232.313 61.294C231.77 62.526 230.861 63.6847 229.585 64.77L228.243 63.494C229.24 62.526 229.93 61.558 230.311 60.59C230.692 59.6073 230.883 58.3753 230.883 56.894ZM244.708 64C243.403 64 242.413 63.6627 241.738 62.988C241.064 62.2987 240.726 61.3307 240.726 60.084V56.696H242.992V59.776C242.992 60.392 243.139 60.854 243.432 61.162C243.726 61.47 244.188 61.624 244.818 61.624H250.868C251.323 61.624 251.631 61.6093 251.792 61.58C250.942 61.2133 250.333 60.7953 249.966 60.326C249.614 59.842 249.438 59.226 249.438 58.478C249.438 57.6713 249.622 56.938 249.988 56.278C250.37 55.618 250.883 55.1047 251.528 54.738C252.188 54.3567 252.929 54.166 253.75 54.166C255.144 54.166 256.222 54.5913 256.984 55.442C257.762 56.2927 258.15 57.466 258.15 58.962V59.71C258.15 61.1473 257.659 62.2253 256.676 62.944C255.708 63.648 254.278 64 252.386 64H244.708ZM255.224 61.294C255.65 60.9127 255.862 60.326 255.862 59.534V59.094C255.862 57.334 255.151 56.454 253.728 56.454C253.171 56.454 252.694 56.652 252.298 57.048C251.917 57.4293 251.726 57.8987 251.726 58.456C251.726 58.8813 251.829 59.248 252.034 59.556C252.254 59.8493 252.614 60.1353 253.112 60.414C253.611 60.6927 254.315 60.986 255.224 61.294ZM252.408 51.988V49.832H255.048V51.988H252.408ZM269.291 57.444C269.79 58.0307 270.142 58.5733 270.347 59.072C270.567 59.556 270.677 60.062 270.677 60.59C270.677 61.602 270.318 62.4233 269.599 63.054C268.895 63.6847 267.905 64 266.629 64H260.557L260.337 61.624H266.629C267.186 61.624 267.619 61.5287 267.927 61.338C268.235 61.1327 268.389 60.8613 268.389 60.524C268.389 60.2893 268.323 60.062 268.191 59.842C268.074 59.6073 267.861 59.3067 267.553 58.94L263.593 54.342L265.199 52.714L269.291 57.444ZM273.732 49.788H275.998V64H273.732V49.788ZM282.574 60.084C282.574 61.1107 283.132 61.624 284.246 61.624H284.554C284.701 61.624 284.774 62.0347 284.774 62.856C284.774 63.6187 284.701 64 284.554 64H284.246C283.88 64 283.542 63.9487 283.234 63.846C282.941 63.7287 282.721 63.5747 282.574 63.384V63.516C282.545 64.66 282.281 65.672 281.782 66.552C281.298 67.432 280.616 68.114 279.736 68.598C278.871 69.082 277.859 69.324 276.7 69.324H275.05L274.852 66.948H276.678C277.808 66.948 278.688 66.6253 279.318 65.98C279.964 65.3493 280.286 64.4547 280.286 63.296V56.696H282.574V60.084ZM290.159 60.304C290.159 61.4627 289.814 62.372 289.125 63.032C288.436 63.6773 287.512 64 286.353 64H284.109C283.962 64 283.889 63.6187 283.889 62.856C283.889 62.0347 283.962 61.624 284.109 61.624H286.353C286.808 61.624 287.174 61.5067 287.453 61.272C287.732 61.0227 287.871 60.678 287.871 60.238V56.696H290.159V60.304ZM290.753 52.076V54.188H284.769V52.076H290.753ZM306.219 59.732C306.219 60.4067 306.337 60.8907 306.571 61.184C306.806 61.4773 307.151 61.624 307.605 61.624H308.221C308.295 61.624 308.346 61.7047 308.375 61.866C308.419 62.0273 308.441 62.3573 308.441 62.856C308.441 63.3253 308.419 63.6333 308.375 63.78C308.346 63.9267 308.295 64 308.221 64H307.605C306.799 64 306.139 63.8533 305.625 63.56C305.127 63.252 304.782 62.7607 304.591 62.086C304.283 62.3793 303.865 62.5993 303.337 62.746C302.809 62.8927 302.252 62.966 301.665 62.966C300.375 62.966 299.392 62.6213 298.717 61.932C298.043 61.228 297.705 60.194 297.705 58.83C297.705 58.0087 297.889 57.2533 298.255 56.564C298.622 55.86 299.135 55.3027 299.795 54.892C300.47 54.4667 301.24 54.254 302.105 54.254H303.953V52.78H306.219V59.732ZM299.971 58.808C299.971 59.996 300.573 60.59 301.775 60.59C302.465 60.59 303 60.4727 303.381 60.238C303.763 59.9887 303.953 59.6513 303.953 59.226V56.542H302.105C301.431 56.542 300.903 56.74 300.521 57.136C300.155 57.5173 299.971 58.0747 299.971 58.808ZM313.825 60.304C313.825 61.4627 313.481 62.372 312.791 63.032C312.102 63.6773 311.178 64 310.019 64H307.775C307.629 64 307.555 63.6187 307.555 62.856C307.555 62.0347 307.629 61.624 307.775 61.624H310.019C310.474 61.624 310.841 61.5067 311.119 61.272C311.398 61.0227 311.537 60.678 311.537 60.238V56.696H313.825V60.304ZM312.527 66.574V68.686H306.543V66.574H312.527ZM321.099 61.624C321.173 61.624 321.224 61.7047 321.253 61.866C321.297 62.0273 321.319 62.3573 321.319 62.856C321.319 63.3253 321.297 63.6333 321.253 63.78C321.224 63.9267 321.173 64 321.099 64H320.439C319.266 64 318.379 63.6553 317.777 62.966C317.176 62.2767 316.875 61.3013 316.875 60.04V49.788H319.141V59.886C319.141 60.4873 319.251 60.9273 319.471 61.206C319.706 61.4847 320.073 61.624 320.571 61.624H321.099ZM326.717 60.304C326.717 61.4627 326.372 62.372 325.683 63.032C324.994 63.6773 324.07 64 322.911 64H320.667C320.52 64 320.447 63.6187 320.447 62.856C320.447 62.0347 320.52 61.624 320.667 61.624H322.911C323.366 61.624 323.732 61.5067 324.011 61.272C324.29 61.0227 324.429 60.678 324.429 60.238V56.696H326.717V60.304ZM325.419 66.574V68.686H319.435V66.574H325.419ZM321.327 71.92V69.874H323.527V71.92H321.327ZM333.207 66.948C334.336 66.948 335.216 66.6253 335.847 65.98C336.492 65.3493 336.815 64.4547 336.815 63.296V56.696H339.103V60.084C339.103 61.1107 339.66 61.624 340.775 61.624H341.083C341.23 61.624 341.303 62.0347 341.303 62.856C341.303 63.6187 341.23 64 341.083 64H340.775C340.408 64 340.071 63.9487 339.763 63.846C339.47 63.7287 339.25 63.5747 339.103 63.384V63.516C339.074 64.66 338.81 65.672 338.311 66.552C337.827 67.432 337.145 68.114 336.265 68.598C335.4 69.082 334.388 69.324 333.229 69.324H332.591L332.393 66.948H333.207ZM346.688 60.304C346.688 61.4627 346.343 62.372 345.654 63.032C344.965 63.6773 344.041 64 342.882 64H340.638C340.491 64 340.418 63.6187 340.418 62.856C340.418 62.0347 340.491 61.624 340.638 61.624H342.882C343.337 61.624 343.703 61.5067 343.982 61.272C344.261 61.0227 344.4 60.678 344.4 60.238V56.696H346.688V60.304ZM341.078 68.73V66.574H343.718V68.73H341.078ZM364.82 64.088C363.647 64.088 362.701 63.736 361.982 63.032C361.264 62.3133 360.904 61.3673 360.904 60.194C360.904 59.006 361.264 58.06 361.982 57.356C362.701 56.6373 363.647 56.278 364.82 56.278C365.994 56.278 366.94 56.6373 367.658 57.356C368.377 58.06 368.736 59.006 368.736 60.194C368.736 61.3673 368.377 62.3133 367.658 63.032C366.94 63.736 365.994 64.088 364.82 64.088Z" fill="white"/>
</svg>
