<svg width="497" height="463" viewBox="0 0 497 463" fill="none" xmlns="http://www.w3.org/2000/svg">
<rect x="37" y="250" width="93" height="46" stroke="#9B51E0" stroke-width="4"/>
<rect x="202" y="250" width="93" height="46" fill="#00FFD5" fill-opacity="0.18"/>
<rect x="202" y="250" width="93" height="46" stroke="#9B51E0" stroke-width="4"/>
<path d="M234.263 276.624C234.732 276.624 235.106 276.507 235.385 276.272C235.678 276.023 235.825 275.685 235.825 275.26V271.696H238.113V275.15C238.113 276.133 238.619 276.624 239.631 276.624H240.379C240.526 276.624 240.599 277.035 240.599 277.856C240.599 278.619 240.526 279 240.379 279H239.543C238.238 279 237.372 278.604 236.947 277.812C236.434 278.604 235.539 279 234.263 279H226.717C225.412 279 224.422 278.663 223.747 277.988C223.072 277.299 222.735 276.331 222.735 275.084V271.696H225.001V274.776C225.001 275.392 225.148 275.854 225.441 276.162C225.734 276.47 226.196 276.624 226.827 276.624H234.263ZM233.405 267.912V270.024H227.421V267.912H233.405ZM240.466 276.624C240.95 276.624 241.295 276.529 241.5 276.338C241.72 276.133 241.83 275.817 241.83 275.392V274.622C241.83 273.214 242.219 272.099 242.996 271.278C243.788 270.457 244.859 270.046 246.208 270.046C247.557 270.046 248.591 270.442 249.31 271.234C250.029 272.011 250.388 273.133 250.388 274.6C250.388 275.993 250.007 277.079 249.244 277.856C248.496 278.619 247.455 279 246.12 279C245.372 279 244.741 278.897 244.228 278.692C243.715 278.472 243.341 278.171 243.106 277.79C242.842 278.215 242.497 278.523 242.072 278.714C241.661 278.905 241.126 279 240.466 279H239.938C239.791 279 239.718 278.619 239.718 277.856C239.718 277.035 239.791 276.624 239.938 276.624H240.466ZM248.122 274.6C248.122 273.837 247.953 273.273 247.616 272.906C247.293 272.525 246.795 272.334 246.12 272.334C245.445 272.334 244.939 272.525 244.602 272.906C244.279 273.273 244.118 273.845 244.118 274.622C244.118 275.267 244.287 275.766 244.624 276.118C244.961 276.455 245.46 276.624 246.12 276.624C246.795 276.624 247.293 276.463 247.616 276.14C247.953 275.803 248.122 275.289 248.122 274.6ZM253.464 264.788H255.73V279H253.464V264.788ZM262.306 275.084C262.306 276.111 262.863 276.624 263.978 276.624H264.286C264.433 276.624 264.506 277.035 264.506 277.856C264.506 278.619 264.433 279 264.286 279H263.978C263.611 279 263.274 278.949 262.966 278.846C262.673 278.729 262.453 278.575 262.306 278.384V278.516C262.277 279.66 262.013 280.672 261.514 281.552C261.03 282.432 260.348 283.114 259.468 283.598C258.603 284.082 257.591 284.324 256.432 284.324H254.782L254.584 281.948H256.41C257.539 281.948 258.419 281.625 259.05 280.98C259.695 280.349 260.018 279.455 260.018 278.296V271.696H262.306V275.084ZM269.847 276.624C270.404 276.624 270.837 276.529 271.145 276.338C271.453 276.133 271.607 275.861 271.607 275.524C271.607 275.245 271.541 274.989 271.409 274.754C271.277 274.519 271.064 274.248 270.771 273.94L265.799 269.034V267.12L273.939 263.93L274.621 266.108L268.527 268.44L272.487 272.444C273.411 273.353 273.873 274.402 273.873 275.59C273.873 276.602 273.521 277.423 272.817 278.054C272.113 278.685 271.123 279 269.847 279H263.841C263.694 279 263.621 278.619 263.621 277.856C263.621 277.035 263.694 276.624 263.841 276.624H269.847Z" fill="white"/>
<rect x="202" y="368" width="93" height="46" stroke="#9B51E0" stroke-width="4"/>
<rect x="202" y="132" width="93" height="46" stroke="#9B51E0" stroke-width="4"/>
<rect x="367" y="250" width="93" height="46" stroke="#9B51E0" stroke-width="4"/>
<line x1="132" y1="273" x2="201" y2="273" stroke="#9B51E0" stroke-width="4"/>
<line x1="296" y1="273" x2="365" y2="273" stroke="#9B51E0" stroke-width="4"/>
<line x1="249" y1="249" x2="249" y2="180" stroke="#9B51E0" stroke-width="4"/>
<line x1="249" y1="367" x2="249" y2="298" stroke="#9B51E0" stroke-width="4"/>
<path d="M214.935 64C213.629 64 212.639 63.6627 211.965 62.988C211.29 62.2987 210.953 61.3307 210.953 60.084V56.696H213.219V59.776C213.219 60.392 213.365 60.854 213.659 61.162C213.952 61.47 214.414 61.624 215.045 61.624H221.095C221.549 61.624 221.857 61.6093 222.019 61.58C221.168 61.2133 220.559 60.7953 220.193 60.326C219.841 59.842 219.665 59.226 219.665 58.478C219.665 57.6713 219.848 56.938 220.215 56.278C220.596 55.618 221.109 55.1047 221.755 54.738C222.415 54.3567 223.155 54.166 223.977 54.166C225.37 54.166 226.448 54.5913 227.211 55.442C227.988 56.2927 228.377 57.466 228.377 58.962V59.71C228.377 61.1473 227.885 62.2253 226.903 62.944C225.935 63.648 224.505 64 222.613 64H214.935ZM225.451 61.294C225.876 60.9127 226.089 60.326 226.089 59.534V59.094C226.089 57.334 225.377 56.454 223.955 56.454C223.397 56.454 222.921 56.652 222.525 57.048C222.143 57.4293 221.953 57.8987 221.953 58.456C221.953 58.8813 222.055 59.248 222.261 59.556C222.481 59.8493 222.84 60.1353 223.339 60.414C223.837 60.6927 224.541 60.986 225.451 61.294ZM222.635 51.988V49.832H225.275V51.988H222.635ZM239.518 57.444C240.016 58.0307 240.368 58.5733 240.574 59.072C240.794 59.556 240.904 60.062 240.904 60.59C240.904 61.602 240.544 62.4233 239.826 63.054C239.122 63.6847 238.132 64 236.856 64H230.784L230.564 61.624H236.856C237.413 61.624 237.846 61.5287 238.154 61.338C238.462 61.1327 238.616 60.8613 238.616 60.524C238.616 60.2893 238.55 60.062 238.418 59.842C238.3 59.6073 238.088 59.3067 237.78 58.94L233.82 54.342L235.426 52.714L239.518 57.444ZM243.959 49.788H246.225V64H243.959V49.788ZM252.801 60.084C252.801 61.1107 253.358 61.624 254.473 61.624H254.781C254.927 61.624 255.001 62.0347 255.001 62.856C255.001 63.6187 254.927 64 254.781 64H254.473C254.106 64 253.769 63.9487 253.461 63.846C253.167 63.7287 252.947 63.5747 252.801 63.384V63.516C252.771 64.66 252.507 65.672 252.009 66.552C251.525 67.432 250.843 68.114 249.963 68.598C249.097 69.082 248.085 69.324 246.927 69.324H245.277L245.079 66.948H246.905C248.034 66.948 248.914 66.6253 249.545 65.98C250.19 65.3493 250.513 64.4547 250.513 63.296V56.696H252.801V60.084ZM260.386 60.304C260.386 61.4627 260.041 62.372 259.352 63.032C258.662 63.6773 257.738 64 256.58 64H254.336C254.189 64 254.116 63.6187 254.116 62.856C254.116 62.0347 254.189 61.624 254.336 61.624H256.58C257.034 61.624 257.401 61.5067 257.68 61.272C257.958 61.0227 258.098 60.678 258.098 60.238V56.696H260.386V60.304ZM260.98 52.076V54.188H254.996V52.076H260.98ZM270.198 56.894C270.198 58.3753 270.389 59.6073 270.77 60.59C271.151 61.558 271.841 62.526 272.838 63.494L271.496 64.77C270.22 63.6847 269.303 62.526 268.746 61.294C268.203 60.062 267.932 58.5953 267.932 56.894C267.932 55.1927 268.203 53.726 268.746 52.494C269.303 51.262 270.22 50.1033 271.496 49.018L272.838 50.316C271.841 51.284 271.151 52.252 270.77 53.22C270.389 54.188 270.198 55.4127 270.198 56.894ZM287.271 61.624C287.726 61.624 288.092 61.5067 288.371 61.272C288.65 61.0227 288.789 60.6853 288.789 60.26V56.696H291.077V60.348C291.077 61.4773 290.732 62.372 290.043 63.032C289.354 63.6773 288.43 64 287.271 64H279.681C278.376 64 277.386 63.6627 276.711 62.988C276.036 62.2987 275.699 61.3307 275.699 60.084V56.696H277.965V59.776C277.965 60.392 278.112 60.854 278.405 61.162C278.698 61.47 279.16 61.624 279.791 61.624H287.271ZM282.057 68.73V66.574H284.697V68.73H282.057Z" fill="white"/>
</svg>
