<svg width="497" height="463" viewBox="0 0 497 463" fill="none" xmlns="http://www.w3.org/2000/svg">
<rect x="37" y="250" width="93" height="46" stroke="#9B51E0" stroke-width="4"/>
<rect x="202" y="250" width="93" height="46" fill="#00FFD4" fill-opacity="0.18"/>
<rect x="202" y="250" width="93" height="46" stroke="#9B51E0" stroke-width="4"/>
<path d="M231.949 281.948C233.078 281.948 233.958 281.625 234.589 280.98C235.234 280.349 235.557 279.455 235.557 278.296V271.696H237.845V275.084C237.845 276.111 238.402 276.624 239.517 276.624H239.825C239.972 276.624 240.045 277.035 240.045 277.856C240.045 278.619 239.972 279 239.825 279H239.517C239.15 279 238.813 278.949 238.505 278.846C238.212 278.729 237.992 278.575 237.845 278.384V278.516C237.816 279.66 237.552 280.672 237.053 281.552C236.569 282.432 235.887 283.114 235.007 283.598C234.142 284.082 233.13 284.324 231.971 284.324H231.333L231.135 281.948H231.949ZM243.56 264.788V273.038C245.071 270.867 246.691 269.782 248.422 269.782C249.229 269.782 249.955 269.98 250.6 270.376C251.245 270.757 251.744 271.3 252.096 272.004C252.463 272.693 252.646 273.485 252.646 274.38C252.646 275.128 252.514 275.766 252.25 276.294C252.441 276.426 252.668 276.514 252.932 276.558C253.196 276.602 253.548 276.624 253.988 276.624H254.516C254.663 276.624 254.736 277.035 254.736 277.856C254.736 278.619 254.663 279 254.516 279H253.988C253.269 279 252.683 278.934 252.228 278.802C251.773 278.655 251.37 278.399 251.018 278.032C250.622 278.34 250.153 278.582 249.61 278.758C249.082 278.919 248.517 279 247.916 279H239.38C239.233 279 239.16 278.619 239.16 277.856C239.16 277.035 239.233 276.624 239.38 276.624H241.272V264.788H243.56ZM247.916 276.624C248.693 276.624 249.295 276.426 249.72 276.03C250.16 275.634 250.38 275.084 250.38 274.38C250.38 273.691 250.175 273.133 249.764 272.708C249.368 272.283 248.862 272.07 248.246 272.07C247.513 272.07 246.765 272.437 246.002 273.17C245.239 273.903 244.374 275.055 243.406 276.624H247.916ZM256.396 276.624C255.971 276.081 255.758 275.407 255.758 274.6C255.758 273.764 255.942 273.009 256.308 272.334C256.675 271.659 257.188 271.131 257.848 270.75C258.523 270.369 259.3 270.178 260.18 270.178C260.752 270.178 261.295 270.251 261.808 270.398C262.322 270.545 262.864 270.794 263.436 271.146L262.666 273.038C261.816 272.657 260.987 272.466 260.18 272.466C259.564 272.466 259.051 272.664 258.64 273.06C258.244 273.441 258.046 273.918 258.046 274.49C258.046 275.121 258.23 275.634 258.596 276.03C258.963 276.426 259.469 276.624 260.114 276.624H264.008L263.81 279H254.086C253.94 279 253.866 278.619 253.866 277.856C253.866 277.035 253.94 276.624 254.086 276.624H256.396Z" fill="white"/>
<rect x="202" y="368" width="93" height="46" stroke="#9B51E0" stroke-width="4"/>
<rect x="202" y="132" width="93" height="46" stroke="#9B51E0" stroke-width="4"/>
<rect x="367" y="250" width="93" height="46" stroke="#9B51E0" stroke-width="4"/>
<line x1="132" y1="273" x2="201" y2="273" stroke="#9B51E0" stroke-width="4"/>
<line x1="296" y1="273" x2="365" y2="273" stroke="#9B51E0" stroke-width="4"/>
<line x1="249" y1="249" x2="249" y2="180" stroke="#9B51E0" stroke-width="4"/>
<line x1="249" y1="367" x2="249" y2="298" stroke="#9B51E0" stroke-width="4"/>
<path d="M212.458 61.624C212.927 61.624 213.301 61.5067 213.58 61.272C213.873 61.0227 214.02 60.6853 214.02 60.26V56.696H216.308V60.15C216.308 61.1327 216.814 61.624 217.826 61.624H218.574C218.72 61.624 218.794 62.0347 218.794 62.856C218.794 63.6187 218.72 64 218.574 64H217.738C216.432 64 215.567 63.604 215.142 62.812C214.628 63.604 213.734 64 212.458 64H204.912C203.606 64 202.616 63.6627 201.942 62.988C201.267 62.2987 200.93 61.3307 200.93 60.084V56.696H203.196V59.776C203.196 60.392 203.342 60.854 203.636 61.162C203.929 61.47 204.391 61.624 205.022 61.624H212.458ZM207.288 68.73V66.574H209.928V68.73H207.288ZM219.871 61.624C220.472 61.624 220.927 61.492 221.235 61.228C221.543 60.9493 221.697 60.5607 221.697 60.062V56.696H223.985V60.062C223.985 61.1033 224.579 61.624 225.767 61.624C226.368 61.624 226.823 61.492 227.131 61.228C227.439 60.9493 227.593 60.5607 227.593 60.062V56.696H229.881V60.062C229.881 60.5607 230.02 60.9493 230.299 61.228C230.577 61.492 230.995 61.624 231.553 61.624C232.125 61.624 232.55 61.492 232.829 61.228C233.122 60.9493 233.269 60.5607 233.269 60.062V56.696H235.535V60.04C235.535 61.2867 235.183 62.262 234.479 62.966C233.775 63.6553 232.799 64 231.553 64C230.057 64 229.089 63.5747 228.649 62.724C228.077 63.5747 227.116 64 225.767 64C224.945 64 224.293 63.8973 223.809 63.692C223.325 63.472 222.973 63.1493 222.753 62.724C222.181 63.5747 221.22 64 219.871 64H218.133C217.986 64 217.913 63.6187 217.913 62.856C217.913 62.0347 217.986 61.624 218.133 61.624H219.871ZM242.843 61.624C242.917 61.624 242.968 61.7047 242.997 61.866C243.041 62.0273 243.063 62.3573 243.063 62.856C243.063 63.3253 243.041 63.6333 242.997 63.78C242.968 63.9267 242.917 64 242.843 64H242.183C241.01 64 240.123 63.6553 239.521 62.966C238.92 62.2767 238.619 61.3013 238.619 60.04V49.788H240.885V59.886C240.885 60.4873 240.995 60.9273 241.215 61.206C241.45 61.4847 241.817 61.624 242.315 61.624H242.843ZM245.051 61.624C245.52 61.624 245.894 61.5067 246.173 61.272C246.466 61.0227 246.613 60.678 246.613 60.238V56.696H248.901V60.15C248.901 61.1327 249.407 61.624 250.419 61.624H251.167C251.314 61.624 251.387 62.0273 251.387 62.834C251.387 63.6113 251.314 64 251.167 64H250.331C249.026 64 248.16 63.604 247.735 62.812C247.222 63.604 246.327 64 245.051 64H242.411C242.264 64 242.191 63.6187 242.191 62.856C242.191 62.0347 242.264 61.624 242.411 61.624H245.051ZM245.293 54.188V52.032H247.933V54.188H245.293ZM256.787 60.304C256.787 61.4627 256.442 62.372 255.753 63.032C255.063 63.6773 254.139 64 252.981 64H250.737C250.59 64 250.517 63.6187 250.517 62.856C250.517 62.0347 250.59 61.624 250.737 61.624H252.981C253.435 61.624 253.802 61.5067 254.081 61.272C254.359 61.0227 254.499 60.678 254.499 60.238V56.696H256.787V60.304ZM257.381 52.076V54.188H251.397V52.076H257.381ZM266.599 56.894C266.599 58.3753 266.789 59.6073 267.171 60.59C267.552 61.558 268.241 62.526 269.239 63.494L267.897 64.77C266.621 63.6847 265.704 62.526 265.147 61.294C264.604 60.062 264.333 58.5953 264.333 56.894C264.333 55.1927 264.604 53.726 265.147 52.494C265.704 51.262 266.621 50.1033 267.897 49.018L269.239 50.316C268.241 51.284 267.552 52.252 267.171 53.22C266.789 54.188 266.599 55.4127 266.599 56.894ZM282.022 61.624C281.64 61.3307 281.34 60.942 281.12 60.458C280.914 59.9593 280.812 59.4533 280.812 58.94C280.812 58.148 280.995 57.422 281.362 56.762C281.743 56.102 282.264 55.5813 282.924 55.2C283.584 54.8187 284.317 54.628 285.124 54.628C285.974 54.628 286.722 54.804 287.368 55.156C288.028 55.508 288.534 56.0067 288.886 56.652C289.252 57.2827 289.436 58.0087 289.436 58.83C289.436 59.9887 288.996 60.92 288.116 61.624H291.196C291.342 61.624 291.416 62.0347 291.416 62.856C291.416 63.6187 291.342 64 291.196 64H288.248C287.368 64 286.693 63.9707 286.224 63.912C285.769 63.8533 285.41 63.7507 285.146 63.604C284.867 63.7507 284.478 63.8533 283.98 63.912C283.496 63.9707 282.836 64 282 64H276.082C274.776 64 273.786 63.6627 273.112 62.988C272.437 62.2987 272.1 61.3307 272.1 60.084V56.696H274.366V59.776C274.366 60.392 274.512 60.854 274.806 61.162C275.099 61.47 275.561 61.624 276.192 61.624H282.022ZM285.124 61.602C285.784 61.3087 286.282 60.9273 286.62 60.458C286.972 59.974 287.148 59.468 287.148 58.94C287.148 58.3093 286.964 57.818 286.598 57.466C286.246 57.0993 285.754 56.916 285.124 56.916C284.522 56.916 284.031 57.1067 283.65 57.488C283.283 57.8693 283.1 58.3533 283.1 58.94C283.1 59.4973 283.276 60.0107 283.628 60.48C283.98 60.9347 284.478 61.3087 285.124 61.602ZM283.804 52.208V50.052H286.444V52.208H283.804ZM291.49 61.624C291.944 61.624 292.311 61.5067 292.59 61.272C292.868 61.0227 293.008 60.678 293.008 60.238V49.788H295.296V60.304C295.296 61.4627 294.951 62.372 294.262 63.032C293.587 63.6773 292.663 64 291.49 64H290.764C290.617 64 290.544 63.6187 290.544 62.856C290.544 62.0347 290.617 61.624 290.764 61.624H291.49ZM298.575 49.788H300.841V64H298.575V49.788Z" fill="white"/>
</svg>
