<svg width="286" height="151" viewBox="0 0 286 151" fill="none" xmlns="http://www.w3.org/2000/svg">
<mask id="path-1-outside-1_610_19" maskUnits="userSpaceOnUse" x="43" y="26" width="199" height="38" fill="black">
<rect fill="white" x="43" y="26" width="199" height="38"/>
<path d="M75.4448 47.052C75.4448 48.492 76.2128 49.212 77.7488 49.212C79.3088 49.212 80.0888 48.492 80.0888 47.052V41.616H84.6608V47.088C84.6608 49.272 84.0488 50.976 82.8248 52.2C81.6248 53.4 79.9328 54 77.7488 54C75.3728 54 73.7888 53.364 72.9968 52.092C72.1088 53.364 70.5968 54 68.4608 54C67.3088 54 66.4568 53.832 65.9048 53.496C65.8328 55.296 65.3648 56.88 64.5008 58.248C63.6608 59.616 62.4848 60.684 60.9728 61.452C59.4848 62.22 57.7688 62.604 55.8248 62.604H54.3848C51.2648 62.604 48.8528 61.704 47.1488 59.904C45.4688 58.128 44.6288 55.632 44.6288 52.416V45.216H49.2008V52.308C49.2008 54.132 49.6208 55.5 50.4608 56.412C51.3008 57.348 52.6088 57.816 54.3848 57.816H55.8248C57.5528 57.816 58.9088 57.36 59.8928 56.448C60.8768 55.536 61.3688 54.276 61.3688 52.668V41.616H65.9408V47.052C65.9408 48.492 66.7568 49.212 68.3888 49.212C69.2048 49.212 69.8168 49.02 70.2248 48.636C70.6568 48.252 70.8728 47.724 70.8728 47.052V41.616H75.4448V47.052ZM75.3008 28.116V32.04H70.9808V28.116H75.3008ZM78.2168 33.768V37.872H68.0648V33.768H78.2168ZM95.699 47.052C95.699 47.796 95.879 48.348 96.239 48.708C96.623 49.044 97.223 49.212 98.039 49.212H98.687C98.927 49.212 99.047 50.04 99.047 51.696C99.047 53.232 98.927 54 98.687 54H98.111C97.607 54 97.139 53.94 96.707 53.82C96.275 53.676 95.939 53.484 95.699 53.244C95.627 55.044 95.183 56.652 94.367 58.068C93.575 59.484 92.459 60.588 91.019 61.38C89.579 62.196 87.899 62.604 85.979 62.604H82.955L82.559 57.816H85.907C87.563 57.816 88.847 57.36 89.759 56.448C90.671 55.56 91.127 54.3 91.127 52.668V41.616H95.699V47.052ZM103.862 49.212C102.998 48.684 102.35 48.072 101.918 47.376C101.51 46.656 101.306 45.792 101.306 44.784C101.306 43.44 101.618 42.216 102.242 41.112C102.866 40.008 103.73 39.144 104.834 38.52C105.938 37.872 107.186 37.548 108.578 37.548C110.93 37.548 112.742 38.256 114.014 39.672C115.31 41.088 115.958 43.044 115.958 45.54V46.764C115.958 49.188 115.13 51 113.474 52.2C111.842 53.4 109.418 54 106.202 54H98.6777C98.4377 54 98.3177 53.232 98.3177 51.696C98.3177 50.04 98.4377 49.212 98.6777 49.212H102.782H103.862ZM110.594 48.852C111.146 48.276 111.422 47.412 111.422 46.26V45.72C111.422 43.32 110.462 42.12 108.542 42.12C107.798 42.12 107.162 42.384 106.634 42.912C106.13 43.416 105.878 44.04 105.878 44.784C105.878 45.648 106.226 46.392 106.922 47.016C107.618 47.616 108.842 48.228 110.594 48.852ZM106.13 34.272V30.168H111.026V34.272H106.13ZM219.587 52.488C219.587 55.632 218.747 58.104 217.067 59.904C215.411 61.704 213.131 62.604 210.227 62.604H205.295L204.899 57.816H210.515C211.931 57.816 213.035 57.468 213.827 56.772C214.619 56.1 215.015 55.176 215.015 54H212.495C209.903 54 208.043 53.46 206.915 52.38C205.811 51.3 205.259 49.584 205.259 47.232C205.259 45.696 205.559 44.328 206.159 43.128C206.759 41.928 207.599 40.992 208.679 40.32C209.783 39.648 211.055 39.312 212.495 39.312C214.703 39.312 216.431 40.032 217.679 41.472C218.951 42.912 219.587 44.904 219.587 47.448V52.488ZM209.795 47.052C209.795 47.82 209.999 48.384 210.407 48.744C210.839 49.08 211.595 49.248 212.675 49.248H215.015V47.376C215.015 46.224 214.787 45.348 214.331 44.748C213.875 44.148 213.215 43.848 212.351 43.848C211.535 43.848 210.899 44.148 210.443 44.748C210.011 45.324 209.795 46.092 209.795 47.052ZM237.99 42.696C238.878 43.728 239.502 44.664 239.862 45.504C240.222 46.344 240.402 47.232 240.402 48.168C240.402 49.872 239.79 51.276 238.566 52.38C237.366 53.46 235.686 54 233.526 54H223.77L223.41 49.212H233.31C234.054 49.212 234.63 49.092 235.038 48.852C235.446 48.612 235.65 48.276 235.65 47.844C235.65 47.532 235.566 47.232 235.398 46.944C235.23 46.632 234.918 46.212 234.462 45.684L228.27 38.412L231.582 35.136L237.99 42.696Z"/>
<path d="M143.015 46.728C143.015 47.592 143.171 48.228 143.483 48.636C143.795 49.02 144.263 49.212 144.887 49.212H146.003C146.123 49.212 146.207 49.368 146.255 49.68C146.327 49.992 146.363 50.664 146.363 51.696C146.363 52.656 146.327 53.28 146.255 53.568C146.207 53.856 146.123 54 146.003 54H144.851C143.555 54 142.475 53.784 141.611 53.352C140.771 52.896 140.183 52.164 139.847 51.156C139.343 51.588 138.683 51.912 137.867 52.128C137.075 52.32 136.247 52.416 135.383 52.416C133.223 52.416 131.567 51.828 130.415 50.652C129.287 49.452 128.723 47.676 128.723 45.324C128.723 43.98 129.023 42.732 129.623 41.58C130.247 40.404 131.111 39.468 132.215 38.772C133.343 38.052 134.627 37.692 136.067 37.692H138.443V35.352H143.015V46.728ZM133.259 45.288C133.259 46.08 133.439 46.68 133.799 47.088C134.183 47.472 134.795 47.664 135.635 47.664C136.547 47.664 137.243 47.508 137.723 47.196C138.227 46.86 138.479 46.392 138.479 45.792V42.264H136.139C134.219 42.264 133.259 43.272 133.259 45.288ZM150.174 49.212C150.774 49.212 151.254 49.056 151.614 48.744C151.998 48.408 152.19 47.952 152.19 47.376V41.616H156.762V47.232C156.762 48.552 157.434 49.212 158.778 49.212H160.146C160.386 49.212 160.506 50.016 160.506 51.624C160.506 53.208 160.386 54 160.146 54H158.562C156.546 54 155.178 53.424 154.458 52.272C154.026 52.872 153.45 53.316 152.73 53.604C152.034 53.868 151.182 54 150.174 54H145.998C145.758 54 145.638 53.232 145.638 51.696C145.638 50.04 145.758 49.212 145.998 49.212H150.174ZM157.806 33.768V37.872H147.654V33.768H157.806ZM172.047 38.412C173.535 38.412 174.747 38.664 175.683 39.168C176.619 39.672 177.399 40.524 178.023 41.724C178.647 42.9 179.211 44.592 179.715 46.8L177.447 48.24C177.663 48.552 178.011 48.792 178.491 48.96C178.971 49.128 179.535 49.212 180.183 49.212H182.343C182.583 49.212 182.703 50.04 182.703 51.696C182.703 52.68 182.667 53.316 182.595 53.604C182.523 53.868 182.439 54 182.343 54H179.931C178.587 54 177.459 53.736 176.547 53.208C175.659 52.68 174.855 51.78 174.135 50.508L172.767 51.372C171.135 52.38 169.575 53.076 168.087 53.46C166.599 53.82 164.763 54 162.579 54H160.131C159.891 54 159.771 53.232 159.771 51.696C159.771 50.04 159.891 49.212 160.131 49.212H162.795C164.619 49.212 166.119 49.092 167.295 48.852C168.495 48.612 169.731 48.132 171.003 47.412L174.351 45.504C174.111 44.592 173.751 43.98 173.271 43.668C172.815 43.332 172.119 43.164 171.183 43.164H162.939L163.479 38.412H172.047ZM167.187 34.776V30.672H172.083V34.776H167.187ZM192.466 47.592C192.466 49.584 191.866 51.156 190.666 52.308C189.49 53.436 187.894 54 185.878 54H182.35C182.11 54 181.99 53.232 181.99 51.696C181.99 50.04 182.11 49.212 182.35 49.212H185.878C186.478 49.212 186.958 49.056 187.318 48.744C187.702 48.408 187.894 47.952 187.894 47.376V41.616H192.466V47.592ZM193.33 33.768V37.872H183.178V33.768H193.33Z"/>
</mask>
<path d="M75.4448 47.052C75.4448 48.492 76.2128 49.212 77.7488 49.212C79.3088 49.212 80.0888 48.492 80.0888 47.052V41.616H84.6608V47.088C84.6608 49.272 84.0488 50.976 82.8248 52.2C81.6248 53.4 79.9328 54 77.7488 54C75.3728 54 73.7888 53.364 72.9968 52.092C72.1088 53.364 70.5968 54 68.4608 54C67.3088 54 66.4568 53.832 65.9048 53.496C65.8328 55.296 65.3648 56.88 64.5008 58.248C63.6608 59.616 62.4848 60.684 60.9728 61.452C59.4848 62.22 57.7688 62.604 55.8248 62.604H54.3848C51.2648 62.604 48.8528 61.704 47.1488 59.904C45.4688 58.128 44.6288 55.632 44.6288 52.416V45.216H49.2008V52.308C49.2008 54.132 49.6208 55.5 50.4608 56.412C51.3008 57.348 52.6088 57.816 54.3848 57.816H55.8248C57.5528 57.816 58.9088 57.36 59.8928 56.448C60.8768 55.536 61.3688 54.276 61.3688 52.668V41.616H65.9408V47.052C65.9408 48.492 66.7568 49.212 68.3888 49.212C69.2048 49.212 69.8168 49.02 70.2248 48.636C70.6568 48.252 70.8728 47.724 70.8728 47.052V41.616H75.4448V47.052ZM75.3008 28.116V32.04H70.9808V28.116H75.3008ZM78.2168 33.768V37.872H68.0648V33.768H78.2168ZM95.699 47.052C95.699 47.796 95.879 48.348 96.239 48.708C96.623 49.044 97.223 49.212 98.039 49.212H98.687C98.927 49.212 99.047 50.04 99.047 51.696C99.047 53.232 98.927 54 98.687 54H98.111C97.607 54 97.139 53.94 96.707 53.82C96.275 53.676 95.939 53.484 95.699 53.244C95.627 55.044 95.183 56.652 94.367 58.068C93.575 59.484 92.459 60.588 91.019 61.38C89.579 62.196 87.899 62.604 85.979 62.604H82.955L82.559 57.816H85.907C87.563 57.816 88.847 57.36 89.759 56.448C90.671 55.56 91.127 54.3 91.127 52.668V41.616H95.699V47.052ZM103.862 49.212C102.998 48.684 102.35 48.072 101.918 47.376C101.51 46.656 101.306 45.792 101.306 44.784C101.306 43.44 101.618 42.216 102.242 41.112C102.866 40.008 103.73 39.144 104.834 38.52C105.938 37.872 107.186 37.548 108.578 37.548C110.93 37.548 112.742 38.256 114.014 39.672C115.31 41.088 115.958 43.044 115.958 45.54V46.764C115.958 49.188 115.13 51 113.474 52.2C111.842 53.4 109.418 54 106.202 54H98.6777C98.4377 54 98.3177 53.232 98.3177 51.696C98.3177 50.04 98.4377 49.212 98.6777 49.212H102.782H103.862ZM110.594 48.852C111.146 48.276 111.422 47.412 111.422 46.26V45.72C111.422 43.32 110.462 42.12 108.542 42.12C107.798 42.12 107.162 42.384 106.634 42.912C106.13 43.416 105.878 44.04 105.878 44.784C105.878 45.648 106.226 46.392 106.922 47.016C107.618 47.616 108.842 48.228 110.594 48.852ZM106.13 34.272V30.168H111.026V34.272H106.13ZM219.587 52.488C219.587 55.632 218.747 58.104 217.067 59.904C215.411 61.704 213.131 62.604 210.227 62.604H205.295L204.899 57.816H210.515C211.931 57.816 213.035 57.468 213.827 56.772C214.619 56.1 215.015 55.176 215.015 54H212.495C209.903 54 208.043 53.46 206.915 52.38C205.811 51.3 205.259 49.584 205.259 47.232C205.259 45.696 205.559 44.328 206.159 43.128C206.759 41.928 207.599 40.992 208.679 40.32C209.783 39.648 211.055 39.312 212.495 39.312C214.703 39.312 216.431 40.032 217.679 41.472C218.951 42.912 219.587 44.904 219.587 47.448V52.488ZM209.795 47.052C209.795 47.82 209.999 48.384 210.407 48.744C210.839 49.08 211.595 49.248 212.675 49.248H215.015V47.376C215.015 46.224 214.787 45.348 214.331 44.748C213.875 44.148 213.215 43.848 212.351 43.848C211.535 43.848 210.899 44.148 210.443 44.748C210.011 45.324 209.795 46.092 209.795 47.052ZM237.99 42.696C238.878 43.728 239.502 44.664 239.862 45.504C240.222 46.344 240.402 47.232 240.402 48.168C240.402 49.872 239.79 51.276 238.566 52.38C237.366 53.46 235.686 54 233.526 54H223.77L223.41 49.212H233.31C234.054 49.212 234.63 49.092 235.038 48.852C235.446 48.612 235.65 48.276 235.65 47.844C235.65 47.532 235.566 47.232 235.398 46.944C235.23 46.632 234.918 46.212 234.462 45.684L228.27 38.412L231.582 35.136L237.99 42.696Z" fill="#E1E1E1"/>
<path d="M143.015 46.728C143.015 47.592 143.171 48.228 143.483 48.636C143.795 49.02 144.263 49.212 144.887 49.212H146.003C146.123 49.212 146.207 49.368 146.255 49.68C146.327 49.992 146.363 50.664 146.363 51.696C146.363 52.656 146.327 53.28 146.255 53.568C146.207 53.856 146.123 54 146.003 54H144.851C143.555 54 142.475 53.784 141.611 53.352C140.771 52.896 140.183 52.164 139.847 51.156C139.343 51.588 138.683 51.912 137.867 52.128C137.075 52.32 136.247 52.416 135.383 52.416C133.223 52.416 131.567 51.828 130.415 50.652C129.287 49.452 128.723 47.676 128.723 45.324C128.723 43.98 129.023 42.732 129.623 41.58C130.247 40.404 131.111 39.468 132.215 38.772C133.343 38.052 134.627 37.692 136.067 37.692H138.443V35.352H143.015V46.728ZM133.259 45.288C133.259 46.08 133.439 46.68 133.799 47.088C134.183 47.472 134.795 47.664 135.635 47.664C136.547 47.664 137.243 47.508 137.723 47.196C138.227 46.86 138.479 46.392 138.479 45.792V42.264H136.139C134.219 42.264 133.259 43.272 133.259 45.288ZM150.174 49.212C150.774 49.212 151.254 49.056 151.614 48.744C151.998 48.408 152.19 47.952 152.19 47.376V41.616H156.762V47.232C156.762 48.552 157.434 49.212 158.778 49.212H160.146C160.386 49.212 160.506 50.016 160.506 51.624C160.506 53.208 160.386 54 160.146 54H158.562C156.546 54 155.178 53.424 154.458 52.272C154.026 52.872 153.45 53.316 152.73 53.604C152.034 53.868 151.182 54 150.174 54H145.998C145.758 54 145.638 53.232 145.638 51.696C145.638 50.04 145.758 49.212 145.998 49.212H150.174ZM157.806 33.768V37.872H147.654V33.768H157.806ZM172.047 38.412C173.535 38.412 174.747 38.664 175.683 39.168C176.619 39.672 177.399 40.524 178.023 41.724C178.647 42.9 179.211 44.592 179.715 46.8L177.447 48.24C177.663 48.552 178.011 48.792 178.491 48.96C178.971 49.128 179.535 49.212 180.183 49.212H182.343C182.583 49.212 182.703 50.04 182.703 51.696C182.703 52.68 182.667 53.316 182.595 53.604C182.523 53.868 182.439 54 182.343 54H179.931C178.587 54 177.459 53.736 176.547 53.208C175.659 52.68 174.855 51.78 174.135 50.508L172.767 51.372C171.135 52.38 169.575 53.076 168.087 53.46C166.599 53.82 164.763 54 162.579 54H160.131C159.891 54 159.771 53.232 159.771 51.696C159.771 50.04 159.891 49.212 160.131 49.212H162.795C164.619 49.212 166.119 49.092 167.295 48.852C168.495 48.612 169.731 48.132 171.003 47.412L174.351 45.504C174.111 44.592 173.751 43.98 173.271 43.668C172.815 43.332 172.119 43.164 171.183 43.164H162.939L163.479 38.412H172.047ZM167.187 34.776V30.672H172.083V34.776H167.187ZM192.466 47.592C192.466 49.584 191.866 51.156 190.666 52.308C189.49 53.436 187.894 54 185.878 54H182.35C182.11 54 181.99 53.232 181.99 51.696C181.99 50.04 182.11 49.212 182.35 49.212H185.878C186.478 49.212 186.958 49.056 187.318 48.744C187.702 48.408 187.894 47.952 187.894 47.376V41.616H192.466V47.592ZM193.33 33.768V37.872H183.178V33.768H193.33Z" fill="#5CE5DE"/>
<path d="M80.0888 41.616V40.316H78.7888V41.616H80.0888ZM84.6608 41.616H85.9608V40.316H84.6608V41.616ZM82.8248 52.2L81.9056 51.2808L81.9056 51.2808L82.8248 52.2ZM72.9968 52.092L74.1004 51.4049L73.0588 49.7321L71.9309 51.3478L72.9968 52.092ZM65.9048 53.496L66.5807 52.3855L64.6941 51.2372L64.6058 53.444L65.9048 53.496ZM64.5008 58.248L63.4017 57.5538L63.3973 57.5608L63.393 57.5678L64.5008 58.248ZM60.9728 61.452L60.3841 60.2929L60.3766 60.2968L60.9728 61.452ZM47.1488 59.904L46.2044 60.7974L46.2047 60.7977L47.1488 59.904ZM44.6288 45.216V43.916H43.3288V45.216H44.6288ZM49.2008 45.216H50.5008V43.916H49.2008V45.216ZM50.4608 56.412L51.4283 55.5437L51.4227 55.5375L51.417 55.5313L50.4608 56.412ZM59.8928 56.448L60.7765 57.4015L60.7765 57.4015L59.8928 56.448ZM61.3688 41.616V40.316H60.0688V41.616H61.3688ZM65.9408 41.616H67.2408V40.316H65.9408V41.616ZM70.2248 48.636L69.3611 47.6644L69.3473 47.6767L69.3338 47.6893L70.2248 48.636ZM70.8728 41.616V40.316H69.5728V41.616H70.8728ZM75.4448 41.616H76.7448V40.316H75.4448V41.616ZM75.3008 28.116H76.6008V26.816H75.3008V28.116ZM75.3008 32.04V33.34H76.6008V32.04H75.3008ZM70.9808 32.04H69.6808V33.34H70.9808V32.04ZM70.9808 28.116V26.816H69.6808V28.116H70.9808ZM78.2168 33.768H79.5168V32.468H78.2168V33.768ZM78.2168 37.872V39.172H79.5168V37.872H78.2168ZM68.0648 37.872H66.7648V39.172H68.0648V37.872ZM68.0648 33.768V32.468H66.7648V33.768H68.0648ZM74.1448 47.052C74.1448 47.9946 74.4002 48.9346 75.1317 49.6204C75.8474 50.2914 76.8005 50.512 77.7488 50.512V47.912C77.1611 47.912 76.9622 47.7726 76.9099 47.7236C76.8734 47.6894 76.7448 47.5494 76.7448 47.052H74.1448ZM77.7488 50.512C78.7045 50.512 79.6637 50.2936 80.3856 49.6272C81.1271 48.9427 81.3888 48.0003 81.3888 47.052H78.7888C78.7888 47.5437 78.6605 47.6813 78.622 47.7168C78.5639 47.7704 78.3531 47.912 77.7488 47.912V50.512ZM81.3888 47.052V41.616H78.7888V47.052H81.3888ZM80.0888 42.916H84.6608V40.316H80.0888V42.916ZM83.3608 41.616V47.088H85.9608V41.616H83.3608ZM83.3608 47.088C83.3608 49.0222 82.8259 50.3604 81.9056 51.2808L83.744 53.1192C85.2717 51.5916 85.9608 49.5218 85.9608 47.088H83.3608ZM81.9056 51.2808C81.0139 52.1724 79.6915 52.7 77.7488 52.7V55.3C80.1741 55.3 82.2357 54.6276 83.744 53.1192L81.9056 51.2808ZM77.7488 52.7C75.5464 52.7 74.539 52.1093 74.1004 51.4049L71.8932 52.7791C73.0386 54.6187 75.1992 55.3 77.7488 55.3V52.7ZM71.9309 51.3478C71.3709 52.1499 70.3459 52.7 68.4608 52.7V55.3C70.8477 55.3 72.8467 54.5781 74.0627 52.8362L71.9309 51.3478ZM68.4608 52.7C67.3858 52.7 66.8251 52.5343 66.5807 52.3855L65.2289 54.6065C66.0885 55.1297 67.2318 55.3 68.4608 55.3V52.7ZM64.6058 53.444C64.5419 55.0426 64.1305 56.3999 63.4017 57.5538L65.5999 58.9422C66.5991 57.3601 67.1237 55.5494 67.2038 53.548L64.6058 53.444ZM63.393 57.5678C62.6857 58.7196 61.6948 59.6272 60.3841 60.2929L61.5615 62.6111C63.2748 61.7408 64.6359 60.5124 65.6086 58.9282L63.393 57.5678ZM60.3766 60.2968C59.1005 60.9554 57.5948 61.304 55.8248 61.304V63.904C57.9428 63.904 59.8691 63.4846 61.569 62.6072L60.3766 60.2968ZM55.8248 61.304H54.3848V63.904H55.8248V61.304ZM54.3848 61.304C51.5237 61.304 49.4911 60.4873 48.0929 59.0103L46.2047 60.7977C48.2145 62.9207 51.0059 63.904 54.3848 63.904V61.304ZM48.0932 59.0106C46.7063 57.5444 45.9288 55.4076 45.9288 52.416H43.3288C43.3288 55.8564 44.2313 58.7116 46.2044 60.7974L48.0932 59.0106ZM45.9288 52.416V45.216H43.3288V52.416H45.9288ZM44.6288 46.516H49.2008V43.916H44.6288V46.516ZM47.9008 45.216V52.308H50.5008V45.216H47.9008ZM47.9008 52.308C47.9008 54.3071 48.3589 56.0488 49.5046 57.2927L51.417 55.5313C50.8827 54.9512 50.5008 53.9569 50.5008 52.308H47.9008ZM49.4933 57.2803C50.668 58.5893 52.3962 59.116 54.3848 59.116V56.516C52.8214 56.516 51.9336 56.1067 51.4283 55.5437L49.4933 57.2803ZM54.3848 59.116H55.8248V56.516H54.3848V59.116ZM55.8248 59.116C57.783 59.116 59.4891 58.5947 60.7765 57.4015L59.0091 55.4945C58.3285 56.1253 57.3226 56.516 55.8248 56.516V59.116ZM60.7765 57.4015C62.0781 56.1951 62.6688 54.56 62.6688 52.668H60.0688C60.0688 53.992 59.6755 54.8769 59.0091 55.4945L60.7765 57.4015ZM62.6688 52.668V41.616H60.0688V52.668H62.6688ZM61.3688 42.916H65.9408V40.316H61.3688V42.916ZM64.6408 41.616V47.052H67.2408V41.616H64.6408ZM64.6408 47.052C64.6408 48.0175 64.9219 48.9666 65.6927 49.6468C66.4325 50.2995 67.4097 50.512 68.3888 50.512V47.912C67.7359 47.912 67.4891 47.7645 67.4129 47.6972C67.3677 47.6574 67.2408 47.5265 67.2408 47.052H64.6408ZM68.3888 50.512C69.3862 50.512 70.3761 50.2788 71.1158 49.5827L69.3338 47.6893C69.2575 47.7612 69.0234 47.912 68.3888 47.912V50.512ZM71.0885 49.6076C71.8441 48.9359 72.1728 48.0288 72.1728 47.052H69.5728C69.5728 47.4192 69.4695 47.5681 69.3611 47.6644L71.0885 49.6076ZM72.1728 47.052V41.616H69.5728V47.052H72.1728ZM70.8728 42.916H75.4448V40.316H70.8728V42.916ZM74.1448 41.616V47.052H76.7448V41.616H74.1448ZM74.0008 28.116V32.04H76.6008V28.116H74.0008ZM75.3008 30.74H70.9808V33.34H75.3008V30.74ZM72.2808 32.04V28.116H69.6808V32.04H72.2808ZM70.9808 29.416H75.3008V26.816H70.9808V29.416ZM76.9168 33.768V37.872H79.5168V33.768H76.9168ZM78.2168 36.572H68.0648V39.172H78.2168V36.572ZM69.3648 37.872V33.768H66.7648V37.872H69.3648ZM68.0648 35.068H78.2168V32.468H68.0648V35.068ZM96.239 48.708L95.3198 49.6272L95.3504 49.6578L95.383 49.6863L96.239 48.708ZM96.707 53.82L96.2959 55.0533L96.3273 55.0637L96.3591 55.0726L96.707 53.82ZM95.699 53.244L96.6183 52.3248L94.5187 50.2252L94.4001 53.192L95.699 53.244ZM94.367 58.068L93.2407 57.4189L93.2365 57.4261L93.2324 57.4334L94.367 58.068ZM91.019 61.38L90.3925 60.2409L90.3853 60.2449L90.3781 60.249L91.019 61.38ZM82.955 62.604L81.6594 62.7112L81.7581 63.904H82.955V62.604ZM82.559 57.816V56.516H81.1471L81.2634 57.9232L82.559 57.816ZM89.759 56.448L88.8521 55.5166L88.8459 55.5226L88.8398 55.5288L89.759 56.448ZM91.127 41.616V40.316H89.827V41.616H91.127ZM95.699 41.616H96.999V40.316H95.699V41.616ZM94.399 47.052C94.399 47.982 94.6229 48.9304 95.3198 49.6272L97.1583 47.7888C97.1351 47.7656 96.999 47.61 96.999 47.052H94.399ZM95.383 49.6863C96.1104 50.3228 97.0863 50.512 98.039 50.512V47.912C97.3597 47.912 97.1357 47.7652 97.0951 47.7297L95.383 49.6863ZM98.039 50.512H98.687V47.912H98.039V50.512ZM98.687 50.512C98.3008 50.512 98.0168 50.3324 97.8588 50.1766C97.721 50.0408 97.6645 49.9137 97.6523 49.8856C97.6275 49.8286 97.6455 49.8472 97.6705 50.0195C97.7166 50.3377 97.747 50.8825 97.747 51.696H100.347C100.347 50.8535 100.317 50.1563 100.244 49.6465C100.209 49.4048 100.151 49.1129 100.037 48.8489C99.9724 48.701 99.6103 47.912 98.687 47.912V50.512ZM97.747 51.696C97.747 52.4483 97.7165 52.9423 97.6726 53.2233C97.6486 53.3769 97.6337 53.3763 97.6674 53.3042C97.685 53.2666 97.7488 53.1375 97.8942 53.0046C98.0604 52.8526 98.3337 52.7 98.687 52.7V55.3C99.5587 55.3 99.9347 54.5932 100.022 54.4078C100.145 54.1437 100.205 53.8551 100.241 53.6247C100.318 53.1377 100.347 52.4797 100.347 51.696H97.747ZM98.687 52.7H98.111V55.3H98.687V52.7ZM98.111 52.7C97.7103 52.7 97.3606 52.6523 97.055 52.5674L96.3591 55.0726C96.9174 55.2277 97.5038 55.3 98.111 55.3V52.7ZM97.1181 52.5867C96.8152 52.4857 96.6754 52.3819 96.6183 52.3248L94.7798 54.1632C95.2027 54.5861 95.7349 54.8663 96.2959 55.0533L97.1181 52.5867ZM94.4001 53.192C94.3356 54.8039 93.9413 56.2031 93.2407 57.4189L95.4934 58.7171C96.4248 57.1009 96.9184 55.2841 96.998 53.296L94.4001 53.192ZM93.2324 57.4334C92.5608 58.6341 91.6222 59.5646 90.3925 60.2409L91.6455 62.5191C93.2958 61.6114 94.5892 60.3339 95.5016 58.7026L93.2324 57.4334ZM90.3781 60.249C89.1629 60.9376 87.7107 61.304 85.979 61.304V63.904C88.0874 63.904 89.9952 63.4544 91.6599 62.511L90.3781 60.249ZM85.979 61.304H82.955V63.904H85.979V61.304ZM84.2506 62.4968L83.8546 57.7088L81.2634 57.9232L81.6594 62.7112L84.2506 62.4968ZM82.559 59.116H85.907V56.516H82.559V59.116ZM85.907 59.116C87.8053 59.116 89.4585 58.587 90.6783 57.3672L88.8398 55.5288C88.2356 56.133 87.3207 56.516 85.907 56.516V59.116ZM90.6659 57.3794C91.8951 56.1825 92.427 54.5467 92.427 52.668H89.827C89.827 54.0533 89.4469 54.9375 88.8521 55.5166L90.6659 57.3794ZM92.427 52.668V41.616H89.827V52.668H92.427ZM91.127 42.916H95.699V40.316H91.127V42.916ZM94.399 41.616V47.052H96.999V41.616H94.399ZM103.862 49.212V50.512H108.482L104.54 48.1027L103.862 49.212ZM101.918 47.376L100.787 48.0169L100.8 48.0395L100.813 48.0616L101.918 47.376ZM102.242 41.112L103.373 41.7517L103.373 41.7517L102.242 41.112ZM104.834 38.52L105.473 39.6517L105.483 39.6465L105.492 39.6411L104.834 38.52ZM114.014 39.672L113.047 40.5408L113.055 40.5497L114.014 39.672ZM113.474 52.2L112.711 51.1473L112.704 51.1527L113.474 52.2ZM110.594 48.852L110.158 50.0766L110.95 50.3589L111.532 49.7515L110.594 48.852ZM106.634 42.912L105.714 41.9928L105.714 41.9928L106.634 42.912ZM106.922 47.016L106.054 47.9839L106.063 47.9924L106.073 48.0006L106.922 47.016ZM106.13 34.272H104.83V35.572H106.13V34.272ZM106.13 30.168V28.868H104.83V30.168H106.13ZM111.026 30.168H112.326V28.868H111.026V30.168ZM111.026 34.272V35.572H112.326V34.272H111.026ZM104.54 48.1027C103.809 47.6561 103.325 47.1778 103.022 46.6904L100.813 48.0616C101.375 48.9662 102.187 49.7119 103.184 50.3213L104.54 48.1027ZM103.049 46.7351C102.773 46.249 102.606 45.6161 102.606 44.784H100.006C100.006 45.9679 100.246 47.063 100.787 48.0169L103.049 46.7351ZM102.606 44.784C102.606 43.6503 102.866 42.6488 103.373 41.7517L101.11 40.4723C100.369 41.7832 100.006 43.2297 100.006 44.784H102.606ZM103.373 41.7517C103.881 40.8534 104.575 40.1595 105.473 39.6517L104.194 37.3883C102.884 38.1285 101.85 39.1626 101.11 40.4723L103.373 41.7517ZM105.492 39.6411C106.379 39.1204 107.396 38.848 108.578 38.848V36.248C106.975 36.248 105.496 36.6236 104.176 37.3989L105.492 39.6411ZM108.578 38.848C110.655 38.848 112.078 39.462 113.047 40.5407L114.981 38.8033C113.406 37.05 111.205 36.248 108.578 36.248V38.848ZM113.055 40.5497C114.072 41.6611 114.658 43.2686 114.658 45.54H117.258C117.258 42.8194 116.548 40.5149 114.973 38.7943L113.055 40.5497ZM114.658 45.54V46.764H117.258V45.54H114.658ZM114.658 46.764C114.658 48.859 113.964 50.2391 112.711 51.1473L114.237 53.2527C116.295 51.7609 117.258 49.517 117.258 46.764H114.658ZM112.704 51.1527C111.392 52.1173 109.292 52.7 106.202 52.7V55.3C109.544 55.3 112.292 54.6827 114.244 53.2473L112.704 51.1527ZM106.202 52.7H98.6777V55.3H106.202V52.7ZM98.6777 52.7C99.0311 52.7 99.3043 52.8526 99.4706 53.0046C99.6159 53.1375 99.6797 53.2666 99.6973 53.3042C99.7311 53.3763 99.7162 53.3769 99.6921 53.2233C99.6482 52.9423 99.6177 52.4483 99.6177 51.696H97.0177C97.0177 52.4797 97.0472 53.1377 97.1233 53.6247C97.1593 53.8551 97.2194 54.1437 97.3431 54.4078C97.4301 54.5932 97.8061 55.3 98.6777 55.3V52.7ZM99.6177 51.696C99.6177 50.8825 99.6482 50.3377 99.6943 50.0195C99.7193 49.8472 99.7372 49.8286 99.7124 49.8856C99.7002 49.9137 99.6438 50.0408 99.506 50.1766C99.3479 50.3324 99.064 50.512 98.6777 50.512V47.912C97.7544 47.912 97.3924 48.701 97.328 48.8489C97.2133 49.1129 97.1562 49.4048 97.1212 49.6465C97.0473 50.1563 97.0177 50.8535 97.0177 51.696H99.6177ZM98.6777 50.512H102.782V47.912H98.6777V50.512ZM102.782 50.512H103.862V47.912H102.782V50.512ZM111.532 49.7515C112.402 48.8442 112.722 47.5989 112.722 46.26H110.122C110.122 47.2251 109.89 47.7078 109.655 47.9525L111.532 49.7515ZM112.722 46.26V45.72H110.122V46.26H112.722ZM112.722 45.72C112.722 44.3811 112.46 43.1364 111.717 42.2079C110.93 41.224 109.789 40.82 108.542 40.82V43.42C109.215 43.42 109.514 43.616 109.687 43.8321C109.904 44.1036 110.122 44.6589 110.122 45.72H112.722ZM108.542 40.82C107.452 40.82 106.485 41.222 105.714 41.9928L107.553 43.8312C107.838 43.546 108.144 43.42 108.542 43.42V40.82ZM105.714 41.9928C104.955 42.7522 104.578 43.7121 104.578 44.784H107.178C107.178 44.3679 107.304 44.0798 107.553 43.8312L105.714 41.9928ZM104.578 44.784C104.578 46.0501 105.108 47.136 106.054 47.9839L107.79 46.0481C107.343 45.648 107.178 45.2459 107.178 44.784H104.578ZM106.073 48.0006C106.961 48.7658 108.377 49.4425 110.158 50.0766L111.03 47.6274C109.307 47.0135 108.275 46.4662 107.771 46.0314L106.073 48.0006ZM107.43 34.272V30.168H104.83V34.272H107.43ZM106.13 31.468H111.026V28.868H106.13V31.468ZM109.726 30.168V34.272H112.326V30.168H109.726ZM111.026 32.972H106.13V35.572H111.026V32.972ZM143.483 48.636L142.45 49.4257L142.462 49.4409L142.474 49.4558L143.483 48.636ZM146.255 49.68L144.97 49.8777L144.977 49.9253L144.988 49.9723L146.255 49.68ZM146.255 53.568L144.993 53.2527L144.981 53.3031L144.972 53.3543L146.255 53.568ZM141.611 53.352L140.99 54.4945L141.01 54.505L141.029 54.5148L141.611 53.352ZM139.847 51.156L141.08 50.7449L140.468 48.9107L139.001 50.169L139.847 51.156ZM137.867 52.128L138.173 53.3914L138.186 53.3882L138.199 53.3847L137.867 52.128ZM130.415 50.652L129.467 51.5424L129.477 51.5521L129.486 51.5617L130.415 50.652ZM129.623 41.58L128.474 40.9707L128.47 40.9795L129.623 41.58ZM132.215 38.772L132.908 39.8717L132.914 39.8678L132.215 38.772ZM138.443 37.692V38.992H139.743V37.692H138.443ZM138.443 35.352V34.052H137.143V35.352H138.443ZM143.015 35.352H144.315V34.052H143.015V35.352ZM133.799 47.088L132.824 47.9481L132.851 47.9785L132.879 48.0072L133.799 47.088ZM137.723 47.196L138.431 48.286L138.437 48.2819L138.444 48.2777L137.723 47.196ZM138.479 42.264H139.779V40.964H138.479V42.264ZM141.715 46.728C141.715 47.7005 141.881 48.6821 142.45 49.4257L144.515 47.8463C144.46 47.7739 144.315 47.4835 144.315 46.728H141.715ZM142.474 49.4558C143.095 50.2207 143.983 50.512 144.887 50.512V47.912C144.705 47.912 144.606 47.8839 144.561 47.8653C144.523 47.8499 144.507 47.8356 144.491 47.8162L142.474 49.4558ZM144.887 50.512H146.003V47.912H144.887V50.512ZM146.003 50.512C145.727 50.512 145.48 50.4149 145.296 50.2739C145.131 50.1474 145.046 50.0108 145.011 49.9453C144.948 49.8284 144.953 49.7723 144.97 49.8777L147.539 49.4823C147.508 49.2757 147.447 48.9856 147.3 48.7127C147.151 48.436 146.749 47.912 146.003 47.912V50.512ZM144.988 49.9723C145.02 50.1135 145.063 50.6305 145.063 51.696H147.663C147.663 50.6975 147.633 49.8705 147.521 49.3877L144.988 49.9723ZM145.063 51.696C145.063 52.1627 145.054 52.5315 145.038 52.8091C145.03 52.9476 145.02 53.0554 145.011 53.1361C145.001 53.2215 144.993 53.2547 144.993 53.2527L147.516 53.8833C147.634 53.4113 147.663 52.6193 147.663 51.696H145.063ZM144.972 53.3543C144.958 53.4416 144.957 53.367 145.033 53.237C145.076 53.1633 145.168 53.0299 145.336 52.9109C145.521 52.7808 145.753 52.7 146.003 52.7V55.3C146.696 55.3 147.105 54.8445 147.278 54.547C147.438 54.273 147.503 53.9824 147.537 53.7817L144.972 53.3543ZM146.003 52.7H144.851V55.3H146.003V52.7ZM144.851 52.7C143.691 52.7 142.825 52.5056 142.192 52.1892L141.029 54.5148C142.125 55.0624 143.419 55.3 144.851 55.3V52.7ZM142.231 52.2095C141.714 51.9288 141.324 51.478 141.08 50.7449L138.613 51.5671C139.041 52.85 139.827 53.8632 140.99 54.4945L142.231 52.2095ZM139.001 50.169C138.68 50.4438 138.21 50.6922 137.534 50.8713L138.199 53.3847C139.155 53.1318 140.005 52.7322 140.693 52.143L139.001 50.169ZM137.56 50.8646C136.874 51.0309 136.15 51.116 135.383 51.116V53.716C136.344 53.716 137.275 53.6091 138.173 53.3914L137.56 50.8646ZM135.383 51.116C133.458 51.116 132.181 50.5977 131.343 49.7423L129.486 51.5617C130.952 53.0583 132.987 53.716 135.383 53.716V51.116ZM131.362 49.7616C130.542 48.889 130.023 47.4865 130.023 45.324H127.423C127.423 47.8655 128.032 50.015 129.467 51.5424L131.362 49.7616ZM130.023 45.324C130.023 44.1816 130.276 43.1405 130.776 42.1805L128.47 40.9795C127.77 42.3235 127.423 43.7784 127.423 45.324H130.023ZM130.771 42.1893C131.291 41.2095 132 40.4442 132.908 39.8717L131.521 37.6723C130.221 38.4918 129.202 39.5985 128.474 40.9707L130.771 42.1893ZM132.914 39.8678C133.817 39.2914 134.855 38.992 136.067 38.992V36.392C134.398 36.392 132.868 36.8126 131.515 37.6762L132.914 39.8678ZM136.067 38.992H138.443V36.392H136.067V38.992ZM139.743 37.692V35.352H137.143V37.692H139.743ZM138.443 36.652H143.015V34.052H138.443V36.652ZM141.715 35.352V46.728H144.315V35.352H141.715ZM131.959 45.288C131.959 46.2551 132.176 47.2144 132.824 47.9481L134.773 46.2279C134.701 46.1456 134.559 45.9049 134.559 45.288H131.959ZM132.879 48.0072C133.612 48.74 134.634 48.964 135.635 48.964V46.364C134.955 46.364 134.753 46.204 134.718 46.1688L132.879 48.0072ZM135.635 48.964C136.662 48.964 137.649 48.7941 138.431 48.286L137.014 46.106C136.836 46.2219 136.431 46.364 135.635 46.364V48.964ZM138.444 48.2777C139.305 47.7033 139.779 46.8316 139.779 45.792H137.179C137.179 45.905 137.156 45.9554 137.145 45.9767C137.133 45.9985 137.101 46.0478 137.001 46.1143L138.444 48.2777ZM139.779 45.792V42.264H137.179V45.792H139.779ZM138.479 40.964H136.139V43.564H138.479V40.964ZM136.139 40.964C134.962 40.964 133.844 41.2761 133.037 42.1234C132.242 42.9589 131.959 44.095 131.959 45.288H134.559C134.559 44.465 134.756 44.0891 134.92 43.9166C135.073 43.7559 135.396 43.564 136.139 43.564V40.964ZM151.614 48.744L152.465 49.7264L152.47 49.7223L151.614 48.744ZM152.19 41.616V40.316H150.89V41.616H152.19ZM156.762 41.616H158.062V40.316H156.762V41.616ZM154.458 52.272L155.56 51.583L154.534 49.9412L153.403 51.5124L154.458 52.272ZM152.73 53.604L153.191 54.8195L153.202 54.8154L153.213 54.811L152.73 53.604ZM157.806 33.768H159.106V32.468H157.806V33.768ZM157.806 37.872V39.172H159.106V37.872H157.806ZM147.654 37.872H146.354V39.172H147.654V37.872ZM147.654 33.768V32.468H146.354V33.768H147.654ZM150.174 50.512C151.003 50.512 151.813 50.2921 152.465 49.7264L150.763 47.7616C150.695 47.8199 150.545 47.912 150.174 47.912V50.512ZM152.47 49.7223C153.174 49.1061 153.49 48.273 153.49 47.376H150.89C150.89 47.631 150.822 47.7099 150.758 47.7656L152.47 49.7223ZM153.49 47.376V41.616H150.89V47.376H153.49ZM152.19 42.916H156.762V40.316H152.19V42.916ZM155.462 41.616V47.232H158.062V41.616H155.462ZM155.462 47.232C155.462 48.0984 155.684 48.9856 156.355 49.6445C157.022 50.2991 157.911 50.512 158.778 50.512V47.912C158.301 47.912 158.182 47.7949 158.177 47.7895C158.176 47.7884 158.062 47.6856 158.062 47.232H155.462ZM158.778 50.512H160.146V47.912H158.778V50.512ZM160.146 50.512C159.773 50.512 159.493 50.3434 159.332 50.1888C159.191 50.054 159.131 49.9259 159.117 49.894C159.089 49.831 159.106 49.842 159.13 50.0069C159.176 50.3104 159.206 50.8349 159.206 51.624H161.806C161.806 50.8051 161.777 50.1236 161.702 49.6231C161.666 49.386 161.608 49.0955 161.49 48.8315C161.417 48.6683 161.049 47.912 160.146 47.912V50.512ZM159.206 51.624C159.206 52.4008 159.176 52.9152 159.131 53.2113C159.106 53.3724 159.09 53.3795 159.12 53.3136C159.135 53.2798 159.196 53.1513 159.339 53.017C159.502 52.8632 159.78 52.7 160.146 52.7V55.3C161.039 55.3 161.409 54.5602 161.487 54.3894C161.607 54.1255 161.666 53.8356 161.701 53.6007C161.777 53.1048 161.806 52.4312 161.806 51.624H159.206ZM160.146 52.7H158.562V55.3H160.146V52.7ZM158.562 52.7C156.761 52.7 155.941 52.192 155.56 51.583L153.356 52.961C154.415 54.656 156.331 55.3 158.562 55.3V52.7ZM153.403 51.5124C153.123 51.9019 152.75 52.196 152.247 52.397L153.213 54.811C154.15 54.436 154.929 53.8421 155.513 53.0316L153.403 51.5124ZM152.269 52.3885C151.762 52.5807 151.077 52.7 150.174 52.7V55.3C151.287 55.3 152.306 55.1553 153.191 54.8195L152.269 52.3885ZM150.174 52.7H145.998V55.3H150.174V52.7ZM145.998 52.7C146.351 52.7 146.625 52.8526 146.791 53.0046C146.936 53.1375 147 53.2666 147.018 53.3042C147.051 53.3763 147.036 53.3769 147.012 53.2233C146.969 52.9423 146.938 52.4483 146.938 51.696H144.338C144.338 52.4797 144.368 53.1377 144.444 53.6247C144.48 53.8551 144.54 54.1437 144.663 54.4078C144.75 54.5932 145.126 55.3 145.998 55.3V52.7ZM146.938 51.696C146.938 50.8825 146.968 50.3377 147.015 50.0195C147.04 49.8472 147.058 49.8286 147.033 49.8856C147.021 49.9137 146.964 50.0408 146.826 50.1766C146.668 50.3324 146.384 50.512 145.998 50.512V47.912C145.075 47.912 144.713 48.701 144.648 48.8489C144.534 49.1129 144.477 49.4048 144.441 49.6465C144.368 50.1563 144.338 50.8535 144.338 51.696H146.938ZM145.998 50.512H150.174V47.912H145.998V50.512ZM156.506 33.768V37.872H159.106V33.768H156.506ZM157.806 36.572H147.654V39.172H157.806V36.572ZM148.954 37.872V33.768H146.354V37.872H148.954ZM147.654 35.068H157.806V32.468H147.654V35.068ZM178.023 41.724L176.869 42.3238L176.875 42.3333L178.023 41.724ZM179.715 46.8L180.412 47.8975L181.187 47.4055L180.982 46.5107L179.715 46.8ZM177.447 48.24L176.75 47.1425L175.608 47.8677L176.378 48.98L177.447 48.24ZM178.491 48.96L178.92 47.733L178.92 47.733L178.491 48.96ZM182.595 53.604L183.849 53.946L183.853 53.9327L183.856 53.9193L182.595 53.604ZM176.547 53.208L175.882 54.3254L175.889 54.3293L175.896 54.3331L176.547 53.208ZM174.135 50.508L175.266 49.8676L174.594 48.6803L173.441 49.4089L174.135 50.508ZM172.767 51.372L173.45 52.4781L173.461 52.4711L172.767 51.372ZM168.087 53.46L168.393 54.7235L168.402 54.7212L168.412 54.7188L168.087 53.46ZM167.295 48.852L167.04 47.5772L167.035 47.5783L167.295 48.852ZM171.003 47.412L171.643 48.5433L171.647 48.5415L171.003 47.412ZM174.351 45.504L174.995 46.6335L175.862 46.139L175.608 45.1732L174.351 45.504ZM173.271 43.668L172.5 44.7146L172.53 44.7372L172.562 44.758L173.271 43.668ZM162.939 43.164L161.647 43.0172L161.483 44.464H162.939V43.164ZM163.479 38.412V37.112H162.318L162.187 38.2652L163.479 38.412ZM167.187 34.776H165.887V36.076H167.187V34.776ZM167.187 30.672V29.372H165.887V30.672H167.187ZM172.083 30.672H173.383V29.372H172.083V30.672ZM172.083 34.776V36.076H173.383V34.776H172.083ZM172.047 39.712C173.401 39.712 174.38 39.9432 175.067 40.3126L176.299 38.0234C175.113 37.3848 173.669 37.112 172.047 37.112V39.712ZM175.067 40.3126C175.718 40.6632 176.333 41.2923 176.869 42.3238L179.176 41.1242C178.465 39.7557 177.52 38.6808 176.299 38.0234L175.067 40.3126ZM176.875 42.3333C177.42 43.3622 177.954 44.9266 178.447 47.0893L180.982 46.5107C180.468 44.2574 179.873 42.4378 179.171 41.1147L176.875 42.3333ZM179.018 45.7025L176.75 47.1425L178.144 49.3375L180.412 47.8975L179.018 45.7025ZM176.378 48.98C176.796 49.5834 177.409 49.9588 178.061 50.187L178.92 47.733C178.612 47.6252 178.53 47.5206 178.516 47.5L176.378 48.98ZM178.061 50.187C178.711 50.4145 179.427 50.512 180.183 50.512V47.912C179.643 47.912 179.23 47.8415 178.92 47.733L178.061 50.187ZM180.183 50.512H182.343V47.912H180.183V50.512ZM182.343 50.512C181.957 50.512 181.673 50.3324 181.515 50.1766C181.377 50.0408 181.32 49.9137 181.308 49.8856C181.283 49.8286 181.301 49.8472 181.326 50.0195C181.372 50.3377 181.403 50.8825 181.403 51.696H184.003C184.003 50.8535 183.973 50.1563 183.899 49.6465C183.864 49.4048 183.807 49.1129 183.693 48.8489C183.628 48.701 183.266 47.912 182.343 47.912V50.512ZM181.403 51.696C181.403 52.1751 181.394 52.5534 181.378 52.8375C181.37 52.9794 181.361 53.0895 181.351 53.1718C181.341 53.2592 181.333 53.2921 181.334 53.2887L183.856 53.9193C183.974 53.4464 184.003 52.6404 184.003 51.696H181.403ZM181.341 53.262C181.317 53.3473 181.32 53.2998 181.381 53.2031C181.423 53.1374 181.719 52.7 182.343 52.7V55.3C183.062 55.3 183.449 54.7966 183.575 54.5989C183.72 54.3702 183.8 54.1247 183.849 53.946L181.341 53.262ZM182.343 52.7H179.931V55.3H182.343V52.7ZM179.931 52.7C178.754 52.7 177.865 52.4689 177.198 52.0829L175.896 54.3331C177.053 55.0031 178.42 55.3 179.931 55.3V52.7ZM177.211 52.0906C176.582 51.7165 175.918 51.0199 175.266 49.8676L173.004 51.1484C173.791 52.5401 174.736 53.6435 175.882 54.3254L177.211 52.0906ZM173.441 49.4089L172.073 50.2729L173.461 52.4711L174.829 51.6071L173.441 49.4089ZM172.084 50.266C170.536 51.2216 169.097 51.8568 167.762 52.2012L168.412 54.7188C170.053 54.2952 171.733 53.5384 173.45 52.478L172.084 50.266ZM167.781 52.1965C166.426 52.5244 164.7 52.7 162.579 52.7V55.3C164.826 55.3 166.772 55.1156 168.393 54.7235L167.781 52.1965ZM162.579 52.7H160.131V55.3H162.579V52.7ZM160.131 52.7C160.484 52.7 160.757 52.8526 160.924 53.0046C161.069 53.1375 161.133 53.2666 161.15 53.3042C161.184 53.3763 161.169 53.3769 161.145 53.2233C161.101 52.9423 161.071 52.4483 161.071 51.696H158.471C158.471 52.4797 158.5 53.1377 158.576 53.6247C158.612 53.8551 158.673 54.1437 158.796 54.4078C158.883 54.5932 159.259 55.3 160.131 55.3V52.7ZM161.071 51.696C161.071 50.8825 161.101 50.3377 161.147 50.0195C161.172 49.8472 161.19 49.8286 161.166 49.8856C161.153 49.9137 161.097 50.0408 160.959 50.1766C160.801 50.3324 160.517 50.512 160.131 50.512V47.912C159.208 47.912 158.845 48.701 158.781 48.8489C158.666 49.1129 158.609 49.4048 158.574 49.6465C158.5 50.1563 158.471 50.8535 158.471 51.696H161.071ZM160.131 50.512H162.795V47.912H160.131V50.512ZM162.795 50.512C164.666 50.512 166.261 50.3897 167.555 50.1257L167.035 47.5783C165.976 47.7943 164.572 47.912 162.795 47.912V50.512ZM167.55 50.1268C168.908 49.855 170.274 49.3185 171.643 48.5433L170.362 46.2807C169.188 46.9455 168.081 47.369 167.04 47.5772L167.55 50.1268ZM171.647 48.5415L174.995 46.6335L173.707 44.3745L170.359 46.2825L171.647 48.5415ZM175.608 45.1732C175.336 44.1383 174.859 43.1497 173.979 42.578L172.562 44.758C172.643 44.8103 172.886 45.0457 173.094 45.8348L175.608 45.1732ZM174.042 42.6214C173.259 42.0443 172.231 41.864 171.183 41.864V44.464C172.006 44.464 172.371 44.6197 172.5 44.7146L174.042 42.6214ZM171.183 41.864H162.939V44.464H171.183V41.864ZM164.231 43.3108L164.771 38.5588L162.187 38.2652L161.647 43.0172L164.231 43.3108ZM163.479 39.712H172.047V37.112H163.479V39.712ZM168.487 34.776V30.672H165.887V34.776H168.487ZM167.187 31.972H172.083V29.372H167.187V31.972ZM170.783 30.672V34.776H173.383V30.672H170.783ZM172.083 33.476H167.187V36.076H172.083V33.476ZM190.666 52.308L191.566 53.2462L191.566 53.2458L190.666 52.308ZM187.318 48.744L188.169 49.7264L188.174 49.7223L187.318 48.744ZM187.894 41.616V40.316H186.594V41.616H187.894ZM192.466 41.616H193.766V40.316H192.466V41.616ZM193.33 33.768H194.63V32.468H193.33V33.768ZM193.33 37.872V39.172H194.63V37.872H193.33ZM183.178 37.872H181.878V39.172H183.178V37.872ZM183.178 33.768V32.468H181.878V33.768H183.178ZM191.166 47.592C191.166 49.3054 190.66 50.511 189.765 51.3702L191.566 53.2458C193.071 51.801 193.766 49.8626 193.766 47.592H191.166ZM189.766 51.3698C188.886 52.2135 187.642 52.7 185.878 52.7V55.3C188.145 55.3 190.093 54.6585 191.566 53.2462L189.766 51.3698ZM185.878 52.7H182.35V55.3H185.878V52.7ZM182.35 52.7C182.703 52.7 182.976 52.8526 183.142 53.0046C183.288 53.1375 183.352 53.2666 183.369 53.3042C183.403 53.3763 183.388 53.3769 183.364 53.2233C183.32 52.9423 183.29 52.4483 183.29 51.696H180.69C180.69 52.4797 180.719 53.1377 180.795 53.6247C180.831 53.8551 180.891 54.1437 181.015 54.4078C181.102 54.5932 181.478 55.3 182.35 55.3V52.7ZM183.29 51.696C183.29 50.8825 183.32 50.3377 183.366 50.0195C183.391 49.8472 183.409 49.8286 183.384 49.8856C183.372 49.9137 183.316 50.0408 183.178 50.1766C183.02 50.3324 182.736 50.512 182.35 50.512V47.912C181.426 47.912 181.064 48.701 181 48.8489C180.885 49.1129 180.828 49.4048 180.793 49.6465C180.719 50.1563 180.69 50.8535 180.69 51.696H183.29ZM182.35 50.512H185.878V47.912H182.35V50.512ZM185.878 50.512C186.707 50.512 187.516 50.2921 188.169 49.7264L186.466 47.7616C186.399 47.8199 186.249 47.912 185.878 47.912V50.512ZM188.174 49.7223C188.878 49.1061 189.194 48.273 189.194 47.376H186.594C186.594 47.631 186.525 47.7099 186.462 47.7656L188.174 49.7223ZM189.194 47.376V41.616H186.594V47.376H189.194ZM187.894 42.916H192.466V40.316H187.894V42.916ZM191.166 41.616V47.592H193.766V41.616H191.166ZM192.03 33.768V37.872H194.63V33.768H192.03ZM193.33 36.572H183.178V39.172H193.33V36.572ZM184.478 37.872V33.768H181.878V37.872H184.478ZM183.178 35.068H193.33V32.468H183.178V35.068ZM217.067 59.904L216.116 59.017L216.11 59.0238L217.067 59.904ZM205.295 62.604L203.999 62.7112L204.098 63.904H205.295V62.604ZM204.899 57.816V56.516H203.487L203.603 57.9232L204.899 57.816ZM213.827 56.772L212.985 55.7807L212.977 55.788L212.968 55.7955L213.827 56.772ZM215.015 54H216.315V52.7H215.015V54ZM206.915 52.38L206.005 53.3093L206.016 53.319L206.915 52.38ZM206.159 43.128L204.996 42.5466L204.996 42.5466L206.159 43.128ZM208.679 40.32L208.003 39.2095L207.992 39.2162L208.679 40.32ZM217.679 41.472L216.696 42.3234L216.704 42.3326L217.679 41.472ZM210.407 48.744L209.546 49.7188L209.577 49.7454L209.608 49.7702L210.407 48.744ZM215.015 49.248V50.548H216.315V49.248H215.015ZM214.331 44.748L213.296 45.5346L213.296 45.5346L214.331 44.748ZM210.443 44.748L209.408 43.9614L209.403 43.968L210.443 44.748ZM218.287 52.488C218.287 55.3974 217.514 57.519 216.116 59.017L218.017 60.791C219.979 58.689 220.887 55.8666 220.887 52.488H218.287ZM216.11 59.0238C214.746 60.5062 212.841 61.304 210.227 61.304V63.904C213.42 63.904 216.075 62.9018 218.023 60.7842L216.11 59.0238ZM210.227 61.304H205.295V63.904H210.227V61.304ZM206.59 62.4968L206.194 57.7088L203.603 57.9232L203.999 62.7112L206.59 62.4968ZM204.899 59.116H210.515V56.516H204.899V59.116ZM210.515 59.116C212.137 59.116 213.584 58.7155 214.685 57.7485L212.968 55.7955C212.485 56.2205 211.724 56.516 210.515 56.516V59.116ZM214.668 57.7633C215.791 56.8099 216.315 55.5013 216.315 54H213.715C213.715 54.8507 213.446 55.3901 212.985 55.7807L214.668 57.7633ZM215.015 52.7H212.495V55.3H215.015V52.7ZM212.495 52.7C210.03 52.7 208.582 52.1771 207.814 51.441L206.016 53.319C207.503 54.7429 209.776 55.3 212.495 55.3V52.7ZM207.824 51.4507C207.074 50.7177 206.559 49.4145 206.559 47.232H203.959C203.959 49.7535 204.547 51.8823 206.005 53.3093L207.824 51.4507ZM206.559 47.232C206.559 45.8685 206.824 44.7043 207.321 43.7094L204.996 42.5466C204.293 43.9517 203.959 45.5235 203.959 47.232H206.559ZM207.321 43.7094C207.82 42.7118 208.501 41.9619 209.365 41.4238L207.992 39.2162C206.697 40.0221 205.697 41.1442 204.996 42.5466L207.321 43.7094ZM209.354 41.4305C210.232 40.8962 211.265 40.612 212.495 40.612V38.012C210.844 38.012 209.333 38.3998 208.003 39.2095L209.354 41.4305ZM212.495 40.612C214.392 40.612 215.735 41.2149 216.696 42.3234L218.661 40.6206C217.126 38.8491 215.013 38.012 212.495 38.012V40.612ZM216.704 42.3326C217.706 43.467 218.287 45.1165 218.287 47.448H220.887C220.887 44.6915 220.195 42.357 218.653 40.6114L216.704 42.3326ZM218.287 47.448V52.488H220.887V47.448H218.287ZM208.495 47.052C208.495 48.0346 208.759 49.0236 209.546 49.7188L211.267 47.7692C211.238 47.7444 211.095 47.6054 211.095 47.052H208.495ZM209.608 49.7702C210.404 50.3887 211.543 50.548 212.675 50.548V47.948C211.646 47.948 211.273 47.7713 211.205 47.7178L209.608 49.7702ZM212.675 50.548H215.015V47.948H212.675V50.548ZM216.315 49.248V47.376H213.715V49.248H216.315ZM216.315 47.376C216.315 46.0818 216.063 44.8792 215.366 43.9614L213.296 45.5346C213.51 45.8168 213.715 46.3662 213.715 47.376H216.315ZM215.366 43.9614C214.625 42.9876 213.553 42.548 212.351 42.548V45.148C212.876 45.148 213.124 45.3084 213.296 45.5346L215.366 43.9614ZM212.351 42.548C211.167 42.548 210.132 43.0082 209.408 43.9614L211.478 45.5346C211.665 45.2878 211.902 45.148 212.351 45.148V42.548ZM209.403 43.968C208.753 44.8336 208.495 45.9038 208.495 47.052H211.095C211.095 46.2802 211.268 45.8144 211.483 45.528L209.403 43.968ZM237.99 42.696L236.998 43.5366L237.004 43.5439L237.99 42.696ZM239.862 45.504L238.667 46.0161L238.667 46.0161L239.862 45.504ZM238.566 52.38L239.436 53.3463L239.437 53.3453L238.566 52.38ZM223.77 54L222.474 54.0975L222.564 55.3H223.77V54ZM223.41 49.212V47.912H222.008L222.114 49.3095L223.41 49.212ZM235.398 46.944L234.253 47.5603L234.264 47.5799L234.275 47.599L235.398 46.944ZM234.462 45.684L233.472 46.5268L233.478 46.5337L234.462 45.684ZM228.27 38.412L227.356 37.4878L226.498 38.3362L227.28 39.2548L228.27 38.412ZM231.582 35.136L232.574 34.2954L231.666 33.2245L230.668 34.2118L231.582 35.136ZM237.004 43.5439C237.844 44.5195 238.378 45.3421 238.667 46.0161L241.057 44.9919C240.626 43.9859 239.912 42.9365 238.975 41.8481L237.004 43.5439ZM238.667 46.0161C238.956 46.6903 239.102 47.4037 239.102 48.168H241.702C241.702 47.0603 241.488 45.9977 241.057 44.9919L238.667 46.0161ZM239.102 48.168C239.102 49.5181 238.636 50.5665 237.695 51.4147L239.437 53.3453C240.944 51.9855 241.702 50.2259 241.702 48.168H239.102ZM237.696 51.4137C236.806 52.2151 235.475 52.7 233.526 52.7V55.3C235.897 55.3 237.926 54.7049 239.436 53.3463L237.696 51.4137ZM233.526 52.7H223.77V55.3H233.526V52.7ZM225.066 53.9025L224.706 49.1145L222.114 49.3095L222.474 54.0975L225.066 53.9025ZM223.41 50.512H233.31V47.912H223.41V50.512ZM233.31 50.512C234.165 50.512 235.006 50.379 235.697 49.9725L234.379 47.7315C234.254 47.805 233.943 47.912 233.31 47.912V50.512ZM235.697 49.9725C236.456 49.526 236.95 48.7876 236.95 47.844H234.35C234.35 47.8491 234.349 47.8382 234.355 47.8163C234.361 47.7936 234.372 47.7686 234.386 47.7453C234.416 47.6956 234.435 47.6983 234.379 47.7315L235.697 49.9725ZM236.95 47.844C236.95 47.286 236.796 46.7616 236.521 46.289L234.275 47.599C234.335 47.7024 234.35 47.778 234.35 47.844H236.95ZM236.542 46.3277C236.305 45.8863 235.916 45.3791 235.446 44.8343L233.478 46.5337C233.919 47.0449 234.155 47.3777 234.253 47.5603L236.542 46.3277ZM235.452 44.8412L229.26 37.5692L227.28 39.2548L233.472 46.5268L235.452 44.8412ZM229.184 39.3362L232.496 36.0602L230.668 34.2118L227.356 37.4878L229.184 39.3362ZM230.59 35.9766L236.998 43.5366L238.982 41.8554L232.574 34.2954L230.59 35.9766Z" fill="black" mask="url(#path-1-outside-1_610_19)"/>
<path d="M80.0888 41.616V40.316H78.7888V41.616H80.0888ZM84.6608 41.616H85.9608V40.316H84.6608V41.616ZM82.8248 52.2L81.9056 51.2808L81.9056 51.2808L82.8248 52.2ZM72.9968 52.092L74.1004 51.4049L73.0588 49.7321L71.9309 51.3478L72.9968 52.092ZM65.9048 53.496L66.5807 52.3855L64.6941 51.2372L64.6058 53.444L65.9048 53.496ZM64.5008 58.248L63.4017 57.5538L63.3973 57.5608L63.393 57.5678L64.5008 58.248ZM60.9728 61.452L60.3841 60.2929L60.3766 60.2968L60.9728 61.452ZM47.1488 59.904L46.2044 60.7974L46.2047 60.7977L47.1488 59.904ZM44.6288 45.216V43.916H43.3288V45.216H44.6288ZM49.2008 45.216H50.5008V43.916H49.2008V45.216ZM50.4608 56.412L51.4283 55.5437L51.4227 55.5375L51.417 55.5313L50.4608 56.412ZM59.8928 56.448L60.7765 57.4015L60.7765 57.4015L59.8928 56.448ZM61.3688 41.616V40.316H60.0688V41.616H61.3688ZM65.9408 41.616H67.2408V40.316H65.9408V41.616ZM70.2248 48.636L69.3611 47.6644L69.3473 47.6767L69.3338 47.6893L70.2248 48.636ZM70.8728 41.616V40.316H69.5728V41.616H70.8728ZM75.4448 41.616H76.7448V40.316H75.4448V41.616ZM75.3008 28.116H76.6008V26.816H75.3008V28.116ZM75.3008 32.04V33.34H76.6008V32.04H75.3008ZM70.9808 32.04H69.6808V33.34H70.9808V32.04ZM70.9808 28.116V26.816H69.6808V28.116H70.9808ZM78.2168 33.768H79.5168V32.468H78.2168V33.768ZM78.2168 37.872V39.172H79.5168V37.872H78.2168ZM68.0648 37.872H66.7648V39.172H68.0648V37.872ZM68.0648 33.768V32.468H66.7648V33.768H68.0648ZM74.1448 47.052C74.1448 47.9946 74.4002 48.9346 75.1317 49.6204C75.8474 50.2914 76.8005 50.512 77.7488 50.512V47.912C77.1611 47.912 76.9622 47.7726 76.9099 47.7236C76.8734 47.6894 76.7448 47.5494 76.7448 47.052H74.1448ZM77.7488 50.512C78.7045 50.512 79.6637 50.2936 80.3856 49.6272C81.1271 48.9427 81.3888 48.0003 81.3888 47.052H78.7888C78.7888 47.5437 78.6605 47.6813 78.622 47.7168C78.5639 47.7704 78.3531 47.912 77.7488 47.912V50.512ZM81.3888 47.052V41.616H78.7888V47.052H81.3888ZM80.0888 42.916H84.6608V40.316H80.0888V42.916ZM83.3608 41.616V47.088H85.9608V41.616H83.3608ZM83.3608 47.088C83.3608 49.0222 82.8259 50.3604 81.9056 51.2808L83.744 53.1192C85.2717 51.5916 85.9608 49.5218 85.9608 47.088H83.3608ZM81.9056 51.2808C81.0139 52.1724 79.6915 52.7 77.7488 52.7V55.3C80.1741 55.3 82.2357 54.6276 83.744 53.1192L81.9056 51.2808ZM77.7488 52.7C75.5464 52.7 74.539 52.1093 74.1004 51.4049L71.8932 52.7791C73.0386 54.6187 75.1992 55.3 77.7488 55.3V52.7ZM71.9309 51.3478C71.3709 52.1499 70.3459 52.7 68.4608 52.7V55.3C70.8477 55.3 72.8467 54.5781 74.0627 52.8362L71.9309 51.3478ZM68.4608 52.7C67.3858 52.7 66.8251 52.5343 66.5807 52.3855L65.2289 54.6065C66.0885 55.1297 67.2318 55.3 68.4608 55.3V52.7ZM64.6058 53.444C64.5419 55.0426 64.1305 56.3999 63.4017 57.5538L65.5999 58.9422C66.5991 57.3601 67.1237 55.5494 67.2038 53.548L64.6058 53.444ZM63.393 57.5678C62.6857 58.7196 61.6948 59.6272 60.3841 60.2929L61.5615 62.6111C63.2748 61.7408 64.6359 60.5124 65.6086 58.9282L63.393 57.5678ZM60.3766 60.2968C59.1005 60.9554 57.5948 61.304 55.8248 61.304V63.904C57.9428 63.904 59.8691 63.4846 61.569 62.6072L60.3766 60.2968ZM55.8248 61.304H54.3848V63.904H55.8248V61.304ZM54.3848 61.304C51.5237 61.304 49.4911 60.4873 48.0929 59.0103L46.2047 60.7977C48.2145 62.9207 51.0059 63.904 54.3848 63.904V61.304ZM48.0932 59.0106C46.7063 57.5444 45.9288 55.4076 45.9288 52.416H43.3288C43.3288 55.8564 44.2313 58.7116 46.2044 60.7974L48.0932 59.0106ZM45.9288 52.416V45.216H43.3288V52.416H45.9288ZM44.6288 46.516H49.2008V43.916H44.6288V46.516ZM47.9008 45.216V52.308H50.5008V45.216H47.9008ZM47.9008 52.308C47.9008 54.3071 48.3589 56.0488 49.5046 57.2927L51.417 55.5313C50.8827 54.9512 50.5008 53.9569 50.5008 52.308H47.9008ZM49.4933 57.2803C50.668 58.5893 52.3962 59.116 54.3848 59.116V56.516C52.8214 56.516 51.9336 56.1067 51.4283 55.5437L49.4933 57.2803ZM54.3848 59.116H55.8248V56.516H54.3848V59.116ZM55.8248 59.116C57.783 59.116 59.4891 58.5947 60.7765 57.4015L59.0091 55.4945C58.3285 56.1253 57.3226 56.516 55.8248 56.516V59.116ZM60.7765 57.4015C62.0781 56.1951 62.6688 54.56 62.6688 52.668H60.0688C60.0688 53.992 59.6755 54.8769 59.0091 55.4945L60.7765 57.4015ZM62.6688 52.668V41.616H60.0688V52.668H62.6688ZM61.3688 42.916H65.9408V40.316H61.3688V42.916ZM64.6408 41.616V47.052H67.2408V41.616H64.6408ZM64.6408 47.052C64.6408 48.0175 64.9219 48.9666 65.6927 49.6468C66.4325 50.2995 67.4097 50.512 68.3888 50.512V47.912C67.7359 47.912 67.4891 47.7645 67.4129 47.6972C67.3677 47.6574 67.2408 47.5265 67.2408 47.052H64.6408ZM68.3888 50.512C69.3862 50.512 70.3761 50.2788 71.1158 49.5827L69.3338 47.6893C69.2575 47.7612 69.0234 47.912 68.3888 47.912V50.512ZM71.0885 49.6076C71.8441 48.9359 72.1728 48.0288 72.1728 47.052H69.5728C69.5728 47.4192 69.4695 47.5681 69.3611 47.6644L71.0885 49.6076ZM72.1728 47.052V41.616H69.5728V47.052H72.1728ZM70.8728 42.916H75.4448V40.316H70.8728V42.916ZM74.1448 41.616V47.052H76.7448V41.616H74.1448ZM74.0008 28.116V32.04H76.6008V28.116H74.0008ZM75.3008 30.74H70.9808V33.34H75.3008V30.74ZM72.2808 32.04V28.116H69.6808V32.04H72.2808ZM70.9808 29.416H75.3008V26.816H70.9808V29.416ZM76.9168 33.768V37.872H79.5168V33.768H76.9168ZM78.2168 36.572H68.0648V39.172H78.2168V36.572ZM69.3648 37.872V33.768H66.7648V37.872H69.3648ZM68.0648 35.068H78.2168V32.468H68.0648V35.068ZM96.239 48.708L95.3198 49.6272L95.3504 49.6578L95.383 49.6863L96.239 48.708ZM96.707 53.82L96.2959 55.0533L96.3273 55.0637L96.3591 55.0726L96.707 53.82ZM95.699 53.244L96.6183 52.3248L94.5187 50.2252L94.4001 53.192L95.699 53.244ZM94.367 58.068L93.2407 57.4189L93.2365 57.4261L93.2324 57.4334L94.367 58.068ZM91.019 61.38L90.3925 60.2409L90.3853 60.2449L90.3781 60.249L91.019 61.38ZM82.955 62.604L81.6594 62.7112L81.7581 63.904H82.955V62.604ZM82.559 57.816V56.516H81.1471L81.2634 57.9232L82.559 57.816ZM89.759 56.448L88.8521 55.5166L88.8459 55.5226L88.8398 55.5288L89.759 56.448ZM91.127 41.616V40.316H89.827V41.616H91.127ZM95.699 41.616H96.999V40.316H95.699V41.616ZM94.399 47.052C94.399 47.982 94.6229 48.9304 95.3198 49.6272L97.1583 47.7888C97.1351 47.7656 96.999 47.61 96.999 47.052H94.399ZM95.383 49.6863C96.1104 50.3228 97.0863 50.512 98.039 50.512V47.912C97.3597 47.912 97.1357 47.7652 97.0951 47.7297L95.383 49.6863ZM98.039 50.512H98.687V47.912H98.039V50.512ZM98.687 50.512C98.3008 50.512 98.0168 50.3324 97.8588 50.1766C97.721 50.0408 97.6645 49.9137 97.6523 49.8856C97.6275 49.8286 97.6455 49.8472 97.6705 50.0195C97.7166 50.3377 97.747 50.8825 97.747 51.696H100.347C100.347 50.8535 100.317 50.1563 100.244 49.6465C100.209 49.4048 100.151 49.1129 100.037 48.8489C99.9724 48.701 99.6103 47.912 98.687 47.912V50.512ZM97.747 51.696C97.747 52.4483 97.7165 52.9423 97.6726 53.2233C97.6486 53.3769 97.6337 53.3763 97.6674 53.3042C97.685 53.2666 97.7488 53.1375 97.8942 53.0046C98.0604 52.8526 98.3337 52.7 98.687 52.7V55.3C99.5587 55.3 99.9347 54.5932 100.022 54.4078C100.145 54.1437 100.205 53.8551 100.241 53.6247C100.318 53.1377 100.347 52.4797 100.347 51.696H97.747ZM98.687 52.7H98.111V55.3H98.687V52.7ZM98.111 52.7C97.7103 52.7 97.3606 52.6523 97.055 52.5674L96.3591 55.0726C96.9174 55.2277 97.5038 55.3 98.111 55.3V52.7ZM97.1181 52.5867C96.8152 52.4857 96.6754 52.3819 96.6183 52.3248L94.7798 54.1632C95.2027 54.5861 95.7349 54.8663 96.2959 55.0533L97.1181 52.5867ZM94.4001 53.192C94.3356 54.8039 93.9413 56.2031 93.2407 57.4189L95.4934 58.7171C96.4248 57.1009 96.9184 55.2841 96.998 53.296L94.4001 53.192ZM93.2324 57.4334C92.5608 58.6341 91.6222 59.5646 90.3925 60.2409L91.6455 62.5191C93.2958 61.6114 94.5892 60.3339 95.5016 58.7026L93.2324 57.4334ZM90.3781 60.249C89.1629 60.9376 87.7107 61.304 85.979 61.304V63.904C88.0874 63.904 89.9952 63.4544 91.6599 62.511L90.3781 60.249ZM85.979 61.304H82.955V63.904H85.979V61.304ZM84.2506 62.4968L83.8546 57.7088L81.2634 57.9232L81.6594 62.7112L84.2506 62.4968ZM82.559 59.116H85.907V56.516H82.559V59.116ZM85.907 59.116C87.8053 59.116 89.4585 58.587 90.6783 57.3672L88.8398 55.5288C88.2356 56.133 87.3207 56.516 85.907 56.516V59.116ZM90.6659 57.3794C91.8951 56.1825 92.427 54.5467 92.427 52.668H89.827C89.827 54.0533 89.4469 54.9375 88.8521 55.5166L90.6659 57.3794ZM92.427 52.668V41.616H89.827V52.668H92.427ZM91.127 42.916H95.699V40.316H91.127V42.916ZM94.399 41.616V47.052H96.999V41.616H94.399ZM103.862 49.212V50.512H108.482L104.54 48.1027L103.862 49.212ZM101.918 47.376L100.787 48.0169L100.8 48.0395L100.813 48.0616L101.918 47.376ZM102.242 41.112L103.373 41.7517L103.373 41.7517L102.242 41.112ZM104.834 38.52L105.473 39.6517L105.483 39.6465L105.492 39.6411L104.834 38.52ZM114.014 39.672L113.047 40.5408L113.055 40.5497L114.014 39.672ZM113.474 52.2L112.711 51.1473L112.704 51.1527L113.474 52.2ZM110.594 48.852L110.158 50.0766L110.95 50.3589L111.532 49.7515L110.594 48.852ZM106.634 42.912L105.714 41.9928L105.714 41.9928L106.634 42.912ZM106.922 47.016L106.054 47.9839L106.063 47.9924L106.073 48.0006L106.922 47.016ZM106.13 34.272H104.83V35.572H106.13V34.272ZM106.13 30.168V28.868H104.83V30.168H106.13ZM111.026 30.168H112.326V28.868H111.026V30.168ZM111.026 34.272V35.572H112.326V34.272H111.026ZM104.54 48.1027C103.809 47.6561 103.325 47.1778 103.022 46.6904L100.813 48.0616C101.375 48.9662 102.187 49.7119 103.184 50.3213L104.54 48.1027ZM103.049 46.7351C102.773 46.249 102.606 45.6161 102.606 44.784H100.006C100.006 45.9679 100.246 47.063 100.787 48.0169L103.049 46.7351ZM102.606 44.784C102.606 43.6503 102.866 42.6488 103.373 41.7517L101.11 40.4723C100.369 41.7832 100.006 43.2297 100.006 44.784H102.606ZM103.373 41.7517C103.881 40.8534 104.575 40.1595 105.473 39.6517L104.194 37.3883C102.884 38.1285 101.85 39.1626 101.11 40.4723L103.373 41.7517ZM105.492 39.6411C106.379 39.1204 107.396 38.848 108.578 38.848V36.248C106.975 36.248 105.496 36.6236 104.176 37.3989L105.492 39.6411ZM108.578 38.848C110.655 38.848 112.078 39.462 113.047 40.5407L114.981 38.8033C113.406 37.05 111.205 36.248 108.578 36.248V38.848ZM113.055 40.5497C114.072 41.6611 114.658 43.2686 114.658 45.54H117.258C117.258 42.8194 116.548 40.5149 114.973 38.7943L113.055 40.5497ZM114.658 45.54V46.764H117.258V45.54H114.658ZM114.658 46.764C114.658 48.859 113.964 50.2391 112.711 51.1473L114.237 53.2527C116.295 51.7609 117.258 49.517 117.258 46.764H114.658ZM112.704 51.1527C111.392 52.1173 109.292 52.7 106.202 52.7V55.3C109.544 55.3 112.292 54.6827 114.244 53.2473L112.704 51.1527ZM106.202 52.7H98.6777V55.3H106.202V52.7ZM98.6777 52.7C99.0311 52.7 99.3043 52.8526 99.4706 53.0046C99.6159 53.1375 99.6797 53.2666 99.6973 53.3042C99.7311 53.3763 99.7162 53.3769 99.6921 53.2233C99.6482 52.9423 99.6177 52.4483 99.6177 51.696H97.0177C97.0177 52.4797 97.0472 53.1377 97.1233 53.6247C97.1593 53.8551 97.2194 54.1437 97.3431 54.4078C97.4301 54.5932 97.8061 55.3 98.6777 55.3V52.7ZM99.6177 51.696C99.6177 50.8825 99.6482 50.3377 99.6943 50.0195C99.7193 49.8472 99.7372 49.8286 99.7124 49.8856C99.7002 49.9137 99.6438 50.0408 99.506 50.1766C99.3479 50.3324 99.064 50.512 98.6777 50.512V47.912C97.7544 47.912 97.3924 48.701 97.328 48.8489C97.2133 49.1129 97.1562 49.4048 97.1212 49.6465C97.0473 50.1563 97.0177 50.8535 97.0177 51.696H99.6177ZM98.6777 50.512H102.782V47.912H98.6777V50.512ZM102.782 50.512H103.862V47.912H102.782V50.512ZM111.532 49.7515C112.402 48.8442 112.722 47.5989 112.722 46.26H110.122C110.122 47.2251 109.89 47.7078 109.655 47.9525L111.532 49.7515ZM112.722 46.26V45.72H110.122V46.26H112.722ZM112.722 45.72C112.722 44.3811 112.46 43.1364 111.717 42.2079C110.93 41.224 109.789 40.82 108.542 40.82V43.42C109.215 43.42 109.514 43.616 109.687 43.8321C109.904 44.1036 110.122 44.6589 110.122 45.72H112.722ZM108.542 40.82C107.452 40.82 106.485 41.222 105.714 41.9928L107.553 43.8312C107.838 43.546 108.144 43.42 108.542 43.42V40.82ZM105.714 41.9928C104.955 42.7522 104.578 43.7121 104.578 44.784H107.178C107.178 44.3679 107.304 44.0798 107.553 43.8312L105.714 41.9928ZM104.578 44.784C104.578 46.0501 105.108 47.136 106.054 47.9839L107.79 46.0481C107.343 45.648 107.178 45.2459 107.178 44.784H104.578ZM106.073 48.0006C106.961 48.7658 108.377 49.4425 110.158 50.0766L111.03 47.6274C109.307 47.0135 108.275 46.4662 107.771 46.0314L106.073 48.0006ZM107.43 34.272V30.168H104.83V34.272H107.43ZM106.13 31.468H111.026V28.868H106.13V31.468ZM109.726 30.168V34.272H112.326V30.168H109.726ZM111.026 32.972H106.13V35.572H111.026V32.972ZM143.483 48.636L142.45 49.4257L142.462 49.4409L142.474 49.4558L143.483 48.636ZM146.255 49.68L144.97 49.8777L144.977 49.9253L144.988 49.9723L146.255 49.68ZM146.255 53.568L144.993 53.2527L144.981 53.3031L144.972 53.3543L146.255 53.568ZM141.611 53.352L140.99 54.4945L141.01 54.505L141.029 54.5148L141.611 53.352ZM139.847 51.156L141.08 50.7449L140.468 48.9107L139.001 50.169L139.847 51.156ZM137.867 52.128L138.173 53.3914L138.186 53.3882L138.199 53.3847L137.867 52.128ZM130.415 50.652L129.467 51.5424L129.477 51.5521L129.486 51.5617L130.415 50.652ZM129.623 41.58L128.474 40.9707L128.47 40.9795L129.623 41.58ZM132.215 38.772L132.908 39.8717L132.914 39.8678L132.215 38.772ZM138.443 37.692V38.992H139.743V37.692H138.443ZM138.443 35.352V34.052H137.143V35.352H138.443ZM143.015 35.352H144.315V34.052H143.015V35.352ZM133.799 47.088L132.824 47.9481L132.851 47.9785L132.879 48.0072L133.799 47.088ZM137.723 47.196L138.431 48.286L138.437 48.2819L138.444 48.2777L137.723 47.196ZM138.479 42.264H139.779V40.964H138.479V42.264ZM141.715 46.728C141.715 47.7005 141.881 48.6821 142.45 49.4257L144.515 47.8463C144.46 47.7739 144.315 47.4835 144.315 46.728H141.715ZM142.474 49.4558C143.095 50.2207 143.983 50.512 144.887 50.512V47.912C144.705 47.912 144.606 47.8839 144.561 47.8653C144.523 47.8499 144.507 47.8356 144.491 47.8162L142.474 49.4558ZM144.887 50.512H146.003V47.912H144.887V50.512ZM146.003 50.512C145.727 50.512 145.48 50.4149 145.296 50.2739C145.131 50.1474 145.046 50.0108 145.011 49.9453C144.948 49.8284 144.953 49.7723 144.97 49.8777L147.539 49.4823C147.508 49.2757 147.447 48.9856 147.3 48.7127C147.151 48.436 146.749 47.912 146.003 47.912V50.512ZM144.988 49.9723C145.02 50.1135 145.063 50.6305 145.063 51.696H147.663C147.663 50.6975 147.633 49.8705 147.521 49.3877L144.988 49.9723ZM145.063 51.696C145.063 52.1627 145.054 52.5315 145.038 52.8091C145.03 52.9476 145.02 53.0554 145.011 53.1361C145.001 53.2215 144.993 53.2547 144.993 53.2527L147.516 53.8833C147.634 53.4113 147.663 52.6193 147.663 51.696H145.063ZM144.972 53.3543C144.958 53.4416 144.957 53.367 145.033 53.237C145.076 53.1633 145.168 53.0299 145.336 52.9109C145.521 52.7808 145.753 52.7 146.003 52.7V55.3C146.696 55.3 147.105 54.8445 147.278 54.547C147.438 54.273 147.503 53.9824 147.537 53.7817L144.972 53.3543ZM146.003 52.7H144.851V55.3H146.003V52.7ZM144.851 52.7C143.691 52.7 142.825 52.5056 142.192 52.1892L141.029 54.5148C142.125 55.0624 143.419 55.3 144.851 55.3V52.7ZM142.231 52.2095C141.714 51.9288 141.324 51.478 141.08 50.7449L138.613 51.5671C139.041 52.85 139.827 53.8632 140.99 54.4945L142.231 52.2095ZM139.001 50.169C138.68 50.4438 138.21 50.6922 137.534 50.8713L138.199 53.3847C139.155 53.1318 140.005 52.7322 140.693 52.143L139.001 50.169ZM137.56 50.8646C136.874 51.0309 136.15 51.116 135.383 51.116V53.716C136.344 53.716 137.275 53.6091 138.173 53.3914L137.56 50.8646ZM135.383 51.116C133.458 51.116 132.181 50.5977 131.343 49.7423L129.486 51.5617C130.952 53.0583 132.987 53.716 135.383 53.716V51.116ZM131.362 49.7616C130.542 48.889 130.023 47.4865 130.023 45.324H127.423C127.423 47.8655 128.032 50.015 129.467 51.5424L131.362 49.7616ZM130.023 45.324C130.023 44.1816 130.276 43.1405 130.776 42.1805L128.47 40.9795C127.77 42.3235 127.423 43.7784 127.423 45.324H130.023ZM130.771 42.1893C131.291 41.2095 132 40.4442 132.908 39.8717L131.521 37.6723C130.221 38.4918 129.202 39.5985 128.474 40.9707L130.771 42.1893ZM132.914 39.8678C133.817 39.2914 134.855 38.992 136.067 38.992V36.392C134.398 36.392 132.868 36.8126 131.515 37.6762L132.914 39.8678ZM136.067 38.992H138.443V36.392H136.067V38.992ZM139.743 37.692V35.352H137.143V37.692H139.743ZM138.443 36.652H143.015V34.052H138.443V36.652ZM141.715 35.352V46.728H144.315V35.352H141.715ZM131.959 45.288C131.959 46.2551 132.176 47.2144 132.824 47.9481L134.773 46.2279C134.701 46.1456 134.559 45.9049 134.559 45.288H131.959ZM132.879 48.0072C133.612 48.74 134.634 48.964 135.635 48.964V46.364C134.955 46.364 134.753 46.204 134.718 46.1688L132.879 48.0072ZM135.635 48.964C136.662 48.964 137.649 48.7941 138.431 48.286L137.014 46.106C136.836 46.2219 136.431 46.364 135.635 46.364V48.964ZM138.444 48.2777C139.305 47.7033 139.779 46.8316 139.779 45.792H137.179C137.179 45.905 137.156 45.9554 137.145 45.9767C137.133 45.9985 137.101 46.0478 137.001 46.1143L138.444 48.2777ZM139.779 45.792V42.264H137.179V45.792H139.779ZM138.479 40.964H136.139V43.564H138.479V40.964ZM136.139 40.964C134.962 40.964 133.844 41.2761 133.037 42.1234C132.242 42.9589 131.959 44.095 131.959 45.288H134.559C134.559 44.465 134.756 44.0891 134.92 43.9166C135.073 43.7559 135.396 43.564 136.139 43.564V40.964ZM151.614 48.744L152.465 49.7264L152.47 49.7223L151.614 48.744ZM152.19 41.616V40.316H150.89V41.616H152.19ZM156.762 41.616H158.062V40.316H156.762V41.616ZM154.458 52.272L155.56 51.583L154.534 49.9412L153.403 51.5124L154.458 52.272ZM152.73 53.604L153.191 54.8195L153.202 54.8154L153.213 54.811L152.73 53.604ZM157.806 33.768H159.106V32.468H157.806V33.768ZM157.806 37.872V39.172H159.106V37.872H157.806ZM147.654 37.872H146.354V39.172H147.654V37.872ZM147.654 33.768V32.468H146.354V33.768H147.654ZM150.174 50.512C151.003 50.512 151.813 50.2921 152.465 49.7264L150.763 47.7616C150.695 47.8199 150.545 47.912 150.174 47.912V50.512ZM152.47 49.7223C153.174 49.1061 153.49 48.273 153.49 47.376H150.89C150.89 47.631 150.822 47.7099 150.758 47.7656L152.47 49.7223ZM153.49 47.376V41.616H150.89V47.376H153.49ZM152.19 42.916H156.762V40.316H152.19V42.916ZM155.462 41.616V47.232H158.062V41.616H155.462ZM155.462 47.232C155.462 48.0984 155.684 48.9856 156.355 49.6445C157.022 50.2991 157.911 50.512 158.778 50.512V47.912C158.301 47.912 158.182 47.7949 158.177 47.7895C158.176 47.7884 158.062 47.6856 158.062 47.232H155.462ZM158.778 50.512H160.146V47.912H158.778V50.512ZM160.146 50.512C159.773 50.512 159.493 50.3434 159.332 50.1888C159.191 50.054 159.131 49.9259 159.117 49.894C159.089 49.831 159.106 49.842 159.13 50.0069C159.176 50.3104 159.206 50.8349 159.206 51.624H161.806C161.806 50.8051 161.777 50.1236 161.702 49.6231C161.666 49.386 161.608 49.0955 161.49 48.8315C161.417 48.6683 161.049 47.912 160.146 47.912V50.512ZM159.206 51.624C159.206 52.4008 159.176 52.9152 159.131 53.2113C159.106 53.3724 159.09 53.3795 159.12 53.3136C159.135 53.2798 159.196 53.1513 159.339 53.017C159.502 52.8632 159.78 52.7 160.146 52.7V55.3C161.039 55.3 161.409 54.5602 161.487 54.3894C161.607 54.1255 161.666 53.8356 161.701 53.6007C161.777 53.1048 161.806 52.4312 161.806 51.624H159.206ZM160.146 52.7H158.562V55.3H160.146V52.7ZM158.562 52.7C156.761 52.7 155.941 52.192 155.56 51.583L153.356 52.961C154.415 54.656 156.331 55.3 158.562 55.3V52.7ZM153.403 51.5124C153.123 51.9019 152.75 52.196 152.247 52.397L153.213 54.811C154.15 54.436 154.929 53.8421 155.513 53.0316L153.403 51.5124ZM152.269 52.3885C151.762 52.5807 151.077 52.7 150.174 52.7V55.3C151.287 55.3 152.306 55.1553 153.191 54.8195L152.269 52.3885ZM150.174 52.7H145.998V55.3H150.174V52.7ZM145.998 52.7C146.351 52.7 146.625 52.8526 146.791 53.0046C146.936 53.1375 147 53.2666 147.018 53.3042C147.051 53.3763 147.036 53.3769 147.012 53.2233C146.969 52.9423 146.938 52.4483 146.938 51.696H144.338C144.338 52.4797 144.368 53.1377 144.444 53.6247C144.48 53.8551 144.54 54.1437 144.663 54.4078C144.75 54.5932 145.126 55.3 145.998 55.3V52.7ZM146.938 51.696C146.938 50.8825 146.968 50.3377 147.015 50.0195C147.04 49.8472 147.058 49.8286 147.033 49.8856C147.021 49.9137 146.964 50.0408 146.826 50.1766C146.668 50.3324 146.384 50.512 145.998 50.512V47.912C145.075 47.912 144.713 48.701 144.648 48.8489C144.534 49.1129 144.477 49.4048 144.441 49.6465C144.368 50.1563 144.338 50.8535 144.338 51.696H146.938ZM145.998 50.512H150.174V47.912H145.998V50.512ZM156.506 33.768V37.872H159.106V33.768H156.506ZM157.806 36.572H147.654V39.172H157.806V36.572ZM148.954 37.872V33.768H146.354V37.872H148.954ZM147.654 35.068H157.806V32.468H147.654V35.068ZM178.023 41.724L176.869 42.3238L176.875 42.3333L178.023 41.724ZM179.715 46.8L180.412 47.8975L181.187 47.4055L180.982 46.5107L179.715 46.8ZM177.447 48.24L176.75 47.1425L175.608 47.8677L176.378 48.98L177.447 48.24ZM178.491 48.96L178.92 47.733L178.92 47.733L178.491 48.96ZM182.595 53.604L183.849 53.946L183.853 53.9327L183.856 53.9193L182.595 53.604ZM176.547 53.208L175.882 54.3254L175.889 54.3293L175.896 54.3331L176.547 53.208ZM174.135 50.508L175.266 49.8676L174.594 48.6803L173.441 49.4089L174.135 50.508ZM172.767 51.372L173.45 52.4781L173.461 52.4711L172.767 51.372ZM168.087 53.46L168.393 54.7235L168.402 54.7212L168.412 54.7188L168.087 53.46ZM167.295 48.852L167.04 47.5772L167.035 47.5783L167.295 48.852ZM171.003 47.412L171.643 48.5433L171.647 48.5415L171.003 47.412ZM174.351 45.504L174.995 46.6335L175.862 46.139L175.608 45.1732L174.351 45.504ZM173.271 43.668L172.5 44.7146L172.53 44.7372L172.562 44.758L173.271 43.668ZM162.939 43.164L161.647 43.0172L161.483 44.464H162.939V43.164ZM163.479 38.412V37.112H162.318L162.187 38.2652L163.479 38.412ZM167.187 34.776H165.887V36.076H167.187V34.776ZM167.187 30.672V29.372H165.887V30.672H167.187ZM172.083 30.672H173.383V29.372H172.083V30.672ZM172.083 34.776V36.076H173.383V34.776H172.083ZM172.047 39.712C173.401 39.712 174.38 39.9432 175.067 40.3126L176.299 38.0234C175.113 37.3848 173.669 37.112 172.047 37.112V39.712ZM175.067 40.3126C175.718 40.6632 176.333 41.2923 176.869 42.3238L179.176 41.1242C178.465 39.7557 177.52 38.6808 176.299 38.0234L175.067 40.3126ZM176.875 42.3333C177.42 43.3622 177.954 44.9266 178.447 47.0893L180.982 46.5107C180.468 44.2574 179.873 42.4378 179.171 41.1147L176.875 42.3333ZM179.018 45.7025L176.75 47.1425L178.144 49.3375L180.412 47.8975L179.018 45.7025ZM176.378 48.98C176.796 49.5834 177.409 49.9588 178.061 50.187L178.92 47.733C178.612 47.6252 178.53 47.5206 178.516 47.5L176.378 48.98ZM178.061 50.187C178.711 50.4145 179.427 50.512 180.183 50.512V47.912C179.643 47.912 179.23 47.8415 178.92 47.733L178.061 50.187ZM180.183 50.512H182.343V47.912H180.183V50.512ZM182.343 50.512C181.957 50.512 181.673 50.3324 181.515 50.1766C181.377 50.0408 181.32 49.9137 181.308 49.8856C181.283 49.8286 181.301 49.8472 181.326 50.0195C181.372 50.3377 181.403 50.8825 181.403 51.696H184.003C184.003 50.8535 183.973 50.1563 183.899 49.6465C183.864 49.4048 183.807 49.1129 183.693 48.8489C183.628 48.701 183.266 47.912 182.343 47.912V50.512ZM181.403 51.696C181.403 52.1751 181.394 52.5534 181.378 52.8375C181.37 52.9794 181.361 53.0895 181.351 53.1718C181.341 53.2592 181.333 53.2921 181.334 53.2887L183.856 53.9193C183.974 53.4464 184.003 52.6404 184.003 51.696H181.403ZM181.341 53.262C181.317 53.3473 181.32 53.2998 181.381 53.2031C181.423 53.1374 181.719 52.7 182.343 52.7V55.3C183.062 55.3 183.449 54.7966 183.575 54.5989C183.72 54.3702 183.8 54.1247 183.849 53.946L181.341 53.262ZM182.343 52.7H179.931V55.3H182.343V52.7ZM179.931 52.7C178.754 52.7 177.865 52.4689 177.198 52.0829L175.896 54.3331C177.053 55.0031 178.42 55.3 179.931 55.3V52.7ZM177.211 52.0906C176.582 51.7165 175.918 51.0199 175.266 49.8676L173.004 51.1484C173.791 52.5401 174.736 53.6435 175.882 54.3254L177.211 52.0906ZM173.441 49.4089L172.073 50.2729L173.461 52.4711L174.829 51.6071L173.441 49.4089ZM172.084 50.266C170.536 51.2216 169.097 51.8568 167.762 52.2012L168.412 54.7188C170.053 54.2952 171.733 53.5384 173.45 52.478L172.084 50.266ZM167.781 52.1965C166.426 52.5244 164.7 52.7 162.579 52.7V55.3C164.826 55.3 166.772 55.1156 168.393 54.7235L167.781 52.1965ZM162.579 52.7H160.131V55.3H162.579V52.7ZM160.131 52.7C160.484 52.7 160.757 52.8526 160.924 53.0046C161.069 53.1375 161.133 53.2666 161.15 53.3042C161.184 53.3763 161.169 53.3769 161.145 53.2233C161.101 52.9423 161.071 52.4483 161.071 51.696H158.471C158.471 52.4797 158.5 53.1377 158.576 53.6247C158.612 53.8551 158.673 54.1437 158.796 54.4078C158.883 54.5932 159.259 55.3 160.131 55.3V52.7ZM161.071 51.696C161.071 50.8825 161.101 50.3377 161.147 50.0195C161.172 49.8472 161.19 49.8286 161.166 49.8856C161.153 49.9137 161.097 50.0408 160.959 50.1766C160.801 50.3324 160.517 50.512 160.131 50.512V47.912C159.208 47.912 158.845 48.701 158.781 48.8489C158.666 49.1129 158.609 49.4048 158.574 49.6465C158.5 50.1563 158.471 50.8535 158.471 51.696H161.071ZM160.131 50.512H162.795V47.912H160.131V50.512ZM162.795 50.512C164.666 50.512 166.261 50.3897 167.555 50.1257L167.035 47.5783C165.976 47.7943 164.572 47.912 162.795 47.912V50.512ZM167.55 50.1268C168.908 49.855 170.274 49.3185 171.643 48.5433L170.362 46.2807C169.188 46.9455 168.081 47.369 167.04 47.5772L167.55 50.1268ZM171.647 48.5415L174.995 46.6335L173.707 44.3745L170.359 46.2825L171.647 48.5415ZM175.608 45.1732C175.336 44.1383 174.859 43.1497 173.979 42.578L172.562 44.758C172.643 44.8103 172.886 45.0457 173.094 45.8348L175.608 45.1732ZM174.042 42.6214C173.259 42.0443 172.231 41.864 171.183 41.864V44.464C172.006 44.464 172.371 44.6197 172.5 44.7146L174.042 42.6214ZM171.183 41.864H162.939V44.464H171.183V41.864ZM164.231 43.3108L164.771 38.5588L162.187 38.2652L161.647 43.0172L164.231 43.3108ZM163.479 39.712H172.047V37.112H163.479V39.712ZM168.487 34.776V30.672H165.887V34.776H168.487ZM167.187 31.972H172.083V29.372H167.187V31.972ZM170.783 30.672V34.776H173.383V30.672H170.783ZM172.083 33.476H167.187V36.076H172.083V33.476ZM190.666 52.308L191.566 53.2462L191.566 53.2458L190.666 52.308ZM187.318 48.744L188.169 49.7264L188.174 49.7223L187.318 48.744ZM187.894 41.616V40.316H186.594V41.616H187.894ZM192.466 41.616H193.766V40.316H192.466V41.616ZM193.33 33.768H194.63V32.468H193.33V33.768ZM193.33 37.872V39.172H194.63V37.872H193.33ZM183.178 37.872H181.878V39.172H183.178V37.872ZM183.178 33.768V32.468H181.878V33.768H183.178ZM191.166 47.592C191.166 49.3054 190.66 50.511 189.765 51.3702L191.566 53.2458C193.071 51.801 193.766 49.8626 193.766 47.592H191.166ZM189.766 51.3698C188.886 52.2135 187.642 52.7 185.878 52.7V55.3C188.145 55.3 190.093 54.6585 191.566 53.2462L189.766 51.3698ZM185.878 52.7H182.35V55.3H185.878V52.7ZM182.35 52.7C182.703 52.7 182.976 52.8526 183.142 53.0046C183.288 53.1375 183.352 53.2666 183.369 53.3042C183.403 53.3763 183.388 53.3769 183.364 53.2233C183.32 52.9423 183.29 52.4483 183.29 51.696H180.69C180.69 52.4797 180.719 53.1377 180.795 53.6247C180.831 53.8551 180.891 54.1437 181.015 54.4078C181.102 54.5932 181.478 55.3 182.35 55.3V52.7ZM183.29 51.696C183.29 50.8825 183.32 50.3377 183.366 50.0195C183.391 49.8472 183.409 49.8286 183.384 49.8856C183.372 49.9137 183.316 50.0408 183.178 50.1766C183.02 50.3324 182.736 50.512 182.35 50.512V47.912C181.426 47.912 181.064 48.701 181 48.8489C180.885 49.1129 180.828 49.4048 180.793 49.6465C180.719 50.1563 180.69 50.8535 180.69 51.696H183.29ZM182.35 50.512H185.878V47.912H182.35V50.512ZM185.878 50.512C186.707 50.512 187.516 50.2921 188.169 49.7264L186.466 47.7616C186.399 47.8199 186.249 47.912 185.878 47.912V50.512ZM188.174 49.7223C188.878 49.1061 189.194 48.273 189.194 47.376H186.594C186.594 47.631 186.525 47.7099 186.462 47.7656L188.174 49.7223ZM189.194 47.376V41.616H186.594V47.376H189.194ZM187.894 42.916H192.466V40.316H187.894V42.916ZM191.166 41.616V47.592H193.766V41.616H191.166ZM192.03 33.768V37.872H194.63V33.768H192.03ZM193.33 36.572H183.178V39.172H193.33V36.572ZM184.478 37.872V33.768H181.878V37.872H184.478ZM183.178 35.068H193.33V32.468H183.178V35.068ZM217.067 59.904L216.116 59.017L216.11 59.0238L217.067 59.904ZM205.295 62.604L203.999 62.7112L204.098 63.904H205.295V62.604ZM204.899 57.816V56.516H203.487L203.603 57.9232L204.899 57.816ZM213.827 56.772L212.985 55.7807L212.977 55.788L212.968 55.7955L213.827 56.772ZM215.015 54H216.315V52.7H215.015V54ZM206.915 52.38L206.005 53.3093L206.016 53.319L206.915 52.38ZM206.159 43.128L204.996 42.5466L204.996 42.5466L206.159 43.128ZM208.679 40.32L208.003 39.2095L207.992 39.2162L208.679 40.32ZM217.679 41.472L216.696 42.3234L216.704 42.3326L217.679 41.472ZM210.407 48.744L209.546 49.7188L209.577 49.7454L209.608 49.7702L210.407 48.744ZM215.015 49.248V50.548H216.315V49.248H215.015ZM214.331 44.748L213.296 45.5346L213.296 45.5346L214.331 44.748ZM210.443 44.748L209.408 43.9614L209.403 43.968L210.443 44.748ZM218.287 52.488C218.287 55.3974 217.514 57.519 216.116 59.017L218.017 60.791C219.979 58.689 220.887 55.8666 220.887 52.488H218.287ZM216.11 59.0238C214.746 60.5062 212.841 61.304 210.227 61.304V63.904C213.42 63.904 216.075 62.9018 218.023 60.7842L216.11 59.0238ZM210.227 61.304H205.295V63.904H210.227V61.304ZM206.59 62.4968L206.194 57.7088L203.603 57.9232L203.999 62.7112L206.59 62.4968ZM204.899 59.116H210.515V56.516H204.899V59.116ZM210.515 59.116C212.137 59.116 213.584 58.7155 214.685 57.7485L212.968 55.7955C212.485 56.2205 211.724 56.516 210.515 56.516V59.116ZM214.668 57.7633C215.791 56.8099 216.315 55.5013 216.315 54H213.715C213.715 54.8507 213.446 55.3901 212.985 55.7807L214.668 57.7633ZM215.015 52.7H212.495V55.3H215.015V52.7ZM212.495 52.7C210.03 52.7 208.582 52.1771 207.814 51.441L206.016 53.319C207.503 54.7429 209.776 55.3 212.495 55.3V52.7ZM207.824 51.4507C207.074 50.7177 206.559 49.4145 206.559 47.232H203.959C203.959 49.7535 204.547 51.8823 206.005 53.3093L207.824 51.4507ZM206.559 47.232C206.559 45.8685 206.824 44.7043 207.321 43.7094L204.996 42.5466C204.293 43.9517 203.959 45.5235 203.959 47.232H206.559ZM207.321 43.7094C207.82 42.7118 208.501 41.9619 209.365 41.4238L207.992 39.2162C206.697 40.0221 205.697 41.1442 204.996 42.5466L207.321 43.7094ZM209.354 41.4305C210.232 40.8962 211.265 40.612 212.495 40.612V38.012C210.844 38.012 209.333 38.3998 208.003 39.2095L209.354 41.4305ZM212.495 40.612C214.392 40.612 215.735 41.2149 216.696 42.3234L218.661 40.6206C217.126 38.8491 215.013 38.012 212.495 38.012V40.612ZM216.704 42.3326C217.706 43.467 218.287 45.1165 218.287 47.448H220.887C220.887 44.6915 220.195 42.357 218.653 40.6114L216.704 42.3326ZM218.287 47.448V52.488H220.887V47.448H218.287ZM208.495 47.052C208.495 48.0346 208.759 49.0236 209.546 49.7188L211.267 47.7692C211.238 47.7444 211.095 47.6054 211.095 47.052H208.495ZM209.608 49.7702C210.404 50.3887 211.543 50.548 212.675 50.548V47.948C211.646 47.948 211.273 47.7713 211.205 47.7178L209.608 49.7702ZM212.675 50.548H215.015V47.948H212.675V50.548ZM216.315 49.248V47.376H213.715V49.248H216.315ZM216.315 47.376C216.315 46.0818 216.063 44.8792 215.366 43.9614L213.296 45.5346C213.51 45.8168 213.715 46.3662 213.715 47.376H216.315ZM215.366 43.9614C214.625 42.9876 213.553 42.548 212.351 42.548V45.148C212.876 45.148 213.124 45.3084 213.296 45.5346L215.366 43.9614ZM212.351 42.548C211.167 42.548 210.132 43.0082 209.408 43.9614L211.478 45.5346C211.665 45.2878 211.902 45.148 212.351 45.148V42.548ZM209.403 43.968C208.753 44.8336 208.495 45.9038 208.495 47.052H211.095C211.095 46.2802 211.268 45.8144 211.483 45.528L209.403 43.968ZM237.99 42.696L236.998 43.5366L237.004 43.5439L237.99 42.696ZM239.862 45.504L238.667 46.0161L238.667 46.0161L239.862 45.504ZM238.566 52.38L239.436 53.3463L239.437 53.3453L238.566 52.38ZM223.77 54L222.474 54.0975L222.564 55.3H223.77V54ZM223.41 49.212V47.912H222.008L222.114 49.3095L223.41 49.212ZM235.398 46.944L234.253 47.5603L234.264 47.5799L234.275 47.599L235.398 46.944ZM234.462 45.684L233.472 46.5268L233.478 46.5337L234.462 45.684ZM228.27 38.412L227.356 37.4878L226.498 38.3362L227.28 39.2548L228.27 38.412ZM231.582 35.136L232.574 34.2954L231.666 33.2245L230.668 34.2118L231.582 35.136ZM237.004 43.5439C237.844 44.5195 238.378 45.3421 238.667 46.0161L241.057 44.9919C240.626 43.9859 239.912 42.9365 238.975 41.8481L237.004 43.5439ZM238.667 46.0161C238.956 46.6903 239.102 47.4037 239.102 48.168H241.702C241.702 47.0603 241.488 45.9977 241.057 44.9919L238.667 46.0161ZM239.102 48.168C239.102 49.5181 238.636 50.5665 237.695 51.4147L239.437 53.3453C240.944 51.9855 241.702 50.2259 241.702 48.168H239.102ZM237.696 51.4137C236.806 52.2151 235.475 52.7 233.526 52.7V55.3C235.897 55.3 237.926 54.7049 239.436 53.3463L237.696 51.4137ZM233.526 52.7H223.77V55.3H233.526V52.7ZM225.066 53.9025L224.706 49.1145L222.114 49.3095L222.474 54.0975L225.066 53.9025ZM223.41 50.512H233.31V47.912H223.41V50.512ZM233.31 50.512C234.165 50.512 235.006 50.379 235.697 49.9725L234.379 47.7315C234.254 47.805 233.943 47.912 233.31 47.912V50.512ZM235.697 49.9725C236.456 49.526 236.95 48.7876 236.95 47.844H234.35C234.35 47.8491 234.349 47.8382 234.355 47.8163C234.361 47.7936 234.372 47.7686 234.386 47.7453C234.416 47.6956 234.435 47.6983 234.379 47.7315L235.697 49.9725ZM236.95 47.844C236.95 47.286 236.796 46.7616 236.521 46.289L234.275 47.599C234.335 47.7024 234.35 47.778 234.35 47.844H236.95ZM236.542 46.3277C236.305 45.8863 235.916 45.3791 235.446 44.8343L233.478 46.5337C233.919 47.0449 234.155 47.3777 234.253 47.5603L236.542 46.3277ZM235.452 44.8412L229.26 37.5692L227.28 39.2548L233.472 46.5268L235.452 44.8412ZM229.184 39.3362L232.496 36.0602L230.668 34.2118L227.356 37.4878L229.184 39.3362ZM230.59 35.9766L236.998 43.5366L238.982 41.8554L232.574 34.2954L230.59 35.9766Z" fill="black" mask="url(#path-1-outside-1_610_19)"/>
<path fill-rule="evenodd" clip-rule="evenodd" d="M162.693 108.284C157.721 99.6269 154.455 86.3207 153.504 67.1487L159.497 66.8516C160.428 85.6368 163.613 97.8382 167.896 105.296C172.081 112.583 177.228 115.244 182.589 115.402C188.222 115.568 194.655 112.985 201.131 108.531C206.105 105.109 210.911 100.714 215.132 96.0291L203.428 94.4949L224.501 67.0005L237.775 98.9972L222.256 96.9629C217.201 103.05 211.059 108.984 204.531 113.474C197.588 118.25 189.88 121.619 182.413 121.399C180.648 121.347 178.926 121.096 177.259 120.634C163.176 135.471 143.275 136.382 125.197 130.833C107.114 125.283 90.0613 113.09 80.792 100.491L65.0029 100.397L82.5001 70.5001L99.6433 100.602L88.5187 100.536C97.4072 110.736 111.76 120.433 126.958 125.098C143.146 130.066 159.566 129.157 171.422 117.982C168.145 115.835 165.194 112.64 162.693 108.284Z" fill="#5CE5DE" stroke="black" stroke-width="2"/>
</svg>
