<svg width="358" height="151" viewBox="0 0 358 151" fill="none" xmlns="http://www.w3.org/2000/svg">
<mask id="path-1-outside-1_610_19" maskUnits="userSpaceOnUse" x="69" y="28" width="219" height="40" fill="black">
<rect fill="white" x="69" y="28" width="219" height="40"/>
<path d="M70.8026 47.628C70.8026 46.356 71.1386 45.084 71.8106 43.812C72.4826 42.516 73.5746 41.112 75.0866 39.6L73.5386 38.052L76.7786 34.632C79.1786 36.744 81.0146 38.52 82.2866 39.96C83.5586 41.4 84.4346 42.684 84.9146 43.812C85.3946 44.916 85.6346 46.068 85.6346 47.268C85.6346 48.66 85.3106 49.896 84.6626 50.976C84.0146 52.032 83.1026 52.86 81.9266 53.46C80.7506 54.06 79.3946 54.36 77.8586 54.36C75.6986 54.36 73.9826 53.748 72.7106 52.524C71.4386 51.276 70.8026 49.644 70.8026 47.628ZM81.0626 47.232C81.0626 46.44 80.8466 45.684 80.4146 44.964C80.0066 44.244 79.2746 43.44 78.2186 42.552C77.2106 43.464 76.4786 44.316 76.0226 45.108C75.5666 45.876 75.3386 46.644 75.3386 47.412C75.3386 48.036 75.5786 48.564 76.0586 48.996C76.5386 49.404 77.1986 49.608 78.0386 49.608C78.9506 49.608 79.6826 49.392 80.2346 48.96C80.7866 48.504 81.0626 47.928 81.0626 47.232ZM90.779 30.816H95.387V54H90.779V30.816ZM106.826 52.668C106.826 54.636 106.43 56.364 105.638 57.852C104.846 59.364 103.706 60.528 102.218 61.344C100.754 62.184 99.05 62.604 97.106 62.604H94.082L93.686 57.816H97.034C98.69 57.816 99.974 57.36 100.886 56.448C101.798 55.56 102.254 54.3 102.254 52.668V41.616H106.826V52.668ZM231.268 49.212C231.868 49.212 232.348 49.056 232.708 48.744C233.092 48.408 233.284 47.964 233.284 47.412V41.616H237.856V47.232C237.856 48.552 238.528 49.212 239.872 49.212H241.24C241.48 49.212 241.6 50.04 241.6 51.696C241.6 53.232 241.48 54 241.24 54H239.656C237.64 54 236.272 53.424 235.552 52.272C235.12 52.872 234.544 53.316 233.824 53.604C233.128 53.868 232.276 54 231.268 54H219.46C217.3 54 215.644 53.436 214.492 52.308C213.34 51.156 212.764 49.512 212.764 47.376V41.616H217.336V46.764C217.336 47.58 217.516 48.192 217.876 48.6C218.26 49.008 218.86 49.212 219.676 49.212H231.268ZM230.404 35.028V39.132H220.252V35.028H230.404ZM245.178 49.212C244.77 48.78 244.446 48.216 244.206 47.52C243.99 46.824 243.882 46.128 243.882 45.432C243.882 44.112 244.194 42.9 244.818 41.796C245.466 40.692 246.342 39.816 247.446 39.168C248.55 38.52 249.774 38.196 251.118 38.196C252.558 38.196 253.818 38.496 254.898 39.096C256.002 39.672 256.854 40.5 257.454 41.58C258.078 42.66 258.39 43.884 258.39 45.252C258.39 46.836 257.886 48.156 256.878 49.212H261.018C261.258 49.212 261.378 50.04 261.378 51.696C261.378 53.232 261.258 54 261.018 54H256.122C254.754 54 253.686 53.952 252.918 53.856C252.15 53.736 251.55 53.544 251.118 53.28C250.686 53.544 250.062 53.736 249.246 53.856C248.454 53.952 247.422 54 246.15 54H241.254C241.014 54 240.894 53.232 240.894 51.696C240.894 50.04 241.014 49.212 241.254 49.212H245.178ZM251.118 42.768C250.302 42.768 249.642 43.032 249.138 43.56C248.658 44.064 248.418 44.7 248.418 45.468C248.418 46.212 248.658 46.92 249.138 47.592C249.618 48.24 250.278 48.78 251.118 49.212C252.006 48.804 252.678 48.264 253.134 47.592C253.59 46.896 253.818 46.188 253.818 45.468C253.818 44.628 253.578 43.968 253.098 43.488C252.618 43.008 251.958 42.768 251.118 42.768ZM248.67 34.596V30.492H253.566V34.596H248.67ZM283.764 42.624C284.628 43.56 285.252 44.472 285.636 45.36C286.044 46.248 286.248 47.172 286.248 48.132C286.248 49.884 285.636 51.3 284.412 52.38C283.212 53.46 281.58 54 279.516 54H275.484C273.972 54 272.88 53.964 272.208 53.892C271.536 53.796 270.972 53.604 270.516 53.316C270.036 53.58 269.4 53.76 268.608 53.856C267.84 53.952 266.796 54 265.476 54H261.012C260.772 54 260.652 53.232 260.652 51.696C260.652 50.04 260.772 49.212 261.012 49.212H264.792C264.456 48.756 264.18 48.204 263.964 47.556C263.748 46.908 263.64 46.26 263.64 45.612C263.64 44.268 263.952 43.044 264.576 41.94C265.2 40.836 266.064 39.972 267.168 39.348C268.272 38.724 269.508 38.412 270.876 38.412C272.1 38.412 273.228 38.7 274.26 39.276L273.252 38.232L276.528 34.848L283.764 42.624ZM279.444 49.212C280.884 49.212 281.604 48.756 281.604 47.844C281.604 47.508 281.508 47.184 281.316 46.872C281.148 46.536 280.8 46.08 280.272 45.504L276.96 42.048C277.464 43.104 277.716 44.172 277.716 45.252C277.716 46.02 277.56 46.764 277.248 47.484C276.96 48.204 276.564 48.78 276.06 49.212H279.444ZM270.516 49.212C272.412 48.348 273.36 47.16 273.36 45.648C273.36 44.88 273.12 44.244 272.64 43.74C272.16 43.212 271.512 42.948 270.696 42.948C269.88 42.948 269.22 43.212 268.716 43.74C268.236 44.244 267.996 44.88 267.996 45.648C267.996 47.16 268.836 48.348 270.516 49.212Z"/>
<path d="M135.152 48.204C135.656 48.876 136.592 49.212 137.96 49.212H140.156C140.396 49.212 140.516 50.04 140.516 51.696C140.516 52.68 140.48 53.316 140.408 53.604C140.336 53.868 140.252 54 140.156 54H137.852C136.436 54 135.26 53.724 134.324 53.172C133.388 52.596 132.56 51.588 131.84 50.148L129.14 51.444C127.244 52.38 125.936 53.292 125.216 54.18C124.52 55.068 124.172 56.172 124.172 57.492C124.172 58.908 124.616 59.94 125.504 60.588C126.392 61.26 127.808 61.596 129.752 61.596H137.672L137.276 66.384H129.5C122.9 66.384 119.6 63.588 119.6 57.996C119.6 55.812 120.2 53.868 121.4 52.164C122.6 50.46 124.568 48.996 127.304 47.772L132.632 45.324C132.32 44.412 131.972 43.824 131.588 43.56C131.228 43.296 130.616 43.164 129.752 43.164H121.184L121.724 38.412H130.616C132.008 38.412 133.16 38.664 134.072 39.168C134.984 39.648 135.752 40.5 136.376 41.724C137 42.948 137.528 44.688 137.96 46.944L135.152 48.204ZM125.432 34.776V30.672H130.328V34.776H125.432ZM142.917 49.212C143.733 49.212 144.345 49.02 144.753 48.636C145.185 48.252 145.401 47.724 145.401 47.052V41.616H149.973V47.052C149.973 48.492 150.801 49.212 152.457 49.212C153.273 49.212 153.885 49.02 154.293 48.636C154.725 48.252 154.941 47.724 154.941 47.052V41.616H159.513V47.052C159.513 48.492 160.281 49.212 161.817 49.212C163.353 49.212 164.121 48.492 164.121 47.052V41.616H168.693V47.088C168.693 49.272 168.081 50.976 166.857 52.2C165.657 53.4 163.977 54 161.817 54C160.545 54 159.525 53.844 158.757 53.532C157.989 53.196 157.413 52.716 157.029 52.092C156.573 52.716 155.973 53.196 155.229 53.532C154.509 53.844 153.585 54 152.457 54C151.137 54 150.081 53.844 149.289 53.532C148.497 53.196 147.909 52.716 147.525 52.092C146.589 53.364 145.053 54 142.917 54H140.145C139.905 54 139.785 53.232 139.785 51.696C139.785 50.04 139.905 49.212 140.145 49.212H142.917ZM179.74 47.052C179.74 47.796 179.92 48.348 180.28 48.708C180.664 49.044 181.264 49.212 182.08 49.212H182.728C182.968 49.212 183.088 50.04 183.088 51.696C183.088 53.232 182.968 54 182.728 54H182.152C181.648 54 181.18 53.94 180.748 53.82C180.316 53.676 179.98 53.484 179.74 53.244C179.668 55.044 179.224 56.652 178.408 58.068C177.616 59.484 176.5 60.588 175.06 61.38C173.62 62.196 171.94 62.604 170.02 62.604H166.996L166.6 57.816H169.948C171.604 57.816 172.888 57.36 173.8 56.448C174.712 55.56 175.168 54.3 175.168 52.668V41.616H179.74V47.052ZM187.903 49.212C187.039 48.684 186.391 48.072 185.959 47.376C185.551 46.656 185.347 45.792 185.347 44.784C185.347 43.44 185.659 42.216 186.283 41.112C186.907 40.008 187.771 39.144 188.875 38.52C189.979 37.872 191.227 37.548 192.619 37.548C194.971 37.548 196.783 38.256 198.055 39.672C199.351 41.088 199.999 43.044 199.999 45.54V46.764C199.999 49.188 199.171 51 197.515 52.2C195.883 53.4 193.459 54 190.243 54H182.719C182.479 54 182.359 53.232 182.359 51.696C182.359 50.04 182.479 49.212 182.719 49.212H186.823H187.903ZM194.635 48.852C195.187 48.276 195.463 47.412 195.463 46.26V45.72C195.463 43.32 194.503 42.12 192.583 42.12C191.839 42.12 191.203 42.384 190.675 42.912C190.171 43.416 189.919 44.04 189.919 44.784C189.919 45.648 190.267 46.392 190.963 47.016C191.659 47.616 192.883 48.228 194.635 48.852ZM190.171 34.272V30.168H195.067V34.272H190.171Z"/>
</mask>
<path d="M70.8026 47.628C70.8026 46.356 71.1386 45.084 71.8106 43.812C72.4826 42.516 73.5746 41.112 75.0866 39.6L73.5386 38.052L76.7786 34.632C79.1786 36.744 81.0146 38.52 82.2866 39.96C83.5586 41.4 84.4346 42.684 84.9146 43.812C85.3946 44.916 85.6346 46.068 85.6346 47.268C85.6346 48.66 85.3106 49.896 84.6626 50.976C84.0146 52.032 83.1026 52.86 81.9266 53.46C80.7506 54.06 79.3946 54.36 77.8586 54.36C75.6986 54.36 73.9826 53.748 72.7106 52.524C71.4386 51.276 70.8026 49.644 70.8026 47.628ZM81.0626 47.232C81.0626 46.44 80.8466 45.684 80.4146 44.964C80.0066 44.244 79.2746 43.44 78.2186 42.552C77.2106 43.464 76.4786 44.316 76.0226 45.108C75.5666 45.876 75.3386 46.644 75.3386 47.412C75.3386 48.036 75.5786 48.564 76.0586 48.996C76.5386 49.404 77.1986 49.608 78.0386 49.608C78.9506 49.608 79.6826 49.392 80.2346 48.96C80.7866 48.504 81.0626 47.928 81.0626 47.232ZM90.779 30.816H95.387V54H90.779V30.816ZM106.826 52.668C106.826 54.636 106.43 56.364 105.638 57.852C104.846 59.364 103.706 60.528 102.218 61.344C100.754 62.184 99.05 62.604 97.106 62.604H94.082L93.686 57.816H97.034C98.69 57.816 99.974 57.36 100.886 56.448C101.798 55.56 102.254 54.3 102.254 52.668V41.616H106.826V52.668ZM231.268 49.212C231.868 49.212 232.348 49.056 232.708 48.744C233.092 48.408 233.284 47.964 233.284 47.412V41.616H237.856V47.232C237.856 48.552 238.528 49.212 239.872 49.212H241.24C241.48 49.212 241.6 50.04 241.6 51.696C241.6 53.232 241.48 54 241.24 54H239.656C237.64 54 236.272 53.424 235.552 52.272C235.12 52.872 234.544 53.316 233.824 53.604C233.128 53.868 232.276 54 231.268 54H219.46C217.3 54 215.644 53.436 214.492 52.308C213.34 51.156 212.764 49.512 212.764 47.376V41.616H217.336V46.764C217.336 47.58 217.516 48.192 217.876 48.6C218.26 49.008 218.86 49.212 219.676 49.212H231.268ZM230.404 35.028V39.132H220.252V35.028H230.404ZM245.178 49.212C244.77 48.78 244.446 48.216 244.206 47.52C243.99 46.824 243.882 46.128 243.882 45.432C243.882 44.112 244.194 42.9 244.818 41.796C245.466 40.692 246.342 39.816 247.446 39.168C248.55 38.52 249.774 38.196 251.118 38.196C252.558 38.196 253.818 38.496 254.898 39.096C256.002 39.672 256.854 40.5 257.454 41.58C258.078 42.66 258.39 43.884 258.39 45.252C258.39 46.836 257.886 48.156 256.878 49.212H261.018C261.258 49.212 261.378 50.04 261.378 51.696C261.378 53.232 261.258 54 261.018 54H256.122C254.754 54 253.686 53.952 252.918 53.856C252.15 53.736 251.55 53.544 251.118 53.28C250.686 53.544 250.062 53.736 249.246 53.856C248.454 53.952 247.422 54 246.15 54H241.254C241.014 54 240.894 53.232 240.894 51.696C240.894 50.04 241.014 49.212 241.254 49.212H245.178ZM251.118 42.768C250.302 42.768 249.642 43.032 249.138 43.56C248.658 44.064 248.418 44.7 248.418 45.468C248.418 46.212 248.658 46.92 249.138 47.592C249.618 48.24 250.278 48.78 251.118 49.212C252.006 48.804 252.678 48.264 253.134 47.592C253.59 46.896 253.818 46.188 253.818 45.468C253.818 44.628 253.578 43.968 253.098 43.488C252.618 43.008 251.958 42.768 251.118 42.768ZM248.67 34.596V30.492H253.566V34.596H248.67ZM283.764 42.624C284.628 43.56 285.252 44.472 285.636 45.36C286.044 46.248 286.248 47.172 286.248 48.132C286.248 49.884 285.636 51.3 284.412 52.38C283.212 53.46 281.58 54 279.516 54H275.484C273.972 54 272.88 53.964 272.208 53.892C271.536 53.796 270.972 53.604 270.516 53.316C270.036 53.58 269.4 53.76 268.608 53.856C267.84 53.952 266.796 54 265.476 54H261.012C260.772 54 260.652 53.232 260.652 51.696C260.652 50.04 260.772 49.212 261.012 49.212H264.792C264.456 48.756 264.18 48.204 263.964 47.556C263.748 46.908 263.64 46.26 263.64 45.612C263.64 44.268 263.952 43.044 264.576 41.94C265.2 40.836 266.064 39.972 267.168 39.348C268.272 38.724 269.508 38.412 270.876 38.412C272.1 38.412 273.228 38.7 274.26 39.276L273.252 38.232L276.528 34.848L283.764 42.624ZM279.444 49.212C280.884 49.212 281.604 48.756 281.604 47.844C281.604 47.508 281.508 47.184 281.316 46.872C281.148 46.536 280.8 46.08 280.272 45.504L276.96 42.048C277.464 43.104 277.716 44.172 277.716 45.252C277.716 46.02 277.56 46.764 277.248 47.484C276.96 48.204 276.564 48.78 276.06 49.212H279.444ZM270.516 49.212C272.412 48.348 273.36 47.16 273.36 45.648C273.36 44.88 273.12 44.244 272.64 43.74C272.16 43.212 271.512 42.948 270.696 42.948C269.88 42.948 269.22 43.212 268.716 43.74C268.236 44.244 267.996 44.88 267.996 45.648C267.996 47.16 268.836 48.348 270.516 49.212Z" fill="#E1E1E1"/>
<path d="M135.152 48.204C135.656 48.876 136.592 49.212 137.96 49.212H140.156C140.396 49.212 140.516 50.04 140.516 51.696C140.516 52.68 140.48 53.316 140.408 53.604C140.336 53.868 140.252 54 140.156 54H137.852C136.436 54 135.26 53.724 134.324 53.172C133.388 52.596 132.56 51.588 131.84 50.148L129.14 51.444C127.244 52.38 125.936 53.292 125.216 54.18C124.52 55.068 124.172 56.172 124.172 57.492C124.172 58.908 124.616 59.94 125.504 60.588C126.392 61.26 127.808 61.596 129.752 61.596H137.672L137.276 66.384H129.5C122.9 66.384 119.6 63.588 119.6 57.996C119.6 55.812 120.2 53.868 121.4 52.164C122.6 50.46 124.568 48.996 127.304 47.772L132.632 45.324C132.32 44.412 131.972 43.824 131.588 43.56C131.228 43.296 130.616 43.164 129.752 43.164H121.184L121.724 38.412H130.616C132.008 38.412 133.16 38.664 134.072 39.168C134.984 39.648 135.752 40.5 136.376 41.724C137 42.948 137.528 44.688 137.96 46.944L135.152 48.204ZM125.432 34.776V30.672H130.328V34.776H125.432ZM142.917 49.212C143.733 49.212 144.345 49.02 144.753 48.636C145.185 48.252 145.401 47.724 145.401 47.052V41.616H149.973V47.052C149.973 48.492 150.801 49.212 152.457 49.212C153.273 49.212 153.885 49.02 154.293 48.636C154.725 48.252 154.941 47.724 154.941 47.052V41.616H159.513V47.052C159.513 48.492 160.281 49.212 161.817 49.212C163.353 49.212 164.121 48.492 164.121 47.052V41.616H168.693V47.088C168.693 49.272 168.081 50.976 166.857 52.2C165.657 53.4 163.977 54 161.817 54C160.545 54 159.525 53.844 158.757 53.532C157.989 53.196 157.413 52.716 157.029 52.092C156.573 52.716 155.973 53.196 155.229 53.532C154.509 53.844 153.585 54 152.457 54C151.137 54 150.081 53.844 149.289 53.532C148.497 53.196 147.909 52.716 147.525 52.092C146.589 53.364 145.053 54 142.917 54H140.145C139.905 54 139.785 53.232 139.785 51.696C139.785 50.04 139.905 49.212 140.145 49.212H142.917ZM179.74 47.052C179.74 47.796 179.92 48.348 180.28 48.708C180.664 49.044 181.264 49.212 182.08 49.212H182.728C182.968 49.212 183.088 50.04 183.088 51.696C183.088 53.232 182.968 54 182.728 54H182.152C181.648 54 181.18 53.94 180.748 53.82C180.316 53.676 179.98 53.484 179.74 53.244C179.668 55.044 179.224 56.652 178.408 58.068C177.616 59.484 176.5 60.588 175.06 61.38C173.62 62.196 171.94 62.604 170.02 62.604H166.996L166.6 57.816H169.948C171.604 57.816 172.888 57.36 173.8 56.448C174.712 55.56 175.168 54.3 175.168 52.668V41.616H179.74V47.052ZM187.903 49.212C187.039 48.684 186.391 48.072 185.959 47.376C185.551 46.656 185.347 45.792 185.347 44.784C185.347 43.44 185.659 42.216 186.283 41.112C186.907 40.008 187.771 39.144 188.875 38.52C189.979 37.872 191.227 37.548 192.619 37.548C194.971 37.548 196.783 38.256 198.055 39.672C199.351 41.088 199.999 43.044 199.999 45.54V46.764C199.999 49.188 199.171 51 197.515 52.2C195.883 53.4 193.459 54 190.243 54H182.719C182.479 54 182.359 53.232 182.359 51.696C182.359 50.04 182.479 49.212 182.719 49.212H186.823H187.903ZM194.635 48.852C195.187 48.276 195.463 47.412 195.463 46.26V45.72C195.463 43.32 194.503 42.12 192.583 42.12C191.839 42.12 191.203 42.384 190.675 42.912C190.171 43.416 189.919 44.04 189.919 44.784C189.919 45.648 190.267 46.392 190.963 47.016C191.659 47.616 192.883 48.228 194.635 48.852ZM190.171 34.272V30.168H195.067V34.272H190.171Z" fill="#5CE5DE"/>
<path d="M71.8106 43.812L72.9601 44.4193L72.9647 44.4104L71.8106 43.812ZM75.0866 39.6L76.0059 40.5192L76.9251 39.6L76.0059 38.6808L75.0866 39.6ZM73.5386 38.052L72.5949 37.1579L71.7247 38.0765L72.6194 38.9712L73.5386 38.052ZM76.7786 34.632L77.6374 33.6561L76.6967 32.8282L75.8349 33.7379L76.7786 34.632ZM84.9146 43.812L83.7184 44.321L83.7224 44.3303L84.9146 43.812ZM84.6626 50.976L85.7707 51.656L85.7774 51.6448L84.6626 50.976ZM81.9266 53.46L82.5174 54.618L81.9266 53.46ZM72.7106 52.524L71.8001 53.452L71.8092 53.4607L72.7106 52.524ZM80.4146 44.964L79.2836 45.6049L79.2916 45.619L79.2999 45.6328L80.4146 44.964ZM78.2186 42.552L79.0553 41.557L78.1874 40.8272L77.3464 41.588L78.2186 42.552ZM76.0226 45.108L77.1404 45.7717L77.1449 45.7642L77.1492 45.7567L76.0226 45.108ZM76.0586 48.996L75.189 49.9623L75.2027 49.9746L75.2167 49.9865L76.0586 48.996ZM80.2346 48.96L81.0358 49.9838L81.0493 49.9732L81.0626 49.9623L80.2346 48.96ZM72.1026 47.628C72.1026 46.594 72.3738 45.5289 72.9601 44.4193L70.6612 43.2047C69.9034 44.6391 69.5026 46.118 69.5026 47.628H72.1026ZM72.9647 44.4104C73.554 43.2739 74.5486 41.9765 76.0059 40.5192L74.1674 38.6808C72.6007 40.2474 71.4112 41.7581 70.6565 43.2136L72.9647 44.4104ZM76.0059 38.6808L74.4579 37.1328L72.6194 38.9712L74.1674 40.5192L76.0059 38.6808ZM74.4824 38.9461L77.7224 35.5261L75.8349 33.7379L72.5949 37.1579L74.4824 38.9461ZM75.9198 35.6079C78.3019 37.7042 80.0921 39.4393 81.3123 40.8206L83.2609 39.0994C81.9371 37.6007 80.0553 35.7838 77.6374 33.6561L75.9198 35.6079ZM81.3123 40.8206C82.5381 42.2084 83.3149 43.3728 83.7184 44.321L86.1108 43.303C85.5543 41.9952 84.5791 40.5916 83.2609 39.0994L81.3123 40.8206ZM83.7224 44.3303C84.1316 45.2713 84.3346 46.2469 84.3346 47.268H86.9346C86.9346 45.8891 86.6577 44.5607 86.1068 43.2937L83.7224 44.3303ZM84.3346 47.268C84.3346 48.4499 84.0622 49.45 83.5479 50.3072L85.7774 51.6448C86.5591 50.342 86.9346 48.8701 86.9346 47.268H84.3346ZM83.5546 50.2961C83.04 51.1347 82.3133 51.8033 81.3358 52.302L82.5174 54.618C83.892 53.9167 84.9892 52.9293 85.7706 51.6559L83.5546 50.2961ZM81.3358 52.302C80.3705 52.7945 79.2228 53.06 77.8586 53.06V55.66C79.5664 55.66 81.1307 55.3255 82.5174 54.618L81.3358 52.302ZM77.8586 53.06C75.9553 53.06 74.59 52.5284 73.612 51.5873L71.8092 53.4607C73.3752 54.9676 75.442 55.66 77.8586 55.66V53.06ZM73.6211 51.596C72.6319 50.6255 72.1026 49.345 72.1026 47.628H69.5026C69.5026 49.943 70.2454 51.9265 71.8002 53.452L73.6211 51.596ZM82.3626 47.232C82.3626 46.19 82.075 45.2045 81.5294 44.2952L79.2999 45.6328C79.6183 46.1635 79.7626 46.69 79.7626 47.232H82.3626ZM81.5457 44.3231C81.0272 43.4082 80.1615 42.4873 79.0553 41.557L77.3819 43.547C78.3877 44.3927 78.986 45.0798 79.2836 45.6049L81.5457 44.3231ZM77.3464 41.588C76.2818 42.5512 75.4442 43.5072 74.896 44.4593L77.1492 45.7567C77.513 45.1248 78.1394 44.3768 79.0908 43.516L77.3464 41.588ZM74.9048 44.4443C74.3493 45.38 74.0386 46.3746 74.0386 47.412H76.6386C76.6386 46.9134 76.784 46.372 77.1404 45.7717L74.9048 44.4443ZM74.0386 47.412C74.0386 48.4189 74.4459 49.2935 75.189 49.9623L76.9283 48.0297C76.7113 47.8345 76.6386 47.6531 76.6386 47.412H74.0386ZM75.2167 49.9865C76.0003 50.6526 76.9939 50.908 78.0386 50.908V48.308C77.4033 48.308 77.077 48.1554 76.9006 48.0055L75.2167 49.9865ZM78.0386 50.908C79.153 50.908 80.1943 50.6423 81.0358 49.9838L79.4334 47.9362C79.171 48.1417 78.7482 48.308 78.0386 48.308V50.908ZM81.0626 49.9623C81.9036 49.2675 82.3626 48.3285 82.3626 47.232H79.7626C79.7626 47.5275 79.6696 47.7405 79.4067 47.9577L81.0626 49.9623ZM90.779 30.816V29.516H89.479V30.816H90.779ZM95.387 30.816H96.687V29.516H95.387V30.816ZM95.387 54V55.3H96.687V54H95.387ZM90.779 54H89.479V55.3H90.779V54ZM90.779 32.116H95.387V29.516H90.779V32.116ZM94.087 30.816V54H96.687V30.816H94.087ZM95.387 52.7H90.779V55.3H95.387V52.7ZM92.079 54V30.816H89.479V54H92.079ZM105.638 57.852L104.49 57.2412L104.486 57.2488L105.638 57.852ZM102.218 61.344L101.593 60.2041L101.582 60.2102L101.571 60.2164L102.218 61.344ZM94.082 62.604L92.7864 62.7112L92.885 63.904H94.082V62.604ZM93.686 57.816V56.516H92.274L92.3904 57.9232L93.686 57.816ZM100.886 56.448L99.9791 55.5166L99.9729 55.5226L99.9667 55.5288L100.886 56.448ZM102.254 41.616V40.316H100.954V41.616H102.254ZM106.826 41.616H108.126V40.316H106.826V41.616ZM105.526 52.668C105.526 54.4588 105.167 55.9705 104.49 57.2412L106.786 58.4628C107.693 56.7575 108.126 54.8132 108.126 52.668H105.526ZM104.486 57.2488C103.812 58.5354 102.855 59.512 101.593 60.2041L102.843 62.4839C104.557 61.544 105.879 60.1926 106.79 58.4552L104.486 57.2488ZM101.571 60.2164C100.332 60.9273 98.8579 61.304 97.106 61.304V63.904C99.2421 63.904 101.176 63.4407 102.865 62.4716L101.571 60.2164ZM97.106 61.304H94.082V63.904H97.106V61.304ZM95.3775 62.4968L94.9815 57.7088L92.3904 57.9232L92.7864 62.7112L95.3775 62.4968ZM93.686 59.116H97.034V56.516H93.686V59.116ZM97.034 59.116C98.9323 59.116 100.585 58.587 101.805 57.3672L99.9667 55.5288C99.3625 56.133 98.4477 56.516 97.034 56.516V59.116ZM101.793 57.3794C103.022 56.1825 103.554 54.5467 103.554 52.668H100.954C100.954 54.0533 100.574 54.9375 99.9791 55.5166L101.793 57.3794ZM103.554 52.668V41.616H100.954V52.668H103.554ZM102.254 42.916H106.826V40.316H102.254V42.916ZM105.526 41.616V52.668H108.126V41.616H105.526ZM135.152 48.204L134.619 47.0179L133.136 47.6835L134.112 48.984L135.152 48.204ZM140.408 53.604L141.662 53.9461L141.665 53.9327L141.669 53.9193L140.408 53.604ZM134.324 53.172L133.642 54.2792L133.653 54.2856L133.663 54.2918L134.324 53.172ZM131.84 50.148L133.002 49.5666L132.43 48.4225L131.277 48.976L131.84 50.148ZM129.14 51.444L128.577 50.272L128.57 50.2751L128.564 50.2783L129.14 51.444ZM125.216 54.18L124.206 53.3613L124.199 53.3696L124.192 53.3781L125.216 54.18ZM125.504 60.588L126.288 59.5514L126.279 59.5445L126.27 59.5379L125.504 60.588ZM137.672 61.596L138.967 61.7032L139.083 60.296H137.672V61.596ZM137.276 66.384V67.684H138.472L138.571 66.4912L137.276 66.384ZM121.4 52.164L122.462 52.9125L121.4 52.164ZM127.304 47.772L127.834 48.9587L127.846 48.9533L127.304 47.772ZM132.632 45.324L133.174 46.5053L134.242 46.0148L133.862 44.9032L132.632 45.324ZM131.588 43.56L130.819 44.6083L130.835 44.62L130.851 44.6313L131.588 43.56ZM121.184 43.164L119.892 43.0172L119.727 44.464H121.184V43.164ZM121.724 38.412V37.112H120.563L120.432 38.2652L121.724 38.412ZM134.072 39.168L133.443 40.3058L133.454 40.3122L133.466 40.3184L134.072 39.168ZM136.376 41.724L137.534 41.1336L137.534 41.1336L136.376 41.724ZM137.96 46.944L138.492 48.1301L139.43 47.7092L139.236 46.6995L137.96 46.944ZM125.432 34.776H124.132V36.076H125.432V34.776ZM125.432 30.672V29.372H124.132V30.672H125.432ZM130.328 30.672H131.628V29.372H130.328V30.672ZM130.328 34.776V36.076H131.628V34.776H130.328ZM134.112 48.984C134.983 50.1455 136.44 50.512 137.96 50.512V47.912C136.743 47.912 136.328 47.6065 136.192 47.424L134.112 48.984ZM137.96 50.512H140.156V47.912H137.96V50.512ZM140.156 50.512C139.769 50.512 139.485 50.3324 139.327 50.1766C139.189 50.0408 139.133 49.9137 139.121 49.8856C139.096 49.8286 139.114 49.8472 139.139 50.0195C139.185 50.3377 139.216 50.8825 139.216 51.696H141.816C141.816 50.8535 141.786 50.1563 141.712 49.6465C141.677 49.4048 141.62 49.1129 141.505 48.8489C141.441 48.701 141.079 47.912 140.156 47.912V50.512ZM139.216 51.696C139.216 52.1751 139.207 52.5534 139.191 52.8375C139.183 52.9794 139.173 53.0895 139.164 53.1718C139.153 53.2592 139.145 53.2921 139.146 53.2887L141.669 53.9193C141.787 53.4464 141.816 52.6404 141.816 51.696H139.216ZM139.153 53.2619C139.13 53.3473 139.132 53.2998 139.194 53.2031C139.236 53.1374 139.532 52.7 140.156 52.7V55.3C140.875 55.3 141.262 54.7966 141.387 54.5989C141.533 54.3702 141.613 54.1247 141.662 53.9461L139.153 53.2619ZM140.156 52.7H137.852V55.3H140.156V52.7ZM137.852 52.7C136.599 52.7 135.668 52.4556 134.984 52.0522L133.663 54.2918C134.851 54.9924 136.272 55.3 137.852 55.3V52.7ZM135.005 52.0648C134.35 51.6618 133.661 50.8847 133.002 49.5666L130.677 50.7294C131.458 52.2913 132.425 53.5302 133.642 54.2792L135.005 52.0648ZM131.277 48.976L128.577 50.272L129.702 52.616L132.402 51.32L131.277 48.976ZM128.564 50.2783C126.619 51.2385 125.106 52.2513 124.206 53.3613L126.225 54.9987C126.765 54.3327 127.868 53.5215 129.715 52.6097L128.564 50.2783ZM124.192 53.3781C123.288 54.5324 122.872 55.9327 122.872 57.492H125.472C125.472 56.4113 125.751 55.6036 126.239 54.9819L124.192 53.3781ZM122.872 57.492C122.872 59.1912 123.42 60.6768 124.737 61.6381L126.27 59.5379C125.811 59.2032 125.472 58.6248 125.472 57.492H122.872ZM124.719 61.6246C125.947 62.5541 127.713 62.896 129.752 62.896V60.296C127.902 60.296 126.836 59.9659 126.288 59.5514L124.719 61.6246ZM129.752 62.896H137.672V60.296H129.752V62.896ZM136.376 61.4888L135.98 66.2768L138.571 66.4912L138.967 61.7032L136.376 61.4888ZM137.276 65.084H129.5V67.684H137.276V65.084ZM129.5 65.084C126.352 65.084 124.234 64.4128 122.915 63.2951C121.637 62.2125 120.9 60.53 120.9 57.996H118.3C118.3 61.054 119.212 63.5655 121.234 65.2789C123.215 66.9572 126.047 67.684 129.5 67.684V65.084ZM120.9 57.996C120.9 56.0663 121.424 54.3865 122.462 52.9125L120.337 51.4155C118.975 53.3495 118.3 55.5577 118.3 57.996H120.9ZM122.462 52.9125C123.481 51.4658 125.224 50.1266 127.834 48.9587L126.773 46.5853C123.911 47.8654 121.718 49.4542 120.337 51.4155L122.462 52.9125ZM127.846 48.9533L133.174 46.5053L132.089 44.1427L126.761 46.5907L127.846 48.9533ZM133.862 44.9032C133.538 43.959 133.08 43.0087 132.324 42.4887L130.851 44.6313C130.832 44.6183 130.899 44.66 131.018 44.8611C131.132 45.0547 131.264 45.3415 131.401 45.7448L133.862 44.9032ZM132.356 42.5117C131.645 41.99 130.673 41.864 129.752 41.864V44.464C130.123 44.464 130.395 44.493 130.584 44.5338C130.779 44.5757 130.833 44.6187 130.819 44.6083L132.356 42.5117ZM129.752 41.864H121.184V44.464H129.752V41.864ZM122.475 43.3108L123.015 38.5588L120.432 38.2652L119.892 43.0172L122.475 43.3108ZM121.724 39.712H130.616V37.112H121.724V39.712ZM130.616 39.712C131.859 39.712 132.777 39.938 133.443 40.3058L134.7 38.0302C133.542 37.39 132.156 37.112 130.616 37.112V39.712ZM133.466 40.3184C134.073 40.6377 134.675 41.2511 135.217 42.3144L137.534 41.1336C136.828 39.7489 135.894 38.6583 134.677 38.0176L133.466 40.3184ZM135.217 42.3144C135.761 43.3806 136.261 44.9837 136.683 47.1885L139.236 46.6995C138.794 44.3923 138.238 42.5154 137.534 41.1336L135.217 42.3144ZM137.427 45.7579L134.619 47.0179L135.684 49.3901L138.492 48.1301L137.427 45.7579ZM126.732 34.776V30.672H124.132V34.776H126.732ZM125.432 31.972H130.328V29.372H125.432V31.972ZM129.028 30.672V34.776H131.628V30.672H129.028ZM130.328 33.476H125.432V36.076H130.328V33.476ZM144.753 48.636L143.889 47.6644L143.875 47.6767L143.862 47.6893L144.753 48.636ZM145.401 41.616V40.316H144.101V41.616H145.401ZM149.973 41.616H151.273V40.316H149.973V41.616ZM154.293 48.636L153.429 47.6644L153.415 47.6767L153.402 47.6893L154.293 48.636ZM154.941 41.616V40.316H153.641V41.616H154.941ZM159.513 41.616H160.813V40.316H159.513V41.616ZM164.121 41.616V40.316H162.821V41.616H164.121ZM168.693 41.616H169.993V40.316H168.693V41.616ZM166.857 52.2L167.776 53.1192L167.776 53.1192L166.857 52.2ZM158.757 53.532L158.235 54.723L158.251 54.7299L158.267 54.7364L158.757 53.532ZM157.029 52.092L158.136 51.4107L157.121 49.762L155.979 51.325L157.029 52.092ZM155.229 53.532L155.745 54.7248L155.755 54.7209L155.764 54.7168L155.229 53.532ZM149.289 53.532L148.781 54.7288L148.796 54.7353L148.812 54.7415L149.289 53.532ZM147.525 52.092L148.632 51.4107L147.621 49.7679L146.477 51.3215L147.525 52.092ZM142.917 50.512C143.914 50.512 144.904 50.2788 145.644 49.5827L143.862 47.6893C143.785 47.7612 143.551 47.912 142.917 47.912V50.512ZM145.616 49.6076C146.372 48.9359 146.701 48.0288 146.701 47.052H144.101C144.101 47.4192 143.997 47.5681 143.889 47.6644L145.616 49.6076ZM146.701 47.052V41.616H144.101V47.052H146.701ZM145.401 42.916H149.973V40.316H145.401V42.916ZM148.673 41.616V47.052H151.273V41.616H148.673ZM148.673 47.052C148.673 48.0234 148.96 48.9745 149.74 49.653C150.486 50.3013 151.469 50.512 152.457 50.512V47.912C151.788 47.912 151.529 47.7627 151.447 47.691C151.399 47.6495 151.273 47.5206 151.273 47.052H148.673ZM152.457 50.512C153.454 50.512 154.444 50.2788 155.184 49.5827L153.402 47.6893C153.325 47.7612 153.091 47.912 152.457 47.912V50.512ZM155.156 49.6076C155.912 48.9359 156.241 48.0288 156.241 47.052H153.641C153.641 47.4192 153.537 47.5681 153.429 47.6644L155.156 49.6076ZM156.241 47.052V41.616H153.641V47.052H156.241ZM154.941 42.916H159.513V40.316H154.941V42.916ZM158.213 41.616V47.052H160.813V41.616H158.213ZM158.213 47.052C158.213 47.9946 158.468 48.9346 159.199 49.6204C159.915 50.2914 160.868 50.512 161.817 50.512V47.912C161.229 47.912 161.03 47.7726 160.978 47.7236C160.941 47.6894 160.813 47.5494 160.813 47.052H158.213ZM161.817 50.512C162.765 50.512 163.718 50.2914 164.434 49.6204C165.165 48.9346 165.421 47.9946 165.421 47.052H162.821C162.821 47.5494 162.692 47.6894 162.655 47.7236C162.603 47.7726 162.404 47.912 161.817 47.912V50.512ZM165.421 47.052V41.616H162.821V47.052H165.421ZM164.121 42.916H168.693V40.316H164.121V42.916ZM167.393 41.616V47.088H169.993V41.616H167.393ZM167.393 47.088C167.393 49.0222 166.858 50.3604 165.937 51.2808L167.776 53.1192C169.303 51.5916 169.993 49.5218 169.993 47.088H167.393ZM165.937 51.2808C165.043 52.175 163.73 52.7 161.817 52.7V55.3C164.223 55.3 166.27 54.625 167.776 53.1192L165.937 51.2808ZM161.817 52.7C160.632 52.7 159.798 52.552 159.246 52.3276L158.267 54.7364C159.251 55.136 160.457 55.3 161.817 55.3V52.7ZM159.278 52.341C158.716 52.0954 158.361 51.7776 158.136 51.4107L155.921 52.7733C156.464 53.6544 157.261 54.2966 158.235 54.723L159.278 52.341ZM155.979 51.325C155.663 51.7573 155.245 52.0983 154.693 52.3472L155.764 54.7168C156.7 54.2937 157.482 53.6747 158.078 52.859L155.979 51.325ZM154.712 52.3392C154.21 52.5566 153.478 52.7 152.457 52.7V55.3C153.691 55.3 154.807 55.1314 155.745 54.7248L154.712 52.3392ZM152.457 52.7C151.22 52.7 150.345 52.5511 149.765 52.3225L148.812 54.7415C149.816 55.1369 151.053 55.3 152.457 55.3V52.7ZM149.796 52.3352C149.208 52.0858 148.851 51.7668 148.632 51.4107L146.417 52.7733C146.966 53.6652 147.785 54.3062 148.781 54.7288L149.796 52.3352ZM146.477 51.3215C145.867 52.1512 144.797 52.7 142.917 52.7V55.3C145.308 55.3 147.31 54.5768 148.572 52.8625L146.477 51.3215ZM142.917 52.7H140.145V55.3H142.917V52.7ZM140.145 52.7C140.498 52.7 140.771 52.8526 140.937 53.0046C141.083 53.1375 141.147 53.2666 141.164 53.3042C141.198 53.3763 141.183 53.3769 141.159 53.2233C141.115 52.9423 141.085 52.4483 141.085 51.696H138.485C138.485 52.4797 138.514 53.1377 138.59 53.6247C138.626 53.8551 138.686 54.1437 138.81 54.4078C138.897 54.5932 139.273 55.3 140.145 55.3V52.7ZM141.085 51.696C141.085 50.8825 141.115 50.3377 141.161 50.0195C141.186 49.8472 141.204 49.8286 141.179 49.8856C141.167 49.9137 141.111 50.0408 140.973 50.1766C140.815 50.3324 140.531 50.512 140.145 50.512V47.912C139.221 47.912 138.859 48.701 138.795 48.8489C138.68 49.1129 138.623 49.4048 138.588 49.6465C138.514 50.1563 138.485 50.8535 138.485 51.696H141.085ZM140.145 50.512H142.917V47.912H140.145V50.512ZM180.28 48.708L179.361 49.6272L179.391 49.6578L179.424 49.6863L180.28 48.708ZM180.748 53.82L180.337 55.0533L180.368 55.0637L180.4 55.0726L180.748 53.82ZM179.74 53.244L180.659 52.3248L178.56 50.2252L178.441 53.192L179.74 53.244ZM178.408 58.068L177.282 57.4189L177.278 57.4261L177.273 57.4334L178.408 58.068ZM175.06 61.38L174.434 60.2409L174.426 60.2449L174.419 60.249L175.06 61.38ZM166.996 62.604L165.7 62.7112L165.799 63.904H166.996V62.604ZM166.6 57.816V56.516H165.188L165.304 57.9232L166.6 57.816ZM173.8 56.448L172.893 55.5166L172.887 55.5226L172.881 55.5288L173.8 56.448ZM175.168 41.616V40.316H173.868V41.616H175.168ZM179.74 41.616H181.04V40.316H179.74V41.616ZM178.44 47.052C178.44 47.982 178.664 48.9304 179.361 49.6272L181.199 47.7888C181.176 47.7656 181.04 47.61 181.04 47.052H178.44ZM179.424 49.6863C180.151 50.3228 181.127 50.512 182.08 50.512V47.912C181.401 47.912 181.177 47.7652 181.136 47.7297L179.424 49.6863ZM182.08 50.512H182.728V47.912H182.08V50.512ZM182.728 50.512C182.342 50.512 182.058 50.3324 181.9 50.1766C181.762 50.0408 181.706 49.9137 181.693 49.8856C181.669 49.8286 181.687 49.8472 181.711 50.0195C181.758 50.3377 181.788 50.8825 181.788 51.696H184.388C184.388 50.8535 184.358 50.1563 184.285 49.6465C184.25 49.4048 184.193 49.1129 184.078 48.8489C184.013 48.701 183.651 47.912 182.728 47.912V50.512ZM181.788 51.696C181.788 52.4483 181.758 52.9423 181.714 53.2233C181.69 53.3769 181.675 53.3763 181.708 53.3042C181.726 53.2666 181.79 53.1375 181.935 53.0046C182.101 52.8526 182.375 52.7 182.728 52.7V55.3C183.6 55.3 183.976 54.5932 184.063 54.4078C184.186 54.1437 184.246 53.8551 184.282 53.6247C184.359 53.1377 184.388 52.4797 184.388 51.696H181.788ZM182.728 52.7H182.152V55.3H182.728V52.7ZM182.152 52.7C181.751 52.7 181.402 52.6523 181.096 52.5674L180.4 55.0726C180.958 55.2277 181.545 55.3 182.152 55.3V52.7ZM181.159 52.5867C180.856 52.4857 180.716 52.3819 180.659 52.3248L178.821 54.1632C179.244 54.5861 179.776 54.8663 180.337 55.0533L181.159 52.5867ZM178.441 53.192C178.377 54.8039 177.982 56.2031 177.282 57.4189L179.534 58.7171C180.466 57.1009 180.959 55.2841 181.039 53.296L178.441 53.192ZM177.273 57.4334C176.602 58.6341 175.663 59.5646 174.434 60.2409L175.687 62.5191C177.337 61.6114 178.63 60.3339 179.543 58.7026L177.273 57.4334ZM174.419 60.249C173.204 60.9376 171.752 61.304 170.02 61.304V63.904C172.128 63.904 174.036 63.4544 175.701 62.511L174.419 60.249ZM170.02 61.304H166.996V63.904H170.02V61.304ZM168.292 62.4968L167.896 57.7088L165.304 57.9232L165.7 62.7112L168.292 62.4968ZM166.6 59.116H169.948V56.516H166.6V59.116ZM169.948 59.116C171.846 59.116 173.499 58.587 174.719 57.3672L172.881 55.5288C172.277 56.133 171.362 56.516 169.948 56.516V59.116ZM174.707 57.3794C175.936 56.1825 176.468 54.5467 176.468 52.668H173.868C173.868 54.0533 173.488 54.9375 172.893 55.5166L174.707 57.3794ZM176.468 52.668V41.616H173.868V52.668H176.468ZM175.168 42.916H179.74V40.316H175.168V42.916ZM178.44 41.616V47.052H181.04V41.616H178.44ZM187.903 49.212V50.512H192.523L188.581 48.1027L187.903 49.212ZM185.959 47.376L184.828 48.0169L184.841 48.0395L184.854 48.0616L185.959 47.376ZM186.283 41.112L187.414 41.7517L187.414 41.7517L186.283 41.112ZM188.875 38.52L189.514 39.6517L189.524 39.6465L189.533 39.6411L188.875 38.52ZM198.055 39.672L197.088 40.5408L197.096 40.5497L198.055 39.672ZM197.515 52.2L196.752 51.1473L196.745 51.1527L197.515 52.2ZM194.635 48.852L194.199 50.0766L194.991 50.3589L195.573 49.7515L194.635 48.852ZM190.675 42.912L189.756 41.9928L189.756 41.9928L190.675 42.912ZM190.963 47.016L190.095 47.9839L190.104 47.9924L190.114 48.0006L190.963 47.016ZM190.171 34.272H188.871V35.572H190.171V34.272ZM190.171 30.168V28.868H188.871V30.168H190.171ZM195.067 30.168H196.367V28.868H195.067V30.168ZM195.067 34.272V35.572H196.367V34.272H195.067ZM188.581 48.1027C187.85 47.6561 187.366 47.1778 187.063 46.6904L184.854 48.0616C185.416 48.9662 186.228 49.7119 187.225 50.3213L188.581 48.1027ZM187.09 46.7351C186.814 46.249 186.647 45.6161 186.647 44.784H184.047C184.047 45.9679 184.287 47.063 184.828 48.0169L187.09 46.7351ZM186.647 44.784C186.647 43.6503 186.907 42.6488 187.414 41.7517L185.151 40.4723C184.41 41.7832 184.047 43.2297 184.047 44.784H186.647ZM187.414 41.7517C187.922 40.8534 188.616 40.1595 189.514 39.6517L188.235 37.3883C186.925 38.1285 185.891 39.1626 185.151 40.4723L187.414 41.7517ZM189.533 39.6411C190.42 39.1204 191.437 38.848 192.619 38.848V36.248C191.016 36.248 189.537 36.6236 188.217 37.3989L189.533 39.6411ZM192.619 38.848C194.696 38.848 196.119 39.462 197.088 40.5407L199.022 38.8033C197.447 37.05 195.246 36.248 192.619 36.248V38.848ZM197.096 40.5497C198.113 41.6611 198.699 43.2686 198.699 45.54H201.299C201.299 42.8194 200.589 40.5149 199.014 38.7943L197.096 40.5497ZM198.699 45.54V46.764H201.299V45.54H198.699ZM198.699 46.764C198.699 48.859 198.005 50.2391 196.752 51.1473L198.278 53.2527C200.336 51.7609 201.299 49.517 201.299 46.764H198.699ZM196.745 51.1527C195.433 52.1173 193.333 52.7 190.243 52.7V55.3C193.585 55.3 196.333 54.6827 198.285 53.2473L196.745 51.1527ZM190.243 52.7H182.719V55.3H190.243V52.7ZM182.719 52.7C183.072 52.7 183.345 52.8526 183.512 53.0046C183.657 53.1375 183.721 53.2666 183.738 53.3042C183.772 53.3763 183.757 53.3769 183.733 53.2233C183.689 52.9423 183.659 52.4483 183.659 51.696H181.059C181.059 52.4797 181.088 53.1377 181.164 53.6247C181.2 53.8551 181.26 54.1437 181.384 54.4078C181.471 54.5932 181.847 55.3 182.719 55.3V52.7ZM183.659 51.696C183.659 50.8825 183.689 50.3377 183.735 50.0195C183.76 49.8472 183.778 49.8286 183.753 49.8856C183.741 49.9137 183.685 50.0408 183.547 50.1766C183.389 50.3324 183.105 50.512 182.719 50.512V47.912C181.795 47.912 181.433 48.701 181.369 48.8489C181.254 49.1129 181.197 49.4048 181.162 49.6465C181.088 50.1563 181.059 50.8535 181.059 51.696H183.659ZM182.719 50.512H186.823V47.912H182.719V50.512ZM186.823 50.512H187.903V47.912H186.823V50.512ZM195.573 49.7515C196.443 48.8442 196.763 47.5989 196.763 46.26H194.163C194.163 47.2251 193.931 47.7078 193.696 47.9525L195.573 49.7515ZM196.763 46.26V45.72H194.163V46.26H196.763ZM196.763 45.72C196.763 44.3811 196.501 43.1364 195.758 42.2079C194.971 41.224 193.83 40.82 192.583 40.82V43.42C193.256 43.42 193.555 43.616 193.728 43.8321C193.945 44.1036 194.163 44.6589 194.163 45.72H196.763ZM192.583 40.82C191.493 40.82 190.526 41.222 189.756 41.9928L191.594 43.8312C191.879 43.546 192.185 43.42 192.583 43.42V40.82ZM189.756 41.9928C188.996 42.7522 188.619 43.7121 188.619 44.784H191.219C191.219 44.3679 191.345 44.0798 191.594 43.8312L189.756 41.9928ZM188.619 44.784C188.619 46.0501 189.149 47.136 190.095 47.9839L191.831 46.0481C191.384 45.648 191.219 45.2459 191.219 44.784H188.619ZM190.114 48.0006C191.002 48.7658 192.418 49.4425 194.199 50.0766L195.071 47.6274C193.348 47.0135 192.316 46.4662 191.812 46.0314L190.114 48.0006ZM191.471 34.272V30.168H188.871V34.272H191.471ZM190.171 31.468H195.067V28.868H190.171V31.468ZM193.767 30.168V34.272H196.367V30.168H193.767ZM195.067 32.972H190.171V35.572H195.067V32.972ZM232.708 48.744L233.559 49.7264L233.564 49.7223L232.708 48.744ZM233.284 41.616V40.316H231.984V41.616H233.284ZM237.856 41.616H239.156V40.316H237.856V41.616ZM235.552 52.272L236.654 51.583L235.628 49.9412L234.497 51.5124L235.552 52.272ZM233.824 53.604L234.285 54.8195L234.296 54.8154L234.306 54.811L233.824 53.604ZM214.492 52.308L213.572 53.2273L213.582 53.2369L214.492 52.308ZM212.764 41.616V40.316H211.464V41.616H212.764ZM217.336 41.616H218.636V40.316H217.336V41.616ZM217.876 48.6L216.901 49.4601L216.915 49.4758L216.929 49.491L217.876 48.6ZM230.404 35.028H231.704V33.728H230.404V35.028ZM230.404 39.132V40.432H231.704V39.132H230.404ZM220.252 39.132H218.952V40.432H220.252V39.132ZM220.252 35.028V33.728H218.952V35.028H220.252ZM231.268 50.512C232.097 50.512 232.906 50.2921 233.559 49.7264L231.856 47.7616C231.789 47.8199 231.639 47.912 231.268 47.912V50.512ZM233.564 49.7223C234.255 49.1176 234.584 48.3043 234.584 47.412H231.984C231.984 47.6237 231.928 47.6984 231.852 47.7657L233.564 49.7223ZM234.584 47.412V41.616H231.984V47.412H234.584ZM233.284 42.916H237.856V40.316H233.284V42.916ZM236.556 41.616V47.232H239.156V41.616H236.556ZM236.556 47.232C236.556 48.0984 236.778 48.9856 237.449 49.6445C238.115 50.2991 239.005 50.512 239.872 50.512V47.912C239.394 47.912 239.276 47.7949 239.27 47.7895C239.269 47.7884 239.156 47.6856 239.156 47.232H236.556ZM239.872 50.512H241.24V47.912H239.872V50.512ZM241.24 50.512C240.853 50.512 240.569 50.3324 240.411 50.1766C240.274 50.0408 240.217 49.9137 240.205 49.8856C240.18 49.8286 240.198 49.8472 240.223 50.0195C240.269 50.3377 240.3 50.8825 240.3 51.696H242.9C242.9 50.8535 242.87 50.1563 242.796 49.6465C242.761 49.4048 242.704 49.1129 242.589 48.8489C242.525 48.701 242.163 47.912 241.24 47.912V50.512ZM240.3 51.696C240.3 52.4483 240.269 52.9423 240.225 53.2233C240.201 53.3769 240.186 53.3763 240.22 53.3042C240.238 53.2666 240.301 53.1375 240.447 53.0046C240.613 52.8526 240.886 52.7 241.24 52.7V55.3C242.111 55.3 242.487 54.5932 242.574 54.4078C242.698 54.1437 242.758 53.8551 242.794 53.6247C242.87 53.1377 242.9 52.4797 242.9 51.696H240.3ZM241.24 52.7H239.656V55.3H241.24V52.7ZM239.656 52.7C237.854 52.7 237.035 52.192 236.654 51.583L234.449 52.961C235.509 54.656 237.425 55.3 239.656 55.3V52.7ZM234.497 51.5124C234.216 51.9019 233.843 52.196 233.341 52.397L234.306 54.811C235.244 54.436 236.023 53.8421 236.607 53.0316L234.497 51.5124ZM233.363 52.3885C232.856 52.5807 232.17 52.7 231.268 52.7V55.3C232.381 55.3 233.399 55.1553 234.285 54.8195L233.363 52.3885ZM231.268 52.7H219.46V55.3H231.268V52.7ZM219.46 52.7C217.521 52.7 216.237 52.1974 215.401 51.3791L213.582 53.2369C215.05 54.6746 217.078 55.3 219.46 55.3V52.7ZM215.411 51.3888C214.571 50.5494 214.064 49.2787 214.064 47.376H211.464C211.464 49.7453 212.108 51.7626 213.572 53.2272L215.411 51.3888ZM214.064 47.376V41.616H211.464V47.376H214.064ZM212.764 42.916H217.336V40.316H212.764V42.916ZM216.036 41.616V46.764H218.636V41.616H216.036ZM216.036 46.764C216.036 47.7431 216.248 48.7203 216.901 49.4601L218.85 47.7399C218.783 47.6637 218.636 47.4169 218.636 46.764H216.036ZM216.929 49.491C217.653 50.2598 218.666 50.512 219.676 50.512V47.912C219.053 47.912 218.867 47.7562 218.822 47.709L216.929 49.491ZM219.676 50.512H231.268V47.912H219.676V50.512ZM229.104 35.028V39.132H231.704V35.028H229.104ZM230.404 37.832H220.252V40.432H230.404V37.832ZM221.552 39.132V35.028H218.952V39.132H221.552ZM220.252 36.328H230.404V33.728H220.252V36.328ZM245.178 49.212V50.512H248.194L246.123 48.3194L245.178 49.212ZM244.206 47.52L242.964 47.9053L242.97 47.9247L242.977 47.9438L244.206 47.52ZM244.818 41.796L243.697 41.1379L243.691 41.1471L243.686 41.1563L244.818 41.796ZM247.446 39.168L246.788 38.0469L246.788 38.0469L247.446 39.168ZM254.898 39.096L254.267 40.2324L254.281 40.2407L254.297 40.2486L254.898 39.096ZM257.454 41.58L256.318 42.2113L256.323 42.2209L256.328 42.2304L257.454 41.58ZM256.878 49.212L255.938 48.3144L253.84 50.512H256.878V49.212ZM252.918 53.856L252.717 55.1404L252.737 55.1435L252.757 55.146L252.918 53.856ZM251.118 53.28L251.796 52.1707L251.118 51.7565L250.44 52.1707L251.118 53.28ZM249.246 53.856L249.402 55.1466L249.419 55.1446L249.435 55.1422L249.246 53.856ZM249.138 43.56L248.198 42.6624L248.197 42.6634L249.138 43.56ZM249.138 47.592L248.08 48.3476L248.087 48.3568L248.093 48.3658L249.138 47.592ZM251.118 49.212L250.523 50.3681L251.086 50.6574L251.661 50.3933L251.118 49.212ZM253.134 47.592L254.21 48.322L254.216 48.3132L254.221 48.3044L253.134 47.592ZM253.098 43.488L254.017 42.5688L254.017 42.5688L253.098 43.488ZM248.67 34.596H247.37V35.896H248.67V34.596ZM248.67 30.492V29.192H247.37V30.492H248.67ZM253.566 30.492H254.866V29.192H253.566V30.492ZM253.566 34.596V35.896H254.866V34.596H253.566ZM246.123 48.3194C245.868 48.0498 245.629 47.6582 245.435 47.0962L242.977 47.9438C243.263 48.7738 243.671 49.5102 244.233 50.1046L246.123 48.3194ZM245.447 47.1347C245.268 46.5576 245.182 45.9913 245.182 45.432H242.582C242.582 46.2647 242.711 47.0904 242.964 47.9053L245.447 47.1347ZM245.182 45.432C245.182 44.3266 245.441 43.3364 245.95 42.4357L243.686 41.1563C242.947 42.4636 242.582 43.8974 242.582 45.432H245.182ZM245.939 42.4541C246.475 41.5414 247.191 40.8248 248.104 40.2891L246.788 38.0469C245.492 38.8072 244.457 39.8426 243.697 41.1379L245.939 42.4541ZM248.104 40.2891C248.998 39.7642 249.993 39.496 251.118 39.496V36.896C249.555 36.896 248.101 37.2758 246.788 38.0469L248.104 40.2891ZM251.118 39.496C252.374 39.496 253.41 39.7563 254.267 40.2324L255.529 37.9596C254.226 37.2357 252.742 36.896 251.118 36.896V39.496ZM254.297 40.2486C255.177 40.7079 255.842 41.3555 256.318 42.2113L258.59 40.9487C257.866 39.6445 256.827 38.6361 255.499 37.9434L254.297 40.2486ZM256.328 42.2304C256.827 43.0939 257.09 44.0896 257.09 45.252H259.69C259.69 43.6784 259.329 42.2261 258.58 40.9296L256.328 42.2304ZM257.09 45.252C257.09 46.5328 256.694 47.5218 255.938 48.3144L257.818 50.1096C259.078 48.7902 259.69 47.1392 259.69 45.252H257.09ZM256.878 50.512H261.018V47.912H256.878V50.512ZM261.018 50.512C260.632 50.512 260.348 50.3324 260.19 50.1766C260.052 50.0408 259.995 49.9137 259.983 49.8856C259.958 49.8286 259.976 49.8472 260.001 50.0195C260.047 50.3377 260.078 50.8825 260.078 51.696H262.678C262.678 50.8535 262.648 50.1563 262.574 49.6465C262.539 49.4048 262.482 49.1129 262.368 48.8489C262.303 48.701 261.941 47.912 261.018 47.912V50.512ZM260.078 51.696C260.078 52.4483 260.047 52.9423 260.003 53.2233C259.979 53.3769 259.965 53.3763 259.998 53.3042C260.016 53.2666 260.08 53.1375 260.225 53.0046C260.391 52.8526 260.665 52.7 261.018 52.7V55.3C261.89 55.3 262.266 54.5932 262.353 54.4078C262.476 54.1437 262.536 53.8551 262.572 53.6247C262.648 53.1377 262.678 52.4797 262.678 51.696H260.078ZM261.018 52.7H256.122V55.3H261.018V52.7ZM256.122 52.7C254.774 52.7 253.768 52.6521 253.079 52.566L252.757 55.146C253.604 55.2519 254.734 55.3 256.122 55.3V52.7ZM253.119 52.5716C252.438 52.4653 252.025 52.3108 251.796 52.1707L250.44 54.3893C251.075 54.7772 251.861 55.0067 252.717 55.1404L253.119 52.5716ZM250.44 52.1707C250.222 52.3039 249.795 52.4612 249.057 52.5698L249.435 55.1422C250.329 55.0108 251.15 54.7841 251.796 54.3893L250.44 52.1707ZM249.089 52.5654C248.37 52.6526 247.396 52.7 246.15 52.7V55.3C247.447 55.3 248.537 55.2514 249.402 55.1466L249.089 52.5654ZM246.15 52.7H241.254V55.3H246.15V52.7ZM241.254 52.7C241.607 52.7 241.881 52.8526 242.047 53.0046C242.192 53.1375 242.256 53.2666 242.274 53.3042C242.307 53.3763 242.292 53.3769 242.268 53.2233C242.224 52.9423 242.194 52.4483 242.194 51.696H239.594C239.594 52.4797 239.623 53.1377 239.699 53.6247C239.735 53.8551 239.796 54.1437 239.919 54.4078C240.006 54.5932 240.382 55.3 241.254 55.3V52.7ZM242.194 51.696C242.194 50.8825 242.224 50.3377 242.27 50.0195C242.295 49.8472 242.313 49.8286 242.289 49.8856C242.276 49.9137 242.22 50.0408 242.082 50.1766C241.924 50.3324 241.64 50.512 241.254 50.512V47.912C240.331 47.912 239.969 48.701 239.904 48.8489C239.789 49.1129 239.732 49.4048 239.697 49.6465C239.623 50.1563 239.594 50.8535 239.594 51.696H242.194ZM241.254 50.512H245.178V47.912H241.254V50.512ZM251.118 41.468C249.993 41.468 248.977 41.8458 248.198 42.6624L250.078 44.4576C250.307 44.2182 250.611 44.068 251.118 44.068V41.468ZM248.197 42.6634C247.462 43.4351 247.118 44.4038 247.118 45.468H249.718C249.718 44.9962 249.854 44.6929 250.079 44.4566L248.197 42.6634ZM247.118 45.468C247.118 46.5126 247.461 47.4805 248.08 48.3476L250.196 46.8364C249.855 46.3595 249.718 45.9114 249.718 45.468H247.118ZM248.093 48.3658C248.711 49.1993 249.536 49.8604 250.523 50.3681L251.712 48.0559C251.02 47.6996 250.525 47.2807 250.183 46.8182L248.093 48.3658ZM251.661 50.3933C252.72 49.9065 253.596 49.2267 254.21 48.322L252.058 46.862C251.76 47.3013 251.292 47.7015 250.575 48.0307L251.661 50.3933ZM254.221 48.3044C254.794 47.4305 255.118 46.4787 255.118 45.468H252.518C252.518 45.8973 252.386 46.3615 252.047 46.8796L254.221 48.3044ZM255.118 45.468C255.118 44.37 254.796 43.3477 254.017 42.5688L252.179 44.4072C252.36 44.5883 252.518 44.886 252.518 45.468H255.118ZM254.017 42.5688C253.238 41.7898 252.216 41.468 251.118 41.468V44.068C251.7 44.068 251.998 44.2262 252.179 44.4072L254.017 42.5688ZM249.97 34.596V30.492H247.37V34.596H249.97ZM248.67 31.792H253.566V29.192H248.67V31.792ZM252.266 30.492V34.596H254.866V30.492H252.266ZM253.566 33.296H248.67V35.896H253.566V33.296ZM283.764 42.624L284.719 41.7422L284.715 41.7384L283.764 42.624ZM285.636 45.36L284.443 45.876L284.448 45.8894L284.454 45.9028L285.636 45.36ZM284.412 52.38L283.552 51.4052L283.542 51.4137L284.412 52.38ZM272.208 53.892L272.024 55.1789L272.046 55.1822L272.069 55.1846L272.208 53.892ZM270.516 53.316L271.21 52.2169L270.561 51.8072L269.889 52.1769L270.516 53.316ZM268.608 53.856L268.451 52.5654L268.446 52.566L268.608 53.856ZM264.792 49.212V50.512H267.364L265.838 48.4408L264.792 49.212ZM263.964 47.556L262.73 47.9671L262.73 47.9671L263.964 47.556ZM264.576 41.94L265.707 42.5797L265.707 42.5797L264.576 41.94ZM267.168 39.348L267.807 40.4797L267.807 40.4797L267.168 39.348ZM274.26 39.276L273.626 40.4112L275.195 38.373L274.26 39.276ZM273.252 38.232L272.318 37.3278L271.444 38.2308L272.316 39.135L273.252 38.232ZM276.528 34.848L277.479 33.9624L276.546 32.9597L275.594 33.9438L276.528 34.848ZM281.316 46.872L280.153 47.4534L280.179 47.5046L280.209 47.5533L281.316 46.872ZM280.272 45.504L281.23 44.6256L281.22 44.6149L281.21 44.6045L280.272 45.504ZM276.96 42.048L277.898 41.1485L275.786 42.6079L276.96 42.048ZM277.248 47.484L276.055 46.9671L276.048 46.9841L276.041 47.0012L277.248 47.484ZM276.06 49.212L275.214 48.225L272.545 50.512H276.06V49.212ZM270.516 49.212L269.921 50.3681L270.481 50.6562L271.055 50.395L270.516 49.212ZM272.64 43.74L271.678 44.6145L271.688 44.6256L271.698 44.6366L272.64 43.74ZM268.716 43.74L267.775 42.8424L267.774 42.8434L268.716 43.74ZM282.808 43.5058C283.603 44.3662 284.132 45.1574 284.443 45.876L286.829 44.844C286.372 43.7866 285.653 42.7538 284.719 41.7422L282.808 43.5058ZM284.454 45.9028C284.786 46.6237 284.948 47.3628 284.948 48.132H287.548C287.548 46.9812 287.302 45.8723 286.817 44.8172L284.454 45.9028ZM284.948 48.132C284.948 49.5419 284.474 50.5917 283.552 51.4052L285.272 53.3548C286.798 52.0083 287.548 50.2261 287.548 48.132H284.948ZM283.542 51.4137C282.641 52.2242 281.351 52.7 279.516 52.7V55.3C281.809 55.3 283.782 54.6958 285.281 53.3463L283.542 51.4137ZM279.516 52.7H275.484V55.3H279.516V52.7ZM275.484 52.7C273.976 52.7 272.944 52.6634 272.346 52.5994L272.069 55.1846C272.816 55.2646 273.968 55.3 275.484 55.3V52.7ZM272.392 52.6051C271.856 52.5285 271.476 52.3851 271.21 52.2169L269.822 54.4151C270.467 54.8229 271.216 55.0635 272.024 55.1789L272.392 52.6051ZM269.889 52.1769C269.605 52.3331 269.147 52.4811 268.451 52.5654L268.764 55.1466C269.652 55.0389 270.466 54.8269 271.142 54.4551L269.889 52.1769ZM268.446 52.566C267.756 52.6523 266.774 52.7 265.476 52.7V55.3C266.818 55.3 267.923 55.2517 268.769 55.146L268.446 52.566ZM265.476 52.7H261.012V55.3H265.476V52.7ZM261.012 52.7C261.365 52.7 261.638 52.8526 261.805 53.0046C261.95 53.1375 262.014 53.2666 262.031 53.3042C262.065 53.3763 262.05 53.3769 262.026 53.2233C261.982 52.9423 261.952 52.4483 261.952 51.696H259.352C259.352 52.4797 259.381 53.1377 259.457 53.6247C259.493 53.8551 259.553 54.1437 259.677 54.4078C259.764 54.5932 260.14 55.3 261.012 55.3V52.7ZM261.952 51.696C261.952 50.8825 261.982 50.3377 262.028 50.0195C262.053 49.8472 262.071 49.8286 262.046 49.8856C262.034 49.9137 261.978 50.0408 261.84 50.1766C261.682 50.3324 261.398 50.512 261.012 50.512V47.912C260.088 47.912 259.726 48.701 259.662 48.8489C259.547 49.1129 259.49 49.4048 259.455 49.6465C259.381 50.1563 259.352 50.8535 259.352 51.696H261.952ZM261.012 50.512H264.792V47.912H261.012V50.512ZM265.838 48.4408C265.598 48.1142 265.379 47.6895 265.197 47.1449L262.73 47.9671C262.981 48.7185 263.314 49.3978 263.745 49.9832L265.838 48.4408ZM265.197 47.1449C265.023 46.6222 264.94 46.1129 264.94 45.612H262.34C262.34 46.4071 262.473 47.1938 262.73 47.9671L265.197 47.1449ZM264.94 45.612C264.94 44.4783 265.2 43.4768 265.707 42.5797L263.444 41.3003C262.703 42.6112 262.34 44.0577 262.34 45.612H264.94ZM265.707 42.5797C266.215 41.6814 266.909 40.9875 267.807 40.4797L266.528 38.2163C265.218 38.9565 264.184 39.9906 263.444 41.3003L265.707 42.5797ZM267.807 40.4797C268.701 39.9747 269.714 39.712 270.876 39.712V37.112C269.302 37.112 267.842 37.4733 266.528 38.2163L267.807 40.4797ZM270.876 39.712C271.886 39.712 272.795 39.9472 273.626 40.4112L274.893 38.1408C273.661 37.4528 272.313 37.112 270.876 37.112V39.712ZM275.195 38.373L274.187 37.329L272.316 39.135L273.324 40.179L275.195 38.373ZM274.186 39.1362L277.462 35.7522L275.594 33.9438L272.318 37.3278L274.186 39.1362ZM275.576 35.7336L282.812 43.5096L284.715 41.7384L277.479 33.9624L275.576 35.7336ZM279.444 50.512C280.259 50.512 281.093 50.3905 281.759 49.9683C282.526 49.4825 282.904 48.708 282.904 47.844H280.304C280.304 47.8989 280.294 47.8836 280.318 47.837C280.345 47.7866 280.376 47.7666 280.368 47.7717C280.351 47.7824 280.281 47.8206 280.12 47.8545C279.96 47.8883 279.739 47.912 279.444 47.912V50.512ZM282.904 47.844C282.904 47.2459 282.729 46.6884 282.423 46.1907L280.209 47.5533C280.286 47.6796 280.304 47.7701 280.304 47.844H282.904ZM282.478 46.2906C282.225 45.7832 281.771 45.2162 281.23 44.6256L279.313 46.3824C279.828 46.9438 280.071 47.2888 280.153 47.4534L282.478 46.2906ZM281.21 44.6045L277.898 41.1485L276.021 42.9475L279.333 46.4035L281.21 44.6045ZM275.786 42.6079C276.214 43.5039 276.416 44.3816 276.416 45.252H279.016C279.016 43.9624 278.713 42.7041 278.133 41.4881L275.786 42.6079ZM276.416 45.252C276.416 45.8383 276.298 46.4066 276.055 46.9671L278.441 48.0009C278.822 47.1214 279.016 46.2017 279.016 45.252H276.416ZM276.041 47.0012C275.817 47.5593 275.534 47.9507 275.214 48.225L276.906 50.199C277.594 49.6093 278.102 48.8487 278.455 47.9668L276.041 47.0012ZM276.06 50.512H279.444V47.912H276.06V50.512ZM271.055 50.395C273.208 49.4136 274.66 47.8624 274.66 45.648H272.06C272.06 46.4576 271.615 47.2824 269.977 48.029L271.055 50.395ZM274.66 45.648C274.66 44.5838 274.316 43.6151 273.581 42.8434L271.698 44.6366C271.923 44.8729 272.06 45.1762 272.06 45.648H274.66ZM273.602 42.8655C272.839 42.0264 271.82 41.648 270.696 41.648V44.248C271.203 44.248 271.481 44.3976 271.678 44.6145L273.602 42.8655ZM270.696 41.648C269.571 41.648 268.555 42.0258 267.775 42.8424L269.656 44.6376C269.885 44.3982 270.189 44.248 270.696 44.248V41.648ZM267.774 42.8434C267.039 43.6151 266.696 44.5838 266.696 45.648H269.296C269.296 45.1762 269.432 44.8729 269.657 44.6366L267.774 42.8434ZM266.696 45.648C266.696 47.7766 267.937 49.3475 269.921 50.3681L271.11 48.0559C269.735 47.3485 269.296 46.5434 269.296 45.648H266.696Z" fill="black" mask="url(#path-1-outside-1_610_19)"/>
<path d="M71.8106 43.812L72.9601 44.4193L72.9647 44.4104L71.8106 43.812ZM75.0866 39.6L76.0059 40.5192L76.9251 39.6L76.0059 38.6808L75.0866 39.6ZM73.5386 38.052L72.5949 37.1579L71.7247 38.0765L72.6194 38.9712L73.5386 38.052ZM76.7786 34.632L77.6374 33.6561L76.6967 32.8282L75.8349 33.7379L76.7786 34.632ZM84.9146 43.812L83.7184 44.321L83.7224 44.3303L84.9146 43.812ZM84.6626 50.976L85.7707 51.656L85.7774 51.6448L84.6626 50.976ZM81.9266 53.46L82.5174 54.618L81.9266 53.46ZM72.7106 52.524L71.8001 53.452L71.8092 53.4607L72.7106 52.524ZM80.4146 44.964L79.2836 45.6049L79.2916 45.619L79.2999 45.6328L80.4146 44.964ZM78.2186 42.552L79.0553 41.557L78.1874 40.8272L77.3464 41.588L78.2186 42.552ZM76.0226 45.108L77.1404 45.7717L77.1449 45.7642L77.1492 45.7567L76.0226 45.108ZM76.0586 48.996L75.189 49.9623L75.2027 49.9746L75.2167 49.9865L76.0586 48.996ZM80.2346 48.96L81.0358 49.9838L81.0493 49.9732L81.0626 49.9623L80.2346 48.96ZM72.1026 47.628C72.1026 46.594 72.3738 45.5289 72.9601 44.4193L70.6612 43.2047C69.9034 44.6391 69.5026 46.118 69.5026 47.628H72.1026ZM72.9647 44.4104C73.554 43.2739 74.5486 41.9765 76.0059 40.5192L74.1674 38.6808C72.6007 40.2474 71.4112 41.7581 70.6565 43.2136L72.9647 44.4104ZM76.0059 38.6808L74.4579 37.1328L72.6194 38.9712L74.1674 40.5192L76.0059 38.6808ZM74.4824 38.9461L77.7224 35.5261L75.8349 33.7379L72.5949 37.1579L74.4824 38.9461ZM75.9198 35.6079C78.3019 37.7042 80.0921 39.4393 81.3123 40.8206L83.2609 39.0994C81.9371 37.6007 80.0553 35.7838 77.6374 33.6561L75.9198 35.6079ZM81.3123 40.8206C82.5381 42.2084 83.3149 43.3728 83.7184 44.321L86.1108 43.303C85.5543 41.9952 84.5791 40.5916 83.2609 39.0994L81.3123 40.8206ZM83.7224 44.3303C84.1316 45.2713 84.3346 46.2469 84.3346 47.268H86.9346C86.9346 45.8891 86.6577 44.5607 86.1068 43.2937L83.7224 44.3303ZM84.3346 47.268C84.3346 48.4499 84.0622 49.45 83.5479 50.3072L85.7774 51.6448C86.5591 50.342 86.9346 48.8701 86.9346 47.268H84.3346ZM83.5546 50.2961C83.04 51.1347 82.3133 51.8033 81.3358 52.302L82.5174 54.618C83.892 53.9167 84.9892 52.9293 85.7706 51.6559L83.5546 50.2961ZM81.3358 52.302C80.3705 52.7945 79.2228 53.06 77.8586 53.06V55.66C79.5664 55.66 81.1307 55.3255 82.5174 54.618L81.3358 52.302ZM77.8586 53.06C75.9553 53.06 74.59 52.5284 73.612 51.5873L71.8092 53.4607C73.3752 54.9676 75.442 55.66 77.8586 55.66V53.06ZM73.6211 51.596C72.6319 50.6255 72.1026 49.345 72.1026 47.628H69.5026C69.5026 49.943 70.2454 51.9265 71.8002 53.452L73.6211 51.596ZM82.3626 47.232C82.3626 46.19 82.075 45.2045 81.5294 44.2952L79.2999 45.6328C79.6183 46.1635 79.7626 46.69 79.7626 47.232H82.3626ZM81.5457 44.3231C81.0272 43.4082 80.1615 42.4873 79.0553 41.557L77.3819 43.547C78.3877 44.3927 78.986 45.0798 79.2836 45.6049L81.5457 44.3231ZM77.3464 41.588C76.2818 42.5512 75.4442 43.5072 74.896 44.4593L77.1492 45.7567C77.513 45.1248 78.1394 44.3768 79.0908 43.516L77.3464 41.588ZM74.9048 44.4443C74.3493 45.38 74.0386 46.3746 74.0386 47.412H76.6386C76.6386 46.9134 76.784 46.372 77.1404 45.7717L74.9048 44.4443ZM74.0386 47.412C74.0386 48.4189 74.4459 49.2935 75.189 49.9623L76.9283 48.0297C76.7113 47.8345 76.6386 47.6531 76.6386 47.412H74.0386ZM75.2167 49.9865C76.0003 50.6526 76.9939 50.908 78.0386 50.908V48.308C77.4033 48.308 77.077 48.1554 76.9006 48.0055L75.2167 49.9865ZM78.0386 50.908C79.153 50.908 80.1943 50.6423 81.0358 49.9838L79.4334 47.9362C79.171 48.1417 78.7482 48.308 78.0386 48.308V50.908ZM81.0626 49.9623C81.9036 49.2675 82.3626 48.3285 82.3626 47.232H79.7626C79.7626 47.5275 79.6696 47.7405 79.4067 47.9577L81.0626 49.9623ZM90.779 30.816V29.516H89.479V30.816H90.779ZM95.387 30.816H96.687V29.516H95.387V30.816ZM95.387 54V55.3H96.687V54H95.387ZM90.779 54H89.479V55.3H90.779V54ZM90.779 32.116H95.387V29.516H90.779V32.116ZM94.087 30.816V54H96.687V30.816H94.087ZM95.387 52.7H90.779V55.3H95.387V52.7ZM92.079 54V30.816H89.479V54H92.079ZM105.638 57.852L104.49 57.2412L104.486 57.2488L105.638 57.852ZM102.218 61.344L101.593 60.2041L101.582 60.2102L101.571 60.2164L102.218 61.344ZM94.082 62.604L92.7864 62.7112L92.885 63.904H94.082V62.604ZM93.686 57.816V56.516H92.274L92.3904 57.9232L93.686 57.816ZM100.886 56.448L99.9791 55.5166L99.9729 55.5226L99.9667 55.5288L100.886 56.448ZM102.254 41.616V40.316H100.954V41.616H102.254ZM106.826 41.616H108.126V40.316H106.826V41.616ZM105.526 52.668C105.526 54.4588 105.167 55.9705 104.49 57.2412L106.786 58.4628C107.693 56.7575 108.126 54.8132 108.126 52.668H105.526ZM104.486 57.2488C103.812 58.5354 102.855 59.512 101.593 60.2041L102.843 62.4839C104.557 61.544 105.879 60.1926 106.79 58.4552L104.486 57.2488ZM101.571 60.2164C100.332 60.9273 98.8579 61.304 97.106 61.304V63.904C99.2421 63.904 101.176 63.4407 102.865 62.4716L101.571 60.2164ZM97.106 61.304H94.082V63.904H97.106V61.304ZM95.3775 62.4968L94.9815 57.7088L92.3904 57.9232L92.7864 62.7112L95.3775 62.4968ZM93.686 59.116H97.034V56.516H93.686V59.116ZM97.034 59.116C98.9323 59.116 100.585 58.587 101.805 57.3672L99.9667 55.5288C99.3625 56.133 98.4477 56.516 97.034 56.516V59.116ZM101.793 57.3794C103.022 56.1825 103.554 54.5467 103.554 52.668H100.954C100.954 54.0533 100.574 54.9375 99.9791 55.5166L101.793 57.3794ZM103.554 52.668V41.616H100.954V52.668H103.554ZM102.254 42.916H106.826V40.316H102.254V42.916ZM105.526 41.616V52.668H108.126V41.616H105.526ZM135.152 48.204L134.619 47.0179L133.136 47.6835L134.112 48.984L135.152 48.204ZM140.408 53.604L141.662 53.9461L141.665 53.9327L141.669 53.9193L140.408 53.604ZM134.324 53.172L133.642 54.2792L133.653 54.2856L133.663 54.2918L134.324 53.172ZM131.84 50.148L133.002 49.5666L132.43 48.4225L131.277 48.976L131.84 50.148ZM129.14 51.444L128.577 50.272L128.57 50.2751L128.564 50.2783L129.14 51.444ZM125.216 54.18L124.206 53.3613L124.199 53.3696L124.192 53.3781L125.216 54.18ZM125.504 60.588L126.288 59.5514L126.279 59.5445L126.27 59.5379L125.504 60.588ZM137.672 61.596L138.967 61.7032L139.083 60.296H137.672V61.596ZM137.276 66.384V67.684H138.472L138.571 66.4912L137.276 66.384ZM121.4 52.164L122.462 52.9125L121.4 52.164ZM127.304 47.772L127.834 48.9587L127.846 48.9533L127.304 47.772ZM132.632 45.324L133.174 46.5053L134.242 46.0148L133.862 44.9032L132.632 45.324ZM131.588 43.56L130.819 44.6083L130.835 44.62L130.851 44.6313L131.588 43.56ZM121.184 43.164L119.892 43.0172L119.727 44.464H121.184V43.164ZM121.724 38.412V37.112H120.563L120.432 38.2652L121.724 38.412ZM134.072 39.168L133.443 40.3058L133.454 40.3122L133.466 40.3184L134.072 39.168ZM136.376 41.724L137.534 41.1336L137.534 41.1336L136.376 41.724ZM137.96 46.944L138.492 48.1301L139.43 47.7092L139.236 46.6995L137.96 46.944ZM125.432 34.776H124.132V36.076H125.432V34.776ZM125.432 30.672V29.372H124.132V30.672H125.432ZM130.328 30.672H131.628V29.372H130.328V30.672ZM130.328 34.776V36.076H131.628V34.776H130.328ZM134.112 48.984C134.983 50.1455 136.44 50.512 137.96 50.512V47.912C136.743 47.912 136.328 47.6065 136.192 47.424L134.112 48.984ZM137.96 50.512H140.156V47.912H137.96V50.512ZM140.156 50.512C139.769 50.512 139.485 50.3324 139.327 50.1766C139.189 50.0408 139.133 49.9137 139.121 49.8856C139.096 49.8286 139.114 49.8472 139.139 50.0195C139.185 50.3377 139.216 50.8825 139.216 51.696H141.816C141.816 50.8535 141.786 50.1563 141.712 49.6465C141.677 49.4048 141.62 49.1129 141.505 48.8489C141.441 48.701 141.079 47.912 140.156 47.912V50.512ZM139.216 51.696C139.216 52.1751 139.207 52.5534 139.191 52.8375C139.183 52.9794 139.173 53.0895 139.164 53.1718C139.153 53.2592 139.145 53.2921 139.146 53.2887L141.669 53.9193C141.787 53.4464 141.816 52.6404 141.816 51.696H139.216ZM139.153 53.2619C139.13 53.3473 139.132 53.2998 139.194 53.2031C139.236 53.1374 139.532 52.7 140.156 52.7V55.3C140.875 55.3 141.262 54.7966 141.387 54.5989C141.533 54.3702 141.613 54.1247 141.662 53.9461L139.153 53.2619ZM140.156 52.7H137.852V55.3H140.156V52.7ZM137.852 52.7C136.599 52.7 135.668 52.4556 134.984 52.0522L133.663 54.2918C134.851 54.9924 136.272 55.3 137.852 55.3V52.7ZM135.005 52.0648C134.35 51.6618 133.661 50.8847 133.002 49.5666L130.677 50.7294C131.458 52.2913 132.425 53.5302 133.642 54.2792L135.005 52.0648ZM131.277 48.976L128.577 50.272L129.702 52.616L132.402 51.32L131.277 48.976ZM128.564 50.2783C126.619 51.2385 125.106 52.2513 124.206 53.3613L126.225 54.9987C126.765 54.3327 127.868 53.5215 129.715 52.6097L128.564 50.2783ZM124.192 53.3781C123.288 54.5324 122.872 55.9327 122.872 57.492H125.472C125.472 56.4113 125.751 55.6036 126.239 54.9819L124.192 53.3781ZM122.872 57.492C122.872 59.1912 123.42 60.6768 124.737 61.6381L126.27 59.5379C125.811 59.2032 125.472 58.6248 125.472 57.492H122.872ZM124.719 61.6246C125.947 62.5541 127.713 62.896 129.752 62.896V60.296C127.902 60.296 126.836 59.9659 126.288 59.5514L124.719 61.6246ZM129.752 62.896H137.672V60.296H129.752V62.896ZM136.376 61.4888L135.98 66.2768L138.571 66.4912L138.967 61.7032L136.376 61.4888ZM137.276 65.084H129.5V67.684H137.276V65.084ZM129.5 65.084C126.352 65.084 124.234 64.4128 122.915 63.2951C121.637 62.2125 120.9 60.53 120.9 57.996H118.3C118.3 61.054 119.212 63.5655 121.234 65.2789C123.215 66.9572 126.047 67.684 129.5 67.684V65.084ZM120.9 57.996C120.9 56.0663 121.424 54.3865 122.462 52.9125L120.337 51.4155C118.975 53.3495 118.3 55.5577 118.3 57.996H120.9ZM122.462 52.9125C123.481 51.4658 125.224 50.1266 127.834 48.9587L126.773 46.5853C123.911 47.8654 121.718 49.4542 120.337 51.4155L122.462 52.9125ZM127.846 48.9533L133.174 46.5053L132.089 44.1427L126.761 46.5907L127.846 48.9533ZM133.862 44.9032C133.538 43.959 133.08 43.0087 132.324 42.4887L130.851 44.6313C130.832 44.6183 130.899 44.66 131.018 44.8611C131.132 45.0547 131.264 45.3415 131.401 45.7448L133.862 44.9032ZM132.356 42.5117C131.645 41.99 130.673 41.864 129.752 41.864V44.464C130.123 44.464 130.395 44.493 130.584 44.5338C130.779 44.5757 130.833 44.6187 130.819 44.6083L132.356 42.5117ZM129.752 41.864H121.184V44.464H129.752V41.864ZM122.475 43.3108L123.015 38.5588L120.432 38.2652L119.892 43.0172L122.475 43.3108ZM121.724 39.712H130.616V37.112H121.724V39.712ZM130.616 39.712C131.859 39.712 132.777 39.938 133.443 40.3058L134.7 38.0302C133.542 37.39 132.156 37.112 130.616 37.112V39.712ZM133.466 40.3184C134.073 40.6377 134.675 41.2511 135.217 42.3144L137.534 41.1336C136.828 39.7489 135.894 38.6583 134.677 38.0176L133.466 40.3184ZM135.217 42.3144C135.761 43.3806 136.261 44.9837 136.683 47.1885L139.236 46.6995C138.794 44.3923 138.238 42.5154 137.534 41.1336L135.217 42.3144ZM137.427 45.7579L134.619 47.0179L135.684 49.3901L138.492 48.1301L137.427 45.7579ZM126.732 34.776V30.672H124.132V34.776H126.732ZM125.432 31.972H130.328V29.372H125.432V31.972ZM129.028 30.672V34.776H131.628V30.672H129.028ZM130.328 33.476H125.432V36.076H130.328V33.476ZM144.753 48.636L143.889 47.6644L143.875 47.6767L143.862 47.6893L144.753 48.636ZM145.401 41.616V40.316H144.101V41.616H145.401ZM149.973 41.616H151.273V40.316H149.973V41.616ZM154.293 48.636L153.429 47.6644L153.415 47.6767L153.402 47.6893L154.293 48.636ZM154.941 41.616V40.316H153.641V41.616H154.941ZM159.513 41.616H160.813V40.316H159.513V41.616ZM164.121 41.616V40.316H162.821V41.616H164.121ZM168.693 41.616H169.993V40.316H168.693V41.616ZM166.857 52.2L167.776 53.1192L167.776 53.1192L166.857 52.2ZM158.757 53.532L158.235 54.723L158.251 54.7299L158.267 54.7364L158.757 53.532ZM157.029 52.092L158.136 51.4107L157.121 49.762L155.979 51.325L157.029 52.092ZM155.229 53.532L155.745 54.7248L155.755 54.7209L155.764 54.7168L155.229 53.532ZM149.289 53.532L148.781 54.7288L148.796 54.7353L148.812 54.7415L149.289 53.532ZM147.525 52.092L148.632 51.4107L147.621 49.7679L146.477 51.3215L147.525 52.092ZM142.917 50.512C143.914 50.512 144.904 50.2788 145.644 49.5827L143.862 47.6893C143.785 47.7612 143.551 47.912 142.917 47.912V50.512ZM145.616 49.6076C146.372 48.9359 146.701 48.0288 146.701 47.052H144.101C144.101 47.4192 143.997 47.5681 143.889 47.6644L145.616 49.6076ZM146.701 47.052V41.616H144.101V47.052H146.701ZM145.401 42.916H149.973V40.316H145.401V42.916ZM148.673 41.616V47.052H151.273V41.616H148.673ZM148.673 47.052C148.673 48.0234 148.96 48.9745 149.74 49.653C150.486 50.3013 151.469 50.512 152.457 50.512V47.912C151.788 47.912 151.529 47.7627 151.447 47.691C151.399 47.6495 151.273 47.5206 151.273 47.052H148.673ZM152.457 50.512C153.454 50.512 154.444 50.2788 155.184 49.5827L153.402 47.6893C153.325 47.7612 153.091 47.912 152.457 47.912V50.512ZM155.156 49.6076C155.912 48.9359 156.241 48.0288 156.241 47.052H153.641C153.641 47.4192 153.537 47.5681 153.429 47.6644L155.156 49.6076ZM156.241 47.052V41.616H153.641V47.052H156.241ZM154.941 42.916H159.513V40.316H154.941V42.916ZM158.213 41.616V47.052H160.813V41.616H158.213ZM158.213 47.052C158.213 47.9946 158.468 48.9346 159.199 49.6204C159.915 50.2914 160.868 50.512 161.817 50.512V47.912C161.229 47.912 161.03 47.7726 160.978 47.7236C160.941 47.6894 160.813 47.5494 160.813 47.052H158.213ZM161.817 50.512C162.765 50.512 163.718 50.2914 164.434 49.6204C165.165 48.9346 165.421 47.9946 165.421 47.052H162.821C162.821 47.5494 162.692 47.6894 162.655 47.7236C162.603 47.7726 162.404 47.912 161.817 47.912V50.512ZM165.421 47.052V41.616H162.821V47.052H165.421ZM164.121 42.916H168.693V40.316H164.121V42.916ZM167.393 41.616V47.088H169.993V41.616H167.393ZM167.393 47.088C167.393 49.0222 166.858 50.3604 165.937 51.2808L167.776 53.1192C169.303 51.5916 169.993 49.5218 169.993 47.088H167.393ZM165.937 51.2808C165.043 52.175 163.73 52.7 161.817 52.7V55.3C164.223 55.3 166.27 54.625 167.776 53.1192L165.937 51.2808ZM161.817 52.7C160.632 52.7 159.798 52.552 159.246 52.3276L158.267 54.7364C159.251 55.136 160.457 55.3 161.817 55.3V52.7ZM159.278 52.341C158.716 52.0954 158.361 51.7776 158.136 51.4107L155.921 52.7733C156.464 53.6544 157.261 54.2966 158.235 54.723L159.278 52.341ZM155.979 51.325C155.663 51.7573 155.245 52.0983 154.693 52.3472L155.764 54.7168C156.7 54.2937 157.482 53.6747 158.078 52.859L155.979 51.325ZM154.712 52.3392C154.21 52.5566 153.478 52.7 152.457 52.7V55.3C153.691 55.3 154.807 55.1314 155.745 54.7248L154.712 52.3392ZM152.457 52.7C151.22 52.7 150.345 52.5511 149.765 52.3225L148.812 54.7415C149.816 55.1369 151.053 55.3 152.457 55.3V52.7ZM149.796 52.3352C149.208 52.0858 148.851 51.7668 148.632 51.4107L146.417 52.7733C146.966 53.6652 147.785 54.3062 148.781 54.7288L149.796 52.3352ZM146.477 51.3215C145.867 52.1512 144.797 52.7 142.917 52.7V55.3C145.308 55.3 147.31 54.5768 148.572 52.8625L146.477 51.3215ZM142.917 52.7H140.145V55.3H142.917V52.7ZM140.145 52.7C140.498 52.7 140.771 52.8526 140.937 53.0046C141.083 53.1375 141.147 53.2666 141.164 53.3042C141.198 53.3763 141.183 53.3769 141.159 53.2233C141.115 52.9423 141.085 52.4483 141.085 51.696H138.485C138.485 52.4797 138.514 53.1377 138.59 53.6247C138.626 53.8551 138.686 54.1437 138.81 54.4078C138.897 54.5932 139.273 55.3 140.145 55.3V52.7ZM141.085 51.696C141.085 50.8825 141.115 50.3377 141.161 50.0195C141.186 49.8472 141.204 49.8286 141.179 49.8856C141.167 49.9137 141.111 50.0408 140.973 50.1766C140.815 50.3324 140.531 50.512 140.145 50.512V47.912C139.221 47.912 138.859 48.701 138.795 48.8489C138.68 49.1129 138.623 49.4048 138.588 49.6465C138.514 50.1563 138.485 50.8535 138.485 51.696H141.085ZM140.145 50.512H142.917V47.912H140.145V50.512ZM180.28 48.708L179.361 49.6272L179.391 49.6578L179.424 49.6863L180.28 48.708ZM180.748 53.82L180.337 55.0533L180.368 55.0637L180.4 55.0726L180.748 53.82ZM179.74 53.244L180.659 52.3248L178.56 50.2252L178.441 53.192L179.74 53.244ZM178.408 58.068L177.282 57.4189L177.278 57.4261L177.273 57.4334L178.408 58.068ZM175.06 61.38L174.434 60.2409L174.426 60.2449L174.419 60.249L175.06 61.38ZM166.996 62.604L165.7 62.7112L165.799 63.904H166.996V62.604ZM166.6 57.816V56.516H165.188L165.304 57.9232L166.6 57.816ZM173.8 56.448L172.893 55.5166L172.887 55.5226L172.881 55.5288L173.8 56.448ZM175.168 41.616V40.316H173.868V41.616H175.168ZM179.74 41.616H181.04V40.316H179.74V41.616ZM178.44 47.052C178.44 47.982 178.664 48.9304 179.361 49.6272L181.199 47.7888C181.176 47.7656 181.04 47.61 181.04 47.052H178.44ZM179.424 49.6863C180.151 50.3228 181.127 50.512 182.08 50.512V47.912C181.401 47.912 181.177 47.7652 181.136 47.7297L179.424 49.6863ZM182.08 50.512H182.728V47.912H182.08V50.512ZM182.728 50.512C182.342 50.512 182.058 50.3324 181.9 50.1766C181.762 50.0408 181.706 49.9137 181.693 49.8856C181.669 49.8286 181.687 49.8472 181.711 50.0195C181.758 50.3377 181.788 50.8825 181.788 51.696H184.388C184.388 50.8535 184.358 50.1563 184.285 49.6465C184.25 49.4048 184.193 49.1129 184.078 48.8489C184.013 48.701 183.651 47.912 182.728 47.912V50.512ZM181.788 51.696C181.788 52.4483 181.758 52.9423 181.714 53.2233C181.69 53.3769 181.675 53.3763 181.708 53.3042C181.726 53.2666 181.79 53.1375 181.935 53.0046C182.101 52.8526 182.375 52.7 182.728 52.7V55.3C183.6 55.3 183.976 54.5932 184.063 54.4078C184.186 54.1437 184.246 53.8551 184.282 53.6247C184.359 53.1377 184.388 52.4797 184.388 51.696H181.788ZM182.728 52.7H182.152V55.3H182.728V52.7ZM182.152 52.7C181.751 52.7 181.402 52.6523 181.096 52.5674L180.4 55.0726C180.958 55.2277 181.545 55.3 182.152 55.3V52.7ZM181.159 52.5867C180.856 52.4857 180.716 52.3819 180.659 52.3248L178.821 54.1632C179.244 54.5861 179.776 54.8663 180.337 55.0533L181.159 52.5867ZM178.441 53.192C178.377 54.8039 177.982 56.2031 177.282 57.4189L179.534 58.7171C180.466 57.1009 180.959 55.2841 181.039 53.296L178.441 53.192ZM177.273 57.4334C176.602 58.6341 175.663 59.5646 174.434 60.2409L175.687 62.5191C177.337 61.6114 178.63 60.3339 179.543 58.7026L177.273 57.4334ZM174.419 60.249C173.204 60.9376 171.752 61.304 170.02 61.304V63.904C172.128 63.904 174.036 63.4544 175.701 62.511L174.419 60.249ZM170.02 61.304H166.996V63.904H170.02V61.304ZM168.292 62.4968L167.896 57.7088L165.304 57.9232L165.7 62.7112L168.292 62.4968ZM166.6 59.116H169.948V56.516H166.6V59.116ZM169.948 59.116C171.846 59.116 173.499 58.587 174.719 57.3672L172.881 55.5288C172.277 56.133 171.362 56.516 169.948 56.516V59.116ZM174.707 57.3794C175.936 56.1825 176.468 54.5467 176.468 52.668H173.868C173.868 54.0533 173.488 54.9375 172.893 55.5166L174.707 57.3794ZM176.468 52.668V41.616H173.868V52.668H176.468ZM175.168 42.916H179.74V40.316H175.168V42.916ZM178.44 41.616V47.052H181.04V41.616H178.44ZM187.903 49.212V50.512H192.523L188.581 48.1027L187.903 49.212ZM185.959 47.376L184.828 48.0169L184.841 48.0395L184.854 48.0616L185.959 47.376ZM186.283 41.112L187.414 41.7517L187.414 41.7517L186.283 41.112ZM188.875 38.52L189.514 39.6517L189.524 39.6465L189.533 39.6411L188.875 38.52ZM198.055 39.672L197.088 40.5408L197.096 40.5497L198.055 39.672ZM197.515 52.2L196.752 51.1473L196.745 51.1527L197.515 52.2ZM194.635 48.852L194.199 50.0766L194.991 50.3589L195.573 49.7515L194.635 48.852ZM190.675 42.912L189.756 41.9928L189.756 41.9928L190.675 42.912ZM190.963 47.016L190.095 47.9839L190.104 47.9924L190.114 48.0006L190.963 47.016ZM190.171 34.272H188.871V35.572H190.171V34.272ZM190.171 30.168V28.868H188.871V30.168H190.171ZM195.067 30.168H196.367V28.868H195.067V30.168ZM195.067 34.272V35.572H196.367V34.272H195.067ZM188.581 48.1027C187.85 47.6561 187.366 47.1778 187.063 46.6904L184.854 48.0616C185.416 48.9662 186.228 49.7119 187.225 50.3213L188.581 48.1027ZM187.09 46.7351C186.814 46.249 186.647 45.6161 186.647 44.784H184.047C184.047 45.9679 184.287 47.063 184.828 48.0169L187.09 46.7351ZM186.647 44.784C186.647 43.6503 186.907 42.6488 187.414 41.7517L185.151 40.4723C184.41 41.7832 184.047 43.2297 184.047 44.784H186.647ZM187.414 41.7517C187.922 40.8534 188.616 40.1595 189.514 39.6517L188.235 37.3883C186.925 38.1285 185.891 39.1626 185.151 40.4723L187.414 41.7517ZM189.533 39.6411C190.42 39.1204 191.437 38.848 192.619 38.848V36.248C191.016 36.248 189.537 36.6236 188.217 37.3989L189.533 39.6411ZM192.619 38.848C194.696 38.848 196.119 39.462 197.088 40.5407L199.022 38.8033C197.447 37.05 195.246 36.248 192.619 36.248V38.848ZM197.096 40.5497C198.113 41.6611 198.699 43.2686 198.699 45.54H201.299C201.299 42.8194 200.589 40.5149 199.014 38.7943L197.096 40.5497ZM198.699 45.54V46.764H201.299V45.54H198.699ZM198.699 46.764C198.699 48.859 198.005 50.2391 196.752 51.1473L198.278 53.2527C200.336 51.7609 201.299 49.517 201.299 46.764H198.699ZM196.745 51.1527C195.433 52.1173 193.333 52.7 190.243 52.7V55.3C193.585 55.3 196.333 54.6827 198.285 53.2473L196.745 51.1527ZM190.243 52.7H182.719V55.3H190.243V52.7ZM182.719 52.7C183.072 52.7 183.345 52.8526 183.512 53.0046C183.657 53.1375 183.721 53.2666 183.738 53.3042C183.772 53.3763 183.757 53.3769 183.733 53.2233C183.689 52.9423 183.659 52.4483 183.659 51.696H181.059C181.059 52.4797 181.088 53.1377 181.164 53.6247C181.2 53.8551 181.26 54.1437 181.384 54.4078C181.471 54.5932 181.847 55.3 182.719 55.3V52.7ZM183.659 51.696C183.659 50.8825 183.689 50.3377 183.735 50.0195C183.76 49.8472 183.778 49.8286 183.753 49.8856C183.741 49.9137 183.685 50.0408 183.547 50.1766C183.389 50.3324 183.105 50.512 182.719 50.512V47.912C181.795 47.912 181.433 48.701 181.369 48.8489C181.254 49.1129 181.197 49.4048 181.162 49.6465C181.088 50.1563 181.059 50.8535 181.059 51.696H183.659ZM182.719 50.512H186.823V47.912H182.719V50.512ZM186.823 50.512H187.903V47.912H186.823V50.512ZM195.573 49.7515C196.443 48.8442 196.763 47.5989 196.763 46.26H194.163C194.163 47.2251 193.931 47.7078 193.696 47.9525L195.573 49.7515ZM196.763 46.26V45.72H194.163V46.26H196.763ZM196.763 45.72C196.763 44.3811 196.501 43.1364 195.758 42.2079C194.971 41.224 193.83 40.82 192.583 40.82V43.42C193.256 43.42 193.555 43.616 193.728 43.8321C193.945 44.1036 194.163 44.6589 194.163 45.72H196.763ZM192.583 40.82C191.493 40.82 190.526 41.222 189.756 41.9928L191.594 43.8312C191.879 43.546 192.185 43.42 192.583 43.42V40.82ZM189.756 41.9928C188.996 42.7522 188.619 43.7121 188.619 44.784H191.219C191.219 44.3679 191.345 44.0798 191.594 43.8312L189.756 41.9928ZM188.619 44.784C188.619 46.0501 189.149 47.136 190.095 47.9839L191.831 46.0481C191.384 45.648 191.219 45.2459 191.219 44.784H188.619ZM190.114 48.0006C191.002 48.7658 192.418 49.4425 194.199 50.0766L195.071 47.6274C193.348 47.0135 192.316 46.4662 191.812 46.0314L190.114 48.0006ZM191.471 34.272V30.168H188.871V34.272H191.471ZM190.171 31.468H195.067V28.868H190.171V31.468ZM193.767 30.168V34.272H196.367V30.168H193.767ZM195.067 32.972H190.171V35.572H195.067V32.972ZM232.708 48.744L233.559 49.7264L233.564 49.7223L232.708 48.744ZM233.284 41.616V40.316H231.984V41.616H233.284ZM237.856 41.616H239.156V40.316H237.856V41.616ZM235.552 52.272L236.654 51.583L235.628 49.9412L234.497 51.5124L235.552 52.272ZM233.824 53.604L234.285 54.8195L234.296 54.8154L234.306 54.811L233.824 53.604ZM214.492 52.308L213.572 53.2273L213.582 53.2369L214.492 52.308ZM212.764 41.616V40.316H211.464V41.616H212.764ZM217.336 41.616H218.636V40.316H217.336V41.616ZM217.876 48.6L216.901 49.4601L216.915 49.4758L216.929 49.491L217.876 48.6ZM230.404 35.028H231.704V33.728H230.404V35.028ZM230.404 39.132V40.432H231.704V39.132H230.404ZM220.252 39.132H218.952V40.432H220.252V39.132ZM220.252 35.028V33.728H218.952V35.028H220.252ZM231.268 50.512C232.097 50.512 232.906 50.2921 233.559 49.7264L231.856 47.7616C231.789 47.8199 231.639 47.912 231.268 47.912V50.512ZM233.564 49.7223C234.255 49.1176 234.584 48.3043 234.584 47.412H231.984C231.984 47.6237 231.928 47.6984 231.852 47.7657L233.564 49.7223ZM234.584 47.412V41.616H231.984V47.412H234.584ZM233.284 42.916H237.856V40.316H233.284V42.916ZM236.556 41.616V47.232H239.156V41.616H236.556ZM236.556 47.232C236.556 48.0984 236.778 48.9856 237.449 49.6445C238.115 50.2991 239.005 50.512 239.872 50.512V47.912C239.394 47.912 239.276 47.7949 239.27 47.7895C239.269 47.7884 239.156 47.6856 239.156 47.232H236.556ZM239.872 50.512H241.24V47.912H239.872V50.512ZM241.24 50.512C240.853 50.512 240.569 50.3324 240.411 50.1766C240.274 50.0408 240.217 49.9137 240.205 49.8856C240.18 49.8286 240.198 49.8472 240.223 50.0195C240.269 50.3377 240.3 50.8825 240.3 51.696H242.9C242.9 50.8535 242.87 50.1563 242.796 49.6465C242.761 49.4048 242.704 49.1129 242.589 48.8489C242.525 48.701 242.163 47.912 241.24 47.912V50.512ZM240.3 51.696C240.3 52.4483 240.269 52.9423 240.225 53.2233C240.201 53.3769 240.186 53.3763 240.22 53.3042C240.238 53.2666 240.301 53.1375 240.447 53.0046C240.613 52.8526 240.886 52.7 241.24 52.7V55.3C242.111 55.3 242.487 54.5932 242.574 54.4078C242.698 54.1437 242.758 53.8551 242.794 53.6247C242.87 53.1377 242.9 52.4797 242.9 51.696H240.3ZM241.24 52.7H239.656V55.3H241.24V52.7ZM239.656 52.7C237.854 52.7 237.035 52.192 236.654 51.583L234.449 52.961C235.509 54.656 237.425 55.3 239.656 55.3V52.7ZM234.497 51.5124C234.216 51.9019 233.843 52.196 233.341 52.397L234.306 54.811C235.244 54.436 236.023 53.8421 236.607 53.0316L234.497 51.5124ZM233.363 52.3885C232.856 52.5807 232.17 52.7 231.268 52.7V55.3C232.381 55.3 233.399 55.1553 234.285 54.8195L233.363 52.3885ZM231.268 52.7H219.46V55.3H231.268V52.7ZM219.46 52.7C217.521 52.7 216.237 52.1974 215.401 51.3791L213.582 53.2369C215.05 54.6746 217.078 55.3 219.46 55.3V52.7ZM215.411 51.3888C214.571 50.5494 214.064 49.2787 214.064 47.376H211.464C211.464 49.7453 212.108 51.7626 213.572 53.2272L215.411 51.3888ZM214.064 47.376V41.616H211.464V47.376H214.064ZM212.764 42.916H217.336V40.316H212.764V42.916ZM216.036 41.616V46.764H218.636V41.616H216.036ZM216.036 46.764C216.036 47.7431 216.248 48.7203 216.901 49.4601L218.85 47.7399C218.783 47.6637 218.636 47.4169 218.636 46.764H216.036ZM216.929 49.491C217.653 50.2598 218.666 50.512 219.676 50.512V47.912C219.053 47.912 218.867 47.7562 218.822 47.709L216.929 49.491ZM219.676 50.512H231.268V47.912H219.676V50.512ZM229.104 35.028V39.132H231.704V35.028H229.104ZM230.404 37.832H220.252V40.432H230.404V37.832ZM221.552 39.132V35.028H218.952V39.132H221.552ZM220.252 36.328H230.404V33.728H220.252V36.328ZM245.178 49.212V50.512H248.194L246.123 48.3194L245.178 49.212ZM244.206 47.52L242.964 47.9053L242.97 47.9247L242.977 47.9438L244.206 47.52ZM244.818 41.796L243.697 41.1379L243.691 41.1471L243.686 41.1563L244.818 41.796ZM247.446 39.168L246.788 38.0469L246.788 38.0469L247.446 39.168ZM254.898 39.096L254.267 40.2324L254.281 40.2407L254.297 40.2486L254.898 39.096ZM257.454 41.58L256.318 42.2113L256.323 42.2209L256.328 42.2304L257.454 41.58ZM256.878 49.212L255.938 48.3144L253.84 50.512H256.878V49.212ZM252.918 53.856L252.717 55.1404L252.737 55.1435L252.757 55.146L252.918 53.856ZM251.118 53.28L251.796 52.1707L251.118 51.7565L250.44 52.1707L251.118 53.28ZM249.246 53.856L249.402 55.1466L249.419 55.1446L249.435 55.1422L249.246 53.856ZM249.138 43.56L248.198 42.6624L248.197 42.6634L249.138 43.56ZM249.138 47.592L248.08 48.3476L248.087 48.3568L248.093 48.3658L249.138 47.592ZM251.118 49.212L250.523 50.3681L251.086 50.6574L251.661 50.3933L251.118 49.212ZM253.134 47.592L254.21 48.322L254.216 48.3132L254.221 48.3044L253.134 47.592ZM253.098 43.488L254.017 42.5688L254.017 42.5688L253.098 43.488ZM248.67 34.596H247.37V35.896H248.67V34.596ZM248.67 30.492V29.192H247.37V30.492H248.67ZM253.566 30.492H254.866V29.192H253.566V30.492ZM253.566 34.596V35.896H254.866V34.596H253.566ZM246.123 48.3194C245.868 48.0498 245.629 47.6582 245.435 47.0962L242.977 47.9438C243.263 48.7738 243.671 49.5102 244.233 50.1046L246.123 48.3194ZM245.447 47.1347C245.268 46.5576 245.182 45.9913 245.182 45.432H242.582C242.582 46.2647 242.711 47.0904 242.964 47.9053L245.447 47.1347ZM245.182 45.432C245.182 44.3266 245.441 43.3364 245.95 42.4357L243.686 41.1563C242.947 42.4636 242.582 43.8974 242.582 45.432H245.182ZM245.939 42.4541C246.475 41.5414 247.191 40.8248 248.104 40.2891L246.788 38.0469C245.492 38.8072 244.457 39.8426 243.697 41.1379L245.939 42.4541ZM248.104 40.2891C248.998 39.7642 249.993 39.496 251.118 39.496V36.896C249.555 36.896 248.101 37.2758 246.788 38.0469L248.104 40.2891ZM251.118 39.496C252.374 39.496 253.41 39.7563 254.267 40.2324L255.529 37.9596C254.226 37.2357 252.742 36.896 251.118 36.896V39.496ZM254.297 40.2486C255.177 40.7079 255.842 41.3555 256.318 42.2113L258.59 40.9487C257.866 39.6445 256.827 38.6361 255.499 37.9434L254.297 40.2486ZM256.328 42.2304C256.827 43.0939 257.09 44.0896 257.09 45.252H259.69C259.69 43.6784 259.329 42.2261 258.58 40.9296L256.328 42.2304ZM257.09 45.252C257.09 46.5328 256.694 47.5218 255.938 48.3144L257.818 50.1096C259.078 48.7902 259.69 47.1392 259.69 45.252H257.09ZM256.878 50.512H261.018V47.912H256.878V50.512ZM261.018 50.512C260.632 50.512 260.348 50.3324 260.19 50.1766C260.052 50.0408 259.995 49.9137 259.983 49.8856C259.958 49.8286 259.976 49.8472 260.001 50.0195C260.047 50.3377 260.078 50.8825 260.078 51.696H262.678C262.678 50.8535 262.648 50.1563 262.574 49.6465C262.539 49.4048 262.482 49.1129 262.368 48.8489C262.303 48.701 261.941 47.912 261.018 47.912V50.512ZM260.078 51.696C260.078 52.4483 260.047 52.9423 260.003 53.2233C259.979 53.3769 259.965 53.3763 259.998 53.3042C260.016 53.2666 260.08 53.1375 260.225 53.0046C260.391 52.8526 260.665 52.7 261.018 52.7V55.3C261.89 55.3 262.266 54.5932 262.353 54.4078C262.476 54.1437 262.536 53.8551 262.572 53.6247C262.648 53.1377 262.678 52.4797 262.678 51.696H260.078ZM261.018 52.7H256.122V55.3H261.018V52.7ZM256.122 52.7C254.774 52.7 253.768 52.6521 253.079 52.566L252.757 55.146C253.604 55.2519 254.734 55.3 256.122 55.3V52.7ZM253.119 52.5716C252.438 52.4653 252.025 52.3108 251.796 52.1707L250.44 54.3893C251.075 54.7772 251.861 55.0067 252.717 55.1404L253.119 52.5716ZM250.44 52.1707C250.222 52.3039 249.795 52.4612 249.057 52.5698L249.435 55.1422C250.329 55.0108 251.15 54.7841 251.796 54.3893L250.44 52.1707ZM249.089 52.5654C248.37 52.6526 247.396 52.7 246.15 52.7V55.3C247.447 55.3 248.537 55.2514 249.402 55.1466L249.089 52.5654ZM246.15 52.7H241.254V55.3H246.15V52.7ZM241.254 52.7C241.607 52.7 241.881 52.8526 242.047 53.0046C242.192 53.1375 242.256 53.2666 242.274 53.3042C242.307 53.3763 242.292 53.3769 242.268 53.2233C242.224 52.9423 242.194 52.4483 242.194 51.696H239.594C239.594 52.4797 239.623 53.1377 239.699 53.6247C239.735 53.8551 239.796 54.1437 239.919 54.4078C240.006 54.5932 240.382 55.3 241.254 55.3V52.7ZM242.194 51.696C242.194 50.8825 242.224 50.3377 242.27 50.0195C242.295 49.8472 242.313 49.8286 242.289 49.8856C242.276 49.9137 242.22 50.0408 242.082 50.1766C241.924 50.3324 241.64 50.512 241.254 50.512V47.912C240.331 47.912 239.969 48.701 239.904 48.8489C239.789 49.1129 239.732 49.4048 239.697 49.6465C239.623 50.1563 239.594 50.8535 239.594 51.696H242.194ZM241.254 50.512H245.178V47.912H241.254V50.512ZM251.118 41.468C249.993 41.468 248.977 41.8458 248.198 42.6624L250.078 44.4576C250.307 44.2182 250.611 44.068 251.118 44.068V41.468ZM248.197 42.6634C247.462 43.4351 247.118 44.4038 247.118 45.468H249.718C249.718 44.9962 249.854 44.6929 250.079 44.4566L248.197 42.6634ZM247.118 45.468C247.118 46.5126 247.461 47.4805 248.08 48.3476L250.196 46.8364C249.855 46.3595 249.718 45.9114 249.718 45.468H247.118ZM248.093 48.3658C248.711 49.1993 249.536 49.8604 250.523 50.3681L251.712 48.0559C251.02 47.6996 250.525 47.2807 250.183 46.8182L248.093 48.3658ZM251.661 50.3933C252.72 49.9065 253.596 49.2267 254.21 48.322L252.058 46.862C251.76 47.3013 251.292 47.7015 250.575 48.0307L251.661 50.3933ZM254.221 48.3044C254.794 47.4305 255.118 46.4787 255.118 45.468H252.518C252.518 45.8973 252.386 46.3615 252.047 46.8796L254.221 48.3044ZM255.118 45.468C255.118 44.37 254.796 43.3477 254.017 42.5688L252.179 44.4072C252.36 44.5883 252.518 44.886 252.518 45.468H255.118ZM254.017 42.5688C253.238 41.7898 252.216 41.468 251.118 41.468V44.068C251.7 44.068 251.998 44.2262 252.179 44.4072L254.017 42.5688ZM249.97 34.596V30.492H247.37V34.596H249.97ZM248.67 31.792H253.566V29.192H248.67V31.792ZM252.266 30.492V34.596H254.866V30.492H252.266ZM253.566 33.296H248.67V35.896H253.566V33.296ZM283.764 42.624L284.719 41.7422L284.715 41.7384L283.764 42.624ZM285.636 45.36L284.443 45.876L284.448 45.8894L284.454 45.9028L285.636 45.36ZM284.412 52.38L283.552 51.4052L283.542 51.4137L284.412 52.38ZM272.208 53.892L272.024 55.1789L272.046 55.1822L272.069 55.1846L272.208 53.892ZM270.516 53.316L271.21 52.2169L270.561 51.8072L269.889 52.1769L270.516 53.316ZM268.608 53.856L268.451 52.5654L268.446 52.566L268.608 53.856ZM264.792 49.212V50.512H267.364L265.838 48.4408L264.792 49.212ZM263.964 47.556L262.73 47.9671L262.73 47.9671L263.964 47.556ZM264.576 41.94L265.707 42.5797L265.707 42.5797L264.576 41.94ZM267.168 39.348L267.807 40.4797L267.807 40.4797L267.168 39.348ZM274.26 39.276L273.626 40.4112L275.195 38.373L274.26 39.276ZM273.252 38.232L272.318 37.3278L271.444 38.2308L272.316 39.135L273.252 38.232ZM276.528 34.848L277.479 33.9624L276.546 32.9597L275.594 33.9438L276.528 34.848ZM281.316 46.872L280.153 47.4534L280.179 47.5046L280.209 47.5533L281.316 46.872ZM280.272 45.504L281.23 44.6256L281.22 44.6149L281.21 44.6045L280.272 45.504ZM276.96 42.048L277.898 41.1485L275.786 42.6079L276.96 42.048ZM277.248 47.484L276.055 46.9671L276.048 46.9841L276.041 47.0012L277.248 47.484ZM276.06 49.212L275.214 48.225L272.545 50.512H276.06V49.212ZM270.516 49.212L269.921 50.3681L270.481 50.6562L271.055 50.395L270.516 49.212ZM272.64 43.74L271.678 44.6145L271.688 44.6256L271.698 44.6366L272.64 43.74ZM268.716 43.74L267.775 42.8424L267.774 42.8434L268.716 43.74ZM282.808 43.5058C283.603 44.3662 284.132 45.1574 284.443 45.876L286.829 44.844C286.372 43.7866 285.653 42.7538 284.719 41.7422L282.808 43.5058ZM284.454 45.9028C284.786 46.6237 284.948 47.3628 284.948 48.132H287.548C287.548 46.9812 287.302 45.8723 286.817 44.8172L284.454 45.9028ZM284.948 48.132C284.948 49.5419 284.474 50.5917 283.552 51.4052L285.272 53.3548C286.798 52.0083 287.548 50.2261 287.548 48.132H284.948ZM283.542 51.4137C282.641 52.2242 281.351 52.7 279.516 52.7V55.3C281.809 55.3 283.782 54.6958 285.281 53.3463L283.542 51.4137ZM279.516 52.7H275.484V55.3H279.516V52.7ZM275.484 52.7C273.976 52.7 272.944 52.6634 272.346 52.5994L272.069 55.1846C272.816 55.2646 273.968 55.3 275.484 55.3V52.7ZM272.392 52.6051C271.856 52.5285 271.476 52.3851 271.21 52.2169L269.822 54.4151C270.467 54.8229 271.216 55.0635 272.024 55.1789L272.392 52.6051ZM269.889 52.1769C269.605 52.3331 269.147 52.4811 268.451 52.5654L268.764 55.1466C269.652 55.0389 270.466 54.8269 271.142 54.4551L269.889 52.1769ZM268.446 52.566C267.756 52.6523 266.774 52.7 265.476 52.7V55.3C266.818 55.3 267.923 55.2517 268.769 55.146L268.446 52.566ZM265.476 52.7H261.012V55.3H265.476V52.7ZM261.012 52.7C261.365 52.7 261.638 52.8526 261.805 53.0046C261.95 53.1375 262.014 53.2666 262.031 53.3042C262.065 53.3763 262.05 53.3769 262.026 53.2233C261.982 52.9423 261.952 52.4483 261.952 51.696H259.352C259.352 52.4797 259.381 53.1377 259.457 53.6247C259.493 53.8551 259.553 54.1437 259.677 54.4078C259.764 54.5932 260.14 55.3 261.012 55.3V52.7ZM261.952 51.696C261.952 50.8825 261.982 50.3377 262.028 50.0195C262.053 49.8472 262.071 49.8286 262.046 49.8856C262.034 49.9137 261.978 50.0408 261.84 50.1766C261.682 50.3324 261.398 50.512 261.012 50.512V47.912C260.088 47.912 259.726 48.701 259.662 48.8489C259.547 49.1129 259.49 49.4048 259.455 49.6465C259.381 50.1563 259.352 50.8535 259.352 51.696H261.952ZM261.012 50.512H264.792V47.912H261.012V50.512ZM265.838 48.4408C265.598 48.1142 265.379 47.6895 265.197 47.1449L262.73 47.9671C262.981 48.7185 263.314 49.3978 263.745 49.9832L265.838 48.4408ZM265.197 47.1449C265.023 46.6222 264.94 46.1129 264.94 45.612H262.34C262.34 46.4071 262.473 47.1938 262.73 47.9671L265.197 47.1449ZM264.94 45.612C264.94 44.4783 265.2 43.4768 265.707 42.5797L263.444 41.3003C262.703 42.6112 262.34 44.0577 262.34 45.612H264.94ZM265.707 42.5797C266.215 41.6814 266.909 40.9875 267.807 40.4797L266.528 38.2163C265.218 38.9565 264.184 39.9906 263.444 41.3003L265.707 42.5797ZM267.807 40.4797C268.701 39.9747 269.714 39.712 270.876 39.712V37.112C269.302 37.112 267.842 37.4733 266.528 38.2163L267.807 40.4797ZM270.876 39.712C271.886 39.712 272.795 39.9472 273.626 40.4112L274.893 38.1408C273.661 37.4528 272.313 37.112 270.876 37.112V39.712ZM275.195 38.373L274.187 37.329L272.316 39.135L273.324 40.179L275.195 38.373ZM274.186 39.1362L277.462 35.7522L275.594 33.9438L272.318 37.3278L274.186 39.1362ZM275.576 35.7336L282.812 43.5096L284.715 41.7384L277.479 33.9624L275.576 35.7336ZM279.444 50.512C280.259 50.512 281.093 50.3905 281.759 49.9683C282.526 49.4825 282.904 48.708 282.904 47.844H280.304C280.304 47.8989 280.294 47.8836 280.318 47.837C280.345 47.7866 280.376 47.7666 280.368 47.7717C280.351 47.7824 280.281 47.8206 280.12 47.8545C279.96 47.8883 279.739 47.912 279.444 47.912V50.512ZM282.904 47.844C282.904 47.2459 282.729 46.6884 282.423 46.1907L280.209 47.5533C280.286 47.6796 280.304 47.7701 280.304 47.844H282.904ZM282.478 46.2906C282.225 45.7832 281.771 45.2162 281.23 44.6256L279.313 46.3824C279.828 46.9438 280.071 47.2888 280.153 47.4534L282.478 46.2906ZM281.21 44.6045L277.898 41.1485L276.021 42.9475L279.333 46.4035L281.21 44.6045ZM275.786 42.6079C276.214 43.5039 276.416 44.3816 276.416 45.252H279.016C279.016 43.9624 278.713 42.7041 278.133 41.4881L275.786 42.6079ZM276.416 45.252C276.416 45.8383 276.298 46.4066 276.055 46.9671L278.441 48.0009C278.822 47.1214 279.016 46.2017 279.016 45.252H276.416ZM276.041 47.0012C275.817 47.5593 275.534 47.9507 275.214 48.225L276.906 50.199C277.594 49.6093 278.102 48.8487 278.455 47.9668L276.041 47.0012ZM276.06 50.512H279.444V47.912H276.06V50.512ZM271.055 50.395C273.208 49.4136 274.66 47.8624 274.66 45.648H272.06C272.06 46.4576 271.615 47.2824 269.977 48.029L271.055 50.395ZM274.66 45.648C274.66 44.5838 274.316 43.6151 273.581 42.8434L271.698 44.6366C271.923 44.8729 272.06 45.1762 272.06 45.648H274.66ZM273.602 42.8655C272.839 42.0264 271.82 41.648 270.696 41.648V44.248C271.203 44.248 271.481 44.3976 271.678 44.6145L273.602 42.8655ZM270.696 41.648C269.571 41.648 268.555 42.0258 267.775 42.8424L269.656 44.6376C269.885 44.3982 270.189 44.248 270.696 44.248V41.648ZM267.774 42.8434C267.039 43.6151 266.696 44.5838 266.696 45.648H269.296C269.296 45.1762 269.432 44.8729 269.657 44.6366L267.774 42.8434ZM266.696 45.648C266.696 47.7766 267.937 49.3475 269.921 50.3681L271.11 48.0559C269.735 47.3485 269.296 46.5434 269.296 45.648H266.696Z" fill="black" mask="url(#path-1-outside-1_610_19)"/>
<path fill-rule="evenodd" clip-rule="evenodd" d="M152 65.5116C153.415 85.0329 158.249 98.7392 165.587 107.698C168.216 110.907 171.127 113.46 174.249 115.436C163.242 128.735 147.478 130.053 131.885 124.66C117.846 119.803 104.536 109.644 96.2481 98.9095L107.62 98.913L90.3189 67L73 98.9023L88.7196 98.9072C97.408 112.133 113.231 124.917 130.032 130.729C147.44 136.75 166.669 135.467 179.835 118.291C183.97 119.948 188.361 120.789 192.871 120.965C212.591 121.733 235.007 109.83 250.618 97.2105L266 101.393L256.495 65.2562L232.465 92.2751L242.98 95.1338C228.273 106.036 209.289 115.09 193.085 114.459C184.139 114.11 176.167 110.825 170.058 103.368C163.89 95.8382 159.324 83.6904 157.969 65L152 65.5116Z" fill="#5CE5DE"/>
<path d="M165.587 107.698L165.084 108.11L165.084 108.11L165.587 107.698ZM152 65.5116L151.944 64.864L151.305 64.9188L151.352 65.5586L152 65.5116ZM174.249 115.436L174.75 115.851L175.221 115.282L174.597 114.887L174.249 115.436ZM131.885 124.66L132.098 124.045L132.098 124.045L131.885 124.66ZM96.2481 98.9095L96.2483 98.2595L94.9248 98.2591L95.7336 99.3067L96.2481 98.9095ZM107.62 98.913L107.62 99.563L108.712 99.5634L108.192 98.6032L107.62 98.913ZM90.3189 67L90.8903 66.6902L90.3192 65.6369L89.7476 66.6899L90.3189 67ZM73 98.9023L72.4287 98.5922L71.9077 99.552L72.9998 99.5523L73 98.9023ZM88.7196 98.9072L89.2629 98.5503L89.0704 98.2573L88.7198 98.2572L88.7196 98.9072ZM130.032 130.729L130.244 130.114L130.244 130.114L130.032 130.729ZM179.835 118.291L180.077 117.687L179.619 117.504L179.319 117.895L179.835 118.291ZM192.871 120.965L192.896 120.315L192.896 120.315L192.871 120.965ZM250.618 97.2105L250.788 96.5833L250.468 96.4961L250.209 96.705L250.618 97.2105ZM266 101.393L265.829 102.02L266.915 102.315L266.629 101.227L266 101.393ZM256.495 65.2562L257.123 65.0909L256.815 63.9181L256.009 64.8242L256.495 65.2562ZM232.465 92.2751L231.98 91.8431L231.282 92.6271L232.295 92.9023L232.465 92.2751ZM242.98 95.1338L243.367 95.656L244.443 94.8581L243.15 94.5066L242.98 95.1338ZM193.085 114.459L193.111 113.809L193.111 113.809L193.085 114.459ZM170.058 103.368L169.555 103.78L169.555 103.78L170.058 103.368ZM157.969 65L158.617 64.953L158.569 64.2961L157.913 64.3524L157.969 65ZM166.09 107.286C158.868 98.4698 154.058 84.9127 152.648 65.4646L151.352 65.5586C152.772 85.153 157.629 99.0086 165.084 108.11L166.09 107.286ZM174.597 114.887C171.536 112.949 168.676 110.443 166.09 107.286L165.084 108.11C167.755 111.371 170.719 113.971 173.901 115.986L174.597 114.887ZM131.673 125.274C147.422 130.722 163.512 129.429 174.75 115.851L173.748 115.022C162.973 128.041 147.534 129.385 132.098 124.045L131.673 125.274ZM95.7336 99.3067C104.094 110.134 117.505 120.373 131.673 125.274L132.098 124.045C118.186 119.233 104.979 109.154 96.7626 98.5123L95.7336 99.3067ZM107.621 98.263L96.2483 98.2595L96.2479 99.5595L107.62 99.563L107.621 98.263ZM89.7474 67.3098L107.049 99.2228L108.192 98.6032L90.8903 66.6902L89.7474 67.3098ZM73.5713 99.2124L90.8901 67.3101L89.7476 66.6899L72.4287 98.5922L73.5713 99.2124ZM88.7198 98.2572L73.0002 98.2523L72.9998 99.5523L88.7194 99.5572L88.7198 98.2572ZM130.244 130.114C113.58 124.35 97.8732 111.657 89.2629 98.5503L88.1764 99.2641C96.9427 112.608 112.881 125.484 129.819 131.343L130.244 130.114ZM179.319 117.895C166.382 134.773 147.491 136.08 130.244 130.114L129.819 131.343C147.389 137.42 166.957 136.16 180.351 118.686L179.319 117.895ZM192.896 120.315C188.451 120.142 184.134 119.313 180.077 117.687L179.593 118.894C183.806 120.582 188.272 121.436 192.846 121.614L192.896 120.315ZM250.209 96.705C234.641 109.29 212.381 121.074 192.896 120.315L192.846 121.614C212.802 122.392 235.373 110.37 251.026 97.716L250.209 96.705ZM266.171 100.766L250.788 96.5833L250.447 97.8378L265.829 102.02L266.171 100.766ZM255.866 65.4216L265.371 101.558L266.629 101.227L257.123 65.0909L255.866 65.4216ZM232.951 92.7071L256.98 65.6882L256.009 64.8242L231.98 91.8431L232.951 92.7071ZM243.15 94.5066L232.636 91.6479L232.295 92.9023L242.809 95.761L243.15 94.5066ZM193.06 115.108C209.485 115.748 228.618 106.59 243.367 95.656L242.592 94.6116C227.929 105.482 209.094 114.432 193.111 113.809L193.06 115.108ZM169.555 103.78C175.798 111.401 183.955 114.754 193.06 115.108L193.111 113.809C184.323 113.467 176.535 110.25 170.561 102.956L169.555 103.78ZM157.32 65.047C158.681 83.8107 163.271 96.1077 169.555 103.78L170.561 102.956C164.51 95.5687 159.967 83.5701 158.617 64.953L157.32 65.047ZM152.056 66.1592L158.024 65.6476L157.913 64.3524L151.944 64.864L152.056 66.1592Z" fill="black"/>
</svg>
