<svg width="358" height="151" viewBox="0 0 358 151" fill="none" xmlns="http://www.w3.org/2000/svg">
<mask id="path-1-outside-1_610_19" maskUnits="userSpaceOnUse" x="75" y="28" width="208" height="41" fill="black">
<rect fill="white" x="75" y="28" width="208" height="41"/>
<path d="M102.35 49.212C102.59 49.212 102.71 50.04 102.71 51.696C102.71 53.232 102.59 54 102.35 54H99.182C99.35 54.192 99.434 54.576 99.434 55.152C99.434 56.592 99.014 57.876 98.174 59.004C97.334 60.132 96.17 61.008 94.682 61.632C93.194 62.28 91.478 62.604 89.534 62.604H86.834C83.714 62.604 81.302 61.704 79.598 59.904C77.918 58.128 77.078 55.632 77.078 52.416V45.216H81.65V52.308C81.65 54.132 82.07 55.5 82.91 56.412C83.75 57.348 85.058 57.816 86.834 57.816H89.606C93.11 57.816 94.862 56.916 94.862 55.116C94.862 54.612 94.73 54.252 94.466 54.036C94.202 53.844 93.77 53.748 93.17 53.748H86.87L87.302 49.212H102.35ZM103.63 49.212C104.206 49.212 104.674 49.056 105.034 48.744C105.418 48.408 105.61 47.952 105.61 47.376V30.816H110.218V47.592C110.218 49.584 109.63 51.156 108.454 52.308C107.278 53.436 105.682 54 103.666 54H102.334C102.094 54 101.974 53.232 101.974 51.696C101.974 50.04 102.094 49.212 102.334 49.212H103.63ZM123.139 49.212C123.259 49.212 123.343 49.368 123.391 49.68C123.463 49.992 123.499 50.664 123.499 51.696C123.499 52.656 123.463 53.28 123.391 53.568C123.343 53.856 123.259 54 123.139 54H121.843C119.827 54 118.291 53.424 117.235 52.272C116.203 51.096 115.687 49.428 115.687 47.268V30.816H120.295V46.944C120.295 47.712 120.439 48.288 120.727 48.672C121.039 49.032 121.519 49.212 122.167 49.212H123.139ZM128.33 49.212C127.466 48.684 126.818 48.072 126.386 47.376C125.978 46.656 125.774 45.792 125.774 44.784C125.774 43.44 126.086 42.216 126.71 41.112C127.334 40.008 128.198 39.144 129.302 38.52C130.406 37.872 131.654 37.548 133.046 37.548C135.398 37.548 137.21 38.256 138.482 39.672C139.778 41.088 140.426 43.044 140.426 45.54V46.764C140.426 49.188 139.598 51 137.942 52.2C136.31 53.4 133.886 54 130.67 54H123.146C122.906 54 122.786 53.232 122.786 51.696C122.786 50.04 122.906 49.212 123.146 49.212H127.25H128.33ZM135.062 48.852C135.614 48.276 135.89 47.412 135.89 46.26V45.72C135.89 43.32 134.93 42.12 133.01 42.12C132.266 42.12 131.63 42.384 131.102 42.912C130.598 43.416 130.346 44.04 130.346 44.784C130.346 45.648 130.694 46.392 131.39 47.016C132.086 47.616 133.31 48.228 135.062 48.852ZM138.122 30.168V34.272H127.97V30.168H138.122ZM237.107 49.212C237.707 49.212 238.187 49.092 238.547 48.852C238.907 48.612 239.087 48.276 239.087 47.844C239.087 47.532 238.955 47.004 238.691 46.26C238.427 45.492 237.755 43.62 236.675 40.644C236.483 40.116 236.039 38.928 235.343 37.08L239.591 35.064L243.767 46.872C244.055 47.712 244.379 48.312 244.739 48.672C245.123 49.032 245.627 49.212 246.251 49.212H247.187C247.427 49.212 247.547 50.04 247.547 51.696C247.547 52.68 247.511 53.316 247.439 53.604C247.367 53.868 247.283 54 247.187 54H246.035C244.979 54 244.091 53.856 243.371 53.568C242.651 53.256 242.063 52.764 241.607 52.092C241.151 52.764 240.563 53.256 239.843 53.568C239.147 53.856 238.283 54 237.251 54H229.043L228.683 49.212H237.107ZM251.354 49.212C251.954 49.212 252.434 49.056 252.794 48.744C253.178 48.408 253.37 47.952 253.37 47.376V41.616H257.942V47.232C257.942 48.552 258.614 49.212 259.958 49.212H261.326C261.566 49.212 261.686 50.016 261.686 51.624C261.686 53.208 261.566 54 261.326 54H259.742C257.726 54 256.358 53.424 255.638 52.272C255.206 52.872 254.63 53.316 253.91 53.604C253.214 53.868 252.362 54 251.354 54H247.178C246.938 54 246.818 53.232 246.818 51.696C246.818 50.04 246.938 49.212 247.178 49.212H251.354ZM251.462 37.872V33.768H256.358V37.872H251.462ZM263.975 49.212C265.799 49.212 267.299 49.092 268.475 48.852C269.675 48.612 270.911 48.132 272.183 47.412L275.531 45.504C275.291 44.592 274.931 43.98 274.451 43.668C273.995 43.332 273.299 43.164 272.363 43.164H264.119L264.659 38.412H273.227C274.739 38.412 275.963 38.676 276.899 39.204C277.835 39.708 278.615 40.584 279.239 41.832C279.887 43.056 280.463 44.784 280.967 47.016L273.947 51.372C272.315 52.38 270.755 53.076 269.267 53.46C267.779 53.82 265.943 54 263.759 54H261.311C261.071 54 260.951 53.232 260.951 51.696C260.951 50.04 261.071 49.212 261.311 49.212H263.975ZM274.667 57.744V61.848H264.515V57.744H274.667ZM267.539 67.5V63.576H271.643V67.5H267.539Z"/>
<path d="M167.483 46.728C167.483 47.592 167.639 48.228 167.951 48.636C168.263 49.02 168.731 49.212 169.355 49.212H170.471C170.591 49.212 170.675 49.368 170.723 49.68C170.795 49.992 170.831 50.664 170.831 51.696C170.831 52.656 170.795 53.28 170.723 53.568C170.675 53.856 170.591 54 170.471 54H169.319C168.023 54 166.943 53.784 166.079 53.352C165.239 52.896 164.651 52.164 164.315 51.156C163.811 51.588 163.151 51.912 162.335 52.128C161.543 52.32 160.715 52.416 159.851 52.416C157.691 52.416 156.035 51.828 154.883 50.652C153.755 49.452 153.191 47.676 153.191 45.324C153.191 43.98 153.491 42.732 154.091 41.58C154.715 40.404 155.579 39.468 156.683 38.772C157.811 38.052 159.095 37.692 160.535 37.692H162.911V35.352H167.483V46.728ZM157.727 45.288C157.727 46.08 157.907 46.68 158.267 47.088C158.651 47.472 159.263 47.664 160.103 47.664C161.015 47.664 161.711 47.508 162.191 47.196C162.695 46.86 162.947 46.392 162.947 45.792V42.264H160.607C158.687 42.264 157.727 43.272 157.727 45.288ZM174.643 49.212C175.243 49.212 175.723 49.056 176.083 48.744C176.467 48.408 176.659 47.952 176.659 47.376V41.616H181.231V47.232C181.231 48.552 181.903 49.212 183.247 49.212H184.615C184.855 49.212 184.975 50.016 184.975 51.624C184.975 53.208 184.855 54 184.615 54H183.031C181.015 54 179.647 53.424 178.927 52.272C178.495 52.872 177.919 53.316 177.199 53.604C176.503 53.868 175.651 54 174.643 54H170.467C170.227 54 170.107 53.232 170.107 51.696C170.107 50.04 170.227 49.212 170.467 49.212H174.643ZM182.275 33.768V37.872H172.123V33.768H182.275ZM196.516 38.412C198.004 38.412 199.216 38.664 200.152 39.168C201.088 39.672 201.868 40.524 202.492 41.724C203.116 42.9 203.68 44.592 204.184 46.8L201.916 48.24C202.132 48.552 202.48 48.792 202.96 48.96C203.44 49.128 204.004 49.212 204.652 49.212H206.812C207.052 49.212 207.172 50.04 207.172 51.696C207.172 52.68 207.136 53.316 207.064 53.604C206.992 53.868 206.908 54 206.812 54H204.4C203.056 54 201.928 53.736 201.016 53.208C200.128 52.68 199.324 51.78 198.604 50.508L197.236 51.372C195.604 52.38 194.044 53.076 192.556 53.46C191.068 53.82 189.232 54 187.048 54H184.6C184.36 54 184.24 53.232 184.24 51.696C184.24 50.04 184.36 49.212 184.6 49.212H187.264C189.088 49.212 190.588 49.092 191.764 48.852C192.964 48.612 194.2 48.132 195.472 47.412L198.82 45.504C198.58 44.592 198.22 43.98 197.74 43.668C197.284 43.332 196.588 43.164 195.652 43.164H187.408L187.948 38.412H196.516ZM191.656 34.776V30.672H196.552V34.776H191.656ZM216.934 47.592C216.934 49.584 216.334 51.156 215.134 52.308C213.958 53.436 212.362 54 210.346 54H206.818C206.578 54 206.458 53.232 206.458 51.696C206.458 50.04 206.578 49.212 206.818 49.212H210.346C210.946 49.212 211.426 49.056 211.786 48.744C212.17 48.408 212.362 47.952 212.362 47.376V41.616H216.934V47.592ZM217.798 33.768V37.872H207.646V33.768H217.798Z"/>
</mask>
<path d="M102.35 49.212C102.59 49.212 102.71 50.04 102.71 51.696C102.71 53.232 102.59 54 102.35 54H99.182C99.35 54.192 99.434 54.576 99.434 55.152C99.434 56.592 99.014 57.876 98.174 59.004C97.334 60.132 96.17 61.008 94.682 61.632C93.194 62.28 91.478 62.604 89.534 62.604H86.834C83.714 62.604 81.302 61.704 79.598 59.904C77.918 58.128 77.078 55.632 77.078 52.416V45.216H81.65V52.308C81.65 54.132 82.07 55.5 82.91 56.412C83.75 57.348 85.058 57.816 86.834 57.816H89.606C93.11 57.816 94.862 56.916 94.862 55.116C94.862 54.612 94.73 54.252 94.466 54.036C94.202 53.844 93.77 53.748 93.17 53.748H86.87L87.302 49.212H102.35ZM103.63 49.212C104.206 49.212 104.674 49.056 105.034 48.744C105.418 48.408 105.61 47.952 105.61 47.376V30.816H110.218V47.592C110.218 49.584 109.63 51.156 108.454 52.308C107.278 53.436 105.682 54 103.666 54H102.334C102.094 54 101.974 53.232 101.974 51.696C101.974 50.04 102.094 49.212 102.334 49.212H103.63ZM123.139 49.212C123.259 49.212 123.343 49.368 123.391 49.68C123.463 49.992 123.499 50.664 123.499 51.696C123.499 52.656 123.463 53.28 123.391 53.568C123.343 53.856 123.259 54 123.139 54H121.843C119.827 54 118.291 53.424 117.235 52.272C116.203 51.096 115.687 49.428 115.687 47.268V30.816H120.295V46.944C120.295 47.712 120.439 48.288 120.727 48.672C121.039 49.032 121.519 49.212 122.167 49.212H123.139ZM128.33 49.212C127.466 48.684 126.818 48.072 126.386 47.376C125.978 46.656 125.774 45.792 125.774 44.784C125.774 43.44 126.086 42.216 126.71 41.112C127.334 40.008 128.198 39.144 129.302 38.52C130.406 37.872 131.654 37.548 133.046 37.548C135.398 37.548 137.21 38.256 138.482 39.672C139.778 41.088 140.426 43.044 140.426 45.54V46.764C140.426 49.188 139.598 51 137.942 52.2C136.31 53.4 133.886 54 130.67 54H123.146C122.906 54 122.786 53.232 122.786 51.696C122.786 50.04 122.906 49.212 123.146 49.212H127.25H128.33ZM135.062 48.852C135.614 48.276 135.89 47.412 135.89 46.26V45.72C135.89 43.32 134.93 42.12 133.01 42.12C132.266 42.12 131.63 42.384 131.102 42.912C130.598 43.416 130.346 44.04 130.346 44.784C130.346 45.648 130.694 46.392 131.39 47.016C132.086 47.616 133.31 48.228 135.062 48.852ZM138.122 30.168V34.272H127.97V30.168H138.122ZM237.107 49.212C237.707 49.212 238.187 49.092 238.547 48.852C238.907 48.612 239.087 48.276 239.087 47.844C239.087 47.532 238.955 47.004 238.691 46.26C238.427 45.492 237.755 43.62 236.675 40.644C236.483 40.116 236.039 38.928 235.343 37.08L239.591 35.064L243.767 46.872C244.055 47.712 244.379 48.312 244.739 48.672C245.123 49.032 245.627 49.212 246.251 49.212H247.187C247.427 49.212 247.547 50.04 247.547 51.696C247.547 52.68 247.511 53.316 247.439 53.604C247.367 53.868 247.283 54 247.187 54H246.035C244.979 54 244.091 53.856 243.371 53.568C242.651 53.256 242.063 52.764 241.607 52.092C241.151 52.764 240.563 53.256 239.843 53.568C239.147 53.856 238.283 54 237.251 54H229.043L228.683 49.212H237.107ZM251.354 49.212C251.954 49.212 252.434 49.056 252.794 48.744C253.178 48.408 253.37 47.952 253.37 47.376V41.616H257.942V47.232C257.942 48.552 258.614 49.212 259.958 49.212H261.326C261.566 49.212 261.686 50.016 261.686 51.624C261.686 53.208 261.566 54 261.326 54H259.742C257.726 54 256.358 53.424 255.638 52.272C255.206 52.872 254.63 53.316 253.91 53.604C253.214 53.868 252.362 54 251.354 54H247.178C246.938 54 246.818 53.232 246.818 51.696C246.818 50.04 246.938 49.212 247.178 49.212H251.354ZM251.462 37.872V33.768H256.358V37.872H251.462ZM263.975 49.212C265.799 49.212 267.299 49.092 268.475 48.852C269.675 48.612 270.911 48.132 272.183 47.412L275.531 45.504C275.291 44.592 274.931 43.98 274.451 43.668C273.995 43.332 273.299 43.164 272.363 43.164H264.119L264.659 38.412H273.227C274.739 38.412 275.963 38.676 276.899 39.204C277.835 39.708 278.615 40.584 279.239 41.832C279.887 43.056 280.463 44.784 280.967 47.016L273.947 51.372C272.315 52.38 270.755 53.076 269.267 53.46C267.779 53.82 265.943 54 263.759 54H261.311C261.071 54 260.951 53.232 260.951 51.696C260.951 50.04 261.071 49.212 261.311 49.212H263.975ZM274.667 57.744V61.848H264.515V57.744H274.667ZM267.539 67.5V63.576H271.643V67.5H267.539Z" fill="#E1E1E1"/>
<path d="M167.483 46.728C167.483 47.592 167.639 48.228 167.951 48.636C168.263 49.02 168.731 49.212 169.355 49.212H170.471C170.591 49.212 170.675 49.368 170.723 49.68C170.795 49.992 170.831 50.664 170.831 51.696C170.831 52.656 170.795 53.28 170.723 53.568C170.675 53.856 170.591 54 170.471 54H169.319C168.023 54 166.943 53.784 166.079 53.352C165.239 52.896 164.651 52.164 164.315 51.156C163.811 51.588 163.151 51.912 162.335 52.128C161.543 52.32 160.715 52.416 159.851 52.416C157.691 52.416 156.035 51.828 154.883 50.652C153.755 49.452 153.191 47.676 153.191 45.324C153.191 43.98 153.491 42.732 154.091 41.58C154.715 40.404 155.579 39.468 156.683 38.772C157.811 38.052 159.095 37.692 160.535 37.692H162.911V35.352H167.483V46.728ZM157.727 45.288C157.727 46.08 157.907 46.68 158.267 47.088C158.651 47.472 159.263 47.664 160.103 47.664C161.015 47.664 161.711 47.508 162.191 47.196C162.695 46.86 162.947 46.392 162.947 45.792V42.264H160.607C158.687 42.264 157.727 43.272 157.727 45.288ZM174.643 49.212C175.243 49.212 175.723 49.056 176.083 48.744C176.467 48.408 176.659 47.952 176.659 47.376V41.616H181.231V47.232C181.231 48.552 181.903 49.212 183.247 49.212H184.615C184.855 49.212 184.975 50.016 184.975 51.624C184.975 53.208 184.855 54 184.615 54H183.031C181.015 54 179.647 53.424 178.927 52.272C178.495 52.872 177.919 53.316 177.199 53.604C176.503 53.868 175.651 54 174.643 54H170.467C170.227 54 170.107 53.232 170.107 51.696C170.107 50.04 170.227 49.212 170.467 49.212H174.643ZM182.275 33.768V37.872H172.123V33.768H182.275ZM196.516 38.412C198.004 38.412 199.216 38.664 200.152 39.168C201.088 39.672 201.868 40.524 202.492 41.724C203.116 42.9 203.68 44.592 204.184 46.8L201.916 48.24C202.132 48.552 202.48 48.792 202.96 48.96C203.44 49.128 204.004 49.212 204.652 49.212H206.812C207.052 49.212 207.172 50.04 207.172 51.696C207.172 52.68 207.136 53.316 207.064 53.604C206.992 53.868 206.908 54 206.812 54H204.4C203.056 54 201.928 53.736 201.016 53.208C200.128 52.68 199.324 51.78 198.604 50.508L197.236 51.372C195.604 52.38 194.044 53.076 192.556 53.46C191.068 53.82 189.232 54 187.048 54H184.6C184.36 54 184.24 53.232 184.24 51.696C184.24 50.04 184.36 49.212 184.6 49.212H187.264C189.088 49.212 190.588 49.092 191.764 48.852C192.964 48.612 194.2 48.132 195.472 47.412L198.82 45.504C198.58 44.592 198.22 43.98 197.74 43.668C197.284 43.332 196.588 43.164 195.652 43.164H187.408L187.948 38.412H196.516ZM191.656 34.776V30.672H196.552V34.776H191.656ZM216.934 47.592C216.934 49.584 216.334 51.156 215.134 52.308C213.958 53.436 212.362 54 210.346 54H206.818C206.578 54 206.458 53.232 206.458 51.696C206.458 50.04 206.578 49.212 206.818 49.212H210.346C210.946 49.212 211.426 49.056 211.786 48.744C212.17 48.408 212.362 47.952 212.362 47.376V41.616H216.934V47.592ZM217.798 33.768V37.872H207.646V33.768H217.798Z" fill="#5CE5DE"/>
<path d="M99.182 54V52.7H96.3171L98.2037 54.8561L99.182 54ZM98.174 59.004L99.2167 59.7804L99.2167 59.7804L98.174 59.004ZM94.682 61.632L94.1793 60.4331L94.1711 60.4366L94.163 60.4401L94.682 61.632ZM79.598 59.904L78.6536 60.7974L78.6539 60.7977L79.598 59.904ZM77.078 45.216V43.916H75.778V45.216H77.078ZM81.65 45.216H82.95V43.916H81.65V45.216ZM82.91 56.412L83.8775 55.5437L83.8719 55.5375L83.8662 55.5313L82.91 56.412ZM94.466 54.036L95.2892 53.0299L95.2606 53.0064L95.2306 52.9846L94.466 54.036ZM86.87 53.748L85.5759 53.6247L85.4403 55.048H86.87V53.748ZM87.302 49.212V47.912H86.1199L86.0079 49.0887L87.302 49.212ZM102.35 50.512C101.964 50.512 101.68 50.3324 101.522 50.1766C101.384 50.0408 101.328 49.9137 101.315 49.8856C101.291 49.8286 101.308 49.8472 101.333 50.0195C101.38 50.3377 101.41 50.8825 101.41 51.696H104.01C104.01 50.8535 103.98 50.1563 103.907 49.6465C103.872 49.4048 103.814 49.1129 103.7 48.8489C103.635 48.701 103.273 47.912 102.35 47.912V50.512ZM101.41 51.696C101.41 52.4483 101.38 52.9423 101.336 53.2233C101.312 53.3769 101.297 53.3763 101.33 53.3042C101.348 53.2666 101.412 53.1375 101.557 53.0046C101.723 52.8526 101.997 52.7 102.35 52.7V55.3C103.222 55.3 103.598 54.5932 103.685 54.4078C103.808 54.1437 103.868 53.8551 103.904 53.6247C103.981 53.1377 104.01 52.4797 104.01 51.696H101.41ZM102.35 52.7H99.182V55.3H102.35V52.7ZM98.2037 54.8561C98.1405 54.7838 98.1112 54.7238 98.1013 54.7011C98.0913 54.6782 98.094 54.6775 98.101 54.7098C98.1162 54.7791 98.134 54.9185 98.134 55.152H100.734C100.734 54.8095 100.71 54.4689 100.641 54.1542C100.575 53.8537 100.446 53.4708 100.16 53.1439L98.2037 54.8561ZM98.134 55.152C98.134 56.3194 97.8 57.3296 97.1314 58.2276L99.2167 59.7804C100.228 58.4224 100.734 56.8646 100.734 55.152H98.134ZM97.1314 58.2276C96.4497 59.1429 95.4849 59.8856 94.1793 60.4331L95.1848 62.8309C96.8552 62.1304 98.2183 61.1211 99.2167 59.7804L97.1314 58.2276ZM94.163 60.4401C92.8678 61.0042 91.3341 61.304 89.534 61.304V63.904C91.6219 63.904 93.5203 63.5559 95.2011 62.8239L94.163 60.4401ZM89.534 61.304H86.834V63.904H89.534V61.304ZM86.834 61.304C83.9729 61.304 81.9403 60.4873 80.5421 59.0103L78.6539 60.7977C80.6637 62.9207 83.4551 63.904 86.834 63.904V61.304ZM80.5424 59.0106C79.1555 57.5444 78.378 55.4076 78.378 52.416H75.778C75.778 55.8564 76.6806 58.7116 78.6536 60.7974L80.5424 59.0106ZM78.378 52.416V45.216H75.778V52.416H78.378ZM77.078 46.516H81.65V43.916H77.078V46.516ZM80.35 45.216V52.308H82.95V45.216H80.35ZM80.35 52.308C80.35 54.3071 80.8081 56.0488 81.9538 57.2927L83.8662 55.5313C83.3319 54.9512 82.95 53.9569 82.95 52.308H80.35ZM81.9425 57.2803C83.1172 58.5893 84.8454 59.116 86.834 59.116V56.516C85.2706 56.516 84.3828 56.1067 83.8775 55.5437L81.9425 57.2803ZM86.834 59.116H89.606V56.516H86.834V59.116ZM89.606 59.116C91.4271 59.116 92.99 58.8892 94.142 58.2974C94.7369 57.9918 95.2567 57.571 95.624 57.0049C95.9956 56.4323 96.162 55.7864 96.162 55.116H93.562C93.562 55.3456 93.5094 55.4872 93.443 55.5896C93.3724 55.6985 93.2351 55.8402 92.954 55.9847C92.354 56.2928 91.2889 56.516 89.606 56.516V59.116ZM96.162 55.116C96.162 54.4133 95.9771 53.5926 95.2892 53.0299L93.6428 55.0421C93.6115 55.0165 93.5863 54.9881 93.568 54.9615C93.5502 54.9356 93.5434 54.9179 93.5425 54.9155C93.5418 54.9138 93.547 54.9274 93.5522 54.9613C93.5574 54.9954 93.562 55.046 93.562 55.116H96.162ZM95.2306 52.9846C94.6243 52.5437 93.8449 52.448 93.17 52.448V55.048C93.4063 55.048 93.5647 55.0674 93.662 55.089C93.7622 55.1113 93.7552 55.1265 93.7014 55.0874L95.2306 52.9846ZM93.17 52.448H86.87V55.048H93.17V52.448ZM88.1642 53.8713L88.5962 49.3353L86.0079 49.0887L85.5759 53.6247L88.1642 53.8713ZM87.302 50.512H102.35V47.912H87.302V50.512ZM105.034 48.744L105.885 49.7264L105.89 49.7223L105.034 48.744ZM105.61 30.816V29.516H104.31V30.816H105.61ZM110.218 30.816H111.518V29.516H110.218V30.816ZM108.454 52.308L109.354 53.2462L109.364 53.2367L108.454 52.308ZM103.63 50.512C104.45 50.512 105.242 50.284 105.885 49.7264L104.183 47.7616C104.106 47.828 103.962 47.912 103.63 47.912V50.512ZM105.89 49.7223C106.594 49.1061 106.91 48.273 106.91 47.376H104.31C104.31 47.631 104.242 47.7099 104.178 47.7656L105.89 49.7223ZM106.91 47.376V30.816H104.31V47.376H106.91ZM105.61 32.116H110.218V29.516H105.61V32.116ZM108.918 30.816V47.592H111.518V30.816H108.918ZM108.918 47.592C108.918 49.3132 108.42 50.5219 107.544 51.3793L109.364 53.2367C110.84 51.7901 111.518 49.8548 111.518 47.592H108.918ZM107.554 51.3698C106.675 52.2135 105.43 52.7 103.666 52.7V55.3C105.934 55.3 107.881 54.6585 109.354 53.2462L107.554 51.3698ZM103.666 52.7H102.334V55.3H103.666V52.7ZM102.334 52.7C102.687 52.7 102.961 52.8526 103.127 53.0046C103.272 53.1375 103.336 53.2666 103.354 53.3042C103.387 53.3763 103.372 53.3769 103.348 53.2233C103.304 52.9423 103.274 52.4483 103.274 51.696H100.674C100.674 52.4797 100.703 53.1377 100.78 53.6247C100.816 53.8551 100.876 54.1437 100.999 54.4078C101.086 54.5932 101.462 55.3 102.334 55.3V52.7ZM103.274 51.696C103.274 50.8825 103.304 50.3377 103.351 50.0195C103.376 49.8472 103.393 49.8286 103.369 49.8856C103.356 49.9137 103.3 50.0408 103.162 50.1766C103.004 50.3324 102.72 50.512 102.334 50.512V47.912C101.411 47.912 101.049 48.701 100.984 48.8489C100.87 49.1129 100.812 49.4048 100.777 49.6465C100.704 50.1563 100.674 50.8535 100.674 51.696H103.274ZM102.334 50.512H103.63V47.912H102.334V50.512ZM123.391 49.68L122.106 49.8777L122.114 49.9253L122.124 49.9723L123.391 49.68ZM123.391 53.568L122.13 53.2527L122.117 53.3031L122.109 53.3543L123.391 53.568ZM117.235 52.272L116.258 53.1295L116.267 53.1401L116.277 53.1504L117.235 52.272ZM115.687 30.816V29.516H114.387V30.816H115.687ZM120.295 30.816H121.595V29.516H120.295V30.816ZM120.727 48.672L119.687 49.452L119.715 49.4887L119.745 49.5234L120.727 48.672ZM123.139 50.512C122.863 50.512 122.617 50.4149 122.433 50.2739C122.267 50.1474 122.183 50.0108 122.148 49.9453C122.085 49.8284 122.09 49.7723 122.106 49.8777L124.676 49.4823C124.644 49.2757 124.584 48.9856 124.437 48.7127C124.288 48.436 123.886 47.912 123.139 47.912V50.512ZM122.124 49.9723C122.157 50.1135 122.199 50.6305 122.199 51.696H124.799C124.799 50.6975 124.769 49.8705 124.658 49.3877L122.124 49.9723ZM122.199 51.696C122.199 52.1627 122.19 52.5315 122.174 52.8091C122.166 52.9477 122.157 53.0554 122.147 53.1361C122.137 53.2215 122.129 53.2547 122.13 53.2527L124.652 53.8833C124.77 53.4113 124.799 52.6193 124.799 51.696H122.199ZM122.109 53.3543C122.094 53.4416 122.093 53.367 122.169 53.237C122.212 53.1633 122.304 53.0299 122.473 52.9109C122.657 52.7808 122.889 52.7 123.139 52.7V55.3C123.833 55.3 124.242 54.8445 124.415 54.547C124.575 54.273 124.64 53.9824 124.673 53.7817L122.109 53.3543ZM123.139 52.7H121.843V55.3H123.139V52.7ZM121.843 52.7C120.08 52.7 118.937 52.2042 118.193 51.3936L116.277 53.1504C117.646 54.6438 119.575 55.3 121.843 55.3V52.7ZM118.212 51.4145C117.456 50.5527 116.987 49.2326 116.987 47.268H114.387C114.387 49.6234 114.95 51.6393 116.258 53.1295L118.212 51.4145ZM116.987 47.268V30.816H114.387V47.268H116.987ZM115.687 32.116H120.295V29.516H115.687V32.116ZM118.995 30.816V46.944H121.595V30.816H118.995ZM118.995 46.944C118.995 47.837 119.156 48.7438 119.687 49.452L121.767 47.892C121.722 47.8322 121.595 47.587 121.595 46.944H118.995ZM119.745 49.5234C120.384 50.2608 121.285 50.512 122.167 50.512V47.912C121.96 47.912 121.839 47.8827 121.778 47.8598C121.725 47.84 121.713 47.8243 121.71 47.8206L119.745 49.5234ZM122.167 50.512H123.139V47.912H122.167V50.512ZM128.33 49.212V50.512H132.951L129.008 48.1027L128.33 49.212ZM126.386 47.376L125.255 48.0169L125.268 48.0395L125.282 48.0616L126.386 47.376ZM126.71 41.112L127.842 41.7517L127.842 41.7517L126.71 41.112ZM129.302 38.52L129.942 39.6517L129.951 39.6465L129.961 39.6411L129.302 38.52ZM138.482 39.672L137.515 40.5408L137.524 40.5497L138.482 39.672ZM137.942 52.2L137.18 51.1473L137.172 51.1527L137.942 52.2ZM135.062 48.852L134.626 50.0766L135.419 50.3589L136.001 49.7515L135.062 48.852ZM131.102 42.912L130.183 41.9928L130.183 41.9928L131.102 42.912ZM131.39 47.016L130.523 47.9839L130.532 47.9924L130.542 48.0006L131.39 47.016ZM138.122 30.168H139.422V28.868H138.122V30.168ZM138.122 34.272V35.572H139.422V34.272H138.122ZM127.97 34.272H126.67V35.572H127.97V34.272ZM127.97 30.168V28.868H126.67V30.168H127.97ZM129.008 48.1027C128.278 47.6561 127.794 47.1778 127.491 46.6904L125.282 48.0616C125.843 48.9662 126.655 49.7119 127.653 50.3213L129.008 48.1027ZM127.518 46.7351C127.242 46.249 127.074 45.6161 127.074 44.784H124.474C124.474 45.9679 124.715 47.063 125.255 48.0169L127.518 46.7351ZM127.074 44.784C127.074 43.6503 127.335 42.6488 127.842 41.7517L125.579 40.4723C124.838 41.7832 124.474 43.2297 124.474 44.784H127.074ZM127.842 41.7517C128.35 40.8534 129.044 40.1595 129.942 39.6517L128.663 37.3883C127.353 38.1285 126.319 39.1626 125.579 40.4723L127.842 41.7517ZM129.961 39.6411C130.848 39.1204 131.865 38.848 133.046 38.848V36.248C131.444 36.248 129.965 36.6236 128.644 37.3989L129.961 39.6411ZM133.046 38.848C135.123 38.848 136.546 39.462 137.515 40.5407L139.45 38.8033C137.875 37.05 135.674 36.248 133.046 36.248V38.848ZM137.524 40.5497C138.541 41.6611 139.126 43.2686 139.126 45.54H141.726C141.726 42.8194 141.016 40.5149 139.441 38.7943L137.524 40.5497ZM139.126 45.54V46.764H141.726V45.54H139.126ZM139.126 46.764C139.126 48.859 138.433 50.2391 137.18 51.1473L138.705 53.2527C140.764 51.7609 141.726 49.517 141.726 46.764H139.126ZM137.172 51.1527C135.86 52.1173 133.76 52.7 130.67 52.7V55.3C134.013 55.3 136.761 54.6827 138.713 53.2473L137.172 51.1527ZM130.67 52.7H123.146V55.3H130.67V52.7ZM123.146 52.7C123.5 52.7 123.773 52.8526 123.939 53.0046C124.085 53.1375 124.148 53.2666 124.166 53.3042C124.2 53.3763 124.185 53.3769 124.161 53.2233C124.117 52.9423 124.086 52.4483 124.086 51.696H121.486C121.486 52.4797 121.516 53.1377 121.592 53.6247C121.628 53.8551 121.688 54.1437 121.812 54.4078C121.899 54.5932 122.275 55.3 123.146 55.3V52.7ZM124.086 51.696C124.086 50.8825 124.117 50.3377 124.163 50.0195C124.188 49.8472 124.206 49.8286 124.181 49.8856C124.169 49.9137 124.113 50.0408 123.975 50.1766C123.817 50.3324 123.533 50.512 123.146 50.512V47.912C122.223 47.912 121.861 48.701 121.797 48.8489C121.682 49.1129 121.625 49.4048 121.59 49.6465C121.516 50.1563 121.486 50.8535 121.486 51.696H124.086ZM123.146 50.512H127.25V47.912H123.146V50.512ZM127.25 50.512H128.33V47.912H127.25V50.512ZM136.001 49.7515C136.871 48.8442 137.19 47.5989 137.19 46.26H134.59C134.59 47.2251 134.358 47.7078 134.124 47.9525L136.001 49.7515ZM137.19 46.26V45.72H134.59V46.26H137.19ZM137.19 45.72C137.19 44.3811 136.928 43.1364 136.186 42.2079C135.399 41.224 134.257 40.82 133.01 40.82V43.42C133.684 43.42 133.982 43.616 134.155 43.8321C134.373 44.1036 134.59 44.6589 134.59 45.72H137.19ZM133.01 40.82C131.92 40.82 130.954 41.222 130.183 41.9928L132.022 43.8312C132.307 43.546 132.613 43.42 133.01 43.42V40.82ZM130.183 41.9928C129.424 42.7522 129.046 43.7121 129.046 44.784H131.646C131.646 44.3679 131.773 44.0798 132.022 43.8312L130.183 41.9928ZM129.046 44.784C129.046 46.0501 129.577 47.136 130.523 47.9839L132.258 46.0481C131.812 45.648 131.646 45.2459 131.646 44.784H129.046ZM130.542 48.0006C131.429 48.7658 132.846 49.4425 134.626 50.0766L135.499 47.6274C133.775 47.0135 132.744 46.4662 132.239 46.0314L130.542 48.0006ZM136.822 30.168V34.272H139.422V30.168H136.822ZM138.122 32.972H127.97V35.572H138.122V32.972ZM129.27 34.272V30.168H126.67V34.272H129.27ZM127.97 31.468H138.122V28.868H127.97V31.468ZM167.951 48.636L166.919 49.4257L166.93 49.4409L166.942 49.4558L167.951 48.636ZM170.723 49.68L169.438 49.8777L169.446 49.9253L169.457 49.9723L170.723 49.68ZM170.723 53.568L169.462 53.2527L169.45 53.3031L169.441 53.3543L170.723 53.568ZM166.079 53.352L165.459 54.4945L165.478 54.505L165.498 54.5148L166.079 53.352ZM164.315 51.156L165.549 50.7449L164.937 48.9107L163.469 50.169L164.315 51.156ZM162.335 52.128L162.642 53.3914L162.655 53.3882L162.668 53.3847L162.335 52.128ZM154.883 50.652L153.936 51.5424L153.945 51.5521L153.955 51.5617L154.883 50.652ZM154.091 41.58L152.943 40.9707L152.938 40.9795L154.091 41.58ZM156.683 38.772L157.377 39.8717L157.383 39.8678L156.683 38.772ZM162.911 37.692V38.992H164.211V37.692H162.911ZM162.911 35.352V34.052H161.611V35.352H162.911ZM167.483 35.352H168.783V34.052H167.483V35.352ZM158.267 47.088L157.293 47.9481L157.319 47.9785L157.348 48.0072L158.267 47.088ZM162.191 47.196L162.9 48.286L162.906 48.2819L162.912 48.2777L162.191 47.196ZM162.947 42.264H164.247V40.964H162.947V42.264ZM166.183 46.728C166.183 47.7005 166.35 48.6821 166.919 49.4257L168.984 47.8463C168.929 47.7739 168.783 47.4835 168.783 46.728H166.183ZM166.942 49.4558C167.564 50.2207 168.451 50.512 169.355 50.512V47.912C169.174 47.912 169.075 47.8839 169.03 47.8653C168.992 47.8499 168.976 47.8356 168.96 47.8162L166.942 49.4558ZM169.355 50.512H170.471V47.912H169.355V50.512ZM170.471 50.512C170.195 50.512 169.949 50.4149 169.765 50.2739C169.599 50.1474 169.515 50.0108 169.48 49.9453C169.417 49.8284 169.422 49.7723 169.438 49.8777L172.008 49.4823C171.976 49.2757 171.916 48.9856 171.769 48.7127C171.62 48.436 171.218 47.912 170.471 47.912V50.512ZM169.457 49.9723C169.489 50.1135 169.531 50.6305 169.531 51.696H172.131C172.131 50.6975 172.101 49.8705 171.99 49.3877L169.457 49.9723ZM169.531 51.696C169.531 52.1627 169.522 52.5315 169.506 52.8091C169.498 52.9476 169.489 53.0554 169.48 53.1361C169.469 53.2215 169.462 53.2547 169.462 53.2527L171.984 53.8833C172.102 53.4113 172.131 52.6193 172.131 51.696H169.531ZM169.441 53.3543C169.426 53.4416 169.426 53.367 169.501 53.237C169.544 53.1633 169.636 53.0299 169.805 52.9109C169.989 52.7808 170.222 52.7 170.471 52.7V55.3C171.165 55.3 171.574 54.8445 171.747 54.547C171.907 54.273 171.972 53.9824 172.006 53.7817L169.441 53.3543ZM170.471 52.7H169.319V55.3H170.471V52.7ZM169.319 52.7C168.159 52.7 167.293 52.5056 166.661 52.1892L165.498 54.5148C166.593 55.0624 167.887 55.3 169.319 55.3V52.7ZM166.7 52.2095C166.182 51.9288 165.793 51.478 165.549 50.7449L163.082 51.5671C163.51 52.85 164.296 53.8632 165.459 54.4945L166.7 52.2095ZM163.469 50.169C163.149 50.4438 162.679 50.6922 162.003 50.8713L162.668 53.3847C163.623 53.1318 164.474 52.7322 165.161 52.143L163.469 50.169ZM162.029 50.8646C161.343 51.0309 160.618 51.116 159.851 51.116V53.716C160.812 53.716 161.743 53.6091 162.642 53.3914L162.029 50.8646ZM159.851 51.116C157.927 51.116 156.65 50.5977 155.812 49.7423L153.955 51.5617C155.421 53.0583 157.456 53.716 159.851 53.716V51.116ZM155.831 49.7616C155.01 48.889 154.491 47.4865 154.491 45.324H151.891C151.891 47.8655 152.5 50.015 153.936 51.5424L155.831 49.7616ZM154.491 45.324C154.491 44.1816 154.744 43.1405 155.244 42.1805L152.938 40.9795C152.238 42.3235 151.891 43.7784 151.891 45.324H154.491ZM155.24 42.1893C155.76 41.2095 156.468 40.4442 157.377 39.8717L155.99 37.6723C154.69 38.4918 153.671 39.5985 152.943 40.9707L155.24 42.1893ZM157.383 39.8678C158.286 39.2914 159.323 38.992 160.535 38.992V36.392C158.867 36.392 157.337 36.8126 155.984 37.6762L157.383 39.8678ZM160.535 38.992H162.911V36.392H160.535V38.992ZM164.211 37.692V35.352H161.611V37.692H164.211ZM162.911 36.652H167.483V34.052H162.911V36.652ZM166.183 35.352V46.728H168.783V35.352H166.183ZM156.427 45.288C156.427 46.2551 156.645 47.2144 157.293 47.9481L159.242 46.2279C159.169 46.1456 159.027 45.9049 159.027 45.288H156.427ZM157.348 48.0072C158.081 48.74 159.103 48.964 160.103 48.964V46.364C159.424 46.364 159.222 46.204 159.187 46.1688L157.348 48.0072ZM160.103 48.964C161.131 48.964 162.118 48.7941 162.9 48.286L161.483 46.106C161.305 46.2219 160.9 46.364 160.103 46.364V48.964ZM162.912 48.2777C163.774 47.7033 164.247 46.8316 164.247 45.792H161.647C161.647 45.905 161.625 45.9554 161.614 45.9767C161.602 45.9985 161.57 46.0478 161.47 46.1143L162.912 48.2777ZM164.247 45.792V42.264H161.647V45.792H164.247ZM162.947 40.964H160.607V43.564H162.947V40.964ZM160.607 40.964C159.43 40.964 158.313 41.2761 157.506 42.1234C156.71 42.9589 156.427 44.095 156.427 45.288H159.027C159.027 44.465 159.224 44.0891 159.389 43.9166C159.542 43.7559 159.864 43.564 160.607 43.564V40.964ZM176.083 48.744L176.934 49.7264L176.939 49.7223L176.083 48.744ZM176.659 41.616V40.316H175.359V41.616H176.659ZM181.231 41.616H182.531V40.316H181.231V41.616ZM178.927 52.272L180.029 51.583L179.003 49.9412L177.872 51.5124L178.927 52.272ZM177.199 53.604L177.66 54.8195L177.671 54.8154L177.682 54.811L177.199 53.604ZM182.275 33.768H183.575V32.468H182.275V33.768ZM182.275 37.872V39.172H183.575V37.872H182.275ZM172.123 37.872H170.823V39.172H172.123V37.872ZM172.123 33.768V32.468H170.823V33.768H172.123ZM174.643 50.512C175.472 50.512 176.281 50.2921 176.934 49.7264L175.231 47.7616C175.164 47.8199 175.014 47.912 174.643 47.912V50.512ZM176.939 49.7223C177.643 49.1061 177.959 48.273 177.959 47.376H175.359C175.359 47.631 175.29 47.7099 175.227 47.7656L176.939 49.7223ZM177.959 47.376V41.616H175.359V47.376H177.959ZM176.659 42.916H181.231V40.316H176.659V42.916ZM179.931 41.616V47.232H182.531V41.616H179.931ZM179.931 47.232C179.931 48.0984 180.153 48.9856 180.824 49.6445C181.49 50.2991 182.38 50.512 183.247 50.512V47.912C182.769 47.912 182.651 47.7949 182.646 47.7895C182.645 47.7884 182.531 47.6856 182.531 47.232H179.931ZM183.247 50.512H184.615V47.912H183.247V50.512ZM184.615 50.512C184.242 50.512 183.962 50.3434 183.8 50.1888C183.659 50.054 183.6 49.9259 183.586 49.894C183.558 49.831 183.574 49.842 183.599 50.0069C183.644 50.3104 183.675 50.8349 183.675 51.624H186.275C186.275 50.8051 186.245 50.1236 186.171 49.6231C186.135 49.386 186.077 49.0955 185.959 48.8315C185.886 48.6683 185.518 47.912 184.615 47.912V50.512ZM183.675 51.624C183.675 52.4008 183.644 52.9152 183.599 53.2113C183.575 53.3724 183.559 53.3795 183.589 53.3136C183.604 53.2798 183.665 53.1513 183.807 53.017C183.971 52.8632 184.248 52.7 184.615 52.7V55.3C185.508 55.3 185.878 54.5602 185.956 54.3894C186.076 54.1255 186.135 53.8356 186.17 53.6007C186.245 53.1048 186.275 52.4312 186.275 51.624H183.675ZM184.615 52.7H183.031V55.3H184.615V52.7ZM183.031 52.7C181.23 52.7 180.41 52.192 180.029 51.583L177.824 52.961C178.884 54.656 180.8 55.3 183.031 55.3V52.7ZM177.872 51.5124C177.591 51.9019 177.218 52.196 176.716 52.397L177.682 54.811C178.619 54.436 179.398 53.8421 179.982 53.0316L177.872 51.5124ZM176.738 52.3885C176.231 52.5807 175.545 52.7 174.643 52.7V55.3C175.756 55.3 176.775 55.1553 177.66 54.8195L176.738 52.3885ZM174.643 52.7H170.467V55.3H174.643V52.7ZM170.467 52.7C170.82 52.7 171.093 52.8526 171.26 53.0046C171.405 53.1375 171.469 53.2666 171.486 53.3042C171.52 53.3763 171.505 53.3769 171.481 53.2233C171.437 52.9423 171.407 52.4483 171.407 51.696H168.807C168.807 52.4797 168.836 53.1377 168.912 53.6247C168.948 53.8551 169.008 54.1437 169.132 54.4078C169.219 54.5932 169.595 55.3 170.467 55.3V52.7ZM171.407 51.696C171.407 50.8825 171.437 50.3377 171.483 50.0195C171.508 49.8472 171.526 49.8286 171.501 49.8856C171.489 49.9137 171.433 50.0408 171.295 50.1766C171.137 50.3324 170.853 50.512 170.467 50.512V47.912C169.543 47.912 169.181 48.701 169.117 48.8489C169.002 49.1129 168.945 49.4048 168.91 49.6465C168.836 50.1563 168.807 50.8535 168.807 51.696H171.407ZM170.467 50.512H174.643V47.912H170.467V50.512ZM180.975 33.768V37.872H183.575V33.768H180.975ZM182.275 36.572H172.123V39.172H182.275V36.572ZM173.423 37.872V33.768H170.823V37.872H173.423ZM172.123 35.068H182.275V32.468H172.123V35.068ZM202.492 41.724L201.338 42.3238L201.343 42.3333L202.492 41.724ZM204.184 46.8L204.88 47.8975L205.655 47.4055L205.451 46.5107L204.184 46.8ZM201.916 48.24L201.219 47.1425L200.077 47.8677L200.847 48.98L201.916 48.24ZM202.96 48.96L203.389 47.733L203.389 47.733L202.96 48.96ZM207.064 53.604L208.318 53.946L208.321 53.9327L208.325 53.9193L207.064 53.604ZM201.016 53.208L200.351 54.3254L200.358 54.3293L200.364 54.3331L201.016 53.208ZM198.604 50.508L199.735 49.8676L199.063 48.6803L197.909 49.4089L198.604 50.508ZM197.236 51.372L197.919 52.4781L197.93 52.4711L197.236 51.372ZM192.556 53.46L192.861 54.7235L192.871 54.7212L192.88 54.7188L192.556 53.46ZM191.764 48.852L191.509 47.5772L191.504 47.5783L191.764 48.852ZM195.472 47.412L196.112 48.5433L196.115 48.5415L195.472 47.412ZM198.82 45.504L199.463 46.6335L200.331 46.139L200.077 45.1732L198.82 45.504ZM197.74 43.668L196.968 44.7146L196.999 44.7372L197.031 44.758L197.74 43.668ZM187.408 43.164L186.116 43.0172L185.952 44.464H187.408V43.164ZM187.948 38.412V37.112H186.787L186.656 38.2652L187.948 38.412ZM191.656 34.776H190.356V36.076H191.656V34.776ZM191.656 30.672V29.372H190.356V30.672H191.656ZM196.552 30.672H197.852V29.372H196.552V30.672ZM196.552 34.776V36.076H197.852V34.776H196.552ZM196.516 39.712C197.87 39.712 198.849 39.9432 199.535 40.3126L200.768 38.0234C199.582 37.3848 198.137 37.112 196.516 37.112V39.712ZM199.535 40.3126C200.186 40.6632 200.802 41.2923 201.338 42.3238L203.645 41.1242C202.933 39.7557 201.989 38.6808 200.768 38.0234L199.535 40.3126ZM201.343 42.3333C201.889 43.3622 202.423 44.9266 202.916 47.0893L205.451 46.5107C204.937 44.2574 204.342 42.4378 203.64 41.1147L201.343 42.3333ZM203.487 45.7025L201.219 47.1425L202.612 49.3375L204.88 47.8975L203.487 45.7025ZM200.847 48.98C201.264 49.5834 201.878 49.9588 202.53 50.187L203.389 47.733C203.081 47.6252 202.999 47.5206 202.984 47.5L200.847 48.98ZM202.53 50.187C203.18 50.4145 203.896 50.512 204.652 50.512V47.912C204.112 47.912 203.699 47.8415 203.389 47.733L202.53 50.187ZM204.652 50.512H206.812V47.912H204.652V50.512ZM206.812 50.512C206.425 50.512 206.141 50.3324 205.983 50.1766C205.846 50.0408 205.789 49.9137 205.777 49.8856C205.752 49.8286 205.77 49.8472 205.795 50.0195C205.841 50.3377 205.872 50.8825 205.872 51.696H208.472C208.472 50.8535 208.442 50.1563 208.368 49.6465C208.333 49.4048 208.276 49.1129 208.161 48.8489C208.097 48.701 207.735 47.912 206.812 47.912V50.512ZM205.872 51.696C205.872 52.1751 205.863 52.5534 205.847 52.8375C205.839 52.9794 205.829 53.0895 205.82 53.1718C205.809 53.2592 205.802 53.2921 205.802 53.2887L208.325 53.9193C208.443 53.4464 208.472 52.6404 208.472 51.696H205.872ZM205.809 53.262C205.786 53.3473 205.788 53.2998 205.85 53.2031C205.892 53.1374 206.188 52.7 206.812 52.7V55.3C207.531 55.3 207.918 54.7966 208.043 54.5989C208.189 54.3702 208.269 54.1247 208.318 53.946L205.809 53.262ZM206.812 52.7H204.4V55.3H206.812V52.7ZM204.4 52.7C203.223 52.7 202.334 52.4689 201.667 52.0829L200.364 54.3331C201.522 55.0031 202.889 55.3 204.4 55.3V52.7ZM201.68 52.0906C201.051 51.7165 200.387 51.0199 199.735 49.8676L197.472 51.1484C198.26 52.5401 199.204 53.6435 200.351 54.3254L201.68 52.0906ZM197.909 49.4089L196.541 50.2729L197.93 52.4711L199.298 51.6071L197.909 49.4089ZM196.552 50.266C195.005 51.2216 193.566 51.8568 192.231 52.2012L192.88 54.7188C194.522 54.2952 196.202 53.5384 197.919 52.478L196.552 50.266ZM192.25 52.1965C190.894 52.5244 189.168 52.7 187.048 52.7V55.3C189.295 55.3 191.241 55.1156 192.861 54.7235L192.25 52.1965ZM187.048 52.7H184.6V55.3H187.048V52.7ZM184.6 52.7C184.953 52.7 185.226 52.8526 185.392 53.0046C185.538 53.1375 185.602 53.2666 185.619 53.3042C185.653 53.3763 185.638 53.3769 185.614 53.2233C185.57 52.9423 185.54 52.4483 185.54 51.696H182.94C182.94 52.4797 182.969 53.1377 183.045 53.6247C183.081 53.8551 183.141 54.1437 183.265 54.4078C183.352 54.5932 183.728 55.3 184.6 55.3V52.7ZM185.54 51.696C185.54 50.8825 185.57 50.3377 185.616 50.0195C185.641 49.8472 185.659 49.8286 185.634 49.8856C185.622 49.9137 185.566 50.0408 185.428 50.1766C185.27 50.3324 184.986 50.512 184.6 50.512V47.912C183.676 47.912 183.314 48.701 183.25 48.8489C183.135 49.1129 183.078 49.4048 183.043 49.6465C182.969 50.1563 182.94 50.8535 182.94 51.696H185.54ZM184.6 50.512H187.264V47.912H184.6V50.512ZM187.264 50.512C189.135 50.512 190.73 50.3897 192.024 50.1257L191.504 47.5783C190.445 47.7943 189.04 47.912 187.264 47.912V50.512ZM192.019 50.1268C193.377 49.855 194.743 49.3185 196.112 48.5433L194.831 46.2807C193.657 46.9455 192.55 47.369 191.509 47.5772L192.019 50.1268ZM196.115 48.5415L199.463 46.6335L198.176 44.3745L194.828 46.2825L196.115 48.5415ZM200.077 45.1732C199.804 44.1383 199.328 43.1497 198.448 42.578L197.031 44.758C197.112 44.8103 197.355 45.0457 197.562 45.8348L200.077 45.1732ZM198.511 42.6214C197.728 42.0443 196.7 41.864 195.652 41.864V44.464C196.475 44.464 196.84 44.6197 196.968 44.7146L198.511 42.6214ZM195.652 41.864H187.408V44.464H195.652V41.864ZM188.699 43.3108L189.239 38.5588L186.656 38.2652L186.116 43.0172L188.699 43.3108ZM187.948 39.712H196.516V37.112H187.948V39.712ZM192.956 34.776V30.672H190.356V34.776H192.956ZM191.656 31.972H196.552V29.372H191.656V31.972ZM195.252 30.672V34.776H197.852V30.672H195.252ZM196.552 33.476H191.656V36.076H196.552V33.476ZM215.134 52.308L216.034 53.2462L216.035 53.2458L215.134 52.308ZM211.786 48.744L212.638 49.7264L212.642 49.7223L211.786 48.744ZM212.362 41.616V40.316H211.062V41.616H212.362ZM216.934 41.616H218.234V40.316H216.934V41.616ZM217.798 33.768H219.098V32.468H217.798V33.768ZM217.798 37.872V39.172H219.098V37.872H217.798ZM207.646 37.872H206.346V39.172H207.646V37.872ZM207.646 33.768V32.468H206.346V33.768H207.646ZM215.634 47.592C215.634 49.3054 215.129 50.511 214.234 51.3702L216.035 53.2458C217.54 51.801 218.234 49.8626 218.234 47.592H215.634ZM214.234 51.3698C213.355 52.2135 212.111 52.7 210.346 52.7V55.3C212.614 55.3 214.562 54.6585 216.034 53.2462L214.234 51.3698ZM210.346 52.7H206.818V55.3H210.346V52.7ZM206.818 52.7C207.172 52.7 207.445 52.8526 207.611 53.0046C207.757 53.1375 207.82 53.2666 207.838 53.3042C207.872 53.3763 207.857 53.3769 207.833 53.2233C207.789 52.9423 207.758 52.4483 207.758 51.696H205.158C205.158 52.4797 205.188 53.1377 205.264 53.6247C205.3 53.8551 205.36 54.1437 205.484 54.4078C205.571 54.5932 205.947 55.3 206.818 55.3V52.7ZM207.758 51.696C207.758 50.8825 207.789 50.3377 207.835 50.0195C207.86 49.8472 207.878 49.8286 207.853 49.8856C207.841 49.9137 207.784 50.0408 207.647 50.1766C207.489 50.3324 207.205 50.512 206.818 50.512V47.912C205.895 47.912 205.533 48.701 205.469 48.8489C205.354 49.1129 205.297 49.4048 205.262 49.6465C205.188 50.1563 205.158 50.8535 205.158 51.696H207.758ZM206.818 50.512H210.346V47.912H206.818V50.512ZM210.346 50.512C211.175 50.512 211.985 50.2921 212.638 49.7264L210.935 47.7616C210.868 47.8199 210.717 47.912 210.346 47.912V50.512ZM212.642 49.7223C213.347 49.1061 213.662 48.273 213.662 47.376H211.062C211.062 47.631 210.994 47.7099 210.93 47.7656L212.642 49.7223ZM213.662 47.376V41.616H211.062V47.376H213.662ZM212.362 42.916H216.934V40.316H212.362V42.916ZM215.634 41.616V47.592H218.234V41.616H215.634ZM216.498 33.768V37.872H219.098V33.768H216.498ZM217.798 36.572H207.646V39.172H217.798V36.572ZM208.946 37.872V33.768H206.346V37.872H208.946ZM207.646 35.068H217.798V32.468H207.646V35.068ZM238.547 48.852L239.268 49.9337L239.268 49.9337L238.547 48.852ZM238.691 46.26L237.462 46.6826L237.466 46.6947L238.691 46.26ZM236.675 40.644L237.897 40.2005L237.897 40.1997L236.675 40.644ZM235.343 37.08L234.786 35.9055L233.705 36.4185L234.127 37.5382L235.343 37.08ZM239.591 35.064L240.817 34.6306L240.336 33.2715L239.034 33.8895L239.591 35.064ZM243.767 46.872L244.997 46.4504L244.993 46.4386L243.767 46.872ZM244.739 48.672L243.82 49.5912L243.835 49.6061L243.85 49.6204L244.739 48.672ZM247.439 53.604L248.693 53.946L248.697 53.9327L248.7 53.9193L247.439 53.604ZM243.371 53.568L242.854 54.7608L242.871 54.7682L242.888 54.775L243.371 53.568ZM241.607 52.092L242.683 51.362L241.607 49.7768L240.532 51.362L241.607 52.092ZM239.843 53.568L240.34 54.7692L240.35 54.7651L240.36 54.7608L239.843 53.568ZM229.043 54L227.747 54.0975L227.837 55.3H229.043V54ZM228.683 49.212V47.912H227.282L227.387 49.3095L228.683 49.212ZM237.107 50.512C237.868 50.512 238.627 50.3613 239.268 49.9337L237.826 47.7703C237.748 47.8227 237.547 47.912 237.107 47.912V50.512ZM239.268 49.9337C239.989 49.453 240.387 48.7115 240.387 47.844H237.787C237.787 47.8615 237.786 47.8633 237.788 47.8534C237.79 47.8427 237.796 47.8256 237.806 47.8061C237.817 47.7866 237.828 47.7727 237.835 47.7649C237.842 47.7576 237.841 47.7604 237.826 47.7703L239.268 49.9337ZM240.387 47.844C240.387 47.2813 240.177 46.5588 239.916 45.8253L237.466 46.6947C237.59 47.0433 237.675 47.3192 237.727 47.5293C237.783 47.7544 237.787 47.8447 237.787 47.844H240.387ZM239.921 45.8374C239.652 45.0566 238.976 43.1728 237.897 40.2005L235.453 41.0875C236.535 44.0672 237.202 45.9274 237.462 46.6826L239.921 45.8374ZM237.897 40.1997C237.702 39.6633 237.255 38.4678 236.56 36.6218L234.127 37.5382C234.823 39.3882 235.265 40.5687 235.454 41.0883L237.897 40.1997ZM235.901 38.2545L240.149 36.2385L239.034 33.8895L234.786 35.9055L235.901 38.2545ZM238.366 35.4974L242.542 47.3054L244.993 46.4386L240.817 34.6306L238.366 35.4974ZM242.538 47.2936C242.849 48.2012 243.252 49.023 243.82 49.5912L245.659 47.7528C245.507 47.601 245.262 47.2228 244.997 46.4504L242.538 47.2936ZM243.85 49.6204C244.519 50.2472 245.362 50.512 246.251 50.512V47.912C245.892 47.912 245.728 47.8168 245.628 47.7236L243.85 49.6204ZM246.251 50.512H247.187V47.912H246.251V50.512ZM247.187 50.512C246.801 50.512 246.517 50.3324 246.359 50.1766C246.221 50.0408 246.165 49.9137 246.153 49.8856C246.128 49.8286 246.146 49.8472 246.171 50.0195C246.217 50.3377 246.247 50.8825 246.247 51.696H248.847C248.847 50.8535 248.818 50.1563 248.744 49.6465C248.709 49.4048 248.652 49.1129 248.537 48.8489C248.473 48.701 248.111 47.912 247.187 47.912V50.512ZM246.247 51.696C246.247 52.1751 246.238 52.5534 246.222 52.8375C246.214 52.9794 246.205 53.0895 246.195 53.1718C246.185 53.2592 246.177 53.2921 246.178 53.2887L248.7 53.9193C248.819 53.4464 248.847 52.6404 248.847 51.696H246.247ZM246.185 53.262C246.162 53.3473 246.164 53.2998 246.226 53.2031C246.267 53.1374 246.564 52.7 247.187 52.7V55.3C247.907 55.3 248.293 54.7966 248.419 54.5989C248.565 54.3702 248.645 54.1247 248.693 53.946L246.185 53.262ZM247.187 52.7H246.035V55.3H247.187V52.7ZM246.035 52.7C245.089 52.7 244.376 52.5697 243.854 52.361L242.888 54.775C243.807 55.1423 244.87 55.3 246.035 55.3V52.7ZM243.888 52.3752C243.403 52.1648 243.006 51.8374 242.683 51.362L240.532 52.822C241.121 53.6906 241.9 54.3472 242.854 54.7608L243.888 52.3752ZM240.532 51.362C240.209 51.8374 239.812 52.1648 239.326 52.3752L240.36 54.7608C241.315 54.3472 242.094 53.6906 242.683 52.822L240.532 51.362ZM239.346 52.3668C238.855 52.5702 238.172 52.7 237.251 52.7V55.3C238.395 55.3 239.44 55.1418 240.34 54.7692L239.346 52.3668ZM237.251 52.7H229.043V55.3H237.251V52.7ZM230.34 53.9025L229.98 49.1145L227.387 49.3095L227.747 54.0975L230.34 53.9025ZM228.683 50.512H237.107V47.912H228.683V50.512ZM252.794 48.744L253.645 49.7264L253.65 49.7223L252.794 48.744ZM253.37 41.616V40.316H252.07V41.616H253.37ZM257.942 41.616H259.242V40.316H257.942V41.616ZM255.638 52.272L256.74 51.583L255.714 49.9412L254.583 51.5124L255.638 52.272ZM253.91 53.604L254.371 54.8195L254.382 54.8154L254.393 54.811L253.91 53.604ZM251.462 37.872H250.162V39.172H251.462V37.872ZM251.462 33.768V32.468H250.162V33.768H251.462ZM256.358 33.768H257.658V32.468H256.358V33.768ZM256.358 37.872V39.172H257.658V37.872H256.358ZM251.354 50.512C252.183 50.512 252.992 50.2921 253.645 49.7264L251.942 47.7616C251.875 47.8199 251.725 47.912 251.354 47.912V50.512ZM253.65 49.7223C254.354 49.1061 254.67 48.273 254.67 47.376H252.07C252.07 47.631 252.001 47.7099 251.938 47.7656L253.65 49.7223ZM254.67 47.376V41.616H252.07V47.376H254.67ZM253.37 42.916H257.942V40.316H253.37V42.916ZM256.642 41.616V47.232H259.242V41.616H256.642ZM256.642 47.232C256.642 48.0984 256.864 48.9856 257.535 49.6445C258.201 50.2991 259.091 50.512 259.958 50.512V47.912C259.48 47.912 259.362 47.7949 259.357 47.7895C259.356 47.7884 259.242 47.6856 259.242 47.232H256.642ZM259.958 50.512H261.326V47.912H259.958V50.512ZM261.326 50.512C260.953 50.512 260.673 50.3434 260.511 50.1888C260.37 50.054 260.311 49.9259 260.297 49.894C260.269 49.831 260.285 49.842 260.31 50.0069C260.355 50.3104 260.386 50.8349 260.386 51.624H262.986C262.986 50.8051 262.956 50.1236 262.881 49.6231C262.846 49.386 262.788 49.0955 262.67 48.8315C262.597 48.6683 262.229 47.912 261.326 47.912V50.512ZM260.386 51.624C260.386 52.4008 260.355 52.9152 260.31 53.2113C260.286 53.3724 260.27 53.3795 260.3 53.3136C260.315 53.2798 260.376 53.1513 260.518 53.017C260.681 52.8632 260.959 52.7 261.326 52.7V55.3C262.219 55.3 262.589 54.5602 262.667 54.3894C262.787 54.1255 262.845 53.8356 262.881 53.6007C262.956 53.1048 262.986 52.4312 262.986 51.624H260.386ZM261.326 52.7H259.742V55.3H261.326V52.7ZM259.742 52.7C257.941 52.7 257.121 52.192 256.74 51.583L254.535 52.961C255.595 54.656 257.511 55.3 259.742 55.3V52.7ZM254.583 51.5124C254.302 51.9019 253.929 52.196 253.427 52.397L254.393 54.811C255.33 54.436 256.109 53.8421 256.693 53.0316L254.583 51.5124ZM253.449 52.3885C252.942 52.5807 252.256 52.7 251.354 52.7V55.3C252.467 55.3 253.485 55.1553 254.371 54.8195L253.449 52.3885ZM251.354 52.7H247.178V55.3H251.354V52.7ZM247.178 52.7C247.531 52.7 247.804 52.8526 247.971 53.0046C248.116 53.1375 248.18 53.2666 248.197 53.3042C248.231 53.3763 248.216 53.3769 248.192 53.2233C248.148 52.9423 248.118 52.4483 248.118 51.696H245.518C245.518 52.4797 245.547 53.1377 245.623 53.6247C245.659 53.8551 245.719 54.1437 245.843 54.4078C245.93 54.5932 246.306 55.3 247.178 55.3V52.7ZM248.118 51.696C248.118 50.8825 248.148 50.3377 248.194 50.0195C248.219 49.8472 248.237 49.8286 248.212 49.8856C248.2 49.9137 248.144 50.0408 248.006 50.1766C247.848 50.3324 247.564 50.512 247.178 50.512V47.912C246.254 47.912 245.892 48.701 245.828 48.8489C245.713 49.1129 245.656 49.4048 245.621 49.6465C245.547 50.1563 245.518 50.8535 245.518 51.696H248.118ZM247.178 50.512H251.354V47.912H247.178V50.512ZM252.762 37.872V33.768H250.162V37.872H252.762ZM251.462 35.068H256.358V32.468H251.462V35.068ZM255.058 33.768V37.872H257.658V33.768H255.058ZM256.358 36.572H251.462V39.172H256.358V36.572ZM268.475 48.852L268.22 47.5772L268.215 47.5783L268.475 48.852ZM272.183 47.412L272.823 48.5433L272.826 48.5415L272.183 47.412ZM275.531 45.504L276.174 46.6335L277.042 46.139L276.788 45.1732L275.531 45.504ZM274.451 43.668L273.679 44.7146L273.71 44.7372L273.742 44.758L274.451 43.668ZM264.119 43.164L262.827 43.0172L262.662 44.464H264.119V43.164ZM264.659 38.412V37.112H263.498L263.367 38.2652L264.659 38.412ZM276.899 39.204L276.26 40.3363L276.271 40.3426L276.282 40.3486L276.899 39.204ZM279.239 41.832L278.076 42.4134L278.083 42.4269L278.09 42.4403L279.239 41.832ZM280.967 47.016L281.652 48.1206L282.439 47.6326L282.235 46.7297L280.967 47.016ZM273.947 51.372L274.63 52.478L274.632 52.4766L273.947 51.372ZM269.267 53.46L269.572 54.7235L269.582 54.7212L269.591 54.7188L269.267 53.46ZM274.667 57.744H275.967V56.444H274.667V57.744ZM274.667 61.848V63.148H275.967V61.848H274.667ZM264.515 61.848H263.215V63.148H264.515V61.848ZM264.515 57.744V56.444H263.215V57.744H264.515ZM267.539 67.5H266.239V68.8H267.539V67.5ZM267.539 63.576V62.276H266.239V63.576H267.539ZM271.643 63.576H272.943V62.276H271.643V63.576ZM271.643 67.5V68.8H272.943V67.5H271.643ZM263.975 50.512C265.846 50.512 267.441 50.3897 268.734 50.1257L268.215 47.5783C267.156 47.7943 265.751 47.912 263.975 47.912V50.512ZM268.729 50.1268C270.088 49.855 271.454 49.3185 272.823 48.5433L271.542 46.2807C270.368 46.9455 269.261 47.369 268.22 47.5772L268.729 50.1268ZM272.826 48.5415L276.174 46.6335L274.887 44.3745L271.539 46.2825L272.826 48.5415ZM276.788 45.1732C276.515 44.1383 276.039 43.1497 275.159 42.578L273.742 44.758C273.823 44.8103 274.066 45.0457 274.273 45.8348L276.788 45.1732ZM275.222 42.6214C274.438 42.0443 273.411 41.864 272.363 41.864V44.464C273.186 44.464 273.551 44.6197 273.679 44.7146L275.222 42.6214ZM272.363 41.864H264.119V44.464H272.363V41.864ZM265.41 43.3108L265.95 38.5588L263.367 38.2652L262.827 43.0172L265.41 43.3108ZM264.659 39.712H273.227V37.112H264.659V39.712ZM273.227 39.712C274.601 39.712 275.582 39.954 276.26 40.3363L277.537 38.0717C276.343 37.398 274.876 37.112 273.227 37.112V39.712ZM276.282 40.3486C276.919 40.6913 277.534 41.3307 278.076 42.4134L280.401 41.2506C279.695 39.8373 278.75 38.7247 277.515 38.0594L276.282 40.3486ZM278.09 42.4403C278.66 43.5183 279.206 45.1197 279.698 47.3023L282.235 46.7297C281.719 44.4483 281.113 42.5937 280.387 41.2237L278.09 42.4403ZM280.281 45.9114L273.261 50.2674L274.632 52.4766L281.652 48.1206L280.281 45.9114ZM273.263 50.266C271.716 51.2216 270.276 51.8568 268.942 52.2012L269.591 54.7188C271.233 54.2952 272.913 53.5384 274.63 52.478L273.263 50.266ZM268.961 52.1965C267.605 52.5244 265.879 52.7 263.759 52.7V55.3C266.006 55.3 267.952 55.1156 269.572 54.7235L268.961 52.1965ZM263.759 52.7H261.311V55.3H263.759V52.7ZM261.311 52.7C261.664 52.7 261.937 52.8526 262.103 53.0046C262.249 53.1375 262.313 53.2666 262.33 53.3042C262.364 53.3763 262.349 53.3769 262.325 53.2233C262.281 52.9423 262.251 52.4483 262.251 51.696H259.651C259.651 52.4797 259.68 53.1377 259.756 53.6247C259.792 53.8551 259.852 54.1437 259.976 54.4078C260.063 54.5932 260.439 55.3 261.311 55.3V52.7ZM262.251 51.696C262.251 50.8825 262.281 50.3377 262.327 50.0195C262.352 49.8472 262.37 49.8286 262.345 49.8856C262.333 49.9137 262.277 50.0408 262.139 50.1766C261.981 50.3324 261.697 50.512 261.311 50.512V47.912C260.387 47.912 260.025 48.701 259.961 48.8489C259.846 49.1129 259.789 49.4048 259.754 49.6465C259.68 50.1563 259.651 50.8535 259.651 51.696H262.251ZM261.311 50.512H263.975V47.912H261.311V50.512ZM273.367 57.744V61.848H275.967V57.744H273.367ZM274.667 60.548H264.515V63.148H274.667V60.548ZM265.815 61.848V57.744H263.215V61.848H265.815ZM264.515 59.044H274.667V56.444H264.515V59.044ZM268.839 67.5V63.576H266.239V67.5H268.839ZM267.539 64.876H271.643V62.276H267.539V64.876ZM270.343 63.576V67.5H272.943V63.576H270.343ZM271.643 66.2H267.539V68.8H271.643V66.2Z" fill="black" mask="url(#path-1-outside-1_610_19)"/>
<path d="M99.182 54V52.7H96.3171L98.2037 54.8561L99.182 54ZM98.174 59.004L99.2167 59.7804L99.2167 59.7804L98.174 59.004ZM94.682 61.632L94.1793 60.4331L94.1711 60.4366L94.163 60.4401L94.682 61.632ZM79.598 59.904L78.6536 60.7974L78.6539 60.7977L79.598 59.904ZM77.078 45.216V43.916H75.778V45.216H77.078ZM81.65 45.216H82.95V43.916H81.65V45.216ZM82.91 56.412L83.8775 55.5437L83.8719 55.5375L83.8662 55.5313L82.91 56.412ZM94.466 54.036L95.2892 53.0299L95.2606 53.0064L95.2306 52.9846L94.466 54.036ZM86.87 53.748L85.5759 53.6247L85.4403 55.048H86.87V53.748ZM87.302 49.212V47.912H86.1199L86.0079 49.0887L87.302 49.212ZM102.35 50.512C101.964 50.512 101.68 50.3324 101.522 50.1766C101.384 50.0408 101.328 49.9137 101.315 49.8856C101.291 49.8286 101.308 49.8472 101.333 50.0195C101.38 50.3377 101.41 50.8825 101.41 51.696H104.01C104.01 50.8535 103.98 50.1563 103.907 49.6465C103.872 49.4048 103.814 49.1129 103.7 48.8489C103.635 48.701 103.273 47.912 102.35 47.912V50.512ZM101.41 51.696C101.41 52.4483 101.38 52.9423 101.336 53.2233C101.312 53.3769 101.297 53.3763 101.33 53.3042C101.348 53.2666 101.412 53.1375 101.557 53.0046C101.723 52.8526 101.997 52.7 102.35 52.7V55.3C103.222 55.3 103.598 54.5932 103.685 54.4078C103.808 54.1437 103.868 53.8551 103.904 53.6247C103.981 53.1377 104.01 52.4797 104.01 51.696H101.41ZM102.35 52.7H99.182V55.3H102.35V52.7ZM98.2037 54.8561C98.1405 54.7838 98.1112 54.7238 98.1013 54.7011C98.0913 54.6782 98.094 54.6775 98.101 54.7098C98.1162 54.7791 98.134 54.9185 98.134 55.152H100.734C100.734 54.8095 100.71 54.4689 100.641 54.1542C100.575 53.8537 100.446 53.4708 100.16 53.1439L98.2037 54.8561ZM98.134 55.152C98.134 56.3194 97.8 57.3296 97.1314 58.2276L99.2167 59.7804C100.228 58.4224 100.734 56.8646 100.734 55.152H98.134ZM97.1314 58.2276C96.4497 59.1429 95.4849 59.8856 94.1793 60.4331L95.1848 62.8309C96.8552 62.1304 98.2183 61.1211 99.2167 59.7804L97.1314 58.2276ZM94.163 60.4401C92.8678 61.0042 91.3341 61.304 89.534 61.304V63.904C91.6219 63.904 93.5203 63.5559 95.2011 62.8239L94.163 60.4401ZM89.534 61.304H86.834V63.904H89.534V61.304ZM86.834 61.304C83.9729 61.304 81.9403 60.4873 80.5421 59.0103L78.6539 60.7977C80.6637 62.9207 83.4551 63.904 86.834 63.904V61.304ZM80.5424 59.0106C79.1555 57.5444 78.378 55.4076 78.378 52.416H75.778C75.778 55.8564 76.6806 58.7116 78.6536 60.7974L80.5424 59.0106ZM78.378 52.416V45.216H75.778V52.416H78.378ZM77.078 46.516H81.65V43.916H77.078V46.516ZM80.35 45.216V52.308H82.95V45.216H80.35ZM80.35 52.308C80.35 54.3071 80.8081 56.0488 81.9538 57.2927L83.8662 55.5313C83.3319 54.9512 82.95 53.9569 82.95 52.308H80.35ZM81.9425 57.2803C83.1172 58.5893 84.8454 59.116 86.834 59.116V56.516C85.2706 56.516 84.3828 56.1067 83.8775 55.5437L81.9425 57.2803ZM86.834 59.116H89.606V56.516H86.834V59.116ZM89.606 59.116C91.4271 59.116 92.99 58.8892 94.142 58.2974C94.7369 57.9918 95.2567 57.571 95.624 57.0049C95.9956 56.4323 96.162 55.7864 96.162 55.116H93.562C93.562 55.3456 93.5094 55.4872 93.443 55.5896C93.3724 55.6985 93.2351 55.8402 92.954 55.9847C92.354 56.2928 91.2889 56.516 89.606 56.516V59.116ZM96.162 55.116C96.162 54.4133 95.9771 53.5926 95.2892 53.0299L93.6428 55.0421C93.6115 55.0165 93.5863 54.9881 93.568 54.9615C93.5502 54.9356 93.5434 54.9179 93.5425 54.9155C93.5418 54.9138 93.547 54.9274 93.5522 54.9613C93.5574 54.9954 93.562 55.046 93.562 55.116H96.162ZM95.2306 52.9846C94.6243 52.5437 93.8449 52.448 93.17 52.448V55.048C93.4063 55.048 93.5647 55.0674 93.662 55.089C93.7622 55.1113 93.7552 55.1265 93.7014 55.0874L95.2306 52.9846ZM93.17 52.448H86.87V55.048H93.17V52.448ZM88.1642 53.8713L88.5962 49.3353L86.0079 49.0887L85.5759 53.6247L88.1642 53.8713ZM87.302 50.512H102.35V47.912H87.302V50.512ZM105.034 48.744L105.885 49.7264L105.89 49.7223L105.034 48.744ZM105.61 30.816V29.516H104.31V30.816H105.61ZM110.218 30.816H111.518V29.516H110.218V30.816ZM108.454 52.308L109.354 53.2462L109.364 53.2367L108.454 52.308ZM103.63 50.512C104.45 50.512 105.242 50.284 105.885 49.7264L104.183 47.7616C104.106 47.828 103.962 47.912 103.63 47.912V50.512ZM105.89 49.7223C106.594 49.1061 106.91 48.273 106.91 47.376H104.31C104.31 47.631 104.242 47.7099 104.178 47.7656L105.89 49.7223ZM106.91 47.376V30.816H104.31V47.376H106.91ZM105.61 32.116H110.218V29.516H105.61V32.116ZM108.918 30.816V47.592H111.518V30.816H108.918ZM108.918 47.592C108.918 49.3132 108.42 50.5219 107.544 51.3793L109.364 53.2367C110.84 51.7901 111.518 49.8548 111.518 47.592H108.918ZM107.554 51.3698C106.675 52.2135 105.43 52.7 103.666 52.7V55.3C105.934 55.3 107.881 54.6585 109.354 53.2462L107.554 51.3698ZM103.666 52.7H102.334V55.3H103.666V52.7ZM102.334 52.7C102.687 52.7 102.961 52.8526 103.127 53.0046C103.272 53.1375 103.336 53.2666 103.354 53.3042C103.387 53.3763 103.372 53.3769 103.348 53.2233C103.304 52.9423 103.274 52.4483 103.274 51.696H100.674C100.674 52.4797 100.703 53.1377 100.78 53.6247C100.816 53.8551 100.876 54.1437 100.999 54.4078C101.086 54.5932 101.462 55.3 102.334 55.3V52.7ZM103.274 51.696C103.274 50.8825 103.304 50.3377 103.351 50.0195C103.376 49.8472 103.393 49.8286 103.369 49.8856C103.356 49.9137 103.3 50.0408 103.162 50.1766C103.004 50.3324 102.72 50.512 102.334 50.512V47.912C101.411 47.912 101.049 48.701 100.984 48.8489C100.87 49.1129 100.812 49.4048 100.777 49.6465C100.704 50.1563 100.674 50.8535 100.674 51.696H103.274ZM102.334 50.512H103.63V47.912H102.334V50.512ZM123.391 49.68L122.106 49.8777L122.114 49.9253L122.124 49.9723L123.391 49.68ZM123.391 53.568L122.13 53.2527L122.117 53.3031L122.109 53.3543L123.391 53.568ZM117.235 52.272L116.258 53.1295L116.267 53.1401L116.277 53.1504L117.235 52.272ZM115.687 30.816V29.516H114.387V30.816H115.687ZM120.295 30.816H121.595V29.516H120.295V30.816ZM120.727 48.672L119.687 49.452L119.715 49.4887L119.745 49.5234L120.727 48.672ZM123.139 50.512C122.863 50.512 122.617 50.4149 122.433 50.2739C122.267 50.1474 122.183 50.0108 122.148 49.9453C122.085 49.8284 122.09 49.7723 122.106 49.8777L124.676 49.4823C124.644 49.2757 124.584 48.9856 124.437 48.7127C124.288 48.436 123.886 47.912 123.139 47.912V50.512ZM122.124 49.9723C122.157 50.1135 122.199 50.6305 122.199 51.696H124.799C124.799 50.6975 124.769 49.8705 124.658 49.3877L122.124 49.9723ZM122.199 51.696C122.199 52.1627 122.19 52.5315 122.174 52.8091C122.166 52.9477 122.157 53.0554 122.147 53.1361C122.137 53.2215 122.129 53.2547 122.13 53.2527L124.652 53.8833C124.77 53.4113 124.799 52.6193 124.799 51.696H122.199ZM122.109 53.3543C122.094 53.4416 122.093 53.367 122.169 53.237C122.212 53.1633 122.304 53.0299 122.473 52.9109C122.657 52.7808 122.889 52.7 123.139 52.7V55.3C123.833 55.3 124.242 54.8445 124.415 54.547C124.575 54.273 124.64 53.9824 124.673 53.7817L122.109 53.3543ZM123.139 52.7H121.843V55.3H123.139V52.7ZM121.843 52.7C120.08 52.7 118.937 52.2042 118.193 51.3936L116.277 53.1504C117.646 54.6438 119.575 55.3 121.843 55.3V52.7ZM118.212 51.4145C117.456 50.5527 116.987 49.2326 116.987 47.268H114.387C114.387 49.6234 114.95 51.6393 116.258 53.1295L118.212 51.4145ZM116.987 47.268V30.816H114.387V47.268H116.987ZM115.687 32.116H120.295V29.516H115.687V32.116ZM118.995 30.816V46.944H121.595V30.816H118.995ZM118.995 46.944C118.995 47.837 119.156 48.7438 119.687 49.452L121.767 47.892C121.722 47.8322 121.595 47.587 121.595 46.944H118.995ZM119.745 49.5234C120.384 50.2608 121.285 50.512 122.167 50.512V47.912C121.96 47.912 121.839 47.8827 121.778 47.8598C121.725 47.84 121.713 47.8243 121.71 47.8206L119.745 49.5234ZM122.167 50.512H123.139V47.912H122.167V50.512ZM128.33 49.212V50.512H132.951L129.008 48.1027L128.33 49.212ZM126.386 47.376L125.255 48.0169L125.268 48.0395L125.282 48.0616L126.386 47.376ZM126.71 41.112L127.842 41.7517L127.842 41.7517L126.71 41.112ZM129.302 38.52L129.942 39.6517L129.951 39.6465L129.961 39.6411L129.302 38.52ZM138.482 39.672L137.515 40.5408L137.524 40.5497L138.482 39.672ZM137.942 52.2L137.18 51.1473L137.172 51.1527L137.942 52.2ZM135.062 48.852L134.626 50.0766L135.419 50.3589L136.001 49.7515L135.062 48.852ZM131.102 42.912L130.183 41.9928L130.183 41.9928L131.102 42.912ZM131.39 47.016L130.523 47.9839L130.532 47.9924L130.542 48.0006L131.39 47.016ZM138.122 30.168H139.422V28.868H138.122V30.168ZM138.122 34.272V35.572H139.422V34.272H138.122ZM127.97 34.272H126.67V35.572H127.97V34.272ZM127.97 30.168V28.868H126.67V30.168H127.97ZM129.008 48.1027C128.278 47.6561 127.794 47.1778 127.491 46.6904L125.282 48.0616C125.843 48.9662 126.655 49.7119 127.653 50.3213L129.008 48.1027ZM127.518 46.7351C127.242 46.249 127.074 45.6161 127.074 44.784H124.474C124.474 45.9679 124.715 47.063 125.255 48.0169L127.518 46.7351ZM127.074 44.784C127.074 43.6503 127.335 42.6488 127.842 41.7517L125.579 40.4723C124.838 41.7832 124.474 43.2297 124.474 44.784H127.074ZM127.842 41.7517C128.35 40.8534 129.044 40.1595 129.942 39.6517L128.663 37.3883C127.353 38.1285 126.319 39.1626 125.579 40.4723L127.842 41.7517ZM129.961 39.6411C130.848 39.1204 131.865 38.848 133.046 38.848V36.248C131.444 36.248 129.965 36.6236 128.644 37.3989L129.961 39.6411ZM133.046 38.848C135.123 38.848 136.546 39.462 137.515 40.5407L139.45 38.8033C137.875 37.05 135.674 36.248 133.046 36.248V38.848ZM137.524 40.5497C138.541 41.6611 139.126 43.2686 139.126 45.54H141.726C141.726 42.8194 141.016 40.5149 139.441 38.7943L137.524 40.5497ZM139.126 45.54V46.764H141.726V45.54H139.126ZM139.126 46.764C139.126 48.859 138.433 50.2391 137.18 51.1473L138.705 53.2527C140.764 51.7609 141.726 49.517 141.726 46.764H139.126ZM137.172 51.1527C135.86 52.1173 133.76 52.7 130.67 52.7V55.3C134.013 55.3 136.761 54.6827 138.713 53.2473L137.172 51.1527ZM130.67 52.7H123.146V55.3H130.67V52.7ZM123.146 52.7C123.5 52.7 123.773 52.8526 123.939 53.0046C124.085 53.1375 124.148 53.2666 124.166 53.3042C124.2 53.3763 124.185 53.3769 124.161 53.2233C124.117 52.9423 124.086 52.4483 124.086 51.696H121.486C121.486 52.4797 121.516 53.1377 121.592 53.6247C121.628 53.8551 121.688 54.1437 121.812 54.4078C121.899 54.5932 122.275 55.3 123.146 55.3V52.7ZM124.086 51.696C124.086 50.8825 124.117 50.3377 124.163 50.0195C124.188 49.8472 124.206 49.8286 124.181 49.8856C124.169 49.9137 124.113 50.0408 123.975 50.1766C123.817 50.3324 123.533 50.512 123.146 50.512V47.912C122.223 47.912 121.861 48.701 121.797 48.8489C121.682 49.1129 121.625 49.4048 121.59 49.6465C121.516 50.1563 121.486 50.8535 121.486 51.696H124.086ZM123.146 50.512H127.25V47.912H123.146V50.512ZM127.25 50.512H128.33V47.912H127.25V50.512ZM136.001 49.7515C136.871 48.8442 137.19 47.5989 137.19 46.26H134.59C134.59 47.2251 134.358 47.7078 134.124 47.9525L136.001 49.7515ZM137.19 46.26V45.72H134.59V46.26H137.19ZM137.19 45.72C137.19 44.3811 136.928 43.1364 136.186 42.2079C135.399 41.224 134.257 40.82 133.01 40.82V43.42C133.684 43.42 133.982 43.616 134.155 43.8321C134.373 44.1036 134.59 44.6589 134.59 45.72H137.19ZM133.01 40.82C131.92 40.82 130.954 41.222 130.183 41.9928L132.022 43.8312C132.307 43.546 132.613 43.42 133.01 43.42V40.82ZM130.183 41.9928C129.424 42.7522 129.046 43.7121 129.046 44.784H131.646C131.646 44.3679 131.773 44.0798 132.022 43.8312L130.183 41.9928ZM129.046 44.784C129.046 46.0501 129.577 47.136 130.523 47.9839L132.258 46.0481C131.812 45.648 131.646 45.2459 131.646 44.784H129.046ZM130.542 48.0006C131.429 48.7658 132.846 49.4425 134.626 50.0766L135.499 47.6274C133.775 47.0135 132.744 46.4662 132.239 46.0314L130.542 48.0006ZM136.822 30.168V34.272H139.422V30.168H136.822ZM138.122 32.972H127.97V35.572H138.122V32.972ZM129.27 34.272V30.168H126.67V34.272H129.27ZM127.97 31.468H138.122V28.868H127.97V31.468ZM167.951 48.636L166.919 49.4257L166.93 49.4409L166.942 49.4558L167.951 48.636ZM170.723 49.68L169.438 49.8777L169.446 49.9253L169.457 49.9723L170.723 49.68ZM170.723 53.568L169.462 53.2527L169.45 53.3031L169.441 53.3543L170.723 53.568ZM166.079 53.352L165.459 54.4945L165.478 54.505L165.498 54.5148L166.079 53.352ZM164.315 51.156L165.549 50.7449L164.937 48.9107L163.469 50.169L164.315 51.156ZM162.335 52.128L162.642 53.3914L162.655 53.3882L162.668 53.3847L162.335 52.128ZM154.883 50.652L153.936 51.5424L153.945 51.5521L153.955 51.5617L154.883 50.652ZM154.091 41.58L152.943 40.9707L152.938 40.9795L154.091 41.58ZM156.683 38.772L157.377 39.8717L157.383 39.8678L156.683 38.772ZM162.911 37.692V38.992H164.211V37.692H162.911ZM162.911 35.352V34.052H161.611V35.352H162.911ZM167.483 35.352H168.783V34.052H167.483V35.352ZM158.267 47.088L157.293 47.9481L157.319 47.9785L157.348 48.0072L158.267 47.088ZM162.191 47.196L162.9 48.286L162.906 48.2819L162.912 48.2777L162.191 47.196ZM162.947 42.264H164.247V40.964H162.947V42.264ZM166.183 46.728C166.183 47.7005 166.35 48.6821 166.919 49.4257L168.984 47.8463C168.929 47.7739 168.783 47.4835 168.783 46.728H166.183ZM166.942 49.4558C167.564 50.2207 168.451 50.512 169.355 50.512V47.912C169.174 47.912 169.075 47.8839 169.03 47.8653C168.992 47.8499 168.976 47.8356 168.96 47.8162L166.942 49.4558ZM169.355 50.512H170.471V47.912H169.355V50.512ZM170.471 50.512C170.195 50.512 169.949 50.4149 169.765 50.2739C169.599 50.1474 169.515 50.0108 169.48 49.9453C169.417 49.8284 169.422 49.7723 169.438 49.8777L172.008 49.4823C171.976 49.2757 171.916 48.9856 171.769 48.7127C171.62 48.436 171.218 47.912 170.471 47.912V50.512ZM169.457 49.9723C169.489 50.1135 169.531 50.6305 169.531 51.696H172.131C172.131 50.6975 172.101 49.8705 171.99 49.3877L169.457 49.9723ZM169.531 51.696C169.531 52.1627 169.522 52.5315 169.506 52.8091C169.498 52.9476 169.489 53.0554 169.48 53.1361C169.469 53.2215 169.462 53.2547 169.462 53.2527L171.984 53.8833C172.102 53.4113 172.131 52.6193 172.131 51.696H169.531ZM169.441 53.3543C169.426 53.4416 169.426 53.367 169.501 53.237C169.544 53.1633 169.636 53.0299 169.805 52.9109C169.989 52.7808 170.222 52.7 170.471 52.7V55.3C171.165 55.3 171.574 54.8445 171.747 54.547C171.907 54.273 171.972 53.9824 172.006 53.7817L169.441 53.3543ZM170.471 52.7H169.319V55.3H170.471V52.7ZM169.319 52.7C168.159 52.7 167.293 52.5056 166.661 52.1892L165.498 54.5148C166.593 55.0624 167.887 55.3 169.319 55.3V52.7ZM166.7 52.2095C166.182 51.9288 165.793 51.478 165.549 50.7449L163.082 51.5671C163.51 52.85 164.296 53.8632 165.459 54.4945L166.7 52.2095ZM163.469 50.169C163.149 50.4438 162.679 50.6922 162.003 50.8713L162.668 53.3847C163.623 53.1318 164.474 52.7322 165.161 52.143L163.469 50.169ZM162.029 50.8646C161.343 51.0309 160.618 51.116 159.851 51.116V53.716C160.812 53.716 161.743 53.6091 162.642 53.3914L162.029 50.8646ZM159.851 51.116C157.927 51.116 156.65 50.5977 155.812 49.7423L153.955 51.5617C155.421 53.0583 157.456 53.716 159.851 53.716V51.116ZM155.831 49.7616C155.01 48.889 154.491 47.4865 154.491 45.324H151.891C151.891 47.8655 152.5 50.015 153.936 51.5424L155.831 49.7616ZM154.491 45.324C154.491 44.1816 154.744 43.1405 155.244 42.1805L152.938 40.9795C152.238 42.3235 151.891 43.7784 151.891 45.324H154.491ZM155.24 42.1893C155.76 41.2095 156.468 40.4442 157.377 39.8717L155.99 37.6723C154.69 38.4918 153.671 39.5985 152.943 40.9707L155.24 42.1893ZM157.383 39.8678C158.286 39.2914 159.323 38.992 160.535 38.992V36.392C158.867 36.392 157.337 36.8126 155.984 37.6762L157.383 39.8678ZM160.535 38.992H162.911V36.392H160.535V38.992ZM164.211 37.692V35.352H161.611V37.692H164.211ZM162.911 36.652H167.483V34.052H162.911V36.652ZM166.183 35.352V46.728H168.783V35.352H166.183ZM156.427 45.288C156.427 46.2551 156.645 47.2144 157.293 47.9481L159.242 46.2279C159.169 46.1456 159.027 45.9049 159.027 45.288H156.427ZM157.348 48.0072C158.081 48.74 159.103 48.964 160.103 48.964V46.364C159.424 46.364 159.222 46.204 159.187 46.1688L157.348 48.0072ZM160.103 48.964C161.131 48.964 162.118 48.7941 162.9 48.286L161.483 46.106C161.305 46.2219 160.9 46.364 160.103 46.364V48.964ZM162.912 48.2777C163.774 47.7033 164.247 46.8316 164.247 45.792H161.647C161.647 45.905 161.625 45.9554 161.614 45.9767C161.602 45.9985 161.57 46.0478 161.47 46.1143L162.912 48.2777ZM164.247 45.792V42.264H161.647V45.792H164.247ZM162.947 40.964H160.607V43.564H162.947V40.964ZM160.607 40.964C159.43 40.964 158.313 41.2761 157.506 42.1234C156.71 42.9589 156.427 44.095 156.427 45.288H159.027C159.027 44.465 159.224 44.0891 159.389 43.9166C159.542 43.7559 159.864 43.564 160.607 43.564V40.964ZM176.083 48.744L176.934 49.7264L176.939 49.7223L176.083 48.744ZM176.659 41.616V40.316H175.359V41.616H176.659ZM181.231 41.616H182.531V40.316H181.231V41.616ZM178.927 52.272L180.029 51.583L179.003 49.9412L177.872 51.5124L178.927 52.272ZM177.199 53.604L177.66 54.8195L177.671 54.8154L177.682 54.811L177.199 53.604ZM182.275 33.768H183.575V32.468H182.275V33.768ZM182.275 37.872V39.172H183.575V37.872H182.275ZM172.123 37.872H170.823V39.172H172.123V37.872ZM172.123 33.768V32.468H170.823V33.768H172.123ZM174.643 50.512C175.472 50.512 176.281 50.2921 176.934 49.7264L175.231 47.7616C175.164 47.8199 175.014 47.912 174.643 47.912V50.512ZM176.939 49.7223C177.643 49.1061 177.959 48.273 177.959 47.376H175.359C175.359 47.631 175.29 47.7099 175.227 47.7656L176.939 49.7223ZM177.959 47.376V41.616H175.359V47.376H177.959ZM176.659 42.916H181.231V40.316H176.659V42.916ZM179.931 41.616V47.232H182.531V41.616H179.931ZM179.931 47.232C179.931 48.0984 180.153 48.9856 180.824 49.6445C181.49 50.2991 182.38 50.512 183.247 50.512V47.912C182.769 47.912 182.651 47.7949 182.646 47.7895C182.645 47.7884 182.531 47.6856 182.531 47.232H179.931ZM183.247 50.512H184.615V47.912H183.247V50.512ZM184.615 50.512C184.242 50.512 183.962 50.3434 183.8 50.1888C183.659 50.054 183.6 49.9259 183.586 49.894C183.558 49.831 183.574 49.842 183.599 50.0069C183.644 50.3104 183.675 50.8349 183.675 51.624H186.275C186.275 50.8051 186.245 50.1236 186.171 49.6231C186.135 49.386 186.077 49.0955 185.959 48.8315C185.886 48.6683 185.518 47.912 184.615 47.912V50.512ZM183.675 51.624C183.675 52.4008 183.644 52.9152 183.599 53.2113C183.575 53.3724 183.559 53.3795 183.589 53.3136C183.604 53.2798 183.665 53.1513 183.807 53.017C183.971 52.8632 184.248 52.7 184.615 52.7V55.3C185.508 55.3 185.878 54.5602 185.956 54.3894C186.076 54.1255 186.135 53.8356 186.17 53.6007C186.245 53.1048 186.275 52.4312 186.275 51.624H183.675ZM184.615 52.7H183.031V55.3H184.615V52.7ZM183.031 52.7C181.23 52.7 180.41 52.192 180.029 51.583L177.824 52.961C178.884 54.656 180.8 55.3 183.031 55.3V52.7ZM177.872 51.5124C177.591 51.9019 177.218 52.196 176.716 52.397L177.682 54.811C178.619 54.436 179.398 53.8421 179.982 53.0316L177.872 51.5124ZM176.738 52.3885C176.231 52.5807 175.545 52.7 174.643 52.7V55.3C175.756 55.3 176.775 55.1553 177.66 54.8195L176.738 52.3885ZM174.643 52.7H170.467V55.3H174.643V52.7ZM170.467 52.7C170.82 52.7 171.093 52.8526 171.26 53.0046C171.405 53.1375 171.469 53.2666 171.486 53.3042C171.52 53.3763 171.505 53.3769 171.481 53.2233C171.437 52.9423 171.407 52.4483 171.407 51.696H168.807C168.807 52.4797 168.836 53.1377 168.912 53.6247C168.948 53.8551 169.008 54.1437 169.132 54.4078C169.219 54.5932 169.595 55.3 170.467 55.3V52.7ZM171.407 51.696C171.407 50.8825 171.437 50.3377 171.483 50.0195C171.508 49.8472 171.526 49.8286 171.501 49.8856C171.489 49.9137 171.433 50.0408 171.295 50.1766C171.137 50.3324 170.853 50.512 170.467 50.512V47.912C169.543 47.912 169.181 48.701 169.117 48.8489C169.002 49.1129 168.945 49.4048 168.91 49.6465C168.836 50.1563 168.807 50.8535 168.807 51.696H171.407ZM170.467 50.512H174.643V47.912H170.467V50.512ZM180.975 33.768V37.872H183.575V33.768H180.975ZM182.275 36.572H172.123V39.172H182.275V36.572ZM173.423 37.872V33.768H170.823V37.872H173.423ZM172.123 35.068H182.275V32.468H172.123V35.068ZM202.492 41.724L201.338 42.3238L201.343 42.3333L202.492 41.724ZM204.184 46.8L204.88 47.8975L205.655 47.4055L205.451 46.5107L204.184 46.8ZM201.916 48.24L201.219 47.1425L200.077 47.8677L200.847 48.98L201.916 48.24ZM202.96 48.96L203.389 47.733L203.389 47.733L202.96 48.96ZM207.064 53.604L208.318 53.946L208.321 53.9327L208.325 53.9193L207.064 53.604ZM201.016 53.208L200.351 54.3254L200.358 54.3293L200.364 54.3331L201.016 53.208ZM198.604 50.508L199.735 49.8676L199.063 48.6803L197.909 49.4089L198.604 50.508ZM197.236 51.372L197.919 52.4781L197.93 52.4711L197.236 51.372ZM192.556 53.46L192.861 54.7235L192.871 54.7212L192.88 54.7188L192.556 53.46ZM191.764 48.852L191.509 47.5772L191.504 47.5783L191.764 48.852ZM195.472 47.412L196.112 48.5433L196.115 48.5415L195.472 47.412ZM198.82 45.504L199.463 46.6335L200.331 46.139L200.077 45.1732L198.82 45.504ZM197.74 43.668L196.968 44.7146L196.999 44.7372L197.031 44.758L197.74 43.668ZM187.408 43.164L186.116 43.0172L185.952 44.464H187.408V43.164ZM187.948 38.412V37.112H186.787L186.656 38.2652L187.948 38.412ZM191.656 34.776H190.356V36.076H191.656V34.776ZM191.656 30.672V29.372H190.356V30.672H191.656ZM196.552 30.672H197.852V29.372H196.552V30.672ZM196.552 34.776V36.076H197.852V34.776H196.552ZM196.516 39.712C197.87 39.712 198.849 39.9432 199.535 40.3126L200.768 38.0234C199.582 37.3848 198.137 37.112 196.516 37.112V39.712ZM199.535 40.3126C200.186 40.6632 200.802 41.2923 201.338 42.3238L203.645 41.1242C202.933 39.7557 201.989 38.6808 200.768 38.0234L199.535 40.3126ZM201.343 42.3333C201.889 43.3622 202.423 44.9266 202.916 47.0893L205.451 46.5107C204.937 44.2574 204.342 42.4378 203.64 41.1147L201.343 42.3333ZM203.487 45.7025L201.219 47.1425L202.612 49.3375L204.88 47.8975L203.487 45.7025ZM200.847 48.98C201.264 49.5834 201.878 49.9588 202.53 50.187L203.389 47.733C203.081 47.6252 202.999 47.5206 202.984 47.5L200.847 48.98ZM202.53 50.187C203.18 50.4145 203.896 50.512 204.652 50.512V47.912C204.112 47.912 203.699 47.8415 203.389 47.733L202.53 50.187ZM204.652 50.512H206.812V47.912H204.652V50.512ZM206.812 50.512C206.425 50.512 206.141 50.3324 205.983 50.1766C205.846 50.0408 205.789 49.9137 205.777 49.8856C205.752 49.8286 205.77 49.8472 205.795 50.0195C205.841 50.3377 205.872 50.8825 205.872 51.696H208.472C208.472 50.8535 208.442 50.1563 208.368 49.6465C208.333 49.4048 208.276 49.1129 208.161 48.8489C208.097 48.701 207.735 47.912 206.812 47.912V50.512ZM205.872 51.696C205.872 52.1751 205.863 52.5534 205.847 52.8375C205.839 52.9794 205.829 53.0895 205.82 53.1718C205.809 53.2592 205.802 53.2921 205.802 53.2887L208.325 53.9193C208.443 53.4464 208.472 52.6404 208.472 51.696H205.872ZM205.809 53.262C205.786 53.3473 205.788 53.2998 205.85 53.2031C205.892 53.1374 206.188 52.7 206.812 52.7V55.3C207.531 55.3 207.918 54.7966 208.043 54.5989C208.189 54.3702 208.269 54.1247 208.318 53.946L205.809 53.262ZM206.812 52.7H204.4V55.3H206.812V52.7ZM204.4 52.7C203.223 52.7 202.334 52.4689 201.667 52.0829L200.364 54.3331C201.522 55.0031 202.889 55.3 204.4 55.3V52.7ZM201.68 52.0906C201.051 51.7165 200.387 51.0199 199.735 49.8676L197.472 51.1484C198.26 52.5401 199.204 53.6435 200.351 54.3254L201.68 52.0906ZM197.909 49.4089L196.541 50.2729L197.93 52.4711L199.298 51.6071L197.909 49.4089ZM196.552 50.266C195.005 51.2216 193.566 51.8568 192.231 52.2012L192.88 54.7188C194.522 54.2952 196.202 53.5384 197.919 52.478L196.552 50.266ZM192.25 52.1965C190.894 52.5244 189.168 52.7 187.048 52.7V55.3C189.295 55.3 191.241 55.1156 192.861 54.7235L192.25 52.1965ZM187.048 52.7H184.6V55.3H187.048V52.7ZM184.6 52.7C184.953 52.7 185.226 52.8526 185.392 53.0046C185.538 53.1375 185.602 53.2666 185.619 53.3042C185.653 53.3763 185.638 53.3769 185.614 53.2233C185.57 52.9423 185.54 52.4483 185.54 51.696H182.94C182.94 52.4797 182.969 53.1377 183.045 53.6247C183.081 53.8551 183.141 54.1437 183.265 54.4078C183.352 54.5932 183.728 55.3 184.6 55.3V52.7ZM185.54 51.696C185.54 50.8825 185.57 50.3377 185.616 50.0195C185.641 49.8472 185.659 49.8286 185.634 49.8856C185.622 49.9137 185.566 50.0408 185.428 50.1766C185.27 50.3324 184.986 50.512 184.6 50.512V47.912C183.676 47.912 183.314 48.701 183.25 48.8489C183.135 49.1129 183.078 49.4048 183.043 49.6465C182.969 50.1563 182.94 50.8535 182.94 51.696H185.54ZM184.6 50.512H187.264V47.912H184.6V50.512ZM187.264 50.512C189.135 50.512 190.73 50.3897 192.024 50.1257L191.504 47.5783C190.445 47.7943 189.04 47.912 187.264 47.912V50.512ZM192.019 50.1268C193.377 49.855 194.743 49.3185 196.112 48.5433L194.831 46.2807C193.657 46.9455 192.55 47.369 191.509 47.5772L192.019 50.1268ZM196.115 48.5415L199.463 46.6335L198.176 44.3745L194.828 46.2825L196.115 48.5415ZM200.077 45.1732C199.804 44.1383 199.328 43.1497 198.448 42.578L197.031 44.758C197.112 44.8103 197.355 45.0457 197.562 45.8348L200.077 45.1732ZM198.511 42.6214C197.728 42.0443 196.7 41.864 195.652 41.864V44.464C196.475 44.464 196.84 44.6197 196.968 44.7146L198.511 42.6214ZM195.652 41.864H187.408V44.464H195.652V41.864ZM188.699 43.3108L189.239 38.5588L186.656 38.2652L186.116 43.0172L188.699 43.3108ZM187.948 39.712H196.516V37.112H187.948V39.712ZM192.956 34.776V30.672H190.356V34.776H192.956ZM191.656 31.972H196.552V29.372H191.656V31.972ZM195.252 30.672V34.776H197.852V30.672H195.252ZM196.552 33.476H191.656V36.076H196.552V33.476ZM215.134 52.308L216.034 53.2462L216.035 53.2458L215.134 52.308ZM211.786 48.744L212.638 49.7264L212.642 49.7223L211.786 48.744ZM212.362 41.616V40.316H211.062V41.616H212.362ZM216.934 41.616H218.234V40.316H216.934V41.616ZM217.798 33.768H219.098V32.468H217.798V33.768ZM217.798 37.872V39.172H219.098V37.872H217.798ZM207.646 37.872H206.346V39.172H207.646V37.872ZM207.646 33.768V32.468H206.346V33.768H207.646ZM215.634 47.592C215.634 49.3054 215.129 50.511 214.234 51.3702L216.035 53.2458C217.54 51.801 218.234 49.8626 218.234 47.592H215.634ZM214.234 51.3698C213.355 52.2135 212.111 52.7 210.346 52.7V55.3C212.614 55.3 214.562 54.6585 216.034 53.2462L214.234 51.3698ZM210.346 52.7H206.818V55.3H210.346V52.7ZM206.818 52.7C207.172 52.7 207.445 52.8526 207.611 53.0046C207.757 53.1375 207.82 53.2666 207.838 53.3042C207.872 53.3763 207.857 53.3769 207.833 53.2233C207.789 52.9423 207.758 52.4483 207.758 51.696H205.158C205.158 52.4797 205.188 53.1377 205.264 53.6247C205.3 53.8551 205.36 54.1437 205.484 54.4078C205.571 54.5932 205.947 55.3 206.818 55.3V52.7ZM207.758 51.696C207.758 50.8825 207.789 50.3377 207.835 50.0195C207.86 49.8472 207.878 49.8286 207.853 49.8856C207.841 49.9137 207.784 50.0408 207.647 50.1766C207.489 50.3324 207.205 50.512 206.818 50.512V47.912C205.895 47.912 205.533 48.701 205.469 48.8489C205.354 49.1129 205.297 49.4048 205.262 49.6465C205.188 50.1563 205.158 50.8535 205.158 51.696H207.758ZM206.818 50.512H210.346V47.912H206.818V50.512ZM210.346 50.512C211.175 50.512 211.985 50.2921 212.638 49.7264L210.935 47.7616C210.868 47.8199 210.717 47.912 210.346 47.912V50.512ZM212.642 49.7223C213.347 49.1061 213.662 48.273 213.662 47.376H211.062C211.062 47.631 210.994 47.7099 210.93 47.7656L212.642 49.7223ZM213.662 47.376V41.616H211.062V47.376H213.662ZM212.362 42.916H216.934V40.316H212.362V42.916ZM215.634 41.616V47.592H218.234V41.616H215.634ZM216.498 33.768V37.872H219.098V33.768H216.498ZM217.798 36.572H207.646V39.172H217.798V36.572ZM208.946 37.872V33.768H206.346V37.872H208.946ZM207.646 35.068H217.798V32.468H207.646V35.068ZM238.547 48.852L239.268 49.9337L239.268 49.9337L238.547 48.852ZM238.691 46.26L237.462 46.6826L237.466 46.6947L238.691 46.26ZM236.675 40.644L237.897 40.2005L237.897 40.1997L236.675 40.644ZM235.343 37.08L234.786 35.9055L233.705 36.4185L234.127 37.5382L235.343 37.08ZM239.591 35.064L240.817 34.6306L240.336 33.2715L239.034 33.8895L239.591 35.064ZM243.767 46.872L244.997 46.4504L244.993 46.4386L243.767 46.872ZM244.739 48.672L243.82 49.5912L243.835 49.6061L243.85 49.6204L244.739 48.672ZM247.439 53.604L248.693 53.946L248.697 53.9327L248.7 53.9193L247.439 53.604ZM243.371 53.568L242.854 54.7608L242.871 54.7682L242.888 54.775L243.371 53.568ZM241.607 52.092L242.683 51.362L241.607 49.7768L240.532 51.362L241.607 52.092ZM239.843 53.568L240.34 54.7692L240.35 54.7651L240.36 54.7608L239.843 53.568ZM229.043 54L227.747 54.0975L227.837 55.3H229.043V54ZM228.683 49.212V47.912H227.282L227.387 49.3095L228.683 49.212ZM237.107 50.512C237.868 50.512 238.627 50.3613 239.268 49.9337L237.826 47.7703C237.748 47.8227 237.547 47.912 237.107 47.912V50.512ZM239.268 49.9337C239.989 49.453 240.387 48.7115 240.387 47.844H237.787C237.787 47.8615 237.786 47.8633 237.788 47.8534C237.79 47.8427 237.796 47.8256 237.806 47.8061C237.817 47.7866 237.828 47.7727 237.835 47.7649C237.842 47.7576 237.841 47.7604 237.826 47.7703L239.268 49.9337ZM240.387 47.844C240.387 47.2813 240.177 46.5588 239.916 45.8253L237.466 46.6947C237.59 47.0433 237.675 47.3192 237.727 47.5293C237.783 47.7544 237.787 47.8447 237.787 47.844H240.387ZM239.921 45.8374C239.652 45.0566 238.976 43.1728 237.897 40.2005L235.453 41.0875C236.535 44.0672 237.202 45.9274 237.462 46.6826L239.921 45.8374ZM237.897 40.1997C237.702 39.6633 237.255 38.4678 236.56 36.6218L234.127 37.5382C234.823 39.3882 235.265 40.5687 235.454 41.0883L237.897 40.1997ZM235.901 38.2545L240.149 36.2385L239.034 33.8895L234.786 35.9055L235.901 38.2545ZM238.366 35.4974L242.542 47.3054L244.993 46.4386L240.817 34.6306L238.366 35.4974ZM242.538 47.2936C242.849 48.2012 243.252 49.023 243.82 49.5912L245.659 47.7528C245.507 47.601 245.262 47.2228 244.997 46.4504L242.538 47.2936ZM243.85 49.6204C244.519 50.2472 245.362 50.512 246.251 50.512V47.912C245.892 47.912 245.728 47.8168 245.628 47.7236L243.85 49.6204ZM246.251 50.512H247.187V47.912H246.251V50.512ZM247.187 50.512C246.801 50.512 246.517 50.3324 246.359 50.1766C246.221 50.0408 246.165 49.9137 246.153 49.8856C246.128 49.8286 246.146 49.8472 246.171 50.0195C246.217 50.3377 246.247 50.8825 246.247 51.696H248.847C248.847 50.8535 248.818 50.1563 248.744 49.6465C248.709 49.4048 248.652 49.1129 248.537 48.8489C248.473 48.701 248.111 47.912 247.187 47.912V50.512ZM246.247 51.696C246.247 52.1751 246.238 52.5534 246.222 52.8375C246.214 52.9794 246.205 53.0895 246.195 53.1718C246.185 53.2592 246.177 53.2921 246.178 53.2887L248.7 53.9193C248.819 53.4464 248.847 52.6404 248.847 51.696H246.247ZM246.185 53.262C246.162 53.3473 246.164 53.2998 246.226 53.2031C246.267 53.1374 246.564 52.7 247.187 52.7V55.3C247.907 55.3 248.293 54.7966 248.419 54.5989C248.565 54.3702 248.645 54.1247 248.693 53.946L246.185 53.262ZM247.187 52.7H246.035V55.3H247.187V52.7ZM246.035 52.7C245.089 52.7 244.376 52.5697 243.854 52.361L242.888 54.775C243.807 55.1423 244.87 55.3 246.035 55.3V52.7ZM243.888 52.3752C243.403 52.1648 243.006 51.8374 242.683 51.362L240.532 52.822C241.121 53.6906 241.9 54.3472 242.854 54.7608L243.888 52.3752ZM240.532 51.362C240.209 51.8374 239.812 52.1648 239.326 52.3752L240.36 54.7608C241.315 54.3472 242.094 53.6906 242.683 52.822L240.532 51.362ZM239.346 52.3668C238.855 52.5702 238.172 52.7 237.251 52.7V55.3C238.395 55.3 239.44 55.1418 240.34 54.7692L239.346 52.3668ZM237.251 52.7H229.043V55.3H237.251V52.7ZM230.34 53.9025L229.98 49.1145L227.387 49.3095L227.747 54.0975L230.34 53.9025ZM228.683 50.512H237.107V47.912H228.683V50.512ZM252.794 48.744L253.645 49.7264L253.65 49.7223L252.794 48.744ZM253.37 41.616V40.316H252.07V41.616H253.37ZM257.942 41.616H259.242V40.316H257.942V41.616ZM255.638 52.272L256.74 51.583L255.714 49.9412L254.583 51.5124L255.638 52.272ZM253.91 53.604L254.371 54.8195L254.382 54.8154L254.393 54.811L253.91 53.604ZM251.462 37.872H250.162V39.172H251.462V37.872ZM251.462 33.768V32.468H250.162V33.768H251.462ZM256.358 33.768H257.658V32.468H256.358V33.768ZM256.358 37.872V39.172H257.658V37.872H256.358ZM251.354 50.512C252.183 50.512 252.992 50.2921 253.645 49.7264L251.942 47.7616C251.875 47.8199 251.725 47.912 251.354 47.912V50.512ZM253.65 49.7223C254.354 49.1061 254.67 48.273 254.67 47.376H252.07C252.07 47.631 252.001 47.7099 251.938 47.7656L253.65 49.7223ZM254.67 47.376V41.616H252.07V47.376H254.67ZM253.37 42.916H257.942V40.316H253.37V42.916ZM256.642 41.616V47.232H259.242V41.616H256.642ZM256.642 47.232C256.642 48.0984 256.864 48.9856 257.535 49.6445C258.201 50.2991 259.091 50.512 259.958 50.512V47.912C259.48 47.912 259.362 47.7949 259.357 47.7895C259.356 47.7884 259.242 47.6856 259.242 47.232H256.642ZM259.958 50.512H261.326V47.912H259.958V50.512ZM261.326 50.512C260.953 50.512 260.673 50.3434 260.511 50.1888C260.37 50.054 260.311 49.9259 260.297 49.894C260.269 49.831 260.285 49.842 260.31 50.0069C260.355 50.3104 260.386 50.8349 260.386 51.624H262.986C262.986 50.8051 262.956 50.1236 262.881 49.6231C262.846 49.386 262.788 49.0955 262.67 48.8315C262.597 48.6683 262.229 47.912 261.326 47.912V50.512ZM260.386 51.624C260.386 52.4008 260.355 52.9152 260.31 53.2113C260.286 53.3724 260.27 53.3795 260.3 53.3136C260.315 53.2798 260.376 53.1513 260.518 53.017C260.681 52.8632 260.959 52.7 261.326 52.7V55.3C262.219 55.3 262.589 54.5602 262.667 54.3894C262.787 54.1255 262.845 53.8356 262.881 53.6007C262.956 53.1048 262.986 52.4312 262.986 51.624H260.386ZM261.326 52.7H259.742V55.3H261.326V52.7ZM259.742 52.7C257.941 52.7 257.121 52.192 256.74 51.583L254.535 52.961C255.595 54.656 257.511 55.3 259.742 55.3V52.7ZM254.583 51.5124C254.302 51.9019 253.929 52.196 253.427 52.397L254.393 54.811C255.33 54.436 256.109 53.8421 256.693 53.0316L254.583 51.5124ZM253.449 52.3885C252.942 52.5807 252.256 52.7 251.354 52.7V55.3C252.467 55.3 253.485 55.1553 254.371 54.8195L253.449 52.3885ZM251.354 52.7H247.178V55.3H251.354V52.7ZM247.178 52.7C247.531 52.7 247.804 52.8526 247.971 53.0046C248.116 53.1375 248.18 53.2666 248.197 53.3042C248.231 53.3763 248.216 53.3769 248.192 53.2233C248.148 52.9423 248.118 52.4483 248.118 51.696H245.518C245.518 52.4797 245.547 53.1377 245.623 53.6247C245.659 53.8551 245.719 54.1437 245.843 54.4078C245.93 54.5932 246.306 55.3 247.178 55.3V52.7ZM248.118 51.696C248.118 50.8825 248.148 50.3377 248.194 50.0195C248.219 49.8472 248.237 49.8286 248.212 49.8856C248.2 49.9137 248.144 50.0408 248.006 50.1766C247.848 50.3324 247.564 50.512 247.178 50.512V47.912C246.254 47.912 245.892 48.701 245.828 48.8489C245.713 49.1129 245.656 49.4048 245.621 49.6465C245.547 50.1563 245.518 50.8535 245.518 51.696H248.118ZM247.178 50.512H251.354V47.912H247.178V50.512ZM252.762 37.872V33.768H250.162V37.872H252.762ZM251.462 35.068H256.358V32.468H251.462V35.068ZM255.058 33.768V37.872H257.658V33.768H255.058ZM256.358 36.572H251.462V39.172H256.358V36.572ZM268.475 48.852L268.22 47.5772L268.215 47.5783L268.475 48.852ZM272.183 47.412L272.823 48.5433L272.826 48.5415L272.183 47.412ZM275.531 45.504L276.174 46.6335L277.042 46.139L276.788 45.1732L275.531 45.504ZM274.451 43.668L273.679 44.7146L273.71 44.7372L273.742 44.758L274.451 43.668ZM264.119 43.164L262.827 43.0172L262.662 44.464H264.119V43.164ZM264.659 38.412V37.112H263.498L263.367 38.2652L264.659 38.412ZM276.899 39.204L276.26 40.3363L276.271 40.3426L276.282 40.3486L276.899 39.204ZM279.239 41.832L278.076 42.4134L278.083 42.4269L278.09 42.4403L279.239 41.832ZM280.967 47.016L281.652 48.1206L282.439 47.6326L282.235 46.7297L280.967 47.016ZM273.947 51.372L274.63 52.478L274.632 52.4766L273.947 51.372ZM269.267 53.46L269.572 54.7235L269.582 54.7212L269.591 54.7188L269.267 53.46ZM274.667 57.744H275.967V56.444H274.667V57.744ZM274.667 61.848V63.148H275.967V61.848H274.667ZM264.515 61.848H263.215V63.148H264.515V61.848ZM264.515 57.744V56.444H263.215V57.744H264.515ZM267.539 67.5H266.239V68.8H267.539V67.5ZM267.539 63.576V62.276H266.239V63.576H267.539ZM271.643 63.576H272.943V62.276H271.643V63.576ZM271.643 67.5V68.8H272.943V67.5H271.643ZM263.975 50.512C265.846 50.512 267.441 50.3897 268.734 50.1257L268.215 47.5783C267.156 47.7943 265.751 47.912 263.975 47.912V50.512ZM268.729 50.1268C270.088 49.855 271.454 49.3185 272.823 48.5433L271.542 46.2807C270.368 46.9455 269.261 47.369 268.22 47.5772L268.729 50.1268ZM272.826 48.5415L276.174 46.6335L274.887 44.3745L271.539 46.2825L272.826 48.5415ZM276.788 45.1732C276.515 44.1383 276.039 43.1497 275.159 42.578L273.742 44.758C273.823 44.8103 274.066 45.0457 274.273 45.8348L276.788 45.1732ZM275.222 42.6214C274.438 42.0443 273.411 41.864 272.363 41.864V44.464C273.186 44.464 273.551 44.6197 273.679 44.7146L275.222 42.6214ZM272.363 41.864H264.119V44.464H272.363V41.864ZM265.41 43.3108L265.95 38.5588L263.367 38.2652L262.827 43.0172L265.41 43.3108ZM264.659 39.712H273.227V37.112H264.659V39.712ZM273.227 39.712C274.601 39.712 275.582 39.954 276.26 40.3363L277.537 38.0717C276.343 37.398 274.876 37.112 273.227 37.112V39.712ZM276.282 40.3486C276.919 40.6913 277.534 41.3307 278.076 42.4134L280.401 41.2506C279.695 39.8373 278.75 38.7247 277.515 38.0594L276.282 40.3486ZM278.09 42.4403C278.66 43.5183 279.206 45.1197 279.698 47.3023L282.235 46.7297C281.719 44.4483 281.113 42.5937 280.387 41.2237L278.09 42.4403ZM280.281 45.9114L273.261 50.2674L274.632 52.4766L281.652 48.1206L280.281 45.9114ZM273.263 50.266C271.716 51.2216 270.276 51.8568 268.942 52.2012L269.591 54.7188C271.233 54.2952 272.913 53.5384 274.63 52.478L273.263 50.266ZM268.961 52.1965C267.605 52.5244 265.879 52.7 263.759 52.7V55.3C266.006 55.3 267.952 55.1156 269.572 54.7235L268.961 52.1965ZM263.759 52.7H261.311V55.3H263.759V52.7ZM261.311 52.7C261.664 52.7 261.937 52.8526 262.103 53.0046C262.249 53.1375 262.313 53.2666 262.33 53.3042C262.364 53.3763 262.349 53.3769 262.325 53.2233C262.281 52.9423 262.251 52.4483 262.251 51.696H259.651C259.651 52.4797 259.68 53.1377 259.756 53.6247C259.792 53.8551 259.852 54.1437 259.976 54.4078C260.063 54.5932 260.439 55.3 261.311 55.3V52.7ZM262.251 51.696C262.251 50.8825 262.281 50.3377 262.327 50.0195C262.352 49.8472 262.37 49.8286 262.345 49.8856C262.333 49.9137 262.277 50.0408 262.139 50.1766C261.981 50.3324 261.697 50.512 261.311 50.512V47.912C260.387 47.912 260.025 48.701 259.961 48.8489C259.846 49.1129 259.789 49.4048 259.754 49.6465C259.68 50.1563 259.651 50.8535 259.651 51.696H262.251ZM261.311 50.512H263.975V47.912H261.311V50.512ZM273.367 57.744V61.848H275.967V57.744H273.367ZM274.667 60.548H264.515V63.148H274.667V60.548ZM265.815 61.848V57.744H263.215V61.848H265.815ZM264.515 59.044H274.667V56.444H264.515V59.044ZM268.839 67.5V63.576H266.239V67.5H268.839ZM267.539 64.876H271.643V62.276H267.539V64.876ZM270.343 63.576V67.5H272.943V63.576H270.343ZM271.643 66.2H267.539V68.8H271.643V66.2Z" fill="black" mask="url(#path-1-outside-1_610_19)"/>
<path fill-rule="evenodd" clip-rule="evenodd" d="M172.083 74.4449C173.249 91.4199 177.231 103.338 183.276 111.128C185.442 113.919 187.84 116.139 190.412 117.857C181.344 129.421 168.357 130.567 155.512 125.877C143.945 121.654 132.981 112.82 126.153 103.486L135.521 103.489L121.268 75.7383L107 103.479L119.95 103.484C127.108 114.984 140.144 126.101 153.985 131.154C168.326 136.391 184.168 135.275 195.014 120.34C198.42 121.78 202.038 122.512 205.754 122.665C222 123.333 240.467 112.983 253.328 102.009L266 105.646L258.169 74.2228L238.373 97.7175L247.035 100.203C234.919 109.683 219.28 117.557 205.93 117.008C198.56 116.705 191.992 113.848 186.96 107.363C181.878 100.816 178.116 90.2525 177 74L172.083 74.4449Z" fill="#5CE5DE"/>
<path d="M183.276 111.128L182.763 111.527L182.763 111.527L183.276 111.128ZM172.083 74.4449L172.024 73.7975L171.391 73.8548L171.434 74.4894L172.083 74.4449ZM190.412 117.857L190.923 118.259L191.356 117.707L190.773 117.317L190.412 117.857ZM155.512 125.877L155.735 125.267L155.735 125.267L155.512 125.877ZM126.153 103.486L126.153 102.836L124.872 102.835L125.628 103.869L126.153 103.486ZM135.521 103.489L135.521 104.139L136.586 104.139L136.1 103.192L135.521 103.489ZM121.268 75.7383L121.846 75.4413L121.268 74.3164L120.69 75.441L121.268 75.7383ZM107 103.479L106.422 103.182L105.935 104.129L107 104.129L107 103.479ZM119.95 103.484L120.502 103.14L120.312 102.834L119.951 102.834L119.95 103.484ZM153.985 131.154L154.208 130.544L154.208 130.544L153.985 131.154ZM195.014 120.34L195.267 119.741L194.791 119.54L194.488 119.958L195.014 120.34ZM205.754 122.665L205.727 123.314L205.727 123.314L205.754 122.665ZM253.328 102.009L253.507 101.384L253.171 101.288L252.906 101.515L253.328 102.009ZM266 105.646L265.821 106.271L266.903 106.581L266.631 105.489L266 105.646ZM258.169 74.2228L258.8 74.0656L258.492 72.8307L257.672 73.804L258.169 74.2228ZM238.373 97.7175L237.876 97.2986L237.23 98.0656L238.194 98.3422L238.373 97.7175ZM247.035 100.203L247.436 100.715L248.439 99.93L247.214 99.5785L247.035 100.203ZM205.93 117.008L205.957 116.358L205.957 116.358L205.93 117.008ZM186.96 107.363L186.446 107.762L186.446 107.762L186.96 107.363ZM177 74L177.649 73.9555L177.603 73.2928L176.942 73.3526L177 74ZM183.79 110.73C177.854 103.082 173.893 91.3079 172.731 74.4003L171.434 74.4894C172.605 91.5319 176.607 103.595 182.763 111.527L183.79 110.73ZM190.773 117.317C188.262 115.639 185.914 113.468 183.79 110.73L182.763 111.527C184.969 114.37 187.418 116.639 190.051 118.398L190.773 117.317ZM155.289 126.488C161.789 128.861 168.37 129.774 174.501 128.601C180.645 127.425 186.296 124.16 190.923 118.259L189.9 117.456C185.461 123.118 180.084 126.209 174.256 127.324C168.416 128.442 162.08 127.583 155.735 125.267L155.289 126.488ZM125.628 103.869C132.524 113.297 143.59 122.216 155.289 126.488L155.735 125.267C144.301 121.092 133.437 112.343 126.677 103.102L125.628 103.869ZM135.522 102.839L126.153 102.836L126.152 104.136L135.521 104.139L135.522 102.839ZM120.69 76.0353L134.943 103.786L136.1 103.192L121.846 75.4413L120.69 76.0353ZM107.578 103.777L121.846 76.0356L120.69 75.441L106.422 103.182L107.578 103.777ZM119.951 102.834L107 102.829L107 104.129L119.95 104.134L119.951 102.834ZM154.208 130.544C140.509 125.542 127.587 114.523 120.502 103.14L119.399 103.827C126.63 115.445 139.778 126.659 153.762 131.765L154.208 130.544ZM194.488 119.958C189.156 127.299 182.622 131.218 175.676 132.675C168.716 134.135 161.297 133.132 154.208 130.544L153.762 131.765C161.014 134.413 168.686 135.47 175.943 133.947C183.216 132.422 190.025 128.315 195.54 120.722L194.488 119.958ZM205.78 122.016C202.133 121.866 198.593 121.148 195.267 119.741L194.761 120.938C198.247 122.413 201.944 123.159 205.727 123.314L205.78 122.016ZM252.906 101.515C246.512 106.97 238.729 112.267 230.534 116.114C222.334 119.964 213.763 122.344 205.78 122.016L205.727 123.314C213.991 123.654 222.776 121.193 231.087 117.291C239.402 113.387 247.282 108.022 253.749 102.504L252.906 101.515ZM266.179 105.021L253.507 101.384L253.148 102.634L265.821 106.271L266.179 105.021ZM257.539 74.38L265.369 105.803L266.631 105.489L258.8 74.0656L257.539 74.38ZM238.87 98.1363L258.666 74.6416L257.672 73.804L237.876 97.2986L238.87 98.1363ZM247.214 99.5785L238.552 97.0927L238.194 98.3422L246.856 100.828L247.214 99.5785ZM205.904 117.657C219.486 118.216 235.28 110.227 247.436 100.715L246.634 99.6914C234.559 109.14 219.074 116.898 205.957 116.358L205.904 117.657ZM186.446 107.762C191.608 114.413 198.363 117.347 205.904 117.657L205.957 116.358C198.758 116.062 192.376 113.283 187.473 106.965L186.446 107.762ZM176.352 74.0445C177.473 90.3647 181.255 101.073 186.446 107.762L187.473 106.965C182.502 100.559 178.76 90.1404 177.649 73.9555L176.352 74.0445ZM172.141 75.0922L177.059 74.6474L176.942 73.3526L172.024 73.7975L172.141 75.0922Z" fill="black"/>
</svg>
