<svg width="283" height="421" viewBox="0 0 283 421" fill="none" xmlns="http://www.w3.org/2000/svg">
<path d="M59.7071 34.2929C59.3166 33.9024 58.6834 33.9024 58.2929 34.2929L51.9289 40.6569C51.5384 41.0474 51.5384 41.6805 51.9289 42.0711C52.3194 42.4616 52.9526 42.4616 53.3431 42.0711L59 36.4142L64.6568 42.0711C65.0474 42.4616 65.6805 42.4616 66.0711 42.0711C66.4616 41.6805 66.4616 41.0474 66.0711 40.6569L59.7071 34.2929ZM60 386L60 35L58 35L58 386L60 386Z" fill="black"/>
<path d="M264.707 361.707C265.098 361.317 265.098 360.683 264.707 360.293L258.343 353.929C257.953 353.538 257.319 353.538 256.929 353.929C256.538 354.319 256.538 354.953 256.929 355.343L262.586 361L256.929 366.657C256.538 367.047 256.538 367.681 256.929 368.071C257.319 368.462 257.953 368.462 258.343 368.071L264.707 361.707ZM33 362L264 362L264 360L33 360L33 362Z" fill="black"/>
<path d="M35.9613 65.32C35.9613 64.144 35.9013 63.13 35.7813 62.278C35.6613 61.414 35.4213 60.382 35.0613 59.182L36.8613 58.552C37.2453 59.764 37.4973 60.826 37.6173 61.738C37.7493 62.65 37.8153 63.838 37.8153 65.302V70H35.9613V65.32ZM44.0967 63.304C43.9767 63.1 43.8807 62.86 43.8087 62.584C43.7367 62.308 43.7007 62.032 43.7007 61.756C43.7007 61.168 43.8507 60.634 44.1507 60.154C44.4507 59.662 44.8647 59.272 45.3927 58.984C45.9207 58.696 46.5027 58.552 47.1387 58.552C47.8467 58.552 48.6147 58.732 49.4427 59.092L48.9567 60.802C48.3087 60.55 47.7267 60.424 47.2107 60.424C46.7187 60.424 46.3167 60.574 46.0047 60.874C45.7047 61.174 45.5547 61.54 45.5547 61.972C45.5547 62.44 45.6807 62.818 45.9327 63.106C46.1967 63.394 46.5147 63.538 46.8867 63.538C47.5827 63.538 48.4527 63.322 49.4967 62.89L49.9647 64.6C48.7047 65.188 47.4447 65.482 46.1847 65.482C45.5127 65.482 44.9067 65.416 44.3667 65.284C43.8387 65.14 43.4127 64.948 43.0887 64.708V65.536V70H41.2347V65.32C41.2347 64.144 41.1747 63.13 41.0547 62.278C40.9347 61.414 40.6947 60.382 40.3347 59.182L42.1167 58.552C42.2487 59.008 42.3927 59.584 42.5487 60.28C42.7047 60.964 42.8307 61.594 42.9267 62.17C42.9747 62.458 43.0827 62.692 43.2507 62.872C43.4187 63.052 43.7007 63.196 44.0967 63.304ZM37.3236 106.32C37.3236 105.144 37.2636 104.13 37.1436 103.278C37.0236 102.414 36.7836 101.382 36.4236 100.182L38.2236 99.552C38.6076 100.764 38.8596 101.826 38.9796 102.738C39.1116 103.65 39.1776 104.838 39.1776 106.302V111H37.3236V106.32ZM45.657 105.672C45.069 105.672 44.661 105.546 44.433 105.294C44.445 105.486 44.451 105.822 44.451 106.302V111H42.597V106.32C42.597 105.144 42.537 104.13 42.417 103.278C42.297 102.414 42.057 101.382 41.697 100.182L43.479 99.552L44.289 102.702C44.469 103.386 44.877 103.728 45.513 103.728C45.837 103.728 46.113 103.632 46.341 103.44C46.569 103.236 46.683 102.978 46.683 102.666C46.683 102.258 46.563 101.352 46.323 99.948L48.195 99.552C48.435 100.98 48.555 102.036 48.555 102.72C48.555 103.284 48.429 103.794 48.177 104.25C47.925 104.694 47.577 105.042 47.133 105.294C46.701 105.546 46.209 105.672 45.657 105.672ZM36.9281 147.32C36.9281 146.144 36.8681 145.13 36.7481 144.278C36.6281 143.414 36.3881 142.382 36.0281 141.182L37.8281 140.552C38.2121 141.764 38.4641 142.826 38.5841 143.738C38.7161 144.65 38.7821 145.838 38.7821 147.302V152H36.9281V147.32ZM45.2435 143.09C45.8435 143.09 46.4195 143.258 46.9715 143.594C47.5355 143.93 47.9855 144.374 48.3215 144.926C48.6575 145.478 48.8255 146.054 48.8255 146.654C48.8255 147.254 48.6575 147.836 48.3215 148.4C47.9855 148.952 47.5355 149.396 46.9715 149.732C46.4195 150.068 45.8435 150.236 45.2435 150.236C44.6435 150.236 44.0615 150.068 43.4975 149.732C42.9455 149.396 42.5015 148.952 42.1655 148.4C41.8295 147.836 41.6615 147.254 41.6615 146.654C41.6615 146.054 41.8295 145.478 42.1655 144.926C42.5015 144.374 42.9455 143.93 43.4975 143.594C44.0615 143.258 44.6435 143.09 45.2435 143.09ZM45.2435 148.454C45.5315 148.454 45.8135 148.37 46.0895 148.202C46.3775 148.022 46.6055 147.794 46.7735 147.518C46.9535 147.23 47.0435 146.942 47.0435 146.654C47.0435 146.366 46.9535 146.084 46.7735 145.808C46.6055 145.532 46.3775 145.31 46.0895 145.142C45.8135 144.974 45.5315 144.89 45.2435 144.89C44.9555 144.89 44.6675 144.98 44.3795 145.16C44.1035 145.328 43.8755 145.55 43.6955 145.826C43.5275 146.09 43.4435 146.366 43.4435 146.654C43.4435 146.942 43.5275 147.23 43.6955 147.518C43.8755 147.794 44.1035 148.022 44.3795 148.202C44.6675 148.37 44.9555 148.454 45.2435 148.454ZM43.388 181.624C43.736 183.7 44.204 185.548 44.792 187.168C45.392 188.788 46.19 190.42 47.186 192.064L45.638 193.162C43.982 190.486 42.92 187.756 42.452 184.972C41.936 188.044 40.928 190.774 39.428 193.162L37.808 192.064C38.756 190.564 39.524 189.004 40.112 187.384C40.7 185.752 41.198 183.832 41.606 181.624H43.388ZM46.0787 228.168C45.2387 228.84 44.4347 229.668 43.6667 230.652C42.8987 231.636 42.1307 232.806 41.3627 234.162L39.7967 233.298C40.2047 232.554 40.6547 231.828 41.1467 231.12C41.6387 230.4 42.1367 229.782 42.6407 229.266C42.5207 229.302 42.4007 229.32 42.2807 229.32C41.2607 229.32 40.4747 229.038 39.9227 228.474C39.3827 227.898 39.1127 227.13 39.1127 226.17C39.1127 225.522 39.2567 224.922 39.5447 224.37C39.8447 223.818 40.2467 223.38 40.7507 223.056C41.2667 222.72 41.8307 222.552 42.4427 222.552C42.8387 222.552 43.2167 222.6 43.5767 222.696C43.9367 222.792 44.3207 222.948 44.7287 223.164L44.0987 224.712C43.5347 224.52 43.0067 224.424 42.5147 224.424C42.0707 224.424 41.6987 224.58 41.3987 224.892C41.1107 225.192 40.9667 225.558 40.9667 225.99C40.9667 226.962 41.5307 227.448 42.6587 227.448C43.0067 227.448 43.4027 227.394 43.8467 227.286C44.2907 227.178 44.7467 227.01 45.2147 226.782L46.0787 228.168ZM41.3545 268.304C41.2345 268.1 41.1385 267.86 41.0665 267.584C40.9945 267.308 40.9585 267.032 40.9585 266.756C40.9585 266.168 41.1085 265.634 41.4085 265.154C41.7085 264.662 42.1225 264.272 42.6505 263.984C43.1785 263.696 43.7605 263.552 44.3965 263.552C45.1045 263.552 45.8725 263.732 46.7005 264.092L46.2145 265.802C45.5665 265.55 44.9845 265.424 44.4685 265.424C43.9765 265.424 43.5745 265.574 43.2625 265.874C42.9625 266.174 42.8125 266.54 42.8125 266.972C42.8125 267.44 42.9385 267.818 43.1905 268.106C43.4545 268.394 43.7725 268.538 44.1445 268.538C44.8405 268.538 45.7105 268.322 46.7545 267.89L47.2225 269.6C45.9625 270.188 44.7025 270.482 43.4425 270.482C42.7705 270.482 42.1645 270.416 41.6245 270.284C41.0965 270.14 40.6705 269.948 40.3465 269.708V270.536V275H38.4925V270.32C38.4925 269.144 38.4325 268.13 38.3125 267.278C38.1925 266.414 37.9525 265.382 37.5925 264.182L39.3745 263.552C39.5065 264.008 39.6505 264.584 39.8065 265.28C39.9625 265.964 40.0885 266.594 40.1845 267.17C40.2325 267.458 40.3405 267.692 40.5085 267.872C40.6765 268.052 40.9585 268.196 41.3545 268.304ZM42.95 310.672C42.362 310.672 41.954 310.546 41.726 310.294C41.738 310.486 41.744 310.822 41.744 311.302V316H39.89V311.32C39.89 310.144 39.83 309.13 39.71 308.278C39.59 307.414 39.35 306.382 38.99 305.182L40.772 304.552L41.582 307.702C41.762 308.386 42.17 308.728 42.806 308.728C43.13 308.728 43.406 308.632 43.634 308.44C43.862 308.236 43.976 307.978 43.976 307.666C43.976 307.258 43.856 306.352 43.616 304.948L45.488 304.552C45.728 305.98 45.848 307.036 45.848 307.72C45.848 308.284 45.722 308.794 45.47 309.25C45.218 309.694 44.87 310.042 44.426 310.294C43.994 310.546 43.502 310.672 42.95 310.672Z" fill="black"/>
<path d="M59.5063 64.446H67.4983V66.318H59.5063V64.446ZM59.5063 105.446H67.4983V107.318H59.5063V105.446ZM59.5063 146.446H67.4983V148.318H59.5063V146.446ZM59.5063 187.446H67.4983V189.318H59.5063V187.446ZM59.5063 228.446H67.4983V230.318H59.5063V228.446ZM59.5063 269.446H67.4983V271.318H59.5063V269.446ZM59.5063 310.446H67.4983V312.318H59.5063V310.446Z" fill="black"/>
<path d="M92.446 361.494V353.502H94.318V361.494H92.446ZM139.446 361.494V353.502H141.318V361.494H139.446ZM186.446 361.494V353.502H188.318V361.494H186.446ZM233.446 361.494V353.502H235.318V361.494H233.446Z" fill="black"/>
<path d="M60.5 248H93.5V352" stroke="black" stroke-opacity="0.3" stroke-width="2" stroke-linejoin="round" stroke-dasharray="4 4"/>
<path d="M71 188H140V351" stroke="black" stroke-opacity="0.3" stroke-width="2" stroke-linejoin="round" stroke-dasharray="4 4"/>
<path d="M59 125H187V351" stroke="black" stroke-opacity="0.3" stroke-width="2" stroke-linejoin="round" stroke-dasharray="4 4"/>
<path d="M69 65H234V351" stroke="black" stroke-opacity="0.3" stroke-width="2" stroke-linejoin="round" stroke-dasharray="4 4"/>
<line x1="1.12551" y1="363.022" x2="274.297" y2="12.7485" stroke="#45D6C0" stroke-width="2"/>
<circle cx="93" cy="247" r="7" fill="#CB7BDA"/>
<circle cx="140" cy="187" r="7" fill="#CB7BDA"/>
<circle cx="187" cy="125" r="7" fill="#CB7BDA"/>
<circle cx="234" cy="65" r="7" fill="#CB7BDA"/>
</svg>
