<svg width="144" height="216" viewBox="0 0 144 216" fill="none" xmlns="http://www.w3.org/2000/svg">
<path d="M55.197 32.096C55.3837 33.2067 55.477 34.028 55.477 34.56C55.477 34.588 55.463 34.714 55.435 34.938C55.631 35.2087 55.9064 35.344 56.261 35.344C56.513 35.344 56.723 35.2693 56.891 35.12C57.0684 34.9613 57.157 34.7607 57.157 34.518C57.157 34.2193 57.0684 33.5147 56.891 32.404L58.333 32.096C58.5197 33.2067 58.613 34.028 58.613 34.56C58.613 34.9987 58.515 35.3953 58.319 35.75C58.1324 36.0953 57.8664 36.366 57.521 36.562C57.185 36.758 56.8024 36.856 56.373 36.856C56.037 36.856 55.7244 36.8 55.435 36.688C55.155 36.5667 54.945 36.408 54.805 36.212C54.6557 36.4173 54.4364 36.576 54.147 36.688C53.867 36.8 53.559 36.856 53.223 36.856C52.7657 36.856 52.4484 36.758 52.271 36.562C52.2804 36.7113 52.285 36.9727 52.285 37.346V41H50.843V37.36C50.843 36.4453 50.7964 35.6567 50.703 34.994C50.6097 34.322 50.423 33.5193 50.143 32.586L51.529 32.096L52.159 34.546C52.299 35.078 52.6164 35.344 53.111 35.344C53.363 35.344 53.5777 35.2693 53.755 35.12C53.9324 34.9613 54.021 34.7607 54.021 34.518C54.021 34.2007 53.9277 33.496 53.741 32.404L55.197 32.096ZM67.5728 44.388C66.3782 44.388 65.4588 44.0427 64.8148 43.352C64.1708 42.6707 63.8488 41.7093 63.8488 40.468V37.752H65.2908V40.44C65.2908 42.064 66.0562 42.876 67.5868 42.876H68.1608C68.9075 42.876 69.4955 42.6707 69.9248 42.26C70.3542 41.8493 70.5688 41.2847 70.5688 40.566V31.956H72.0248V38.62C72.0248 38.8907 72.1042 39.1053 72.2628 39.264C72.4308 39.4133 72.6688 39.488 72.9768 39.488H73.2988C73.3922 39.488 73.4388 39.7493 73.4388 40.272C73.4388 40.7573 73.3922 41 73.2988 41H73.0328C72.8182 41 72.6175 40.972 72.4308 40.916C72.2535 40.86 72.1182 40.79 72.0248 40.706V40.776C72.0062 41.476 71.8335 42.1013 71.5068 42.652C71.1802 43.2027 70.7275 43.6273 70.1488 43.926C69.5702 44.234 68.9075 44.388 68.1608 44.388H67.5728ZM77.1208 39.488C77.4755 39.488 77.7508 39.4273 77.9468 39.306C78.1428 39.1753 78.2408 39.0027 78.2408 38.788C78.2408 38.6107 78.1988 38.4473 78.1148 38.298C78.0308 38.1487 77.8955 37.976 77.7088 37.78L74.5448 34.658V33.44L79.7248 31.41L80.1588 32.796L76.2808 34.28L78.7868 36.814C79.6455 37.6633 80.2755 38.27 80.6768 38.634C81.0875 38.9887 81.4142 39.222 81.6568 39.334C81.8995 39.4367 82.1795 39.488 82.4968 39.488C82.5902 39.488 82.6368 39.7493 82.6368 40.272C82.6368 40.7573 82.5902 41 82.4968 41C82.0582 41 81.6988 40.9673 81.4188 40.902C81.1482 40.8273 80.8682 40.6873 80.5788 40.482C80.2988 40.2767 79.9395 39.9547 79.5008 39.516C79.3982 39.9733 79.1368 40.3373 78.7168 40.608C78.2968 40.8693 77.7648 41 77.1208 41H73.2988C73.2055 41 73.1588 40.7573 73.1588 40.272C73.1588 39.7493 73.2055 39.488 73.2988 39.488H77.1208ZM83.606 39.488C83.9887 39.488 84.278 39.404 84.474 39.236C84.67 39.0587 84.768 38.8113 84.768 38.494V36.352H86.224V38.494C86.224 39.1567 86.602 39.488 87.358 39.488C87.7407 39.488 88.03 39.404 88.226 39.236C88.422 39.0587 88.52 38.8113 88.52 38.494V36.352H89.976V38.494C89.976 38.8113 90.0647 39.0587 90.242 39.236C90.4193 39.404 90.6853 39.488 91.04 39.488C91.404 39.488 91.6747 39.404 91.852 39.236C92.0387 39.0587 92.132 38.8113 92.132 38.494V36.352H93.574V38.48C93.574 39.2733 93.35 39.894 92.902 40.342C92.454 40.7807 91.8333 41 91.04 41C90.088 41 89.472 40.7293 89.192 40.188C88.828 40.7293 88.2167 41 87.358 41C86.8353 41 86.42 40.9347 86.112 40.804C85.804 40.664 85.58 40.4587 85.44 40.188C85.076 40.7293 84.4647 41 83.606 41H82.5C82.4067 41 82.36 40.7573 82.36 40.272C82.36 39.7493 82.4067 39.488 82.5 39.488H83.606ZM89.934 31.354V32.656H88.464V31.354H89.934ZM91.096 33.412V34.756H87.288V33.412H91.096Z" fill="#E4E2E7"/>
<rect x="57" y="63" width="30" height="30" fill="#E0BCEF" stroke="#804F9F" stroke-width="2"/>
<rect x="42" y="93" width="30" height="30" fill="#E0BCEF" stroke="#804F9F" stroke-width="2"/>
<rect x="72" y="93" width="30" height="30" fill="#E0BCEF" stroke="#804F9F" stroke-width="2"/>
<rect x="27" y="123" width="30" height="30" fill="#E0BCEF" stroke="#804F9F" stroke-width="2"/>
<rect x="57" y="123" width="30" height="30" fill="#E0BCEF" stroke="#804F9F" stroke-width="2"/>
<rect x="87" y="123" width="30" height="30" fill="#E0BCEF" stroke="#804F9F" stroke-width="2"/>
<path d="M59.2748 176.4C59.8628 176.4 60.3341 176.535 60.6888 176.806C61.0434 177.077 61.2208 177.473 61.2208 177.996C61.2208 178.379 61.1134 178.743 60.8988 179.088C60.6841 179.424 60.2781 179.858 59.6808 180.39C59.8768 180.455 60.2828 180.488 60.8988 180.488H62.3548C62.4014 180.488 62.4341 180.539 62.4528 180.642C62.4808 180.745 62.4948 180.955 62.4948 181.272C62.4948 181.571 62.4808 181.767 62.4528 181.86C62.4341 181.953 62.4014 182 62.3548 182H60.8988C60.0401 182 59.4194 181.953 59.0368 181.86C58.6541 181.767 58.3228 181.589 58.0428 181.328C56.9321 182.028 56.3768 182.826 56.3768 183.722C56.3768 184.273 56.5541 184.679 56.9088 184.94C57.2728 185.201 57.8468 185.332 58.6308 185.332H61.3608L61.2348 186.844H58.5608C57.3194 186.844 56.4048 186.592 55.8168 186.088C55.2288 185.584 54.9348 184.814 54.9348 183.778C54.9348 182.49 55.5508 181.379 56.7828 180.446L54.9908 177.814L55.7328 176.4H59.2748ZM59.8208 178.29C59.8208 178.131 59.7554 178.01 59.6248 177.926C59.5034 177.842 59.3214 177.8 59.0788 177.8H56.6148L58.1828 180.124C58.8268 179.573 59.2608 179.172 59.4848 178.92C59.7088 178.668 59.8208 178.458 59.8208 178.29ZM66.2113 179.648C66.2113 180.385 65.992 180.964 65.5533 181.384C65.1147 181.795 64.5267 182 63.7893 182H62.3613C62.268 182 62.2213 181.757 62.2213 181.272C62.2213 180.749 62.268 180.488 62.3613 180.488H63.7893C64.0787 180.488 64.312 180.413 64.4893 180.264C64.6667 180.105 64.7553 179.886 64.7553 179.606V177.352H66.2113V179.648ZM62.6413 185.01V183.638H64.3213V185.01H62.6413ZM66.7589 183.876C67.4775 183.876 68.0375 183.671 68.4389 183.26C68.8495 182.859 69.0549 182.289 69.0549 181.552V177.352H70.5109V179.508C70.5109 180.161 70.8655 180.488 71.5749 180.488H71.7709C71.8642 180.488 71.9109 180.749 71.9109 181.272C71.9109 181.757 71.8642 182 71.7709 182H71.5749C71.3415 182 71.1269 181.967 70.9309 181.902C70.7442 181.827 70.6042 181.729 70.5109 181.608V181.692C70.4922 182.42 70.3242 183.064 70.0069 183.624C69.6989 184.184 69.2649 184.618 68.7049 184.926C68.1542 185.234 67.5102 185.388 66.7729 185.388H66.3669L66.2409 183.876H66.7589ZM72.1036 180.488C72.4116 180.488 72.6309 180.427 72.7616 180.306C72.9016 180.175 72.9716 179.975 72.9716 179.704V179.214C72.9716 178.318 73.2189 177.609 73.7136 177.086C74.2176 176.563 74.8989 176.302 75.7576 176.302C76.6162 176.302 77.2742 176.554 77.7316 177.058C78.1889 177.553 78.4176 178.267 78.4176 179.2C78.4176 180.087 78.1749 180.777 77.6896 181.272C77.2136 181.757 76.5509 182 75.7016 182C75.2256 182 74.8242 181.935 74.4976 181.804C74.1709 181.664 73.9329 181.473 73.7836 181.23C73.6156 181.501 73.3962 181.697 73.1256 181.818C72.8642 181.939 72.5236 182 72.1036 182H71.7676C71.6742 182 71.6276 181.757 71.6276 181.272C71.6276 180.749 71.6742 180.488 71.7676 180.488H72.1036ZM76.9756 179.2C76.9756 178.715 76.8682 178.355 76.6536 178.122C76.4482 177.879 76.1309 177.758 75.7016 177.758C75.2722 177.758 74.9502 177.879 74.7356 178.122C74.5302 178.355 74.4276 178.719 74.4276 179.214C74.4276 179.625 74.5349 179.942 74.7496 180.166C74.9642 180.381 75.2816 180.488 75.7016 180.488C76.1309 180.488 76.4482 180.385 76.6536 180.18C76.8682 179.965 76.9756 179.639 76.9756 179.2ZM89.2141 177.464C88.5608 177.987 87.9354 178.631 87.3381 179.396C86.7408 180.161 86.1434 181.071 85.5461 182.126L84.3281 181.454C84.6454 180.875 84.9954 180.311 85.3781 179.76C85.7608 179.2 86.1481 178.719 86.5401 178.318C86.4468 178.346 86.3534 178.36 86.2601 178.36C85.4668 178.36 84.8554 178.141 84.4261 177.702C84.0061 177.254 83.7961 176.657 83.7961 175.91C83.7961 175.406 83.9081 174.939 84.1321 174.51C84.3654 174.081 84.6781 173.74 85.0701 173.488C85.4714 173.227 85.9101 173.096 86.3861 173.096C86.6941 173.096 86.9881 173.133 87.2681 173.208C87.5481 173.283 87.8468 173.404 88.1641 173.572L87.6741 174.776C87.2354 174.627 86.8248 174.552 86.4421 174.552C86.0968 174.552 85.8074 174.673 85.5741 174.916C85.3501 175.149 85.2381 175.434 85.2381 175.77C85.2381 176.526 85.6768 176.904 86.5541 176.904C86.8248 176.904 87.1328 176.862 87.4781 176.778C87.8234 176.694 88.1781 176.563 88.5421 176.386L89.2141 177.464Z" fill="#E4E2E7"/>
</svg>
