<svg width="341" height="269" viewBox="0 0 341 269" fill="none" xmlns="http://www.w3.org/2000/svg">
<path d="M152.054 35.792C151.961 35.6333 151.886 35.4467 151.83 35.232C151.774 35.0173 151.746 34.8027 151.746 34.588C151.746 34.1307 151.863 33.7153 152.096 33.342C152.33 32.9593 152.652 32.656 153.062 32.432C153.473 32.208 153.926 32.096 154.42 32.096C154.971 32.096 155.568 32.236 156.212 32.516L155.834 33.846C155.33 33.65 154.878 33.552 154.476 33.552C154.094 33.552 153.781 33.6687 153.538 33.902C153.305 34.1353 153.188 34.42 153.188 34.756C153.188 35.12 153.286 35.414 153.482 35.638C153.688 35.862 153.935 35.974 154.224 35.974C154.766 35.974 155.442 35.806 156.254 35.47L156.618 36.8C155.638 37.2573 154.658 37.486 153.678 37.486C153.156 37.486 152.684 37.4347 152.264 37.332C151.854 37.22 151.522 37.0707 151.27 36.884V37.528V41H149.828V37.36C149.828 36.4453 149.782 35.6567 149.688 34.994C149.595 34.322 149.408 33.5193 149.128 32.586L150.514 32.096C150.617 32.4507 150.729 32.8987 150.85 33.44C150.972 33.972 151.07 34.462 151.144 34.91C151.182 35.134 151.266 35.316 151.396 35.456C151.527 35.596 151.746 35.708 152.054 35.792ZM165.587 44.388C164.393 44.388 163.473 44.0427 162.829 43.352C162.185 42.6707 161.863 41.7093 161.863 40.468V37.752H163.305V40.44C163.305 42.064 164.071 42.876 165.601 42.876H166.175C166.922 42.876 167.51 42.6707 167.939 42.26C168.369 41.8493 168.583 41.2847 168.583 40.566V31.956H170.039V38.62C170.039 38.8907 170.119 39.1053 170.277 39.264C170.445 39.4133 170.683 39.488 170.991 39.488H171.313C171.407 39.488 171.453 39.7493 171.453 40.272C171.453 40.7573 171.407 41 171.313 41H171.047C170.833 41 170.632 40.972 170.445 40.916C170.268 40.86 170.133 40.79 170.039 40.706V40.776C170.021 41.476 169.848 42.1013 169.521 42.652C169.195 43.2027 168.742 43.6273 168.163 43.926C167.585 44.234 166.922 44.388 166.175 44.388H165.587ZM175.135 39.488C175.49 39.488 175.765 39.4273 175.961 39.306C176.157 39.1753 176.255 39.0027 176.255 38.788C176.255 38.6107 176.213 38.4473 176.129 38.298C176.045 38.1487 175.91 37.976 175.723 37.78L172.559 34.658V33.44L177.739 31.41L178.173 32.796L174.295 34.28L176.801 36.814C177.66 37.6633 178.29 38.27 178.691 38.634C179.102 38.9887 179.429 39.222 179.671 39.334C179.914 39.4367 180.194 39.488 180.511 39.488C180.605 39.488 180.651 39.7493 180.651 40.272C180.651 40.7573 180.605 41 180.511 41C180.073 41 179.713 40.9673 179.433 40.902C179.163 40.8273 178.883 40.6873 178.593 40.482C178.313 40.2767 177.954 39.9547 177.515 39.516C177.413 39.9733 177.151 40.3373 176.731 40.608C176.311 40.8693 175.779 41 175.135 41H171.313C171.22 41 171.173 40.7573 171.173 40.272C171.173 39.7493 171.22 39.488 171.313 39.488H175.135ZM181.621 39.488C182.003 39.488 182.293 39.404 182.489 39.236C182.685 39.0587 182.783 38.8113 182.783 38.494V36.352H184.239V38.494C184.239 39.1567 184.617 39.488 185.373 39.488C185.755 39.488 186.045 39.404 186.241 39.236C186.437 39.0587 186.535 38.8113 186.535 38.494V36.352H187.991V38.494C187.991 38.8113 188.079 39.0587 188.257 39.236C188.434 39.404 188.7 39.488 189.055 39.488C189.419 39.488 189.689 39.404 189.867 39.236C190.053 39.0587 190.147 38.8113 190.147 38.494V36.352H191.589V38.48C191.589 39.2733 191.365 39.894 190.917 40.342C190.469 40.7807 189.848 41 189.055 41C188.103 41 187.487 40.7293 187.207 40.188C186.843 40.7293 186.231 41 185.373 41C184.85 41 184.435 40.9347 184.127 40.804C183.819 40.664 183.595 40.4587 183.455 40.188C183.091 40.7293 182.479 41 181.621 41H180.515C180.421 41 180.375 40.7573 180.375 40.272C180.375 39.7493 180.421 39.488 180.515 39.488H181.621ZM187.949 31.354V32.656H186.479V31.354H187.949ZM189.111 33.412V34.756H185.303V33.412H189.111Z" fill="#E4E2E7"/>
<circle cx="25.5" cy="134.5" r="11" fill="#F88F7B" stroke="#F84B12" stroke-width="2"/>
<circle cx="55.5" cy="119.5" r="11" fill="#F88F7B" stroke="#F84B12" stroke-width="2"/>
<circle cx="55.5" cy="149.5" r="11" fill="#F88F7B" stroke="#F84B12" stroke-width="2"/>
<circle cx="85.5" cy="104.5" r="11" fill="#F88F7B" stroke="#F84B12" stroke-width="2"/>
<circle cx="85.5" cy="134.5" r="11" fill="#F88F7B" stroke="#F84B12" stroke-width="2"/>
<circle cx="85.5" cy="164.5" r="11" fill="#F88F7B" stroke="#F84B12" stroke-width="2"/>
<line x1="104" y1="193" x2="104" y2="76" stroke="#F84B12" stroke-width="3"/>
<circle cx="125.5" cy="89.5" r="11" fill="#F88F7B" stroke="#F84B12" stroke-width="2"/>
<circle cx="125.5" cy="119.5" r="11" fill="#F88F7B" stroke="#F84B12" stroke-width="2"/>
<circle cx="125.5" cy="149.5" r="11" fill="#F88F7B" stroke="#F84B12" stroke-width="2"/>
<circle cx="125.5" cy="179.5" r="11" fill="#F88F7B" stroke="#F84B12" stroke-width="2"/>
<circle cx="155.5" cy="89.5" r="11" fill="#F88F7B" stroke="#F84B12" stroke-width="2"/>
<circle cx="155.5" cy="119.5" r="11" fill="#F88F7B" stroke="#F84B12" stroke-width="2"/>
<circle cx="155.5" cy="149.5" r="11" fill="#F88F7B" stroke="#F84B12" stroke-width="2"/>
<circle cx="155.5" cy="179.5" r="11" fill="#F88F7B" stroke="#F84B12" stroke-width="2"/>
<circle cx="185.5" cy="89.5" r="11" fill="#F88F7B" stroke="#F84B12" stroke-width="2"/>
<circle cx="185.5" cy="119.5" r="11" fill="#F88F7B" stroke="#F84B12" stroke-width="2"/>
<circle cx="185.5" cy="149.5" r="11" fill="#F88F7B" stroke="#F84B12" stroke-width="2"/>
<circle cx="185.5" cy="179.5" r="11" fill="#F88F7B" stroke="#F84B12" stroke-width="2"/>
<circle cx="215.5" cy="89.5" r="11" fill="#F88F7B" stroke="#F84B12" stroke-width="2"/>
<circle cx="215.5" cy="119.5" r="11" fill="#F88F7B" stroke="#F84B12" stroke-width="2"/>
<circle cx="215.5" cy="149.5" r="11" fill="#F88F7B" stroke="#F84B12" stroke-width="2"/>
<circle cx="215.5" cy="179.5" r="11" fill="#F88F7B" stroke="#F84B12" stroke-width="2"/>
<line x1="234" y1="193" x2="234" y2="76" stroke="#F84B12" stroke-width="3"/>
<circle cx="10" cy="10" r="11" transform="matrix(-1 0 0 1 325.5 124.5)" fill="#F88F7B" stroke="#F84B12" stroke-width="2"/>
<circle cx="10" cy="10" r="11" transform="matrix(-1 0 0 1 295.5 109.5)" fill="#F88F7B" stroke="#F84B12" stroke-width="2"/>
<circle cx="10" cy="10" r="11" transform="matrix(-1 0 0 1 295.5 139.5)" fill="#F88F7B" stroke="#F84B12" stroke-width="2"/>
<circle cx="10" cy="10" r="11" transform="matrix(-1 0 0 1 265.5 94.5)" fill="#F88F7B" stroke="#F84B12" stroke-width="2"/>
<circle cx="10" cy="10" r="11" transform="matrix(-1 0 0 1 265.5 124.5)" fill="#F88F7B" stroke="#F84B12" stroke-width="2"/>
<circle cx="10" cy="10" r="11" transform="matrix(-1 0 0 1 265.5 154.5)" fill="#F88F7B" stroke="#F84B12" stroke-width="2"/>
<path d="M153.487 232.284C153.487 232.713 153.561 233.021 153.711 233.208C153.86 233.395 154.079 233.488 154.369 233.488H154.761C154.807 233.488 154.84 233.539 154.859 233.642C154.887 233.745 154.901 233.955 154.901 234.272C154.901 234.571 154.887 234.767 154.859 234.86C154.84 234.953 154.807 235 154.761 235H154.369C153.855 235 153.435 234.907 153.109 234.72C152.791 234.524 152.572 234.211 152.451 233.782C152.255 233.969 151.989 234.109 151.653 234.202C151.317 234.295 150.962 234.342 150.589 234.342C149.767 234.342 149.142 234.123 148.713 233.684C148.283 233.236 148.069 232.578 148.069 231.71C148.069 231.187 148.185 230.707 148.419 230.268C148.652 229.82 148.979 229.465 149.399 229.204C149.828 228.933 150.318 228.798 150.869 228.798H152.045V227.86H153.487V232.284ZM149.511 231.696C149.511 232.452 149.893 232.83 150.659 232.83C151.097 232.83 151.438 232.755 151.681 232.606C151.923 232.447 152.045 232.233 152.045 231.962V230.254H150.869C150.439 230.254 150.103 230.38 149.861 230.632C149.627 230.875 149.511 231.229 149.511 231.696ZM157.417 225.956V231.206C158.378 229.825 159.41 229.134 160.511 229.134C161.024 229.134 161.486 229.26 161.897 229.512C162.308 229.755 162.625 230.1 162.849 230.548C163.082 230.987 163.199 231.491 163.199 232.06C163.199 232.536 163.115 232.942 162.947 233.278C163.068 233.362 163.213 233.418 163.381 233.446C163.549 233.474 163.773 233.488 164.053 233.488H164.389C164.482 233.488 164.529 233.749 164.529 234.272C164.529 234.757 164.482 235 164.389 235H164.053C163.596 235 163.222 234.958 162.933 234.874C162.644 234.781 162.387 234.617 162.163 234.384C161.911 234.58 161.612 234.734 161.267 234.846C160.931 234.949 160.572 235 160.189 235H154.757C154.664 235 154.617 234.757 154.617 234.272C154.617 233.749 154.664 233.488 154.757 233.488H155.961V225.956H157.417ZM160.189 233.488C160.684 233.488 161.066 233.362 161.337 233.11C161.617 232.858 161.757 232.508 161.757 232.06C161.757 231.621 161.626 231.267 161.365 230.996C161.113 230.725 160.791 230.59 160.399 230.59C159.932 230.59 159.456 230.823 158.971 231.29C158.486 231.757 157.935 232.489 157.319 233.488H160.189ZM166.286 233.488C166.052 233.301 165.866 233.054 165.726 232.746C165.586 232.429 165.516 232.107 165.516 231.78C165.516 231.276 165.637 230.814 165.88 230.394C166.122 229.974 166.454 229.643 166.874 229.4C167.294 229.157 167.76 229.036 168.274 229.036C168.806 229.036 169.277 229.148 169.688 229.372C170.108 229.596 170.43 229.913 170.654 230.324C170.887 230.725 171.004 231.187 171.004 231.71C171.004 232.457 170.728 233.049 170.178 233.488H172.138C172.231 233.488 172.278 233.749 172.278 234.272C172.278 234.757 172.231 235 172.138 235H170.262C169.702 235 169.272 234.981 168.974 234.944C168.684 234.907 168.456 234.841 168.288 234.748C168.11 234.841 167.863 234.907 167.546 234.944C167.238 234.981 166.818 235 166.286 235H164.396C164.302 235 164.256 234.757 164.256 234.272C164.256 233.749 164.302 233.488 164.396 233.488H166.286ZM168.274 230.492C167.882 230.492 167.564 230.613 167.322 230.856C167.088 231.099 166.972 231.407 166.972 231.78C166.972 232.125 167.084 232.447 167.308 232.746C167.541 233.045 167.863 233.287 168.274 233.474C168.694 233.287 169.011 233.045 169.226 232.746C169.45 232.438 169.562 232.116 169.562 231.78C169.562 231.379 169.445 231.066 169.212 230.842C168.988 230.609 168.675 230.492 168.274 230.492ZM170.178 226.152V227.496H166.37V226.152H170.178ZM175.984 232.648C175.984 233.385 175.764 233.964 175.326 234.384C174.887 234.795 174.299 235 173.562 235H172.134C172.04 235 171.994 234.757 171.994 234.272C171.994 233.749 172.04 233.488 172.134 233.488H173.562C173.851 233.488 174.084 233.413 174.262 233.264C174.439 233.105 174.528 232.886 174.528 232.606V230.352H175.984V232.648ZM173.618 228.756V227.384H175.298V228.756H173.618ZM181.766 231.36C181.766 230.445 181.719 229.657 181.626 228.994C181.533 228.322 181.346 227.519 181.066 226.586L182.466 226.096C182.765 227.039 182.961 227.865 183.054 228.574C183.157 229.283 183.208 230.207 183.208 231.346V235H181.766V231.36ZM185.307 232.48C185.307 231.78 185.527 231.038 185.965 230.254C186.404 229.47 187.132 228.597 188.149 227.636L187.505 227.062L188.415 225.97C189.619 226.894 190.557 227.706 191.229 228.406C191.911 229.106 192.391 229.759 192.671 230.366C192.961 230.973 193.105 231.607 193.105 232.27C193.105 232.83 192.993 233.315 192.769 233.726C192.555 234.137 192.265 234.454 191.901 234.678C191.547 234.893 191.155 235 190.725 235C190.352 235 190.025 234.949 189.745 234.846C189.475 234.743 189.265 234.599 189.115 234.412C188.966 234.599 188.756 234.743 188.485 234.846C188.215 234.949 187.907 235 187.561 235C186.852 235 186.297 234.776 185.895 234.328C185.503 233.88 185.307 233.264 185.307 232.48ZM191.663 232.27C191.663 231.654 191.467 231.057 191.075 230.478C190.683 229.899 190.053 229.255 189.185 228.546C188.345 229.293 187.729 229.974 187.337 230.59C186.945 231.206 186.749 231.813 186.749 232.41C186.749 233.129 187.057 233.488 187.673 233.488C187.991 233.488 188.233 233.399 188.401 233.222C188.569 233.035 188.653 232.779 188.653 232.452V231.514H189.927V232.438C189.927 232.755 189.904 232.998 189.857 233.166C190.025 233.381 190.315 233.488 190.725 233.488C190.996 233.488 191.22 233.381 191.397 233.166C191.575 232.951 191.663 232.653 191.663 232.27Z" fill="#E4E2E7"/>
</svg>
