<svg width="183" height="159" viewBox="0 0 183 159" fill="none" xmlns="http://www.w3.org/2000/svg">
<rect x="46.5" y="51" width="30" height="30" fill="#64E9E1" stroke="#4BB8B2" stroke-width="2"/>
<rect x="76.5" y="51" width="30" height="30" fill="#64E9E1" stroke="#4BB8B2" stroke-width="2"/>
<rect x="106.5" y="51" width="30" height="30" fill="#64E9E1" stroke="#4BB8B2" stroke-width="2"/>
<rect x="46.5" y="81" width="30" height="30" fill="#64E9E1" stroke="#4BB8B2" stroke-width="2"/>
<rect x="76.5" y="81" width="30" height="30" fill="#64E9E1" stroke="#4BB8B2" stroke-width="2"/>
<rect x="106.5" y="81" width="30" height="30" fill="#64E9E1" stroke="#4BB8B2" stroke-width="2"/>
<rect x="46.5" y="111" width="30" height="30" fill="#64E9E1" stroke="#4BB8B2" stroke-width="2"/>
<rect x="76.5" y="111" width="30" height="30" fill="#64E9E1" stroke="#4BB8B2" stroke-width="2"/>
<rect x="106.5" y="111" width="30" height="30" fill="#64E9E1" stroke="#4BB8B2" stroke-width="2"/>
<path d="M72.8645 33.36C72.8645 32.4453 72.8179 31.6567 72.7245 30.994C72.6312 30.322 72.4445 29.5193 72.1645 28.586L73.5645 28.096C73.8632 29.0387 74.0592 29.8647 74.1525 30.574C74.2552 31.2833 74.3065 32.2073 74.3065 33.346V37H72.8645V33.36ZM83.5513 40.388C82.3567 40.388 81.4373 40.0427 80.7933 39.352C80.1493 38.6707 79.8273 37.7093 79.8273 36.468V33.752H81.2693V36.44C81.2693 38.064 82.0347 38.876 83.5653 38.876H84.1393C84.886 38.876 85.474 38.6707 85.9033 38.26C86.3327 37.8493 86.5473 37.2847 86.5473 36.566V27.956H88.0033V34.62C88.0033 34.8907 88.0827 35.1053 88.2413 35.264C88.4093 35.4133 88.6473 35.488 88.9553 35.488H89.2773C89.3707 35.488 89.4173 35.7493 89.4173 36.272C89.4173 36.7573 89.3707 37 89.2773 37H89.0113C88.7967 37 88.596 36.972 88.4093 36.916C88.232 36.86 88.0967 36.79 88.0033 36.706V36.776C87.9847 37.476 87.812 38.1013 87.4853 38.652C87.1587 39.2027 86.706 39.6273 86.1273 39.926C85.5487 40.234 84.886 40.388 84.1393 40.388H83.5513ZM93.0993 35.488C93.454 35.488 93.7293 35.4273 93.9253 35.306C94.1213 35.1753 94.2193 35.0027 94.2193 34.788C94.2193 34.6107 94.1773 34.4473 94.0933 34.298C94.0093 34.1487 93.874 33.976 93.6873 33.78L90.5233 30.658V29.44L95.7033 27.41L96.1373 28.796L92.2593 30.28L94.7653 32.814C95.624 33.6633 96.254 34.27 96.6553 34.634C97.066 34.9887 97.3927 35.222 97.6353 35.334C97.878 35.4367 98.158 35.488 98.4753 35.488C98.5687 35.488 98.6153 35.7493 98.6153 36.272C98.6153 36.7573 98.5687 37 98.4753 37C98.0367 37 97.6773 36.9673 97.3973 36.902C97.1267 36.8273 96.8467 36.6873 96.5573 36.482C96.2773 36.2767 95.918 35.9547 95.4793 35.516C95.3767 35.9733 95.1153 36.3373 94.6953 36.608C94.2753 36.8693 93.7433 37 93.0993 37H89.2773C89.184 37 89.1373 36.7573 89.1373 36.272C89.1373 35.7493 89.184 35.488 89.2773 35.488H93.0993ZM99.5845 35.488C99.9672 35.488 100.257 35.404 100.453 35.236C100.649 35.0587 100.747 34.8113 100.747 34.494V32.352H102.203V34.494C102.203 35.1567 102.581 35.488 103.337 35.488C103.719 35.488 104.009 35.404 104.205 35.236C104.401 35.0587 104.499 34.8113 104.499 34.494V32.352H105.955V34.494C105.955 34.8113 106.043 35.0587 106.221 35.236C106.398 35.404 106.664 35.488 107.019 35.488C107.383 35.488 107.653 35.404 107.831 35.236C108.017 35.0587 108.111 34.8113 108.111 34.494V32.352H109.553V34.48C109.553 35.2733 109.329 35.894 108.881 36.342C108.433 36.7807 107.812 37 107.019 37C106.067 37 105.451 36.7293 105.171 36.188C104.807 36.7293 104.195 37 103.337 37C102.814 37 102.399 36.9347 102.091 36.804C101.783 36.664 101.559 36.4587 101.419 36.188C101.055 36.7293 100.443 37 99.5845 37H98.4785C98.3852 37 98.3385 36.7573 98.3385 36.272C98.3385 35.7493 98.3852 35.488 98.4785 35.488H99.5845ZM105.913 27.354V28.656H104.443V27.354H105.913ZM107.075 29.412V30.756H103.267V29.412H107.075Z" fill="#E4E2E7"/>
<rect x="57" y="91" width="10" height="10" rx="5" fill="#393939"/>
<rect x="86" y="61" width="10" height="10" rx="5" fill="#393939"/>
<rect x="86" y="91" width="10" height="10" rx="5" fill="#393939"/>
<rect x="116" y="91" width="10" height="10" rx="5" fill="#393939"/>
<rect x="86" y="121" width="10" height="10" rx="5" fill="#393939"/>
</svg>
