<svg width="384" height="217" viewBox="0 0 384 217" fill="none" xmlns="http://www.w3.org/2000/svg">
<rect x="46" y="111" width="10" height="10" rx="5" fill="#64E9E1"/>
<rect x="23" y="134" width="10" height="10" rx="5" fill="#64E9E1"/>
<rect x="46" y="134" width="10" height="10" rx="5" fill="#64E9E1"/>
<rect x="69" y="134" width="10" height="10" rx="5" fill="#64E9E1"/>
<rect x="46" y="157" width="10" height="10" rx="5" fill="#64E9E1"/>
<path d="M33.3645 83.36C33.3645 82.4453 33.3179 81.6567 33.2245 80.994C33.1312 80.322 32.9445 79.5193 32.6645 78.586L34.0645 78.096C34.3632 79.0387 34.5592 79.8647 34.6525 80.574C34.7552 81.2833 34.8065 82.2073 34.8065 83.346V87H33.3645V83.36ZM44.0513 90.388C42.8567 90.388 41.9373 90.0427 41.2933 89.352C40.6493 88.6707 40.3273 87.7093 40.3273 86.468V83.752H41.7693V86.44C41.7693 88.064 42.5347 88.876 44.0653 88.876H44.6393C45.386 88.876 45.974 88.6707 46.4033 88.26C46.8327 87.8493 47.0473 87.2847 47.0473 86.566V77.956H48.5033V84.62C48.5033 84.8907 48.5827 85.1053 48.7413 85.264C48.9093 85.4133 49.1473 85.488 49.4553 85.488H49.7773C49.8707 85.488 49.9173 85.7493 49.9173 86.272C49.9173 86.7573 49.8707 87 49.7773 87H49.5113C49.2967 87 49.096 86.972 48.9093 86.916C48.732 86.86 48.5967 86.79 48.5033 86.706V86.776C48.4847 87.476 48.312 88.1013 47.9853 88.652C47.6587 89.2027 47.206 89.6273 46.6273 89.926C46.0487 90.234 45.386 90.388 44.6393 90.388H44.0513ZM53.5993 85.488C53.954 85.488 54.2293 85.4273 54.4253 85.306C54.6213 85.1753 54.7193 85.0027 54.7193 84.788C54.7193 84.6107 54.6773 84.4473 54.5933 84.298C54.5093 84.1487 54.374 83.976 54.1873 83.78L51.0233 80.658V79.44L56.2033 77.41L56.6373 78.796L52.7593 80.28L55.2653 82.814C56.124 83.6633 56.754 84.27 57.1553 84.634C57.566 84.9887 57.8927 85.222 58.1353 85.334C58.378 85.4367 58.658 85.488 58.9753 85.488C59.0687 85.488 59.1153 85.7493 59.1153 86.272C59.1153 86.7573 59.0687 87 58.9753 87C58.5367 87 58.1773 86.9673 57.8973 86.902C57.6267 86.8273 57.3467 86.6873 57.0573 86.482C56.7773 86.2767 56.418 85.9547 55.9793 85.516C55.8767 85.9733 55.6153 86.3373 55.1953 86.608C54.7753 86.8693 54.2433 87 53.5993 87H49.7773C49.684 87 49.6373 86.7573 49.6373 86.272C49.6373 85.7493 49.684 85.488 49.7773 85.488H53.5993ZM60.0845 85.488C60.4672 85.488 60.7565 85.404 60.9525 85.236C61.1485 85.0587 61.2465 84.8113 61.2465 84.494V82.352H62.7025V84.494C62.7025 85.1567 63.0805 85.488 63.8365 85.488C64.2192 85.488 64.5085 85.404 64.7045 85.236C64.9005 85.0587 64.9985 84.8113 64.9985 84.494V82.352H66.4545V84.494C66.4545 84.8113 66.5432 85.0587 66.7205 85.236C66.8978 85.404 67.1638 85.488 67.5185 85.488C67.8825 85.488 68.1532 85.404 68.3305 85.236C68.5172 85.0587 68.6105 84.8113 68.6105 84.494V82.352H70.0525V84.48C70.0525 85.2733 69.8285 85.894 69.3805 86.342C68.9325 86.7807 68.3118 87 67.5185 87C66.5665 87 65.9505 86.7293 65.6705 86.188C65.3065 86.7293 64.6952 87 63.8365 87C63.3138 87 62.8985 86.9347 62.5905 86.804C62.2825 86.664 62.0585 86.4587 61.9185 86.188C61.5545 86.7293 60.9432 87 60.0845 87H58.9785C58.8852 87 58.8385 86.7573 58.8385 86.272C58.8385 85.7493 58.8852 85.488 58.9785 85.488H60.0845ZM66.4125 77.354V78.656H64.9425V77.354H66.4125ZM67.5745 79.412V80.756H63.7665V79.412H67.5745Z" fill="#E4E2E7"/>
<path d="M36.5237 190.284C36.5237 190.713 36.5983 191.021 36.7477 191.208C36.897 191.395 37.1163 191.488 37.4057 191.488H37.7977C37.8443 191.488 37.877 191.539 37.8957 191.642C37.9237 191.745 37.9377 191.955 37.9377 192.272C37.9377 192.571 37.9237 192.767 37.8957 192.86C37.877 192.953 37.8443 193 37.7977 193H37.4057C36.8923 193 36.4723 192.907 36.1457 192.72C35.8283 192.524 35.609 192.211 35.4877 191.782C35.2917 191.969 35.0257 192.109 34.6897 192.202C34.3537 192.295 33.999 192.342 33.6257 192.342C32.8043 192.342 32.179 192.123 31.7497 191.684C31.3203 191.236 31.1057 190.578 31.1057 189.71C31.1057 189.187 31.2223 188.707 31.4557 188.268C31.689 187.82 32.0157 187.465 32.4357 187.204C32.865 186.933 33.355 186.798 33.9057 186.798H35.0817V185.86H36.5237V190.284ZM32.5477 189.696C32.5477 190.452 32.9303 190.83 33.6957 190.83C34.1343 190.83 34.475 190.755 34.7177 190.606C34.9603 190.447 35.0817 190.233 35.0817 189.962V188.254H33.9057C33.4763 188.254 33.1403 188.38 32.8977 188.632C32.6643 188.875 32.5477 189.229 32.5477 189.696ZM40.4539 183.956V189.206C41.4153 187.825 42.4466 187.134 43.5479 187.134C44.0613 187.134 44.5233 187.26 44.9339 187.512C45.3446 187.755 45.6619 188.1 45.8859 188.548C46.1193 188.987 46.2359 189.491 46.2359 190.06C46.2359 190.536 46.1519 190.942 45.9839 191.278C46.1053 191.362 46.2499 191.418 46.4179 191.446C46.5859 191.474 46.8099 191.488 47.0899 191.488H47.4259C47.5193 191.488 47.5659 191.749 47.5659 192.272C47.5659 192.757 47.5193 193 47.4259 193H47.0899C46.6326 193 46.2593 192.958 45.9699 192.874C45.6806 192.781 45.4239 192.617 45.1999 192.384C44.9479 192.58 44.6493 192.734 44.3039 192.846C43.9679 192.949 43.6086 193 43.2259 193H37.7939C37.7006 193 37.6539 192.757 37.6539 192.272C37.6539 191.749 37.7006 191.488 37.7939 191.488H38.9979V183.956H40.4539ZM43.2259 191.488C43.7206 191.488 44.1033 191.362 44.3739 191.11C44.6539 190.858 44.7939 190.508 44.7939 190.06C44.7939 189.621 44.6633 189.267 44.4019 188.996C44.1499 188.725 43.8279 188.59 43.4359 188.59C42.9693 188.59 42.4933 188.823 42.0079 189.29C41.5226 189.757 40.9719 190.489 40.3559 191.488H43.2259ZM49.3226 191.488C49.0893 191.301 48.9026 191.054 48.7626 190.746C48.6226 190.429 48.5526 190.107 48.5526 189.78C48.5526 189.276 48.674 188.814 48.9166 188.394C49.1593 187.974 49.4906 187.643 49.9106 187.4C50.3306 187.157 50.7973 187.036 51.3106 187.036C51.8426 187.036 52.314 187.148 52.7246 187.372C53.1446 187.596 53.4666 187.913 53.6906 188.324C53.924 188.725 54.0406 189.187 54.0406 189.71C54.0406 190.457 53.7653 191.049 53.2146 191.488H55.1746C55.268 191.488 55.3146 191.749 55.3146 192.272C55.3146 192.757 55.268 193 55.1746 193H53.2986C52.7386 193 52.3093 192.981 52.0106 192.944C51.7213 192.907 51.4926 192.841 51.3246 192.748C51.1473 192.841 50.9 192.907 50.5826 192.944C50.2746 192.981 49.8546 193 49.3226 193H47.4326C47.3393 193 47.2926 192.757 47.2926 192.272C47.2926 191.749 47.3393 191.488 47.4326 191.488H49.3226ZM51.3106 188.492C50.9186 188.492 50.6013 188.613 50.3586 188.856C50.1253 189.099 50.0086 189.407 50.0086 189.78C50.0086 190.125 50.1206 190.447 50.3446 190.746C50.578 191.045 50.9 191.287 51.3106 191.474C51.7306 191.287 52.048 191.045 52.2626 190.746C52.4866 190.438 52.5986 190.116 52.5986 189.78C52.5986 189.379 52.482 189.066 52.2486 188.842C52.0246 188.609 51.712 188.492 51.3106 188.492ZM53.2146 184.152V185.496H49.4066V184.152H53.2146ZM59.0209 190.648C59.0209 191.385 58.8016 191.964 58.3629 192.384C57.9242 192.795 57.3362 193 56.5989 193H55.1709C55.0776 193 55.0309 192.757 55.0309 192.272C55.0309 191.749 55.0776 191.488 55.1709 191.488H56.5989C56.8882 191.488 57.1216 191.413 57.2989 191.264C57.4762 191.105 57.5649 190.886 57.5649 190.606V188.352H59.0209V190.648ZM56.6549 186.756V185.384H58.3349V186.756H56.6549ZM64.243 190.48C64.243 189.78 64.4623 189.038 64.901 188.254C65.3397 187.47 66.0677 186.597 67.085 185.636L66.441 185.062L67.351 183.97C68.555 184.894 69.493 185.706 70.165 186.406C70.8463 187.106 71.327 187.759 71.607 188.366C71.8963 188.973 72.041 189.607 72.041 190.27C72.041 190.83 71.929 191.315 71.705 191.726C71.4903 192.137 71.201 192.454 70.837 192.678C70.4823 192.893 70.0903 193 69.661 193C69.2877 193 68.961 192.949 68.681 192.846C68.4103 192.743 68.2003 192.599 68.051 192.412C67.9017 192.599 67.6917 192.743 67.421 192.846C67.1503 192.949 66.8423 193 66.497 193C65.7877 193 65.2323 192.776 64.831 192.328C64.439 191.88 64.243 191.264 64.243 190.48ZM70.599 190.27C70.599 189.654 70.403 189.057 70.011 188.478C69.619 187.899 68.989 187.255 68.121 186.546C67.281 187.293 66.665 187.974 66.273 188.59C65.881 189.206 65.685 189.813 65.685 190.41C65.685 191.129 65.993 191.488 66.609 191.488C66.9263 191.488 67.169 191.399 67.337 191.222C67.505 191.035 67.589 190.779 67.589 190.452V189.514H68.863V190.438C68.863 190.755 68.8397 190.998 68.793 191.166C68.961 191.381 69.2503 191.488 69.661 191.488C69.9317 191.488 70.1557 191.381 70.333 191.166C70.5103 190.951 70.599 190.653 70.599 190.27Z" fill="#E4E2E7"/>
<path d="M148.85 48.856C148.393 48.856 148.075 48.758 147.898 48.562C147.907 48.7113 147.912 48.9727 147.912 49.346V53H146.47V49.36C146.47 48.4453 146.423 47.6567 146.33 46.994C146.237 46.322 146.05 45.5193 145.77 44.586L147.156 44.096L147.786 46.546C147.926 47.078 148.243 47.344 148.738 47.344C148.99 47.344 149.205 47.2693 149.382 47.12C149.559 46.9613 149.648 46.7607 149.648 46.518C149.648 46.2007 149.555 45.496 149.368 44.404L150.824 44.096C151.011 45.2067 151.104 46.028 151.104 46.56C151.104 46.9987 151.006 47.3953 150.81 47.75C150.614 48.0953 150.343 48.366 149.998 48.562C149.662 48.758 149.279 48.856 148.85 48.856ZM160.055 56.388C158.861 56.388 157.941 56.0427 157.297 55.352C156.653 54.6707 156.331 53.7093 156.331 52.468V49.752H157.773V52.44C157.773 54.064 158.539 54.876 160.069 54.876H160.643C161.39 54.876 161.978 54.6707 162.407 54.26C162.837 53.8493 163.051 53.2847 163.051 52.566V43.956H164.507V50.62C164.507 50.8907 164.587 51.1053 164.745 51.264C164.913 51.4133 165.151 51.488 165.459 51.488H165.781C165.875 51.488 165.921 51.7493 165.921 52.272C165.921 52.7573 165.875 53 165.781 53H165.515C165.301 53 165.1 52.972 164.913 52.916C164.736 52.86 164.601 52.79 164.507 52.706V52.776C164.489 53.476 164.316 54.1013 163.989 54.652C163.663 55.2027 163.21 55.6273 162.631 55.926C162.053 56.234 161.39 56.388 160.643 56.388H160.055ZM169.603 51.488C169.958 51.488 170.233 51.4273 170.429 51.306C170.625 51.1753 170.723 51.0027 170.723 50.788C170.723 50.6107 170.681 50.4473 170.597 50.298C170.513 50.1487 170.378 49.976 170.191 49.78L167.027 46.658V45.44L172.207 43.41L172.641 44.796L168.763 46.28L171.269 48.814C172.128 49.6633 172.758 50.27 173.159 50.634C173.57 50.9887 173.897 51.222 174.139 51.334C174.382 51.4367 174.662 51.488 174.979 51.488C175.073 51.488 175.119 51.7493 175.119 52.272C175.119 52.7573 175.073 53 174.979 53C174.541 53 174.181 52.9673 173.901 52.902C173.631 52.8273 173.351 52.6873 173.061 52.482C172.781 52.2767 172.422 51.9547 171.983 51.516C171.881 51.9733 171.619 52.3373 171.199 52.608C170.779 52.8693 170.247 53 169.603 53H165.781C165.688 53 165.641 52.7573 165.641 52.272C165.641 51.7493 165.688 51.488 165.781 51.488H169.603ZM176.088 51.488C176.471 51.488 176.76 51.404 176.956 51.236C177.152 51.0587 177.25 50.8113 177.25 50.494V48.352H178.706V50.494C178.706 51.1567 179.084 51.488 179.84 51.488C180.223 51.488 180.512 51.404 180.708 51.236C180.904 51.0587 181.002 50.8113 181.002 50.494V48.352H182.458V50.494C182.458 50.8113 182.547 51.0587 182.724 51.236C182.902 51.404 183.168 51.488 183.522 51.488C183.886 51.488 184.157 51.404 184.334 51.236C184.521 51.0587 184.614 50.8113 184.614 50.494V48.352H186.056V50.48C186.056 51.2733 185.832 51.894 185.384 52.342C184.936 52.7807 184.316 53 183.522 53C182.57 53 181.954 52.7293 181.674 52.188C181.31 52.7293 180.699 53 179.84 53C179.318 53 178.902 52.9347 178.594 52.804C178.286 52.664 178.062 52.4587 177.922 52.188C177.558 52.7293 176.947 53 176.088 53H174.982C174.889 53 174.842 52.7573 174.842 52.272C174.842 51.7493 174.889 51.488 174.982 51.488H176.088ZM182.416 43.354V44.656H180.946V43.354H182.416ZM183.578 45.412V46.756H179.77V45.412H183.578Z" fill="#E4E2E7"/>
<rect x="150" y="80.5" width="10" height="10" rx="5" fill="#64E9E1"/>
<rect x="173" y="80.5" width="10" height="10" rx="5" fill="#64E9E1"/>
<rect x="127" y="103.5" width="10" height="10" rx="5" fill="#64E9E1"/>
<rect x="150" y="103.5" width="10" height="10" rx="5" fill="#64E9E1"/>
<rect x="173" y="103.5" width="10" height="10" rx="5" fill="#64E9E1"/>
<rect x="196" y="103.5" width="10" height="10" rx="5" fill="#64E9E1"/>
<rect x="127" y="126.5" width="10" height="10" rx="5" fill="#64E9E1"/>
<rect x="150" y="126.5" width="10" height="10" rx="5" fill="#64E9E1"/>
<rect x="173" y="126.5" width="10" height="10" rx="5" fill="#64E9E1"/>
<rect x="196" y="126.5" width="10" height="10" rx="5" fill="#64E9E1"/>
<rect x="150" y="149.5" width="10" height="10" rx="5" fill="#64E9E1"/>
<rect x="173" y="149.5" width="10" height="10" rx="5" fill="#64E9E1"/>
<path d="M150.468 190.284C150.468 190.713 150.543 191.021 150.692 191.208C150.841 191.395 151.061 191.488 151.35 191.488H151.742C151.789 191.488 151.821 191.539 151.84 191.642C151.868 191.745 151.882 191.955 151.882 192.272C151.882 192.571 151.868 192.767 151.84 192.86C151.821 192.953 151.789 193 151.742 193H151.35C150.837 193 150.417 192.907 150.09 192.72C149.773 192.524 149.553 192.211 149.432 191.782C149.236 191.969 148.97 192.109 148.634 192.202C148.298 192.295 147.943 192.342 147.57 192.342C146.749 192.342 146.123 192.123 145.694 191.684C145.265 191.236 145.05 190.578 145.05 189.71C145.05 189.187 145.167 188.707 145.4 188.268C145.633 187.82 145.96 187.465 146.38 187.204C146.809 186.933 147.299 186.798 147.85 186.798H149.026V185.86H150.468V190.284ZM146.492 189.696C146.492 190.452 146.875 190.83 147.64 190.83C148.079 190.83 148.419 190.755 148.662 190.606C148.905 190.447 149.026 190.233 149.026 189.962V188.254H147.85C147.421 188.254 147.085 188.38 146.842 188.632C146.609 188.875 146.492 189.229 146.492 189.696ZM154.398 183.956V189.206C155.36 187.825 156.391 187.134 157.492 187.134C158.006 187.134 158.468 187.26 158.878 187.512C159.289 187.755 159.606 188.1 159.83 188.548C160.064 188.987 160.18 189.491 160.18 190.06C160.18 190.536 160.096 190.942 159.928 191.278C160.05 191.362 160.194 191.418 160.362 191.446C160.53 191.474 160.754 191.488 161.034 191.488H161.37C161.464 191.488 161.51 191.749 161.51 192.272C161.51 192.757 161.464 193 161.37 193H161.034C160.577 193 160.204 192.958 159.914 192.874C159.625 192.781 159.368 192.617 159.144 192.384C158.892 192.58 158.594 192.734 158.248 192.846C157.912 192.949 157.553 193 157.17 193H151.738C151.645 193 151.598 192.757 151.598 192.272C151.598 191.749 151.645 191.488 151.738 191.488H152.942V183.956H154.398ZM157.17 191.488C157.665 191.488 158.048 191.362 158.318 191.11C158.598 190.858 158.738 190.508 158.738 190.06C158.738 189.621 158.608 189.267 158.346 188.996C158.094 188.725 157.772 188.59 157.38 188.59C156.914 188.59 156.438 188.823 155.952 189.29C155.467 189.757 154.916 190.489 154.3 191.488H157.17ZM163.267 191.488C163.034 191.301 162.847 191.054 162.707 190.746C162.567 190.429 162.497 190.107 162.497 189.78C162.497 189.276 162.618 188.814 162.861 188.394C163.104 187.974 163.435 187.643 163.855 187.4C164.275 187.157 164.742 187.036 165.255 187.036C165.787 187.036 166.258 187.148 166.669 187.372C167.089 187.596 167.411 187.913 167.635 188.324C167.868 188.725 167.985 189.187 167.985 189.71C167.985 190.457 167.71 191.049 167.159 191.488H169.119C169.212 191.488 169.259 191.749 169.259 192.272C169.259 192.757 169.212 193 169.119 193H167.243C166.683 193 166.254 192.981 165.955 192.944C165.666 192.907 165.437 192.841 165.269 192.748C165.092 192.841 164.844 192.907 164.527 192.944C164.219 192.981 163.799 193 163.267 193H161.377C161.284 193 161.237 192.757 161.237 192.272C161.237 191.749 161.284 191.488 161.377 191.488H163.267ZM165.255 188.492C164.863 188.492 164.546 188.613 164.303 188.856C164.07 189.099 163.953 189.407 163.953 189.78C163.953 190.125 164.065 190.447 164.289 190.746C164.522 191.045 164.844 191.287 165.255 191.474C165.675 191.287 165.992 191.045 166.207 190.746C166.431 190.438 166.543 190.116 166.543 189.78C166.543 189.379 166.426 189.066 166.193 188.842C165.969 188.609 165.656 188.492 165.255 188.492ZM167.159 184.152V185.496H163.351V184.152H167.159ZM172.965 190.648C172.965 191.385 172.746 191.964 172.307 192.384C171.869 192.795 171.281 193 170.543 193H169.115C169.022 193 168.975 192.757 168.975 192.272C168.975 191.749 169.022 191.488 169.115 191.488H170.543C170.833 191.488 171.066 191.413 171.243 191.264C171.421 191.105 171.509 190.886 171.509 190.606V188.352H172.965V190.648ZM170.599 186.756V185.384H172.279V186.756H170.599ZM178.747 189.36C178.747 188.445 178.701 187.657 178.607 186.994C178.514 186.322 178.327 185.519 178.047 184.586L179.447 184.096C179.746 185.039 179.942 185.865 180.035 186.574C180.138 187.283 180.189 188.207 180.189 189.346V193H178.747V189.36ZM185.229 188.856C184.772 188.856 184.454 188.758 184.277 188.562C184.286 188.711 184.291 188.973 184.291 189.346V193H182.849V189.36C182.849 188.445 182.802 187.657 182.709 186.994C182.616 186.322 182.429 185.519 182.149 184.586L183.535 184.096L184.165 186.546C184.305 187.078 184.622 187.344 185.117 187.344C185.369 187.344 185.584 187.269 185.761 187.12C185.938 186.961 186.027 186.761 186.027 186.518C186.027 186.201 185.934 185.496 185.747 184.404L187.203 184.096C187.39 185.207 187.483 186.028 187.483 186.56C187.483 186.999 187.385 187.395 187.189 187.75C186.993 188.095 186.722 188.366 186.377 188.562C186.041 188.758 185.658 188.856 185.229 188.856Z" fill="#E4E2E7"/>
<path d="M293.324 20.096C293.511 21.2067 293.604 22.028 293.604 22.56C293.604 22.588 293.59 22.714 293.562 22.938C293.758 23.2087 294.033 23.344 294.388 23.344C294.64 23.344 294.85 23.2693 295.018 23.12C295.195 22.9613 295.284 22.7607 295.284 22.518C295.284 22.2193 295.195 21.5147 295.018 20.404L296.46 20.096C296.647 21.2067 296.74 22.028 296.74 22.56C296.74 22.9987 296.642 23.3953 296.446 23.75C296.259 24.0953 295.993 24.366 295.648 24.562C295.312 24.758 294.929 24.856 294.5 24.856C294.164 24.856 293.851 24.8 293.562 24.688C293.282 24.5667 293.072 24.408 292.932 24.212C292.783 24.4173 292.563 24.576 292.274 24.688C291.994 24.8 291.686 24.856 291.35 24.856C290.893 24.856 290.575 24.758 290.398 24.562C290.407 24.7113 290.412 24.9727 290.412 25.346V29H288.97V25.36C288.97 24.4453 288.923 23.6567 288.83 22.994C288.737 22.322 288.55 21.5193 288.27 20.586L289.656 20.096L290.286 22.546C290.426 23.078 290.743 23.344 291.238 23.344C291.49 23.344 291.705 23.2693 291.882 23.12C292.059 22.9613 292.148 22.7607 292.148 22.518C292.148 22.2007 292.055 21.496 291.868 20.404L293.324 20.096ZM305.7 32.388C304.505 32.388 303.586 32.0427 302.942 31.352C302.298 30.6707 301.976 29.7093 301.976 28.468V25.752H303.418V28.44C303.418 30.064 304.183 30.876 305.714 30.876H306.288C307.034 30.876 307.622 30.6707 308.052 30.26C308.481 29.8493 308.696 29.2847 308.696 28.566V19.956H310.152V26.62C310.152 26.8907 310.231 27.1053 310.39 27.264C310.558 27.4133 310.796 27.488 311.104 27.488H311.426C311.519 27.488 311.566 27.7493 311.566 28.272C311.566 28.7573 311.519 29 311.426 29H311.16C310.945 29 310.744 28.972 310.558 28.916C310.38 28.86 310.245 28.79 310.152 28.706V28.776C310.133 29.476 309.96 30.1013 309.634 30.652C309.307 31.2027 308.854 31.6273 308.276 31.926C307.697 32.234 307.034 32.388 306.288 32.388H305.7ZM315.248 27.488C315.602 27.488 315.878 27.4273 316.074 27.306C316.27 27.1753 316.368 27.0027 316.368 26.788C316.368 26.6107 316.326 26.4473 316.242 26.298C316.158 26.1487 316.022 25.976 315.836 25.78L312.672 22.658V21.44L317.852 19.41L318.286 20.796L314.408 22.28L316.914 24.814C317.772 25.6633 318.402 26.27 318.804 26.634C319.214 26.9887 319.541 27.222 319.784 27.334C320.026 27.4367 320.306 27.488 320.624 27.488C320.717 27.488 320.764 27.7493 320.764 28.272C320.764 28.7573 320.717 29 320.624 29C320.185 29 319.826 28.9673 319.546 28.902C319.275 28.8273 318.995 28.6873 318.706 28.482C318.426 28.2767 318.066 27.9547 317.628 27.516C317.525 27.9733 317.264 28.3373 316.844 28.608C316.424 28.8693 315.892 29 315.248 29H311.426C311.332 29 311.286 28.7573 311.286 28.272C311.286 27.7493 311.332 27.488 311.426 27.488H315.248ZM321.733 27.488C322.116 27.488 322.405 27.404 322.601 27.236C322.797 27.0587 322.895 26.8113 322.895 26.494V24.352H324.351V26.494C324.351 27.1567 324.729 27.488 325.485 27.488C325.868 27.488 326.157 27.404 326.353 27.236C326.549 27.0587 326.647 26.8113 326.647 26.494V24.352H328.103V26.494C328.103 26.8113 328.192 27.0587 328.369 27.236C328.546 27.404 328.812 27.488 329.167 27.488C329.531 27.488 329.802 27.404 329.979 27.236C330.166 27.0587 330.259 26.8113 330.259 26.494V24.352H331.701V26.48C331.701 27.2733 331.477 27.894 331.029 28.342C330.581 28.7807 329.96 29 329.167 29C328.215 29 327.599 28.7293 327.319 28.188C326.955 28.7293 326.344 29 325.485 29C324.962 29 324.547 28.9347 324.239 28.804C323.931 28.664 323.707 28.4587 323.567 28.188C323.203 28.7293 322.592 29 321.733 29H320.627C320.534 29 320.487 28.7573 320.487 28.272C320.487 27.7493 320.534 27.488 320.627 27.488H321.733ZM328.061 19.354V20.656H326.591V19.354H328.061ZM329.223 21.412V22.756H325.415V21.412H329.223Z" fill="#E4E2E7"/>
<rect x="282.5" y="60" width="10" height="10" rx="5" fill="#64E9E1"/>
<rect x="305.5" y="60" width="10" height="10" rx="5" fill="#64E9E1"/>
<rect x="328.5" y="60" width="10" height="10" rx="5" fill="#64E9E1"/>
<rect x="259.5" y="83" width="10" height="10" rx="5" fill="#64E9E1"/>
<rect x="282.5" y="83" width="10" height="10" rx="5" fill="#64E9E1"/>
<rect x="305.5" y="83" width="10" height="10" rx="5" fill="#64E9E1"/>
<rect x="328.5" y="83" width="10" height="10" rx="5" fill="#64E9E1"/>
<rect x="351.5" y="83" width="10" height="10" rx="5" fill="#64E9E1"/>
<rect x="259.5" y="106" width="10" height="10" rx="5" fill="#64E9E1"/>
<rect x="282.5" y="106" width="10" height="10" rx="5" fill="#64E9E1"/>
<rect x="305.5" y="106" width="10" height="10" rx="5" fill="#64E9E1"/>
<rect x="328.5" y="106" width="10" height="10" rx="5" fill="#64E9E1"/>
<rect x="351.5" y="106" width="10" height="10" rx="5" fill="#64E9E1"/>
<rect x="259.5" y="129" width="10" height="10" rx="5" fill="#64E9E1"/>
<rect x="282.5" y="129" width="10" height="10" rx="5" fill="#64E9E1"/>
<rect x="305.5" y="129" width="10" height="10" rx="5" fill="#64E9E1"/>
<rect x="328.5" y="129" width="10" height="10" rx="5" fill="#64E9E1"/>
<rect x="351.5" y="129" width="10" height="10" rx="5" fill="#64E9E1"/>
<rect x="294" y="152" width="10" height="10" rx="5" fill="#64E9E1"/>
<rect x="317" y="152" width="10" height="10" rx="5" fill="#64E9E1"/>
</svg>
