<svg width="144" height="186" viewBox="0 0 144 186" fill="none" xmlns="http://www.w3.org/2000/svg">
<path d="M54.7953 36.856C54.338 36.856 54.0206 36.758 53.8433 36.562C53.8526 36.7113 53.8573 36.9727 53.8573 37.346V41H52.4153V37.36C52.4153 36.4453 52.3686 35.6567 52.2753 34.994C52.182 34.322 51.9953 33.5193 51.7153 32.586L53.1013 32.096L53.7313 34.546C53.8713 35.078 54.1886 35.344 54.6833 35.344C54.9353 35.344 55.15 35.2693 55.3273 35.12C55.5046 34.9613 55.5933 34.7607 55.5933 34.518C55.5933 34.2007 55.5 33.496 55.3133 32.404L56.7693 32.096C56.956 33.2067 57.0493 34.028 57.0493 34.56C57.0493 34.9987 56.9513 35.3953 56.7553 35.75C56.5593 36.0953 56.2886 36.366 55.9433 36.562C55.6073 36.758 55.2246 36.856 54.7953 36.856ZM66.0006 44.388C64.8059 44.388 63.8866 44.0427 63.2426 43.352C62.5986 42.6707 62.2766 41.7093 62.2766 40.468V37.752H63.7186V40.44C63.7186 42.064 64.4839 42.876 66.0146 42.876H66.5886C67.3352 42.876 67.9232 42.6707 68.3526 42.26C68.7819 41.8493 68.9966 41.2847 68.9966 40.566V31.956H70.4526V38.62C70.4526 38.8907 70.5319 39.1053 70.6906 39.264C70.8586 39.4133 71.0966 39.488 71.4046 39.488H71.7266C71.8199 39.488 71.8666 39.7493 71.8666 40.272C71.8666 40.7573 71.8199 41 71.7266 41H71.4606C71.2459 41 71.0452 40.972 70.8586 40.916C70.6812 40.86 70.5459 40.79 70.4526 40.706V40.776C70.4339 41.476 70.2612 42.1013 69.9346 42.652C69.6079 43.2027 69.1552 43.6273 68.5766 43.926C67.9979 44.234 67.3352 44.388 66.5886 44.388H66.0006ZM75.5486 39.488C75.9032 39.488 76.1786 39.4273 76.3746 39.306C76.5706 39.1753 76.6686 39.0027 76.6686 38.788C76.6686 38.6107 76.6266 38.4473 76.5426 38.298C76.4586 38.1487 76.3232 37.976 76.1366 37.78L72.9726 34.658V33.44L78.1526 31.41L78.5866 32.796L74.7086 34.28L77.2146 36.814C78.0732 37.6633 78.7032 38.27 79.1046 38.634C79.5152 38.9887 79.8419 39.222 80.0846 39.334C80.3272 39.4367 80.6072 39.488 80.9246 39.488C81.0179 39.488 81.0646 39.7493 81.0646 40.272C81.0646 40.7573 81.0179 41 80.9246 41C80.4859 41 80.1266 40.9673 79.8466 40.902C79.5759 40.8273 79.2959 40.6873 79.0066 40.482C78.7266 40.2767 78.3672 39.9547 77.9286 39.516C77.8259 39.9733 77.5646 40.3373 77.1446 40.608C76.7246 40.8693 76.1926 41 75.5486 41H71.7266C71.6332 41 71.5866 40.7573 71.5866 40.272C71.5866 39.7493 71.6332 39.488 71.7266 39.488H75.5486ZM82.0337 39.488C82.4164 39.488 82.7057 39.404 82.9017 39.236C83.0977 39.0587 83.1957 38.8113 83.1957 38.494V36.352H84.6517V38.494C84.6517 39.1567 85.0297 39.488 85.7857 39.488C86.1684 39.488 86.4577 39.404 86.6537 39.236C86.8497 39.0587 86.9477 38.8113 86.9477 38.494V36.352H88.4037V38.494C88.4037 38.8113 88.4924 39.0587 88.6697 39.236C88.8471 39.404 89.1131 39.488 89.4677 39.488C89.8317 39.488 90.1024 39.404 90.2797 39.236C90.4664 39.0587 90.5597 38.8113 90.5597 38.494V36.352H92.0017V38.48C92.0017 39.2733 91.7777 39.894 91.3297 40.342C90.8817 40.7807 90.2611 41 89.4677 41C88.5157 41 87.8997 40.7293 87.6197 40.188C87.2557 40.7293 86.6444 41 85.7857 41C85.2631 41 84.8477 40.9347 84.5397 40.804C84.2317 40.664 84.0077 40.4587 83.8677 40.188C83.5037 40.7293 82.8924 41 82.0337 41H80.9277C80.8344 41 80.7877 40.7573 80.7877 40.272C80.7877 39.7493 80.8344 39.488 80.9277 39.488H82.0337ZM88.3617 31.354V32.656H86.8917V31.354H88.3617ZM89.5237 33.412V34.756H85.7157V33.412H89.5237Z" fill="#E4E2E7"/>
<rect x="57" y="63" width="30" height="30" fill="#E0BCEF" stroke="#804F9F" stroke-width="2"/>
<rect x="42" y="93" width="30" height="30" fill="#E0BCEF" stroke="#804F9F" stroke-width="2"/>
<rect x="72" y="93" width="30" height="30" fill="#E0BCEF" stroke="#804F9F" stroke-width="2"/>
<path d="M57.8871 146.4C58.4751 146.4 58.9464 146.535 59.3011 146.806C59.6557 147.077 59.8331 147.473 59.8331 147.996C59.8331 148.379 59.7257 148.743 59.5111 149.088C59.2964 149.424 58.8904 149.858 58.2931 150.39C58.4891 150.455 58.8951 150.488 59.5111 150.488H60.9671C61.0137 150.488 61.0464 150.539 61.0651 150.642C61.0931 150.745 61.1071 150.955 61.1071 151.272C61.1071 151.571 61.0931 151.767 61.0651 151.86C61.0464 151.953 61.0137 152 60.9671 152H59.5111C58.6524 152 58.0317 151.953 57.6491 151.86C57.2664 151.767 56.9351 151.589 56.6551 151.328C55.5444 152.028 54.9891 152.826 54.9891 153.722C54.9891 154.273 55.1664 154.679 55.5211 154.94C55.8851 155.201 56.4591 155.332 57.2431 155.332H59.9731L59.8471 156.844H57.1731C55.9317 156.844 55.0171 156.592 54.4291 156.088C53.8411 155.584 53.5471 154.814 53.5471 153.778C53.5471 152.49 54.1631 151.379 55.3951 150.446L53.6031 147.814L54.3451 146.4H57.8871ZM58.4331 148.29C58.4331 148.131 58.3677 148.01 58.2371 147.926C58.1157 147.842 57.9337 147.8 57.6911 147.8H55.2271L56.7951 150.124C57.4391 149.573 57.8731 149.172 58.0971 148.92C58.3211 148.668 58.4331 148.458 58.4331 148.29ZM64.8236 149.648C64.8236 150.385 64.6043 150.964 64.1656 151.384C63.727 151.795 63.139 152 62.4016 152H60.9736C60.8803 152 60.8336 151.757 60.8336 151.272C60.8336 150.749 60.8803 150.488 60.9736 150.488H62.4016C62.691 150.488 62.9243 150.413 63.1016 150.264C63.279 150.105 63.3676 149.886 63.3676 149.606V147.352H64.8236V149.648ZM61.2536 155.01V153.638H62.9336V155.01H61.2536ZM65.3712 153.876C66.0898 153.876 66.6498 153.671 67.0512 153.26C67.4618 152.859 67.6672 152.289 67.6672 151.552V147.352H69.1232V149.508C69.1232 150.161 69.4778 150.488 70.1872 150.488H70.3832C70.4765 150.488 70.5232 150.749 70.5232 151.272C70.5232 151.757 70.4765 152 70.3832 152H70.1872C69.9538 152 69.7392 151.967 69.5432 151.902C69.3565 151.827 69.2165 151.729 69.1232 151.608V151.692C69.1045 152.42 68.9365 153.064 68.6192 153.624C68.3112 154.184 67.8772 154.618 67.3172 154.926C66.7665 155.234 66.1225 155.388 65.3852 155.388H64.9792L64.8532 153.876H65.3712ZM70.7159 150.488C71.0239 150.488 71.2432 150.427 71.3739 150.306C71.5139 150.175 71.5839 149.975 71.5839 149.704V149.214C71.5839 148.318 71.8312 147.609 72.3259 147.086C72.8299 146.563 73.5112 146.302 74.3699 146.302C75.2285 146.302 75.8865 146.554 76.3439 147.058C76.8012 147.553 77.0299 148.267 77.0299 149.2C77.0299 150.087 76.7872 150.777 76.3019 151.272C75.8259 151.757 75.1632 152 74.3139 152C73.8379 152 73.4365 151.935 73.1099 151.804C72.7832 151.664 72.5452 151.473 72.3959 151.23C72.2279 151.501 72.0085 151.697 71.7379 151.818C71.4765 151.939 71.1359 152 70.7159 152H70.3799C70.2865 152 70.2399 151.757 70.2399 151.272C70.2399 150.749 70.2865 150.488 70.3799 150.488H70.7159ZM75.5879 149.2C75.5879 148.715 75.4805 148.355 75.2659 148.122C75.0605 147.879 74.7432 147.758 74.3139 147.758C73.8845 147.758 73.5625 147.879 73.3479 148.122C73.1425 148.355 73.0399 148.719 73.0399 149.214C73.0399 149.625 73.1472 149.942 73.3619 150.166C73.5765 150.381 73.8939 150.488 74.3139 150.488C74.7432 150.488 75.0605 150.385 75.2659 150.18C75.4805 149.965 75.5879 149.639 75.5879 149.2ZM87.1824 143.096C87.3691 144.207 87.4624 145.028 87.4624 145.56C87.4624 145.588 87.4484 145.714 87.4204 145.938C87.6164 146.209 87.8917 146.344 88.2464 146.344C88.4984 146.344 88.7084 146.269 88.8764 146.12C89.0537 145.961 89.1424 145.761 89.1424 145.518C89.1424 145.219 89.0537 144.515 88.8764 143.404L90.3184 143.096C90.5051 144.207 90.5984 145.028 90.5984 145.56C90.5984 145.999 90.5004 146.395 90.3044 146.75C90.1177 147.095 89.8517 147.366 89.5064 147.562C89.1704 147.758 88.7877 147.856 88.3584 147.856C88.0224 147.856 87.7097 147.8 87.4204 147.688C87.1404 147.567 86.9304 147.408 86.7904 147.212C86.6411 147.417 86.4217 147.576 86.1324 147.688C85.8524 147.8 85.5444 147.856 85.2084 147.856C84.7511 147.856 84.4337 147.758 84.2564 147.562C84.2657 147.711 84.2704 147.973 84.2704 148.346V152H82.8284V148.36C82.8284 147.445 82.7817 146.657 82.6884 145.994C82.5951 145.322 82.4084 144.519 82.1284 143.586L83.5144 143.096L84.1444 145.546C84.2844 146.078 84.6017 146.344 85.0964 146.344C85.3484 146.344 85.5631 146.269 85.7404 146.12C85.9177 145.961 86.0064 145.761 86.0064 145.518C86.0064 145.201 85.9131 144.496 85.7264 143.404L87.1824 143.096Z" fill="#E4E2E7"/>
</svg>
