<svg width="243" height="235" viewBox="0 0 243 235" fill="none" xmlns="http://www.w3.org/2000/svg">
<path d="M104.197 32.096C104.384 33.2067 104.477 34.028 104.477 34.56C104.477 34.588 104.463 34.714 104.435 34.938C104.631 35.2087 104.906 35.344 105.261 35.344C105.513 35.344 105.723 35.2693 105.891 35.12C106.068 34.9613 106.157 34.7607 106.157 34.518C106.157 34.2193 106.068 33.5147 105.891 32.404L107.333 32.096C107.52 33.2067 107.613 34.028 107.613 34.56C107.613 34.9987 107.515 35.3953 107.319 35.75C107.132 36.0953 106.866 36.366 106.521 36.562C106.185 36.758 105.802 36.856 105.373 36.856C105.037 36.856 104.724 36.8 104.435 36.688C104.155 36.5667 103.945 36.408 103.805 36.212C103.656 36.4173 103.436 36.576 103.147 36.688C102.867 36.8 102.559 36.856 102.223 36.856C101.766 36.856 101.448 36.758 101.271 36.562C101.28 36.7113 101.285 36.9727 101.285 37.346V41H99.843V37.36C99.843 36.4453 99.7964 35.6567 99.703 34.994C99.6097 34.322 99.423 33.5193 99.143 32.586L100.529 32.096L101.159 34.546C101.299 35.078 101.616 35.344 102.111 35.344C102.363 35.344 102.578 35.2693 102.755 35.12C102.932 34.9613 103.021 34.7607 103.021 34.518C103.021 34.2007 102.928 33.496 102.741 32.404L104.197 32.096ZM116.573 44.388C115.378 44.388 114.459 44.0427 113.815 43.352C113.171 42.6707 112.849 41.7093 112.849 40.468V37.752H114.291V40.44C114.291 42.064 115.056 42.876 116.587 42.876H117.161C117.907 42.876 118.495 42.6707 118.925 42.26C119.354 41.8493 119.569 41.2847 119.569 40.566V31.956H121.025V38.62C121.025 38.8907 121.104 39.1053 121.263 39.264C121.431 39.4133 121.669 39.488 121.977 39.488H122.299C122.392 39.488 122.439 39.7493 122.439 40.272C122.439 40.7573 122.392 41 122.299 41H122.033C121.818 41 121.617 40.972 121.431 40.916C121.253 40.86 121.118 40.79 121.025 40.706V40.776C121.006 41.476 120.833 42.1013 120.507 42.652C120.18 43.2027 119.727 43.6273 119.149 43.926C118.57 44.234 117.907 44.388 117.161 44.388H116.573ZM126.121 39.488C126.475 39.488 126.751 39.4273 126.947 39.306C127.143 39.1753 127.241 39.0027 127.241 38.788C127.241 38.6107 127.199 38.4473 127.115 38.298C127.031 38.1487 126.895 37.976 126.709 37.78L123.545 34.658V33.44L128.725 31.41L129.159 32.796L125.281 34.28L127.787 36.814C128.645 37.6633 129.275 38.27 129.677 38.634C130.087 38.9887 130.414 39.222 130.657 39.334C130.899 39.4367 131.179 39.488 131.497 39.488C131.59 39.488 131.637 39.7493 131.637 40.272C131.637 40.7573 131.59 41 131.497 41C131.058 41 130.699 40.9673 130.419 40.902C130.148 40.8273 129.868 40.6873 129.579 40.482C129.299 40.2767 128.939 39.9547 128.501 39.516C128.398 39.9733 128.137 40.3373 127.717 40.608C127.297 40.8693 126.765 41 126.121 41H122.299C122.205 41 122.159 40.7573 122.159 40.272C122.159 39.7493 122.205 39.488 122.299 39.488H126.121ZM132.606 39.488C132.989 39.488 133.278 39.404 133.474 39.236C133.67 39.0587 133.768 38.8113 133.768 38.494V36.352H135.224V38.494C135.224 39.1567 135.602 39.488 136.358 39.488C136.741 39.488 137.03 39.404 137.226 39.236C137.422 39.0587 137.52 38.8113 137.52 38.494V36.352H138.976V38.494C138.976 38.8113 139.065 39.0587 139.242 39.236C139.419 39.404 139.685 39.488 140.04 39.488C140.404 39.488 140.675 39.404 140.852 39.236C141.039 39.0587 141.132 38.8113 141.132 38.494V36.352H142.574V38.48C142.574 39.2733 142.35 39.894 141.902 40.342C141.454 40.7807 140.833 41 140.04 41C139.088 41 138.472 40.7293 138.192 40.188C137.828 40.7293 137.217 41 136.358 41C135.835 41 135.42 40.9347 135.112 40.804C134.804 40.664 134.58 40.4587 134.44 40.188C134.076 40.7293 133.465 41 132.606 41H131.5C131.407 41 131.36 40.7573 131.36 40.272C131.36 39.7493 131.407 39.488 131.5 39.488H132.606ZM138.934 31.354V32.656H137.464V31.354H138.934ZM140.096 33.412V34.756H136.288V33.412H140.096Z" fill="#E4E2E7"/>
<path d="M46 63H76V93H46V63Z" fill="#E7B99C"/>
<path d="M76 93V94H77V93H76ZM75 63V93H77V63H75ZM76 92H46V94H76V92Z" fill="#4B71B8"/>
<path d="M76 63H106V93H76V63Z" fill="#A382C6"/>
<path d="M106 93V94H107V93H106ZM76 93H75V94H76V93ZM105 63V93H107V63H105ZM106 92H76V94H106V92ZM77 93V63H75V93H77Z" fill="#4B71B8"/>
<path d="M106 63H136V93H106V63Z" fill="#A382C6"/>
<path d="M136 93V94H137V93H136ZM106 93H105V94H106V93ZM135 63V93H137V63H135ZM136 92H106V94H136V92ZM107 93V63H105V93H107Z" fill="#4B71B8"/>
<path d="M136 63H166V93H136V63Z" fill="#A382C6"/>
<path d="M166 93V94H167V93H166ZM136 93H135V94H136V93ZM165 63V93H167V63H165ZM166 92H136V94H166V92ZM137 93V63H135V93H137Z" fill="#4B71B8"/>
<path d="M166 63H196V93H166V63Z" fill="#E7B99C"/>
<path d="M166 93H165V94H166V93ZM196 92H166V94H196V92ZM167 93V63H165V93H167Z" fill="#4B71B8"/>
<path d="M46 93H76V123H46V93Z" fill="#A382C6"/>
<path d="M76 93H77V92H76V93ZM76 123V124H77V123H76ZM46 94H76V92H46V94ZM75 93V123H77V93H75ZM76 122H46V124H76V122Z" fill="#4B71B8"/>
<rect x="76" y="93" width="30" height="30" fill="#A382C6" stroke="#4B71B8" stroke-width="2"/>
<rect x="106" y="93" width="30" height="30" fill="#A382C6" stroke="#4B71B8" stroke-width="2"/>
<rect x="136" y="93" width="30" height="30" fill="#A382C6" stroke="#4B71B8" stroke-width="2"/>
<path d="M166 93H196V123H166V93Z" fill="#A382C6"/>
<path d="M166 93V92H165V93H166ZM166 123H165V124H166V123ZM166 94H196V92H166V94ZM196 122H166V124H196V122ZM167 123V93H165V123H167Z" fill="#4B71B8"/>
<path d="M46 123H76V153H46V123Z" fill="#A382C6"/>
<path d="M76 123H77V122H76V123ZM76 153V154H77V153H76ZM46 124H76V122H46V124ZM75 123V153H77V123H75ZM76 152H46V154H76V152Z" fill="#4B71B8"/>
<rect x="76" y="123" width="30" height="30" fill="#A382C6" stroke="#4B71B8" stroke-width="2"/>
<rect x="106" y="123" width="30" height="30" fill="#A382C6" stroke="#4B71B8" stroke-width="2"/>
<rect x="136" y="123" width="30" height="30" fill="#A382C6" stroke="#4B71B8" stroke-width="2"/>
<path d="M166 123H196V153H166V123Z" fill="#A382C6"/>
<path d="M166 123V122H165V123H166ZM166 153H165V154H166V153ZM166 124H196V122H166V124ZM196 152H166V154H196V152ZM167 153V123H165V153H167Z" fill="#4B71B8"/>
<path d="M46 153H76V183H46V153Z" fill="#A382C6"/>
<path d="M76 153H77V152H76V153ZM76 183V184H77V183H76ZM46 154H76V152H46V154ZM75 153V183H77V153H75ZM76 182H46V184H76V182Z" fill="#4B71B8"/>
<rect x="76" y="153" width="30" height="30" fill="#A382C6" stroke="#4B71B8" stroke-width="2"/>
<rect x="106" y="153" width="30" height="30" fill="#A382C6" stroke="#4B71B8" stroke-width="2"/>
<rect x="136" y="153" width="30" height="30" fill="#A382C6" stroke="#4B71B8" stroke-width="2"/>
<path d="M166 153H196V183H166V153Z" fill="#A382C6"/>
<path d="M166 153V152H165V153H166ZM166 183H165V184H166V183ZM166 154H196V152H166V154ZM196 182H166V184H196V182ZM167 183V153H165V183H167Z" fill="#4B71B8"/>
<path d="M46 183H76V213H46V183Z" fill="#E7B99C"/>
<path d="M76 183H77V182H76V183ZM46 184H76V182H46V184ZM75 183V213H77V183H75Z" fill="#4B71B8"/>
<path d="M76 183H106V213H76V183Z" fill="#A382C6"/>
<path d="M76 183V182H75V183H76ZM106 183H107V182H106V183ZM76 184H106V182H76V184ZM105 183V213H107V183H105ZM77 213V183H75V213H77Z" fill="#4B71B8"/>
<path d="M106 183H136V213H106V183Z" fill="#A382C6"/>
<path d="M106 183V182H105V183H106ZM136 183H137V182H136V183ZM106 184H136V182H106V184ZM135 183V213H137V183H135ZM107 213V183H105V213H107Z" fill="#4B71B8"/>
<path d="M136 183H166V213H136V183Z" fill="#A382C6"/>
<path d="M136 183V182H135V183H136ZM166 183H167V182H166V183ZM136 184H166V182H136V184ZM165 183V213H167V183H165ZM137 213V183H135V213H137Z" fill="#4B71B8"/>
<path d="M166 183H196V213H166V183Z" fill="#E7B99C"/>
<path d="M166 183V182H165V183H166ZM166 184H196V182H166V184ZM167 213V183H165V213H167Z" fill="#4B71B8"/>
</svg>
