<svg width="423" height="217" viewBox="0 0 423 217" fill="none" xmlns="http://www.w3.org/2000/svg">
<rect x="21" y="111" width="30" height="30" fill="#64E9E1" stroke="#4BB8B2" stroke-width="2"/>
<rect x="21" y="141" width="30" height="30" fill="#64E9E1" stroke="#4BB8B2" stroke-width="2"/>
<rect x="51" y="111" width="30" height="30" fill="#64E9E1" stroke="#4BB8B2" stroke-width="2"/>
<rect x="51" y="141" width="30" height="30" fill="#64E9E1" stroke="#4BB8B2" stroke-width="2"/>
<path d="M33.3645 92.36C33.3645 91.4453 33.3179 90.6567 33.2245 89.994C33.1312 89.322 32.9445 88.5193 32.6645 87.586L34.0645 87.096C34.3632 88.0387 34.5592 88.8647 34.6525 89.574C34.7552 90.2833 34.8065 91.2073 34.8065 92.346V96H33.3645V92.36ZM44.0513 99.388C42.8567 99.388 41.9373 99.0427 41.2933 98.352C40.6493 97.6707 40.3273 96.7093 40.3273 95.468V92.752H41.7693V95.44C41.7693 97.064 42.5347 97.876 44.0653 97.876H44.6393C45.386 97.876 45.974 97.6707 46.4033 97.26C46.8327 96.8493 47.0473 96.2847 47.0473 95.566V86.956H48.5033V93.62C48.5033 93.8907 48.5827 94.1053 48.7413 94.264C48.9093 94.4133 49.1473 94.488 49.4553 94.488H49.7773C49.8707 94.488 49.9173 94.7493 49.9173 95.272C49.9173 95.7573 49.8707 96 49.7773 96H49.5113C49.2967 96 49.096 95.972 48.9093 95.916C48.732 95.86 48.5967 95.79 48.5033 95.706V95.776C48.4847 96.476 48.312 97.1013 47.9853 97.652C47.6587 98.2027 47.206 98.6273 46.6273 98.926C46.0487 99.234 45.386 99.388 44.6393 99.388H44.0513ZM53.5993 94.488C53.954 94.488 54.2293 94.4273 54.4253 94.306C54.6213 94.1753 54.7193 94.0027 54.7193 93.788C54.7193 93.6107 54.6773 93.4473 54.5933 93.298C54.5093 93.1487 54.374 92.976 54.1873 92.78L51.0233 89.658V88.44L56.2033 86.41L56.6373 87.796L52.7593 89.28L55.2653 91.814C56.124 92.6633 56.754 93.27 57.1553 93.634C57.566 93.9887 57.8927 94.222 58.1353 94.334C58.378 94.4367 58.658 94.488 58.9753 94.488C59.0687 94.488 59.1153 94.7493 59.1153 95.272C59.1153 95.7573 59.0687 96 58.9753 96C58.5367 96 58.1773 95.9673 57.8973 95.902C57.6267 95.8273 57.3467 95.6873 57.0573 95.482C56.7773 95.2767 56.418 94.9547 55.9793 94.516C55.8767 94.9733 55.6153 95.3373 55.1953 95.608C54.7753 95.8693 54.2433 96 53.5993 96H49.7773C49.684 96 49.6373 95.7573 49.6373 95.272C49.6373 94.7493 49.684 94.488 49.7773 94.488H53.5993ZM60.0845 94.488C60.4672 94.488 60.7565 94.404 60.9525 94.236C61.1485 94.0587 61.2465 93.8113 61.2465 93.494V91.352H62.7025V93.494C62.7025 94.1567 63.0805 94.488 63.8365 94.488C64.2192 94.488 64.5085 94.404 64.7045 94.236C64.9005 94.0587 64.9985 93.8113 64.9985 93.494V91.352H66.4545V93.494C66.4545 93.8113 66.5432 94.0587 66.7205 94.236C66.8978 94.404 67.1638 94.488 67.5185 94.488C67.8825 94.488 68.1532 94.404 68.3305 94.236C68.5172 94.0587 68.6105 93.8113 68.6105 93.494V91.352H70.0525V93.48C70.0525 94.2733 69.8285 94.894 69.3805 95.342C68.9325 95.7807 68.3118 96 67.5185 96C66.5665 96 65.9505 95.7293 65.6705 95.188C65.3065 95.7293 64.6952 96 63.8365 96C63.3138 96 62.8985 95.9347 62.5905 95.804C62.2825 95.664 62.0585 95.4587 61.9185 95.188C61.5545 95.7293 60.9432 96 60.0845 96H58.9785C58.8852 96 58.8385 95.7573 58.8385 95.272C58.8385 94.7493 58.8852 94.488 58.9785 94.488H60.0845ZM66.4125 86.354V87.656H64.9425V86.354H66.4125ZM67.5745 88.412V89.756H63.7665V88.412H67.5745Z" fill="#E4E2E7"/>
<path d="M27.0841 191.488C27.1774 191.488 27.2241 191.749 27.2241 192.272C27.2241 192.757 27.1774 193 27.0841 193H25.7121C25.8147 193.121 25.8661 193.308 25.8661 193.56C25.8661 194.111 25.7074 194.601 25.3901 195.03C25.0727 195.459 24.6247 195.791 24.0461 196.024C23.4674 196.267 22.8001 196.388 22.0441 196.388H20.9801C19.7854 196.388 18.8661 196.043 18.2221 195.352C17.5781 194.671 17.2561 193.709 17.2561 192.468V189.752H18.6981V192.44C18.6981 194.064 19.4634 194.876 20.9941 194.876H22.0441C22.8374 194.876 23.4301 194.764 23.8221 194.54C24.2141 194.316 24.4101 193.994 24.4101 193.574C24.4101 193.35 24.3494 193.187 24.2281 193.084C24.1161 192.991 23.9341 192.944 23.6821 192.944H21.1621L21.3021 191.488H27.0841ZM32.9549 181.52L33.2209 182.43L28.3349 184.446V183.452L32.9549 181.52ZM30.9109 191.488C31.2655 191.488 31.5409 191.427 31.7369 191.306C31.9329 191.175 32.0309 191.003 32.0309 190.788C32.0309 190.611 31.9889 190.447 31.9049 190.298C31.8209 190.149 31.6855 189.976 31.4989 189.78L28.3349 186.658V185.44L33.5149 183.41L33.9489 184.796L30.0709 186.28L32.5769 188.814C33.4355 189.663 34.0655 190.27 34.4669 190.634C34.8775 190.989 35.2042 191.222 35.4469 191.334C35.6895 191.437 35.9695 191.488 36.2869 191.488C36.3802 191.488 36.4269 191.749 36.4269 192.272C36.4269 192.757 36.3802 193 36.2869 193C35.8482 193 35.4889 192.967 35.2089 192.902C34.9382 192.827 34.6582 192.687 34.3689 192.482C34.0889 192.277 33.7295 191.955 33.2909 191.516C33.1882 191.973 32.9269 192.337 32.5069 192.608C32.0869 192.869 31.5549 193 30.9109 193H27.0889C26.9955 193 26.9489 192.757 26.9489 192.272C26.9489 191.749 26.9955 191.488 27.0889 191.488H30.9109ZM40.14 190.648C40.14 191.385 39.9207 191.964 39.482 192.384C39.0434 192.795 38.4554 193 37.718 193H36.29C36.1967 193 36.15 192.757 36.15 192.272C36.15 191.749 36.1967 191.488 36.29 191.488H37.718C38.0074 191.488 38.2407 191.413 38.418 191.264C38.5954 191.105 38.684 190.886 38.684 190.606V188.352H40.14V190.648ZM37.774 186.756V185.384H39.454V186.756H37.774ZM44.4396 192.552C44.4396 193.327 44.2856 194.003 43.9776 194.582C43.6696 195.161 43.2309 195.604 42.6616 195.912C42.1016 196.229 41.4482 196.388 40.7016 196.388H39.6516L39.5256 194.876H40.6876C41.4062 194.876 41.9662 194.671 42.3676 194.26C42.7782 193.859 42.9836 193.289 42.9836 192.552V188.352H44.4396V192.552ZM54.1488 187.4C54.7368 187.4 55.2081 187.535 55.5628 187.806C55.9175 188.077 56.0948 188.473 56.0948 188.996C56.0948 189.379 55.9875 189.743 55.7728 190.088C55.5581 190.424 55.1521 190.858 54.5548 191.39C54.7508 191.455 55.1568 191.488 55.7728 191.488H57.2288C57.2755 191.488 57.3081 191.539 57.3268 191.642C57.3548 191.745 57.3688 191.955 57.3688 192.272C57.3688 192.571 57.3548 192.767 57.3268 192.86C57.3081 192.953 57.2755 193 57.2288 193H55.7728C54.9141 193 54.2935 192.953 53.9108 192.86C53.5281 192.767 53.1968 192.589 52.9168 192.328C51.8061 193.028 51.2508 193.826 51.2508 194.722C51.2508 195.273 51.4281 195.679 51.7828 195.94C52.1468 196.201 52.7208 196.332 53.5048 196.332H56.2348L56.1088 197.844H53.4348C52.1935 197.844 51.2788 197.592 50.6908 197.088C50.1028 196.584 49.8088 195.814 49.8088 194.778C49.8088 193.49 50.4248 192.379 51.6568 191.446L49.8648 188.814L50.6068 187.4H54.1488ZM54.6948 189.29C54.6948 189.131 54.6295 189.01 54.4988 188.926C54.3775 188.842 54.1955 188.8 53.9528 188.8H51.4888L53.0568 191.124C53.7008 190.573 54.1348 190.172 54.3588 189.92C54.5828 189.668 54.6948 189.458 54.6948 189.29ZM61.0854 190.648C61.0854 191.385 60.866 191.964 60.4274 192.384C59.9887 192.795 59.4007 193 58.6634 193H57.2354C57.142 193 57.0954 192.757 57.0954 192.272C57.0954 191.749 57.142 191.488 57.2354 191.488H58.6634C58.9527 191.488 59.186 191.413 59.3634 191.264C59.5407 191.105 59.6294 190.886 59.6294 190.606V188.352H61.0854V190.648ZM57.5154 196.01V194.638H59.1954V196.01H57.5154ZM61.6329 194.876C62.3515 194.876 62.9115 194.671 63.3129 194.26C63.7235 193.859 63.9289 193.289 63.9289 192.552V188.352H65.3849V190.508C65.3849 191.161 65.7395 191.488 66.4489 191.488H66.6449C66.7382 191.488 66.7849 191.749 66.7849 192.272C66.7849 192.757 66.7382 193 66.6449 193H66.4489C66.2155 193 66.0009 192.967 65.8049 192.902C65.6182 192.827 65.4782 192.729 65.3849 192.608V192.692C65.3662 193.42 65.1982 194.064 64.8809 194.624C64.5729 195.184 64.1389 195.618 63.5789 195.926C63.0282 196.234 62.3842 196.388 61.6469 196.388H61.2409L61.1149 194.876H61.6329ZM66.9776 191.488C67.2856 191.488 67.5049 191.427 67.6356 191.306C67.7756 191.175 67.8456 190.975 67.8456 190.704V190.214C67.8456 189.318 68.0929 188.609 68.5876 188.086C69.0916 187.563 69.7729 187.302 70.6316 187.302C71.4903 187.302 72.1483 187.554 72.6056 188.058C73.0629 188.553 73.2916 189.267 73.2916 190.2C73.2916 191.087 73.0489 191.777 72.5636 192.272C72.0876 192.757 71.4249 193 70.5756 193C70.0996 193 69.6983 192.935 69.3716 192.804C69.0449 192.664 68.8069 192.473 68.6576 192.23C68.4896 192.501 68.2703 192.697 67.9996 192.818C67.7383 192.939 67.3976 193 66.9776 193H66.6416C66.5483 193 66.5016 192.757 66.5016 192.272C66.5016 191.749 66.5483 191.488 66.6416 191.488H66.9776ZM71.8496 190.2C71.8496 189.715 71.7423 189.355 71.5276 189.122C71.3223 188.879 71.0049 188.758 70.5756 188.758C70.1463 188.758 69.8243 188.879 69.6096 189.122C69.4043 189.355 69.3016 189.719 69.3016 190.214C69.3016 190.625 69.4089 190.942 69.6236 191.166C69.8383 191.381 70.1556 191.488 70.5756 191.488C71.0049 191.488 71.3223 191.385 71.5276 191.18C71.7423 190.965 71.8496 190.639 71.8496 190.2ZM81.3161 187.792C81.2228 187.633 81.1481 187.447 81.0921 187.232C81.0361 187.017 81.0081 186.803 81.0081 186.588C81.0081 186.131 81.1248 185.715 81.3581 185.342C81.5915 184.959 81.9135 184.656 82.3241 184.432C82.7348 184.208 83.1875 184.096 83.6821 184.096C84.2328 184.096 84.8301 184.236 85.4741 184.516L85.0961 185.846C84.5921 185.65 84.1395 185.552 83.7381 185.552C83.3555 185.552 83.0428 185.669 82.8001 185.902C82.5668 186.135 82.4501 186.42 82.4501 186.756C82.4501 187.12 82.5481 187.414 82.7441 187.638C82.9495 187.862 83.1968 187.974 83.4861 187.974C84.0275 187.974 84.7041 187.806 85.5161 187.47L85.8801 188.8C84.9001 189.257 83.9201 189.486 82.9401 189.486C82.4175 189.486 81.9461 189.435 81.5261 189.332C81.1155 189.22 80.7841 189.071 80.5321 188.884V189.528V193H79.0901V189.36C79.0901 188.445 79.0435 187.657 78.9501 186.994C78.8568 186.322 78.6701 185.519 78.3901 184.586L79.7761 184.096C79.8788 184.451 79.9908 184.899 80.1121 185.44C80.2335 185.972 80.3315 186.462 80.4061 186.91C80.4435 187.134 80.5275 187.316 80.6581 187.456C80.7888 187.596 81.0081 187.708 81.3161 187.792Z" fill="#E4E2E7"/>
<rect x="132.5" y="81" width="30" height="30" fill="#64E9E1" stroke="#4BB8B2" stroke-width="2"/>
<rect x="162.5" y="81" width="30" height="30" fill="#64E9E1" stroke="#4BB8B2" stroke-width="2"/>
<rect x="192.5" y="81" width="30" height="30" fill="#64E9E1" stroke="#4BB8B2" stroke-width="2"/>
<rect x="132.5" y="111" width="30" height="30" fill="#64E9E1" stroke="#4BB8B2" stroke-width="2"/>
<rect x="192.5" y="111" width="30" height="30" fill="#64E9E1" stroke="#4BB8B2" stroke-width="2"/>
<rect x="132.5" y="141" width="30" height="30" fill="#64E9E1" stroke="#4BB8B2" stroke-width="2"/>
<rect x="162.5" y="141" width="30" height="30" fill="#64E9E1" stroke="#4BB8B2" stroke-width="2"/>
<rect x="192.5" y="141" width="30" height="30" fill="#64E9E1" stroke="#4BB8B2" stroke-width="2"/>
<path d="M160.295 59.856C159.838 59.856 159.521 59.758 159.343 59.562C159.353 59.7113 159.357 59.9727 159.357 60.346V64H157.915V60.36C157.915 59.4453 157.869 58.6567 157.775 57.994C157.682 57.322 157.495 56.5193 157.215 55.586L158.601 55.096L159.231 57.546C159.371 58.078 159.689 58.344 160.183 58.344C160.435 58.344 160.65 58.2693 160.827 58.12C161.005 57.9613 161.093 57.7607 161.093 57.518C161.093 57.2007 161 56.496 160.813 55.404L162.269 55.096C162.456 56.2067 162.549 57.028 162.549 57.56C162.549 57.9987 162.451 58.3953 162.255 58.75C162.059 59.0953 161.789 59.366 161.443 59.562C161.107 59.758 160.725 59.856 160.295 59.856ZM171.501 67.388C170.306 67.388 169.387 67.0427 168.743 66.352C168.099 65.6707 167.777 64.7093 167.777 63.468V60.752H169.219V63.44C169.219 65.064 169.984 65.876 171.515 65.876H172.089C172.835 65.876 173.423 65.6707 173.853 65.26C174.282 64.8493 174.497 64.2847 174.497 63.566V54.956H175.953V61.62C175.953 61.8907 176.032 62.1053 176.191 62.264C176.359 62.4133 176.597 62.488 176.905 62.488H177.227C177.32 62.488 177.367 62.7493 177.367 63.272C177.367 63.7573 177.32 64 177.227 64H176.961C176.746 64 176.545 63.972 176.359 63.916C176.181 63.86 176.046 63.79 175.953 63.706V63.776C175.934 64.476 175.761 65.1013 175.435 65.652C175.108 66.2027 174.655 66.6273 174.077 66.926C173.498 67.234 172.835 67.388 172.089 67.388H171.501ZM181.049 62.488C181.403 62.488 181.679 62.4273 181.875 62.306C182.071 62.1753 182.169 62.0027 182.169 61.788C182.169 61.6107 182.127 61.4473 182.043 61.298C181.959 61.1487 181.823 60.976 181.637 60.78L178.473 57.658V56.44L183.653 54.41L184.087 55.796L180.209 57.28L182.715 59.814C183.573 60.6633 184.203 61.27 184.605 61.634C185.015 61.9887 185.342 62.222 185.585 62.334C185.827 62.4367 186.107 62.488 186.425 62.488C186.518 62.488 186.565 62.7493 186.565 63.272C186.565 63.7573 186.518 64 186.425 64C185.986 64 185.627 63.9673 185.347 63.902C185.076 63.8273 184.796 63.6873 184.507 63.482C184.227 63.2767 183.867 62.9547 183.429 62.516C183.326 62.9733 183.065 63.3373 182.645 63.608C182.225 63.8693 181.693 64 181.049 64H177.227C177.133 64 177.087 63.7573 177.087 63.272C177.087 62.7493 177.133 62.488 177.227 62.488H181.049ZM187.534 62.488C187.916 62.488 188.206 62.404 188.402 62.236C188.598 62.0587 188.696 61.8113 188.696 61.494V59.352H190.152V61.494C190.152 62.1567 190.53 62.488 191.286 62.488C191.668 62.488 191.958 62.404 192.154 62.236C192.35 62.0587 192.448 61.8113 192.448 61.494V59.352H193.904V61.494C193.904 61.8113 193.992 62.0587 194.17 62.236C194.347 62.404 194.613 62.488 194.968 62.488C195.332 62.488 195.602 62.404 195.78 62.236C195.966 62.0587 196.06 61.8113 196.06 61.494V59.352H197.502V61.48C197.502 62.2733 197.278 62.894 196.83 63.342C196.382 63.7807 195.761 64 194.968 64C194.016 64 193.4 63.7293 193.12 63.188C192.756 63.7293 192.144 64 191.286 64C190.763 64 190.348 63.9347 190.04 63.804C189.732 63.664 189.508 63.4587 189.368 63.188C189.004 63.7293 188.392 64 187.534 64H186.428C186.334 64 186.288 63.7573 186.288 63.272C186.288 62.7493 186.334 62.488 186.428 62.488H187.534ZM193.862 54.354V55.656H192.392V54.354H193.862ZM195.024 56.412V57.756H191.216V56.412H195.024Z" fill="#E4E2E7"/>
<path d="M153.392 194.488C153.485 194.488 153.532 194.749 153.532 195.272C153.532 195.757 153.485 196 153.392 196H152.02C152.122 196.121 152.174 196.308 152.174 196.56C152.174 197.111 152.015 197.601 151.698 198.03C151.38 198.459 150.932 198.791 150.354 199.024C149.775 199.267 149.108 199.388 148.352 199.388H147.288C146.093 199.388 145.174 199.043 144.53 198.352C143.886 197.671 143.564 196.709 143.564 195.468V192.752H145.006V195.44C145.006 197.064 145.771 197.876 147.302 197.876H148.352C149.145 197.876 149.738 197.764 150.13 197.54C150.522 197.316 150.718 196.994 150.718 196.574C150.718 196.35 150.657 196.187 150.536 196.084C150.424 195.991 150.242 195.944 149.99 195.944H147.47L147.61 194.488H153.392ZM159.262 184.52L159.528 185.43L154.642 187.446V186.452L159.262 184.52ZM157.218 194.488C157.573 194.488 157.848 194.427 158.044 194.306C158.24 194.175 158.338 194.003 158.338 193.788C158.338 193.611 158.296 193.447 158.212 193.298C158.128 193.149 157.993 192.976 157.806 192.78L154.642 189.658V188.44L159.822 186.41L160.256 187.796L156.378 189.28L158.884 191.814C159.743 192.663 160.373 193.27 160.774 193.634C161.185 193.989 161.512 194.222 161.754 194.334C161.997 194.437 162.277 194.488 162.594 194.488C162.688 194.488 162.734 194.749 162.734 195.272C162.734 195.757 162.688 196 162.594 196C162.156 196 161.796 195.967 161.516 195.902C161.246 195.827 160.966 195.687 160.676 195.482C160.396 195.277 160.037 194.955 159.598 194.516C159.496 194.973 159.234 195.337 158.814 195.608C158.394 195.869 157.862 196 157.218 196H153.396C153.303 196 153.256 195.757 153.256 195.272C153.256 194.749 153.303 194.488 153.396 194.488H157.218ZM166.448 193.648C166.448 194.385 166.228 194.964 165.79 195.384C165.351 195.795 164.763 196 164.026 196H162.598C162.504 196 162.458 195.757 162.458 195.272C162.458 194.749 162.504 194.488 162.598 194.488H164.026C164.315 194.488 164.548 194.413 164.726 194.264C164.903 194.105 164.992 193.886 164.992 193.606V191.352H166.448V193.648ZM164.082 189.756V188.384H165.762V189.756H164.082ZM170.747 195.552C170.747 196.327 170.593 197.003 170.285 197.582C169.977 198.161 169.539 198.604 168.969 198.912C168.409 199.229 167.756 199.388 167.009 199.388H165.959L165.833 197.876H166.995C167.714 197.876 168.274 197.671 168.675 197.26C169.086 196.859 169.291 196.289 169.291 195.552V191.352H170.747V195.552ZM180.456 190.4C181.044 190.4 181.516 190.535 181.87 190.806C182.225 191.077 182.402 191.473 182.402 191.996C182.402 192.379 182.295 192.743 182.08 193.088C181.866 193.424 181.46 193.858 180.862 194.39C181.058 194.455 181.464 194.488 182.08 194.488H183.536C183.583 194.488 183.616 194.539 183.634 194.642C183.662 194.745 183.676 194.955 183.676 195.272C183.676 195.571 183.662 195.767 183.634 195.86C183.616 195.953 183.583 196 183.536 196H182.08C181.222 196 180.601 195.953 180.218 195.86C179.836 195.767 179.504 195.589 179.224 195.328C178.114 196.028 177.558 196.826 177.558 197.722C177.558 198.273 177.736 198.679 178.09 198.94C178.454 199.201 179.028 199.332 179.812 199.332H182.542L182.416 200.844H179.742C178.501 200.844 177.586 200.592 176.998 200.088C176.41 199.584 176.116 198.814 176.116 197.778C176.116 196.49 176.732 195.379 177.964 194.446L176.172 191.814L176.914 190.4H180.456ZM181.002 192.29C181.002 192.131 180.937 192.01 180.806 191.926C180.685 191.842 180.503 191.8 180.26 191.8H177.796L179.364 194.124C180.008 193.573 180.442 193.172 180.666 192.92C180.89 192.668 181.002 192.458 181.002 192.29ZM187.393 193.648C187.393 194.385 187.174 194.964 186.735 195.384C186.296 195.795 185.708 196 184.971 196H183.543C183.45 196 183.403 195.757 183.403 195.272C183.403 194.749 183.45 194.488 183.543 194.488H184.971C185.26 194.488 185.494 194.413 185.671 194.264C185.848 194.105 185.937 193.886 185.937 193.606V191.352H187.393V193.648ZM183.823 199.01V197.638H185.503V199.01H183.823ZM187.941 197.876C188.659 197.876 189.219 197.671 189.62 197.26C190.031 196.859 190.237 196.289 190.237 195.552V191.352H191.693V193.508C191.693 194.161 192.047 194.488 192.757 194.488H192.953C193.046 194.488 193.093 194.749 193.093 195.272C193.093 195.757 193.046 196 192.953 196H192.757C192.523 196 192.309 195.967 192.113 195.902C191.926 195.827 191.786 195.729 191.693 195.608V195.692C191.674 196.42 191.506 197.064 191.189 197.624C190.881 198.184 190.447 198.618 189.887 198.926C189.336 199.234 188.692 199.388 187.955 199.388H187.548L187.422 197.876H187.941ZM193.285 194.488C193.593 194.488 193.813 194.427 193.943 194.306C194.083 194.175 194.153 193.975 194.153 193.704V193.214C194.153 192.318 194.401 191.609 194.895 191.086C195.399 190.563 196.081 190.302 196.939 190.302C197.798 190.302 198.456 190.554 198.913 191.058C199.371 191.553 199.599 192.267 199.599 193.2C199.599 194.087 199.357 194.777 198.871 195.272C198.395 195.757 197.733 196 196.883 196C196.407 196 196.006 195.935 195.679 195.804C195.353 195.664 195.115 195.473 194.965 195.23C194.797 195.501 194.578 195.697 194.307 195.818C194.046 195.939 193.705 196 193.285 196H192.949C192.856 196 192.809 195.757 192.809 195.272C192.809 194.749 192.856 194.488 192.949 194.488H193.285ZM198.157 193.2C198.157 192.715 198.05 192.355 197.835 192.122C197.63 191.879 197.313 191.758 196.883 191.758C196.454 191.758 196.132 191.879 195.917 192.122C195.712 192.355 195.609 192.719 195.609 193.214C195.609 193.625 195.717 193.942 195.931 194.166C196.146 194.381 196.463 194.488 196.883 194.488C197.313 194.488 197.63 194.385 197.835 194.18C198.05 193.965 198.157 193.639 198.157 193.2ZM208.898 187.152C209.168 188.767 209.532 190.204 209.99 191.464C210.456 192.724 211.077 193.993 211.852 195.272L210.648 196.126C209.36 194.045 208.534 191.921 208.17 189.756C207.768 192.145 206.984 194.269 205.818 196.126L204.558 195.272C205.295 194.105 205.892 192.892 206.35 191.632C206.807 190.363 207.194 188.869 207.512 187.152H208.898Z" fill="#E4E2E7"/>
<rect x="273" y="51" width="30" height="30" fill="#64E9E1" stroke="#4BB8B2" stroke-width="2"/>
<rect x="303" y="51" width="30" height="30" fill="#64E9E1" stroke="#4BB8B2" stroke-width="2"/>
<rect x="333" y="51" width="30" height="30" fill="#64E9E1" stroke="#4BB8B2" stroke-width="2"/>
<rect x="363" y="51" width="30" height="30" fill="#64E9E1" stroke="#4BB8B2" stroke-width="2"/>
<rect x="273" y="81" width="30" height="30" fill="#64E9E1" stroke="#4BB8B2" stroke-width="2"/>
<rect x="303" y="81" width="30" height="30" stroke="#4BB8B2" stroke-width="2"/>
<rect x="333" y="81" width="30" height="30" stroke="#4BB8B2" stroke-width="2"/>
<rect x="363" y="81" width="30" height="30" fill="#64E9E1" stroke="#4BB8B2" stroke-width="2"/>
<rect x="273" y="111" width="30" height="30" fill="#64E9E1" stroke="#4BB8B2" stroke-width="2"/>
<rect x="303" y="111" width="30" height="30" stroke="#4BB8B2" stroke-width="2"/>
<rect x="333" y="111" width="30" height="30" stroke="#4BB8B2" stroke-width="2"/>
<rect x="363" y="111" width="30" height="30" fill="#64E9E1" stroke="#4BB8B2" stroke-width="2"/>
<rect x="273" y="141" width="30" height="30" fill="#64E9E1" stroke="#4BB8B2" stroke-width="2"/>
<rect x="303" y="141" width="30" height="30" fill="#64E9E1" stroke="#4BB8B2" stroke-width="2"/>
<rect x="333" y="141" width="30" height="30" fill="#64E9E1" stroke="#4BB8B2" stroke-width="2"/>
<rect x="363" y="141" width="30" height="30" fill="#64E9E1" stroke="#4BB8B2" stroke-width="2"/>
<path d="M316.697 25.096C316.884 26.2067 316.977 27.028 316.977 27.56C316.977 27.588 316.963 27.714 316.935 27.938C317.131 28.2087 317.406 28.344 317.761 28.344C318.013 28.344 318.223 28.2693 318.391 28.12C318.568 27.9613 318.657 27.7607 318.657 27.518C318.657 27.2193 318.568 26.5147 318.391 25.404L319.833 25.096C320.02 26.2067 320.113 27.028 320.113 27.56C320.113 27.9987 320.015 28.3953 319.819 28.75C319.632 29.0953 319.366 29.366 319.021 29.562C318.685 29.758 318.302 29.856 317.873 29.856C317.537 29.856 317.224 29.8 316.935 29.688C316.655 29.5667 316.445 29.408 316.305 29.212C316.156 29.4173 315.936 29.576 315.647 29.688C315.367 29.8 315.059 29.856 314.723 29.856C314.266 29.856 313.948 29.758 313.771 29.562C313.78 29.7113 313.785 29.9727 313.785 30.346V34H312.343V30.36C312.343 29.4453 312.296 28.6567 312.203 27.994C312.11 27.322 311.923 26.5193 311.643 25.586L313.029 25.096L313.659 27.546C313.799 28.078 314.116 28.344 314.611 28.344C314.863 28.344 315.078 28.2693 315.255 28.12C315.432 27.9613 315.521 27.7607 315.521 27.518C315.521 27.2007 315.428 26.496 315.241 25.404L316.697 25.096ZM329.073 37.388C327.878 37.388 326.959 37.0427 326.315 36.352C325.671 35.6707 325.349 34.7093 325.349 33.468V30.752H326.791V33.44C326.791 35.064 327.556 35.876 329.087 35.876H329.661C330.407 35.876 330.995 35.6707 331.425 35.26C331.854 34.8493 332.069 34.2847 332.069 33.566V24.956H333.525V31.62C333.525 31.8907 333.604 32.1053 333.763 32.264C333.931 32.4133 334.169 32.488 334.477 32.488H334.799C334.892 32.488 334.939 32.7493 334.939 33.272C334.939 33.7573 334.892 34 334.799 34H334.533C334.318 34 334.117 33.972 333.931 33.916C333.753 33.86 333.618 33.79 333.525 33.706V33.776C333.506 34.476 333.333 35.1013 333.007 35.652C332.68 36.2027 332.227 36.6273 331.649 36.926C331.07 37.234 330.407 37.388 329.661 37.388H329.073ZM338.621 32.488C338.975 32.488 339.251 32.4273 339.447 32.306C339.643 32.1753 339.741 32.0027 339.741 31.788C339.741 31.6107 339.699 31.4473 339.615 31.298C339.531 31.1487 339.395 30.976 339.209 30.78L336.045 27.658V26.44L341.225 24.41L341.659 25.796L337.781 27.28L340.287 29.814C341.145 30.6633 341.775 31.27 342.177 31.634C342.587 31.9887 342.914 32.222 343.157 32.334C343.399 32.4367 343.679 32.488 343.997 32.488C344.09 32.488 344.137 32.7493 344.137 33.272C344.137 33.7573 344.09 34 343.997 34C343.558 34 343.199 33.9673 342.919 33.902C342.648 33.8273 342.368 33.6873 342.079 33.482C341.799 33.2767 341.439 32.9547 341.001 32.516C340.898 32.9733 340.637 33.3373 340.217 33.608C339.797 33.8693 339.265 34 338.621 34H334.799C334.705 34 334.659 33.7573 334.659 33.272C334.659 32.7493 334.705 32.488 334.799 32.488H338.621ZM345.106 32.488C345.489 32.488 345.778 32.404 345.974 32.236C346.17 32.0587 346.268 31.8113 346.268 31.494V29.352H347.724V31.494C347.724 32.1567 348.102 32.488 348.858 32.488C349.241 32.488 349.53 32.404 349.726 32.236C349.922 32.0587 350.02 31.8113 350.02 31.494V29.352H351.476V31.494C351.476 31.8113 351.565 32.0587 351.742 32.236C351.919 32.404 352.185 32.488 352.54 32.488C352.904 32.488 353.175 32.404 353.352 32.236C353.539 32.0587 353.632 31.8113 353.632 31.494V29.352H355.074V31.48C355.074 32.2733 354.85 32.894 354.402 33.342C353.954 33.7807 353.333 34 352.54 34C351.588 34 350.972 33.7293 350.692 33.188C350.328 33.7293 349.717 34 348.858 34C348.335 34 347.92 33.9347 347.612 33.804C347.304 33.664 347.08 33.4587 346.94 33.188C346.576 33.7293 345.965 34 345.106 34H344C343.907 34 343.86 33.7573 343.86 33.272C343.86 32.7493 343.907 32.488 344 32.488H345.106ZM351.434 24.354V25.656H349.964V24.354H351.434ZM352.596 26.412V27.756H348.788V26.412H352.596Z" fill="#E4E2E7"/>
<path d="M309.392 194.488C309.485 194.488 309.532 194.749 309.532 195.272C309.532 195.757 309.485 196 309.392 196H308.02C308.122 196.121 308.174 196.308 308.174 196.56C308.174 197.111 308.015 197.601 307.698 198.03C307.38 198.459 306.932 198.791 306.354 199.024C305.775 199.267 305.108 199.388 304.352 199.388H303.288C302.093 199.388 301.174 199.043 300.53 198.352C299.886 197.671 299.564 196.709 299.564 195.468V192.752H301.006V195.44C301.006 197.064 301.771 197.876 303.302 197.876H304.352C305.145 197.876 305.738 197.764 306.13 197.54C306.522 197.316 306.718 196.994 306.718 196.574C306.718 196.35 306.657 196.187 306.536 196.084C306.424 195.991 306.242 195.944 305.99 195.944H303.47L303.61 194.488H309.392ZM315.262 184.52L315.528 185.43L310.642 187.446V186.452L315.262 184.52ZM313.218 194.488C313.573 194.488 313.848 194.427 314.044 194.306C314.24 194.175 314.338 194.003 314.338 193.788C314.338 193.611 314.296 193.447 314.212 193.298C314.128 193.149 313.993 192.976 313.806 192.78L310.642 189.658V188.44L315.822 186.41L316.256 187.796L312.378 189.28L314.884 191.814C315.743 192.663 316.373 193.27 316.774 193.634C317.185 193.989 317.512 194.222 317.754 194.334C317.997 194.437 318.277 194.488 318.594 194.488C318.688 194.488 318.734 194.749 318.734 195.272C318.734 195.757 318.688 196 318.594 196C318.156 196 317.796 195.967 317.516 195.902C317.246 195.827 316.966 195.687 316.676 195.482C316.396 195.277 316.037 194.955 315.598 194.516C315.496 194.973 315.234 195.337 314.814 195.608C314.394 195.869 313.862 196 313.218 196H309.396C309.303 196 309.256 195.757 309.256 195.272C309.256 194.749 309.303 194.488 309.396 194.488H313.218ZM322.448 193.648C322.448 194.385 322.228 194.964 321.79 195.384C321.351 195.795 320.763 196 320.026 196H318.598C318.504 196 318.458 195.757 318.458 195.272C318.458 194.749 318.504 194.488 318.598 194.488H320.026C320.315 194.488 320.548 194.413 320.726 194.264C320.903 194.105 320.992 193.886 320.992 193.606V191.352H322.448V193.648ZM320.082 189.756V188.384H321.762V189.756H320.082ZM326.747 195.552C326.747 196.327 326.593 197.003 326.285 197.582C325.977 198.161 325.539 198.604 324.969 198.912C324.409 199.229 323.756 199.388 323.009 199.388H321.959L321.833 197.876H322.995C323.714 197.876 324.274 197.671 324.675 197.26C325.086 196.859 325.291 196.289 325.291 195.552V191.352H326.747V195.552ZM336.456 190.4C337.044 190.4 337.516 190.535 337.87 190.806C338.225 191.077 338.402 191.473 338.402 191.996C338.402 192.379 338.295 192.743 338.08 193.088C337.866 193.424 337.46 193.858 336.862 194.39C337.058 194.455 337.464 194.488 338.08 194.488H339.536C339.583 194.488 339.616 194.539 339.634 194.642C339.662 194.745 339.676 194.955 339.676 195.272C339.676 195.571 339.662 195.767 339.634 195.86C339.616 195.953 339.583 196 339.536 196H338.08C337.222 196 336.601 195.953 336.218 195.86C335.836 195.767 335.504 195.589 335.224 195.328C334.114 196.028 333.558 196.826 333.558 197.722C333.558 198.273 333.736 198.679 334.09 198.94C334.454 199.201 335.028 199.332 335.812 199.332H338.542L338.416 200.844H335.742C334.501 200.844 333.586 200.592 332.998 200.088C332.41 199.584 332.116 198.814 332.116 197.778C332.116 196.49 332.732 195.379 333.964 194.446L332.172 191.814L332.914 190.4H336.456ZM337.002 192.29C337.002 192.131 336.937 192.01 336.806 191.926C336.685 191.842 336.503 191.8 336.26 191.8H333.796L335.364 194.124C336.008 193.573 336.442 193.172 336.666 192.92C336.89 192.668 337.002 192.458 337.002 192.29ZM343.393 193.648C343.393 194.385 343.174 194.964 342.735 195.384C342.296 195.795 341.708 196 340.971 196H339.543C339.45 196 339.403 195.757 339.403 195.272C339.403 194.749 339.45 194.488 339.543 194.488H340.971C341.26 194.488 341.494 194.413 341.671 194.264C341.848 194.105 341.937 193.886 341.937 193.606V191.352H343.393V193.648ZM339.823 199.01V197.638H341.503V199.01H339.823ZM343.941 197.876C344.659 197.876 345.219 197.671 345.62 197.26C346.031 196.859 346.237 196.289 346.237 195.552V191.352H347.693V193.508C347.693 194.161 348.047 194.488 348.757 194.488H348.953C349.046 194.488 349.093 194.749 349.093 195.272C349.093 195.757 349.046 196 348.953 196H348.757C348.523 196 348.309 195.967 348.113 195.902C347.926 195.827 347.786 195.729 347.693 195.608V195.692C347.674 196.42 347.506 197.064 347.189 197.624C346.881 198.184 346.447 198.618 345.887 198.926C345.336 199.234 344.692 199.388 343.955 199.388H343.548L343.422 197.876H343.941ZM349.285 194.488C349.593 194.488 349.813 194.427 349.943 194.306C350.083 194.175 350.153 193.975 350.153 193.704V193.214C350.153 192.318 350.401 191.609 350.895 191.086C351.399 190.563 352.081 190.302 352.939 190.302C353.798 190.302 354.456 190.554 354.913 191.058C355.371 191.553 355.599 192.267 355.599 193.2C355.599 194.087 355.357 194.777 354.871 195.272C354.395 195.757 353.733 196 352.883 196C352.407 196 352.006 195.935 351.679 195.804C351.353 195.664 351.115 195.473 350.965 195.23C350.797 195.501 350.578 195.697 350.307 195.818C350.046 195.939 349.705 196 349.285 196H348.949C348.856 196 348.809 195.757 348.809 195.272C348.809 194.749 348.856 194.488 348.949 194.488H349.285ZM354.157 193.2C354.157 192.715 354.05 192.355 353.835 192.122C353.63 191.879 353.313 191.758 352.883 191.758C352.454 191.758 352.132 191.879 351.917 192.122C351.712 192.355 351.609 192.719 351.609 193.214C351.609 193.625 351.717 193.942 351.931 194.166C352.146 194.381 352.463 194.488 352.883 194.488C353.313 194.488 353.63 194.385 353.835 194.18C354.05 193.965 354.157 193.639 354.157 193.2ZM364.898 187.152C365.168 188.767 365.532 190.204 365.99 191.464C366.456 192.724 367.077 193.993 367.852 195.272L366.648 196.126C365.36 194.045 364.534 191.921 364.17 189.756C363.768 192.145 362.984 194.269 361.818 196.126L360.558 195.272C361.295 194.105 361.892 192.892 362.35 191.632C362.807 190.363 363.194 188.869 363.512 187.152H364.898Z" fill="#E4E2E7"/>
</svg>
