<svg width="452" height="191" viewBox="0 0 452 191" fill="none" xmlns="http://www.w3.org/2000/svg">
<rect width="77" height="45" transform="translate(30 55)" fill="#D491E0" fill-opacity="0.17"/>
<path d="M62.2565 78.908C62.2565 77.852 62.5791 76.7447 63.2245 75.586C63.8845 74.4127 64.9625 73.1293 66.4585 71.736L65.5125 70.878L67.2285 68.788C69.1645 70.24 70.6751 71.5087 71.7605 72.594C72.8458 73.6793 73.6158 74.6913 74.0705 75.63C74.5251 76.554 74.7525 77.5293 74.7525 78.556C74.7525 79.48 74.5691 80.2793 74.2025 80.954C73.8358 81.6287 73.3518 82.142 72.7505 82.494C72.1638 82.8313 71.5331 83 70.8585 83C69.6705 83 68.8345 82.714 68.3505 82.142C68.1158 82.4207 67.7858 82.6333 67.3605 82.78C66.9498 82.9267 66.4805 83 65.9525 83C64.7791 83 63.8698 82.6407 63.2245 81.922C62.5791 81.1887 62.2565 80.184 62.2565 78.908ZM71.9585 78.534C71.9585 77.698 71.6798 76.884 71.1225 76.092C70.5651 75.3 69.6705 74.42 68.4385 73.452C67.2651 74.464 66.3998 75.3953 65.8425 76.246C65.2998 77.082 65.0285 77.9107 65.0285 78.732C65.0285 79.6267 65.4098 80.074 66.1725 80.074C66.5685 80.074 66.8691 79.9567 67.0745 79.722C67.2798 79.4873 67.3825 79.1573 67.3825 78.732V77.324H69.8245V78.798C69.8245 79.1793 69.7951 79.48 69.7365 79.7C69.9271 79.9493 70.2938 80.074 70.8365 80.074C71.1591 80.074 71.4231 79.942 71.6285 79.678C71.8485 79.414 71.9585 79.0327 71.9585 78.534Z" fill="white"/>
<rect width="77" height="45" transform="translate(113 55)" fill="#D491E0" fill-opacity="0.17"/>
<path d="M152.847 69.162C153.287 71.6847 153.837 73.8847 154.497 75.762C155.171 77.6247 156.11 79.5753 157.313 81.614L154.937 83.242C154.027 81.7167 153.287 80.206 152.715 78.71C152.143 77.1993 151.725 75.6373 151.461 74.024C151.182 75.7107 150.779 77.302 150.251 78.798C149.737 80.294 149.041 81.7753 148.161 83.242L145.697 81.614C146.826 79.722 147.728 77.8373 148.403 75.96C149.077 74.068 149.657 71.802 150.141 69.162H152.847Z" fill="white"/>
<rect width="77" height="45" transform="translate(196 55)" fill="#D491E0" fill-opacity="0.17"/>
<path d="M230.028 77.39C230.028 75.9527 229.954 74.7207 229.808 73.694C229.661 72.6673 229.368 71.428 228.928 69.976L231.656 69.03C232.125 70.482 232.433 71.78 232.58 72.924C232.741 74.0533 232.822 75.5273 232.822 77.346V83H230.028V77.39ZM236.623 77.39C236.623 75.9527 236.55 74.7207 236.403 73.694C236.257 72.6673 235.963 71.428 235.523 69.976L238.251 69.03C238.721 70.482 239.029 71.78 239.175 72.924C239.337 74.0533 239.417 75.5273 239.417 77.346V83H236.623V77.39Z" fill="white"/>
<rect width="77" height="45" transform="translate(279 55)" fill="#D491E0" fill-opacity="0.17"/>
<path d="M309.053 77.39C309.053 75.9527 308.98 74.7207 308.833 73.694C308.686 72.6673 308.393 71.428 307.953 69.976L310.681 69.03C311.15 70.482 311.458 71.78 311.605 72.924C311.766 74.0533 311.847 75.5273 311.847 77.346V83H309.053V77.39ZM319.389 74.596C319.183 74.1707 319.081 73.6353 319.081 72.99C319.081 72.2713 319.264 71.6113 319.631 71.01C320.012 70.394 320.525 69.91 321.171 69.558C321.831 69.206 322.557 69.03 323.349 69.03C324.287 69.03 325.248 69.25 326.231 69.69L325.527 72.264C324.764 71.9707 324.075 71.824 323.459 71.824C322.96 71.824 322.557 71.9707 322.249 72.264C321.955 72.5573 321.809 72.924 321.809 73.364C321.809 73.848 321.933 74.222 322.183 74.486C322.447 74.75 322.769 74.882 323.151 74.882C323.957 74.882 324.969 74.6327 326.187 74.134L326.869 76.708C325.255 77.4267 323.671 77.786 322.117 77.786C321.339 77.786 320.635 77.72 320.005 77.588C319.374 77.4413 318.853 77.2433 318.443 76.994V77.698V83H315.649V77.39C315.649 75.9527 315.575 74.7207 315.429 73.694C315.282 72.6673 314.989 71.428 314.549 69.976L317.233 69.03C317.394 69.5287 317.57 70.218 317.761 71.098C317.951 71.978 318.105 72.77 318.223 73.474C318.281 73.782 318.391 74.024 318.553 74.2C318.714 74.3613 318.993 74.4933 319.389 74.596Z" fill="white"/>
<rect width="77" height="45" transform="translate(362 55)" fill="#D491E0" fill-opacity="0.17"/>
<path d="M394.256 83C393.714 83 393.303 82.868 393.024 82.604C392.76 82.3253 392.628 81.8853 392.628 81.284C392.628 80.6827 392.76 80.2573 393.024 80.008C393.303 79.7587 393.714 79.634 394.256 79.634C394.814 79.634 395.224 79.7587 395.488 80.008C395.767 80.2573 395.906 80.6827 395.906 81.284C395.906 81.8853 395.767 82.3253 395.488 82.604C395.224 82.868 394.814 83 394.256 83ZM400.487 83C399.944 83 399.533 82.868 399.255 82.604C398.991 82.3253 398.859 81.8853 398.859 81.284C398.859 80.6827 398.991 80.2573 399.255 80.008C399.533 79.7587 399.944 79.634 400.487 79.634C401.044 79.634 401.455 79.7587 401.719 80.008C401.997 80.2573 402.137 80.6827 402.137 81.284C402.137 81.8853 401.997 82.3253 401.719 82.604C401.455 82.868 401.044 83 400.487 83ZM406.717 83C406.175 83 405.764 82.868 405.485 82.604C405.221 82.3253 405.089 81.8853 405.089 81.284C405.089 80.6827 405.221 80.2573 405.485 80.008C405.764 79.7587 406.175 79.634 406.717 79.634C407.275 79.634 407.685 79.7587 407.949 80.008C408.228 80.2573 408.367 80.6827 408.367 81.284C408.367 81.8853 408.228 82.3253 407.949 82.604C407.685 82.868 407.275 83 406.717 83Z" fill="white"/>
<path d="M91.4935 160.214H95.0575V156.738H97.8515V160.214H101.438V163.008H97.8515V166.528H95.0575V163.008H91.4935V160.214ZM112.304 152.03C112.597 153.746 112.744 155.066 112.744 155.99C112.744 156.122 112.729 156.261 112.7 156.408C112.817 156.569 112.957 156.694 113.118 156.782C113.294 156.855 113.514 156.892 113.778 156.892C114.086 156.892 114.343 156.804 114.548 156.628C114.768 156.437 114.878 156.188 114.878 155.88C114.878 155.44 114.739 154.347 114.46 152.602L117.276 152.03C117.555 153.805 117.694 155.139 117.694 156.034C117.694 156.767 117.533 157.42 117.21 157.992C116.902 158.564 116.469 159.011 115.912 159.334C115.369 159.657 114.746 159.818 114.042 159.818C113.499 159.818 113.001 159.73 112.546 159.554C112.091 159.363 111.761 159.129 111.556 158.85C111.321 159.158 110.977 159.4 110.522 159.576C110.082 159.737 109.605 159.818 109.092 159.818C108.52 159.818 108.102 159.737 107.838 159.576V160.346V166H105.044V160.39C105.044 158.953 104.971 157.721 104.824 156.694C104.677 155.667 104.384 154.428 103.944 152.976L106.628 152.03L107.618 155.858C107.779 156.547 108.183 156.892 108.828 156.892C109.151 156.892 109.415 156.804 109.62 156.628C109.84 156.437 109.95 156.188 109.95 155.88C109.95 155.469 109.803 154.377 109.51 152.602L112.304 152.03Z" fill="white"/>
<path d="M173.494 160.214H177.058V156.738H179.852V160.214H183.438V163.008H179.852V166.528H177.058V163.008H173.494V160.214ZM194.304 152.03C194.597 153.746 194.744 155.066 194.744 155.99C194.744 156.122 194.729 156.261 194.7 156.408C194.817 156.569 194.957 156.694 195.118 156.782C195.294 156.855 195.514 156.892 195.778 156.892C196.086 156.892 196.343 156.804 196.548 156.628C196.768 156.437 196.878 156.188 196.878 155.88C196.878 155.44 196.739 154.347 196.46 152.602L199.276 152.03C199.555 153.805 199.694 155.139 199.694 156.034C199.694 156.767 199.533 157.42 199.21 157.992C198.902 158.564 198.469 159.011 197.912 159.334C197.369 159.657 196.746 159.818 196.042 159.818C195.499 159.818 195.001 159.73 194.546 159.554C194.091 159.363 193.761 159.129 193.556 158.85C193.321 159.158 192.977 159.4 192.522 159.576C192.082 159.737 191.605 159.818 191.092 159.818C190.52 159.818 190.102 159.737 189.838 159.576V160.346V166H187.044V160.39C187.044 158.953 186.971 157.721 186.824 156.694C186.677 155.667 186.384 154.428 185.944 152.976L188.628 152.03L189.618 155.858C189.779 156.547 190.183 156.892 190.828 156.892C191.151 156.892 191.415 156.804 191.62 156.628C191.84 156.437 191.95 156.188 191.95 155.88C191.95 155.469 191.803 154.377 191.51 152.602L194.304 152.03Z" fill="white"/>
<path d="M255.494 160.214H259.058V156.738H261.852V160.214H265.438V163.008H261.852V166.528H259.058V163.008H255.494V160.214ZM276.304 152.03C276.597 153.746 276.744 155.066 276.744 155.99C276.744 156.122 276.729 156.261 276.7 156.408C276.817 156.569 276.957 156.694 277.118 156.782C277.294 156.855 277.514 156.892 277.778 156.892C278.086 156.892 278.343 156.804 278.548 156.628C278.768 156.437 278.878 156.188 278.878 155.88C278.878 155.44 278.739 154.347 278.46 152.602L281.276 152.03C281.555 153.805 281.694 155.139 281.694 156.034C281.694 156.767 281.533 157.42 281.21 157.992C280.902 158.564 280.469 159.011 279.912 159.334C279.369 159.657 278.746 159.818 278.042 159.818C277.499 159.818 277.001 159.73 276.546 159.554C276.091 159.363 275.761 159.129 275.556 158.85C275.321 159.158 274.977 159.4 274.522 159.576C274.082 159.737 273.605 159.818 273.092 159.818C272.52 159.818 272.102 159.737 271.838 159.576V160.346V166H269.044V160.39C269.044 158.953 268.971 157.721 268.824 156.694C268.677 155.667 268.384 154.428 267.944 152.976L270.628 152.03L271.618 155.858C271.779 156.547 272.183 156.892 272.828 156.892C273.151 156.892 273.415 156.804 273.62 156.628C273.84 156.437 273.95 156.188 273.95 155.88C273.95 155.469 273.803 154.377 273.51 152.602L276.304 152.03Z" fill="white"/>
<g clip-path="url(#clip0_1752_142)">
<path d="M64.2785 37.032C63.4865 37.824 62.3718 38.22 60.9345 38.22C59.9665 38.22 59.1745 37.9707 58.5585 37.472C57.9571 36.9587 57.6565 36.1813 57.6565 35.14C57.6565 33.0133 58.9105 31.95 61.4185 31.95H64.1905V31.4C64.1905 30.872 64.0145 30.4833 63.6625 30.234C63.3251 29.9847 62.7385 29.86 61.9025 29.86C60.8758 29.86 59.8345 30.036 58.7785 30.388V28.54C59.2771 28.32 59.8565 28.1587 60.5165 28.056C61.1765 27.9387 61.8438 27.88 62.5185 27.88C63.9705 27.88 65.0851 28.2027 65.8625 28.848C66.6398 29.4787 67.0285 30.4613 67.0285 31.796V38H64.4325L64.2785 37.032ZM60.4285 35.03C60.4285 35.8953 60.9565 36.328 62.0125 36.328C62.4818 36.328 62.8851 36.2547 63.2225 36.108C63.5745 35.9613 63.8971 35.7267 64.1905 35.404V33.71H62.1445C61.6018 33.71 61.1765 33.8127 60.8685 34.018C60.5751 34.2087 60.4285 34.546 60.4285 35.03Z" fill="white"/>
<path d="M64.2785 37.032C63.4865 37.824 62.3718 38.22 60.9345 38.22C59.9665 38.22 59.1745 37.9707 58.5585 37.472C57.9571 36.9587 57.6565 36.1813 57.6565 35.14C57.6565 33.0133 58.9105 31.95 61.4185 31.95H64.1905V31.4C64.1905 30.872 64.0145 30.4833 63.6625 30.234C63.3251 29.9847 62.7385 29.86 61.9025 29.86C60.8758 29.86 59.8345 30.036 58.7785 30.388V28.54C59.2771 28.32 59.8565 28.1587 60.5165 28.056C61.1765 27.9387 61.8438 27.88 62.5185 27.88C63.9705 27.88 65.0851 28.2027 65.8625 28.848C66.6398 29.4787 67.0285 30.4613 67.0285 31.796V38H64.4325L64.2785 37.032ZM60.4285 35.03C60.4285 35.8953 60.9565 36.328 62.0125 36.328C62.4818 36.328 62.8851 36.2547 63.2225 36.108C63.5745 35.9613 63.8971 35.7267 64.1905 35.404V33.71H62.1445C61.6018 33.71 61.1765 33.8127 60.8685 34.018C60.5751 34.2087 60.4285 34.546 60.4285 35.03Z" fill="white"/>
</g>
<g clip-path="url(#clip1_1752_142)">
<path d="M64.2785 37.032C63.4865 37.824 62.3718 38.22 60.9345 38.22C59.9665 38.22 59.1745 37.9707 58.5585 37.472C57.9571 36.9587 57.6565 36.1813 57.6565 35.14C57.6565 33.0133 58.9105 31.95 61.4185 31.95H64.1905V31.4C64.1905 30.872 64.0145 30.4833 63.6625 30.234C63.3251 29.9847 62.7385 29.86 61.9025 29.86C60.8758 29.86 59.8345 30.036 58.7785 30.388V28.54C59.2771 28.32 59.8565 28.1587 60.5165 28.056C61.1765 27.9387 61.8438 27.88 62.5185 27.88C63.9705 27.88 65.0851 28.2027 65.8625 28.848C66.6398 29.4787 67.0285 30.4613 67.0285 31.796V38H64.4325L64.2785 37.032ZM60.4285 35.03C60.4285 35.8953 60.9565 36.328 62.0125 36.328C62.4818 36.328 62.8851 36.2547 63.2225 36.108C63.5745 35.9613 63.8971 35.7267 64.1905 35.404V33.71H62.1445C61.6018 33.71 61.1765 33.8127 60.8685 34.018C60.5751 34.2087 60.4285 34.546 60.4285 35.03Z" fill="white"/>
</g>
<g clip-path="url(#clip2_1752_142)">
<path d="M147.278 37.032C146.486 37.824 145.372 38.22 143.934 38.22C142.966 38.22 142.174 37.9707 141.558 37.472C140.957 36.9587 140.656 36.1813 140.656 35.14C140.656 33.0133 141.91 31.95 144.418 31.95H147.19V31.4C147.19 30.872 147.014 30.4833 146.662 30.234C146.325 29.9847 145.738 29.86 144.902 29.86C143.876 29.86 142.834 30.036 141.778 30.388V28.54C142.277 28.32 142.856 28.1587 143.516 28.056C144.176 27.9387 144.844 27.88 145.518 27.88C146.97 27.88 148.085 28.2027 148.862 28.848C149.64 29.4787 150.028 30.4613 150.028 31.796V38H147.432L147.278 37.032ZM143.428 35.03C143.428 35.8953 143.956 36.328 145.012 36.328C145.482 36.328 145.885 36.2547 146.222 36.108C146.574 35.9613 146.897 35.7267 147.19 35.404V33.71H145.144C144.602 33.71 144.176 33.8127 143.868 34.018C143.575 34.2087 143.428 34.546 143.428 35.03Z" fill="white"/>
</g>
<g clip-path="url(#clip3_1752_142)">
<path d="M230.278 37.032C229.486 37.824 228.372 38.22 226.934 38.22C225.966 38.22 225.174 37.9707 224.558 37.472C223.957 36.9587 223.656 36.1813 223.656 35.14C223.656 33.0133 224.91 31.95 227.418 31.95H230.19V31.4C230.19 30.872 230.014 30.4833 229.662 30.234C229.325 29.9847 228.738 29.86 227.902 29.86C226.876 29.86 225.834 30.036 224.778 30.388V28.54C225.277 28.32 225.856 28.1587 226.516 28.056C227.176 27.9387 227.844 27.88 228.518 27.88C229.97 27.88 231.085 28.2027 231.862 28.848C232.64 29.4787 233.028 30.4613 233.028 31.796V38H230.432L230.278 37.032ZM226.428 35.03C226.428 35.8953 226.956 36.328 228.012 36.328C228.482 36.328 228.885 36.2547 229.222 36.108C229.574 35.9613 229.897 35.7267 230.19 35.404V33.71H228.144C227.602 33.71 227.176 33.8127 226.868 34.018C226.575 34.2087 226.428 34.546 226.428 35.03Z" fill="white"/>
</g>
<g clip-path="url(#clip4_1752_142)">
<path d="M313.278 37.032C312.486 37.824 311.372 38.22 309.934 38.22C308.966 38.22 308.174 37.9707 307.558 37.472C306.957 36.9587 306.656 36.1813 306.656 35.14C306.656 33.0133 307.91 31.95 310.418 31.95H313.19V31.4C313.19 30.872 313.014 30.4833 312.662 30.234C312.325 29.9847 311.738 29.86 310.902 29.86C309.876 29.86 308.834 30.036 307.778 30.388V28.54C308.277 28.32 308.856 28.1587 309.516 28.056C310.176 27.9387 310.844 27.88 311.518 27.88C312.97 27.88 314.085 28.2027 314.862 28.848C315.64 29.4787 316.028 30.4613 316.028 31.796V38H313.432L313.278 37.032ZM309.428 35.03C309.428 35.8953 309.956 36.328 311.012 36.328C311.482 36.328 311.885 36.2547 312.222 36.108C312.574 35.9613 312.897 35.7267 313.19 35.404V33.71H311.144C310.602 33.71 310.176 33.8127 309.868 34.018C309.575 34.2087 309.428 34.546 309.428 35.03Z" fill="white"/>
</g>
<g clip-path="url(#clip5_1752_142)">
<path d="M71.6991 40.175C71.6991 39.195 71.6491 38.355 71.5491 37.655C71.4491 36.955 71.2491 36.11 70.9491 35.12L72.8091 34.475C73.1291 35.465 73.3391 36.35 73.4391 37.13C73.5491 37.9 73.6041 38.905 73.6041 40.145V44H71.6991V40.175Z" fill="white"/>
</g>
<g clip-path="url(#clip6_1752_142)">
<path d="M155.921 39.785C155.531 39.785 155.246 39.73 155.066 39.62V40.145V44H153.161V40.175C153.161 39.195 153.111 38.355 153.011 37.655C152.911 36.955 152.711 36.11 152.411 35.12L154.241 34.475L154.916 37.085C155.026 37.555 155.301 37.79 155.741 37.79C155.961 37.79 156.141 37.73 156.281 37.61C156.431 37.48 156.506 37.31 156.506 37.1C156.506 36.82 156.406 36.075 156.206 34.865L158.126 34.475C158.326 35.685 158.426 36.595 158.426 37.205C158.426 37.705 158.316 38.15 158.096 38.54C157.886 38.93 157.591 39.235 157.211 39.455C156.831 39.675 156.401 39.785 155.921 39.785Z" fill="white"/>
</g>
<g clip-path="url(#clip7_1752_142)">
<path d="M242.426 34.475C242.626 35.645 242.726 36.545 242.726 37.175C242.726 37.265 242.716 37.36 242.696 37.46C242.776 37.57 242.871 37.655 242.981 37.715C243.101 37.765 243.251 37.79 243.431 37.79C243.641 37.79 243.816 37.73 243.956 37.61C244.106 37.48 244.181 37.31 244.181 37.1C244.181 36.8 244.086 36.055 243.896 34.865L245.816 34.475C246.006 35.685 246.101 36.595 246.101 37.205C246.101 37.705 245.991 38.15 245.771 38.54C245.561 38.93 245.266 39.235 244.886 39.455C244.516 39.675 244.091 39.785 243.611 39.785C243.241 39.785 242.901 39.725 242.591 39.605C242.281 39.475 242.056 39.315 241.916 39.125C241.756 39.335 241.521 39.5 241.211 39.62C240.911 39.73 240.586 39.785 240.236 39.785C239.846 39.785 239.561 39.73 239.381 39.62V40.145V44H237.476V40.175C237.476 39.195 237.426 38.355 237.326 37.655C237.226 36.955 237.026 36.11 236.726 35.12L238.556 34.475L239.231 37.085C239.341 37.555 239.616 37.79 240.056 37.79C240.276 37.79 240.456 37.73 240.596 37.61C240.746 37.48 240.821 37.31 240.821 37.1C240.821 36.82 240.721 36.075 240.521 34.865L242.426 34.475Z" fill="white"/>
</g>
<path d="M144.686 105.279C144.288 104.896 143.655 104.909 143.272 105.307L137.031 111.791C136.648 112.189 136.66 112.822 137.058 113.205C137.456 113.588 138.089 113.576 138.472 113.178L144.019 107.414L149.784 112.961C150.182 113.344 150.815 113.332 151.198 112.934C151.581 112.536 151.568 111.903 151.171 111.52L144.686 105.279ZM71 106C71 118.257 75.6709 127.369 82.7237 133.362C89.7545 139.336 99.083 142.155 108.34 141.993C117.597 141.832 126.86 138.691 133.769 132.643C140.7 126.577 145.215 117.625 144.992 105.981L142.992 106.019C143.205 117.074 138.938 125.461 132.452 131.138C125.945 136.834 117.155 139.84 108.305 139.994C99.4555 140.148 90.6227 137.449 84.0188 131.838C77.437 126.245 73 117.702 73 106H71Z" fill="white"/>
<path d="M226.686 105.279C226.288 104.896 225.655 104.909 225.272 105.307L219.031 111.791C218.648 112.189 218.66 112.822 219.058 113.205C219.456 113.588 220.089 113.576 220.472 113.178L226.019 107.414L231.784 112.961C232.182 113.344 232.815 113.332 233.198 112.934C233.581 112.536 233.568 111.903 233.171 111.52L226.686 105.279ZM153 106C153 118.257 157.671 127.369 164.724 133.362C171.754 139.336 181.083 142.155 190.34 141.993C199.597 141.832 208.86 138.691 215.769 132.643C222.7 126.577 227.215 117.625 226.992 105.981L224.992 106.019C225.205 117.074 220.938 125.461 214.452 131.138C207.945 136.834 199.155 139.84 190.305 139.994C181.455 140.148 172.623 137.449 166.019 131.838C159.437 126.245 155 117.702 155 106H153Z" fill="white"/>
<g clip-path="url(#clip8_1752_142)">
<path d="M323.539 38.27C323.399 37.98 323.329 37.615 323.329 37.175C323.329 36.685 323.454 36.235 323.704 35.825C323.964 35.405 324.314 35.075 324.754 34.835C325.204 34.595 325.699 34.475 326.239 34.475C326.879 34.475 327.534 34.625 328.204 34.925L327.724 36.68C327.204 36.48 326.734 36.38 326.314 36.38C325.974 36.38 325.699 36.48 325.489 36.68C325.289 36.88 325.189 37.13 325.189 37.43C325.189 37.76 325.274 38.015 325.444 38.195C325.624 38.375 325.844 38.465 326.104 38.465C326.654 38.465 327.344 38.295 328.174 37.955L328.639 39.71C327.539 40.2 326.459 40.445 325.399 40.445C324.869 40.445 324.389 40.4 323.959 40.31C323.529 40.21 323.174 40.075 322.894 39.905V40.385V44H320.989V40.175C320.989 39.195 320.939 38.355 320.839 37.655C320.739 36.955 320.539 36.11 320.239 35.12L322.069 34.475C322.179 34.815 322.299 35.285 322.429 35.885C322.559 36.485 322.664 37.025 322.744 37.505C322.784 37.715 322.859 37.88 322.969 38C323.079 38.11 323.269 38.2 323.539 38.27Z" fill="white"/>
</g>
<path d="M308.686 105.279C308.288 104.896 307.655 104.909 307.272 105.307L301.031 111.791C300.648 112.189 300.66 112.822 301.058 113.205C301.456 113.588 302.089 113.576 302.472 113.178L308.019 107.414L313.784 112.961C314.182 113.344 314.815 113.332 315.198 112.934C315.581 112.536 315.568 111.903 315.171 111.52L308.686 105.279ZM235 106C235 118.257 239.671 127.369 246.724 133.362C253.754 139.336 263.083 142.155 272.34 141.993C281.597 141.832 290.86 138.691 297.769 132.643C304.7 126.577 309.215 117.625 308.992 105.981L306.992 106.019C307.205 117.074 302.938 125.461 296.452 131.138C289.945 136.834 281.155 139.84 272.305 139.994C263.455 140.148 254.623 137.449 248.019 131.838C241.437 126.245 237 117.702 237 106H235Z" fill="white"/>
<defs>
<clipPath id="clip0_1752_142">
<rect width="77" height="45" fill="white" transform="translate(30 16)"/>
</clipPath>
<clipPath id="clip1_1752_142">
<rect width="77" height="45" fill="white" transform="translate(30 16)"/>
</clipPath>
<clipPath id="clip2_1752_142">
<rect width="77" height="45" fill="white" transform="translate(113 16)"/>
</clipPath>
<clipPath id="clip3_1752_142">
<rect width="77" height="45" fill="white" transform="translate(196 16)"/>
</clipPath>
<clipPath id="clip4_1752_142">
<rect width="77" height="45" fill="white" transform="translate(279 16)"/>
</clipPath>
<clipPath id="clip5_1752_142">
<rect width="77" height="45" fill="white" transform="translate(43 24)"/>
</clipPath>
<clipPath id="clip6_1752_142">
<rect width="77" height="45" fill="white" transform="translate(126 24)"/>
</clipPath>
<clipPath id="clip7_1752_142">
<rect width="77" height="45" fill="white" transform="translate(209 24)"/>
</clipPath>
<clipPath id="clip8_1752_142">
<rect width="77" height="45" fill="white" transform="translate(292 24)"/>
</clipPath>
</defs>
</svg>
