<svg width="228" height="199" viewBox="0 0 228 199" fill="none" xmlns="http://www.w3.org/2000/svg">
<path d="M97.197 24.096C97.3837 25.2067 97.477 26.028 97.477 26.56C97.477 26.588 97.463 26.714 97.435 26.938C97.631 27.2087 97.9064 27.344 98.261 27.344C98.513 27.344 98.723 27.2693 98.891 27.12C99.0684 26.9613 99.157 26.7607 99.157 26.518C99.157 26.2193 99.0684 25.5147 98.891 24.404L100.333 24.096C100.52 25.2067 100.613 26.028 100.613 26.56C100.613 26.9987 100.515 27.3953 100.319 27.75C100.132 28.0953 99.8664 28.366 99.521 28.562C99.185 28.758 98.8024 28.856 98.373 28.856C98.037 28.856 97.7244 28.8 97.435 28.688C97.155 28.5667 96.945 28.408 96.805 28.212C96.6557 28.4173 96.4364 28.576 96.147 28.688C95.867 28.8 95.559 28.856 95.223 28.856C94.7657 28.856 94.4484 28.758 94.271 28.562C94.2804 28.7113 94.285 28.9727 94.285 29.346V33H92.843V29.36C92.843 28.4453 92.7964 27.6567 92.703 26.994C92.6097 26.322 92.423 25.5193 92.143 24.586L93.529 24.096L94.159 26.546C94.299 27.078 94.6164 27.344 95.111 27.344C95.363 27.344 95.5777 27.2693 95.755 27.12C95.9324 26.9613 96.021 26.7607 96.021 26.518C96.021 26.2007 95.9277 25.496 95.741 24.404L97.197 24.096ZM109.573 36.388C108.378 36.388 107.459 36.0427 106.815 35.352C106.171 34.6707 105.849 33.7093 105.849 32.468V29.752H107.291V32.44C107.291 34.064 108.056 34.876 109.587 34.876H110.161C110.907 34.876 111.495 34.6707 111.925 34.26C112.354 33.8493 112.569 33.2847 112.569 32.566V23.956H114.025V30.62C114.025 30.8907 114.104 31.1053 114.263 31.264C114.431 31.4133 114.669 31.488 114.977 31.488H115.299C115.392 31.488 115.439 31.7493 115.439 32.272C115.439 32.7573 115.392 33 115.299 33H115.033C114.818 33 114.617 32.972 114.431 32.916C114.253 32.86 114.118 32.79 114.025 32.706V32.776C114.006 33.476 113.833 34.1013 113.507 34.652C113.18 35.2027 112.727 35.6273 112.149 35.926C111.57 36.234 110.907 36.388 110.161 36.388H109.573ZM119.121 31.488C119.475 31.488 119.751 31.4273 119.947 31.306C120.143 31.1753 120.241 31.0027 120.241 30.788C120.241 30.6107 120.199 30.4473 120.115 30.298C120.031 30.1487 119.895 29.976 119.709 29.78L116.545 26.658V25.44L121.725 23.41L122.159 24.796L118.281 26.28L120.787 28.814C121.645 29.6633 122.275 30.27 122.677 30.634C123.087 30.9887 123.414 31.222 123.657 31.334C123.899 31.4367 124.179 31.488 124.497 31.488C124.59 31.488 124.637 31.7493 124.637 32.272C124.637 32.7573 124.59 33 124.497 33C124.058 33 123.699 32.9673 123.419 32.902C123.148 32.8273 122.868 32.6873 122.579 32.482C122.299 32.2767 121.939 31.9547 121.501 31.516C121.398 31.9733 121.137 32.3373 120.717 32.608C120.297 32.8693 119.765 33 119.121 33H115.299C115.205 33 115.159 32.7573 115.159 32.272C115.159 31.7493 115.205 31.488 115.299 31.488H119.121ZM125.606 31.488C125.989 31.488 126.278 31.404 126.474 31.236C126.67 31.0587 126.768 30.8113 126.768 30.494V28.352H128.224V30.494C128.224 31.1567 128.602 31.488 129.358 31.488C129.741 31.488 130.03 31.404 130.226 31.236C130.422 31.0587 130.52 30.8113 130.52 30.494V28.352H131.976V30.494C131.976 30.8113 132.065 31.0587 132.242 31.236C132.419 31.404 132.685 31.488 133.04 31.488C133.404 31.488 133.675 31.404 133.852 31.236C134.039 31.0587 134.132 30.8113 134.132 30.494V28.352H135.574V30.48C135.574 31.2733 135.35 31.894 134.902 32.342C134.454 32.7807 133.833 33 133.04 33C132.088 33 131.472 32.7293 131.192 32.188C130.828 32.7293 130.217 33 129.358 33C128.835 33 128.42 32.9347 128.112 32.804C127.804 32.664 127.58 32.4587 127.44 32.188C127.076 32.7293 126.465 33 125.606 33H124.5C124.407 33 124.36 32.7573 124.36 32.272C124.36 31.7493 124.407 31.488 124.5 31.488H125.606ZM131.934 23.354V24.656H130.464V23.354H131.934ZM133.096 25.412V26.756H129.288V25.412H133.096Z" fill="#E4E2E7"/>
<rect x="46" y="48" width="40" height="40" fill="#64E9E1" stroke="#4BB8B2" stroke-width="2"/>
<rect x="86" y="48" width="56" height="40" fill="#64E9E1" stroke="#4BB8B2" stroke-width="2"/>
<rect x="142" y="48" width="40" height="40" fill="#64E9E1" stroke="#4BB8B2" stroke-width="2"/>
<rect x="46" y="88" width="40" height="56" fill="#64E9E1" stroke="#4BB8B2" stroke-width="2"/>
<rect x="86" y="88" width="56" height="56" fill="#64E9E1" stroke="#4BB8B2" stroke-width="2"/>
<rect x="142" y="88" width="40" height="56" fill="#64E9E1" stroke="#4BB8B2" stroke-width="2"/>
<rect x="46" y="144" width="40" height="40" fill="#64E9E1" stroke="#4BB8B2" stroke-width="2"/>
<rect x="86" y="144" width="56" height="40" fill="#64E9E1" stroke="#4BB8B2" stroke-width="2"/>
<rect x="142" y="144" width="40" height="40" fill="#64E9E1" stroke="#4BB8B2" stroke-width="2"/>
<rect x="109" y="64" width="10" height="10" rx="5" fill="#393939"/>
<rect x="109" y="160" width="10" height="10" rx="5" fill="#393939"/>
<rect x="123" y="64" width="10" height="10" rx="5" fill="#393939"/>
<rect x="123" y="160" width="10" height="10" rx="5" fill="#393939"/>
<rect x="95" y="64" width="10" height="10" rx="5" fill="#393939"/>
<rect x="95" y="160" width="10" height="10" rx="5" fill="#393939"/>
<rect x="96" y="98" width="10" height="10" rx="5" fill="#393939"/>
<rect x="109" y="98" width="10" height="10" rx="5" fill="#393939"/>
<rect x="122" y="98" width="10" height="10" rx="5" fill="#393939"/>
<rect x="96" y="111" width="10" height="10" rx="5" fill="#393939"/>
<rect x="109" y="111" width="10" height="10" rx="5" fill="#393939"/>
<rect x="122" y="111" width="10" height="10" rx="5" fill="#393939"/>
<rect x="96" y="124" width="10" height="10" rx="5" fill="#393939"/>
<rect x="109" y="124" width="10" height="10" rx="5" fill="#393939"/>
<path d="M122 129C122 126.239 124.239 124 127 124C129.761 124 132 126.239 132 129C132 131.761 129.761 134 127 134C124.239 134 122 131.761 122 129Z" fill="#393939"/>
<path d="M114 58.5C120.575 58.5 126.504 59.667 130.77 61.5335C132.904 62.467 134.599 63.5658 135.754 64.7605C136.907 65.9527 137.5 67.2157 137.5 68.5C137.5 69.7843 136.907 71.0473 135.754 72.2395C134.599 73.4342 132.904 74.533 130.77 75.4665C126.504 77.333 120.575 78.5 114 78.5C107.425 78.5 101.496 77.333 97.2298 75.4665C95.096 74.533 93.4005 73.4342 92.2455 72.2395C91.0928 71.0473 90.5 69.7843 90.5 68.5C90.5 67.2157 91.0928 65.9527 92.2455 64.7605C93.4005 63.5658 95.096 62.467 97.2298 61.5335C101.496 59.667 107.425 58.5 114 58.5Z" stroke="#8940EE"/>
<path d="M114 154.5C120.575 154.5 126.504 155.667 130.77 157.533C132.904 158.467 134.599 159.566 135.754 160.76C136.907 161.953 137.5 163.216 137.5 164.5C137.5 165.784 136.907 167.047 135.754 168.24C134.599 169.434 132.904 170.533 130.77 171.467C126.504 173.333 120.575 174.5 114 174.5C107.425 174.5 101.496 173.333 97.2298 171.467C95.096 170.533 93.4005 169.434 92.2455 168.24C91.0928 167.047 90.5 165.784 90.5 164.5C90.5 163.216 91.0928 161.953 92.2455 160.76C93.4005 159.566 95.096 158.467 97.2298 157.533C101.496 155.667 107.425 154.5 114 154.5Z" stroke="#8940EE"/>
<circle cx="114" cy="116" r="25.5" transform="rotate(-90 114 116)" stroke="#8940EE"/>
<rect x="109" y="64" width="10" height="10" rx="5" fill="#393939"/>
<rect x="109" y="160" width="10" height="10" rx="5" fill="#393939"/>
<rect x="123" y="64" width="10" height="10" rx="5" fill="#393939"/>
<rect x="123" y="160" width="10" height="10" rx="5" fill="#393939"/>
<rect x="95" y="64" width="10" height="10" rx="5" fill="#393939"/>
<rect x="95" y="160" width="10" height="10" rx="5" fill="#393939"/>
<path d="M114 58.5C120.575 58.5 126.504 59.667 130.77 61.5335C132.904 62.467 134.599 63.5658 135.754 64.7605C136.907 65.9527 137.5 67.2157 137.5 68.5C137.5 69.7843 136.907 71.0473 135.754 72.2395C134.599 73.4342 132.904 74.533 130.77 75.4665C126.504 77.333 120.575 78.5 114 78.5C107.425 78.5 101.496 77.333 97.2298 75.4665C95.096 74.533 93.4005 73.4342 92.2455 72.2395C91.0928 71.0473 90.5 69.7843 90.5 68.5C90.5 67.2157 91.0928 65.9527 92.2455 64.7605C93.4005 63.5658 95.096 62.467 97.2298 61.5335C101.496 59.667 107.425 58.5 114 58.5Z" stroke="#8940EE"/>
<rect width="10" height="10" rx="5" transform="matrix(-1 0 0 1 168 111)" fill="#393939"/>
<rect width="10" height="10" rx="5" transform="matrix(-1 0 0 1 168 125)" fill="#393939"/>
<rect width="10" height="10" rx="5" transform="matrix(-1 0 0 1 168 97)" fill="#393939"/>
<path d="M152.5 116C152.5 122.575 153.667 128.504 155.533 132.77C156.467 134.904 157.566 136.599 158.76 137.754C159.953 138.907 161.216 139.5 162.5 139.5C163.784 139.5 165.047 138.907 166.24 137.754C167.434 136.599 168.533 134.904 169.467 132.77C171.333 128.504 172.5 122.575 172.5 116C172.5 109.425 171.333 103.496 169.467 99.2298C168.533 97.096 167.434 95.4005 166.24 94.2455C165.047 93.0928 163.784 92.5 162.5 92.5C161.216 92.5 159.953 93.0928 158.76 94.2455C157.566 95.4005 156.467 97.096 155.533 99.2298C153.667 103.496 152.5 109.425 152.5 116Z" stroke="#8940EE"/>
<rect width="10" height="10" rx="5" transform="matrix(-1 0 0 1 72 111)" fill="#393939"/>
<rect width="10" height="10" rx="5" transform="matrix(-1 0 0 1 72 125)" fill="#393939"/>
<rect width="10" height="10" rx="5" transform="matrix(-1 0 0 1 72 97)" fill="#393939"/>
<path d="M56.5 116C56.5 122.575 57.667 128.504 59.5335 132.77C60.467 134.904 61.5658 136.599 62.7605 137.754C63.9527 138.907 65.2157 139.5 66.5 139.5C67.7843 139.5 69.0473 138.907 70.2395 137.754C71.4342 136.599 72.533 134.904 73.4665 132.77C75.333 128.504 76.5 122.575 76.5 116C76.5 109.425 75.333 103.496 73.4665 99.2298C72.533 97.096 71.4342 95.4005 70.2395 94.2455C69.0473 93.0928 67.7843 92.5 66.5 92.5C65.2157 92.5 63.9527 93.0928 62.7605 94.2455C61.5658 95.4005 60.467 97.096 59.5335 99.2298C57.667 103.496 56.5 109.425 56.5 116Z" stroke="#8940EE"/>
<path d="M114 154.5C120.575 154.5 126.504 155.667 130.77 157.533C132.904 158.467 134.599 159.566 135.754 160.76C136.907 161.953 137.5 163.216 137.5 164.5C137.5 165.784 136.907 167.047 135.754 168.24C134.599 169.434 132.904 170.533 130.77 171.467C126.504 173.333 120.575 174.5 114 174.5C107.425 174.5 101.496 173.333 97.2298 171.467C95.096 170.533 93.4005 169.434 92.2455 168.24C91.0928 167.047 90.5 165.784 90.5 164.5C90.5 163.216 91.0928 161.953 92.2455 160.76C93.4005 159.566 95.096 158.467 97.2298 157.533C101.496 155.667 107.425 154.5 114 154.5Z" stroke="#8940EE"/>
</svg>
