<svg width="162" height="205" viewBox="0 0 162 205" fill="none" xmlns="http://www.w3.org/2000/svg">
<path d="M62.5544 35.792C62.4611 35.6333 62.3864 35.4467 62.3304 35.232C62.2744 35.0173 62.2464 34.8027 62.2464 34.588C62.2464 34.1307 62.3631 33.7153 62.5964 33.342C62.8297 32.9593 63.1517 32.656 63.5624 32.432C63.9731 32.208 64.4257 32.096 64.9204 32.096C65.4711 32.096 66.0684 32.236 66.7124 32.516L66.3344 33.846C65.8304 33.65 65.3777 33.552 64.9764 33.552C64.5937 33.552 64.2811 33.6687 64.0384 33.902C63.8051 34.1353 63.6884 34.42 63.6884 34.756C63.6884 35.12 63.7864 35.414 63.9824 35.638C64.1877 35.862 64.4351 35.974 64.7244 35.974C65.2657 35.974 65.9424 35.806 66.7544 35.47L67.1184 36.8C66.1384 37.2573 65.1584 37.486 64.1784 37.486C63.6557 37.486 63.1844 37.4347 62.7644 37.332C62.3537 37.22 62.0224 37.0707 61.7704 36.884V37.528V41H60.3284V37.36C60.3284 36.4453 60.2817 35.6567 60.1884 34.994C60.0951 34.322 59.9084 33.5193 59.6284 32.586L61.0144 32.096C61.1171 32.4507 61.2291 32.8987 61.3504 33.44C61.4717 33.972 61.5697 34.462 61.6444 34.91C61.6817 35.134 61.7657 35.316 61.8964 35.456C62.0271 35.596 62.2464 35.708 62.5544 35.792ZM76.0875 44.388C74.8928 44.388 73.9735 44.0427 73.3295 43.352C72.6855 42.6707 72.3635 41.7093 72.3635 40.468V37.752H73.8055V40.44C73.8055 42.064 74.5708 42.876 76.1015 42.876H76.6755C77.4221 42.876 78.0101 42.6707 78.4395 42.26C78.8688 41.8493 79.0835 41.2847 79.0835 40.566V31.956H80.5395V38.62C80.5395 38.8907 80.6188 39.1053 80.7775 39.264C80.9455 39.4133 81.1835 39.488 81.4915 39.488H81.8135C81.9068 39.488 81.9535 39.7493 81.9535 40.272C81.9535 40.7573 81.9068 41 81.8135 41H81.5475C81.3328 41 81.1321 40.972 80.9455 40.916C80.7681 40.86 80.6328 40.79 80.5395 40.706V40.776C80.5208 41.476 80.3481 42.1013 80.0215 42.652C79.6948 43.2027 79.2421 43.6273 78.6635 43.926C78.0848 44.234 77.4221 44.388 76.6755 44.388H76.0875ZM85.6355 39.488C85.9901 39.488 86.2655 39.4273 86.4615 39.306C86.6575 39.1753 86.7555 39.0027 86.7555 38.788C86.7555 38.6107 86.7135 38.4473 86.6295 38.298C86.5455 38.1487 86.4101 37.976 86.2235 37.78L83.0595 34.658V33.44L88.2395 31.41L88.6735 32.796L84.7955 34.28L87.3015 36.814C88.1601 37.6633 88.7901 38.27 89.1915 38.634C89.6021 38.9887 89.9288 39.222 90.1715 39.334C90.4141 39.4367 90.6941 39.488 91.0115 39.488C91.1048 39.488 91.1515 39.7493 91.1515 40.272C91.1515 40.7573 91.1048 41 91.0115 41C90.5728 41 90.2135 40.9673 89.9335 40.902C89.6628 40.8273 89.3828 40.6873 89.0935 40.482C88.8135 40.2767 88.4541 39.9547 88.0155 39.516C87.9128 39.9733 87.6515 40.3373 87.2315 40.608C86.8115 40.8693 86.2795 41 85.6355 41H81.8135C81.7201 41 81.6735 40.7573 81.6735 40.272C81.6735 39.7493 81.7201 39.488 81.8135 39.488H85.6355ZM92.1206 39.488C92.5033 39.488 92.7926 39.404 92.9886 39.236C93.1846 39.0587 93.2826 38.8113 93.2826 38.494V36.352H94.7386V38.494C94.7386 39.1567 95.1166 39.488 95.8726 39.488C96.2553 39.488 96.5446 39.404 96.7406 39.236C96.9366 39.0587 97.0346 38.8113 97.0346 38.494V36.352H98.4906V38.494C98.4906 38.8113 98.5793 39.0587 98.7566 39.236C98.934 39.404 99.2 39.488 99.5546 39.488C99.9186 39.488 100.189 39.404 100.367 39.236C100.553 39.0587 100.647 38.8113 100.647 38.494V36.352H102.089V38.48C102.089 39.2733 101.865 39.894 101.417 40.342C100.969 40.7807 100.348 41 99.5546 41C98.6026 41 97.9866 40.7293 97.7066 40.188C97.3426 40.7293 96.7313 41 95.8726 41C95.35 41 94.9346 40.9347 94.6266 40.804C94.3186 40.664 94.0946 40.4587 93.9546 40.188C93.5906 40.7293 92.9793 41 92.1206 41H91.0146C90.9213 41 90.8746 40.7573 90.8746 40.272C90.8746 39.7493 90.9213 39.488 91.0146 39.488H92.1206ZM98.4486 31.354V32.656H96.9786V31.354H98.4486ZM99.6106 33.412V34.756H95.8026V33.412H99.6106Z" fill="#E4E2E7"/>
<rect x="66" y="63" width="30" height="30" fill="#E0BCEF" stroke="#804F9F" stroke-width="2"/>
<rect x="51" y="93" width="30" height="30" fill="#E0BCEF" stroke="#804F9F" stroke-width="2"/>
<rect x="81" y="93" width="30" height="30" fill="#E0BCEF" stroke="#804F9F" stroke-width="2"/>
<rect x="36" y="123" width="30" height="30" fill="#E0BCEF" stroke="#804F9F" stroke-width="2"/>
<rect x="66" y="123" width="30" height="30" fill="#E0BCEF" stroke="#804F9F" stroke-width="2"/>
<rect x="96" y="123" width="30" height="30" fill="#E0BCEF" stroke="#804F9F" stroke-width="2"/>
<rect x="21" y="153" width="30" height="30" fill="#E0BCEF" stroke="#804F9F" stroke-width="2"/>
<rect x="51" y="153" width="30" height="30" fill="#E0BCEF" stroke="#804F9F" stroke-width="2"/>
<rect x="81" y="153" width="30" height="30" fill="#E0BCEF" stroke="#804F9F" stroke-width="2"/>
<rect x="111" y="153" width="30" height="30" fill="#E0BCEF" stroke="#804F9F" stroke-width="2"/>
</svg>
