<svg width="414" height="359" viewBox="0 0 414 359" fill="none" xmlns="http://www.w3.org/2000/svg">
<g clip-path="url(#clip0_1733_7)">
<rect x="51" y="262" width="6" height="55" fill="url(#paint0_linear_1733_7)"/>
<rect x="172.5" y="262" width="6" height="55" fill="url(#paint1_linear_1733_7)"/>
<rect x="315.5" y="262" width="6" height="55" fill="url(#paint2_linear_1733_7)"/>
<rect x="172.5" y="126" width="6" height="55" fill="url(#paint3_linear_1733_7)"/>
<rect x="315.5" y="126" width="6" height="55" fill="url(#paint4_linear_1733_7)"/>
<rect x="315.5" y="58" width="6" height="55" fill="url(#paint5_linear_1733_7)"/>
<rect x="51" y="194" width="6" height="55" fill="url(#paint6_linear_1733_7)"/>
<rect x="172.5" y="194" width="6" height="55" fill="url(#paint7_linear_1733_7)"/>
<rect x="315.5" y="194" width="6" height="55" fill="url(#paint8_linear_1733_7)"/>
<rect x="98" y="262" width="6" height="55" fill="url(#paint9_linear_1733_7)"/>
<rect x="219.5" y="262" width="6" height="55" fill="url(#paint10_linear_1733_7)"/>
<rect x="362.5" y="262" width="6" height="55" fill="url(#paint11_linear_1733_7)"/>
<rect x="219.5" y="126" width="6" height="55" fill="url(#paint12_linear_1733_7)"/>
<rect x="362.5" y="126" width="6" height="55" fill="url(#paint13_linear_1733_7)"/>
<rect x="362.5" y="58" width="6" height="55" fill="url(#paint14_linear_1733_7)"/>
<rect x="98" y="194" width="6" height="55" fill="url(#paint15_linear_1733_7)"/>
<rect x="219.5" y="194" width="6" height="55" fill="url(#paint16_linear_1733_7)"/>
<rect x="362.5" y="194" width="6" height="55" fill="url(#paint17_linear_1733_7)"/>
<rect x="50.5" y="258.5" width="6" height="55" transform="rotate(-90 50.5 258.5)" fill="url(#paint18_linear_1733_7)"/>
<rect x="172" y="258.5" width="6" height="55" transform="rotate(-90 172 258.5)" fill="url(#paint19_linear_1733_7)"/>
<rect x="315" y="258.5" width="6" height="55" transform="rotate(-90 315 258.5)" fill="url(#paint20_linear_1733_7)"/>
<rect x="172" y="190" width="6" height="55" transform="rotate(-90 172 190)" fill="url(#paint21_linear_1733_7)"/>
<rect x="315" y="190" width="6" height="55" transform="rotate(-90 315 190)" fill="url(#paint22_linear_1733_7)"/>
<rect x="315" y="122" width="6" height="55" transform="rotate(-90 315 122)" fill="url(#paint23_linear_1733_7)"/>
<path d="M52.1047 168.39C52.1047 166.953 52.0314 165.721 51.8847 164.694C51.738 163.667 51.4447 162.428 51.0047 160.976L53.7327 160.03C54.202 161.482 54.51 162.78 54.6567 163.924C54.818 165.053 54.8987 166.527 54.8987 168.346V174H52.1047V168.39ZM68.8794 179.258C66.9727 179.258 65.4987 178.708 64.4574 177.608C63.4307 176.523 62.9174 174.997 62.9174 173.032V168.632H65.7114V172.966C65.7114 174.081 65.968 174.917 66.4814 175.474C66.9947 176.046 67.794 176.332 68.8794 176.332H69.7594C70.8154 176.332 71.644 176.053 72.2454 175.496C72.8467 174.939 73.1474 174.169 73.1474 173.186V159.832H75.9414V169.952C75.9414 170.304 76.044 170.583 76.2494 170.788C76.4694 170.979 76.7774 171.074 77.1734 171.074H77.7674C77.8994 171.074 77.9654 171.58 77.9654 172.592C77.9654 173.531 77.8994 174 77.7674 174H77.2614C76.66 174 76.22 173.897 75.9414 173.692C75.8974 174.777 75.6114 175.738 75.0834 176.574C74.5554 177.425 73.8294 178.085 72.9054 178.554C71.996 179.023 70.9474 179.258 69.7594 179.258H68.8794ZM83.58 171.074C84.0347 171.074 84.3793 171.001 84.614 170.854C84.8633 170.707 84.988 170.502 84.988 170.238C84.988 169.989 84.9293 169.769 84.812 169.578C84.7093 169.387 84.5333 169.167 84.284 168.918L79.51 164.254V161.966L87.848 158.754L88.64 161.482L82.964 163.616L86.396 167.026C87.672 168.302 88.618 169.211 89.234 169.754C89.8647 170.297 90.3707 170.656 90.752 170.832C91.1333 170.993 91.5807 171.074 92.094 171.074C92.2407 171.074 92.314 171.58 92.314 172.592C92.314 173.531 92.2407 174 92.094 174C91.346 174 90.7373 173.949 90.268 173.846C89.8133 173.743 89.3733 173.56 88.948 173.296C88.5373 173.017 88.046 172.585 87.474 171.998C87.2393 172.629 86.7847 173.12 86.11 173.472C85.4353 173.824 84.6213 174 83.668 174H77.75C77.6033 174 77.53 173.531 77.53 172.592C77.53 171.58 77.6033 171.074 77.75 171.074H83.58ZM93.7956 171.074C94.2942 171.074 94.6682 170.957 94.9176 170.722C95.1816 170.487 95.3136 170.165 95.3136 169.754V166.432H98.1076V169.754C98.1076 170.634 98.6136 171.074 99.6256 171.074C100.124 171.074 100.498 170.957 100.748 170.722C101.012 170.487 101.144 170.165 101.144 169.754V166.432H103.938V169.754C103.938 170.634 104.407 171.074 105.346 171.074C106.284 171.074 106.754 170.634 106.754 169.754V166.432H109.548V169.776C109.548 171.111 109.174 172.152 108.426 172.9C107.692 173.633 106.666 174 105.346 174C104.568 174 103.945 173.905 103.476 173.714C103.006 173.509 102.654 173.215 102.42 172.834C102.141 173.215 101.774 173.509 101.32 173.714C100.88 173.905 100.315 174 99.6256 174C98.8189 174 98.1736 173.905 97.6896 173.714C97.2056 173.509 96.8462 173.215 96.6116 172.834C96.0396 173.611 95.1009 174 93.7956 174H92.1016C91.9549 174 91.8816 173.531 91.8816 172.592C91.8816 171.58 91.9549 171.074 92.1016 171.074H93.7956ZM103.74 158.182V160.58H101.1V158.182H103.74ZM105.522 161.636V164.144H99.3176V161.636H105.522Z" fill="#D5D5D5"/>
<path d="M172.897 100.818C172.325 100.818 171.907 100.737 171.643 100.576V101.346V107H168.849V101.39C168.849 99.9527 168.776 98.7207 168.629 97.694C168.482 96.6673 168.189 95.428 167.749 93.976L170.433 93.03L171.423 96.858C171.584 97.5473 171.988 97.892 172.633 97.892C172.956 97.892 173.22 97.804 173.425 97.628C173.645 97.4373 173.755 97.188 173.755 96.88C173.755 96.4693 173.608 95.3767 173.315 93.602L176.131 93.03C176.424 94.8047 176.571 96.1393 176.571 97.034C176.571 97.7673 176.41 98.42 176.087 98.992C175.779 99.564 175.346 100.011 174.789 100.334C174.232 100.657 173.601 100.818 172.897 100.818ZM190.135 112.258C188.229 112.258 186.755 111.708 185.713 110.608C184.687 109.523 184.173 107.997 184.173 106.032V101.632H186.967V105.966C186.967 107.081 187.224 107.917 187.737 108.474C188.251 109.046 189.05 109.332 190.135 109.332H191.015C192.071 109.332 192.9 109.053 193.501 108.496C194.103 107.939 194.403 107.169 194.403 106.186V92.832H197.197V102.952C197.197 103.304 197.3 103.583 197.505 103.788C197.725 103.979 198.033 104.074 198.429 104.074H199.023C199.155 104.074 199.221 104.58 199.221 105.592C199.221 106.531 199.155 107 199.023 107H198.517C197.916 107 197.476 106.897 197.197 106.692C197.153 107.777 196.867 108.738 196.339 109.574C195.811 110.425 195.085 111.085 194.161 111.554C193.252 112.023 192.203 112.258 191.015 112.258H190.135ZM204.836 104.074C205.291 104.074 205.635 104.001 205.87 103.854C206.119 103.707 206.244 103.502 206.244 103.238C206.244 102.989 206.185 102.769 206.068 102.578C205.965 102.387 205.789 102.167 205.54 101.918L200.766 97.254V94.966L209.104 91.754L209.896 94.482L204.22 96.616L207.652 100.026C208.928 101.302 209.874 102.211 210.49 102.754C211.121 103.297 211.627 103.656 212.008 103.832C212.389 103.993 212.837 104.074 213.35 104.074C213.497 104.074 213.57 104.58 213.57 105.592C213.57 106.531 213.497 107 213.35 107C212.602 107 211.993 106.949 211.524 106.846C211.069 106.743 210.629 106.56 210.204 106.296C209.793 106.017 209.302 105.585 208.73 104.998C208.495 105.629 208.041 106.12 207.366 106.472C206.691 106.824 205.877 107 204.924 107H199.006C198.859 107 198.786 106.531 198.786 105.592C198.786 104.58 198.859 104.074 199.006 104.074H204.836ZM215.051 104.074C215.55 104.074 215.924 103.957 216.173 103.722C216.437 103.487 216.569 103.165 216.569 102.754V99.432H219.363V102.754C219.363 103.634 219.869 104.074 220.881 104.074C221.38 104.074 221.754 103.957 222.003 103.722C222.267 103.487 222.399 103.165 222.399 102.754V99.432H225.193V102.754C225.193 103.634 225.663 104.074 226.601 104.074C227.54 104.074 228.009 103.634 228.009 102.754V99.432H230.803V102.776C230.803 104.111 230.429 105.152 229.681 105.9C228.948 106.633 227.921 107 226.601 107C225.824 107 225.201 106.905 224.731 106.714C224.262 106.509 223.91 106.215 223.675 105.834C223.397 106.215 223.03 106.509 222.575 106.714C222.135 106.905 221.571 107 220.881 107C220.075 107 219.429 106.905 218.945 106.714C218.461 106.509 218.102 106.215 217.867 105.834C217.295 106.611 216.357 107 215.051 107H213.357C213.211 107 213.137 106.531 213.137 105.592C213.137 104.58 213.211 104.074 213.357 104.074H215.051ZM224.995 91.182V93.58H222.355V91.182H224.995ZM226.777 94.636V97.144H220.573V94.636H226.777Z" fill="#D5D5D5"/>
<path d="M316.638 21.03C316.931 22.746 317.078 24.066 317.078 24.99C317.078 25.122 317.063 25.2613 317.034 25.408C317.151 25.5693 317.291 25.694 317.452 25.782C317.628 25.8553 317.848 25.892 318.112 25.892C318.42 25.892 318.677 25.804 318.882 25.628C319.102 25.4373 319.212 25.188 319.212 24.88C319.212 24.44 319.073 23.3473 318.794 21.602L321.61 21.03C321.889 22.8047 322.028 24.1393 322.028 25.034C322.028 25.7673 321.867 26.42 321.544 26.992C321.236 27.564 320.803 28.0113 320.246 28.334C319.703 28.6567 319.08 28.818 318.376 28.818C317.833 28.818 317.335 28.73 316.88 28.554C316.425 28.3633 316.095 28.1287 315.89 27.85C315.655 28.158 315.311 28.4 314.856 28.576C314.416 28.7373 313.939 28.818 313.426 28.818C312.854 28.818 312.436 28.7373 312.172 28.576V29.346V35H309.378V29.39C309.378 27.9527 309.305 26.7207 309.158 25.694C309.011 24.6673 308.718 23.428 308.278 21.976L310.962 21.03L311.952 24.858C312.113 25.5473 312.517 25.892 313.162 25.892C313.485 25.892 313.749 25.804 313.954 25.628C314.174 25.4373 314.284 25.188 314.284 24.88C314.284 24.4693 314.137 23.3767 313.844 21.602L316.638 21.03ZM335.606 40.258C333.699 40.258 332.225 39.708 331.184 38.608C330.157 37.5227 329.644 35.9973 329.644 34.032V29.632H332.438V33.966C332.438 35.0807 332.695 35.9167 333.208 36.474C333.721 37.046 334.521 37.332 335.606 37.332H336.486C337.542 37.332 338.371 37.0533 338.972 36.496C339.573 35.9387 339.874 35.1687 339.874 34.186V20.832H342.668V30.952C342.668 31.304 342.771 31.5827 342.976 31.788C343.196 31.9787 343.504 32.074 343.9 32.074H344.494C344.626 32.074 344.692 32.58 344.692 33.592C344.692 34.5307 344.626 35 344.494 35H343.988C343.387 35 342.947 34.8973 342.668 34.692C342.624 35.7773 342.338 36.738 341.81 37.574C341.282 38.4247 340.556 39.0847 339.632 39.554C338.723 40.0233 337.674 40.258 336.486 40.258H335.606ZM350.307 32.074C350.761 32.074 351.106 32.0007 351.341 31.854C351.59 31.7073 351.715 31.502 351.715 31.238C351.715 30.9887 351.656 30.7687 351.539 30.578C351.436 30.3873 351.26 30.1673 351.011 29.918L346.237 25.254V22.966L354.575 19.754L355.367 22.482L349.691 24.616L353.123 28.026C354.399 29.302 355.345 30.2113 355.961 30.754C356.591 31.2967 357.097 31.656 357.479 31.832C357.86 31.9933 358.307 32.074 358.821 32.074C358.967 32.074 359.041 32.58 359.041 33.592C359.041 34.5307 358.967 35 358.821 35C358.073 35 357.464 34.9487 356.995 34.846C356.54 34.7433 356.1 34.56 355.675 34.296C355.264 34.0173 354.773 33.5847 354.201 32.998C353.966 33.6287 353.511 34.12 352.837 34.472C352.162 34.824 351.348 35 350.395 35H344.477C344.33 35 344.257 34.5307 344.257 33.592C344.257 32.58 344.33 32.074 344.477 32.074H350.307ZM360.522 32.074C361.021 32.074 361.395 31.9567 361.644 31.722C361.908 31.4873 362.04 31.1647 362.04 30.754V27.432H364.834V30.754C364.834 31.634 365.34 32.074 366.352 32.074C366.851 32.074 367.225 31.9567 367.474 31.722C367.738 31.4873 367.87 31.1647 367.87 30.754V27.432H370.664V30.754C370.664 31.634 371.133 32.074 372.072 32.074C373.011 32.074 373.48 31.634 373.48 30.754V27.432H376.274V30.776C376.274 32.1107 375.9 33.152 375.152 33.9C374.419 34.6333 373.392 35 372.072 35C371.295 35 370.671 34.9047 370.202 34.714C369.733 34.5087 369.381 34.2153 369.146 33.834C368.867 34.2153 368.501 34.5087 368.046 34.714C367.606 34.9047 367.041 35 366.352 35C365.545 35 364.9 34.9047 364.416 34.714C363.932 34.5087 363.573 34.2153 363.338 33.834C362.766 34.6113 361.827 35 360.522 35H358.828C358.681 35 358.608 34.5307 358.608 33.592C358.608 32.58 358.681 32.074 358.828 32.074H360.522ZM370.466 19.182V21.58H367.826V19.182H370.466ZM372.248 22.636V25.144H366.044V22.636H372.248Z" fill="#D5D5D5"/>
<path d="M302.938 336.606C303.238 336.606 303.478 336.528 303.658 336.372C303.85 336.204 303.946 335.982 303.946 335.706V332.808H306.232V335.616C306.232 336.276 306.568 336.606 307.24 336.606H307.924C308.044 336.606 308.104 337.02 308.104 337.848C308.104 338.616 308.044 339 307.924 339H307.132C306.124 339 305.44 338.712 305.08 338.136C304.864 338.436 304.576 338.658 304.216 338.802C303.868 338.934 303.442 339 302.938 339H297.034C295.954 339 295.126 338.718 294.55 338.154C293.974 337.578 293.686 336.756 293.686 335.688V332.808H295.972V335.382C295.972 335.79 296.062 336.096 296.242 336.3C296.434 336.504 296.734 336.606 297.142 336.606H302.938ZM302.506 329.514V331.566H297.43V329.514H302.506ZM312.324 336.606C312.612 336.606 312.846 336.528 313.026 336.372C313.218 336.204 313.314 335.976 313.314 335.688V332.808H315.6V335.796C315.6 336.792 315.3 337.578 314.7 338.154C314.112 338.718 313.314 339 312.306 339H307.932C307.812 339 307.752 338.616 307.752 337.848C307.752 337.02 307.812 336.606 307.932 336.606H312.324ZM313.134 340.872V342.924H308.058V340.872H313.134ZM316.224 340.908C317.052 340.908 317.694 340.68 318.15 340.224C318.606 339.78 318.834 339.15 318.834 338.334V332.808H321.12V335.526C321.12 335.898 321.21 336.174 321.39 336.354C321.582 336.522 321.882 336.606 322.29 336.606H322.614C322.734 336.606 322.794 337.02 322.794 337.848C322.794 338.616 322.734 339 322.614 339H322.326C322.074 339 321.84 338.97 321.624 338.91C321.408 338.838 321.24 338.742 321.12 338.622C321.084 339.522 320.862 340.326 320.454 341.034C320.058 341.742 319.5 342.294 318.78 342.69C318.06 343.098 317.22 343.302 316.26 343.302H315.684L315.486 340.908H316.224ZM324.697 336.606C324.997 336.606 325.237 336.528 325.417 336.372C325.609 336.204 325.705 335.976 325.705 335.688V332.808H327.991V335.616C327.991 336.276 328.327 336.606 328.999 336.606H329.683C329.803 336.606 329.863 337.008 329.863 337.812C329.863 338.604 329.803 339 329.683 339H328.891C327.883 339 327.199 338.712 326.839 338.136C326.623 338.436 326.335 338.658 325.975 338.802C325.627 338.934 325.201 339 324.697 339H322.609C322.489 339 322.429 338.616 322.429 337.848C322.429 337.02 322.489 336.606 322.609 336.606H324.697ZM322.627 342.924V340.872H325.075V342.924H322.627ZM334.446 336.606C334.818 336.606 335.1 336.546 335.292 336.426C335.496 336.306 335.598 336.138 335.598 335.922C335.598 335.718 335.55 335.538 335.454 335.382C335.37 335.226 335.226 335.046 335.022 334.842L331.116 331.026V329.154L337.938 326.526L338.586 328.758L333.942 330.504L336.75 333.294C337.17 333.726 337.476 334.17 337.668 334.626C337.872 335.07 337.974 335.55 337.974 336.066C337.974 336.942 337.668 337.65 337.056 338.19C336.456 338.73 335.61 339 334.518 339H329.676C329.556 339 329.496 338.616 329.496 337.848C329.496 337.02 329.556 336.606 329.676 336.606H334.446ZM353.95 336.606C354.25 336.606 354.49 336.522 354.67 336.354C354.862 336.186 354.958 335.964 354.958 335.688V332.808H357.244V335.814C357.244 336.81 356.95 337.59 356.362 338.154C355.774 338.718 354.976 339 353.968 339H348.046C346.966 339 346.138 338.718 345.562 338.154C344.986 337.578 344.698 336.756 344.698 335.688V332.808H346.984V335.382C346.984 335.79 347.074 336.096 347.254 336.3C347.446 336.504 347.746 336.606 348.154 336.606H353.95ZM349.756 342.924V340.872H352.204V342.924H349.756ZM368.225 336.606C368.345 336.606 368.405 337.02 368.405 337.848C368.405 338.616 368.345 339 368.225 339H366.803C366.683 340.344 366.209 341.394 365.381 342.15C364.553 342.918 363.479 343.302 362.159 343.302H359.693L359.495 340.908H362.303C363.011 340.908 363.563 340.734 363.959 340.386C364.355 340.05 364.553 339.588 364.553 339H363.293C361.997 339 361.067 338.73 360.503 338.19C359.951 337.65 359.675 336.792 359.675 335.616C359.675 334.848 359.825 334.164 360.125 333.564C360.425 332.964 360.845 332.496 361.385 332.16C361.937 331.824 362.573 331.656 363.293 331.656C364.397 331.656 365.261 332.016 365.885 332.736C366.521 333.456 366.839 334.452 366.839 335.724V336.606H368.225ZM361.943 335.526C361.943 335.91 362.045 336.192 362.249 336.372C362.465 336.54 362.843 336.624 363.383 336.624H364.553V335.688C364.553 335.112 364.439 334.674 364.211 334.374C363.983 334.074 363.653 333.924 363.221 333.924C362.813 333.924 362.495 334.074 362.267 334.374C362.051 334.662 361.943 335.046 361.943 335.526ZM369.557 336.606C370.469 336.606 371.219 336.546 371.807 336.426C372.407 336.306 373.025 336.066 373.661 335.706L375.335 334.752C375.215 334.296 375.035 333.99 374.795 333.834C374.567 333.666 374.219 333.582 373.751 333.582H369.629L369.899 331.206H374.183C374.939 331.206 375.551 331.338 376.019 331.602C376.487 331.854 376.877 332.292 377.189 332.916C377.513 333.528 377.801 334.392 378.053 335.508L374.543 337.686C373.727 338.19 372.947 338.538 372.203 338.73C371.459 338.91 370.541 339 369.449 339H368.225C368.105 339 368.045 338.616 368.045 337.848C368.045 337.02 368.105 336.606 368.225 336.606H369.557ZM374.903 340.872V342.924H369.827V340.872H374.903ZM371.339 345.75V343.788H373.391V345.75H371.339ZM384.455 334.41C384.455 333.234 384.395 332.226 384.275 331.386C384.155 330.546 383.915 329.532 383.555 328.344L385.787 327.57C386.171 328.758 386.423 329.82 386.543 330.756C386.675 331.68 386.741 332.886 386.741 334.374V339H384.455V334.41ZM389.851 334.41C389.851 333.234 389.791 332.226 389.671 331.386C389.551 330.546 389.311 329.532 388.951 328.344L391.183 327.57C391.567 328.758 391.819 329.82 391.939 330.756C392.071 331.68 392.137 332.886 392.137 334.374V339H389.851V334.41Z" fill="#D5D5D5"/>
<path d="M169.93 336.606C170.23 336.606 170.47 336.528 170.65 336.372C170.842 336.204 170.938 335.982 170.938 335.706V332.808H173.224V335.616C173.224 336.276 173.56 336.606 174.232 336.606H174.916C175.036 336.606 175.096 337.02 175.096 337.848C175.096 338.616 175.036 339 174.916 339H174.124C173.116 339 172.432 338.712 172.072 338.136C171.856 338.436 171.568 338.658 171.208 338.802C170.86 338.934 170.434 339 169.93 339H164.026C162.946 339 162.118 338.718 161.542 338.154C160.966 337.578 160.678 336.756 160.678 335.688V332.808H162.964V335.382C162.964 335.79 163.054 336.096 163.234 336.3C163.426 336.504 163.726 336.606 164.134 336.606H169.93ZM169.498 329.514V331.566H164.422V329.514H169.498ZM179.315 336.606C179.603 336.606 179.837 336.528 180.017 336.372C180.209 336.204 180.305 335.976 180.305 335.688V332.808H182.591V335.796C182.591 336.792 182.291 337.578 181.691 338.154C181.103 338.718 180.305 339 179.297 339H174.923C174.803 339 174.743 338.616 174.743 337.848C174.743 337.02 174.803 336.606 174.923 336.606H179.315ZM180.125 340.872V342.924H175.049V340.872H180.125ZM183.215 340.908C184.043 340.908 184.685 340.68 185.141 340.224C185.597 339.78 185.825 339.15 185.825 338.334V332.808H188.111V335.526C188.111 335.898 188.201 336.174 188.381 336.354C188.573 336.522 188.873 336.606 189.281 336.606H189.605C189.725 336.606 189.785 337.02 189.785 337.848C189.785 338.616 189.725 339 189.605 339H189.317C189.065 339 188.831 338.97 188.615 338.91C188.399 338.838 188.231 338.742 188.111 338.622C188.075 339.522 187.853 340.326 187.445 341.034C187.049 341.742 186.491 342.294 185.771 342.69C185.051 343.098 184.211 343.302 183.251 343.302H182.675L182.477 340.908H183.215ZM191.689 336.606C191.989 336.606 192.229 336.528 192.409 336.372C192.601 336.204 192.697 335.976 192.697 335.688V332.808H194.983V335.616C194.983 336.276 195.319 336.606 195.991 336.606H196.675C196.795 336.606 196.855 337.008 196.855 337.812C196.855 338.604 196.795 339 196.675 339H195.883C194.875 339 194.191 338.712 193.831 338.136C193.615 338.436 193.327 338.658 192.967 338.802C192.619 338.934 192.193 339 191.689 339H189.601C189.481 339 189.421 338.616 189.421 337.848C189.421 337.02 189.481 336.606 189.601 336.606H191.689ZM189.619 342.924V340.872H192.067V342.924H189.619ZM201.437 336.606C201.809 336.606 202.091 336.546 202.283 336.426C202.487 336.306 202.589 336.138 202.589 335.922C202.589 335.718 202.541 335.538 202.445 335.382C202.361 335.226 202.217 335.046 202.013 334.842L198.107 331.026V329.154L204.929 326.526L205.577 328.758L200.933 330.504L203.741 333.294C204.161 333.726 204.467 334.17 204.659 334.626C204.863 335.07 204.965 335.55 204.965 336.066C204.965 336.942 204.659 337.65 204.047 338.19C203.447 338.73 202.601 339 201.509 339H196.667C196.547 339 196.487 338.616 196.487 337.848C196.487 337.02 196.547 336.606 196.667 336.606H201.437ZM220.941 336.606C221.241 336.606 221.481 336.522 221.661 336.354C221.853 336.186 221.949 335.964 221.949 335.688V332.808H224.235V335.814C224.235 336.81 223.941 337.59 223.353 338.154C222.765 338.718 221.967 339 220.959 339H215.037C213.957 339 213.129 338.718 212.553 338.154C211.977 337.578 211.689 336.756 211.689 335.688V332.808H213.975V335.382C213.975 335.79 214.065 336.096 214.245 336.3C214.437 336.504 214.737 336.606 215.145 336.606H220.941ZM216.747 342.924V340.872H219.195V342.924H216.747ZM235.216 336.606C235.336 336.606 235.396 337.02 235.396 337.848C235.396 338.616 235.336 339 235.216 339H233.794C233.674 340.344 233.2 341.394 232.372 342.15C231.544 342.918 230.47 343.302 229.15 343.302H226.684L226.486 340.908H229.294C230.002 340.908 230.554 340.734 230.95 340.386C231.346 340.05 231.544 339.588 231.544 339H230.284C228.988 339 228.058 338.73 227.494 338.19C226.942 337.65 226.666 336.792 226.666 335.616C226.666 334.848 226.816 334.164 227.116 333.564C227.416 332.964 227.836 332.496 228.376 332.16C228.928 331.824 229.564 331.656 230.284 331.656C231.388 331.656 232.252 332.016 232.876 332.736C233.512 333.456 233.83 334.452 233.83 335.724V336.606H235.216ZM228.934 335.526C228.934 335.91 229.036 336.192 229.24 336.372C229.456 336.54 229.834 336.624 230.374 336.624H231.544V335.688C231.544 335.112 231.43 334.674 231.202 334.374C230.974 334.074 230.644 333.924 230.212 333.924C229.804 333.924 229.486 334.074 229.258 334.374C229.042 334.662 228.934 335.046 228.934 335.526ZM236.548 336.606C237.46 336.606 238.21 336.546 238.798 336.426C239.398 336.306 240.016 336.066 240.652 335.706L242.326 334.752C242.206 334.296 242.026 333.99 241.786 333.834C241.558 333.666 241.21 333.582 240.742 333.582H236.62L236.89 331.206H241.174C241.93 331.206 242.542 331.338 243.01 331.602C243.478 331.854 243.868 332.292 244.18 332.916C244.504 333.528 244.792 334.392 245.044 335.508L241.534 337.686C240.718 338.19 239.938 338.538 239.194 338.73C238.45 338.91 237.532 339 236.44 339H235.216C235.096 339 235.036 338.616 235.036 337.848C235.036 337.02 235.096 336.606 235.216 336.606H236.548ZM241.894 340.872V342.924H236.818V340.872H241.894ZM238.33 345.75V343.788H240.382V345.75H238.33ZM256.216 327.678C256.576 329.742 257.026 331.542 257.566 333.078C258.118 334.602 258.886 336.198 259.87 337.866L257.926 339.198C257.182 337.95 256.576 336.714 256.108 335.49C255.64 334.254 255.298 332.976 255.082 331.656C254.854 333.036 254.524 334.338 254.092 335.562C253.672 336.786 253.102 337.998 252.382 339.198L250.366 337.866C251.29 336.318 252.028 334.776 252.58 333.24C253.132 331.692 253.606 329.838 254.002 327.678H256.216Z" fill="#D5D5D5"/>
<path d="M36.1914 336.606C36.4914 336.606 36.7314 336.528 36.9114 336.372C37.1034 336.204 37.1994 335.982 37.1994 335.706V332.808H39.4854V335.616C39.4854 336.276 39.8214 336.606 40.4934 336.606H41.1774C41.2974 336.606 41.3574 337.02 41.3574 337.848C41.3574 338.616 41.2974 339 41.1774 339H40.3854C39.3774 339 38.6934 338.712 38.3334 338.136C38.1174 338.436 37.8294 338.658 37.4694 338.802C37.1214 338.934 36.6954 339 36.1914 339H30.2874C29.2074 339 28.3794 338.718 27.8034 338.154C27.2274 337.578 26.9394 336.756 26.9394 335.688V332.808H29.2254V335.382C29.2254 335.79 29.3154 336.096 29.4954 336.3C29.6874 336.504 29.9874 336.606 30.3954 336.606H36.1914ZM35.7594 329.514V331.566H30.6834V329.514H35.7594ZM45.5766 336.606C45.8646 336.606 46.0986 336.528 46.2786 336.372C46.4706 336.204 46.5666 335.976 46.5666 335.688V332.808H48.8526V335.796C48.8526 336.792 48.5526 337.578 47.9526 338.154C47.3646 338.718 46.5666 339 45.5586 339H41.1846C41.0646 339 41.0046 338.616 41.0046 337.848C41.0046 337.02 41.0646 336.606 41.1846 336.606H45.5766ZM46.3866 340.872V342.924H41.3106V340.872H46.3866ZM49.4769 340.908C50.3049 340.908 50.9469 340.68 51.4029 340.224C51.8589 339.78 52.0869 339.15 52.0869 338.334V332.808H54.3729V335.526C54.3729 335.898 54.4629 336.174 54.6429 336.354C54.8349 336.522 55.1349 336.606 55.5429 336.606H55.8669C55.9869 336.606 56.0469 337.02 56.0469 337.848C56.0469 338.616 55.9869 339 55.8669 339H55.5789C55.3269 339 55.0929 338.97 54.8769 338.91C54.6609 338.838 54.4929 338.742 54.3729 338.622C54.3369 339.522 54.1149 340.326 53.7069 341.034C53.3109 341.742 52.7529 342.294 52.0329 342.69C51.3129 343.098 50.4729 343.302 49.5129 343.302H48.9369L48.7389 340.908H49.4769ZM57.9503 336.606C58.2503 336.606 58.4903 336.528 58.6703 336.372C58.8623 336.204 58.9583 335.976 58.9583 335.688V332.808H61.2443V335.616C61.2443 336.276 61.5803 336.606 62.2523 336.606H62.9363C63.0563 336.606 63.1163 337.008 63.1163 337.812C63.1163 338.604 63.0563 339 62.9363 339H62.1443C61.1363 339 60.4523 338.712 60.0923 338.136C59.8763 338.436 59.5883 338.658 59.2283 338.802C58.8803 338.934 58.4543 339 57.9503 339H55.8623C55.7423 339 55.6823 338.616 55.6823 337.848C55.6823 337.02 55.7423 336.606 55.8623 336.606H57.9503ZM55.8803 342.924V340.872H58.3283V342.924H55.8803ZM67.6987 336.606C68.0707 336.606 68.3527 336.546 68.5447 336.426C68.7487 336.306 68.8507 336.138 68.8507 335.922C68.8507 335.718 68.8027 335.538 68.7067 335.382C68.6227 335.226 68.4787 335.046 68.2747 334.842L64.3687 331.026V329.154L71.1907 326.526L71.8387 328.758L67.1947 330.504L70.0027 333.294C70.4227 333.726 70.7287 334.17 70.9207 334.626C71.1247 335.07 71.2267 335.55 71.2267 336.066C71.2267 336.942 70.9207 337.65 70.3087 338.19C69.7087 338.73 68.8627 339 67.7707 339H62.9287C62.8087 339 62.7487 338.616 62.7487 337.848C62.7487 337.02 62.8087 336.606 62.9287 336.606H67.6987ZM87.2031 336.606C87.5031 336.606 87.7431 336.522 87.9231 336.354C88.1151 336.186 88.2111 335.964 88.2111 335.688V332.808H90.4971V335.814C90.4971 336.81 90.2031 337.59 89.6151 338.154C89.0271 338.718 88.2291 339 87.2211 339H81.2991C80.2191 339 79.3911 338.718 78.8151 338.154C78.2391 337.578 77.9511 336.756 77.9511 335.688V332.808H80.2371V335.382C80.2371 335.79 80.3271 336.096 80.5071 336.3C80.6991 336.504 80.9991 336.606 81.4071 336.606H87.2031ZM83.0091 342.924V340.872H85.4571V342.924H83.0091ZM101.478 336.606C101.598 336.606 101.658 337.02 101.658 337.848C101.658 338.616 101.598 339 101.478 339H100.056C99.9361 340.344 99.4621 341.394 98.6341 342.15C97.8061 342.918 96.7321 343.302 95.4121 343.302H92.9461L92.7481 340.908H95.5561C96.2641 340.908 96.8161 340.734 97.2121 340.386C97.6081 340.05 97.8061 339.588 97.8061 339H96.5461C95.2501 339 94.3201 338.73 93.7561 338.19C93.2041 337.65 92.9281 336.792 92.9281 335.616C92.9281 334.848 93.0781 334.164 93.3781 333.564C93.6781 332.964 94.0981 332.496 94.6381 332.16C95.1901 331.824 95.8261 331.656 96.5461 331.656C97.6501 331.656 98.5141 332.016 99.1381 332.736C99.7741 333.456 100.092 334.452 100.092 335.724V336.606H101.478ZM95.1961 335.526C95.1961 335.91 95.2981 336.192 95.5021 336.372C95.7181 336.54 96.0961 336.624 96.6361 336.624H97.8061V335.688C97.8061 335.112 97.6921 334.674 97.4641 334.374C97.2361 334.074 96.9061 333.924 96.4741 333.924C96.0661 333.924 95.7481 334.074 95.5201 334.374C95.3041 334.662 95.1961 335.046 95.1961 335.526ZM102.81 336.606C103.722 336.606 104.472 336.546 105.06 336.426C105.66 336.306 106.278 336.066 106.914 335.706L108.588 334.752C108.468 334.296 108.288 333.99 108.048 333.834C107.82 333.666 107.472 333.582 107.004 333.582H102.882L103.152 331.206H107.436C108.192 331.206 108.804 331.338 109.272 331.602C109.74 331.854 110.13 332.292 110.442 332.916C110.766 333.528 111.054 334.392 111.306 335.508L107.796 337.686C106.98 338.19 106.2 338.538 105.456 338.73C104.712 338.91 103.794 339 102.702 339H101.478C101.358 339 101.298 338.616 101.298 337.848C101.298 337.02 101.358 336.606 101.478 336.606H102.81ZM108.156 340.872V342.924H103.08V340.872H108.156ZM104.592 345.75V343.788H106.644V345.75H104.592ZM117.006 335.652C117.006 334.788 117.27 333.882 117.798 332.934C118.338 331.974 119.22 330.924 120.444 329.784L119.67 329.082L121.074 327.372C122.658 328.56 123.894 329.598 124.782 330.486C125.67 331.374 126.3 332.202 126.672 332.97C127.044 333.726 127.23 334.524 127.23 335.364C127.23 336.12 127.08 336.774 126.78 337.326C126.48 337.878 126.084 338.298 125.592 338.586C125.112 338.862 124.596 339 124.044 339C123.072 339 122.388 338.766 121.992 338.298C121.8 338.526 121.53 338.7 121.182 338.82C120.846 338.94 120.462 339 120.03 339C119.07 339 118.326 338.706 117.798 338.118C117.27 337.518 117.006 336.696 117.006 335.652ZM124.944 335.346C124.944 334.662 124.716 333.996 124.26 333.348C123.804 332.7 123.072 331.98 122.064 331.188C121.104 332.016 120.396 332.778 119.94 333.474C119.496 334.158 119.274 334.836 119.274 335.508C119.274 336.24 119.586 336.606 120.21 336.606C120.534 336.606 120.78 336.51 120.948 336.318C121.116 336.126 121.2 335.856 121.2 335.508V334.356H123.198V335.562C123.198 335.874 123.174 336.12 123.126 336.3C123.282 336.504 123.582 336.606 124.026 336.606C124.29 336.606 124.506 336.498 124.674 336.282C124.854 336.066 124.944 335.754 124.944 335.346Z" fill="#D5D5D5"/>
</g>
<defs>
<linearGradient id="paint0_linear_1733_7" x1="54" y1="262" x2="54" y2="317" gradientUnits="userSpaceOnUse">
<stop stop-color="#D85E43"/>
<stop offset="0.0900342" stop-color="#D85E43"/>
<stop offset="0.14164" stop-color="#DFB248"/>
<stop offset="1" stop-color="#F9DD98"/>
</linearGradient>
<linearGradient id="paint1_linear_1733_7" x1="175.5" y1="262" x2="175.5" y2="317" gradientUnits="userSpaceOnUse">
<stop stop-color="#D85E43"/>
<stop offset="0.0900342" stop-color="#D85E43"/>
<stop offset="0.14164" stop-color="#DFB248"/>
<stop offset="1" stop-color="#F9DD98"/>
</linearGradient>
<linearGradient id="paint2_linear_1733_7" x1="318.5" y1="262" x2="318.5" y2="317" gradientUnits="userSpaceOnUse">
<stop stop-color="#D85E43"/>
<stop offset="0.0900342" stop-color="#D85E43"/>
<stop offset="0.14164" stop-color="#DFB248"/>
<stop offset="1" stop-color="#F9DD98"/>
</linearGradient>
<linearGradient id="paint3_linear_1733_7" x1="175.5" y1="126" x2="175.5" y2="181" gradientUnits="userSpaceOnUse">
<stop stop-color="#D85E43"/>
<stop offset="0.0900342" stop-color="#D85E43"/>
<stop offset="0.14164" stop-color="#DFB248"/>
<stop offset="1" stop-color="#F9DD98"/>
</linearGradient>
<linearGradient id="paint4_linear_1733_7" x1="318.5" y1="126" x2="318.5" y2="181" gradientUnits="userSpaceOnUse">
<stop stop-color="#D85E43"/>
<stop offset="0.0900342" stop-color="#D85E43"/>
<stop offset="0.14164" stop-color="#DFB248"/>
<stop offset="1" stop-color="#F9DD98"/>
</linearGradient>
<linearGradient id="paint5_linear_1733_7" x1="318.5" y1="58" x2="318.5" y2="113" gradientUnits="userSpaceOnUse">
<stop stop-color="#D85E43"/>
<stop offset="0.0900342" stop-color="#D85E43"/>
<stop offset="0.14164" stop-color="#DFB248"/>
<stop offset="1" stop-color="#F9DD98"/>
</linearGradient>
<linearGradient id="paint6_linear_1733_7" x1="54" y1="194" x2="54" y2="249" gradientUnits="userSpaceOnUse">
<stop stop-color="#D85E43"/>
<stop offset="0.0900342" stop-color="#D85E43"/>
<stop offset="0.14164" stop-color="#DFB248"/>
<stop offset="1" stop-color="#F9DD98"/>
</linearGradient>
<linearGradient id="paint7_linear_1733_7" x1="175.5" y1="194" x2="175.5" y2="249" gradientUnits="userSpaceOnUse">
<stop stop-color="#D85E43"/>
<stop offset="0.0900342" stop-color="#D85E43"/>
<stop offset="0.14164" stop-color="#DFB248"/>
<stop offset="1" stop-color="#F9DD98"/>
</linearGradient>
<linearGradient id="paint8_linear_1733_7" x1="318.5" y1="194" x2="318.5" y2="249" gradientUnits="userSpaceOnUse">
<stop stop-color="#D85E43"/>
<stop offset="0.0900342" stop-color="#D85E43"/>
<stop offset="0.14164" stop-color="#DFB248"/>
<stop offset="1" stop-color="#F9DD98"/>
</linearGradient>
<linearGradient id="paint9_linear_1733_7" x1="101" y1="262" x2="101" y2="317" gradientUnits="userSpaceOnUse">
<stop stop-color="#D85E43"/>
<stop offset="0.0900342" stop-color="#D85E43"/>
<stop offset="0.14164" stop-color="#DFB248"/>
<stop offset="1" stop-color="#F9DD98"/>
</linearGradient>
<linearGradient id="paint10_linear_1733_7" x1="222.5" y1="262" x2="222.5" y2="317" gradientUnits="userSpaceOnUse">
<stop stop-color="#D85E43"/>
<stop offset="0.0900342" stop-color="#D85E43"/>
<stop offset="0.14164" stop-color="#DFB248"/>
<stop offset="1" stop-color="#F9DD98"/>
</linearGradient>
<linearGradient id="paint11_linear_1733_7" x1="365.5" y1="262" x2="365.5" y2="317" gradientUnits="userSpaceOnUse">
<stop stop-color="#D85E43"/>
<stop offset="0.0900342" stop-color="#D85E43"/>
<stop offset="0.14164" stop-color="#DFB248"/>
<stop offset="1" stop-color="#F9DD98"/>
</linearGradient>
<linearGradient id="paint12_linear_1733_7" x1="222.5" y1="126" x2="222.5" y2="181" gradientUnits="userSpaceOnUse">
<stop stop-color="#D85E43"/>
<stop offset="0.0900342" stop-color="#D85E43"/>
<stop offset="0.14164" stop-color="#DFB248"/>
<stop offset="1" stop-color="#F9DD98"/>
</linearGradient>
<linearGradient id="paint13_linear_1733_7" x1="365.5" y1="126" x2="365.5" y2="181" gradientUnits="userSpaceOnUse">
<stop stop-color="#D85E43"/>
<stop offset="0.0900342" stop-color="#D85E43"/>
<stop offset="0.14164" stop-color="#DFB248"/>
<stop offset="1" stop-color="#F9DD98"/>
</linearGradient>
<linearGradient id="paint14_linear_1733_7" x1="365.5" y1="58" x2="365.5" y2="113" gradientUnits="userSpaceOnUse">
<stop stop-color="#D85E43"/>
<stop offset="0.0900342" stop-color="#D85E43"/>
<stop offset="0.14164" stop-color="#DFB248"/>
<stop offset="1" stop-color="#F9DD98"/>
</linearGradient>
<linearGradient id="paint15_linear_1733_7" x1="101" y1="194" x2="101" y2="249" gradientUnits="userSpaceOnUse">
<stop stop-color="#D85E43"/>
<stop offset="0.0900342" stop-color="#D85E43"/>
<stop offset="0.14164" stop-color="#DFB248"/>
<stop offset="1" stop-color="#F9DD98"/>
</linearGradient>
<linearGradient id="paint16_linear_1733_7" x1="222.5" y1="194" x2="222.5" y2="249" gradientUnits="userSpaceOnUse">
<stop stop-color="#D85E43"/>
<stop offset="0.0900342" stop-color="#D85E43"/>
<stop offset="0.14164" stop-color="#DFB248"/>
<stop offset="1" stop-color="#F9DD98"/>
</linearGradient>
<linearGradient id="paint17_linear_1733_7" x1="365.5" y1="194" x2="365.5" y2="249" gradientUnits="userSpaceOnUse">
<stop stop-color="#D85E43"/>
<stop offset="0.0900342" stop-color="#D85E43"/>
<stop offset="0.14164" stop-color="#DFB248"/>
<stop offset="1" stop-color="#F9DD98"/>
</linearGradient>
<linearGradient id="paint18_linear_1733_7" x1="53.5" y1="258.5" x2="53.5" y2="313.5" gradientUnits="userSpaceOnUse">
<stop stop-color="#D85E43"/>
<stop offset="0.0900342" stop-color="#D85E43"/>
<stop offset="0.14164" stop-color="#DFB248"/>
<stop offset="1" stop-color="#F9DD98"/>
</linearGradient>
<linearGradient id="paint19_linear_1733_7" x1="175" y1="258.5" x2="175" y2="313.5" gradientUnits="userSpaceOnUse">
<stop stop-color="#D85E43"/>
<stop offset="0.0900342" stop-color="#D85E43"/>
<stop offset="0.14164" stop-color="#DFB248"/>
<stop offset="1" stop-color="#F9DD98"/>
</linearGradient>
<linearGradient id="paint20_linear_1733_7" x1="318" y1="258.5" x2="318" y2="313.5" gradientUnits="userSpaceOnUse">
<stop stop-color="#D85E43"/>
<stop offset="0.0900342" stop-color="#D85E43"/>
<stop offset="0.14164" stop-color="#DFB248"/>
<stop offset="1" stop-color="#F9DD98"/>
</linearGradient>
<linearGradient id="paint21_linear_1733_7" x1="175" y1="190" x2="175" y2="245" gradientUnits="userSpaceOnUse">
<stop stop-color="#D85E43"/>
<stop offset="0.0900342" stop-color="#D85E43"/>
<stop offset="0.14164" stop-color="#DFB248"/>
<stop offset="1" stop-color="#F9DD98"/>
</linearGradient>
<linearGradient id="paint22_linear_1733_7" x1="318" y1="190" x2="318" y2="245" gradientUnits="userSpaceOnUse">
<stop stop-color="#D85E43"/>
<stop offset="0.0900342" stop-color="#D85E43"/>
<stop offset="0.14164" stop-color="#DFB248"/>
<stop offset="1" stop-color="#F9DD98"/>
</linearGradient>
<linearGradient id="paint23_linear_1733_7" x1="318" y1="122" x2="318" y2="177" gradientUnits="userSpaceOnUse">
<stop stop-color="#D85E43"/>
<stop offset="0.0900342" stop-color="#D85E43"/>
<stop offset="0.14164" stop-color="#DFB248"/>
<stop offset="1" stop-color="#F9DD98"/>
</linearGradient>
<clipPath id="clip0_1733_7">
<rect width="414" height="359" fill="white"/>
</clipPath>
</defs>
</svg>
