<svg width="228" height="199" viewBox="0 0 228 199" fill="none" xmlns="http://www.w3.org/2000/svg">
<path d="M96.7953 36.856C96.338 36.856 96.0206 36.758 95.8433 36.562C95.8526 36.7113 95.8573 36.9727 95.8573 37.346V41H94.4153V37.36C94.4153 36.4453 94.3686 35.6567 94.2753 34.994C94.182 34.322 93.9953 33.5193 93.7153 32.586L95.1013 32.096L95.7313 34.546C95.8713 35.078 96.1886 35.344 96.6833 35.344C96.9353 35.344 97.15 35.2693 97.3273 35.12C97.5046 34.9613 97.5933 34.7607 97.5933 34.518C97.5933 34.2007 97.5 33.496 97.3133 32.404L98.7693 32.096C98.956 33.2067 99.0493 34.028 99.0493 34.56C99.0493 34.9987 98.9513 35.3953 98.7553 35.75C98.5593 36.0953 98.2886 36.366 97.9433 36.562C97.6073 36.758 97.2246 36.856 96.7953 36.856ZM108.001 44.388C106.806 44.388 105.887 44.0427 105.243 43.352C104.599 42.6707 104.277 41.7093 104.277 40.468V37.752H105.719V40.44C105.719 42.064 106.484 42.876 108.015 42.876H108.589C109.335 42.876 109.923 42.6707 110.353 42.26C110.782 41.8493 110.997 41.2847 110.997 40.566V31.956H112.453V38.62C112.453 38.8907 112.532 39.1053 112.691 39.264C112.859 39.4133 113.097 39.488 113.405 39.488H113.727C113.82 39.488 113.867 39.7493 113.867 40.272C113.867 40.7573 113.82 41 113.727 41H113.461C113.246 41 113.045 40.972 112.859 40.916C112.681 40.86 112.546 40.79 112.453 40.706V40.776C112.434 41.476 112.261 42.1013 111.935 42.652C111.608 43.2027 111.155 43.6273 110.577 43.926C109.998 44.234 109.335 44.388 108.589 44.388H108.001ZM117.549 39.488C117.903 39.488 118.179 39.4273 118.375 39.306C118.571 39.1753 118.669 39.0027 118.669 38.788C118.669 38.6107 118.627 38.4473 118.543 38.298C118.459 38.1487 118.323 37.976 118.137 37.78L114.973 34.658V33.44L120.153 31.41L120.587 32.796L116.709 34.28L119.215 36.814C120.073 37.6633 120.703 38.27 121.105 38.634C121.515 38.9887 121.842 39.222 122.085 39.334C122.327 39.4367 122.607 39.488 122.925 39.488C123.018 39.488 123.065 39.7493 123.065 40.272C123.065 40.7573 123.018 41 122.925 41C122.486 41 122.127 40.9673 121.847 40.902C121.576 40.8273 121.296 40.6873 121.007 40.482C120.727 40.2767 120.367 39.9547 119.929 39.516C119.826 39.9733 119.565 40.3373 119.145 40.608C118.725 40.8693 118.193 41 117.549 41H113.727C113.633 41 113.587 40.7573 113.587 40.272C113.587 39.7493 113.633 39.488 113.727 39.488H117.549ZM124.034 39.488C124.416 39.488 124.706 39.404 124.902 39.236C125.098 39.0587 125.196 38.8113 125.196 38.494V36.352H126.652V38.494C126.652 39.1567 127.03 39.488 127.786 39.488C128.168 39.488 128.458 39.404 128.654 39.236C128.85 39.0587 128.948 38.8113 128.948 38.494V36.352H130.404V38.494C130.404 38.8113 130.492 39.0587 130.67 39.236C130.847 39.404 131.113 39.488 131.468 39.488C131.832 39.488 132.102 39.404 132.28 39.236C132.466 39.0587 132.56 38.8113 132.56 38.494V36.352H134.002V38.48C134.002 39.2733 133.778 39.894 133.33 40.342C132.882 40.7807 132.261 41 131.468 41C130.516 41 129.9 40.7293 129.62 40.188C129.256 40.7293 128.644 41 127.786 41C127.263 41 126.848 40.9347 126.54 40.804C126.232 40.664 126.008 40.4587 125.868 40.188C125.504 40.7293 124.892 41 124.034 41H122.928C122.834 41 122.788 40.7573 122.788 40.272C122.788 39.7493 122.834 39.488 122.928 39.488H124.034ZM130.362 31.354V32.656H128.892V31.354H130.362ZM131.524 33.412V34.756H127.716V33.412H131.524Z" fill="#E4E2E7"/>
<rect x="54" y="56" width="40" height="40" fill="#64E9E1" stroke="#4BB8B2" stroke-width="2"/>
<rect x="94" y="56" width="40" height="40" fill="#64E9E1" stroke="#4BB8B2" stroke-width="2"/>
<rect x="134" y="56" width="40" height="40" fill="#64E9E1" stroke="#4BB8B2" stroke-width="2"/>
<rect x="54" y="96" width="40" height="40" fill="#64E9E1" stroke="#4BB8B2" stroke-width="2"/>
<rect x="94" y="96" width="40" height="40" fill="#64E9E1" stroke="#4BB8B2" stroke-width="2"/>
<rect x="134" y="96" width="40" height="40" fill="#64E9E1" stroke="#4BB8B2" stroke-width="2"/>
<rect x="54" y="136" width="40" height="40" fill="#64E9E1" stroke="#4BB8B2" stroke-width="2"/>
<rect x="94" y="136" width="40" height="40" fill="#64E9E1" stroke="#4BB8B2" stroke-width="2"/>
<rect x="134" y="136" width="40" height="40" fill="#64E9E1" stroke="#4BB8B2" stroke-width="2"/>
<rect x="117.5" y="71" width="10" height="10" rx="5" fill="#393939"/>
<rect x="117.5" y="151" width="10" height="10" rx="5" fill="#393939"/>
<rect x="117.5" y="103" width="10" height="10" rx="5" fill="#393939"/>
<rect x="149.5" y="103" width="10" height="10" rx="5" fill="#393939"/>
<rect x="117.5" y="119" width="10" height="10" rx="5" fill="#393939"/>
<rect x="149.5" y="119" width="10" height="10" rx="5" fill="#393939"/>
<rect x="102.5" y="71" width="10" height="10" rx="5" fill="#393939"/>
<rect x="102.5" y="151" width="10" height="10" rx="5" fill="#393939"/>
<rect x="102.5" y="103" width="10" height="10" rx="5" fill="#393939"/>
<rect x="102.5" y="119" width="10" height="10" rx="5" fill="#393939"/>
<rect x="69.5" y="103" width="10" height="10" rx="5" fill="#393939"/>
<rect x="69.5" y="119" width="10" height="10" rx="5" fill="#393939"/>
<path d="M84.5 116C84.5 120.617 83.3432 124.773 81.4992 127.758C79.6504 130.751 77.162 132.5 74.5 132.5C71.838 132.5 69.3496 130.751 67.5008 127.758C65.6568 124.773 64.5 120.617 64.5 116C64.5 111.383 65.6568 107.227 67.5008 104.242C69.3496 101.249 71.838 99.5 74.5 99.5C77.162 99.5 79.6504 101.249 81.4992 104.242C83.3432 107.227 84.5 111.383 84.5 116Z" stroke="#8940EE"/>
<path d="M164.5 116C164.5 120.617 163.343 124.773 161.499 127.758C159.65 130.751 157.162 132.5 154.5 132.5C151.838 132.5 149.35 130.751 147.501 127.758C145.657 124.773 144.5 120.617 144.5 116C144.5 111.383 145.657 107.227 147.501 104.242C149.35 101.249 151.838 99.5 154.5 99.5C157.162 99.5 159.65 101.249 161.499 104.242C163.343 107.227 164.5 111.383 164.5 116Z" stroke="#8940EE"/>
<path d="M115 66C119.617 66 123.773 67.1568 126.758 69.0008C129.751 70.8496 131.5 73.338 131.5 76C131.5 78.662 129.751 81.1504 126.758 82.9992C123.773 84.8432 119.617 86 115 86C110.383 86 106.227 84.8432 103.242 82.9992C100.249 81.1504 98.5 78.662 98.5 76C98.5 73.338 100.249 70.8496 103.242 69.0008C106.227 67.1568 110.383 66 115 66Z" stroke="#8940EE"/>
<path d="M115 145.5C119.617 145.5 123.773 146.657 126.758 148.501C129.751 150.35 131.5 152.838 131.5 155.5C131.5 158.162 129.751 160.65 126.758 162.499C123.773 164.343 119.617 165.5 115 165.5C110.383 165.5 106.227 164.343 103.242 162.499C100.249 160.65 98.5 158.162 98.5 155.5C98.5 152.838 100.249 150.35 103.242 148.501C106.227 146.657 110.383 145.5 115 145.5Z" stroke="#8940EE"/>
<path d="M115 99C124.968 99 133 106.637 133 116C133 125.363 124.968 133 115 133C105.032 133 97 125.363 97 116C97 106.637 105.032 99 115 99Z" stroke="#8940EE"/>
</svg>
