<svg width="214" height="217" viewBox="0 0 214 217" fill="none" xmlns="http://www.w3.org/2000/svg">
<rect x="30" y="92" width="30" height="30" fill="#E0BCEF" stroke="#804F9F" stroke-width="2"/>
<rect x="30" y="122" width="30" height="30" fill="#E0BCEF" stroke="#804F9F" stroke-width="2"/>
<rect x="60" y="122" width="30" height="30" fill="#E0BCEF" stroke="#804F9F" stroke-width="2"/>
<rect x="30" y="152" width="30" height="30" fill="#E0BCEF" stroke="#804F9F" stroke-width="2"/>
<rect x="60" y="152" width="30" height="30" fill="#E0BCEF" stroke="#804F9F" stroke-width="2"/>
<rect x="90" y="152" width="30" height="30" fill="#E0BCEF" stroke="#804F9F" stroke-width="2"/>
<rect width="30" height="30" transform="matrix(0 1 1 0 39 53)" fill="#E0BCEF" stroke="#804F9F" stroke-width="2"/>
<rect width="30" height="30" transform="matrix(0 1 1 0 69 53)" fill="#E0BCEF" stroke="#804F9F" stroke-width="2"/>
<rect width="30" height="30" transform="matrix(0 1 1 0 69 83)" fill="#E0BCEF" stroke="#804F9F" stroke-width="2"/>
<rect width="30" height="30" transform="matrix(0 1 1 0 99 53)" fill="#E0BCEF" stroke="#804F9F" stroke-width="2"/>
<rect width="30" height="30" transform="matrix(0 1 1 0 99 83)" fill="#E0BCEF" stroke="#804F9F" stroke-width="2"/>
<rect width="30" height="30" transform="matrix(0 1 1 0 99 113)" fill="#E0BCEF" stroke="#804F9F" stroke-width="2"/>
<path d="M39 42L49 47.7735V36.2265L39 42ZM129 42L119 36.2265V47.7735L129 42ZM48 43H120V41H48V43Z" fill="#E9DEF3"/>
<path d="M139 183L144.774 173H133.226L139 183ZM139 53L133.226 63H144.774L139 53ZM140 174V62H138V174H140Z" fill="#E9DEF3"/>
<path d="M86.2517 27.096C86.4384 28.2067 86.5317 29.028 86.5317 29.56C86.5317 29.588 86.5177 29.714 86.4897 29.938C86.6857 30.2087 86.9611 30.344 87.3157 30.344C87.5677 30.344 87.7777 30.2693 87.9457 30.12C88.1231 29.9613 88.2117 29.7607 88.2117 29.518C88.2117 29.2193 88.1231 28.5147 87.9457 27.404L89.3877 27.096C89.5744 28.2067 89.6677 29.028 89.6677 29.56C89.6677 29.9987 89.5697 30.3953 89.3737 30.75C89.1871 31.0953 88.9211 31.366 88.5757 31.562C88.2397 31.758 87.8571 31.856 87.4277 31.856C87.0917 31.856 86.7791 31.8 86.4897 31.688C86.2097 31.5667 85.9997 31.408 85.8597 31.212C85.7104 31.4173 85.4911 31.576 85.2017 31.688C84.9217 31.8 84.6137 31.856 84.2777 31.856C83.8204 31.856 83.5031 31.758 83.3257 31.562C83.3351 31.7113 83.3397 31.9727 83.3397 32.346V36H81.8977V32.36C81.8977 31.4453 81.8511 30.6567 81.7577 29.994C81.6644 29.322 81.4777 28.5193 81.1977 27.586L82.5837 27.096L83.2137 29.546C83.3537 30.078 83.6711 30.344 84.1657 30.344C84.4177 30.344 84.6324 30.2693 84.8097 30.12C84.9871 29.9613 85.0757 29.7607 85.0757 29.518C85.0757 29.2007 84.9824 28.496 84.7957 27.404L86.2517 27.096Z" fill="white"/>
<path d="M146.531 116.478C146.531 117.421 146.652 118.205 146.895 118.83C147.138 119.446 147.576 120.062 148.211 120.678L147.357 121.49C146.545 120.799 145.962 120.062 145.607 119.278C145.262 118.494 145.089 117.561 145.089 116.478C145.089 115.395 145.262 114.462 145.607 113.678C145.962 112.894 146.545 112.157 147.357 111.466L148.211 112.292C147.576 112.908 147.138 113.524 146.895 114.14C146.652 114.756 146.531 115.535 146.531 116.478ZM155.332 112.096C155.518 113.207 155.612 114.028 155.612 114.56C155.612 114.588 155.598 114.714 155.57 114.938C155.766 115.209 156.041 115.344 156.396 115.344C156.648 115.344 156.858 115.269 157.026 115.12C157.203 114.961 157.292 114.761 157.292 114.518C157.292 114.219 157.203 113.515 157.026 112.404L158.468 112.096C158.654 113.207 158.748 114.028 158.748 114.56C158.748 114.999 158.65 115.395 158.454 115.75C158.267 116.095 158.001 116.366 157.656 116.562C157.32 116.758 156.937 116.856 156.508 116.856C156.172 116.856 155.859 116.8 155.57 116.688C155.29 116.567 155.08 116.408 154.94 116.212C154.79 116.417 154.571 116.576 154.282 116.688C154.002 116.8 153.694 116.856 153.358 116.856C152.9 116.856 152.583 116.758 152.406 116.562C152.415 116.711 152.42 116.973 152.42 117.346V121H150.978V117.36C150.978 116.445 150.931 115.657 150.838 114.994C150.744 114.322 150.558 113.519 150.278 112.586L151.664 112.096L152.294 114.546C152.434 115.078 152.751 115.344 153.246 115.344C153.498 115.344 153.712 115.269 153.89 115.12C154.067 114.961 154.156 114.761 154.156 114.518C154.156 114.201 154.062 113.496 153.876 112.404L155.332 112.096ZM163.984 117.458H166.364V115.148H167.82V117.458H170.2V118.914H167.82V121.252H166.364V118.914H163.984V117.458ZM175.997 117.36C175.997 116.445 175.951 115.657 175.857 114.994C175.764 114.322 175.577 113.519 175.297 112.586L176.697 112.096C176.996 113.039 177.192 113.865 177.285 114.574C177.388 115.283 177.439 116.207 177.439 117.346V121H175.997V117.36ZM181.468 116.478C181.468 115.535 181.347 114.756 181.104 114.14C180.862 113.524 180.423 112.908 179.788 112.292L180.642 111.466C181.454 112.157 182.033 112.894 182.378 113.678C182.733 114.462 182.91 115.395 182.91 116.478C182.91 117.561 182.733 118.494 182.378 119.278C182.033 120.062 181.454 120.799 180.642 121.49L179.788 120.678C180.423 120.062 180.862 119.446 181.104 118.83C181.347 118.205 181.468 117.421 181.468 116.478Z" fill="white"/>
</svg>
