<svg width="175" height="169" viewBox="0 0 175 169" fill="none" xmlns="http://www.w3.org/2000/svg">
<path d="M68.8645 37.36C68.8645 36.4453 68.8179 35.6567 68.7245 34.994C68.6312 34.322 68.4445 33.5193 68.1645 32.586L69.5645 32.096C69.8632 33.0387 70.0592 33.8647 70.1525 34.574C70.2552 35.2833 70.3065 36.2073 70.3065 37.346V41H68.8645V37.36ZM79.5513 44.388C78.3567 44.388 77.4373 44.0427 76.7933 43.352C76.1493 42.6707 75.8273 41.7093 75.8273 40.468V37.752H77.2693V40.44C77.2693 42.064 78.0347 42.876 79.5653 42.876H80.1393C80.886 42.876 81.474 42.6707 81.9033 42.26C82.3327 41.8493 82.5473 41.2847 82.5473 40.566V31.956H84.0033V38.62C84.0033 38.8907 84.0827 39.1053 84.2413 39.264C84.4093 39.4133 84.6473 39.488 84.9553 39.488H85.2773C85.3707 39.488 85.4173 39.7493 85.4173 40.272C85.4173 40.7573 85.3707 41 85.2773 41H85.0113C84.7967 41 84.596 40.972 84.4093 40.916C84.232 40.86 84.0967 40.79 84.0033 40.706V40.776C83.9847 41.476 83.812 42.1013 83.4853 42.652C83.1587 43.2027 82.706 43.6273 82.1273 43.926C81.5487 44.234 80.886 44.388 80.1393 44.388H79.5513ZM89.0993 39.488C89.454 39.488 89.7293 39.4273 89.9253 39.306C90.1213 39.1753 90.2193 39.0027 90.2193 38.788C90.2193 38.6107 90.1773 38.4473 90.0933 38.298C90.0093 38.1487 89.874 37.976 89.6873 37.78L86.5233 34.658V33.44L91.7033 31.41L92.1373 32.796L88.2593 34.28L90.7653 36.814C91.624 37.6633 92.254 38.27 92.6553 38.634C93.066 38.9887 93.3927 39.222 93.6353 39.334C93.878 39.4367 94.158 39.488 94.4753 39.488C94.5687 39.488 94.6153 39.7493 94.6153 40.272C94.6153 40.7573 94.5687 41 94.4753 41C94.0367 41 93.6773 40.9673 93.3973 40.902C93.1267 40.8273 92.8467 40.6873 92.5573 40.482C92.2773 40.2767 91.918 39.9547 91.4793 39.516C91.3767 39.9733 91.1153 40.3373 90.6953 40.608C90.2753 40.8693 89.7433 41 89.0993 41H85.2773C85.184 41 85.1373 40.7573 85.1373 40.272C85.1373 39.7493 85.184 39.488 85.2773 39.488H89.0993ZM95.5845 39.488C95.9672 39.488 96.2565 39.404 96.4525 39.236C96.6485 39.0587 96.7465 38.8113 96.7465 38.494V36.352H98.2025V38.494C98.2025 39.1567 98.5805 39.488 99.3365 39.488C99.7192 39.488 100.009 39.404 100.205 39.236C100.401 39.0587 100.499 38.8113 100.499 38.494V36.352H101.955V38.494C101.955 38.8113 102.043 39.0587 102.221 39.236C102.398 39.404 102.664 39.488 103.019 39.488C103.383 39.488 103.653 39.404 103.831 39.236C104.017 39.0587 104.111 38.8113 104.111 38.494V36.352H105.553V38.48C105.553 39.2733 105.329 39.894 104.881 40.342C104.433 40.7807 103.812 41 103.019 41C102.067 41 101.451 40.7293 101.171 40.188C100.807 40.7293 100.195 41 99.3365 41C98.8138 41 98.3985 40.9347 98.0905 40.804C97.7825 40.664 97.5585 40.4587 97.4185 40.188C97.0545 40.7293 96.4432 41 95.5845 41H94.4785C94.3852 41 94.3385 40.7573 94.3385 40.272C94.3385 39.7493 94.3852 39.488 94.4785 39.488H95.5845ZM101.913 31.354V32.656H100.443V31.354H101.913ZM103.075 33.412V34.756H99.2665V33.412H103.075Z" fill="#E4E2E7"/>
<path d="M42.5 57H72.5V87H42.5V57Z" fill="#E7B99C"/>
<path d="M72.5 87V88H73.5V87H72.5ZM71.5 57V87H73.5V57H71.5ZM72.5 86H42.5V88H72.5V86Z" fill="#4B71B8"/>
<path d="M72.5 57H102.5V87H72.5V57Z" fill="#A382C6"/>
<path d="M102.5 87V88H103.5V87H102.5ZM72.5 87H71.5V88H72.5V87ZM101.5 57V87H103.5V57H101.5ZM102.5 86H72.5V88H102.5V86ZM73.5 87V57H71.5V87H73.5Z" fill="#4B71B8"/>
<path d="M102.5 57H132.5V87H102.5V57Z" fill="#E7B99C"/>
<path d="M102.5 87H101.5V88H102.5V87ZM132.5 86H102.5V88H132.5V86ZM103.5 87V57H101.5V87H103.5Z" fill="#4B71B8"/>
<path d="M42.5 87H72.5V117H42.5V87Z" fill="#A382C6"/>
<path d="M72.5 87H73.5V86H72.5V87ZM72.5 117V118H73.5V117H72.5ZM42.5 88H72.5V86H42.5V88ZM71.5 87V117H73.5V87H71.5ZM72.5 116H42.5V118H72.5V116Z" fill="#4B71B8"/>
<rect x="72.5" y="87" width="30" height="30" fill="#A382C6" stroke="#4B71B8" stroke-width="2"/>
<path d="M102.5 87H132.5V117H102.5V87Z" fill="#A382C6"/>
<path d="M102.5 87V86H101.5V87H102.5ZM102.5 117H101.5V118H102.5V117ZM102.5 88H132.5V86H102.5V88ZM132.5 116H102.5V118H132.5V116ZM103.5 117V87H101.5V117H103.5Z" fill="#4B71B8"/>
<path d="M42.5 117H72.5V147H42.5V117Z" fill="#E7B99C"/>
<path d="M72.5 117H73.5V116H72.5V117ZM42.5 118H72.5V116H42.5V118ZM71.5 117V147H73.5V117H71.5Z" fill="#4B71B8"/>
<path d="M72.5 117H102.5V147H72.5V117Z" fill="#A382C6"/>
<path d="M72.5 117V116H71.5V117H72.5ZM102.5 117H103.5V116H102.5V117ZM72.5 118H102.5V116H72.5V118ZM101.5 117V147H103.5V117H101.5ZM73.5 147V117H71.5V147H73.5Z" fill="#4B71B8"/>
<path d="M102.5 117H132.5V147H102.5V117Z" fill="#E7B99C"/>
<path d="M102.5 117V116H101.5V117H102.5ZM102.5 118H132.5V116H102.5V118ZM103.5 147V117H101.5V147H103.5Z" fill="#4B71B8"/>
</svg>
