<svg width="165" height="203" viewBox="0 0 165 203" fill="none" xmlns="http://www.w3.org/2000/svg">
<path d="M65.2953 36.856C64.838 36.856 64.5206 36.758 64.3433 36.562C64.3526 36.7113 64.3573 36.9727 64.3573 37.346V41H62.9153V37.36C62.9153 36.4453 62.8686 35.6567 62.7753 34.994C62.682 34.322 62.4953 33.5193 62.2153 32.586L63.6013 32.096L64.2313 34.546C64.3713 35.078 64.6886 35.344 65.1833 35.344C65.4353 35.344 65.65 35.2693 65.8273 35.12C66.0046 34.9613 66.0933 34.7607 66.0933 34.518C66.0933 34.2007 66 33.496 65.8133 32.404L67.2693 32.096C67.456 33.2067 67.5493 34.028 67.5493 34.56C67.5493 34.9987 67.4513 35.3953 67.2553 35.75C67.0593 36.0953 66.7886 36.366 66.4433 36.562C66.1073 36.758 65.7246 36.856 65.2953 36.856ZM76.5006 44.388C75.3059 44.388 74.3866 44.0427 73.7426 43.352C73.0986 42.6707 72.7766 41.7093 72.7766 40.468V37.752H74.2186V40.44C74.2186 42.064 74.9839 42.876 76.5146 42.876H77.0886C77.8352 42.876 78.4232 42.6707 78.8526 42.26C79.2819 41.8493 79.4966 41.2847 79.4966 40.566V31.956H80.9526V38.62C80.9526 38.8907 81.0319 39.1053 81.1906 39.264C81.3586 39.4133 81.5966 39.488 81.9046 39.488H82.2266C82.3199 39.488 82.3666 39.7493 82.3666 40.272C82.3666 40.7573 82.3199 41 82.2266 41H81.9606C81.7459 41 81.5452 40.972 81.3586 40.916C81.1812 40.86 81.0459 40.79 80.9526 40.706V40.776C80.9339 41.476 80.7612 42.1013 80.4346 42.652C80.1079 43.2027 79.6552 43.6273 79.0766 43.926C78.4979 44.234 77.8352 44.388 77.0886 44.388H76.5006ZM86.0486 39.488C86.4032 39.488 86.6786 39.4273 86.8746 39.306C87.0706 39.1753 87.1686 39.0027 87.1686 38.788C87.1686 38.6107 87.1266 38.4473 87.0426 38.298C86.9586 38.1487 86.8232 37.976 86.6366 37.78L83.4726 34.658V33.44L88.6526 31.41L89.0866 32.796L85.2086 34.28L87.7146 36.814C88.5732 37.6633 89.2032 38.27 89.6046 38.634C90.0152 38.9887 90.3419 39.222 90.5846 39.334C90.8272 39.4367 91.1072 39.488 91.4246 39.488C91.5179 39.488 91.5646 39.7493 91.5646 40.272C91.5646 40.7573 91.5179 41 91.4246 41C90.9859 41 90.6266 40.9673 90.3466 40.902C90.0759 40.8273 89.7959 40.6873 89.5066 40.482C89.2266 40.2767 88.8672 39.9547 88.4286 39.516C88.3259 39.9733 88.0646 40.3373 87.6446 40.608C87.2246 40.8693 86.6926 41 86.0486 41H82.2266C82.1332 41 82.0866 40.7573 82.0866 40.272C82.0866 39.7493 82.1332 39.488 82.2266 39.488H86.0486ZM92.5337 39.488C92.9164 39.488 93.2057 39.404 93.4017 39.236C93.5977 39.0587 93.6957 38.8113 93.6957 38.494V36.352H95.1517V38.494C95.1517 39.1567 95.5297 39.488 96.2857 39.488C96.6684 39.488 96.9577 39.404 97.1537 39.236C97.3497 39.0587 97.4477 38.8113 97.4477 38.494V36.352H98.9037V38.494C98.9037 38.8113 98.9924 39.0587 99.1697 39.236C99.3471 39.404 99.6131 39.488 99.9677 39.488C100.332 39.488 100.602 39.404 100.78 39.236C100.966 39.0587 101.06 38.8113 101.06 38.494V36.352H102.502V38.48C102.502 39.2733 102.278 39.894 101.83 40.342C101.382 40.7807 100.761 41 99.9677 41C99.0157 41 98.3997 40.7293 98.1197 40.188C97.7557 40.7293 97.1444 41 96.2857 41C95.7631 41 95.3477 40.9347 95.0397 40.804C94.7317 40.664 94.5077 40.4587 94.3677 40.188C94.0037 40.7293 93.3924 41 92.5337 41H91.4277C91.3344 41 91.2877 40.7573 91.2877 40.272C91.2877 39.7493 91.3344 39.488 91.4277 39.488H92.5337ZM98.8617 31.354V32.656H97.3917V31.354H98.8617ZM100.024 33.412V34.756H96.2157V33.412H100.024Z" fill="#E4E2E7"/>
<circle cx="25.5" cy="101.5" r="11" fill="#F88F7B" stroke="#F84B12" stroke-width="2"/>
<line x1="44" y1="138" x2="44" y2="65" stroke="#F84B12" stroke-width="3"/>
<circle cx="65.5" cy="82" r="11" fill="#F88F7B" stroke="#F84B12" stroke-width="2"/>
<circle cx="65.5" cy="121" r="11" fill="#F88F7B" stroke="#F84B12" stroke-width="2"/>
<circle cx="139.5" cy="101.5" r="11" transform="rotate(180 139.5 101.5)" fill="#F88F7B" stroke="#F84B12" stroke-width="2"/>
<line x1="121" y1="65" x2="121" y2="138" stroke="#F84B12" stroke-width="3"/>
<circle cx="99.5" cy="121" r="11" transform="rotate(180 99.5 121)" fill="#F88F7B" stroke="#F84B12" stroke-width="2"/>
<circle cx="99.5" cy="82" r="11" transform="rotate(180 99.5 82)" fill="#F88F7B" stroke="#F84B12" stroke-width="2"/>
<path d="M68.6448 166.284C68.6448 166.713 68.7194 167.021 68.8688 167.208C69.0181 167.395 69.2374 167.488 69.5268 167.488H69.9188C69.9654 167.488 69.9981 167.539 70.0168 167.642C70.0448 167.745 70.0588 167.955 70.0588 168.272C70.0588 168.571 70.0448 168.767 70.0168 168.86C69.9981 168.953 69.9654 169 69.9188 169H69.5268C69.0134 169 68.5934 168.907 68.2668 168.72C67.9494 168.524 67.7301 168.211 67.6088 167.782C67.4128 167.969 67.1468 168.109 66.8108 168.202C66.4748 168.295 66.1201 168.342 65.7468 168.342C64.9254 168.342 64.3001 168.123 63.8708 167.684C63.4414 167.236 63.2268 166.578 63.2268 165.71C63.2268 165.187 63.3434 164.707 63.5768 164.268C63.8101 163.82 64.1368 163.465 64.5568 163.204C64.9861 162.933 65.4761 162.798 66.0268 162.798H67.2028V161.86H68.6448V166.284ZM64.6688 165.696C64.6688 166.452 65.0514 166.83 65.8168 166.83C66.2554 166.83 66.5961 166.755 66.8388 166.606C67.0814 166.447 67.2028 166.233 67.2028 165.962V164.254H66.0268C65.5974 164.254 65.2614 164.38 65.0188 164.632C64.7854 164.875 64.6688 165.229 64.6688 165.696ZM72.575 159.956V165.206C73.5364 163.825 74.5677 163.134 75.669 163.134C76.1824 163.134 76.6444 163.26 77.055 163.512C77.4657 163.755 77.783 164.1 78.007 164.548C78.2404 164.987 78.357 165.491 78.357 166.06C78.357 166.536 78.273 166.942 78.105 167.278C78.2264 167.362 78.371 167.418 78.539 167.446C78.707 167.474 78.931 167.488 79.211 167.488H79.547C79.6404 167.488 79.687 167.749 79.687 168.272C79.687 168.757 79.6404 169 79.547 169H79.211C78.7537 169 78.3804 168.958 78.091 168.874C77.8017 168.781 77.545 168.617 77.321 168.384C77.069 168.58 76.7704 168.734 76.425 168.846C76.089 168.949 75.7297 169 75.347 169H69.915C69.8217 169 69.775 168.757 69.775 168.272C69.775 167.749 69.8217 167.488 69.915 167.488H71.119V159.956H72.575ZM75.347 167.488C75.8417 167.488 76.2244 167.362 76.495 167.11C76.775 166.858 76.915 166.508 76.915 166.06C76.915 165.621 76.7844 165.267 76.523 164.996C76.271 164.725 75.949 164.59 75.557 164.59C75.0904 164.59 74.6144 164.823 74.129 165.29C73.6437 165.757 73.093 166.489 72.477 167.488H75.347ZM81.4437 167.488C81.2104 167.301 81.0237 167.054 80.8837 166.746C80.7437 166.429 80.6737 166.107 80.6737 165.78C80.6737 165.276 80.795 164.814 81.0377 164.394C81.2804 163.974 81.6117 163.643 82.0317 163.4C82.4517 163.157 82.9184 163.036 83.4317 163.036C83.9637 163.036 84.435 163.148 84.8457 163.372C85.2657 163.596 85.5877 163.913 85.8117 164.324C86.045 164.725 86.1617 165.187 86.1617 165.71C86.1617 166.457 85.8864 167.049 85.3357 167.488H87.2957C87.389 167.488 87.4357 167.749 87.4357 168.272C87.4357 168.757 87.389 169 87.2957 169H85.4197C84.8597 169 84.4304 168.981 84.1317 168.944C83.8424 168.907 83.6137 168.841 83.4457 168.748C83.2684 168.841 83.021 168.907 82.7037 168.944C82.3957 168.981 81.9757 169 81.4437 169H79.5537C79.4604 169 79.4137 168.757 79.4137 168.272C79.4137 167.749 79.4604 167.488 79.5537 167.488H81.4437ZM83.4317 164.492C83.0397 164.492 82.7224 164.613 82.4797 164.856C82.2464 165.099 82.1297 165.407 82.1297 165.78C82.1297 166.125 82.2417 166.447 82.4657 166.746C82.699 167.045 83.021 167.287 83.4317 167.474C83.8517 167.287 84.169 167.045 84.3837 166.746C84.6077 166.438 84.7197 166.116 84.7197 165.78C84.7197 165.379 84.603 165.066 84.3697 164.842C84.1457 164.609 83.833 164.492 83.4317 164.492ZM85.3357 160.152V161.496H81.5277V160.152H85.3357ZM91.142 166.648C91.142 167.385 90.9227 167.964 90.484 168.384C90.0453 168.795 89.4573 169 88.72 169H87.292C87.1987 169 87.152 168.757 87.152 168.272C87.152 167.749 87.1987 167.488 87.292 167.488H88.72C89.0093 167.488 89.2427 167.413 89.42 167.264C89.5973 167.105 89.686 166.886 89.686 166.606V164.352H91.142V166.648ZM88.776 162.756V161.384H90.456V162.756H88.776ZM101.922 164.464C101.269 164.987 100.643 165.631 100.046 166.396C99.4488 167.161 98.8514 168.071 98.2541 169.126L97.0361 168.454C97.3534 167.875 97.7034 167.311 98.0861 166.76C98.4688 166.2 98.8561 165.719 99.2481 165.318C99.1548 165.346 99.0614 165.36 98.9681 165.36C98.1748 165.36 97.5634 165.141 97.1341 164.702C96.7141 164.254 96.5041 163.657 96.5041 162.91C96.5041 162.406 96.6161 161.939 96.8401 161.51C97.0734 161.081 97.3861 160.74 97.7781 160.488C98.1794 160.227 98.6181 160.096 99.0941 160.096C99.4021 160.096 99.6961 160.133 99.9761 160.208C100.256 160.283 100.555 160.404 100.872 160.572L100.382 161.776C99.9434 161.627 99.5328 161.552 99.1501 161.552C98.8048 161.552 98.5154 161.673 98.2821 161.916C98.0581 162.149 97.9461 162.434 97.9461 162.77C97.9461 163.526 98.3848 163.904 99.2621 163.904C99.5328 163.904 99.8408 163.862 100.186 163.778C100.531 163.694 100.886 163.563 101.25 163.386L101.922 164.464Z" fill="#E4E2E7"/>
</svg>
