<svg width="268" height="269" viewBox="0 0 268 269" fill="none" xmlns="http://www.w3.org/2000/svg">
<g clip-path="url(#clip0_1803_92)">
<path d="M117.197 32.096C117.384 33.2067 117.477 34.028 117.477 34.56C117.477 34.588 117.463 34.714 117.435 34.938C117.631 35.2087 117.906 35.344 118.261 35.344C118.513 35.344 118.723 35.2693 118.891 35.12C119.068 34.9613 119.157 34.7607 119.157 34.518C119.157 34.2193 119.068 33.5147 118.891 32.404L120.333 32.096C120.52 33.2067 120.613 34.028 120.613 34.56C120.613 34.9987 120.515 35.3953 120.319 35.75C120.132 36.0953 119.866 36.366 119.521 36.562C119.185 36.758 118.802 36.856 118.373 36.856C118.037 36.856 117.724 36.8 117.435 36.688C117.155 36.5667 116.945 36.408 116.805 36.212C116.656 36.4173 116.436 36.576 116.147 36.688C115.867 36.8 115.559 36.856 115.223 36.856C114.766 36.856 114.448 36.758 114.271 36.562C114.28 36.7113 114.285 36.9727 114.285 37.346V41H112.843V37.36C112.843 36.4453 112.796 35.6567 112.703 34.994C112.61 34.322 112.423 33.5193 112.143 32.586L113.529 32.096L114.159 34.546C114.299 35.078 114.616 35.344 115.111 35.344C115.363 35.344 115.578 35.2693 115.755 35.12C115.932 34.9613 116.021 34.7607 116.021 34.518C116.021 34.2007 115.928 33.496 115.741 32.404L117.197 32.096ZM129.573 44.388C128.378 44.388 127.459 44.0427 126.815 43.352C126.171 42.6707 125.849 41.7093 125.849 40.468V37.752H127.291V40.44C127.291 42.064 128.056 42.876 129.587 42.876H130.161C130.907 42.876 131.495 42.6707 131.925 42.26C132.354 41.8493 132.569 41.2847 132.569 40.566V31.956H134.025V38.62C134.025 38.8907 134.104 39.1053 134.263 39.264C134.431 39.4133 134.669 39.488 134.977 39.488H135.299C135.392 39.488 135.439 39.7493 135.439 40.272C135.439 40.7573 135.392 41 135.299 41H135.033C134.818 41 134.617 40.972 134.431 40.916C134.253 40.86 134.118 40.79 134.025 40.706V40.776C134.006 41.476 133.833 42.1013 133.507 42.652C133.18 43.2027 132.727 43.6273 132.149 43.926C131.57 44.234 130.907 44.388 130.161 44.388H129.573ZM139.121 39.488C139.475 39.488 139.751 39.4273 139.947 39.306C140.143 39.1753 140.241 39.0027 140.241 38.788C140.241 38.6107 140.199 38.4473 140.115 38.298C140.031 38.1487 139.895 37.976 139.709 37.78L136.545 34.658V33.44L141.725 31.41L142.159 32.796L138.281 34.28L140.787 36.814C141.645 37.6633 142.275 38.27 142.677 38.634C143.087 38.9887 143.414 39.222 143.657 39.334C143.899 39.4367 144.179 39.488 144.497 39.488C144.59 39.488 144.637 39.7493 144.637 40.272C144.637 40.7573 144.59 41 144.497 41C144.058 41 143.699 40.9673 143.419 40.902C143.148 40.8273 142.868 40.6873 142.579 40.482C142.299 40.2767 141.939 39.9547 141.501 39.516C141.398 39.9733 141.137 40.3373 140.717 40.608C140.297 40.8693 139.765 41 139.121 41H135.299C135.205 41 135.159 40.7573 135.159 40.272C135.159 39.7493 135.205 39.488 135.299 39.488H139.121ZM145.606 39.488C145.989 39.488 146.278 39.404 146.474 39.236C146.67 39.0587 146.768 38.8113 146.768 38.494V36.352H148.224V38.494C148.224 39.1567 148.602 39.488 149.358 39.488C149.741 39.488 150.03 39.404 150.226 39.236C150.422 39.0587 150.52 38.8113 150.52 38.494V36.352H151.976V38.494C151.976 38.8113 152.065 39.0587 152.242 39.236C152.419 39.404 152.685 39.488 153.04 39.488C153.404 39.488 153.675 39.404 153.852 39.236C154.039 39.0587 154.132 38.8113 154.132 38.494V36.352H155.574V38.48C155.574 39.2733 155.35 39.894 154.902 40.342C154.454 40.7807 153.833 41 153.04 41C152.088 41 151.472 40.7293 151.192 40.188C150.828 40.7293 150.217 41 149.358 41C148.835 41 148.42 40.9347 148.112 40.804C147.804 40.664 147.58 40.4587 147.44 40.188C147.076 40.7293 146.465 41 145.606 41H144.5C144.407 41 144.36 40.7573 144.36 40.272C144.36 39.7493 144.407 39.488 144.5 39.488H145.606ZM151.934 31.354V32.656H150.464V31.354H151.934ZM153.096 33.412V34.756H149.288V33.412H153.096Z" fill="#E4E2E7"/>
<circle cx="34" cy="134.5" r="11" fill="#F88F7B" stroke="#F84B12" stroke-width="2"/>
<circle cx="64" cy="119.5" r="11" fill="#F88F7B" stroke="#F84B12" stroke-width="2"/>
<circle cx="64" cy="149.5" r="11" fill="#F88F7B" stroke="#F84B12" stroke-width="2"/>
<line x1="82.5" y1="182.5" x2="82.5" y2="86.5" stroke="#F84B12" stroke-width="3"/>
<circle cx="104" cy="104.5" r="11" fill="#F88F7B" stroke="#F84B12" stroke-width="2"/>
<circle cx="104" cy="134.5" r="11" fill="#F88F7B" stroke="#F84B12" stroke-width="2"/>
<circle cx="104" cy="164.5" r="11" fill="#F88F7B" stroke="#F84B12" stroke-width="2"/>
<circle cx="134" cy="104.5" r="11" fill="#F88F7B" stroke="#F84B12" stroke-width="2"/>
<circle cx="134" cy="134.5" r="11" fill="#F88F7B" stroke="#F84B12" stroke-width="2"/>
<circle cx="134" cy="164.5" r="11" fill="#F88F7B" stroke="#F84B12" stroke-width="2"/>
<circle cx="164" cy="104.5" r="11" fill="#F88F7B" stroke="#F84B12" stroke-width="2"/>
<circle cx="164" cy="134.5" r="11" fill="#F88F7B" stroke="#F84B12" stroke-width="2"/>
<circle cx="164" cy="164.5" r="11" fill="#F88F7B" stroke="#F84B12" stroke-width="2"/>
<line x1="182.5" y1="182.5" x2="182.5" y2="86.5" stroke="#F84B12" stroke-width="3"/>
<circle cx="10" cy="10" r="11" transform="matrix(1 0 0 -1 224 144.5)" fill="#F88F7B" stroke="#F84B12" stroke-width="2"/>
<circle cx="10" cy="10" r="11" transform="matrix(1 0 0 -1 194 159.5)" fill="#F88F7B" stroke="#F84B12" stroke-width="2"/>
<circle cx="10" cy="10" r="11" transform="matrix(1 0 0 -1 194 129.5)" fill="#F88F7B" stroke="#F84B12" stroke-width="2"/>
<path d="M116.987 232.284C116.987 232.713 117.061 233.021 117.211 233.208C117.36 233.395 117.579 233.488 117.869 233.488H118.261C118.307 233.488 118.34 233.539 118.359 233.642C118.387 233.745 118.401 233.955 118.401 234.272C118.401 234.571 118.387 234.767 118.359 234.86C118.34 234.953 118.307 235 118.261 235H117.869C117.355 235 116.935 234.907 116.609 234.72C116.291 234.524 116.072 234.211 115.951 233.782C115.755 233.969 115.489 234.109 115.153 234.202C114.817 234.295 114.462 234.342 114.089 234.342C113.267 234.342 112.642 234.123 112.213 233.684C111.783 233.236 111.569 232.578 111.569 231.71C111.569 231.187 111.685 230.707 111.919 230.268C112.152 229.82 112.479 229.465 112.899 229.204C113.328 228.933 113.818 228.798 114.369 228.798H115.545V227.86H116.987V232.284ZM113.011 231.696C113.011 232.452 113.393 232.83 114.159 232.83C114.597 232.83 114.938 232.755 115.181 232.606C115.423 232.447 115.545 232.233 115.545 231.962V230.254H114.369C113.939 230.254 113.603 230.38 113.361 230.632C113.127 230.875 113.011 231.229 113.011 231.696ZM120.917 225.956V231.206C121.878 229.825 122.91 229.134 124.011 229.134C124.524 229.134 124.986 229.26 125.397 229.512C125.808 229.755 126.125 230.1 126.349 230.548C126.582 230.987 126.699 231.491 126.699 232.06C126.699 232.536 126.615 232.942 126.447 233.278C126.568 233.362 126.713 233.418 126.881 233.446C127.049 233.474 127.273 233.488 127.553 233.488H127.889C127.982 233.488 128.029 233.749 128.029 234.272C128.029 234.757 127.982 235 127.889 235H127.553C127.096 235 126.722 234.958 126.433 234.874C126.144 234.781 125.887 234.617 125.663 234.384C125.411 234.58 125.112 234.734 124.767 234.846C124.431 234.949 124.072 235 123.689 235H118.257C118.164 235 118.117 234.757 118.117 234.272C118.117 233.749 118.164 233.488 118.257 233.488H119.461V225.956H120.917ZM123.689 233.488C124.184 233.488 124.566 233.362 124.837 233.11C125.117 232.858 125.257 232.508 125.257 232.06C125.257 231.621 125.126 231.267 124.865 230.996C124.613 230.725 124.291 230.59 123.899 230.59C123.432 230.59 122.956 230.823 122.471 231.29C121.986 231.757 121.435 232.489 120.819 233.488H123.689ZM129.786 233.488C129.552 233.301 129.366 233.054 129.226 232.746C129.086 232.429 129.016 232.107 129.016 231.78C129.016 231.276 129.137 230.814 129.38 230.394C129.622 229.974 129.954 229.643 130.374 229.4C130.794 229.157 131.26 229.036 131.774 229.036C132.306 229.036 132.777 229.148 133.188 229.372C133.608 229.596 133.93 229.913 134.154 230.324C134.387 230.725 134.504 231.187 134.504 231.71C134.504 232.457 134.228 233.049 133.678 233.488H135.638C135.731 233.488 135.778 233.749 135.778 234.272C135.778 234.757 135.731 235 135.638 235H133.762C133.202 235 132.772 234.981 132.474 234.944C132.184 234.907 131.956 234.841 131.788 234.748C131.61 234.841 131.363 234.907 131.046 234.944C130.738 234.981 130.318 235 129.786 235H127.896C127.802 235 127.756 234.757 127.756 234.272C127.756 233.749 127.802 233.488 127.896 233.488H129.786ZM131.774 230.492C131.382 230.492 131.064 230.613 130.822 230.856C130.588 231.099 130.472 231.407 130.472 231.78C130.472 232.125 130.584 232.447 130.808 232.746C131.041 233.045 131.363 233.287 131.774 233.474C132.194 233.287 132.511 233.045 132.726 232.746C132.95 232.438 133.062 232.116 133.062 231.78C133.062 231.379 132.945 231.066 132.712 230.842C132.488 230.609 132.175 230.492 131.774 230.492ZM133.678 226.152V227.496H129.87V226.152H133.678ZM139.484 232.648C139.484 233.385 139.264 233.964 138.826 234.384C138.387 234.795 137.799 235 137.062 235H135.634C135.54 235 135.494 234.757 135.494 234.272C135.494 233.749 135.54 233.488 135.634 233.488H137.062C137.351 233.488 137.584 233.413 137.762 233.264C137.939 233.105 138.028 232.886 138.028 232.606V230.352H139.484V232.648ZM137.118 228.756V227.384H138.798V228.756H137.118ZM145.266 231.36C145.266 230.445 145.219 229.657 145.126 228.994C145.033 228.322 144.846 227.519 144.566 226.586L145.966 226.096C146.265 227.039 146.461 227.865 146.554 228.574C146.657 229.283 146.708 230.207 146.708 231.346V235H145.266V231.36ZM148.807 232.48C148.807 231.78 149.027 231.038 149.465 230.254C149.904 229.47 150.632 228.597 151.649 227.636L151.005 227.062L151.915 225.97C153.119 226.894 154.057 227.706 154.729 228.406C155.411 229.106 155.891 229.759 156.171 230.366C156.461 230.973 156.605 231.607 156.605 232.27C156.605 232.83 156.493 233.315 156.269 233.726C156.055 234.137 155.765 234.454 155.401 234.678C155.047 234.893 154.655 235 154.225 235C153.852 235 153.525 234.949 153.245 234.846C152.975 234.743 152.765 234.599 152.615 234.412C152.466 234.599 152.256 234.743 151.985 234.846C151.715 234.949 151.407 235 151.061 235C150.352 235 149.797 234.776 149.395 234.328C149.003 233.88 148.807 233.264 148.807 232.48ZM155.163 232.27C155.163 231.654 154.967 231.057 154.575 230.478C154.183 229.899 153.553 229.255 152.685 228.546C151.845 229.293 151.229 229.974 150.837 230.59C150.445 231.206 150.249 231.813 150.249 232.41C150.249 233.129 150.557 233.488 151.173 233.488C151.491 233.488 151.733 233.399 151.901 233.222C152.069 233.035 152.153 232.779 152.153 232.452V231.514H153.427V232.438C153.427 232.755 153.404 232.998 153.357 233.166C153.525 233.381 153.815 233.488 154.225 233.488C154.496 233.488 154.72 233.381 154.897 233.166C155.075 232.951 155.163 232.653 155.163 232.27Z" fill="#E4E2E7"/>
</g>
<defs>
<clipPath id="clip0_1803_92">
<rect width="268" height="269" fill="white"/>
</clipPath>
</defs>
</svg>
