<svg width="134" height="146" viewBox="0 0 134 146" fill="none" xmlns="http://www.w3.org/2000/svg">
<path d="M48.8645 37.36C48.8645 36.4453 48.8179 35.6567 48.7245 34.994C48.6312 34.322 48.4445 33.5193 48.1645 32.586L49.5645 32.096C49.8632 33.0387 50.0592 33.8647 50.1525 34.574C50.2552 35.2833 50.3065 36.2073 50.3065 37.346V41H48.8645V37.36ZM59.5513 44.388C58.3567 44.388 57.4373 44.0427 56.7933 43.352C56.1493 42.6707 55.8273 41.7093 55.8273 40.468V37.752H57.2693V40.44C57.2693 42.064 58.0347 42.876 59.5653 42.876H60.1393C60.886 42.876 61.474 42.6707 61.9033 42.26C62.3327 41.8493 62.5473 41.2847 62.5473 40.566V31.956H64.0033V38.62C64.0033 38.8907 64.0827 39.1053 64.2413 39.264C64.4093 39.4133 64.6473 39.488 64.9553 39.488H65.2773C65.3707 39.488 65.4173 39.7493 65.4173 40.272C65.4173 40.7573 65.3707 41 65.2773 41H65.0113C64.7967 41 64.596 40.972 64.4093 40.916C64.232 40.86 64.0967 40.79 64.0033 40.706V40.776C63.9847 41.476 63.812 42.1013 63.4853 42.652C63.1587 43.2027 62.706 43.6273 62.1273 43.926C61.5487 44.234 60.886 44.388 60.1393 44.388H59.5513ZM69.0993 39.488C69.454 39.488 69.7293 39.4273 69.9253 39.306C70.1213 39.1753 70.2193 39.0027 70.2193 38.788C70.2193 38.6107 70.1773 38.4473 70.0933 38.298C70.0093 38.1487 69.874 37.976 69.6873 37.78L66.5233 34.658V33.44L71.7033 31.41L72.1373 32.796L68.2593 34.28L70.7653 36.814C71.624 37.6633 72.254 38.27 72.6553 38.634C73.066 38.9887 73.3927 39.222 73.6353 39.334C73.878 39.4367 74.158 39.488 74.4753 39.488C74.5687 39.488 74.6153 39.7493 74.6153 40.272C74.6153 40.7573 74.5687 41 74.4753 41C74.0367 41 73.6773 40.9673 73.3973 40.902C73.1267 40.8273 72.8467 40.6873 72.5573 40.482C72.2773 40.2767 71.918 39.9547 71.4793 39.516C71.3767 39.9733 71.1153 40.3373 70.6953 40.608C70.2753 40.8693 69.7433 41 69.0993 41H65.2773C65.184 41 65.1373 40.7573 65.1373 40.272C65.1373 39.7493 65.184 39.488 65.2773 39.488H69.0993ZM75.5845 39.488C75.9672 39.488 76.2565 39.404 76.4525 39.236C76.6485 39.0587 76.7465 38.8113 76.7465 38.494V36.352H78.2025V38.494C78.2025 39.1567 78.5805 39.488 79.3365 39.488C79.7192 39.488 80.0085 39.404 80.2045 39.236C80.4005 39.0587 80.4985 38.8113 80.4985 38.494V36.352H81.9545V38.494C81.9545 38.8113 82.0432 39.0587 82.2205 39.236C82.3978 39.404 82.6638 39.488 83.0185 39.488C83.3825 39.488 83.6532 39.404 83.8305 39.236C84.0172 39.0587 84.1105 38.8113 84.1105 38.494V36.352H85.5525V38.48C85.5525 39.2733 85.3285 39.894 84.8805 40.342C84.4325 40.7807 83.8118 41 83.0185 41C82.0665 41 81.4505 40.7293 81.1705 40.188C80.8065 40.7293 80.1952 41 79.3365 41C78.8138 41 78.3985 40.9347 78.0905 40.804C77.7825 40.664 77.5585 40.4587 77.4185 40.188C77.0545 40.7293 76.4432 41 75.5845 41H74.4785C74.3852 41 74.3385 40.7573 74.3385 40.272C74.3385 39.7493 74.3852 39.488 74.4785 39.488H75.5845ZM81.9125 31.354V32.656H80.4425V31.354H81.9125ZM83.0745 33.412V34.756H79.2665V33.412H83.0745Z" fill="#E4E2E7"/>
<circle cx="67" cy="73" r="11" fill="#F88F7B" stroke="#F84B12" stroke-width="2"/>
<path d="M54.7785 109.284C54.7785 109.713 54.8532 110.021 55.0025 110.208C55.1519 110.395 55.3712 110.488 55.6605 110.488H56.0525C56.0992 110.488 56.1319 110.539 56.1505 110.642C56.1785 110.745 56.1925 110.955 56.1925 111.272C56.1925 111.571 56.1785 111.767 56.1505 111.86C56.1319 111.953 56.0992 112 56.0525 112H55.6605C55.1472 112 54.7272 111.907 54.4005 111.72C54.0832 111.524 53.8639 111.211 53.7425 110.782C53.5465 110.969 53.2805 111.109 52.9445 111.202C52.6085 111.295 52.2539 111.342 51.8805 111.342C51.0592 111.342 50.4339 111.123 50.0045 110.684C49.5752 110.236 49.3605 109.578 49.3605 108.71C49.3605 108.187 49.4772 107.707 49.7105 107.268C49.9439 106.82 50.2705 106.465 50.6905 106.204C51.1199 105.933 51.6099 105.798 52.1605 105.798H53.3365V104.86H54.7785V109.284ZM50.8025 108.696C50.8025 109.452 51.1852 109.83 51.9505 109.83C52.3892 109.83 52.7299 109.755 52.9725 109.606C53.2152 109.447 53.3365 109.233 53.3365 108.962V107.254H52.1605C51.7312 107.254 51.3952 107.38 51.1525 107.632C50.9192 107.875 50.8025 108.229 50.8025 108.696ZM58.7088 102.956V108.206C59.6702 106.825 60.7015 106.134 61.8028 106.134C62.3162 106.134 62.7782 106.26 63.1888 106.512C63.5995 106.755 63.9168 107.1 64.1408 107.548C64.3742 107.987 64.4908 108.491 64.4908 109.06C64.4908 109.536 64.4068 109.942 64.2388 110.278C64.3602 110.362 64.5048 110.418 64.6728 110.446C64.8408 110.474 65.0648 110.488 65.3448 110.488H65.6808C65.7742 110.488 65.8208 110.749 65.8208 111.272C65.8208 111.757 65.7742 112 65.6808 112H65.3448C64.8875 112 64.5142 111.958 64.2248 111.874C63.9355 111.781 63.6788 111.617 63.4548 111.384C63.2028 111.58 62.9042 111.734 62.5588 111.846C62.2228 111.949 61.8635 112 61.4808 112H56.0488C55.9555 112 55.9088 111.757 55.9088 111.272C55.9088 110.749 55.9555 110.488 56.0488 110.488H57.2528V102.956H58.7088ZM61.4808 110.488C61.9755 110.488 62.3582 110.362 62.6288 110.11C62.9088 109.858 63.0488 109.508 63.0488 109.06C63.0488 108.621 62.9182 108.267 62.6568 107.996C62.4048 107.725 62.0828 107.59 61.6908 107.59C61.2242 107.59 60.7482 107.823 60.2628 108.29C59.7775 108.757 59.2268 109.489 58.6108 110.488H61.4808ZM67.5775 110.488C67.3442 110.301 67.1575 110.054 67.0175 109.746C66.8775 109.429 66.8075 109.107 66.8075 108.78C66.8075 108.276 66.9288 107.814 67.1715 107.394C67.4142 106.974 67.7455 106.643 68.1655 106.4C68.5855 106.157 69.0522 106.036 69.5655 106.036C70.0975 106.036 70.5688 106.148 70.9795 106.372C71.3995 106.596 71.7215 106.913 71.9455 107.324C72.1788 107.725 72.2955 108.187 72.2955 108.71C72.2955 109.457 72.0202 110.049 71.4695 110.488H73.4295C73.5228 110.488 73.5695 110.749 73.5695 111.272C73.5695 111.757 73.5228 112 73.4295 112H71.5535C70.9935 112 70.5642 111.981 70.2655 111.944C69.9762 111.907 69.7475 111.841 69.5795 111.748C69.4022 111.841 69.1548 111.907 68.8375 111.944C68.5295 111.981 68.1095 112 67.5775 112H65.6875C65.5942 112 65.5475 111.757 65.5475 111.272C65.5475 110.749 65.5942 110.488 65.6875 110.488H67.5775ZM69.5655 107.492C69.1735 107.492 68.8562 107.613 68.6135 107.856C68.3802 108.099 68.2635 108.407 68.2635 108.78C68.2635 109.125 68.3755 109.447 68.5995 109.746C68.8328 110.045 69.1548 110.287 69.5655 110.474C69.9855 110.287 70.3028 110.045 70.5175 109.746C70.7415 109.438 70.8535 109.116 70.8535 108.78C70.8535 108.379 70.7368 108.066 70.5035 107.842C70.2795 107.609 69.9668 107.492 69.5655 107.492ZM71.4695 103.152V104.496H67.6615V103.152H71.4695ZM77.2758 109.648C77.2758 110.385 77.0564 110.964 76.6178 111.384C76.1791 111.795 75.5911 112 74.8538 112H73.4258C73.3324 112 73.2858 111.757 73.2858 111.272C73.2858 110.749 73.3324 110.488 73.4258 110.488H74.8538C75.1431 110.488 75.3764 110.413 75.5538 110.264C75.7311 110.105 75.8198 109.886 75.8198 109.606V107.352H77.2758V109.648ZM74.9098 105.756V104.384H76.5898V105.756H74.9098ZM83.0579 108.36C83.0579 107.445 83.0112 106.657 82.9179 105.994C82.8246 105.322 82.6379 104.519 82.3579 103.586L83.7579 103.096C84.0566 104.039 84.2526 104.865 84.3459 105.574C84.4486 106.283 84.4999 107.207 84.4999 108.346V112H83.0579V108.36Z" fill="#E4E2E7"/>
</svg>
