<svg width="134" height="156" viewBox="0 0 134 156" fill="none" xmlns="http://www.w3.org/2000/svg">
<path d="M48.8645 37.36C48.8645 36.4453 48.8179 35.6567 48.7245 34.994C48.6312 34.322 48.4445 33.5193 48.1645 32.586L49.5645 32.096C49.8632 33.0387 50.0592 33.8647 50.1525 34.574C50.2552 35.2833 50.3065 36.2073 50.3065 37.346V41H48.8645V37.36ZM59.5513 44.388C58.3567 44.388 57.4373 44.0427 56.7933 43.352C56.1493 42.6707 55.8273 41.7093 55.8273 40.468V37.752H57.2693V40.44C57.2693 42.064 58.0347 42.876 59.5653 42.876H60.1393C60.886 42.876 61.474 42.6707 61.9033 42.26C62.3327 41.8493 62.5473 41.2847 62.5473 40.566V31.956H64.0033V38.62C64.0033 38.8907 64.0827 39.1053 64.2413 39.264C64.4093 39.4133 64.6473 39.488 64.9553 39.488H65.2773C65.3707 39.488 65.4173 39.7493 65.4173 40.272C65.4173 40.7573 65.3707 41 65.2773 41H65.0113C64.7967 41 64.596 40.972 64.4093 40.916C64.232 40.86 64.0967 40.79 64.0033 40.706V40.776C63.9847 41.476 63.812 42.1013 63.4853 42.652C63.1587 43.2027 62.706 43.6273 62.1273 43.926C61.5487 44.234 60.886 44.388 60.1393 44.388H59.5513ZM69.0993 39.488C69.454 39.488 69.7293 39.4273 69.9253 39.306C70.1213 39.1753 70.2193 39.0027 70.2193 38.788C70.2193 38.6107 70.1773 38.4473 70.0933 38.298C70.0093 38.1487 69.874 37.976 69.6873 37.78L66.5233 34.658V33.44L71.7033 31.41L72.1373 32.796L68.2593 34.28L70.7653 36.814C71.624 37.6633 72.254 38.27 72.6553 38.634C73.066 38.9887 73.3927 39.222 73.6353 39.334C73.878 39.4367 74.158 39.488 74.4753 39.488C74.5687 39.488 74.6153 39.7493 74.6153 40.272C74.6153 40.7573 74.5687 41 74.4753 41C74.0367 41 73.6773 40.9673 73.3973 40.902C73.1267 40.8273 72.8467 40.6873 72.5573 40.482C72.2773 40.2767 71.918 39.9547 71.4793 39.516C71.3767 39.9733 71.1153 40.3373 70.6953 40.608C70.2753 40.8693 69.7433 41 69.0993 41H65.2773C65.184 41 65.1373 40.7573 65.1373 40.272C65.1373 39.7493 65.184 39.488 65.2773 39.488H69.0993ZM75.5845 39.488C75.9672 39.488 76.2565 39.404 76.4525 39.236C76.6485 39.0587 76.7465 38.8113 76.7465 38.494V36.352H78.2025V38.494C78.2025 39.1567 78.5805 39.488 79.3365 39.488C79.7192 39.488 80.0085 39.404 80.2045 39.236C80.4005 39.0587 80.4985 38.8113 80.4985 38.494V36.352H81.9545V38.494C81.9545 38.8113 82.0432 39.0587 82.2205 39.236C82.3978 39.404 82.6638 39.488 83.0185 39.488C83.3825 39.488 83.6532 39.404 83.8305 39.236C84.0172 39.0587 84.1105 38.8113 84.1105 38.494V36.352H85.5525V38.48C85.5525 39.2733 85.3285 39.894 84.8805 40.342C84.4325 40.7807 83.8118 41 83.0185 41C82.0665 41 81.4505 40.7293 81.1705 40.188C80.8065 40.7293 80.1952 41 79.3365 41C78.8138 41 78.3985 40.9347 78.0905 40.804C77.7825 40.664 77.5585 40.4587 77.4185 40.188C77.0545 40.7293 76.4432 41 75.5845 41H74.4785C74.3852 41 74.3385 40.7573 74.3385 40.272C74.3385 39.7493 74.3852 39.488 74.4785 39.488H75.5845ZM81.9125 31.354V32.656H80.4425V31.354H81.9125ZM83.0745 33.412V34.756H79.2665V33.412H83.0745Z" fill="#E4E2E7"/>
<rect x="52" y="63" width="30" height="30" fill="#E0BCEF" stroke="#804F9F" stroke-width="2"/>
<path d="M55.9086 116.4C56.4966 116.4 56.9679 116.535 57.3226 116.806C57.6772 117.077 57.8546 117.473 57.8546 117.996C57.8546 118.379 57.7472 118.743 57.5326 119.088C57.3179 119.424 56.9119 119.858 56.3146 120.39C56.5106 120.455 56.9166 120.488 57.5326 120.488H58.9886C59.0352 120.488 59.0679 120.539 59.0866 120.642C59.1146 120.745 59.1286 120.955 59.1286 121.272C59.1286 121.571 59.1146 121.767 59.0866 121.86C59.0679 121.953 59.0352 122 58.9886 122H57.5326C56.6739 122 56.0532 121.953 55.6706 121.86C55.2879 121.767 54.9566 121.589 54.6766 121.328C53.5659 122.028 53.0106 122.826 53.0106 123.722C53.0106 124.273 53.1879 124.679 53.5426 124.94C53.9066 125.201 54.4806 125.332 55.2646 125.332H57.9946L57.8686 126.844H55.1946C53.9532 126.844 53.0386 126.592 52.4506 126.088C51.8626 125.584 51.5686 124.814 51.5686 123.778C51.5686 122.49 52.1846 121.379 53.4166 120.446L51.6246 117.814L52.3666 116.4H55.9086ZM56.4546 118.29C56.4546 118.131 56.3892 118.01 56.2586 117.926C56.1372 117.842 55.9552 117.8 55.7126 117.8H53.2486L54.8166 120.124C55.4606 119.573 55.8946 119.172 56.1186 118.92C56.3426 118.668 56.4546 118.458 56.4546 118.29ZM62.8451 119.648C62.8451 120.385 62.6258 120.964 62.1871 121.384C61.7485 121.795 61.1605 122 60.4231 122H58.9951C58.9018 122 58.8551 121.757 58.8551 121.272C58.8551 120.749 58.9018 120.488 58.9951 120.488H60.4231C60.7125 120.488 60.9458 120.413 61.1231 120.264C61.3005 120.105 61.3891 119.886 61.3891 119.606V117.352H62.8451V119.648ZM59.2751 125.01V123.638H60.9551V125.01H59.2751ZM63.3926 123.876C64.1113 123.876 64.6713 123.671 65.0726 123.26C65.4833 122.859 65.6886 122.289 65.6886 121.552V117.352H67.1446V119.508C67.1446 120.161 67.4993 120.488 68.2086 120.488H68.4046C68.498 120.488 68.5446 120.749 68.5446 121.272C68.5446 121.757 68.498 122 68.4046 122H68.2086C67.9753 122 67.7606 121.967 67.5646 121.902C67.378 121.827 67.238 121.729 67.1446 121.608V121.692C67.126 122.42 66.958 123.064 66.6406 123.624C66.3326 124.184 65.8986 124.618 65.3386 124.926C64.788 125.234 64.144 125.388 63.4066 125.388H63.0006L62.8746 123.876H63.3926ZM68.7374 120.488C69.0454 120.488 69.2647 120.427 69.3954 120.306C69.5354 120.175 69.6054 119.975 69.6054 119.704V119.214C69.6054 118.318 69.8527 117.609 70.3474 117.086C70.8514 116.563 71.5327 116.302 72.3914 116.302C73.25 116.302 73.908 116.554 74.3654 117.058C74.8227 117.553 75.0514 118.267 75.0514 119.2C75.0514 120.087 74.8087 120.777 74.3234 121.272C73.8474 121.757 73.1847 122 72.3354 122C71.8594 122 71.458 121.935 71.1314 121.804C70.8047 121.664 70.5667 121.473 70.4174 121.23C70.2494 121.501 70.03 121.697 69.7594 121.818C69.498 121.939 69.1574 122 68.7374 122H68.4014C68.308 122 68.2614 121.757 68.2614 121.272C68.2614 120.749 68.308 120.488 68.4014 120.488H68.7374ZM73.6094 119.2C73.6094 118.715 73.502 118.355 73.2874 118.122C73.082 117.879 72.7647 117.758 72.3354 117.758C71.906 117.758 71.584 117.879 71.3694 118.122C71.164 118.355 71.0614 118.719 71.0614 119.214C71.0614 119.625 71.1687 119.942 71.3834 120.166C71.598 120.381 71.9154 120.488 72.3354 120.488C72.7647 120.488 73.082 120.385 73.2874 120.18C73.502 119.965 73.6094 119.639 73.6094 119.2ZM80.8499 118.36C80.8499 117.445 80.8032 116.657 80.7099 115.994C80.6165 115.322 80.4299 114.519 80.1499 113.586L81.5499 113.096C81.8485 114.039 82.0445 114.865 82.1379 115.574C82.2405 116.283 82.2919 117.207 82.2919 118.346V122H80.8499V118.36Z" fill="#E4E2E7"/>
</svg>
