<svg width="586" height="129" viewBox="0 0 586 129" fill="none" xmlns="http://www.w3.org/2000/svg">
<line x1="13" y1="103.75" x2="58" y2="103.75" stroke="#F689FF" stroke-width="2.5" stroke-dasharray="5 5"/>
<line x1="60" y1="103.75" x2="410" y2="103.75" stroke="#F689FF" stroke-width="2.5"/>
<line x1="169.75" y1="105" x2="169.75" y2="79" stroke="#F689FF" stroke-width="2.5"/>
<line x1="401.75" y1="105" x2="401.75" y2="79" stroke="#F689FF" stroke-width="2.5"/>
<line x1="393.75" y1="105" x2="393.75" y2="79" stroke="#F689FF" stroke-width="2.5"/>
<line x1="384.75" y1="105" x2="384.75" y2="79" stroke="#F689FF" stroke-width="2.5"/>
<line x1="374.75" y1="105" x2="374.75" y2="79" stroke="#F689FF" stroke-width="2.5"/>
<line x1="357.75" y1="105" x2="357.75" y2="79" stroke="#F689FF" stroke-width="2.5"/>
<line x1="280.75" y1="105" x2="280.75" y2="79" stroke="#F689FF" stroke-width="2.5"/>
<path d="M320 102L327.217 89.5L312.783 89.5L320 102ZM321.25 90.75L321.25 58L318.75 58L318.75 90.75L321.25 90.75Z" fill="#70DBAE"/>
<path d="M170 78L177.217 65.5H162.783L170 78ZM171.25 66.75V53H168.75V66.75H171.25Z" fill="#70DBAE"/>
<line x1="258.75" y1="105" x2="258.75" y2="79" stroke="#F689FF" stroke-width="2.5"/>
<line x1="225.75" y1="105" x2="225.75" y2="79" stroke="#F689FF" stroke-width="2.5"/>
<path d="M578 104L565.5 96.7831L565.5 111.217L578 104ZM413 105.25L415.578 105.25L415.578 102.75L413 102.75L413 105.25ZM420.734 105.25L425.891 105.25L425.891 102.75L420.734 102.75L420.734 105.25ZM431.047 105.25L436.203 105.25L436.203 102.75L431.047 102.75L431.047 105.25ZM441.359 105.25L446.516 105.25L446.516 102.75L441.359 102.75L441.359 105.25ZM451.672 105.25L456.828 105.25L456.828 102.75L451.672 102.75L451.672 105.25ZM461.984 105.25L467.141 105.25L467.141 102.75L461.984 102.75L461.984 105.25ZM472.297 105.25L477.453 105.25L477.453 102.75L472.297 102.75L472.297 105.25ZM482.609 105.25L487.766 105.25L487.766 102.75L482.609 102.75L482.609 105.25ZM492.922 105.25L498.078 105.25L498.078 102.75L492.922 102.75L492.922 105.25ZM503.234 105.25L508.391 105.25L508.391 102.75L503.234 102.75L503.234 105.25ZM513.547 105.25L518.703 105.25L518.703 102.75L513.547 102.75L513.547 105.25ZM523.859 105.25L529.016 105.25L529.016 102.75L523.859 102.75L523.859 105.25ZM534.172 105.25L539.328 105.25L539.328 102.75L534.172 102.75L534.172 105.25ZM544.484 105.25L549.641 105.25L549.641 102.75L544.484 102.75L544.484 105.25ZM554.797 105.25L559.953 105.25L559.953 102.75L554.797 102.75L554.797 105.25ZM565.109 105.25L570.266 105.25L570.266 102.75L565.109 102.75L565.109 105.25Z" fill="#F689FF"/>
<path d="M30.3495 23.18C30.3495 22.676 30.0535 22.424 29.4615 22.424H27.1815V20.24C27.1815 19.576 27.3815 19.04 27.7815 18.632C28.1815 18.216 28.7215 18.008 29.4015 18.008H30.9255L31.0095 19.004H29.3775C29.0255 19.004 28.7375 19.12 28.5135 19.352C28.2975 19.576 28.1895 19.86 28.1895 20.204V21.392H29.6295C30.2055 21.392 30.6335 21.544 30.9135 21.848C31.2015 22.144 31.3455 22.568 31.3455 23.12C31.3455 23.624 31.1975 24.092 30.9015 24.524C30.6135 24.956 30.2175 25.296 29.7135 25.544C29.2175 25.8 28.6655 25.928 28.0575 25.928H27.1335C26.1255 25.928 25.3495 25.636 24.8055 25.052C24.2615 24.468 23.9895 23.652 23.9895 22.604V20.336H24.9855V22.58C24.9855 23.34 25.1695 23.916 25.5375 24.308C25.9055 24.7 26.4455 24.896 27.1575 24.896H28.0575C28.5055 24.896 28.9015 24.82 29.2455 24.668C29.5975 24.524 29.8695 24.32 30.0615 24.056C30.2535 23.8 30.3495 23.508 30.3495 23.18ZM32.3789 24.896C33.0589 24.896 33.5909 24.696 33.9749 24.296C34.3589 23.904 34.5509 23.356 34.5509 22.652V19.136H35.5469V21.044C35.5469 21.34 35.6309 21.568 35.7989 21.728C35.9749 21.888 36.2269 21.968 36.5549 21.968H36.7109C36.7909 21.968 36.8309 22.144 36.8309 22.496C36.8309 22.832 36.7909 23 36.7109 23H36.5549C36.3389 23 36.1389 22.964 35.9549 22.892C35.7709 22.812 35.6349 22.712 35.5469 22.592V22.736C35.5389 23.376 35.4029 23.936 35.1389 24.416C34.8749 24.904 34.5069 25.276 34.0349 25.532C33.5629 25.796 33.0189 25.928 32.4029 25.928H32.0669L31.9709 24.896H32.3789ZM39.0961 21.968C39.4081 21.968 39.6561 21.888 39.8401 21.728C40.0241 21.568 40.1161 21.352 40.1161 21.08V19.136H41.1121V21.056C41.1121 21.352 41.1921 21.58 41.3521 21.74C41.5201 21.892 41.7601 21.968 42.0721 21.968H42.4081C42.4881 21.968 42.5281 22.14 42.5281 22.484C42.5281 22.828 42.4881 23 42.4081 23H42.0361C41.3001 23 40.8201 22.764 40.5961 22.292C40.3161 22.764 39.8161 23 39.0961 23H36.8281C36.7481 23 36.7081 22.832 36.7081 22.496C36.7081 22.144 36.7481 21.968 36.8281 21.968H39.0961ZM39.8521 24.512V25.46H36.6841V24.512H39.8521ZM47.5542 13.292L47.7582 13.94L43.6542 15.644V14.924L47.5542 13.292ZM45.8502 21.968C46.1942 21.968 46.4622 21.9 46.6542 21.764C46.8542 21.628 46.9542 21.444 46.9542 21.212C46.9542 21.052 46.9142 20.896 46.8342 20.744C46.7622 20.584 46.6382 20.416 46.4622 20.24L43.6422 17.444V16.58L48.0222 14.84L48.3222 15.8L44.8182 17.18L47.2182 19.592C47.7062 20.08 47.9502 20.624 47.9502 21.224C47.9502 21.752 47.7662 22.18 47.3982 22.508C47.0302 22.836 46.5142 23 45.8502 23H42.5262C42.4462 23 42.4062 22.832 42.4062 22.496C42.4062 22.144 42.4462 21.968 42.5262 21.968H45.8502ZM57.2365 21.116C57.2365 21.38 57.3165 21.588 57.4765 21.74C57.6445 21.892 57.8765 21.968 58.1725 21.968H58.4005C58.4805 21.968 58.5205 22.144 58.5205 22.496C58.5205 22.832 58.4805 23 58.4005 23H58.2085C58.0005 23 57.8085 22.968 57.6325 22.904C57.4565 22.84 57.3245 22.756 57.2365 22.652V22.796C57.2285 23.404 57.0845 23.944 56.8045 24.416C56.5245 24.896 56.1405 25.268 55.6525 25.532C55.1645 25.796 54.6045 25.928 53.9725 25.928H53.4445C52.4365 25.928 51.6605 25.636 51.1165 25.052C50.5725 24.468 50.3005 23.652 50.3005 22.604V20.336H51.2965V22.58C51.2965 23.34 51.4805 23.916 51.8485 24.308C52.2165 24.7 52.7565 24.896 53.4685 24.896H53.9725C54.6605 24.896 55.2085 24.696 55.6165 24.296C56.0325 23.896 56.2405 23.356 56.2405 22.676V19.136H57.2365V21.116ZM52.8925 18.776V17.78H54.1645V18.776H52.8925ZM60.7871 21.968C61.0991 21.968 61.3471 21.888 61.5311 21.728C61.7151 21.568 61.8071 21.352 61.8071 21.08V19.136H62.8031V21.056C62.8031 21.352 62.8831 21.58 63.0431 21.74C63.2111 21.892 63.4511 21.968 63.7631 21.968H64.0991C64.1791 21.968 64.2191 22.14 64.2191 22.484C64.2191 22.828 64.1791 23 64.0991 23H63.7271C62.9911 23 62.5111 22.764 62.2871 22.292C62.0071 22.764 61.5071 23 60.7871 23H58.5191C58.4391 23 58.3991 22.832 58.3991 22.496C58.3991 22.144 58.4391 21.968 58.5191 21.968H60.7871ZM61.5431 24.512V25.46H58.3751V24.512H61.5431ZM69.2452 13.292L69.4492 13.94L65.3452 15.644V14.924L69.2452 13.292ZM67.5412 21.968C67.8852 21.968 68.1532 21.9 68.3452 21.764C68.5452 21.628 68.6452 21.444 68.6452 21.212C68.6452 21.052 68.6052 20.896 68.5252 20.744C68.4532 20.584 68.3292 20.416 68.1532 20.24L65.3332 17.444V16.58L69.7132 14.84L70.0132 15.8L66.5092 17.18L68.8852 19.568C69.6452 20.336 70.2052 20.88 70.5652 21.2C70.9252 21.52 71.2092 21.728 71.4172 21.824C71.6252 21.92 71.8612 21.968 72.1252 21.968C72.2052 21.968 72.2452 22.144 72.2452 22.496C72.2452 22.832 72.2052 23 72.1252 23C71.7812 23 71.4932 22.968 71.2612 22.904C71.0372 22.832 70.7932 22.7 70.5292 22.508C70.2732 22.308 69.9332 21.996 69.5092 21.572C69.4772 21.996 69.2852 22.34 68.9332 22.604C68.5892 22.868 68.1252 23 67.5412 23H64.2172C64.1372 23 64.0972 22.832 64.0972 22.496C64.0972 22.144 64.1372 21.968 64.2172 21.968H67.5412ZM75.4633 21.092C75.4633 21.684 75.2833 22.152 74.9233 22.496C74.5633 22.832 74.0873 23 73.4953 23H72.2473C72.1673 23 72.1273 22.832 72.1273 22.496C72.1273 22.144 72.1673 21.968 72.2473 21.968H73.4953C73.7833 21.968 74.0153 21.892 74.1913 21.74C74.3753 21.58 74.4673 21.36 74.4673 21.08V19.136H75.4633V21.092ZM73.6153 17.696V16.7H74.8873V17.696H73.6153ZM79.7912 21.968C79.8312 21.968 79.8592 22.004 79.8752 22.076C79.8992 22.14 79.9112 22.28 79.9112 22.496C79.9112 22.704 79.8992 22.84 79.8752 22.904C79.8592 22.968 79.8312 23 79.7912 23H79.4792C78.8712 23 78.4072 22.82 78.0872 22.46C77.7752 22.092 77.6192 21.572 77.6192 20.9V15.236H78.6152V20.852C78.6152 21.596 78.9192 21.968 79.5272 21.968H79.7912ZM81.357 21.968C81.669 21.968 81.917 21.888 82.101 21.728C82.285 21.568 82.377 21.352 82.377 21.08V19.136H83.373V21.056C83.373 21.352 83.453 21.58 83.613 21.74C83.781 21.892 84.021 21.968 84.333 21.968H84.669C84.749 21.968 84.789 22.14 84.789 22.484C84.789 22.828 84.749 23 84.669 23H84.297C83.561 23 83.081 22.764 82.857 22.292C82.577 22.764 82.077 23 81.357 23H79.917C79.837 23 79.797 22.832 79.797 22.496C79.797 22.144 79.837 21.968 79.917 21.968H81.357ZM82.389 24.512V25.46H79.221V24.512H82.389ZM85.0708 21.968C85.6388 21.968 85.9228 21.712 85.9228 21.2V20.708C85.9228 19.94 86.1268 19.336 86.5348 18.896C86.9428 18.456 87.5028 18.236 88.2148 18.236C88.9268 18.236 89.4748 18.444 89.8588 18.86C90.2428 19.276 90.4348 19.876 90.4348 20.66C90.4348 21.404 90.2348 21.98 89.8348 22.388C89.4348 22.796 88.8828 23 88.1788 23C87.3468 23 86.7868 22.752 86.4988 22.256C86.3628 22.512 86.1828 22.7 85.9588 22.82C85.7348 22.94 85.4388 23 85.0708 23H84.7948C84.7148 23 84.6748 22.832 84.6748 22.496C84.6748 22.144 84.7148 21.968 84.7948 21.968H85.0708ZM89.4388 20.66C89.4388 19.716 89.0188 19.244 88.1788 19.244C87.7548 19.244 87.4388 19.364 87.2308 19.604C87.0228 19.844 86.9188 20.212 86.9188 20.708C86.9188 21.1 87.0268 21.408 87.2428 21.632C87.4668 21.856 87.7788 21.968 88.1788 21.968C89.0188 21.968 89.4388 21.532 89.4388 20.66ZM97.9479 22.652C97.9479 23.316 97.8159 23.896 97.5519 24.392C97.2879 24.888 96.9159 25.268 96.4359 25.532C95.9639 25.796 95.4199 25.928 94.8039 25.928H94.4679L94.3719 24.896H94.7799C95.4599 24.896 95.9919 24.696 96.3759 24.296C96.7599 23.904 96.9519 23.356 96.9519 22.652V19.136H97.9479V22.652ZM104.55 19.604C104.806 19.9 104.99 20.18 105.102 20.444C105.214 20.7 105.27 20.96 105.27 21.224C105.27 21.752 105.086 22.18 104.718 22.508C104.35 22.836 103.834 23 103.17 23H99.7498L99.6538 21.968H103.17C103.522 21.968 103.794 21.9 103.986 21.764C104.178 21.628 104.274 21.444 104.274 21.212C104.274 21.068 104.234 20.924 104.154 20.78C104.082 20.628 103.958 20.448 103.782 20.24L101.538 17.66L102.246 16.952L104.55 19.604ZM110.405 15.236H111.401V23H110.405V15.236ZM115.291 22.652C115.291 23.316 115.159 23.896 114.895 24.392C114.631 24.888 114.259 25.268 113.779 25.532C113.307 25.796 112.763 25.928 112.147 25.928H111.307L111.211 24.896H112.123C112.803 24.896 113.335 24.696 113.719 24.296C114.103 23.904 114.295 23.356 114.295 22.652V19.136H115.291V22.652ZM124.86 20.768C124.86 21.192 124.932 21.5 125.076 21.692C125.228 21.876 125.448 21.968 125.736 21.968H126.024C126.064 21.968 126.092 22.004 126.108 22.076C126.132 22.14 126.144 22.28 126.144 22.496C126.144 22.704 126.132 22.84 126.108 22.904C126.092 22.968 126.064 23 126.024 23H125.736C124.848 23 124.312 22.62 124.128 21.86C123.96 22.044 123.72 22.184 123.408 22.28C123.096 22.368 122.764 22.412 122.412 22.412C121.732 22.412 121.212 22.228 120.852 21.86C120.492 21.492 120.312 20.952 120.312 20.24C120.312 19.792 120.408 19.384 120.6 19.016C120.8 18.64 121.076 18.344 121.428 18.128C121.788 17.904 122.196 17.792 122.652 17.792H123.864V16.964H124.86V20.768ZM121.308 20.216C121.308 20.992 121.696 21.38 122.472 21.38C122.896 21.38 123.232 21.304 123.48 21.152C123.736 20.992 123.864 20.78 123.864 20.516V18.8H122.652C122.236 18.8 121.908 18.924 121.668 19.172C121.428 19.42 121.308 19.768 121.308 20.216ZM130.196 18.056C130.676 18.056 131.072 18.136 131.384 18.296C131.696 18.456 131.956 18.72 132.164 19.088C132.372 19.448 132.552 19.948 132.704 20.588L131.756 21.164C131.884 21.468 132.036 21.68 132.212 21.8C132.388 21.912 132.636 21.968 132.956 21.968H133.748C133.828 21.968 133.868 22.144 133.868 22.496C133.868 22.712 133.856 22.852 133.832 22.916C133.808 22.972 133.78 23 133.748 23H132.92C132.44 23 132.06 22.904 131.78 22.712C131.5 22.512 131.244 22.152 131.012 21.632L130.184 22.148C129.672 22.468 129.18 22.692 128.708 22.82C128.236 22.94 127.648 23 126.944 23H126.14C126.06 23 126.02 22.832 126.02 22.496C126.02 22.144 126.06 21.968 126.14 21.968H126.98C127.58 21.968 128.08 21.92 128.48 21.824C128.88 21.728 129.292 21.56 129.716 21.32L131.54 20.252C131.412 19.82 131.236 19.52 131.012 19.352C130.796 19.184 130.468 19.1 130.028 19.1H127.22L127.352 18.056H130.196ZM128.264 25.508V24.512H129.536V25.508H128.264ZM135.306 21.968C135.618 21.968 135.866 21.888 136.05 21.728C136.234 21.568 136.326 21.352 136.326 21.08V19.136H137.322V21.056C137.322 21.352 137.402 21.58 137.562 21.74C137.73 21.892 137.97 21.968 138.282 21.968H138.618C138.698 21.968 138.738 22.14 138.738 22.484C138.738 22.828 138.698 23 138.618 23H138.246C137.51 23 137.03 22.764 136.806 22.292C136.526 22.764 136.026 23 135.306 23H133.866C133.786 23 133.746 22.832 133.746 22.496C133.746 22.144 133.786 21.968 133.866 21.968H135.306ZM136.338 24.512V25.46H133.17V24.512H136.338ZM141.012 21.968C141.324 21.968 141.572 21.888 141.756 21.728C141.94 21.568 142.032 21.352 142.032 21.08V19.136H143.028V21.056C143.028 21.352 143.108 21.58 143.268 21.74C143.436 21.892 143.676 21.968 143.988 21.968H144.324C144.404 21.968 144.444 22.14 144.444 22.484C144.444 22.828 144.404 23 144.324 23H143.952C143.216 23 142.736 22.764 142.512 22.292C142.232 22.764 141.732 23 141.012 23H138.744C138.664 23 138.624 22.832 138.624 22.496C138.624 22.144 138.664 21.968 138.744 21.968H141.012ZM143.196 16.748V17.696H140.028V16.748H143.196ZM147.658 21.092C147.658 21.684 147.478 22.152 147.118 22.496C146.758 22.832 146.282 23 145.69 23H144.442C144.362 23 144.322 22.832 144.322 22.496C144.322 22.144 144.362 21.968 144.442 21.968H145.69C145.978 21.968 146.21 21.892 146.386 21.74C146.57 21.58 146.662 21.36 146.662 21.08V19.136H147.658V21.092ZM145.81 17.696V16.7H147.082V17.696H145.81ZM159.609 21.116C159.609 21.38 159.689 21.588 159.849 21.74C160.017 21.892 160.249 21.968 160.545 21.968H160.773C160.853 21.968 160.893 22.144 160.893 22.496C160.893 22.832 160.853 23 160.773 23H160.581C160.373 23 160.181 22.968 160.005 22.904C159.829 22.84 159.697 22.756 159.609 22.652V22.796C159.601 23.404 159.457 23.944 159.177 24.416C158.897 24.896 158.513 25.268 158.025 25.532C157.537 25.796 156.977 25.928 156.345 25.928H155.817C154.809 25.928 154.033 25.636 153.489 25.052C152.945 24.468 152.673 23.652 152.673 22.604V20.336H153.669V22.58C153.669 23.34 153.853 23.916 154.221 24.308C154.589 24.7 155.129 24.896 155.841 24.896H156.345C157.033 24.896 157.581 24.696 157.989 24.296C158.405 23.896 158.613 23.356 158.613 22.676V19.136H159.609V21.116ZM155.265 18.776V17.78H156.537V18.776H155.265ZM163.784 21.968C164.072 21.968 164.304 21.892 164.48 21.74C164.656 21.58 164.744 21.36 164.744 21.08V19.136H165.752V21.092C165.752 21.684 165.572 22.152 165.212 22.496C164.852 22.832 164.376 23 163.784 23H160.892C160.812 23 160.772 22.832 160.772 22.496C160.772 22.144 160.812 21.968 160.892 21.968H163.784ZM164.18 24.512V25.46H161.012V24.512H164.18ZM167.916 15.236H168.912V23H167.916V15.236ZM94.5825 39C93.8945 39 93.4385 38.756 93.2145 38.268C92.9345 38.756 92.3545 39 91.4745 39C90.7545 39 90.2065 38.828 89.8305 38.484C89.4625 38.14 89.2785 37.66 89.2785 37.044V36.3C89.2785 35.804 89.4145 35.432 89.6865 35.184H89.1465C88.6825 35.184 88.3185 35.308 88.0545 35.556C87.7985 35.796 87.6705 36.136 87.6705 36.576V41.928H86.6745V36.576C86.6745 35.848 86.9025 35.268 87.3585 34.836C87.8145 34.396 88.4305 34.176 89.2065 34.176H91.6665C92.3385 34.176 92.8465 34.348 93.1905 34.692C93.5425 35.028 93.7185 35.504 93.7185 36.12V36.948C93.7185 37.628 94.0065 37.968 94.5825 37.968H94.8945C94.9745 37.968 95.0145 38.144 95.0145 38.496C95.0145 38.832 94.9745 39 94.8945 39H94.5825ZM91.5105 37.968C92.3185 37.968 92.7225 37.624 92.7225 36.936V36.216C92.7225 35.896 92.6265 35.644 92.4345 35.46C92.2505 35.276 91.9945 35.184 91.6665 35.184H91.2825C90.9545 35.184 90.7025 35.28 90.5265 35.472C90.3585 35.664 90.2745 35.92 90.2745 36.24V36.852C90.2745 37.244 90.3745 37.528 90.5745 37.704C90.7825 37.88 91.0945 37.968 91.5105 37.968ZM97.9023 37.968C98.1903 37.968 98.4223 37.892 98.5983 37.74C98.7743 37.58 98.8623 37.36 98.8623 37.08V35.136H99.8703V37.092C99.8703 37.684 99.6903 38.152 99.3303 38.496C98.9703 38.832 98.4943 39 97.9023 39H95.0103C94.9303 39 94.8903 38.832 94.8903 38.496C94.8903 38.144 94.9303 37.968 95.0103 37.968H97.9023ZM98.2983 40.512V41.46H95.1303V40.512H98.2983ZM100.469 40.896C101.149 40.896 101.681 40.696 102.065 40.296C102.449 39.904 102.641 39.356 102.641 38.652V35.136H103.637V37.044C103.637 37.34 103.721 37.568 103.889 37.728C104.065 37.888 104.317 37.968 104.645 37.968H104.801C104.881 37.968 104.921 38.144 104.921 38.496C104.921 38.832 104.881 39 104.801 39H104.645C104.429 39 104.229 38.964 104.045 38.892C103.861 38.812 103.725 38.712 103.637 38.592V38.736C103.629 39.376 103.493 39.936 103.229 40.416C102.965 40.904 102.597 41.276 102.125 41.532C101.653 41.796 101.109 41.928 100.493 41.928H100.157L100.061 40.896H100.469ZM107.186 37.968C107.498 37.968 107.746 37.888 107.93 37.728C108.114 37.568 108.206 37.352 108.206 37.08V35.136H109.202V37.056C109.202 37.352 109.282 37.58 109.442 37.74C109.61 37.892 109.85 37.968 110.162 37.968H110.498C110.578 37.968 110.618 38.14 110.618 38.484C110.618 38.828 110.578 39 110.498 39H110.126C109.39 39 108.91 38.764 108.686 38.292C108.406 38.764 107.906 39 107.186 39H104.918C104.838 39 104.798 38.832 104.798 38.496C104.798 38.144 104.838 37.968 104.918 37.968H107.186ZM107.942 40.512V41.46H104.774V40.512H107.942ZM115.644 29.292L115.848 29.94L111.744 31.644V30.924L115.644 29.292ZM113.94 37.968C114.284 37.968 114.552 37.9 114.744 37.764C114.944 37.628 115.044 37.444 115.044 37.212C115.044 37.052 115.004 36.896 114.924 36.744C114.852 36.584 114.728 36.416 114.552 36.24L111.732 33.444V32.58L116.112 30.84L116.412 31.8L112.908 33.18L115.284 35.568C116.044 36.336 116.604 36.88 116.964 37.2C117.324 37.52 117.608 37.728 117.816 37.824C118.024 37.92 118.26 37.968 118.524 37.968C118.604 37.968 118.644 38.144 118.644 38.496C118.644 38.832 118.604 39 118.524 39C118.18 39 117.892 38.968 117.66 38.904C117.436 38.832 117.192 38.7 116.928 38.508C116.672 38.308 116.332 37.996 115.908 37.572C115.876 37.996 115.684 38.34 115.332 38.604C114.988 38.868 114.524 39 113.94 39H110.616C110.536 39 110.496 38.832 110.496 38.496C110.496 38.144 110.536 37.968 110.616 37.968H113.94ZM120.087 37.968C120.399 37.968 120.647 37.888 120.831 37.728C121.015 37.568 121.107 37.352 121.107 37.08V35.136H122.103V37.056C122.103 37.352 122.183 37.58 122.343 37.74C122.511 37.892 122.751 37.968 123.063 37.968H123.399C123.479 37.968 123.519 38.14 123.519 38.484C123.519 38.828 123.479 39 123.399 39H123.027C122.291 39 121.811 38.764 121.587 38.292C121.307 38.764 120.807 39 120.087 39H118.647C118.567 39 118.527 38.832 118.527 38.496C118.527 38.144 118.567 37.968 118.647 37.968H120.087ZM121.119 40.512V41.46H117.951V40.512H121.119ZM123.8 37.968C124.368 37.968 124.652 37.712 124.652 37.2V36.708C124.652 35.94 124.856 35.336 125.264 34.896C125.672 34.456 126.232 34.236 126.944 34.236C127.656 34.236 128.204 34.444 128.588 34.86C128.972 35.276 129.164 35.876 129.164 36.66V36.996C129.164 37.34 129.232 37.588 129.368 37.74C129.504 37.892 129.712 37.968 129.992 37.968H130.292C130.372 37.968 130.412 38.144 130.412 38.496C130.412 38.832 130.372 39 130.292 39H129.992C129.296 39 128.844 38.744 128.636 38.232C128.476 38.48 128.24 38.672 127.928 38.808C127.624 38.936 127.284 39 126.908 39C126.076 39 125.516 38.752 125.228 38.256C125.092 38.512 124.912 38.7 124.688 38.82C124.464 38.94 124.168 39 123.8 39H123.524C123.444 39 123.404 38.832 123.404 38.496C123.404 38.144 123.444 37.968 123.524 37.968H123.8ZM128.168 36.66C128.168 35.716 127.748 35.244 126.908 35.244C126.484 35.244 126.168 35.364 125.96 35.604C125.752 35.844 125.648 36.212 125.648 36.708C125.648 37.1 125.756 37.408 125.972 37.632C126.196 37.856 126.508 37.968 126.908 37.968C127.748 37.968 128.168 37.532 128.168 36.66ZM133.634 37.092C133.634 37.684 133.454 38.152 133.094 38.496C132.734 38.832 132.258 39 131.666 39H130.418C130.338 39 130.298 38.832 130.298 38.496C130.298 38.144 130.338 37.968 130.418 37.968H131.666C131.954 37.968 132.186 37.892 132.362 37.74C132.546 37.58 132.638 37.36 132.638 37.08V35.136H133.634V37.092ZM131.786 33.696V32.7H133.058V33.696H131.786ZM137.977 40.896C138.657 40.896 139.189 40.696 139.573 40.296C139.957 39.904 140.149 39.356 140.149 38.652V35.136H141.145V37.044C141.145 37.34 141.229 37.568 141.397 37.728C141.573 37.888 141.825 37.968 142.153 37.968H142.309C142.389 37.968 142.429 38.144 142.429 38.496C142.429 38.832 142.389 39 142.309 39H142.153C141.937 39 141.737 38.964 141.553 38.892C141.369 38.812 141.233 38.712 141.145 38.592V38.736C141.137 39.376 141.001 39.936 140.737 40.416C140.473 40.904 140.105 41.276 139.633 41.532C139.161 41.796 138.617 41.928 138.001 41.928H137.665L137.569 40.896H137.977ZM144.55 31.236V36.336C145.062 35.544 145.562 34.968 146.05 34.608C146.538 34.248 147.03 34.068 147.526 34.068C147.95 34.068 148.334 34.176 148.678 34.392C149.022 34.6 149.29 34.892 149.482 35.268C149.682 35.636 149.782 36.06 149.782 36.54C149.782 36.996 149.69 37.384 149.506 37.704C149.618 37.8 149.758 37.868 149.926 37.908C150.102 37.948 150.326 37.968 150.598 37.968H150.874C150.954 37.968 150.994 38.144 150.994 38.496C150.994 38.832 150.954 39 150.874 39H150.598C150.182 39 149.85 38.964 149.602 38.892C149.362 38.812 149.146 38.668 148.954 38.46C148.506 38.82 147.946 39 147.274 39H142.426C142.346 39 142.306 38.832 142.306 38.496C142.306 38.144 142.346 37.968 142.426 37.968H143.554V31.236H144.55ZM147.274 37.968C147.754 37.968 148.126 37.84 148.39 37.584C148.654 37.328 148.786 36.98 148.786 36.54C148.786 36.108 148.658 35.756 148.402 35.484C148.154 35.204 147.838 35.064 147.454 35.064C146.998 35.064 146.534 35.296 146.062 35.76C145.598 36.224 145.07 36.96 144.478 37.968H147.274ZM146.866 32.784V31.788H148.138V32.784H146.866ZM154.211 37.092C154.211 37.684 154.031 38.152 153.671 38.496C153.311 38.832 152.835 39 152.243 39H150.995C150.915 39 150.875 38.832 150.875 38.496C150.875 38.144 150.915 37.968 150.995 37.968H152.243C152.531 37.968 152.763 37.892 152.939 37.74C153.123 37.58 153.215 37.36 153.215 37.08V35.136H154.211V37.092ZM152.363 33.696V32.7H153.635V33.696H152.363ZM161.723 38.652C161.723 39.316 161.591 39.896 161.327 40.392C161.063 40.888 160.691 41.268 160.211 41.532C159.739 41.796 159.195 41.928 158.579 41.928H158.243L158.147 40.896H158.555C159.235 40.896 159.767 40.696 160.151 40.296C160.535 39.904 160.727 39.356 160.727 38.652V35.136H161.723V38.652ZM168.325 35.604C168.581 35.9 168.765 36.18 168.877 36.444C168.989 36.7 169.045 36.96 169.045 37.224C169.045 37.752 168.861 38.18 168.493 38.508C168.125 38.836 167.609 39 166.945 39H163.525L163.429 37.968H166.945C167.297 37.968 167.569 37.9 167.761 37.764C167.953 37.628 168.049 37.444 168.049 37.212C168.049 37.068 168.009 36.924 167.929 36.78C167.857 36.628 167.733 36.448 167.557 36.24L165.313 33.66L166.021 32.952L168.325 35.604Z" fill="white"/>
<path d="M201.184 33.604C201.44 33.9 201.624 34.18 201.736 34.444C201.848 34.7 201.904 34.96 201.904 35.224C201.904 35.752 201.72 36.18 201.352 36.508C200.984 36.836 200.468 37 199.804 37H196.384L196.288 35.968H199.804C200.156 35.968 200.428 35.9 200.62 35.764C200.812 35.628 200.908 35.444 200.908 35.212C200.908 35.068 200.868 34.924 200.788 34.78C200.716 34.628 200.592 34.448 200.416 34.24L198.172 31.66L198.88 30.952L201.184 33.604ZM205.661 36.652C205.661 37.316 205.529 37.896 205.265 38.392C205.001 38.888 204.629 39.268 204.149 39.532C203.677 39.796 203.133 39.928 202.517 39.928H201.677L201.581 38.896H202.493C203.173 38.896 203.705 38.696 204.089 38.296C204.473 37.904 204.665 37.356 204.665 36.652V33.136H205.661V36.652ZM213.403 35.968C213.443 35.968 213.471 36.004 213.487 36.076C213.511 36.14 213.523 36.28 213.523 36.496C213.523 36.704 213.511 36.84 213.487 36.904C213.471 36.968 213.443 37 213.403 37H212.251C212.179 37.912 211.867 38.628 211.315 39.148C210.763 39.668 210.043 39.928 209.155 39.928H207.679L207.583 38.896H209.167C209.807 38.896 210.315 38.724 210.691 38.38C211.075 38.044 211.271 37.584 211.279 37H210.079C209.255 37 208.659 36.832 208.291 36.496C207.931 36.152 207.751 35.62 207.751 34.9C207.751 34.404 207.847 33.964 208.039 33.58C208.231 33.188 208.499 32.888 208.843 32.68C209.195 32.464 209.591 32.356 210.031 32.356C210.727 32.356 211.275 32.588 211.675 33.052C212.075 33.516 212.275 34.152 212.275 34.96V35.968H213.403ZM208.747 34.84C208.747 35.248 208.847 35.54 209.047 35.716C209.255 35.884 209.619 35.968 210.139 35.968H211.279V35.032C211.279 34.48 211.167 34.064 210.943 33.784C210.719 33.504 210.395 33.364 209.971 33.364C209.603 33.364 209.307 33.5 209.083 33.772C208.859 34.044 208.747 34.4 208.747 34.84ZM213.796 35.968C214.364 35.968 214.648 35.712 214.648 35.2V34.708C214.648 33.94 214.852 33.336 215.26 32.896C215.668 32.456 216.228 32.236 216.94 32.236C217.652 32.236 218.2 32.444 218.584 32.86C218.968 33.276 219.16 33.876 219.16 34.66C219.16 35.404 218.96 35.98 218.56 36.388C218.16 36.796 217.608 37 216.904 37C216.072 37 215.512 36.752 215.224 36.256C215.088 36.512 214.908 36.7 214.684 36.82C214.46 36.94 214.164 37 213.796 37H213.52C213.44 37 213.4 36.832 213.4 36.496C213.4 36.144 213.44 35.968 213.52 35.968H213.796ZM218.164 34.66C218.164 33.716 217.744 33.244 216.904 33.244C216.48 33.244 216.164 33.364 215.956 33.604C215.748 33.844 215.644 34.212 215.644 34.708C215.644 35.1 215.752 35.408 215.968 35.632C216.192 35.856 216.504 35.968 216.904 35.968C217.744 35.968 218.164 35.532 218.164 34.66ZM230.537 35.968C230.849 35.968 231.097 35.892 231.281 35.74C231.465 35.58 231.557 35.364 231.557 35.092V33.136H232.553V35.056C232.553 35.352 232.633 35.58 232.793 35.74C232.961 35.892 233.205 35.968 233.525 35.968H233.849C233.929 35.968 233.969 36.144 233.969 36.496C233.969 36.832 233.929 37 233.849 37H233.489C232.753 37 232.273 36.764 232.049 36.292C231.769 36.764 231.265 37 230.537 37H226.301C225.597 37 225.065 36.816 224.705 36.448C224.353 36.08 224.177 35.572 224.177 34.924V33.136H225.173V34.792C225.173 35.576 225.569 35.968 226.361 35.968H230.537ZM229.937 31.18V32.128H226.769V31.18H229.937ZM235.406 35.968C235.718 35.968 235.966 35.888 236.15 35.728C236.334 35.568 236.426 35.352 236.426 35.08V33.136H237.422V35.056C237.422 35.352 237.502 35.58 237.662 35.74C237.83 35.892 238.07 35.968 238.382 35.968H238.718C238.798 35.968 238.838 36.14 238.838 36.484C238.838 36.828 238.798 37 238.718 37H238.346C237.61 37 237.13 36.764 236.906 36.292C236.626 36.764 236.126 37 235.406 37H233.966C233.886 37 233.846 36.832 233.846 36.496C233.846 36.144 233.886 35.968 233.966 35.968H235.406ZM236.438 38.512V39.46H233.27V38.512H236.438ZM239.119 35.968C239.687 35.968 239.971 35.712 239.971 35.2V34.708C239.971 33.94 240.175 33.336 240.583 32.896C240.991 32.456 241.551 32.236 242.263 32.236C242.975 32.236 243.523 32.444 243.907 32.86C244.291 33.276 244.483 33.876 244.483 34.66V34.996C244.483 35.34 244.551 35.588 244.687 35.74C244.823 35.892 245.031 35.968 245.311 35.968H245.611C245.691 35.968 245.731 36.144 245.731 36.496C245.731 36.832 245.691 37 245.611 37H245.311C244.615 37 244.163 36.744 243.955 36.232C243.795 36.48 243.559 36.672 243.247 36.808C242.943 36.936 242.603 37 242.227 37C241.395 37 240.835 36.752 240.547 36.256C240.411 36.512 240.231 36.7 240.007 36.82C239.783 36.94 239.487 37 239.119 37H238.843C238.763 37 238.723 36.832 238.723 36.496C238.723 36.144 238.763 35.968 238.843 35.968H239.119ZM243.487 34.66C243.487 33.716 243.067 33.244 242.227 33.244C241.803 33.244 241.487 33.364 241.279 33.604C241.071 33.844 240.967 34.212 240.967 34.708C240.967 35.1 241.075 35.408 241.291 35.632C241.515 35.856 241.827 35.968 242.227 35.968C243.067 35.968 243.487 35.532 243.487 34.66ZM249.061 35.968C249.405 35.968 249.673 35.9 249.865 35.764C250.065 35.628 250.165 35.444 250.165 35.212C250.165 35.052 250.125 34.896 250.045 34.744C249.973 34.584 249.849 34.416 249.673 34.24L246.853 31.444V30.58L251.233 28.84L251.533 29.8L248.029 31.18L250.429 33.592C250.917 34.08 251.161 34.624 251.161 35.224C251.161 35.752 250.977 36.18 250.609 36.508C250.241 36.836 249.725 37 249.061 37H245.737C245.657 37 245.617 36.832 245.617 36.496C245.617 36.144 245.657 35.968 245.737 35.968H249.061ZM264.758 35.968C264.838 35.968 264.878 36.144 264.878 36.496C264.878 36.832 264.838 37 264.758 37H263.51C263.63 37.12 263.69 37.308 263.69 37.564C263.69 38.028 263.554 38.436 263.282 38.788C263.018 39.148 262.638 39.428 262.142 39.628C261.654 39.828 261.086 39.928 260.438 39.928H259.514C258.506 39.928 257.73 39.636 257.186 39.052C256.642 38.468 256.37 37.652 256.37 36.604V34.336H257.366V36.58C257.366 37.34 257.55 37.916 257.918 38.308C258.286 38.7 258.826 38.896 259.538 38.896H260.438C261.166 38.896 261.722 38.78 262.106 38.548C262.498 38.316 262.694 37.996 262.694 37.588C262.694 37.372 262.638 37.212 262.526 37.108C262.422 37.012 262.254 36.964 262.022 36.964H259.79L259.898 35.968H264.758ZM265.662 35.968C266.15 35.968 266.534 35.948 266.814 35.908C267.102 35.868 267.334 35.8 267.51 35.704L265.89 33.364L266.442 32.356H269.514C269.978 32.356 270.354 32.464 270.642 32.68C270.938 32.888 271.086 33.2 271.086 33.616C271.086 33.936 270.978 34.248 270.762 34.552C270.554 34.848 270.146 35.256 269.538 35.776C269.658 35.848 269.814 35.9 270.006 35.932C270.206 35.956 270.51 35.968 270.918 35.968H272.094C272.134 35.968 272.162 36.004 272.178 36.076C272.202 36.14 272.214 36.28 272.214 36.496C272.214 36.704 272.202 36.84 272.178 36.904C272.162 36.968 272.134 37 272.094 37H270.918C270.398 37 269.986 36.984 269.682 36.952C269.386 36.912 269.142 36.848 268.95 36.76C268.766 36.672 268.59 36.548 268.422 36.388C268.062 36.62 267.67 36.78 267.246 36.868C266.83 36.956 266.29 37 265.626 37H264.882C264.802 37 264.762 36.832 264.762 36.496C264.762 36.144 264.802 35.968 264.882 35.968H265.662ZM270.126 33.82C270.126 33.66 270.058 33.536 269.922 33.448C269.794 33.36 269.61 33.316 269.37 33.316H266.994L268.53 35.56C269.17 35.032 269.594 34.652 269.802 34.42C270.018 34.18 270.126 33.98 270.126 33.82ZM274.333 35.968C274.605 35.968 274.809 35.952 274.945 35.92C274.297 35.68 273.849 35.424 273.601 35.152C273.353 34.872 273.229 34.5 273.229 34.036C273.229 33.612 273.329 33.228 273.529 32.884C273.729 32.532 274.001 32.256 274.345 32.056C274.697 31.856 275.093 31.756 275.533 31.756C276.269 31.756 276.837 31.984 277.237 32.44C277.645 32.888 277.849 33.52 277.849 34.336V34.744C277.849 35.488 277.601 36.052 277.105 36.436C276.609 36.812 275.877 37 274.909 37H272.209C272.129 37 272.089 36.832 272.089 36.496C272.089 36.144 272.129 35.968 272.209 35.968H274.333ZM276.421 35.74C276.709 35.5 276.853 35.148 276.853 34.684V34.396C276.853 33.852 276.737 33.444 276.505 33.172C276.281 32.9 275.949 32.764 275.509 32.764C275.157 32.764 274.853 32.888 274.597 33.136C274.349 33.376 274.225 33.668 274.225 34.012C274.225 34.276 274.289 34.5 274.417 34.684C274.545 34.868 274.765 35.044 275.077 35.212C275.389 35.372 275.837 35.548 276.421 35.74ZM277.093 29.548V30.496H273.925V29.548H277.093ZM280.007 29.236H281.003V37H280.007V29.236ZM287.743 36.616C287.743 37.296 287.615 37.884 287.359 38.38C287.103 38.876 286.739 39.256 286.267 39.52C285.803 39.792 285.255 39.928 284.623 39.928H283.147L283.051 38.896H284.635C285.275 38.896 285.783 38.724 286.159 38.38C286.543 38.044 286.739 37.584 286.747 37H285.547C284.723 37 284.127 36.832 283.759 36.496C283.399 36.152 283.219 35.62 283.219 34.9C283.219 34.404 283.315 33.964 283.507 33.58C283.699 33.188 283.967 32.888 284.311 32.68C284.663 32.464 285.059 32.356 285.499 32.356C286.195 32.356 286.743 32.588 287.143 33.052C287.543 33.516 287.743 34.152 287.743 34.96V36.616ZM284.215 34.84C284.215 35.248 284.315 35.54 284.515 35.716C284.723 35.884 285.087 35.968 285.607 35.968H286.747V35.032C286.747 34.48 286.635 34.064 286.411 33.784C286.187 33.504 285.863 33.364 285.439 33.364C285.071 33.364 284.775 33.5 284.551 33.772C284.327 34.044 284.215 34.4 284.215 34.84ZM292.762 35.02C292.762 34.564 292.886 34.112 293.134 33.664C293.39 33.208 293.826 32.676 294.442 32.068L293.914 31.528L294.622 30.772C295.422 31.524 296.022 32.136 296.422 32.608C296.83 33.072 297.11 33.476 297.262 33.82C297.414 34.156 297.49 34.516 297.49 34.9C297.49 35.324 297.386 35.704 297.178 36.04C296.97 36.376 296.678 36.64 296.302 36.832C295.934 37.024 295.51 37.12 295.03 37.12C294.35 37.12 293.802 36.928 293.386 36.544C292.97 36.152 292.762 35.644 292.762 35.02ZM296.494 34.9C296.494 34.564 296.394 34.236 296.194 33.916C296.002 33.588 295.646 33.184 295.126 32.704C294.622 33.192 294.266 33.608 294.058 33.952C293.858 34.288 293.758 34.624 293.758 34.96C293.758 35.288 293.874 35.56 294.106 35.776C294.346 35.984 294.666 36.088 295.066 36.088C295.482 36.088 295.822 35.976 296.086 35.752C296.358 35.528 296.494 35.244 296.494 34.9ZM301.249 36.652C301.249 37.316 301.117 37.896 300.853 38.392C300.589 38.888 300.217 39.268 299.737 39.532C299.265 39.796 298.721 39.928 298.105 39.928H297.265L297.169 38.896H298.081C298.761 38.896 299.293 38.696 299.677 38.296C300.061 37.904 300.253 37.356 300.253 36.652V33.136H301.249V36.652ZM300.025 31.696V30.7H301.297V31.696H300.025ZM303.411 29.236H304.407V37H303.411V29.236ZM309.143 35.968C309.423 35.968 309.647 35.908 309.815 35.788C309.991 35.668 310.079 35.512 310.079 35.32C310.079 35.168 310.015 34.9 309.887 34.516C309.759 34.124 309.455 33.268 308.975 31.948L308.747 31.336L309.671 30.916L311.075 34.96C311.203 35.328 311.347 35.588 311.507 35.74C311.667 35.892 311.887 35.968 312.167 35.968H312.419C312.499 35.968 312.539 36.144 312.539 36.496C312.539 36.712 312.527 36.852 312.503 36.916C312.487 36.972 312.459 37 312.419 37H312.131C311.763 37 311.459 36.94 311.219 36.82C310.979 36.7 310.791 36.508 310.655 36.244C310.503 36.508 310.303 36.7 310.055 36.82C309.815 36.94 309.511 37 309.143 37H306.335L306.239 35.968H309.143ZM315.76 35.092C315.76 35.684 315.58 36.152 315.22 36.496C314.86 36.832 314.384 37 313.792 37H312.544C312.464 37 312.424 36.832 312.424 36.496C312.424 36.144 312.464 35.968 312.544 35.968H313.792C314.08 35.968 314.312 35.892 314.488 35.74C314.672 35.58 314.764 35.36 314.764 35.08V33.136H315.76V35.092ZM313.912 31.696V30.7H315.184V31.696H313.912ZM317.916 29.236H318.912V37H317.916V29.236ZM262.171 49.968C262.483 49.968 262.731 49.892 262.915 49.74C263.099 49.58 263.191 49.364 263.191 49.092V47.136H264.187V49.056C264.187 49.352 264.267 49.58 264.427 49.74C264.595 49.892 264.839 49.968 265.159 49.968H265.483C265.563 49.968 265.603 50.144 265.603 50.496C265.603 50.832 265.563 51 265.483 51H265.123C264.387 51 263.907 50.764 263.683 50.292C263.403 50.764 262.899 51 262.171 51H257.935C257.231 51 256.699 50.816 256.339 50.448C255.987 50.08 255.811 49.572 255.811 48.924V47.136H256.807V48.792C256.807 49.576 257.203 49.968 257.995 49.968H262.171ZM261.571 45.18V46.128H258.403V45.18H261.571ZM266.536 49.968C266.888 49.968 267.16 49.884 267.352 49.716C267.552 49.548 267.652 49.316 267.652 49.02V47.136H268.66V49.02C268.66 49.652 269.016 49.968 269.728 49.968C270.08 49.968 270.352 49.884 270.544 49.716C270.744 49.548 270.844 49.316 270.844 49.02V47.136H271.84V49.02C271.84 49.324 271.924 49.56 272.092 49.728C272.268 49.888 272.524 49.968 272.86 49.968C273.196 49.968 273.452 49.888 273.628 49.728C273.804 49.56 273.892 49.324 273.892 49.02V47.136H274.888V48.996C274.888 49.62 274.704 50.112 274.336 50.472C273.976 50.824 273.484 51 272.86 51C272.052 51 271.532 50.752 271.3 50.256C271.004 50.752 270.48 51 269.728 51C268.88 51 268.34 50.752 268.108 50.256C267.812 50.752 267.288 51 266.536 51H265.6C265.52 51 265.48 50.832 265.48 50.496C265.48 50.144 265.52 49.968 265.6 49.968H266.536ZM279.237 49.968C279.277 49.968 279.305 50.004 279.321 50.076C279.345 50.14 279.357 50.28 279.357 50.496C279.357 50.704 279.345 50.84 279.321 50.904C279.305 50.968 279.277 51 279.237 51H278.925C278.317 51 277.853 50.82 277.533 50.46C277.221 50.092 277.065 49.572 277.065 48.9V43.236H278.061V48.852C278.061 49.596 278.365 49.968 278.973 49.968H279.237ZM283.419 46.056C283.899 46.056 284.295 46.136 284.607 46.296C284.919 46.456 285.179 46.72 285.387 47.088C285.595 47.448 285.775 47.948 285.927 48.588L284.979 49.164C285.107 49.468 285.259 49.68 285.435 49.8C285.611 49.912 285.859 49.968 286.179 49.968H286.971C287.051 49.968 287.091 50.144 287.091 50.496C287.091 50.712 287.079 50.852 287.055 50.916C287.031 50.972 287.003 51 286.971 51H286.143C285.663 51 285.283 50.904 285.003 50.712C284.723 50.512 284.467 50.152 284.235 49.632L283.407 50.148C282.895 50.468 282.403 50.692 281.931 50.82C281.459 50.94 280.871 51 280.167 51H279.363C279.283 51 279.243 50.832 279.243 50.496C279.243 50.144 279.283 49.968 279.363 49.968H280.203C280.803 49.968 281.303 49.92 281.703 49.824C282.103 49.728 282.515 49.56 282.939 49.32L284.763 48.252C284.635 47.82 284.459 47.52 284.235 47.352C284.019 47.184 283.691 47.1 283.251 47.1H280.443L280.575 46.056H283.419ZM281.487 53.508V52.512H282.759V53.508H281.487ZM288.529 49.968C288.841 49.968 289.089 49.888 289.273 49.728C289.457 49.568 289.549 49.352 289.549 49.08V47.136H290.545V49.056C290.545 49.352 290.625 49.58 290.785 49.74C290.953 49.892 291.193 49.968 291.505 49.968H291.841C291.921 49.968 291.961 50.14 291.961 50.484C291.961 50.828 291.921 51 291.841 51H291.469C290.733 51 290.253 50.764 290.029 50.292C289.749 50.764 289.249 51 288.529 51H287.089C287.009 51 286.969 50.832 286.969 50.496C286.969 50.144 287.009 49.968 287.089 49.968H288.529ZM288.757 45.696V44.7H290.029V45.696H288.757ZM295.182 49.092C295.182 49.684 295.002 50.152 294.642 50.496C294.282 50.832 293.806 51 293.214 51H291.966C291.886 51 291.846 50.832 291.846 50.496C291.846 50.144 291.886 49.968 291.966 49.968H293.214C293.502 49.968 293.734 49.892 293.91 49.74C294.094 49.58 294.186 49.36 294.186 49.08V47.136H295.182V49.092ZM294.51 52.512V53.46H291.342V52.512H294.51ZM297.338 43.236H298.334V51H297.338V43.236ZM302.81 52.896C303.49 52.896 304.022 52.696 304.406 52.296C304.79 51.904 304.982 51.356 304.982 50.652V47.136H305.978V49.044C305.978 49.34 306.062 49.568 306.23 49.728C306.406 49.888 306.658 49.968 306.986 49.968H307.142C307.222 49.968 307.262 50.144 307.262 50.496C307.262 50.832 307.222 51 307.142 51H306.986C306.77 51 306.57 50.964 306.386 50.892C306.202 50.812 306.066 50.712 305.978 50.592V50.736C305.97 51.376 305.834 51.936 305.57 52.416C305.306 52.904 304.938 53.276 304.466 53.532C303.994 53.796 303.45 53.928 302.834 53.928H302.498L302.402 52.896H302.81ZM309.383 43.236V48.336C309.895 47.544 310.395 46.968 310.883 46.608C311.371 46.248 311.863 46.068 312.359 46.068C312.783 46.068 313.167 46.176 313.511 46.392C313.855 46.6 314.123 46.892 314.315 47.268C314.515 47.636 314.615 48.06 314.615 48.54C314.615 48.996 314.523 49.384 314.339 49.704C314.451 49.8 314.591 49.868 314.759 49.908C314.935 49.948 315.159 49.968 315.431 49.968H315.707C315.787 49.968 315.827 50.144 315.827 50.496C315.827 50.832 315.787 51 315.707 51H315.431C315.015 51 314.683 50.964 314.435 50.892C314.195 50.812 313.979 50.668 313.787 50.46C313.339 50.82 312.779 51 312.107 51H307.259C307.179 51 307.139 50.832 307.139 50.496C307.139 50.144 307.179 49.968 307.259 49.968H308.387V43.236H309.383ZM312.107 49.968C312.587 49.968 312.959 49.84 313.223 49.584C313.487 49.328 313.619 48.98 313.619 48.54C313.619 48.108 313.491 47.756 313.235 47.484C312.987 47.204 312.671 47.064 312.287 47.064C311.831 47.064 311.367 47.296 310.895 47.76C310.431 48.224 309.903 48.96 309.311 49.968H312.107ZM311.699 44.784V43.788H312.971V44.784H311.699ZM319.044 49.092C319.044 49.684 318.864 50.152 318.504 50.496C318.144 50.832 317.668 51 317.076 51H315.828C315.748 51 315.708 50.832 315.708 50.496C315.708 50.144 315.748 49.968 315.828 49.968H317.076C317.364 49.968 317.596 49.892 317.772 49.74C317.956 49.58 318.048 49.36 318.048 49.08V47.136H319.044V49.092ZM317.196 45.696V44.7H318.468V45.696H317.196Z" fill="white"/>
<path d="M422.074 88.887C422.309 89.1583 422.477 89.415 422.58 89.657C422.683 89.8917 422.734 90.13 422.734 90.372C422.734 90.856 422.565 91.2483 422.228 91.549C421.891 91.8497 421.418 92 420.809 92H417.674L417.586 91.054H420.809C421.132 91.054 421.381 90.9917 421.557 90.867C421.733 90.7423 421.821 90.5737 421.821 90.361C421.821 90.229 421.784 90.097 421.711 89.965C421.645 89.8257 421.531 89.6607 421.37 89.47L419.313 87.105L419.962 86.456L422.074 88.887ZM429.825 91.054C429.861 91.054 429.887 91.087 429.902 91.153C429.924 91.2117 429.935 91.34 429.935 91.538C429.935 91.7287 429.924 91.8533 429.902 91.912C429.887 91.9707 429.861 92 429.825 92H428.769C428.703 92.836 428.417 93.4923 427.911 93.969C427.405 94.4457 426.745 94.684 425.931 94.684H424.578L424.49 93.738H425.942C426.528 93.738 426.994 93.5803 427.339 93.265C427.691 92.957 427.87 92.5353 427.878 92H426.778C426.022 92 425.476 91.846 425.139 91.538C424.809 91.2227 424.644 90.735 424.644 90.075C424.644 89.6203 424.732 89.217 424.908 88.865C425.084 88.5057 425.329 88.2307 425.645 88.04C425.967 87.842 426.33 87.743 426.734 87.743C427.372 87.743 427.874 87.9557 428.241 88.381C428.607 88.8063 428.791 89.3893 428.791 90.13V91.054H429.825ZM425.557 90.02C425.557 90.394 425.648 90.6617 425.832 90.823C426.022 90.977 426.356 91.054 426.833 91.054H427.878V90.196C427.878 89.69 427.775 89.3087 427.57 89.052C427.364 88.7953 427.067 88.667 426.679 88.667C426.341 88.667 426.07 88.7917 425.865 89.041C425.659 89.2903 425.557 89.6167 425.557 90.02ZM430.789 91.054C431.112 91.054 431.361 90.977 431.537 90.823C431.721 90.669 431.812 90.4563 431.812 90.185V88.458H432.736V90.185C432.736 90.7643 433.063 91.054 433.715 91.054C434.038 91.054 434.287 90.977 434.463 90.823C434.647 90.669 434.738 90.4563 434.738 90.185V88.458H435.651V90.185C435.651 90.4637 435.728 90.68 435.882 90.834C436.044 90.9807 436.278 91.054 436.586 91.054C436.894 91.054 437.129 90.9807 437.29 90.834C437.452 90.68 437.532 90.4637 437.532 90.185V88.458H438.445V90.163C438.445 90.735 438.277 91.186 437.939 91.516C437.609 91.8387 437.158 92 436.586 92C435.846 92 435.369 91.7727 435.156 91.318C434.885 91.7727 434.405 92 433.715 92C432.938 92 432.443 91.7727 432.23 91.318C431.959 91.7727 431.479 92 430.789 92H429.931C429.858 92 429.821 91.846 429.821 91.538C429.821 91.2153 429.858 91.054 429.931 91.054H430.789ZM435.673 84.762V85.631H434.672V84.762H435.673ZM436.619 86.269V87.138H433.715V86.269H436.619ZM448.13 91.054C448.204 91.054 448.24 91.2153 448.24 91.538C448.24 91.846 448.204 92 448.13 92H446.986C447.096 92.11 447.151 92.2823 447.151 92.517C447.151 92.9423 447.027 93.3163 446.777 93.639C446.535 93.969 446.187 94.2257 445.732 94.409C445.285 94.5923 444.764 94.684 444.17 94.684H443.323C442.399 94.684 441.688 94.4163 441.189 93.881C440.691 93.3457 440.441 92.5977 440.441 91.637V89.558H441.354V91.615C441.354 92.3117 441.523 92.8397 441.86 93.199C442.198 93.5583 442.693 93.738 443.345 93.738H444.17C444.838 93.738 445.347 93.6317 445.699 93.419C446.059 93.2063 446.238 92.913 446.238 92.539C446.238 92.341 446.187 92.1943 446.084 92.099C445.989 92.011 445.835 91.967 445.622 91.967H443.576L443.675 91.054H448.13ZM448.497 91.054C449.017 91.054 449.278 90.8193 449.278 90.35V89.899C449.278 89.195 449.465 88.6413 449.839 88.238C450.213 87.8347 450.726 87.633 451.379 87.633C452.031 87.633 452.534 87.8237 452.886 88.205C453.238 88.5863 453.414 89.1363 453.414 89.855C453.414 90.537 453.23 91.065 452.864 91.439C452.497 91.813 451.991 92 451.346 92C450.583 92 450.07 91.7727 449.806 91.318C449.681 91.5527 449.516 91.725 449.311 91.835C449.105 91.945 448.834 92 448.497 92H448.244C448.17 92 448.134 91.846 448.134 91.538C448.134 91.2153 448.17 91.054 448.244 91.054H448.497ZM452.501 89.855C452.501 88.9897 452.116 88.557 451.346 88.557C450.957 88.557 450.667 88.667 450.477 88.887C450.286 89.107 450.191 89.4443 450.191 89.899C450.191 90.2583 450.29 90.5407 450.488 90.746C450.693 90.9513 450.979 91.054 451.346 91.054C452.116 91.054 452.501 90.6543 452.501 89.855ZM463.843 92.165C463.843 91.703 463.571 91.472 463.029 91.472H460.939V89.47C460.939 88.8613 461.122 88.37 461.489 87.996C461.855 87.6147 462.35 87.424 462.974 87.424H464.371L464.448 88.337H462.952C462.629 88.337 462.365 88.4433 462.16 88.656C461.962 88.8613 461.863 89.1217 461.863 89.437V90.526H463.183C463.711 90.526 464.103 90.6653 464.36 90.944C464.624 91.2153 464.756 91.604 464.756 92.11C464.756 92.572 464.62 93.001 464.349 93.397C464.085 93.793 463.722 94.1047 463.26 94.332C462.805 94.5667 462.299 94.684 461.742 94.684H460.895C459.971 94.684 459.259 94.4163 458.761 93.881C458.262 93.3457 458.013 92.5977 458.013 91.637V89.558H458.926V91.615C458.926 92.3117 459.094 92.8397 459.432 93.199C459.769 93.5583 460.264 93.738 460.917 93.738H461.742C462.152 93.738 462.515 93.6683 462.831 93.529C463.153 93.397 463.403 93.21 463.579 92.968C463.755 92.7333 463.843 92.4657 463.843 92.165ZM465.703 93.738C466.326 93.738 466.814 93.5547 467.166 93.188C467.518 92.8287 467.694 92.3263 467.694 91.681V88.458H468.607V90.207C468.607 90.4783 468.684 90.6873 468.838 90.834C468.999 90.9807 469.23 91.054 469.531 91.054H469.674C469.747 91.054 469.784 91.2153 469.784 91.538C469.784 91.846 469.747 92 469.674 92H469.531C469.333 92 469.15 91.967 468.981 91.901C468.812 91.8277 468.688 91.736 468.607 91.626V91.758C468.6 92.3447 468.475 92.858 468.233 93.298C467.991 93.7453 467.654 94.0863 467.221 94.321C466.788 94.563 466.29 94.684 465.725 94.684H465.417L465.329 93.738H465.703ZM471.86 91.054C472.146 91.054 472.374 90.9807 472.542 90.834C472.711 90.6873 472.795 90.4893 472.795 90.24V88.458H473.708V90.218C473.708 90.4893 473.782 90.6983 473.928 90.845C474.082 90.9843 474.302 91.054 474.588 91.054H474.896C474.97 91.054 475.006 91.2117 475.006 91.527C475.006 91.8423 474.97 92 474.896 92H474.555C473.881 92 473.441 91.7837 473.235 91.351C472.979 91.7837 472.52 92 471.86 92H469.781C469.708 92 469.671 91.846 469.671 91.538C469.671 91.2153 469.708 91.054 469.781 91.054H471.86ZM472.553 93.386V94.255H469.649V93.386H472.553ZM479.614 83.101L479.801 83.695L476.039 85.257V84.597L479.614 83.101ZM478.052 91.054C478.367 91.054 478.613 90.9917 478.789 90.867C478.972 90.7423 479.064 90.5737 479.064 90.361C479.064 90.2143 479.027 90.0713 478.954 89.932C478.888 89.7853 478.774 89.6313 478.613 89.47L476.028 86.907V86.115L480.043 84.52L480.318 85.4L477.106 86.665L479.306 88.876C479.753 89.3233 479.977 89.822 479.977 90.372C479.977 90.856 479.808 91.2483 479.471 91.549C479.133 91.8497 478.66 92 478.052 92H475.005C474.931 92 474.895 91.846 474.895 91.538C474.895 91.2153 474.931 91.054 475.005 91.054H478.052ZM482.131 90.185C482.131 89.767 482.245 89.3527 482.472 88.942C482.707 88.524 483.106 88.0363 483.671 87.479L483.187 86.984L483.836 86.291C484.569 86.9803 485.119 87.5413 485.486 87.974C485.86 88.3993 486.117 88.7697 486.256 89.085C486.395 89.393 486.465 89.723 486.465 90.075C486.465 90.4637 486.37 90.812 486.179 91.12C485.988 91.428 485.721 91.67 485.376 91.846C485.039 92.022 484.65 92.11 484.21 92.11C483.587 92.11 483.084 91.934 482.703 91.582C482.322 91.2227 482.131 90.757 482.131 90.185ZM485.552 90.075C485.552 89.767 485.46 89.4663 485.277 89.173C485.101 88.8723 484.775 88.502 484.298 88.062C483.836 88.5093 483.51 88.8907 483.319 89.206C483.136 89.514 483.044 89.822 483.044 90.13C483.044 90.4307 483.15 90.68 483.363 90.878C483.583 91.0687 483.876 91.164 484.243 91.164C484.624 91.164 484.936 91.0613 485.178 90.856C485.427 90.6507 485.552 90.3903 485.552 90.075ZM489.911 91.681C489.911 92.2897 489.79 92.8213 489.548 93.276C489.306 93.7307 488.965 94.079 488.525 94.321C488.092 94.563 487.594 94.684 487.029 94.684H486.259L486.171 93.738H487.007C487.63 93.738 488.118 93.5547 488.47 93.188C488.822 92.8287 488.998 92.3263 488.998 91.681V88.458H489.911V91.681ZM488.789 87.138V86.225H489.955V87.138H488.789ZM491.893 84.883H492.806V92H491.893V84.883ZM497.147 91.054C497.404 91.054 497.609 90.999 497.763 90.889C497.924 90.779 498.005 90.636 498.005 90.46C498.005 90.3207 497.946 90.075 497.829 89.723C497.712 89.3637 497.433 88.579 496.993 87.369L496.784 86.808L497.631 86.423L498.918 90.13C499.035 90.4673 499.167 90.7057 499.314 90.845C499.461 90.9843 499.662 91.054 499.919 91.054H500.15C500.223 91.054 500.26 91.2153 500.26 91.538C500.26 91.736 500.249 91.8643 500.227 91.923C500.212 91.9743 500.187 92 500.15 92H499.886C499.549 92 499.27 91.945 499.05 91.835C498.83 91.725 498.658 91.549 498.533 91.307C498.394 91.549 498.21 91.725 497.983 91.835C497.763 91.945 497.484 92 497.147 92H494.573L494.485 91.054H497.147ZM503.212 90.251C503.212 90.7937 503.047 91.2227 502.717 91.538C502.387 91.846 501.951 92 501.408 92H500.264C500.191 92 500.154 91.846 500.154 91.538C500.154 91.2153 500.191 91.054 500.264 91.054H501.408C501.672 91.054 501.885 90.9843 502.046 90.845C502.215 90.6983 502.299 90.4967 502.299 90.24V88.458H503.212V90.251ZM501.518 87.138V86.225H502.684V87.138H501.518ZM505.188 84.883H506.101V92H505.188V84.883ZM514.989 89.954C514.989 90.3427 515.055 90.625 515.187 90.801C515.326 90.9697 515.528 91.054 515.792 91.054H516.056C516.093 91.054 516.118 91.087 516.133 91.153C516.155 91.2117 516.166 91.34 516.166 91.538C516.166 91.7287 516.155 91.8533 516.133 91.912C516.118 91.9707 516.093 92 516.056 92H515.792C514.978 92 514.487 91.6517 514.318 90.955C514.164 91.1237 513.944 91.252 513.658 91.34C513.372 91.4207 513.068 91.461 512.745 91.461C512.122 91.461 511.645 91.2923 511.315 90.955C510.985 90.6177 510.82 90.1227 510.82 89.47C510.82 89.0593 510.908 88.6853 511.084 88.348C511.267 88.0033 511.52 87.732 511.843 87.534C512.173 87.3287 512.547 87.226 512.965 87.226H514.076V86.467H514.989V89.954ZM511.733 89.448C511.733 90.1593 512.089 90.515 512.8 90.515C513.189 90.515 513.497 90.4453 513.724 90.306C513.959 90.1593 514.076 89.965 514.076 89.723V88.15H512.965C512.584 88.15 512.283 88.2637 512.063 88.491C511.843 88.7183 511.733 89.0373 511.733 89.448ZM519.209 91.054C519.525 91.054 519.77 90.9917 519.946 90.867C520.13 90.7423 520.221 90.5737 520.221 90.361C520.221 90.2143 520.185 90.0713 520.111 89.932C520.045 89.7853 519.932 89.6313 519.77 89.47L517.185 86.907V86.115L521.2 84.52L521.475 85.4L518.263 86.665L520.463 88.876C520.911 89.3233 521.134 89.822 521.134 90.372C521.134 90.856 520.966 91.2483 520.628 91.549C520.291 91.8497 519.818 92 519.209 92H516.162C516.089 92 516.052 91.846 516.052 91.538C516.052 91.2153 516.089 91.054 516.162 91.054H519.209ZM533.599 91.054C533.672 91.054 533.709 91.2153 533.709 91.538C533.709 91.846 533.672 92 533.599 92H532.455C532.565 92.11 532.62 92.2823 532.62 92.517C532.62 92.9423 532.495 93.3163 532.246 93.639C532.004 93.969 531.655 94.2257 531.201 94.409C530.753 94.5923 530.233 94.684 529.639 94.684H528.792C527.868 94.684 527.156 94.4163 526.658 93.881C526.159 93.3457 525.91 92.5977 525.91 91.637V89.558H526.823V91.615C526.823 92.3117 526.991 92.8397 527.329 93.199C527.666 93.5583 528.161 93.738 528.814 93.738H529.639C530.306 93.738 530.816 93.6317 531.168 93.419C531.527 93.2063 531.707 92.913 531.707 92.539C531.707 92.341 531.655 92.1943 531.553 92.099C531.457 92.011 531.303 91.967 531.091 91.967H529.045L529.144 91.054H533.599ZM535.032 91.054C535.318 91.054 535.545 90.9807 535.714 90.834C535.883 90.6873 535.967 90.4893 535.967 90.24V88.458H536.88V90.218C536.88 90.4893 536.953 90.6983 537.1 90.845C537.254 90.9843 537.474 91.054 537.76 91.054H538.068C538.141 91.054 538.178 91.2117 538.178 91.527C538.178 91.8423 538.141 92 538.068 92H537.727C537.052 92 536.612 91.7837 536.407 91.351C536.15 91.7837 535.692 92 535.032 92H533.712C533.639 92 533.602 91.846 533.602 91.538C533.602 91.2153 533.639 91.054 533.712 91.054H535.032ZM537.276 86.269V87.138H534.372V86.269H537.276ZM539.503 91.054C539.789 91.054 540.017 90.9807 540.185 90.834C540.354 90.6873 540.438 90.4893 540.438 90.24V88.458H541.351V90.218C541.351 90.4893 541.425 90.6983 541.571 90.845C541.725 90.9843 541.945 91.054 542.231 91.054H542.539C542.613 91.054 542.649 91.2117 542.649 91.527C542.649 91.8423 542.613 92 542.539 92H542.198C541.524 92 541.084 91.7837 540.878 91.351C540.622 91.7837 540.163 92 539.503 92H538.183C538.11 92 538.073 91.846 538.073 91.538C538.073 91.2153 538.11 91.054 538.183 91.054H539.503ZM540.449 93.386V94.255H537.545V93.386H540.449ZM542.908 91.054C543.428 91.054 543.689 90.8193 543.689 90.35V89.899C543.689 89.195 543.876 88.6413 544.25 88.238C544.624 87.8347 545.137 87.633 545.79 87.633C546.442 87.633 546.945 87.8237 547.297 88.205C547.649 88.5863 547.825 89.1363 547.825 89.855V90.163C547.825 90.4783 547.887 90.7057 548.012 90.845C548.136 90.9843 548.327 91.054 548.584 91.054H548.859C548.932 91.054 548.969 91.2153 548.969 91.538C548.969 91.846 548.932 92 548.859 92H548.584C547.946 92 547.531 91.7653 547.341 91.296C547.194 91.5233 546.978 91.6993 546.692 91.824C546.413 91.9413 546.101 92 545.757 92C544.994 92 544.481 91.7727 544.217 91.318C544.092 91.5527 543.927 91.725 543.722 91.835C543.516 91.945 543.245 92 542.908 92H542.655C542.581 92 542.545 91.846 542.545 91.538C542.545 91.2153 542.581 91.054 542.655 91.054H542.908ZM546.912 89.855C546.912 88.9897 546.527 88.557 545.757 88.557C545.368 88.557 545.078 88.667 544.888 88.887C544.697 89.107 544.602 89.4443 544.602 89.899C544.602 90.2583 544.701 90.5407 544.899 90.746C545.104 90.9513 545.39 91.054 545.757 91.054C546.527 91.054 546.912 90.6543 546.912 89.855ZM552.021 91.054C552.336 91.054 552.582 90.9917 552.758 90.867C552.941 90.7423 553.033 90.5737 553.033 90.361C553.033 90.2143 552.996 90.0713 552.923 89.932C552.857 89.7853 552.743 89.6313 552.582 89.47L549.997 86.907V86.115L554.012 84.52L554.287 85.4L551.075 86.665L553.275 88.876C553.722 89.3233 553.946 89.822 553.946 90.372C553.946 90.856 553.777 91.2483 553.44 91.549C553.102 91.8497 552.629 92 552.021 92H548.974C548.9 92 548.864 91.846 548.864 91.538C548.864 91.2153 548.9 91.054 548.974 91.054H552.021Z" fill="white"/>
</svg>
