<svg width="680" height="402" viewBox="0 0 680 402" fill="none" xmlns="http://www.w3.org/2000/svg">
<rect width="84" height="56" transform="translate(209 41)" fill="#00FFE6" fill-opacity="0.45"/>
<path d="M243.084 69.936C241.974 69.936 241.203 69.698 240.772 69.222C240.795 69.5847 240.806 70.2193 240.806 71.126V80H237.304V71.16C237.304 68.9387 237.191 67.0233 236.964 65.414C236.738 63.782 236.284 61.8327 235.604 59.566L238.97 58.376L240.5 64.326C240.84 65.618 241.611 66.264 242.812 66.264C243.424 66.264 243.946 66.0827 244.376 65.72C244.807 65.3347 245.022 64.8473 245.022 64.258C245.022 63.4873 244.796 61.776 244.342 59.124L247.878 58.376C248.332 61.0733 248.558 63.068 248.558 64.36C248.558 65.4253 248.32 66.3887 247.844 67.25C247.368 68.0887 246.711 68.746 245.872 69.222C245.056 69.698 244.127 69.936 243.084 69.936ZM258.955 63.17C260.088 63.17 261.176 63.4873 262.219 64.122C263.284 64.7567 264.134 65.5953 264.769 66.638C265.403 67.6807 265.721 68.7687 265.721 69.902C265.721 71.0353 265.403 72.1347 264.769 73.2C264.134 74.2427 263.284 75.0813 262.219 75.716C261.176 76.3507 260.088 76.668 258.955 76.668C257.821 76.668 256.722 76.3507 255.657 75.716C254.614 75.0813 253.775 74.2427 253.141 73.2C252.506 72.1347 252.189 71.0353 252.189 69.902C252.189 68.7687 252.506 67.6807 253.141 66.638C253.775 65.5953 254.614 64.7567 255.657 64.122C256.722 63.4873 257.821 63.17 258.955 63.17ZM258.955 73.302C259.499 73.302 260.031 73.1433 260.553 72.826C261.097 72.486 261.527 72.0553 261.845 71.534C262.185 70.99 262.355 70.446 262.355 69.902C262.355 69.358 262.185 68.8253 261.845 68.304C261.527 67.7827 261.097 67.3633 260.553 67.046C260.031 66.7287 259.499 66.57 258.955 66.57C258.411 66.57 257.867 66.74 257.323 67.08C256.801 67.3973 256.371 67.8167 256.031 68.338C255.713 68.8367 255.555 69.358 255.555 69.902C255.555 70.446 255.713 70.99 256.031 71.534C256.371 72.0553 256.801 72.486 257.323 72.826C257.867 73.1433 258.411 73.302 258.955 73.302Z" fill="white"/>
<rect width="84" height="56" transform="translate(298 41)" fill="#00FFE6" fill-opacity="0.45"/>
<rect width="84" height="56" transform="translate(387 41)" fill="#00FFE6" fill-opacity="0.45"/>
<path d="M421.945 58.512C422.602 62.4333 423.486 65.924 424.597 68.984C425.73 72.044 427.238 75.1267 429.119 78.232L426.195 80.306C423.067 75.2513 421.061 70.0947 420.177 64.836C419.202 70.6387 417.298 75.7953 414.465 80.306L411.405 78.232C413.196 75.3987 414.646 72.452 415.757 69.392C416.868 66.3093 417.808 62.6827 418.579 58.512H421.945ZM438.814 63.17C439.947 63.17 441.035 63.4873 442.078 64.122C443.143 64.7567 443.993 65.5953 444.628 66.638C445.263 67.6807 445.58 68.7687 445.58 69.902C445.58 71.0353 445.263 72.1347 444.628 73.2C443.993 74.2427 443.143 75.0813 442.078 75.716C441.035 76.3507 439.947 76.668 438.814 76.668C437.681 76.668 436.581 76.3507 435.516 75.716C434.473 75.0813 433.635 74.2427 433 73.2C432.365 72.1347 432.048 71.0353 432.048 69.902C432.048 68.7687 432.365 67.6807 433 66.638C433.635 65.5953 434.473 64.7567 435.516 64.122C436.581 63.4873 437.681 63.17 438.814 63.17ZM438.814 73.302C439.358 73.302 439.891 73.1433 440.412 72.826C440.956 72.486 441.387 72.0553 441.704 71.534C442.044 70.99 442.214 70.446 442.214 69.902C442.214 69.358 442.044 68.8253 441.704 68.304C441.387 67.7827 440.956 67.3633 440.412 67.046C439.891 66.7287 439.358 66.57 438.814 66.57C438.27 66.57 437.726 66.74 437.182 67.08C436.661 67.3973 436.23 67.8167 435.89 68.338C435.573 68.8367 435.414 69.358 435.414 69.902C435.414 70.446 435.573 70.99 435.89 71.534C436.23 72.0553 436.661 72.486 437.182 72.826C437.726 73.1433 438.27 73.302 438.814 73.302Z" fill="white"/>
<rect width="84" height="56" transform="translate(164.5 107)" fill="#00FFE6" fill-opacity="0.45"/>
<path d="M198.584 135.936C197.474 135.936 196.703 135.698 196.272 135.222C196.295 135.585 196.306 136.219 196.306 137.126V146H192.804V137.16C192.804 134.939 192.691 133.023 192.464 131.414C192.238 129.782 191.784 127.833 191.104 125.566L194.47 124.376L196 130.326C196.34 131.618 197.111 132.264 198.312 132.264C198.924 132.264 199.446 132.083 199.876 131.72C200.307 131.335 200.522 130.847 200.522 130.258C200.522 129.487 200.296 127.776 199.842 125.124L203.378 124.376C203.832 127.073 204.058 129.068 204.058 130.36C204.058 131.425 203.82 132.389 203.344 133.25C202.868 134.089 202.211 134.746 201.372 135.222C200.556 135.698 199.627 135.936 198.584 135.936ZM214.455 129.17C215.588 129.17 216.676 129.487 217.719 130.122C218.784 130.757 219.634 131.595 220.269 132.638C220.903 133.681 221.221 134.769 221.221 135.902C221.221 137.035 220.903 138.135 220.269 139.2C219.634 140.243 218.784 141.081 217.719 141.716C216.676 142.351 215.588 142.668 214.455 142.668C213.321 142.668 212.222 142.351 211.157 141.716C210.114 141.081 209.275 140.243 208.641 139.2C208.006 138.135 207.689 137.035 207.689 135.902C207.689 134.769 208.006 133.681 208.641 132.638C209.275 131.595 210.114 130.757 211.157 130.122C212.222 129.487 213.321 129.17 214.455 129.17ZM214.455 139.302C214.999 139.302 215.531 139.143 216.053 138.826C216.597 138.486 217.027 138.055 217.345 137.534C217.685 136.99 217.855 136.446 217.855 135.902C217.855 135.358 217.685 134.825 217.345 134.304C217.027 133.783 216.597 133.363 216.053 133.046C215.531 132.729 214.999 132.57 214.455 132.57C213.911 132.57 213.367 132.74 212.823 133.08C212.301 133.397 211.871 133.817 211.531 134.338C211.213 134.837 211.055 135.358 211.055 135.902C211.055 136.446 211.213 136.99 211.531 137.534C211.871 138.055 212.301 138.486 212.823 138.826C213.367 139.143 213.911 139.302 214.455 139.302Z" fill="white"/>
<rect width="84" height="56" transform="translate(253.5 107)" fill="#00FFE6" fill-opacity="0.45"/>
<rect width="84" height="56" transform="translate(342.5 107)" fill="#00FFE6" fill-opacity="0.45"/>
<rect width="84" height="56" transform="translate(431.5 107)" fill="#00FFE6" fill-opacity="0.45"/>
<path d="M466.445 124.512C467.102 128.433 467.986 131.924 469.097 134.984C470.23 138.044 471.738 141.127 473.619 144.232L470.695 146.306C467.567 141.251 465.561 136.095 464.677 130.836C463.702 136.639 461.798 141.795 458.965 146.306L455.905 144.232C457.696 141.399 459.146 138.452 460.257 135.392C461.368 132.309 462.308 128.683 463.079 124.512H466.445ZM483.314 129.17C484.447 129.17 485.535 129.487 486.578 130.122C487.643 130.757 488.493 131.595 489.128 132.638C489.763 133.681 490.08 134.769 490.08 135.902C490.08 137.035 489.763 138.135 489.128 139.2C488.493 140.243 487.643 141.081 486.578 141.716C485.535 142.351 484.447 142.668 483.314 142.668C482.181 142.668 481.081 142.351 480.016 141.716C478.973 141.081 478.135 140.243 477.5 139.2C476.865 138.135 476.548 137.035 476.548 135.902C476.548 134.769 476.865 133.681 477.5 132.638C478.135 131.595 478.973 130.757 480.016 130.122C481.081 129.487 482.181 129.17 483.314 129.17ZM483.314 139.302C483.858 139.302 484.391 139.143 484.912 138.826C485.456 138.486 485.887 138.055 486.204 137.534C486.544 136.99 486.714 136.446 486.714 135.902C486.714 135.358 486.544 134.825 486.204 134.304C485.887 133.783 485.456 133.363 484.912 133.046C484.391 132.729 483.858 132.57 483.314 132.57C482.77 132.57 482.226 132.74 481.682 133.08C481.161 133.397 480.73 133.817 480.39 134.338C480.073 134.837 479.914 135.358 479.914 135.902C479.914 136.446 480.073 136.99 480.39 137.534C480.73 138.055 481.161 138.486 481.682 138.826C482.226 139.143 482.77 139.302 483.314 139.302Z" fill="white"/>
<rect width="84" height="56" transform="translate(120 173)" fill="#00FFE6" fill-opacity="0.45"/>
<path d="M154.084 201.936C152.974 201.936 152.203 201.698 151.772 201.222C151.795 201.585 151.806 202.219 151.806 203.126V212H148.304V203.16C148.304 200.939 148.191 199.023 147.964 197.414C147.738 195.782 147.284 193.833 146.604 191.566L149.97 190.376L151.5 196.326C151.84 197.618 152.611 198.264 153.812 198.264C154.424 198.264 154.946 198.083 155.376 197.72C155.807 197.335 156.022 196.847 156.022 196.258C156.022 195.487 155.796 193.776 155.342 191.124L158.878 190.376C159.332 193.073 159.558 195.068 159.558 196.36C159.558 197.425 159.32 198.389 158.844 199.25C158.368 200.089 157.711 200.746 156.872 201.222C156.056 201.698 155.127 201.936 154.084 201.936ZM169.955 195.17C171.088 195.17 172.176 195.487 173.219 196.122C174.284 196.757 175.134 197.595 175.769 198.638C176.403 199.681 176.721 200.769 176.721 201.902C176.721 203.035 176.403 204.135 175.769 205.2C175.134 206.243 174.284 207.081 173.219 207.716C172.176 208.351 171.088 208.668 169.955 208.668C168.821 208.668 167.722 208.351 166.657 207.716C165.614 207.081 164.775 206.243 164.141 205.2C163.506 204.135 163.189 203.035 163.189 201.902C163.189 200.769 163.506 199.681 164.141 198.638C164.775 197.595 165.614 196.757 166.657 196.122C167.722 195.487 168.821 195.17 169.955 195.17ZM169.955 205.302C170.499 205.302 171.031 205.143 171.553 204.826C172.097 204.486 172.527 204.055 172.845 203.534C173.185 202.99 173.355 202.446 173.355 201.902C173.355 201.358 173.185 200.825 172.845 200.304C172.527 199.783 172.097 199.363 171.553 199.046C171.031 198.729 170.499 198.57 169.955 198.57C169.411 198.57 168.867 198.74 168.323 199.08C167.801 199.397 167.371 199.817 167.031 200.338C166.713 200.837 166.555 201.358 166.555 201.902C166.555 202.446 166.713 202.99 167.031 203.534C167.371 204.055 167.801 204.486 168.323 204.826C168.867 205.143 169.411 205.302 169.955 205.302Z" fill="white"/>
<rect width="84" height="56" transform="translate(209 173)" fill="#00FFE6" fill-opacity="0.45"/>
<rect width="84" height="56" transform="translate(298 173)" fill="#00FFE6" fill-opacity="0.45"/>
<rect width="84" height="56" transform="translate(387 173)" fill="#00FFE6" fill-opacity="0.45"/>
<rect width="84" height="56" transform="translate(476 173)" fill="#00FFE6" fill-opacity="0.45"/>
<path d="M510.945 190.512C511.602 194.433 512.486 197.924 513.597 200.984C514.73 204.044 516.238 207.127 518.119 210.232L515.195 212.306C512.067 207.251 510.061 202.095 509.177 196.836C508.202 202.639 506.298 207.795 503.465 212.306L500.405 210.232C502.196 207.399 503.646 204.452 504.757 201.392C505.868 198.309 506.808 194.683 507.579 190.512H510.945ZM527.814 195.17C528.947 195.17 530.035 195.487 531.078 196.122C532.143 196.757 532.993 197.595 533.628 198.638C534.263 199.681 534.58 200.769 534.58 201.902C534.58 203.035 534.263 204.135 533.628 205.2C532.993 206.243 532.143 207.081 531.078 207.716C530.035 208.351 528.947 208.668 527.814 208.668C526.681 208.668 525.581 208.351 524.516 207.716C523.473 207.081 522.635 206.243 522 205.2C521.365 204.135 521.048 203.035 521.048 201.902C521.048 200.769 521.365 199.681 522 198.638C522.635 197.595 523.473 196.757 524.516 196.122C525.581 195.487 526.681 195.17 527.814 195.17ZM527.814 205.302C528.358 205.302 528.891 205.143 529.412 204.826C529.956 204.486 530.387 204.055 530.704 203.534C531.044 202.99 531.214 202.446 531.214 201.902C531.214 201.358 531.044 200.825 530.704 200.304C530.387 199.783 529.956 199.363 529.412 199.046C528.891 198.729 528.358 198.57 527.814 198.57C527.27 198.57 526.726 198.74 526.182 199.08C525.661 199.397 525.23 199.817 524.89 200.338C524.573 200.837 524.414 201.358 524.414 201.902C524.414 202.446 524.573 202.99 524.89 203.534C525.23 204.055 525.661 204.486 526.182 204.826C526.726 205.143 527.27 205.302 527.814 205.302Z" fill="white"/>
<rect width="84" height="56" transform="translate(75.5 239)" fill="#00FFE6" fill-opacity="0.45"/>
<path d="M109.584 267.936C108.474 267.936 107.703 267.698 107.272 267.222C107.295 267.585 107.306 268.219 107.306 269.126V278H103.804V269.16C103.804 266.939 103.691 265.023 103.464 263.414C103.238 261.782 102.784 259.833 102.104 257.566L105.47 256.376L107 262.326C107.34 263.618 108.111 264.264 109.312 264.264C109.924 264.264 110.446 264.083 110.876 263.72C111.307 263.335 111.522 262.847 111.522 262.258C111.522 261.487 111.296 259.776 110.842 257.124L114.378 256.376C114.832 259.073 115.058 261.068 115.058 262.36C115.058 263.425 114.82 264.389 114.344 265.25C113.868 266.089 113.211 266.746 112.372 267.222C111.556 267.698 110.627 267.936 109.584 267.936ZM125.455 261.17C126.588 261.17 127.676 261.487 128.719 262.122C129.784 262.757 130.634 263.595 131.269 264.638C131.903 265.681 132.221 266.769 132.221 267.902C132.221 269.035 131.903 270.135 131.269 271.2C130.634 272.243 129.784 273.081 128.719 273.716C127.676 274.351 126.588 274.668 125.455 274.668C124.321 274.668 123.222 274.351 122.157 273.716C121.114 273.081 120.275 272.243 119.641 271.2C119.006 270.135 118.689 269.035 118.689 267.902C118.689 266.769 119.006 265.681 119.641 264.638C120.275 263.595 121.114 262.757 122.157 262.122C123.222 261.487 124.321 261.17 125.455 261.17ZM125.455 271.302C125.999 271.302 126.531 271.143 127.053 270.826C127.597 270.486 128.027 270.055 128.345 269.534C128.685 268.99 128.855 268.446 128.855 267.902C128.855 267.358 128.685 266.825 128.345 266.304C128.027 265.783 127.597 265.363 127.053 265.046C126.531 264.729 125.999 264.57 125.455 264.57C124.911 264.57 124.367 264.74 123.823 265.08C123.301 265.397 122.871 265.817 122.531 266.338C122.213 266.837 122.055 267.358 122.055 267.902C122.055 268.446 122.213 268.99 122.531 269.534C122.871 270.055 123.301 270.486 123.823 270.826C124.367 271.143 124.911 271.302 125.455 271.302Z" fill="white"/>
<rect width="84" height="56" transform="translate(164.5 239)" fill="#00FFE6" fill-opacity="0.45"/>
<rect width="84" height="56" transform="translate(253.5 239)" fill="#00FFE6" fill-opacity="0.45"/>
<rect width="84" height="56" transform="translate(342.5 239)" fill="#00FFE6" fill-opacity="0.45"/>
<rect width="84" height="56" transform="translate(431.5 239)" fill="#00FFE6" fill-opacity="0.45"/>
<rect width="84" height="56" transform="translate(520.5 239)" fill="#00FFE6" fill-opacity="0.45"/>
<path d="M555.445 256.512C556.102 260.433 556.986 263.924 558.097 266.984C559.23 270.044 560.738 273.127 562.619 276.232L559.695 278.306C556.567 273.251 554.561 268.095 553.677 262.836C552.702 268.639 550.798 273.795 547.965 278.306L544.905 276.232C546.696 273.399 548.146 270.452 549.257 267.392C550.368 264.309 551.308 260.683 552.079 256.512H555.445ZM572.314 261.17C573.447 261.17 574.535 261.487 575.578 262.122C576.643 262.757 577.493 263.595 578.128 264.638C578.763 265.681 579.08 266.769 579.08 267.902C579.08 269.035 578.763 270.135 578.128 271.2C577.493 272.243 576.643 273.081 575.578 273.716C574.535 274.351 573.447 274.668 572.314 274.668C571.181 274.668 570.081 274.351 569.016 273.716C567.973 273.081 567.135 272.243 566.5 271.2C565.865 270.135 565.548 269.035 565.548 267.902C565.548 266.769 565.865 265.681 566.5 264.638C567.135 263.595 567.973 262.757 569.016 262.122C570.081 261.487 571.181 261.17 572.314 261.17ZM572.314 271.302C572.858 271.302 573.391 271.143 573.912 270.826C574.456 270.486 574.887 270.055 575.204 269.534C575.544 268.99 575.714 268.446 575.714 267.902C575.714 267.358 575.544 266.825 575.204 266.304C574.887 265.783 574.456 265.363 573.912 265.046C573.391 264.729 572.858 264.57 572.314 264.57C571.77 264.57 571.226 264.74 570.682 265.08C570.161 265.397 569.73 265.817 569.39 266.338C569.073 266.837 568.914 267.358 568.914 267.902C568.914 268.446 569.073 268.99 569.39 269.534C569.73 270.055 570.161 270.486 570.682 270.826C571.226 271.143 571.77 271.302 572.314 271.302Z" fill="white"/>
<rect width="84" height="56" transform="translate(31 305)" fill="#00FFE6" fill-opacity="0.45"/>
<path d="M65.0844 333.936C63.9737 333.936 63.203 333.698 62.7724 333.222C62.795 333.585 62.8064 334.219 62.8064 335.126V344H59.3044V335.16C59.3044 332.939 59.191 331.023 58.9644 329.414C58.7377 327.782 58.2844 325.833 57.6044 323.566L60.9704 322.376L62.5004 328.326C62.8404 329.618 63.611 330.264 64.8124 330.264C65.4244 330.264 65.9457 330.083 66.3764 329.72C66.807 329.335 67.0224 328.847 67.0224 328.258C67.0224 327.487 66.7957 325.776 66.3424 323.124L69.8784 322.376C70.3317 325.073 70.5584 327.068 70.5584 328.36C70.5584 329.425 70.3204 330.389 69.8444 331.25C69.3684 332.089 68.711 332.746 67.8724 333.222C67.0564 333.698 66.127 333.936 65.0844 333.936ZM80.9547 327.17C82.088 327.17 83.176 327.487 84.2187 328.122C85.284 328.757 86.134 329.595 86.7687 330.638C87.4033 331.681 87.7207 332.769 87.7207 333.902C87.7207 335.035 87.4033 336.135 86.7687 337.2C86.134 338.243 85.284 339.081 84.2187 339.716C83.176 340.351 82.088 340.668 80.9547 340.668C79.8213 340.668 78.722 340.351 77.6567 339.716C76.614 339.081 75.7753 338.243 75.1407 337.2C74.506 336.135 74.1887 335.035 74.1887 333.902C74.1887 332.769 74.506 331.681 75.1407 330.638C75.7753 329.595 76.614 328.757 77.6567 328.122C78.722 327.487 79.8213 327.17 80.9547 327.17ZM80.9547 337.302C81.4987 337.302 82.0313 337.143 82.5527 336.826C83.0967 336.486 83.5273 336.055 83.8447 335.534C84.1847 334.99 84.3547 334.446 84.3547 333.902C84.3547 333.358 84.1847 332.825 83.8447 332.304C83.5273 331.783 83.0967 331.363 82.5527 331.046C82.0313 330.729 81.4987 330.57 80.9547 330.57C80.4107 330.57 79.8667 330.74 79.3227 331.08C78.8013 331.397 78.3707 331.817 78.0307 332.338C77.7133 332.837 77.5547 333.358 77.5547 333.902C77.5547 334.446 77.7133 334.99 78.0307 335.534C78.3707 336.055 78.8013 336.486 79.3227 336.826C79.8667 337.143 80.4107 337.302 80.9547 337.302Z" fill="white"/>
<rect width="84" height="56" transform="translate(120 305)" fill="#00FFE6" fill-opacity="0.45"/>
<rect width="84" height="56" transform="translate(209 305)" fill="#00FFE6" fill-opacity="0.45"/>
<rect width="84" height="56" transform="translate(298 305)" fill="#00FFE6" fill-opacity="0.45"/>
<rect width="84" height="56" transform="translate(387 305)" fill="#00FFE6" fill-opacity="0.45"/>
<rect width="84" height="56" transform="translate(476 305)" fill="#00FFE6" fill-opacity="0.45"/>
<rect width="84" height="56" transform="translate(565 305)" fill="#00FFE6" fill-opacity="0.45"/>
<path d="M599.945 322.512C600.602 326.433 601.486 329.924 602.597 332.984C603.73 336.044 605.238 339.127 607.119 342.232L604.195 344.306C601.067 339.251 599.061 334.095 598.177 328.836C597.202 334.639 595.298 339.795 592.465 344.306L589.405 342.232C591.196 339.399 592.646 336.452 593.757 333.392C594.868 330.309 595.808 326.683 596.579 322.512H599.945ZM616.814 327.17C617.947 327.17 619.035 327.487 620.078 328.122C621.143 328.757 621.993 329.595 622.628 330.638C623.263 331.681 623.58 332.769 623.58 333.902C623.58 335.035 623.263 336.135 622.628 337.2C621.993 338.243 621.143 339.081 620.078 339.716C619.035 340.351 617.947 340.668 616.814 340.668C615.681 340.668 614.581 340.351 613.516 339.716C612.473 339.081 611.635 338.243 611 337.2C610.365 336.135 610.048 335.035 610.048 333.902C610.048 332.769 610.365 331.681 611 330.638C611.635 329.595 612.473 328.757 613.516 328.122C614.581 327.487 615.681 327.17 616.814 327.17ZM616.814 337.302C617.358 337.302 617.891 337.143 618.412 336.826C618.956 336.486 619.387 336.055 619.704 335.534C620.044 334.99 620.214 334.446 620.214 333.902C620.214 333.358 620.044 332.825 619.704 332.304C619.387 331.783 618.956 331.363 618.412 331.046C617.891 330.729 617.358 330.57 616.814 330.57C616.27 330.57 615.726 330.74 615.182 331.08C614.661 331.397 614.23 331.817 613.89 332.338C613.573 332.837 613.414 333.358 613.414 333.902C613.414 334.446 613.573 334.99 613.89 335.534C614.23 336.055 614.661 336.486 615.182 336.826C615.726 337.143 616.27 337.302 616.814 337.302Z" fill="white"/>
</svg>
