<svg width="337" height="188" viewBox="0 0 337 188" fill="none" xmlns="http://www.w3.org/2000/svg">
<circle cx="28" cy="130.5" r="8.5" fill="#DF75E6"/>
<path d="M26.5895 162.16C26.5895 159.939 26.4762 158.023 26.2495 156.414C26.0229 154.782 25.5695 152.833 24.8895 150.566L28.2895 149.376C29.0149 151.665 29.4909 153.671 29.7175 155.394C29.9669 157.117 30.0915 159.361 30.0915 162.126V171H26.5895V162.16Z" fill="#E9DEE9"/>
<path d="M81.9794 100.049L113 78.8177L144.021 100.049L132.209 134.293H93.7908L81.9794 100.049Z" fill="#D9D9D9" fill-opacity="0.01" stroke="#41B2AF" stroke-width="3"/>
<circle cx="93" cy="133.5" r="8.5" fill="#DF75E6"/>
<circle cx="133" cy="133.5" r="8.5" fill="#DF75E6"/>
<circle cx="113" cy="79.5" r="8.5" fill="#DF75E6"/>
<circle cx="143" cy="99.5" r="8.5" fill="#DF75E6"/>
<circle cx="84" cy="99.5" r="8.5" fill="#DF75E6"/>
<path d="M105.539 164.88C105.539 163.18 106.072 161.378 107.137 159.474C108.202 157.57 109.97 155.451 112.441 153.116L110.877 151.722L113.087 149.07C116.011 151.314 118.289 153.286 119.921 154.986C121.576 156.686 122.743 158.273 123.423 159.746C124.126 161.219 124.477 162.761 124.477 164.37C124.477 165.73 124.205 166.909 123.661 167.906C123.14 168.903 122.437 169.674 121.553 170.218C120.692 170.739 119.74 171 118.697 171C117.79 171 116.997 170.875 116.317 170.626C115.66 170.377 115.15 170.025 114.787 169.572C114.424 170.025 113.914 170.377 113.257 170.626C112.6 170.875 111.852 171 111.013 171C109.29 171 107.942 170.456 106.967 169.368C106.015 168.28 105.539 166.784 105.539 164.88ZM120.975 164.37C120.975 162.874 120.499 161.423 119.547 160.018C118.595 158.613 117.065 157.049 114.957 155.326C112.917 157.139 111.421 158.794 110.469 160.29C109.517 161.786 109.041 163.259 109.041 164.71C109.041 166.455 109.789 167.328 111.285 167.328C112.056 167.328 112.645 167.113 113.053 166.682C113.461 166.229 113.665 165.605 113.665 164.812V162.534H116.759V164.778C116.759 165.549 116.702 166.138 116.589 166.546C116.997 167.067 117.7 167.328 118.697 167.328C119.354 167.328 119.898 167.067 120.329 166.546C120.76 166.025 120.975 165.299 120.975 164.37Z" fill="#E9DEE9"/>
<path d="M256.866 161.99C255.846 162.421 254.6 162.636 253.126 162.636C251.268 162.636 249.828 162.137 248.808 161.14C247.788 160.12 247.278 158.703 247.278 156.89C247.278 155.575 247.562 154.351 248.128 153.218C248.695 152.062 249.477 151.133 250.474 150.43C251.494 149.727 252.639 149.376 253.908 149.376C255.994 149.376 257.592 150.169 258.702 151.756C259.813 153.343 260.368 155.632 260.368 158.624V171H256.866V161.99ZM256.866 158.318C256.866 156.482 256.606 155.122 256.084 154.238C255.586 153.354 254.804 152.912 253.738 152.912C252.9 152.912 252.197 153.263 251.63 153.966C251.064 154.646 250.78 155.519 250.78 156.584C250.78 157.377 251.018 157.978 251.494 158.386C251.97 158.771 252.65 158.964 253.534 158.964C254.962 158.964 256.073 158.749 256.866 158.318Z" fill="#E9DEE9"/>
<path d="M190.664 63.8489L254.5 19.8222L318.336 63.8489L293.985 134.991H215.015L190.664 63.8489Z" fill="#D9D9D9" fill-opacity="0.01" stroke="#41B2AF" stroke-width="3"/>
<path d="M222.979 41.0489L254 19.8177L285.021 41.0489L273.209 75.2931H234.791L222.979 41.0489Z" fill="#D9D9D9" fill-opacity="0.01" stroke="#41B2AF" stroke-width="3"/>
<circle cx="192" cy="64.5" r="8.5" fill="#DF75E6"/>
<circle cx="234" cy="74.5" r="8.5" fill="#DF75E6"/>
<circle cx="274" cy="74.5" r="8.5" fill="#DF75E6"/>
<circle cx="254" cy="20.5" r="8.5" fill="#DF75E6"/>
<circle cx="284" cy="40.5" r="8.5" fill="#DF75E6"/>
<circle cx="225" cy="40.5" r="8.5" fill="#DF75E6"/>
<circle cx="217" cy="134.5" r="8.5" fill="#DF75E6"/>
<circle cx="293" cy="134.5" r="8.5" fill="#DF75E6"/>
<circle cx="316" cy="64.5" r="8.5" fill="#DF75E6"/>
</svg>
