<svg width="246" height="70" viewBox="0 0 246 70" fill="none" xmlns="http://www.w3.org/2000/svg">
<g style="mix-blend-mode:difference">
<path d="M236.354 48.3535C236.549 48.1583 236.549 47.8417 236.354 47.6464L233.172 44.4644C232.976 44.2692 232.66 44.2692 232.464 44.4644C232.269 44.6597 232.269 44.9763 232.464 45.1716L235.293 48L232.464 50.8284C232.269 51.0237 232.269 51.3403 232.464 51.5355C232.66 51.7308 232.976 51.7308 233.172 51.5355L236.354 48.3535ZM6 48.5L236 48.5L236 47.5L6 47.5L6 48.5Z" fill="white" fill-opacity="0.69"/>
<line x1="53.5" y1="43" x2="53.5" y2="54" stroke="white" stroke-opacity="0.51"/>
<line x1="82.5" y1="43" x2="82.5" y2="54" stroke="white" stroke-opacity="0.51"/>
<line x1="111.5" y1="43" x2="111.5" y2="54" stroke="white" stroke-opacity="0.51"/>
<line x1="140.5" y1="43" x2="140.5" y2="54" stroke="white" stroke-opacity="0.51"/>
<line x1="169.5" y1="43" x2="169.5" y2="54" stroke="white" stroke-opacity="0.51"/>
<rect x="30" y="46" width="134" height="4" fill="#DE5959"/>
<circle cx="169" cy="48" r="5" fill="#DE5959" stroke="#DE5959" stroke-width="2"/>
<circle cx="25" cy="48.5" r="5" fill="#070707" stroke="#DE5959" stroke-width="2"/>
<rect x="116.5" y="29.5" width="116" height="3" fill="#5793CB" stroke="#5793CB"/>
<circle cx="234" cy="31" r="5" fill="#5793CB" stroke="#5793CB" stroke-width="2"/>
<circle cx="111" cy="31.5" r="5" fill="#070707" stroke="#5793CB" stroke-width="2"/>
<path d="M19.4357 61.921H23.2877V62.416H19.4357V61.921ZM24.9749 61.561C24.9749 60.967 24.9449 60.454 24.8849 60.022C24.8249 59.584 24.7049 59.053 24.5249 58.429L24.9929 58.249C25.1849 58.867 25.3109 59.401 25.3709 59.851C25.4369 60.295 25.4699 60.868 25.4699 61.57V64H24.9749V61.561Z" fill="#DFDCE1"/>
<path d="M53.5015 59.698C53.7895 59.698 54.0655 59.779 54.3295 59.941C54.5935 60.103 54.8065 60.313 54.9685 60.571C55.1305 60.829 55.2115 61.096 55.2115 61.372C55.2115 61.648 55.1305 61.915 54.9685 62.173C54.8065 62.431 54.5935 62.641 54.3295 62.803C54.0655 62.965 53.7895 63.046 53.5015 63.046C53.2135 63.046 52.9375 62.965 52.6735 62.803C52.4095 62.641 52.1965 62.431 52.0345 62.173C51.8725 61.915 51.7915 61.648 51.7915 61.372C51.7915 61.096 51.8725 60.829 52.0345 60.571C52.1965 60.313 52.4095 60.103 52.6735 59.941C52.9375 59.779 53.2135 59.698 53.5015 59.698ZM53.5015 62.569C53.6995 62.569 53.8945 62.512 54.0865 62.398C54.2785 62.278 54.4345 62.125 54.5545 61.939C54.6745 61.753 54.7345 61.564 54.7345 61.372C54.7345 61.174 54.6745 60.985 54.5545 60.805C54.4345 60.619 54.2785 60.469 54.0865 60.355C53.8945 60.235 53.6995 60.175 53.5015 60.175C53.3095 60.175 53.1175 60.235 52.9255 60.355C52.7335 60.469 52.5745 60.619 52.4485 60.805C52.3285 60.985 52.2685 61.174 52.2685 61.372C52.2685 61.564 52.3285 61.753 52.4485 61.939C52.5745 62.125 52.7335 62.278 52.9255 62.398C53.1175 62.512 53.3095 62.569 53.5015 62.569Z" fill="#DFDCE1"/>
<path d="M82.8403 61.561C82.8403 60.967 82.8103 60.454 82.7503 60.022C82.6903 59.584 82.5703 59.053 82.3903 58.429L82.8583 58.249C83.0503 58.867 83.1763 59.401 83.2363 59.851C83.3023 60.295 83.3353 60.868 83.3353 61.57V64H82.8403V61.561Z" fill="#DFDCE1"/>
<path d="M111.665 62.039C111.479 62.039 111.311 62.003 111.161 61.931C111.017 61.859 110.909 61.757 110.837 61.625C110.855 61.901 110.864 62.216 110.864 62.57V65H110.369V62.561C110.369 61.967 110.339 61.454 110.279 61.022C110.219 60.584 110.099 60.053 109.919 59.429L110.387 59.249L110.801 60.824C110.861 61.058 110.963 61.238 111.107 61.364C111.257 61.484 111.434 61.544 111.638 61.544C111.872 61.544 112.073 61.469 112.241 61.319C112.409 61.163 112.493 60.977 112.493 60.761C112.493 60.485 112.436 60.017 112.322 59.357L112.808 59.249C112.928 59.915 112.988 60.413 112.988 60.743C112.988 60.983 112.931 61.202 112.817 61.4C112.703 61.598 112.544 61.754 112.34 61.868C112.136 61.982 111.911 62.039 111.665 62.039Z" fill="#DFDCE1"/>
<path d="M139.815 59.249C139.929 59.879 139.986 60.377 139.986 60.743C139.986 60.851 139.965 60.98 139.923 61.13C140.013 61.25 140.121 61.349 140.247 61.427C140.379 61.505 140.52 61.544 140.67 61.544C140.886 61.544 141.078 61.469 141.246 61.319C141.414 61.163 141.498 60.977 141.498 60.761C141.498 60.473 141.438 60.005 141.318 59.357L141.804 59.249C141.924 59.915 141.984 60.413 141.984 60.743C141.984 60.983 141.927 61.202 141.813 61.4C141.699 61.598 141.543 61.754 141.345 61.868C141.153 61.982 140.937 62.039 140.697 62.039C140.289 62.039 139.953 61.88 139.689 61.562C139.599 61.706 139.464 61.823 139.284 61.913C139.104 61.997 138.9 62.039 138.672 62.039C138.486 62.039 138.318 62.003 138.168 61.931C138.024 61.859 137.916 61.757 137.844 61.625C137.862 61.901 137.871 62.216 137.871 62.57V65H137.376V62.561C137.376 61.967 137.346 61.454 137.286 61.022C137.226 60.584 137.106 60.053 136.926 59.429L137.394 59.249L137.808 60.824C137.868 61.058 137.97 61.238 138.114 61.364C138.264 61.484 138.441 61.544 138.645 61.544C138.879 61.544 139.08 61.469 139.248 61.319C139.416 61.163 139.5 60.977 139.5 60.761C139.5 60.485 139.443 60.017 139.329 59.357L139.815 59.249Z" fill="#DFDCE1"/>
<path d="M169.037 61.841C168.911 61.721 168.812 61.568 168.74 61.382C168.674 61.196 168.641 61.004 168.641 60.806C168.641 60.524 168.713 60.263 168.857 60.023C169.001 59.783 169.196 59.594 169.442 59.456C169.688 59.318 169.964 59.249 170.27 59.249C170.618 59.249 170.975 59.339 171.341 59.519L171.197 59.96C170.873 59.816 170.567 59.744 170.279 59.744C169.943 59.744 169.667 59.846 169.451 60.05C169.241 60.254 169.136 60.506 169.136 60.806C169.136 61.01 169.175 61.199 169.253 61.373C169.331 61.547 169.436 61.688 169.568 61.796C169.706 61.898 169.853 61.949 170.009 61.949C170.237 61.949 170.477 61.919 170.729 61.859C170.981 61.793 171.224 61.7 171.458 61.58L171.611 62.03C171.005 62.306 170.414 62.444 169.838 62.444C169.484 62.444 169.166 62.396 168.884 62.3C168.602 62.198 168.38 62.069 168.218 61.913C168.236 62.063 168.245 62.294 168.245 62.606V65H167.75V62.561C167.75 61.967 167.72 61.454 167.66 61.022C167.6 60.584 167.48 60.053 167.3 59.429L167.768 59.249C167.93 59.837 168.062 60.431 168.164 61.031C168.194 61.205 168.275 61.367 168.407 61.517C168.545 61.661 168.755 61.769 169.037 61.841Z" fill="#DFDCE1"/>
<path d="M66.8233 25.046H68.1673L71.8633 35H70.3933L69.5253 32.55H65.4653L64.6113 35H63.1413L66.8233 25.046ZM69.1893 31.472L67.4953 26.656L65.8013 31.472H69.1893Z" fill="#DE5959"/>
<path d="M143.196 19V9.046H146.29C147.457 9.046 148.343 9.27467 148.95 9.732C149.566 10.18 149.874 10.8333 149.874 11.692C149.874 12.2613 149.734 12.7373 149.454 13.12C149.174 13.4933 148.777 13.75 148.264 13.89C148.637 13.9647 148.973 14.1093 149.272 14.324C149.571 14.5387 149.799 14.8047 149.958 15.122C150.117 15.43 150.196 15.7753 150.196 16.158C150.196 17.0727 149.902 17.7727 149.314 18.258C148.735 18.7433 147.9 18.9907 146.808 19H143.196ZM144.568 14.394V17.922H146.794C147.429 17.922 147.923 17.7633 148.278 17.446C148.642 17.1287 148.824 16.6947 148.824 16.144C148.824 15.7987 148.745 15.4953 148.586 15.234C148.437 14.9727 148.217 14.7673 147.928 14.618C147.648 14.4687 147.312 14.394 146.92 14.394H144.568ZM144.568 13.47H146.458C147.158 13.47 147.671 13.3347 147.998 13.064C148.325 12.7933 148.488 12.378 148.488 11.818C148.488 11.2673 148.311 10.8473 147.956 10.558C147.601 10.2687 147.06 10.124 146.332 10.124H144.568V13.47Z" fill="#5793CB"/>
</g>
</svg>
