<svg width="153" height="33" viewBox="0 0 153 33" fill="none" xmlns="http://www.w3.org/2000/svg">
<g style="mix-blend-mode:difference" clip-path="url(#clip0_1698_318)">
<path d="M147.354 11.3535C147.549 11.1583 147.549 10.8417 147.354 10.6464L144.172 7.46445C143.976 7.26919 143.66 7.26919 143.464 7.46445C143.269 7.65972 143.269 7.9763 143.464 8.17156L146.293 11L143.464 13.8284C143.269 14.0237 143.269 14.3403 143.464 14.5355C143.66 14.7308 143.976 14.7308 144.172 14.5355L147.354 11.3535ZM6 11.5L147 11.5L147 10.5L6 10.5L6 11.5Z" fill="white" fill-opacity="0.69"/>
<line x1="14.5" y1="6.5" x2="14.5" y2="15.5" stroke="white" stroke-opacity="0.51"/>
<line x1="43.5" y1="6.5" x2="43.5" y2="15.5" stroke="white" stroke-opacity="0.51"/>
<line x1="72.5" y1="6.5" x2="72.5" y2="15.5" stroke="white" stroke-opacity="0.51"/>
<line x1="101.5" y1="6.5" x2="101.5" y2="15.5" stroke="white" stroke-opacity="0.51"/>
<line x1="130.5" y1="6.5" x2="130.5" y2="15.5" stroke="white" stroke-opacity="0.51"/>
<path d="M14.5015 22.698C14.7895 22.698 15.0655 22.779 15.3295 22.941C15.5935 23.103 15.8065 23.313 15.9685 23.571C16.1305 23.829 16.2115 24.096 16.2115 24.372C16.2115 24.648 16.1305 24.915 15.9685 25.173C15.8065 25.431 15.5935 25.641 15.3295 25.803C15.0655 25.965 14.7895 26.046 14.5015 26.046C14.2135 26.046 13.9375 25.965 13.6735 25.803C13.4095 25.641 13.1965 25.431 13.0345 25.173C12.8725 24.915 12.7915 24.648 12.7915 24.372C12.7915 24.096 12.8725 23.829 13.0345 23.571C13.1965 23.313 13.4095 23.103 13.6735 22.941C13.9375 22.779 14.2135 22.698 14.5015 22.698ZM14.5015 25.569C14.6995 25.569 14.8945 25.512 15.0865 25.398C15.2785 25.278 15.4345 25.125 15.5545 24.939C15.6745 24.753 15.7345 24.564 15.7345 24.372C15.7345 24.174 15.6745 23.985 15.5545 23.805C15.4345 23.619 15.2785 23.469 15.0865 23.355C14.8945 23.235 14.6995 23.175 14.5015 23.175C14.3095 23.175 14.1175 23.235 13.9255 23.355C13.7335 23.469 13.5745 23.619 13.4485 23.805C13.3285 23.985 13.2685 24.174 13.2685 24.372C13.2685 24.564 13.3285 24.753 13.4485 24.939C13.5745 25.125 13.7335 25.278 13.9255 25.398C14.1175 25.512 14.3095 25.569 14.5015 25.569Z" fill="#DFDCE1"/>
<path d="M43.8403 25.561C43.8403 24.967 43.8103 24.454 43.7503 24.022C43.6903 23.584 43.5703 23.053 43.3903 22.429L43.8583 22.249C44.0503 22.867 44.1763 23.401 44.2363 23.851C44.3023 24.295 44.3353 24.868 44.3353 25.57V28H43.8403V25.561Z" fill="#DFDCE1"/>
<path d="M73.6651 25.039C73.4791 25.039 73.3111 25.003 73.1611 24.931C73.0171 24.859 72.9091 24.757 72.8371 24.625C72.8551 24.901 72.8641 25.216 72.8641 25.57V28H72.3691V25.561C72.3691 24.967 72.3391 24.454 72.2791 24.022C72.2191 23.584 72.0991 23.053 71.9191 22.429L72.3871 22.249L72.8011 23.824C72.8611 24.058 72.9631 24.238 73.1071 24.364C73.2571 24.484 73.4341 24.544 73.6381 24.544C73.8721 24.544 74.0731 24.469 74.2411 24.319C74.4091 24.163 74.4931 23.977 74.4931 23.761C74.4931 23.485 74.4361 23.017 74.3221 22.357L74.8081 22.249C74.9281 22.915 74.9881 23.413 74.9881 23.743C74.9881 23.983 74.9311 24.202 74.8171 24.4C74.7031 24.598 74.5441 24.754 74.3401 24.868C74.1361 24.982 73.9111 25.039 73.6651 25.039Z" fill="#DFDCE1"/>
<path d="M101.815 22.249C101.929 22.879 101.986 23.377 101.986 23.743C101.986 23.851 101.965 23.98 101.923 24.13C102.013 24.25 102.121 24.349 102.247 24.427C102.379 24.505 102.52 24.544 102.67 24.544C102.886 24.544 103.078 24.469 103.246 24.319C103.414 24.163 103.498 23.977 103.498 23.761C103.498 23.473 103.438 23.005 103.318 22.357L103.804 22.249C103.924 22.915 103.984 23.413 103.984 23.743C103.984 23.983 103.927 24.202 103.813 24.4C103.699 24.598 103.543 24.754 103.345 24.868C103.153 24.982 102.937 25.039 102.697 25.039C102.289 25.039 101.953 24.88 101.689 24.562C101.599 24.706 101.464 24.823 101.284 24.913C101.104 24.997 100.9 25.039 100.672 25.039C100.486 25.039 100.318 25.003 100.168 24.931C100.024 24.859 99.916 24.757 99.844 24.625C99.862 24.901 99.871 25.216 99.871 25.57V28H99.376V25.561C99.376 24.967 99.346 24.454 99.286 24.022C99.226 23.584 99.106 23.053 98.926 22.429L99.394 22.249L99.808 23.824C99.868 24.058 99.97 24.238 100.114 24.364C100.264 24.484 100.441 24.544 100.645 24.544C100.879 24.544 101.08 24.469 101.248 24.319C101.416 24.163 101.5 23.977 101.5 23.761C101.5 23.485 101.443 23.017 101.329 22.357L101.815 22.249Z" fill="#DFDCE1"/>
<path d="M95.6667 11C95.6667 13.9455 98.0545 16.3333 101 16.3333C103.946 16.3333 106.333 13.9455 106.333 11C106.333 8.05448 103.946 5.66667 101 5.66667C98.0545 5.66667 95.6667 8.05448 95.6667 11ZM101 12L146 12L146 10L101 10L101 12Z" fill="#DE5959"/>
</g>
<defs>
<clipPath id="clip0_1698_318">
<rect width="153" height="33" fill="white"/>
</clipPath>
</defs>
</svg>
