<svg width="181" height="58" viewBox="0 0 181 58" fill="none" xmlns="http://www.w3.org/2000/svg">
<g style="mix-blend-mode:difference" clip-path="url(#clip0_1686_168)">
<path d="M167.354 27.3536C167.549 27.1583 167.549 26.8417 167.354 26.6465L164.172 23.4645C163.976 23.2692 163.66 23.2692 163.464 23.4645C163.269 23.6597 163.269 23.9763 163.464 24.1716L166.293 27L163.464 29.8284C163.269 30.0237 163.269 30.3403 163.464 30.5355C163.66 30.7308 163.976 30.7308 164.172 30.5355L167.354 27.3536ZM14 27.5L167 27.5L167 26.5L14 26.5L14 27.5Z" fill="white" fill-opacity="0.69"/>
<line x1="32.5" y1="22" x2="32.5" y2="33" stroke="white" stroke-opacity="0.51"/>
<line x1="61.5" y1="22" x2="61.5" y2="33" stroke="white" stroke-opacity="0.51"/>
<line x1="90.5" y1="22" x2="90.5" y2="33" stroke="white" stroke-opacity="0.51"/>
<line x1="119.5" y1="22" x2="119.5" y2="33" stroke="white" stroke-opacity="0.51"/>
<line x1="148.5" y1="22" x2="148.5" y2="33" stroke="white" stroke-opacity="0.51"/>
<rect x="37" y="25" width="78" height="4" fill="#DE5959"/>
<circle cx="32.5" cy="27" r="5" fill="#070707" stroke="#DE5959" stroke-width="2"/>
<circle cx="119.5" cy="27" r="5" fill="#070707" stroke="#DE5959" stroke-width="2"/>
<path d="M29.3758 44.94H31.5898V45.489H29.3758V44.94ZM35.4915 42.051L35.6445 43.563C35.6685 43.809 35.6205 44.04 35.5005 44.256C35.3865 44.472 35.2215 44.646 35.0055 44.778C34.7895 44.904 34.5555 44.967 34.3035 44.967H33.9705C33.7365 44.967 33.5145 44.91 33.3045 44.796C33.1005 44.682 32.9295 44.523 32.7915 44.319C32.6595 44.109 32.5785 43.878 32.5485 43.626L33.0705 43.563C33.0945 43.821 33.1785 44.022 33.3225 44.166C33.4725 44.31 33.6645 44.382 33.8985 44.382H34.3035C34.4595 44.382 34.6005 44.349 34.7265 44.283C34.8585 44.211 34.9575 44.118 35.0235 44.004C35.0955 43.884 35.1255 43.755 35.1135 43.617L34.9605 42.114L35.4915 42.051ZM32.9715 48.018L32.3955 42.114L32.9265 42.06L33.5025 47.964L32.9715 48.018Z" fill="#DFDCE1"/>
<path d="M91.8828 45.921C91.8828 46.185 91.8168 46.431 91.6848 46.659C91.5588 46.887 91.3848 47.067 91.1628 47.199C90.9408 47.331 90.7008 47.397 90.4428 47.397C90.1788 47.397 89.9358 47.331 89.7138 47.199C89.4918 47.067 89.3148 46.887 89.1828 46.659C89.0568 46.431 88.9938 46.185 88.9938 45.921C88.9938 45.651 89.0568 45.405 89.1828 45.183C89.3148 44.955 89.4918 44.775 89.7138 44.643C89.9358 44.511 90.1788 44.445 90.4428 44.445C90.7008 44.445 90.9408 44.511 91.1628 44.643C91.3848 44.775 91.5588 44.955 91.6848 45.183C91.8168 45.405 91.8828 45.651 91.8828 45.921ZM91.3878 45.921C91.3878 45.663 91.2948 45.444 91.1088 45.264C90.9228 45.084 90.7008 44.994 90.4428 44.994C90.2748 44.994 90.1188 45.036 89.9748 45.12C89.8308 45.204 89.7138 45.318 89.6238 45.462C89.5398 45.6 89.4978 45.753 89.4978 45.921C89.4978 46.083 89.5398 46.236 89.6238 46.38C89.7138 46.518 89.8308 46.629 89.9748 46.713C90.1188 46.797 90.2748 46.839 90.4428 46.839C90.7008 46.839 90.9228 46.752 91.1088 46.578C91.2948 46.398 91.3878 46.179 91.3878 45.921Z" fill="#DFDCE1"/>
<path d="M119.244 43.132L119.775 43.078L120.351 48.973L119.82 49.027L119.244 43.132Z" fill="#DFDCE1"/>
</g>
<defs>
<clipPath id="clip0_1686_168">
<rect width="181" height="58" fill="white"/>
</clipPath>
</defs>
</svg>
