<svg width="153" height="33" viewBox="0 0 153 33" fill="none" xmlns="http://www.w3.org/2000/svg">
<g style="mix-blend-mode:difference" clip-path="url(#clip0_1693_280)">
<path d="M147.354 11.3535C147.549 11.1583 147.549 10.8417 147.354 10.6464L144.172 7.46445C143.976 7.26919 143.66 7.26919 143.464 7.46445C143.269 7.65972 143.269 7.9763 143.464 8.17156L146.293 11L143.464 13.8284C143.269 14.0237 143.269 14.3403 143.464 14.5355C143.66 14.7308 143.976 14.7308 144.172 14.5355L147.354 11.3535ZM6 11.5L147 11.5L147 10.5L6 10.5L6 11.5Z" fill="white" fill-opacity="0.69"/>
<line x1="14.5" y1="6" x2="14.5" y2="17" stroke="white" stroke-opacity="0.51"/>
<line x1="43.5" y1="6" x2="43.5" y2="17" stroke="white" stroke-opacity="0.51"/>
<line x1="72.5" y1="6" x2="72.5" y2="17" stroke="white" stroke-opacity="0.51"/>
<line x1="101.5" y1="6" x2="101.5" y2="17" stroke="white" stroke-opacity="0.51"/>
<line x1="130.5" y1="6" x2="130.5" y2="17" stroke="white" stroke-opacity="0.51"/>
<path d="M15.8828 25.921C15.8828 26.185 15.8168 26.431 15.6848 26.659C15.5588 26.887 15.3848 27.067 15.1628 27.199C14.9408 27.331 14.7008 27.397 14.4428 27.397C14.1788 27.397 13.9358 27.331 13.7138 27.199C13.4918 27.067 13.3148 26.887 13.1828 26.659C13.0568 26.431 12.9938 26.185 12.9938 25.921C12.9938 25.651 13.0568 25.405 13.1828 25.183C13.3148 24.955 13.4918 24.775 13.7138 24.643C13.9358 24.511 14.1788 24.445 14.4428 24.445C14.7008 24.445 14.9408 24.511 15.1628 24.643C15.3848 24.775 15.5588 24.955 15.6848 25.183C15.8168 25.405 15.8828 25.651 15.8828 25.921ZM15.3878 25.921C15.3878 25.663 15.2948 25.444 15.1088 25.264C14.9228 25.084 14.7008 24.994 14.4428 24.994C14.2748 24.994 14.1188 25.036 13.9748 25.12C13.8308 25.204 13.7138 25.318 13.6238 25.462C13.5398 25.6 13.4978 25.753 13.4978 25.921C13.4978 26.083 13.5398 26.236 13.6238 26.38C13.7138 26.518 13.8308 26.629 13.9748 26.713C14.1188 26.797 14.2748 26.839 14.4428 26.839C14.7008 26.839 14.9228 26.752 15.1088 26.578C15.2948 26.398 15.3878 26.179 15.3878 25.921Z" fill="#DFDCE1"/>
<path d="M43.2445 23.132L43.7755 23.078L44.3515 28.973L43.8205 29.027L43.2445 23.132Z" fill="#DFDCE1"/>
<path d="M75.1796 23.051L75.3326 24.563C75.3566 24.809 75.3086 25.04 75.1886 25.256C75.0746 25.472 74.9096 25.646 74.6936 25.778C74.4776 25.904 74.2436 25.967 73.9916 25.967H73.6586C73.4246 25.967 73.2026 25.91 72.9926 25.796C72.7886 25.682 72.6176 25.523 72.4796 25.319C72.3476 25.109 72.2666 24.878 72.2366 24.626L72.7586 24.563C72.7826 24.821 72.8666 25.022 73.0106 25.166C73.1606 25.31 73.3526 25.382 73.5866 25.382H73.9916C74.1476 25.382 74.2886 25.349 74.4146 25.283C74.5466 25.211 74.6456 25.118 74.7116 25.004C74.7836 24.884 74.8136 24.755 74.8016 24.617L74.6486 23.114L75.1796 23.051ZM72.6596 29.018L72.0836 23.114L72.6146 23.06L73.1906 28.964L72.6596 29.018Z" fill="#DFDCE1"/>
</g>
<defs>
<clipPath id="clip0_1693_280">
<rect width="153" height="33" fill="white"/>
</clipPath>
</defs>
</svg>
