<svg width="414" height="74" viewBox="0 0 414 74" fill="none" xmlns="http://www.w3.org/2000/svg">
<g style="mix-blend-mode:difference">
<path d="M397.354 30.8536C397.549 30.6583 397.549 30.3417 397.354 30.1464L394.172 26.9645C393.976 26.7692 393.66 26.7692 393.464 26.9645C393.269 27.1597 393.269 27.4763 393.464 27.6716L396.293 30.5L393.464 33.3284C393.269 33.5237 393.269 33.8403 393.464 34.0355C393.66 34.2308 393.976 34.2308 394.172 34.0355L397.354 30.8536ZM17 31H397V30H17V31Z" fill="white" fill-opacity="0.69"/>
<line x1="27.5" y1="25" x2="27.5" y2="36" stroke="white" stroke-opacity="0.51"/>
<line x1="56.5" y1="25" x2="56.5" y2="36" stroke="white" stroke-opacity="0.51"/>
<line x1="85.5" y1="25" x2="85.5" y2="36" stroke="white" stroke-opacity="0.51"/>
<line x1="114.5" y1="25" x2="114.5" y2="36" stroke="white" stroke-opacity="0.51"/>
<line x1="143.5" y1="25" x2="143.5" y2="36" stroke="white" stroke-opacity="0.51"/>
<line x1="172.5" y1="25" x2="172.5" y2="36" stroke="white" stroke-opacity="0.51"/>
<line x1="201.5" y1="25" x2="201.5" y2="36" stroke="white" stroke-opacity="0.51"/>
<line x1="230.5" y1="25" x2="230.5" y2="36" stroke="white" stroke-opacity="0.51"/>
<line x1="259.5" y1="25" x2="259.5" y2="36" stroke="white" stroke-opacity="0.51"/>
<line x1="288.5" y1="25" x2="288.5" y2="36" stroke="white" stroke-opacity="0.51"/>
<line x1="317.5" y1="25" x2="317.5" y2="36" stroke="white" stroke-opacity="0.51"/>
<line x1="346.5" y1="25" x2="346.5" y2="36" stroke="white" stroke-opacity="0.51"/>
<line x1="375.5" y1="25" x2="375.5" y2="36" stroke="white" stroke-opacity="0.51"/>
<circle cx="35" cy="30" r="4" fill="#DE5959"/>
<circle cx="71" cy="30" r="4" fill="#DE5959"/>
<circle cx="92" cy="30" r="4" fill="#5793CB"/>
<circle cx="132" cy="30" r="4" fill="#DE5959"/>
<circle cx="188" cy="30" r="4" fill="#5793CB"/>
<circle cx="243" cy="30" r="4" fill="#DE5959"/>
<circle cx="221" cy="30" r="4" fill="#5793CB"/>
<circle cx="269" cy="30" r="4" fill="#DE5959"/>
<circle cx="302" cy="30" r="4" fill="#5793CB"/>
<circle cx="347" cy="30" r="4" fill="#DE5959"/>
<path d="M22.297 47.94H24.511V48.489H22.297V47.94ZM28.6467 51C28.4067 51 28.1907 50.946 27.9987 50.838C27.8067 50.724 27.6507 50.568 27.5307 50.37C27.4167 50.166 27.3477 49.938 27.3237 49.686L27.8547 49.641C27.8787 49.875 27.9597 50.064 28.0977 50.208C28.2417 50.346 28.4247 50.415 28.6467 50.415H28.7457C28.9677 50.415 29.1507 50.343 29.2947 50.199C29.4447 50.055 29.5197 49.875 29.5197 49.659C29.5197 49.221 29.4837 48.885 29.4117 48.651C29.3397 48.411 29.1687 48.117 28.8987 47.769C28.6287 47.421 28.1157 46.827 27.3597 45.987C27.1857 45.789 26.9907 45.573 26.7747 45.339L27.1707 44.952L28.1157 46.005C28.7637 46.725 29.2137 47.265 29.4657 47.625C29.7237 47.979 29.8857 48.288 29.9517 48.552C30.0177 48.816 30.0507 49.185 30.0507 49.659C30.0507 49.905 29.9937 50.133 29.8797 50.343C29.7657 50.547 29.6067 50.709 29.4027 50.829C29.2047 50.943 28.9857 51 28.7457 51H28.6467ZM26.4417 51C26.2017 51 25.9797 50.943 25.7757 50.829C25.5777 50.709 25.4187 50.547 25.2987 50.343C25.1847 50.133 25.1277 49.905 25.1277 49.659C25.1277 49.185 25.1547 48.822 25.2087 48.57C25.2687 48.318 25.4097 48.03 25.6317 47.706C25.8597 47.382 26.2497 46.911 26.8017 46.293C26.9997 46.071 27.1977 45.852 27.3957 45.636L27.7917 46.023C27.6837 46.143 27.5757 46.26 27.4677 46.374C26.8437 47.07 26.4147 47.574 26.1807 47.886C25.9527 48.192 25.8087 48.456 25.7487 48.678C25.6887 48.9 25.6587 49.227 25.6587 49.659C25.6587 49.875 25.7307 50.055 25.8747 50.199C26.0247 50.343 26.2137 50.415 26.4417 50.415H26.5407C26.7567 50.415 26.9397 50.343 27.0897 50.199C27.2457 50.049 27.3237 49.869 27.3237 49.659V49.11H27.8547V49.659C27.8547 49.905 27.7947 50.13 27.6747 50.334C27.5607 50.538 27.4017 50.7 27.1977 50.82C26.9997 50.94 26.7807 51 26.5407 51H26.4417Z" fill="#DFDCE1"/>
<path d="M84.6139 47.94H86.8279V48.489H84.6139V47.94ZM90.7296 45.051L90.8826 46.563C90.9066 46.809 90.8586 47.04 90.7386 47.256C90.6246 47.472 90.4596 47.646 90.2436 47.778C90.0276 47.904 89.7936 47.967 89.5416 47.967H89.2086C88.9746 47.967 88.7526 47.91 88.5426 47.796C88.3386 47.682 88.1676 47.523 88.0296 47.319C87.8976 47.109 87.8166 46.878 87.7866 46.626L88.3086 46.563C88.3326 46.821 88.4166 47.022 88.5606 47.166C88.7106 47.31 88.9026 47.382 89.1366 47.382H89.5416C89.6976 47.382 89.8386 47.349 89.9646 47.283C90.0966 47.211 90.1956 47.118 90.2616 47.004C90.3336 46.884 90.3636 46.755 90.3516 46.617L90.1986 45.114L90.7296 45.051ZM88.2096 51.018L87.6336 45.114L88.1646 45.06L88.7406 50.964L88.2096 51.018ZM92.3383 51.09C92.1823 51.09 92.0503 51.039 91.9423 50.937C91.8403 50.829 91.7893 50.694 91.7893 50.532C91.7893 50.382 91.8403 50.256 91.9423 50.154C92.0503 50.052 92.1823 50.001 92.3383 50.001C92.4883 50.001 92.6143 50.052 92.7163 50.154C92.8243 50.256 92.8783 50.382 92.8783 50.532C92.8783 50.688 92.8243 50.82 92.7163 50.928C92.6143 51.036 92.4883 51.09 92.3383 51.09ZM93.7942 50.847L95.8552 45.087H96.3502L98.4022 50.847L97.8982 51.045L96.0982 45.978L94.2982 51.045L93.7942 50.847Z" fill="#DFDCE1"/>
<path d="M111.376 47.94H113.59V48.489H111.376V47.94ZM117.491 45.051L117.644 46.563C117.668 46.809 117.62 47.04 117.5 47.256C117.386 47.472 117.221 47.646 117.005 47.778C116.789 47.904 116.555 47.967 116.303 47.967H115.97C115.736 47.967 115.514 47.91 115.304 47.796C115.1 47.682 114.929 47.523 114.791 47.319C114.659 47.109 114.578 46.878 114.548 46.626L115.07 46.563C115.094 46.821 115.178 47.022 115.322 47.166C115.472 47.31 115.664 47.382 115.898 47.382H116.303C116.459 47.382 116.6 47.349 116.726 47.283C116.858 47.211 116.957 47.118 117.023 47.004C117.095 46.884 117.125 46.755 117.113 46.617L116.96 45.114L117.491 45.051ZM114.971 51.018L114.395 45.114L114.926 45.06L115.502 50.964L114.971 51.018Z" fill="#DFDCE1"/>
<path d="M173.883 48.921C173.883 49.185 173.817 49.431 173.685 49.659C173.559 49.887 173.385 50.067 173.163 50.199C172.941 50.331 172.701 50.397 172.443 50.397C172.179 50.397 171.936 50.331 171.714 50.199C171.492 50.067 171.315 49.887 171.183 49.659C171.057 49.431 170.994 49.185 170.994 48.921C170.994 48.651 171.057 48.405 171.183 48.183C171.315 47.955 171.492 47.775 171.714 47.643C171.936 47.511 172.179 47.445 172.443 47.445C172.701 47.445 172.941 47.511 173.163 47.643C173.385 47.775 173.559 47.955 173.685 48.183C173.817 48.405 173.883 48.651 173.883 48.921ZM173.388 48.921C173.388 48.663 173.295 48.444 173.109 48.264C172.923 48.084 172.701 47.994 172.443 47.994C172.275 47.994 172.119 48.036 171.975 48.12C171.831 48.204 171.714 48.318 171.624 48.462C171.54 48.6 171.498 48.753 171.498 48.921C171.498 49.083 171.54 49.236 171.624 49.38C171.714 49.518 171.831 49.629 171.975 49.713C172.119 49.797 172.275 49.839 172.443 49.839C172.701 49.839 172.923 49.752 173.109 49.578C173.295 49.398 173.388 49.179 173.388 48.921Z" fill="#DFDCE1"/>
<path d="M201.244 46.132L201.775 46.078L202.351 51.973L201.82 52.027L201.244 46.132Z" fill="#DFDCE1"/>
<path d="M261.939 48.985C261.699 48.985 261.48 48.925 261.282 48.805C261.09 48.685 260.931 48.523 260.805 48.319C260.685 48.109 260.613 47.875 260.589 47.617L261.12 47.59C261.144 47.83 261.231 48.025 261.381 48.175C261.531 48.319 261.717 48.391 261.939 48.391H262.029C262.179 48.391 262.317 48.358 262.443 48.292C262.575 48.22 262.677 48.124 262.749 48.004C262.821 47.884 262.851 47.755 262.839 47.617L262.695 46.132L263.226 46.078L263.37 47.59C263.394 47.836 263.346 48.067 263.226 48.283C263.106 48.499 262.938 48.67 262.722 48.796C262.506 48.922 262.275 48.985 262.029 48.985H261.939ZM259.563 48.985C259.329 48.985 259.113 48.928 258.915 48.814C258.717 48.7 258.555 48.541 258.429 48.337C258.309 48.127 258.234 47.893 258.204 47.635L258.717 47.563C258.741 47.815 258.828 48.016 258.978 48.166C259.128 48.316 259.317 48.391 259.545 48.391H259.779C259.929 48.391 260.07 48.358 260.202 48.292C260.334 48.22 260.436 48.124 260.508 48.004C260.58 47.884 260.607 47.755 260.589 47.617L260.463 46.339L260.994 46.285L261.12 47.59C261.138 47.836 261.087 48.067 260.967 48.283C260.847 48.499 260.679 48.67 260.463 48.796C260.253 48.922 260.025 48.985 259.779 48.985H259.563ZM258.042 46.132L258.573 46.078L259.149 51.973L258.618 52.027L258.042 46.132Z" fill="#DFDCE1"/>
<path d="M378.303 46.276L376.242 52.027H375.747L373.695 46.276L374.199 46.078L375.99 51.145L377.799 46.078L378.303 46.276Z" fill="#DFDCE1"/>
<path d="M186.744 41.132L187.275 41.078L187.851 46.973L187.32 47.027L186.744 41.132Z" fill="#DFDCE1"/>
<path d="M189.68 52.051L189.833 53.563C189.857 53.809 189.809 54.04 189.689 54.256C189.575 54.472 189.41 54.646 189.194 54.778C188.978 54.904 188.744 54.967 188.492 54.967H188.159C187.925 54.967 187.703 54.91 187.493 54.796C187.289 54.682 187.118 54.523 186.98 54.319C186.848 54.109 186.767 53.878 186.737 53.626L187.259 53.563C187.283 53.821 187.367 54.022 187.511 54.166C187.661 54.31 187.853 54.382 188.087 54.382H188.492C188.648 54.382 188.789 54.349 188.915 54.283C189.047 54.211 189.146 54.118 189.212 54.004C189.284 53.884 189.314 53.755 189.302 53.617L189.149 52.114L189.68 52.051ZM187.16 58.018L186.584 52.114L187.115 52.06L187.691 57.964L187.16 58.018Z" fill="#DFDCE1"/>
<path d="M182.329 49.415H185.119L185.155 49.703L185.119 50H182.329V49.415ZM184.847 49.415H187.637L187.673 49.703L187.637 50H184.847V49.415ZM187.365 49.415H190.155L190.191 49.703L190.155 50H187.365V49.415ZM189.883 49.415H192.673L192.709 49.703L192.673 50H189.883V49.415Z" fill="#DFDCE1"/>
<path d="M221.557 47C221.317 47 221.101 46.946 220.909 46.838C220.717 46.724 220.561 46.568 220.441 46.37C220.327 46.166 220.258 45.938 220.234 45.686L220.765 45.641C220.789 45.875 220.87 46.064 221.008 46.208C221.152 46.346 221.335 46.415 221.557 46.415H221.656C221.878 46.415 222.061 46.343 222.205 46.199C222.355 46.055 222.43 45.875 222.43 45.659C222.43 45.221 222.394 44.885 222.322 44.651C222.25 44.411 222.079 44.117 221.809 43.769C221.539 43.421 221.026 42.827 220.27 41.987C220.096 41.789 219.901 41.573 219.685 41.339L220.081 40.952L221.026 42.005C221.674 42.725 222.124 43.265 222.376 43.625C222.634 43.979 222.796 44.288 222.862 44.552C222.928 44.816 222.961 45.185 222.961 45.659C222.961 45.905 222.904 46.133 222.79 46.343C222.676 46.547 222.517 46.709 222.313 46.829C222.115 46.943 221.896 47 221.656 47H221.557ZM219.352 47C219.112 47 218.89 46.943 218.686 46.829C218.488 46.709 218.329 46.547 218.209 46.343C218.095 46.133 218.038 45.905 218.038 45.659C218.038 45.185 218.065 44.822 218.119 44.57C218.179 44.318 218.32 44.03 218.542 43.706C218.77 43.382 219.16 42.911 219.712 42.293C219.91 42.071 220.108 41.852 220.306 41.636L220.702 42.023C220.594 42.143 220.486 42.26 220.378 42.374C219.754 43.07 219.325 43.574 219.091 43.886C218.863 44.192 218.719 44.456 218.659 44.678C218.599 44.9 218.569 45.227 218.569 45.659C218.569 45.875 218.641 46.055 218.785 46.199C218.935 46.343 219.124 46.415 219.352 46.415H219.451C219.667 46.415 219.85 46.343 220 46.199C220.156 46.049 220.234 45.869 220.234 45.659V45.11H220.765V45.659C220.765 45.905 220.705 46.13 220.585 46.334C220.471 46.538 220.312 46.7 220.108 46.82C219.91 46.94 219.691 47 219.451 47H219.352Z" fill="#DFDCE1"/>
<path d="M222.439 54.985C222.199 54.985 221.98 54.925 221.782 54.805C221.59 54.685 221.431 54.523 221.305 54.319C221.185 54.109 221.113 53.875 221.089 53.617L221.62 53.59C221.644 53.83 221.731 54.025 221.881 54.175C222.031 54.319 222.217 54.391 222.439 54.391H222.529C222.679 54.391 222.817 54.358 222.943 54.292C223.075 54.22 223.177 54.124 223.249 54.004C223.321 53.884 223.351 53.755 223.339 53.617L223.195 52.132L223.726 52.078L223.87 53.59C223.894 53.836 223.846 54.067 223.726 54.283C223.606 54.499 223.438 54.67 223.222 54.796C223.006 54.922 222.775 54.985 222.529 54.985H222.439ZM220.063 54.985C219.829 54.985 219.613 54.928 219.415 54.814C219.217 54.7 219.055 54.541 218.929 54.337C218.809 54.127 218.734 53.893 218.704 53.635L219.217 53.563C219.241 53.815 219.328 54.016 219.478 54.166C219.628 54.316 219.817 54.391 220.045 54.391H220.279C220.429 54.391 220.57 54.358 220.702 54.292C220.834 54.22 220.936 54.124 221.008 54.004C221.08 53.884 221.107 53.755 221.089 53.617L220.963 52.339L221.494 52.285L221.62 53.59C221.638 53.836 221.587 54.067 221.467 54.283C221.347 54.499 221.179 54.67 220.963 54.796C220.753 54.922 220.525 54.985 220.279 54.985H220.063ZM218.542 52.132L219.073 52.078L219.649 57.973L219.118 58.027L218.542 52.132Z" fill="#DFDCE1"/>
<path d="M215.329 49.415H218.119L218.155 49.703L218.119 50H215.329V49.415ZM217.847 49.415H220.637L220.673 49.703L220.637 50H217.847V49.415ZM220.365 49.415H223.155L223.191 49.703L223.155 50H220.365V49.415ZM222.883 49.415H225.673L225.709 49.703L225.673 50H222.883V49.415Z" fill="#DFDCE1"/>
<path d="M302.151 46.051L302.304 47.563C302.328 47.809 302.28 48.04 302.16 48.256C302.046 48.472 301.881 48.646 301.665 48.778C301.449 48.904 301.215 48.967 300.963 48.967H300.63C300.396 48.967 300.174 48.91 299.964 48.796C299.76 48.682 299.589 48.523 299.451 48.319C299.319 48.109 299.238 47.878 299.208 47.626L299.73 47.563C299.754 47.821 299.838 48.022 299.982 48.166C300.132 48.31 300.324 48.382 300.558 48.382H300.963C301.119 48.382 301.26 48.349 301.386 48.283C301.518 48.211 301.617 48.118 301.683 48.004C301.755 47.884 301.785 47.755 301.773 47.617L301.62 46.114L302.151 46.051ZM299.631 52.018L299.055 46.114L299.586 46.06L300.162 51.964L299.631 52.018ZM305.902 49.921C305.902 50.185 305.836 50.431 305.704 50.659C305.578 50.887 305.404 51.067 305.182 51.199C304.96 51.331 304.72 51.397 304.462 51.397C304.198 51.397 303.955 51.331 303.733 51.199C303.511 51.067 303.334 50.887 303.202 50.659C303.076 50.431 303.013 50.185 303.013 49.921C303.013 49.651 303.076 49.405 303.202 49.183C303.334 48.955 303.511 48.775 303.733 48.643C303.955 48.511 304.198 48.445 304.462 48.445C304.72 48.445 304.96 48.511 305.182 48.643C305.404 48.775 305.578 48.955 305.704 49.183C305.836 49.405 305.902 49.651 305.902 49.921ZM305.407 49.921C305.407 49.663 305.314 49.444 305.128 49.264C304.942 49.084 304.72 48.994 304.462 48.994C304.294 48.994 304.138 49.036 303.994 49.12C303.85 49.204 303.733 49.318 303.643 49.462C303.559 49.6 303.517 49.753 303.517 49.921C303.517 50.083 303.559 50.236 303.643 50.38C303.733 50.518 303.85 50.629 303.994 50.713C304.138 50.797 304.294 50.839 304.462 50.839C304.72 50.839 304.942 50.752 305.128 50.578C305.314 50.398 305.407 50.179 305.407 49.921Z" fill="#DFDCE1"/>
<path d="M296.538 44.3845H310V43H296.032L296 43.1406H295.973L294.353 50.7166L293.559 47.5641H292V48.6606H292.945L293.881 52H294.886L296.538 44.3845Z" fill="#DFDCE1"/>
</g>
</svg>
