<svg width="189" height="33" viewBox="0 0 189 33" fill="none" xmlns="http://www.w3.org/2000/svg">
<g style="mix-blend-mode:difference" clip-path="url(#clip0_1686_168)">
<path d="M185.354 11.3536C185.549 11.1583 185.549 10.8417 185.354 10.6465L182.172 7.46448C181.976 7.26922 181.66 7.26922 181.464 7.46448C181.269 7.65974 181.269 7.97633 181.464 8.17159L184.293 11L181.464 13.8284C181.269 14.0237 181.269 14.3403 181.464 14.5355C181.66 14.7308 181.976 14.7308 182.172 14.5355L185.354 11.3536ZM4 11.5L185 11.5L185 10.5L4 10.5L4 11.5Z" fill="white" fill-opacity="0.69"/>
<line x1="21.5" y1="6" x2="21.5" y2="17" stroke="white" stroke-opacity="0.51"/>
<line x1="50.5" y1="6" x2="50.5" y2="17" stroke="white" stroke-opacity="0.51"/>
<line x1="79.5" y1="6" x2="79.5" y2="17" stroke="white" stroke-opacity="0.51"/>
<line x1="108.5" y1="6" x2="108.5" y2="17" stroke="white" stroke-opacity="0.51"/>
<line x1="137.5" y1="6" x2="137.5" y2="17" stroke="white" stroke-opacity="0.51"/>
<line x1="166.5" y1="6" x2="166.5" y2="17" stroke="white" stroke-opacity="0.51"/>
<rect x="26" y="9" width="135" height="4" fill="#DE5959"/>
<circle cx="21" cy="11" r="5" fill="#DE5959" stroke="#DE5959" stroke-width="2"/>
<circle cx="166.5" cy="11" r="5" fill="#070707" stroke="#DE5959" stroke-width="2"/>
<path d="M16.3343 24.94H18.5483V25.489H16.3343V24.94ZM23.251 24.985C23.011 24.985 22.792 24.925 22.594 24.805C22.402 24.685 22.243 24.523 22.117 24.319C21.997 24.109 21.925 23.875 21.901 23.617L22.432 23.59C22.456 23.83 22.543 24.025 22.693 24.175C22.843 24.319 23.029 24.391 23.251 24.391H23.341C23.491 24.391 23.629 24.358 23.755 24.292C23.887 24.22 23.989 24.124 24.061 24.004C24.133 23.884 24.163 23.755 24.151 23.617L24.007 22.132L24.538 22.078L24.682 23.59C24.706 23.836 24.658 24.067 24.538 24.283C24.418 24.499 24.25 24.67 24.034 24.796C23.818 24.922 23.587 24.985 23.341 24.985H23.251ZM20.875 24.985C20.641 24.985 20.425 24.928 20.227 24.814C20.029 24.7 19.867 24.541 19.741 24.337C19.621 24.127 19.546 23.893 19.516 23.635L20.029 23.563C20.053 23.815 20.14 24.016 20.29 24.166C20.44 24.316 20.629 24.391 20.857 24.391H21.091C21.241 24.391 21.382 24.358 21.514 24.292C21.646 24.22 21.748 24.124 21.82 24.004C21.892 23.884 21.919 23.755 21.901 23.617L21.775 22.339L22.306 22.285L22.432 23.59C22.45 23.836 22.399 24.067 22.279 24.283C22.159 24.499 21.991 24.67 21.775 24.796C21.565 24.922 21.337 24.985 21.091 24.985H20.875ZM19.354 22.132L19.885 22.078L20.461 27.973L19.93 28.027L19.354 22.132Z" fill="#DFDCE1"/>
<path d="M109.883 25.921C109.883 26.185 109.817 26.431 109.685 26.659C109.559 26.887 109.385 27.067 109.163 27.199C108.941 27.331 108.701 27.397 108.443 27.397C108.179 27.397 107.936 27.331 107.714 27.199C107.492 27.067 107.315 26.887 107.183 26.659C107.057 26.431 106.994 26.185 106.994 25.921C106.994 25.651 107.057 25.405 107.183 25.183C107.315 24.955 107.492 24.775 107.714 24.643C107.936 24.511 108.179 24.445 108.443 24.445C108.701 24.445 108.941 24.511 109.163 24.643C109.385 24.775 109.559 24.955 109.685 25.183C109.817 25.405 109.883 25.651 109.883 25.921ZM109.388 25.921C109.388 25.663 109.295 25.444 109.109 25.264C108.923 25.084 108.701 24.994 108.443 24.994C108.275 24.994 108.119 25.036 107.975 25.12C107.831 25.204 107.714 25.318 107.624 25.462C107.54 25.6 107.498 25.753 107.498 25.921C107.498 26.083 107.54 26.236 107.624 26.38C107.714 26.518 107.831 26.629 107.975 26.713C108.119 26.797 108.275 26.839 108.443 26.839C108.701 26.839 108.923 26.752 109.109 26.578C109.295 26.398 109.388 26.179 109.388 25.921Z" fill="#DFDCE1"/>
<path d="M137.244 23.132L137.775 23.078L138.351 28.973L137.82 29.027L137.244 23.132Z" fill="#DFDCE1"/>
<path d="M169.18 23.051L169.333 24.563C169.357 24.809 169.309 25.04 169.189 25.256C169.075 25.472 168.91 25.646 168.694 25.778C168.478 25.904 168.244 25.967 167.992 25.967H167.659C167.425 25.967 167.203 25.91 166.993 25.796C166.789 25.682 166.618 25.523 166.48 25.319C166.348 25.109 166.267 24.878 166.237 24.626L166.759 24.563C166.783 24.821 166.867 25.022 167.011 25.166C167.161 25.31 167.353 25.382 167.587 25.382H167.992C168.148 25.382 168.289 25.349 168.415 25.283C168.547 25.211 168.646 25.118 168.712 25.004C168.784 24.884 168.814 24.755 168.802 24.617L168.649 23.114L169.18 23.051ZM166.66 29.018L166.084 23.114L166.615 23.06L167.191 28.964L166.66 29.018Z" fill="#DFDCE1"/>
</g>
<defs>
<clipPath id="clip0_1686_168">
<rect width="189" height="33" fill="white"/>
</clipPath>
</defs>
</svg>
