<svg width="189" height="33" viewBox="0 0 189 33" fill="none" xmlns="http://www.w3.org/2000/svg">
<g style="mix-blend-mode:difference" clip-path="url(#clip0_1698_331)">
<path d="M185.354 11.3536C185.549 11.1583 185.549 10.8417 185.354 10.6465L182.172 7.46448C181.976 7.26922 181.66 7.26922 181.464 7.46448C181.269 7.65974 181.269 7.97633 181.464 8.17159L184.293 11L181.464 13.8284C181.269 14.0237 181.269 14.3403 181.464 14.5355C181.66 14.7308 181.976 14.7308 182.172 14.5355L185.354 11.3536ZM4 11.5L185 11.5L185 10.5L4 10.5L4 11.5Z" fill="white" fill-opacity="0.69"/>
<path d="M97.6667 11C97.6667 13.9455 100.054 16.3333 103 16.3333C105.946 16.3333 108.333 13.9455 108.333 11C108.333 8.05448 105.946 5.66667 103 5.66667C100.054 5.66667 97.6667 8.05448 97.6667 11ZM4 12H103V10H4V12Z" fill="#DE5959"/>
<path d="M104.299 27C104.263 26.916 104.233 26.805 104.209 26.667C104.185 26.523 104.173 26.379 104.173 26.235C103.987 26.517 103.756 26.73 103.48 26.874C103.204 27.018 102.868 27.09 102.472 27.09C102.178 27.09 101.917 27.036 101.689 26.928C101.461 26.814 101.284 26.658 101.158 26.46C101.038 26.256 100.978 26.025 100.978 25.767C100.978 25.461 101.059 25.203 101.221 24.993C101.389 24.783 101.629 24.624 101.941 24.516C102.259 24.402 102.643 24.345 103.093 24.345H104.146V23.697C104.146 23.337 104.038 23.058 103.822 22.86C103.612 22.656 103.309 22.554 102.913 22.554C102.667 22.554 102.448 22.602 102.256 22.698C102.064 22.788 101.911 22.911 101.797 23.067C101.689 23.223 101.635 23.397 101.635 23.589H101.095C101.095 23.325 101.176 23.085 101.338 22.869C101.5 22.647 101.719 22.473 101.995 22.347C102.277 22.221 102.589 22.158 102.931 22.158C103.291 22.158 103.603 22.218 103.867 22.338C104.131 22.458 104.335 22.632 104.479 22.86C104.623 23.088 104.695 23.358 104.695 23.67V25.911C104.695 26.181 104.704 26.397 104.722 26.559C104.746 26.721 104.785 26.856 104.839 26.964V27H104.299ZM102.562 26.685C102.934 26.685 103.243 26.619 103.489 26.487C103.741 26.355 103.96 26.142 104.146 25.848V24.66H103.156C102.658 24.66 102.259 24.747 101.959 24.921C101.665 25.095 101.518 25.368 101.518 25.74C101.518 26.022 101.611 26.25 101.797 26.424C101.989 26.598 102.244 26.685 102.562 26.685Z" fill="#DFDCE1"/>
</g>
<defs>
<clipPath id="clip0_1698_331">
<rect width="189" height="33" fill="white"/>
</clipPath>
</defs>
</svg>
