<svg width="189" height="33" viewBox="0 0 189 33" fill="none" xmlns="http://www.w3.org/2000/svg">
<g style="mix-blend-mode:difference" clip-path="url(#clip0_1691_263)">
<path d="M185.354 11.3536C185.549 11.1583 185.549 10.8417 185.354 10.6465L182.172 7.46448C181.976 7.26922 181.66 7.26922 181.464 7.46448C181.269 7.65974 181.269 7.97633 181.464 8.17159L184.293 11L181.464 13.8284C181.269 14.0237 181.269 14.3403 181.464 14.5355C181.66 14.7308 181.976 14.7308 182.172 14.5355L185.354 11.3536ZM4 11.5L185 11.5L185 10.5L4 10.5L4 11.5Z" fill="white" fill-opacity="0.69"/>
<rect x="26" y="9" width="135" height="4" fill="#DE5959"/>
<circle cx="21" cy="11" r="5" fill="#DE5959" stroke="#DE5959" stroke-width="2"/>
<circle cx="166.5" cy="11" r="5" fill="#DE5959" stroke="#DE5959" stroke-width="2"/>
<path d="M21.7992 28C21.7632 27.916 21.7332 27.805 21.7092 27.667C21.6852 27.523 21.6732 27.379 21.6732 27.235C21.4872 27.517 21.2562 27.73 20.9802 27.874C20.7042 28.018 20.3682 28.09 19.9722 28.09C19.6782 28.09 19.4172 28.036 19.1892 27.928C18.9612 27.814 18.7842 27.658 18.6582 27.46C18.5382 27.256 18.4782 27.025 18.4782 26.767C18.4782 26.461 18.5592 26.203 18.7212 25.993C18.8892 25.783 19.1292 25.624 19.4412 25.516C19.7592 25.402 20.1432 25.345 20.5932 25.345H21.6462V24.697C21.6462 24.337 21.5382 24.058 21.3222 23.86C21.1122 23.656 20.8092 23.554 20.4132 23.554C20.1672 23.554 19.9482 23.602 19.7562 23.698C19.5642 23.788 19.4112 23.911 19.2972 24.067C19.1892 24.223 19.1352 24.397 19.1352 24.589H18.5952C18.5952 24.325 18.6762 24.085 18.8382 23.869C19.0002 23.647 19.2192 23.473 19.4952 23.347C19.7772 23.221 20.0892 23.158 20.4312 23.158C20.7912 23.158 21.1032 23.218 21.3672 23.338C21.6312 23.458 21.8352 23.632 21.9792 23.86C22.1232 24.088 22.1952 24.358 22.1952 24.67V26.911C22.1952 27.181 22.2042 27.397 22.2222 27.559C22.2462 27.721 22.2852 27.856 22.3392 27.964V28H21.7992ZM20.0622 27.685C20.4342 27.685 20.7432 27.619 20.9892 27.487C21.2412 27.355 21.4602 27.142 21.6462 26.848V25.66H20.6562C20.1582 25.66 19.7592 25.747 19.4592 25.921C19.1652 26.095 19.0182 26.368 19.0182 26.74C19.0182 27.022 19.1112 27.25 19.2972 27.424C19.4892 27.598 19.7442 27.685 20.0622 27.685Z" fill="#DFDCE1"/>
<path d="M167.739 29.063C167.391 29.063 167.085 28.985 166.821 28.829C166.557 28.673 166.35 28.451 166.2 28.163L166.182 29H165.687V22.286H166.227V25.04C166.371 24.764 166.572 24.554 166.83 24.41C167.094 24.26 167.397 24.185 167.739 24.185C168.117 24.185 168.438 24.278 168.702 24.464C168.972 24.65 169.176 24.923 169.314 25.283C169.452 25.637 169.521 26.069 169.521 26.579V26.66C169.521 27.17 169.449 27.605 169.305 27.965C169.167 28.325 168.963 28.598 168.693 28.784C168.429 28.97 168.111 29.063 167.739 29.063ZM167.622 28.631C168.066 28.631 168.402 28.457 168.63 28.109C168.858 27.761 168.972 27.257 168.972 26.597C168.972 25.949 168.855 25.457 168.621 25.121C168.387 24.785 168.051 24.617 167.613 24.617C167.289 24.617 167.004 24.698 166.758 24.86C166.518 25.016 166.341 25.247 166.227 25.553V27.686C166.347 27.992 166.524 28.226 166.758 28.388C166.992 28.55 167.28 28.631 167.622 28.631Z" fill="#DFDCE1"/>
</g>
<defs>
<clipPath id="clip0_1691_263">
<rect width="189" height="33" fill="white"/>
</clipPath>
</defs>
</svg>
