<svg width="245" height="33" viewBox="0 0 245 33" fill="none" xmlns="http://www.w3.org/2000/svg">
<g style="mix-blend-mode:difference" clip-path="url(#clip0_1708_360)">
<path d="M237.354 11.3535C237.549 11.1583 237.549 10.8417 237.354 10.6464L234.172 7.46445C233.976 7.26918 233.66 7.26918 233.464 7.46445C233.269 7.65971 233.269 7.97629 233.464 8.17155L236.293 11L233.464 13.8284C233.269 14.0237 233.269 14.3403 233.464 14.5355C233.66 14.7308 233.976 14.7308 234.172 14.5355L237.354 11.3535ZM10 11.5L237 11.5L237 10.5L10 10.5L10 11.5Z" fill="white" fill-opacity="0.69"/>
<line x1="17.5" y1="6" x2="17.5" y2="15" stroke="white" stroke-opacity="0.51"/>
<line x1="46.5" y1="6" x2="46.5" y2="15" stroke="white" stroke-opacity="0.51"/>
<line x1="75.5" y1="6" x2="75.5" y2="15" stroke="white" stroke-opacity="0.51"/>
<line x1="104.5" y1="6" x2="104.5" y2="15" stroke="white" stroke-opacity="0.51"/>
<line x1="133.5" y1="6" x2="133.5" y2="15" stroke="white" stroke-opacity="0.51"/>
<line x1="162.5" y1="6" x2="162.5" y2="15" stroke="white" stroke-opacity="0.51"/>
<line x1="191.5" y1="6" x2="191.5" y2="15" stroke="white" stroke-opacity="0.51"/>
<line x1="220.5" y1="6" x2="220.5" y2="15" stroke="white" stroke-opacity="0.51"/>
<path d="M104.502 22.698C104.79 22.698 105.066 22.779 105.33 22.941C105.594 23.103 105.807 23.313 105.969 23.571C106.131 23.829 106.212 24.096 106.212 24.372C106.212 24.648 106.131 24.915 105.969 25.173C105.807 25.431 105.594 25.641 105.33 25.803C105.066 25.965 104.79 26.046 104.502 26.046C104.214 26.046 103.938 25.965 103.674 25.803C103.41 25.641 103.197 25.431 103.035 25.173C102.873 24.915 102.792 24.648 102.792 24.372C102.792 24.096 102.873 23.829 103.035 23.571C103.197 23.313 103.41 23.103 103.674 22.941C103.938 22.779 104.214 22.698 104.502 22.698ZM104.502 25.569C104.7 25.569 104.895 25.512 105.087 25.398C105.279 25.278 105.435 25.125 105.555 24.939C105.675 24.753 105.735 24.564 105.735 24.372C105.735 24.174 105.675 23.985 105.555 23.805C105.435 23.619 105.279 23.469 105.087 23.355C104.895 23.235 104.7 23.175 104.502 23.175C104.31 23.175 104.118 23.235 103.926 23.355C103.734 23.469 103.575 23.619 103.449 23.805C103.329 23.985 103.269 24.174 103.269 24.372C103.269 24.564 103.329 24.753 103.449 24.939C103.575 25.125 103.734 25.278 103.926 25.398C104.118 25.512 104.31 25.569 104.502 25.569Z" fill="#DFDCE1"/>
<path d="M133.84 25.561C133.84 24.967 133.81 24.454 133.75 24.022C133.69 23.584 133.57 23.053 133.39 22.429L133.858 22.249C134.05 22.867 134.176 23.401 134.236 23.851C134.302 24.295 134.335 24.868 134.335 25.57V28H133.84V25.561Z" fill="#DFDCE1"/>
</g>
<defs>
<clipPath id="clip0_1708_360">
<rect width="245" height="33" fill="white"/>
</clipPath>
</defs>
</svg>
