<svg width="773" height="672" viewBox="0 0 773 672" fill="none" xmlns="http://www.w3.org/2000/svg">
<g clip-path="url(#clip0_1576_80)">
<path d="M54.9597 75.575L52.9997 81H48.9747L56.7797 59.58H61.0147L68.8197 81H64.8297L62.8697 75.575H54.9597ZM62.3097 72.6L58.9147 63.465L55.4847 72.6H62.3097ZM86.366 81C84.2893 81 82.7143 80.4633 81.641 79.39C80.5676 78.2933 80.031 76.7533 80.031 74.77V69.38H83.636V74.28C83.636 75.26 83.8693 75.995 84.336 76.485C84.8026 76.975 85.5376 77.22 86.541 77.22H96.166C96.8893 77.22 97.3793 77.1967 97.636 77.15C96.2826 76.5667 95.3143 75.9017 94.731 75.155C94.171 74.385 93.891 73.405 93.891 72.215C93.891 70.9317 94.1826 69.765 94.766 68.715C95.3726 67.665 96.1893 66.8483 97.216 66.265C98.266 65.6583 99.4443 65.355 100.751 65.355C102.968 65.355 104.683 66.0317 105.896 67.385C107.133 68.7383 107.751 70.605 107.751 72.985V74.175C107.751 76.4617 106.969 78.1767 105.406 79.32C103.866 80.44 101.591 81 98.581 81H86.366ZM103.096 76.695C103.773 76.0883 104.111 75.155 104.111 73.895V73.195C104.111 70.395 102.979 68.995 100.716 68.995C99.8293 68.995 99.071 69.31 98.441 69.94C97.8343 70.5467 97.531 71.2933 97.531 72.18C97.531 72.8567 97.6943 73.44 98.021 73.93C98.371 74.3967 98.9426 74.8517 99.736 75.295C100.529 75.7383 101.649 76.205 103.096 76.695ZM98.616 61.89V58.46H102.816V61.89H98.616ZM117.827 74.77C117.827 76.4033 118.714 77.22 120.487 77.22H120.977C121.21 77.22 121.327 77.8733 121.327 79.18C121.327 80.3933 121.21 81 120.977 81H120.487C119.904 81 119.367 80.9183 118.877 80.755C118.41 80.5683 118.06 80.3233 117.827 80.02V80.23C117.78 82.05 117.36 83.66 116.567 85.06C115.797 86.46 114.712 87.545 113.312 88.315C111.935 89.085 110.325 89.47 108.482 89.47H105.857L105.542 85.69H108.447C110.244 85.69 111.644 85.1767 112.647 84.15C113.674 83.1467 114.187 81.7233 114.187 79.88V69.38H117.827V74.77ZM122.789 77.22C124.562 77.22 126.02 77.0917 127.164 76.835C128.33 76.5783 129.52 76.1 130.734 75.4L135.144 72.88C134.84 71.7833 134.409 71.0367 133.849 70.64C133.289 70.22 132.449 70.01 131.329 70.01H123.244L123.699 66.23H131.959C133.405 66.23 134.584 66.475 135.494 66.965C136.404 67.4317 137.162 68.225 137.769 69.345C138.375 70.465 138.912 72.04 139.379 74.07L132.414 78.445C130.85 79.425 129.345 80.1017 127.899 80.475C126.475 80.825 124.714 81 122.614 81H120.269C120.035 81 119.919 80.3933 119.919 79.18C119.919 77.8733 120.035 77.22 120.269 77.22H122.789ZM157.621 77.22C158.345 77.22 158.916 77.08 159.336 76.8C159.78 76.4967 160.001 76.1 160.001 75.61C160.001 75.19 159.826 74.5017 159.476 73.545C159.15 72.565 158.216 69.9517 156.676 65.705C156.606 65.5417 156.536 65.3667 156.466 65.18C156.396 64.97 156.315 64.7483 156.221 64.515L159.581 62.94L163.641 74.56C163.991 75.54 164.365 76.2283 164.761 76.625C165.181 77.0217 165.765 77.22 166.511 77.22H167.316C167.55 77.22 167.666 77.8733 167.666 79.18C167.666 79.9733 167.631 80.475 167.561 80.685C167.515 80.895 167.433 81 167.316 81H166.371C165.298 81 164.411 80.8367 163.711 80.51C163.011 80.1833 162.451 79.6583 162.031 78.935C161.611 79.6583 161.04 80.1833 160.316 80.51C159.593 80.8367 158.695 81 157.621 81H149.641L149.291 77.22H157.621ZM176.156 77.22C177.043 77.22 177.731 77.0683 178.221 76.765C178.711 76.4383 178.956 76.0067 178.956 75.47C178.956 75.0267 178.851 74.6183 178.641 74.245C178.431 73.8717 178.093 73.44 177.626 72.95L169.716 65.145V62.1L182.666 57.025L183.751 60.49L174.056 64.2L180.356 70.57C181.826 72.0167 182.561 73.685 182.561 75.575C182.561 77.185 182.001 78.4917 180.881 79.495C179.761 80.4983 178.186 81 176.156 81H166.601C166.368 81 166.251 80.3933 166.251 79.18C166.251 77.8733 166.368 77.22 166.601 77.22H176.156Z" fill="white"/>
<rect x="24" y="174" width="80" height="80" stroke="#70DBAE" stroke-width="3"/>
<path d="M64.0041 203.775C65.8374 203.775 67.5974 204.288 69.2841 205.315C71.0074 206.342 72.3824 207.698 73.4091 209.385C74.4357 211.072 74.9491 212.832 74.9491 214.665C74.9491 216.498 74.4357 218.277 73.4091 220C72.3824 221.687 71.0074 223.043 69.2841 224.07C67.5974 225.097 65.8374 225.61 64.0041 225.61C62.1707 225.61 60.3924 225.097 58.6691 224.07C56.9824 223.043 55.6257 221.687 54.5991 220C53.5724 218.277 53.0591 216.498 53.0591 214.665C53.0591 212.832 53.5724 211.072 54.5991 209.385C55.6257 207.698 56.9824 206.342 58.6691 205.315C60.3924 204.288 62.1707 203.775 64.0041 203.775ZM64.0041 220.165C64.8841 220.165 65.7457 219.908 66.5891 219.395C67.4691 218.845 68.1658 218.148 68.6791 217.305C69.2291 216.425 69.5041 215.545 69.5041 214.665C69.5041 213.785 69.2291 212.923 68.6791 212.08C68.1658 211.237 67.4691 210.558 66.5891 210.045C65.7457 209.532 64.8841 209.275 64.0041 209.275C63.1241 209.275 62.2441 209.55 61.3641 210.1C60.5207 210.613 59.8241 211.292 59.2741 212.135C58.7607 212.942 58.5041 213.785 58.5041 214.665C58.5041 215.545 58.7607 216.425 59.2741 217.305C59.8241 218.148 60.5207 218.845 61.3641 219.395C62.2441 219.908 63.1241 220.165 64.0041 220.165Z" fill="white"/>
<rect x="104" y="174" width="80" height="80" stroke="#70DBAE" stroke-width="3"/>
<path d="M141.718 216.7C141.718 213.107 141.535 210.008 141.168 207.405C140.802 204.765 140.068 201.612 138.968 197.945L144.468 196.02C145.642 199.723 146.412 202.968 146.778 205.755C147.182 208.542 147.383 212.172 147.383 216.645V231H141.718V216.7Z" fill="white"/>
<rect x="184" y="174" width="80" height="80" stroke="#70DBAE" stroke-width="3"/>
<path d="M224.004 203.775C225.837 203.775 227.597 204.288 229.284 205.315C231.007 206.342 232.382 207.698 233.409 209.385C234.436 211.072 234.949 212.832 234.949 214.665C234.949 216.498 234.436 218.277 233.409 220C232.382 221.687 231.007 223.043 229.284 224.07C227.597 225.097 225.837 225.61 224.004 225.61C222.171 225.61 220.392 225.097 218.669 224.07C216.982 223.043 215.626 221.687 214.599 220C213.572 218.277 213.059 216.498 213.059 214.665C213.059 212.832 213.572 211.072 214.599 209.385C215.626 207.698 216.982 206.342 218.669 205.315C220.392 204.288 222.171 203.775 224.004 203.775ZM224.004 220.165C224.884 220.165 225.746 219.908 226.589 219.395C227.469 218.845 228.166 218.148 228.679 217.305C229.229 216.425 229.504 215.545 229.504 214.665C229.504 213.785 229.229 212.923 228.679 212.08C228.166 211.237 227.469 210.558 226.589 210.045C225.746 209.532 224.884 209.275 224.004 209.275C223.124 209.275 222.244 209.55 221.364 210.1C220.521 210.613 219.824 211.292 219.274 212.135C218.761 212.942 218.504 213.785 218.504 214.665C218.504 215.545 218.761 216.425 219.274 217.305C219.824 218.148 220.521 218.845 221.364 219.395C222.244 219.908 223.124 220.165 224.004 220.165Z" fill="white"/>
<rect x="264" y="174" width="80" height="80" stroke="#70DBAE" stroke-width="3"/>
<path d="M304.004 203.775C305.837 203.775 307.597 204.288 309.284 205.315C311.007 206.342 312.382 207.698 313.409 209.385C314.436 211.072 314.949 212.832 314.949 214.665C314.949 216.498 314.436 218.277 313.409 220C312.382 221.687 311.007 223.043 309.284 224.07C307.597 225.097 305.837 225.61 304.004 225.61C302.171 225.61 300.392 225.097 298.669 224.07C296.982 223.043 295.626 221.687 294.599 220C293.572 218.277 293.059 216.498 293.059 214.665C293.059 212.832 293.572 211.072 294.599 209.385C295.626 207.698 296.982 206.342 298.669 205.315C300.392 204.288 302.171 203.775 304.004 203.775ZM304.004 220.165C304.884 220.165 305.746 219.908 306.589 219.395C307.469 218.845 308.166 218.148 308.679 217.305C309.229 216.425 309.504 215.545 309.504 214.665C309.504 213.785 309.229 212.923 308.679 212.08C308.166 211.237 307.469 210.558 306.589 210.045C305.746 209.532 304.884 209.275 304.004 209.275C303.124 209.275 302.244 209.55 301.364 210.1C300.521 210.613 299.824 211.292 299.274 212.135C298.761 212.942 298.504 213.785 298.504 214.665C298.504 215.545 298.761 216.425 299.274 217.305C299.824 218.148 300.521 218.845 301.364 219.395C302.244 219.908 303.124 220.165 304.004 220.165Z" fill="white"/>
<rect x="344" y="174" width="80" height="80" stroke="#70DBAE" stroke-width="3"/>
<path d="M384.004 203.775C385.837 203.775 387.597 204.288 389.284 205.315C391.007 206.342 392.382 207.698 393.409 209.385C394.436 211.072 394.949 212.832 394.949 214.665C394.949 216.498 394.436 218.277 393.409 220C392.382 221.687 391.007 223.043 389.284 224.07C387.597 225.097 385.837 225.61 384.004 225.61C382.171 225.61 380.392 225.097 378.669 224.07C376.982 223.043 375.626 221.687 374.599 220C373.572 218.277 373.059 216.498 373.059 214.665C373.059 212.832 373.572 211.072 374.599 209.385C375.626 207.698 376.982 206.342 378.669 205.315C380.392 204.288 382.171 203.775 384.004 203.775ZM384.004 220.165C384.884 220.165 385.746 219.908 386.589 219.395C387.469 218.845 388.166 218.148 388.679 217.305C389.229 216.425 389.504 215.545 389.504 214.665C389.504 213.785 389.229 212.923 388.679 212.08C388.166 211.237 387.469 210.558 386.589 210.045C385.746 209.532 384.884 209.275 384.004 209.275C383.124 209.275 382.244 209.55 381.364 210.1C380.521 210.613 379.824 211.292 379.274 212.135C378.761 212.942 378.504 213.785 378.504 214.665C378.504 215.545 378.761 216.425 379.274 217.305C379.824 218.148 380.521 218.845 381.364 219.395C382.244 219.908 383.124 220.165 384.004 220.165Z" fill="white"/>
<rect x="424" y="174" width="80" height="80" stroke="#70DBAE" stroke-width="3"/>
<path d="M464.004 203.775C465.837 203.775 467.597 204.288 469.284 205.315C471.007 206.342 472.382 207.698 473.409 209.385C474.436 211.072 474.949 212.832 474.949 214.665C474.949 216.498 474.436 218.277 473.409 220C472.382 221.687 471.007 223.043 469.284 224.07C467.597 225.097 465.837 225.61 464.004 225.61C462.171 225.61 460.392 225.097 458.669 224.07C456.982 223.043 455.626 221.687 454.599 220C453.572 218.277 453.059 216.498 453.059 214.665C453.059 212.832 453.572 211.072 454.599 209.385C455.626 207.698 456.982 206.342 458.669 205.315C460.392 204.288 462.171 203.775 464.004 203.775ZM464.004 220.165C464.884 220.165 465.746 219.908 466.589 219.395C467.469 218.845 468.166 218.148 468.679 217.305C469.229 216.425 469.504 215.545 469.504 214.665C469.504 213.785 469.229 212.923 468.679 212.08C468.166 211.237 467.469 210.558 466.589 210.045C465.746 209.532 464.884 209.275 464.004 209.275C463.124 209.275 462.244 209.55 461.364 210.1C460.521 210.613 459.824 211.292 459.274 212.135C458.761 212.942 458.504 213.785 458.504 214.665C458.504 215.545 458.761 216.425 459.274 217.305C459.824 218.148 460.521 218.845 461.364 219.395C462.244 219.908 463.124 220.165 464.004 220.165Z" fill="white"/>
<rect x="504" y="174" width="80" height="80" stroke="#70DBAE" stroke-width="3"/>
<path d="M544.004 203.775C545.837 203.775 547.597 204.288 549.284 205.315C551.007 206.342 552.382 207.698 553.409 209.385C554.436 211.072 554.949 212.832 554.949 214.665C554.949 216.498 554.436 218.277 553.409 220C552.382 221.687 551.007 223.043 549.284 224.07C547.597 225.097 545.837 225.61 544.004 225.61C542.171 225.61 540.392 225.097 538.669 224.07C536.982 223.043 535.626 221.687 534.599 220C533.572 218.277 533.059 216.498 533.059 214.665C533.059 212.832 533.572 211.072 534.599 209.385C535.626 207.698 536.982 206.342 538.669 205.315C540.392 204.288 542.171 203.775 544.004 203.775ZM544.004 220.165C544.884 220.165 545.746 219.908 546.589 219.395C547.469 218.845 548.166 218.148 548.679 217.305C549.229 216.425 549.504 215.545 549.504 214.665C549.504 213.785 549.229 212.923 548.679 212.08C548.166 211.237 547.469 210.558 546.589 210.045C545.746 209.532 544.884 209.275 544.004 209.275C543.124 209.275 542.244 209.55 541.364 210.1C540.521 210.613 539.824 211.292 539.274 212.135C538.761 212.942 538.504 213.785 538.504 214.665C538.504 215.545 538.761 216.425 539.274 217.305C539.824 218.148 540.521 218.845 541.364 219.395C542.244 219.908 543.124 220.165 544.004 220.165Z" fill="white"/>
<rect x="584" y="174" width="80" height="80" stroke="#70DBAE" stroke-width="3"/>
<path d="M624.004 203.775C625.837 203.775 627.597 204.288 629.284 205.315C631.007 206.342 632.382 207.698 633.409 209.385C634.436 211.072 634.949 212.832 634.949 214.665C634.949 216.498 634.436 218.277 633.409 220C632.382 221.687 631.007 223.043 629.284 224.07C627.597 225.097 625.837 225.61 624.004 225.61C622.171 225.61 620.392 225.097 618.669 224.07C616.982 223.043 615.626 221.687 614.599 220C613.572 218.277 613.059 216.498 613.059 214.665C613.059 212.832 613.572 211.072 614.599 209.385C615.626 207.698 616.982 206.342 618.669 205.315C620.392 204.288 622.171 203.775 624.004 203.775ZM624.004 220.165C624.884 220.165 625.746 219.908 626.589 219.395C627.469 218.845 628.166 218.148 628.679 217.305C629.229 216.425 629.504 215.545 629.504 214.665C629.504 213.785 629.229 212.923 628.679 212.08C628.166 211.237 627.469 210.558 626.589 210.045C625.746 209.532 624.884 209.275 624.004 209.275C623.124 209.275 622.244 209.55 621.364 210.1C620.521 210.613 619.824 211.292 619.274 212.135C618.761 212.942 618.504 213.785 618.504 214.665C618.504 215.545 618.761 216.425 619.274 217.305C619.824 218.148 620.521 218.845 621.364 219.395C622.244 219.908 623.124 220.165 624.004 220.165Z" fill="white"/>
<rect x="664" y="174" width="80" height="80" stroke="#70DBAE" stroke-width="3"/>
<path d="M701.718 216.7C701.718 213.107 701.535 210.008 701.168 207.405C700.802 204.765 700.068 201.612 698.968 197.945L704.468 196.02C705.642 199.723 706.412 202.968 706.778 205.755C707.182 208.542 707.383 212.172 707.383 216.645V231H701.718V216.7Z" fill="white"/>
<path d="M24 295.381V268H24.9997V294.754L745 295.376V268H746V296H745V295.998L24.9997 295.377V295.381H24Z" fill="#C15DFF" stroke="#C15DFF" stroke-width="2"/>
<path d="M664 111.73V144H664.114V112.468L745.886 111.736V144H746V111H745.886V111.002L664.114 111.735V111.73H664Z" fill="#C15DFF" stroke="#C15DFF" stroke-width="2"/>
<path d="M367.584 339.22C368.331 339.22 368.926 339.033 369.369 338.66C369.836 338.263 370.069 337.727 370.069 337.05V331.38H373.709V336.875C373.709 338.438 374.514 339.22 376.124 339.22H377.314C377.547 339.22 377.664 339.873 377.664 341.18C377.664 342.393 377.547 343 377.314 343H375.984C373.907 343 372.531 342.37 371.854 341.11C371.037 342.37 369.614 343 367.584 343H355.579C353.502 343 351.927 342.463 350.854 341.39C349.781 340.293 349.244 338.753 349.244 336.77V331.38H352.849V336.28C352.849 337.26 353.082 337.995 353.549 338.485C354.016 338.975 354.751 339.22 355.754 339.22H367.584ZM366.219 325.36V328.72H356.699V325.36H366.219ZM386.238 337.12C386.238 338.963 385.689 340.41 384.593 341.46C383.496 342.487 382.026 343 380.183 343H376.613C376.379 343 376.263 342.393 376.263 341.18C376.263 339.873 376.379 339.22 376.613 339.22H380.183C380.906 339.22 381.489 339.033 381.933 338.66C382.376 338.263 382.598 337.715 382.598 337.015V331.38H386.238V337.12ZM384.173 347.095V350.455H374.653V347.095H384.173ZM397.81 339.22C397.926 339.22 398.008 339.348 398.055 339.605C398.125 339.862 398.16 340.387 398.16 341.18C398.16 341.927 398.125 342.417 398.055 342.65C398.008 342.883 397.926 343 397.81 343H396.76C394.893 343 393.481 342.452 392.525 341.355C391.568 340.258 391.09 338.707 391.09 336.7V320.39H394.695V336.455C394.695 337.412 394.87 338.112 395.22 338.555C395.593 338.998 396.176 339.22 396.97 339.22H397.81ZM406.747 337.12C406.747 338.963 406.198 340.41 405.102 341.46C404.005 342.487 402.535 343 400.692 343H397.122C396.888 343 396.772 342.393 396.772 341.18C396.772 339.873 396.888 339.22 397.122 339.22H400.692C401.415 339.22 401.998 339.033 402.442 338.66C402.885 338.263 403.107 337.715 403.107 337.015V331.38H406.747V337.12ZM397.822 350.525V347.095H402.022V350.525H397.822ZM419.802 333.9C419.802 331.613 419.685 329.642 419.452 327.985C419.219 326.305 418.752 324.298 418.052 321.965L421.552 320.74C422.299 323.097 422.789 325.162 423.022 326.935C423.279 328.708 423.407 331.018 423.407 333.865V343H419.802V333.9Z" fill="#F689FF"/>
<path d="M688.216 85.22C688.963 85.22 689.558 85.0333 690.001 84.66C690.468 84.2633 690.701 83.7267 690.701 83.05V77.38H694.341V82.875C694.341 84.4383 695.146 85.22 696.756 85.22H697.946C698.179 85.22 698.296 85.8733 698.296 87.18C698.296 88.3933 698.179 89 697.946 89H696.616C694.539 89 693.163 88.37 692.486 87.11C691.669 88.37 690.246 89 688.216 89H676.211C674.134 89 672.559 88.4633 671.486 87.39C670.413 86.2933 669.876 84.7533 669.876 82.77V77.38H673.481V82.28C673.481 83.26 673.714 83.995 674.181 84.485C674.648 84.975 675.383 85.22 676.386 85.22H688.216ZM686.851 71.36V74.72H677.331V71.36H686.851ZM701.444 85.22C702.191 85.22 702.786 85.0333 703.229 84.66C703.696 84.2633 703.929 83.715 703.929 83.015V77.38H707.569V82.875C707.569 84.4383 708.374 85.22 709.984 85.22H711.174C711.408 85.22 711.524 85.8617 711.524 87.145C711.524 88.3817 711.408 89 711.174 89H709.844C707.768 89 706.391 88.37 705.714 87.11C704.898 88.37 703.474 89 701.444 89H697.244C697.011 89 696.894 88.3933 696.894 87.18C696.894 85.8733 697.011 85.22 697.244 85.22H701.444ZM704.524 93.095V96.455H695.004V93.095H704.524ZM720.115 83.12C720.115 84.9633 719.566 86.41 718.47 87.46C717.373 88.4867 715.903 89 714.06 89H710.49C710.256 89 710.14 88.3933 710.14 87.18C710.14 85.8733 710.256 85.22 710.49 85.22H714.06C714.783 85.22 715.366 85.0333 715.81 84.66C716.253 84.2633 716.475 83.715 716.475 83.015V77.38H720.115V83.12ZM711.19 96.525V93.095H715.39V96.525H711.19ZM733.17 79.9C733.17 77.6133 733.053 75.6417 732.82 73.985C732.587 72.305 732.12 70.2983 731.42 67.965L734.92 66.74C735.667 69.0967 736.157 71.1617 736.39 72.935C736.647 74.7083 736.775 77.0183 736.775 79.865V89H733.17V79.9Z" fill="#F689FF"/>
</g>
<path d="M62.3207 514.82C61.0373 516.173 59.1707 516.85 56.7207 516.85C55.1573 516.85 53.8857 516.465 52.9057 515.695C51.9257 514.902 51.4357 513.7 51.4357 512.09C51.4357 508.8 53.4073 507.155 57.3507 507.155H62.2157V506C62.2157 504.927 61.9123 504.157 61.3057 503.69C60.7223 503.223 59.6723 502.99 58.1557 502.99C56.499 502.99 54.854 503.27 53.2207 503.83V501.38C53.9907 501.053 54.8773 500.808 55.8807 500.645C56.9073 500.482 57.9457 500.4 58.9957 500.4C61.2357 500.4 62.939 500.89 64.1057 501.87C65.2723 502.85 65.8557 504.378 65.8557 506.455V516.5H62.5657L62.3207 514.82ZM55.0057 511.95C55.0057 513.56 56.0323 514.365 58.0857 514.365C58.9723 514.365 59.7423 514.225 60.3957 513.945C61.049 513.665 61.6557 513.222 62.2157 512.615V509.465H58.2257C57.199 509.465 56.4057 509.652 55.8457 510.025C55.2857 510.398 55.0057 511.04 55.0057 511.95ZM83.905 516.5C81.8283 516.5 80.2533 515.963 79.18 514.89C78.1067 513.793 77.57 512.253 77.57 510.27V504.88H81.175V509.78C81.175 510.76 81.4083 511.495 81.875 511.985C82.3417 512.475 83.0767 512.72 84.08 512.72H93.705C94.4283 512.72 94.9183 512.697 95.175 512.65C93.8217 512.067 92.8533 511.402 92.27 510.655C91.71 509.885 91.43 508.905 91.43 507.715C91.43 506.432 91.7217 505.265 92.305 504.215C92.9117 503.165 93.7283 502.348 94.755 501.765C95.805 501.158 96.9833 500.855 98.29 500.855C100.507 500.855 102.222 501.532 103.435 502.885C104.672 504.238 105.29 506.105 105.29 508.485V509.675C105.29 511.962 104.508 513.677 102.945 514.82C101.405 515.94 99.13 516.5 96.12 516.5H83.905ZM100.635 512.195C101.312 511.588 101.65 510.655 101.65 509.395V508.695C101.65 505.895 100.518 504.495 98.255 504.495C97.3683 504.495 96.61 504.81 95.98 505.44C95.3733 506.047 95.07 506.793 95.07 507.68C95.07 508.357 95.2333 508.94 95.56 509.43C95.91 509.897 96.4817 510.352 97.275 510.795C98.0683 511.238 99.1883 511.705 100.635 512.195ZM96.155 497.39V493.96H100.355V497.39H96.155ZM115.366 510.27C115.366 511.903 116.253 512.72 118.026 512.72H118.516C118.749 512.72 118.866 513.373 118.866 514.68C118.866 515.893 118.749 516.5 118.516 516.5H118.026C117.443 516.5 116.906 516.418 116.416 516.255C115.949 516.068 115.599 515.823 115.366 515.52V515.73C115.319 517.55 114.899 519.16 114.106 520.56C113.336 521.96 112.251 523.045 110.851 523.815C109.474 524.585 107.864 524.97 106.021 524.97H103.396L103.081 521.19H105.986C107.783 521.19 109.183 520.677 110.186 519.65C111.213 518.647 111.726 517.223 111.726 515.38V504.88H115.366V510.27ZM120.328 512.72C122.101 512.72 123.559 512.592 124.703 512.335C125.869 512.078 127.059 511.6 128.273 510.9L132.683 508.38C132.379 507.283 131.948 506.537 131.388 506.14C130.828 505.72 129.988 505.51 128.868 505.51H120.783L121.238 501.73H129.498C130.944 501.73 132.123 501.975 133.033 502.465C133.943 502.932 134.701 503.725 135.308 504.845C135.914 505.965 136.451 507.54 136.918 509.57L129.953 513.945C128.389 514.925 126.884 515.602 125.438 515.975C124.014 516.325 122.253 516.5 120.153 516.5H117.808C117.574 516.5 117.458 515.893 117.458 514.68C117.458 513.373 117.574 512.72 117.808 512.72H120.328ZM155.16 512.72C155.884 512.72 156.455 512.58 156.875 512.3C157.319 511.997 157.54 511.6 157.54 511.11C157.54 510.69 157.365 510.002 157.015 509.045C156.689 508.065 155.755 505.452 154.215 501.205C154.145 501.042 154.075 500.867 154.005 500.68C153.935 500.47 153.854 500.248 153.76 500.015L157.12 498.44L161.18 510.06C161.53 511.04 161.904 511.728 162.3 512.125C162.72 512.522 163.304 512.72 164.05 512.72H164.855C165.089 512.72 165.205 513.373 165.205 514.68C165.205 515.473 165.17 515.975 165.1 516.185C165.054 516.395 164.972 516.5 164.855 516.5H163.91C162.837 516.5 161.95 516.337 161.25 516.01C160.55 515.683 159.99 515.158 159.57 514.435C159.15 515.158 158.579 515.683 157.855 516.01C157.132 516.337 156.234 516.5 155.16 516.5H147.18L146.83 512.72H155.16ZM173.695 512.72C174.582 512.72 175.27 512.568 175.76 512.265C176.25 511.938 176.495 511.507 176.495 510.97C176.495 510.527 176.39 510.118 176.18 509.745C175.97 509.372 175.632 508.94 175.165 508.45L167.255 500.645V497.6L180.205 492.525L181.29 495.99L171.595 499.7L177.895 506.07C179.365 507.517 180.1 509.185 180.1 511.075C180.1 512.685 179.54 513.992 178.42 514.995C177.3 515.998 175.725 516.5 173.695 516.5H164.14C163.907 516.5 163.79 515.893 163.79 514.68C163.79 513.373 163.907 512.72 164.14 512.72H173.695Z" fill="white"/>
<rect x="24" y="557.5" width="80" height="80" stroke="#70DBAE" stroke-width="3"/>
<path d="M64.0041 587.275C65.8374 587.275 67.5974 587.788 69.2841 588.815C71.0074 589.842 72.3824 591.198 73.4091 592.885C74.4357 594.572 74.9491 596.332 74.9491 598.165C74.9491 599.998 74.4357 601.777 73.4091 603.5C72.3824 605.187 71.0074 606.543 69.2841 607.57C67.5974 608.597 65.8374 609.11 64.0041 609.11C62.1707 609.11 60.3924 608.597 58.6691 607.57C56.9824 606.543 55.6257 605.187 54.5991 603.5C53.5724 601.777 53.0591 599.998 53.0591 598.165C53.0591 596.332 53.5724 594.572 54.5991 592.885C55.6257 591.198 56.9824 589.842 58.6691 588.815C60.3924 587.788 62.1707 587.275 64.0041 587.275ZM64.0041 603.665C64.8841 603.665 65.7457 603.408 66.5891 602.895C67.4691 602.345 68.1658 601.648 68.6791 600.805C69.2291 599.925 69.5041 599.045 69.5041 598.165C69.5041 597.285 69.2291 596.423 68.6791 595.58C68.1658 594.737 67.4691 594.058 66.5891 593.545C65.7457 593.032 64.8841 592.775 64.0041 592.775C63.1241 592.775 62.2441 593.05 61.3641 593.6C60.5207 594.113 59.8241 594.792 59.2741 595.635C58.7607 596.442 58.5041 597.285 58.5041 598.165C58.5041 599.045 58.7607 599.925 59.2741 600.805C59.8241 601.648 60.5207 602.345 61.3641 602.895C62.2441 603.408 63.1241 603.665 64.0041 603.665Z" fill="white"/>
<rect x="104" y="557.5" width="80" height="80" stroke="#70DBAE" stroke-width="3"/>
<path d="M141.718 600.2C141.718 596.607 141.535 593.508 141.168 590.905C140.802 588.265 140.068 585.112 138.968 581.445L144.468 579.52C145.642 583.223 146.412 586.468 146.778 589.255C147.182 592.042 147.383 595.672 147.383 600.145V614.5H141.718V600.2Z" fill="white"/>
<rect x="184" y="557.5" width="80" height="80" stroke="#70DBAE" stroke-width="3"/>
<path d="M221.718 600.2C221.718 596.607 221.535 593.508 221.168 590.905C220.802 588.265 220.068 585.112 218.968 581.445L224.468 579.52C225.642 583.223 226.412 586.468 226.778 589.255C227.182 592.042 227.383 595.672 227.383 600.145V614.5H221.718V600.2Z" fill="white"/>
<rect x="264" y="557.5" width="80" height="80" stroke="#70DBAE" stroke-width="3"/>
<path d="M304.004 587.275C305.837 587.275 307.597 587.788 309.284 588.815C311.007 589.842 312.382 591.198 313.409 592.885C314.436 594.572 314.949 596.332 314.949 598.165C314.949 599.998 314.436 601.777 313.409 603.5C312.382 605.187 311.007 606.543 309.284 607.57C307.597 608.597 305.837 609.11 304.004 609.11C302.171 609.11 300.392 608.597 298.669 607.57C296.982 606.543 295.626 605.187 294.599 603.5C293.572 601.777 293.059 599.998 293.059 598.165C293.059 596.332 293.572 594.572 294.599 592.885C295.626 591.198 296.982 589.842 298.669 588.815C300.392 587.788 302.171 587.275 304.004 587.275ZM304.004 603.665C304.884 603.665 305.746 603.408 306.589 602.895C307.469 602.345 308.166 601.648 308.679 600.805C309.229 599.925 309.504 599.045 309.504 598.165C309.504 597.285 309.229 596.423 308.679 595.58C308.166 594.737 307.469 594.058 306.589 593.545C305.746 593.032 304.884 592.775 304.004 592.775C303.124 592.775 302.244 593.05 301.364 593.6C300.521 594.113 299.824 594.792 299.274 595.635C298.761 596.442 298.504 597.285 298.504 598.165C298.504 599.045 298.761 599.925 299.274 600.805C299.824 601.648 300.521 602.345 301.364 602.895C302.244 603.408 303.124 603.665 304.004 603.665Z" fill="white"/>
<rect x="344" y="557.5" width="80" height="80" stroke="#70DBAE" stroke-width="3"/>
<path d="M384.004 587.275C385.837 587.275 387.597 587.788 389.284 588.815C391.007 589.842 392.382 591.198 393.409 592.885C394.436 594.572 394.949 596.332 394.949 598.165C394.949 599.998 394.436 601.777 393.409 603.5C392.382 605.187 391.007 606.543 389.284 607.57C387.597 608.597 385.837 609.11 384.004 609.11C382.171 609.11 380.392 608.597 378.669 607.57C376.982 606.543 375.626 605.187 374.599 603.5C373.572 601.777 373.059 599.998 373.059 598.165C373.059 596.332 373.572 594.572 374.599 592.885C375.626 591.198 376.982 589.842 378.669 588.815C380.392 587.788 382.171 587.275 384.004 587.275ZM384.004 603.665C384.884 603.665 385.746 603.408 386.589 602.895C387.469 602.345 388.166 601.648 388.679 600.805C389.229 599.925 389.504 599.045 389.504 598.165C389.504 597.285 389.229 596.423 388.679 595.58C388.166 594.737 387.469 594.058 386.589 593.545C385.746 593.032 384.884 592.775 384.004 592.775C383.124 592.775 382.244 593.05 381.364 593.6C380.521 594.113 379.824 594.792 379.274 595.635C378.761 596.442 378.504 597.285 378.504 598.165C378.504 599.045 378.761 599.925 379.274 600.805C379.824 601.648 380.521 602.345 381.364 602.895C382.244 603.408 383.124 603.665 384.004 603.665Z" fill="white"/>
<rect x="424" y="557.5" width="80" height="80" stroke="#70DBAE" stroke-width="3"/>
<path d="M464.004 587.275C465.837 587.275 467.597 587.788 469.284 588.815C471.007 589.842 472.382 591.198 473.409 592.885C474.436 594.572 474.949 596.332 474.949 598.165C474.949 599.998 474.436 601.777 473.409 603.5C472.382 605.187 471.007 606.543 469.284 607.57C467.597 608.597 465.837 609.11 464.004 609.11C462.171 609.11 460.392 608.597 458.669 607.57C456.982 606.543 455.626 605.187 454.599 603.5C453.572 601.777 453.059 599.998 453.059 598.165C453.059 596.332 453.572 594.572 454.599 592.885C455.626 591.198 456.982 589.842 458.669 588.815C460.392 587.788 462.171 587.275 464.004 587.275ZM464.004 603.665C464.884 603.665 465.746 603.408 466.589 602.895C467.469 602.345 468.166 601.648 468.679 600.805C469.229 599.925 469.504 599.045 469.504 598.165C469.504 597.285 469.229 596.423 468.679 595.58C468.166 594.737 467.469 594.058 466.589 593.545C465.746 593.032 464.884 592.775 464.004 592.775C463.124 592.775 462.244 593.05 461.364 593.6C460.521 594.113 459.824 594.792 459.274 595.635C458.761 596.442 458.504 597.285 458.504 598.165C458.504 599.045 458.761 599.925 459.274 600.805C459.824 601.648 460.521 602.345 461.364 602.895C462.244 603.408 463.124 603.665 464.004 603.665Z" fill="white"/>
<rect x="504" y="557.5" width="80" height="80" stroke="#70DBAE" stroke-width="3"/>
<path d="M544.004 587.275C545.837 587.275 547.597 587.788 549.284 588.815C551.007 589.842 552.382 591.198 553.409 592.885C554.436 594.572 554.949 596.332 554.949 598.165C554.949 599.998 554.436 601.777 553.409 603.5C552.382 605.187 551.007 606.543 549.284 607.57C547.597 608.597 545.837 609.11 544.004 609.11C542.171 609.11 540.392 608.597 538.669 607.57C536.982 606.543 535.626 605.187 534.599 603.5C533.572 601.777 533.059 599.998 533.059 598.165C533.059 596.332 533.572 594.572 534.599 592.885C535.626 591.198 536.982 589.842 538.669 588.815C540.392 587.788 542.171 587.275 544.004 587.275ZM544.004 603.665C544.884 603.665 545.746 603.408 546.589 602.895C547.469 602.345 548.166 601.648 548.679 600.805C549.229 599.925 549.504 599.045 549.504 598.165C549.504 597.285 549.229 596.423 548.679 595.58C548.166 594.737 547.469 594.058 546.589 593.545C545.746 593.032 544.884 592.775 544.004 592.775C543.124 592.775 542.244 593.05 541.364 593.6C540.521 594.113 539.824 594.792 539.274 595.635C538.761 596.442 538.504 597.285 538.504 598.165C538.504 599.045 538.761 599.925 539.274 600.805C539.824 601.648 540.521 602.345 541.364 602.895C542.244 603.408 543.124 603.665 544.004 603.665Z" fill="white"/>
<rect x="584" y="557.5" width="80" height="80" stroke="#70DBAE" stroke-width="3"/>
<path d="M624.004 587.275C625.837 587.275 627.597 587.788 629.284 588.815C631.007 589.842 632.382 591.198 633.409 592.885C634.436 594.572 634.949 596.332 634.949 598.165C634.949 599.998 634.436 601.777 633.409 603.5C632.382 605.187 631.007 606.543 629.284 607.57C627.597 608.597 625.837 609.11 624.004 609.11C622.171 609.11 620.392 608.597 618.669 607.57C616.982 606.543 615.626 605.187 614.599 603.5C613.572 601.777 613.059 599.998 613.059 598.165C613.059 596.332 613.572 594.572 614.599 592.885C615.626 591.198 616.982 589.842 618.669 588.815C620.392 587.788 622.171 587.275 624.004 587.275ZM624.004 603.665C624.884 603.665 625.746 603.408 626.589 602.895C627.469 602.345 628.166 601.648 628.679 600.805C629.229 599.925 629.504 599.045 629.504 598.165C629.504 597.285 629.229 596.423 628.679 595.58C628.166 594.737 627.469 594.058 626.589 593.545C625.746 593.032 624.884 592.775 624.004 592.775C623.124 592.775 622.244 593.05 621.364 593.6C620.521 594.113 619.824 594.792 619.274 595.635C618.761 596.442 618.504 597.285 618.504 598.165C618.504 599.045 618.761 599.925 619.274 600.805C619.824 601.648 620.521 602.345 621.364 602.895C622.244 603.408 623.124 603.665 624.004 603.665Z" fill="white"/>
<rect x="664" y="557.5" width="80" height="80" stroke="#70DBAE" stroke-width="3"/>
<path d="M701.718 600.2C701.718 596.607 701.535 593.508 701.168 590.905C700.802 588.265 700.068 585.112 698.968 581.445L704.468 579.52C705.642 583.223 706.412 586.468 706.778 589.255C707.182 592.042 707.383 595.672 707.383 600.145V614.5H701.718V600.2Z" fill="white"/>
<defs>
<clipPath id="clip0_1576_80">
<rect width="773" height="369" fill="white"/>
</clipPath>
</defs>
</svg>
