<svg width="358" height="151" viewBox="0 0 358 151" fill="none" xmlns="http://www.w3.org/2000/svg">
<mask id="path-1-outside-1_637_82" maskUnits="userSpaceOnUse" x="63" y="22" width="231" height="47" fill="black">
<rect fill="white" x="63" y="22" width="231" height="47"/>
<path d="M89.975 49.212C90.215 49.212 90.335 50.04 90.335 51.696C90.335 53.232 90.215 54 89.975 54H86.807C86.975 54.192 87.059 54.576 87.059 55.152C87.059 56.592 86.639 57.876 85.799 59.004C84.959 60.132 83.795 61.008 82.307 61.632C80.819 62.28 79.103 62.604 77.159 62.604H74.459C71.339 62.604 68.927 61.704 67.223 59.904C65.543 58.128 64.703 55.632 64.703 52.416V45.216H69.275V52.308C69.275 54.132 69.695 55.5 70.535 56.412C71.375 57.348 72.683 57.816 74.459 57.816H77.231C80.735 57.816 82.487 56.916 82.487 55.116C82.487 54.612 82.355 54.252 82.091 54.036C81.827 53.844 81.395 53.748 80.795 53.748H74.495L74.927 49.212H89.975ZM94.135 49.212C94.735 49.212 95.215 49.056 95.575 48.744C95.959 48.408 96.151 47.952 96.151 47.376V41.616H100.723V47.232C100.723 48.552 101.395 49.212 102.739 49.212H104.107C104.347 49.212 104.467 50.016 104.467 51.624C104.467 53.208 104.347 54 104.107 54H102.523C100.507 54 99.139 53.424 98.419 52.272C97.987 52.872 97.411 53.316 96.691 53.604C95.995 53.868 95.143 54 94.135 54H89.959C89.719 54 89.599 53.232 89.599 51.696C89.599 50.04 89.719 49.212 89.959 49.212H94.135ZM94.243 37.872V33.768H99.139V37.872H94.243ZM105.028 49.212C105.7 49.212 106.168 49.08 106.432 48.816C106.72 48.552 106.864 48.12 106.864 47.52V46.512C106.864 44.184 107.524 42.348 108.844 41.004C110.188 39.636 112 38.952 114.28 38.952C116.56 38.952 118.3 39.612 119.5 40.932C120.724 42.228 121.336 44.1 121.336 46.548V47.196C121.336 47.916 121.492 48.432 121.804 48.744C122.116 49.056 122.584 49.212 123.208 49.212H124.144C124.384 49.212 124.504 50.04 124.504 51.696C124.504 53.232 124.384 54 124.144 54H123.208C121.168 54 119.788 53.424 119.068 52.272C118.564 52.848 117.868 53.28 116.98 53.568C116.092 53.856 115.132 54 114.1 54C112.9 54 111.904 53.856 111.112 53.568C110.32 53.256 109.732 52.824 109.348 52.272C108.892 52.872 108.316 53.316 107.62 53.604C106.948 53.868 106.084 54 105.028 54H104.092C103.852 54 103.732 53.232 103.732 51.696C103.732 50.04 103.852 49.212 104.092 49.212H105.028ZM116.8 46.548C116.8 44.532 115.9 43.524 114.1 43.524C112.3 43.524 111.4 44.532 111.4 46.548C111.4 47.412 111.616 48.084 112.048 48.564C112.504 49.02 113.188 49.248 114.1 49.248C115.012 49.248 115.684 49.032 116.116 48.6C116.572 48.144 116.8 47.46 116.8 46.548ZM126.795 49.212C128.619 49.212 130.119 49.092 131.295 48.852C132.495 48.612 133.731 48.132 135.003 47.412L138.351 45.504C138.111 44.592 137.751 43.98 137.271 43.668C136.815 43.332 136.119 43.164 135.183 43.164H126.939L127.479 38.412H136.047C137.559 38.412 138.783 38.676 139.719 39.204C140.655 39.708 141.435 40.584 142.059 41.832C142.707 43.056 143.283 44.784 143.787 47.016L136.767 51.372C135.135 52.38 133.575 53.076 132.087 53.46C130.599 53.82 128.763 54 126.579 54H124.131C123.891 54 123.771 53.232 123.771 51.696C123.771 50.04 123.891 49.212 124.131 49.212H126.795ZM137.487 57.744V61.848H127.335V57.744H137.487ZM130.359 67.5V63.576H134.463V67.5H130.359Z"/>
<path d="M162.161 57.816C163.817 57.816 165.101 57.36 166.013 56.448C166.925 55.56 167.381 54.3 167.381 52.668V41.616H171.953V47.052C171.953 47.796 172.133 48.348 172.493 48.708C172.877 49.044 173.477 49.212 174.293 49.212H174.941C175.181 49.212 175.301 50.04 175.301 51.696C175.301 53.232 175.181 54 174.941 54H174.365C173.861 54 173.393 53.94 172.961 53.82C172.529 53.676 172.193 53.484 171.953 53.244C171.881 55.044 171.437 56.652 170.621 58.068C169.829 59.484 168.713 60.588 167.273 61.38C165.833 62.196 164.153 62.604 162.233 62.604H161.081L160.685 57.816H162.161ZM167.057 37.872V33.768H171.953V37.872H167.057ZM179.108 49.212C179.708 49.212 180.188 49.056 180.548 48.744C180.932 48.408 181.124 47.952 181.124 47.376V41.616H185.696V47.232C185.696 48.552 186.368 49.212 187.712 49.212H189.08C189.32 49.212 189.44 50.016 189.44 51.624C189.44 53.208 189.32 54 189.08 54H187.496C185.48 54 184.112 53.424 183.392 52.272C182.96 52.872 182.384 53.316 181.664 53.604C180.968 53.868 180.116 54 179.108 54H174.932C174.692 54 174.572 53.232 174.572 51.696C174.572 50.04 174.692 49.212 174.932 49.212H179.108ZM174.968 61.848V57.744H179.864V61.848H174.968ZM191.836 49.212C192.652 49.212 193.264 49.02 193.672 48.636C194.104 48.252 194.32 47.724 194.32 47.052V41.616H198.892V47.052C198.892 48.492 199.72 49.212 201.376 49.212C202.192 49.212 202.804 49.02 203.212 48.636C203.644 48.252 203.86 47.724 203.86 47.052V41.616H208.432V47.052C208.432 48.492 209.2 49.212 210.736 49.212C212.272 49.212 213.04 48.492 213.04 47.052V41.616H217.612V47.088C217.612 49.272 217 50.976 215.776 52.2C214.576 53.4 212.896 54 210.736 54C209.464 54 208.444 53.844 207.676 53.532C206.908 53.196 206.332 52.716 205.948 52.092C205.492 52.716 204.892 53.196 204.148 53.532C203.428 53.844 202.504 54 201.376 54C200.056 54 199 53.844 198.208 53.532C197.416 53.196 196.828 52.716 196.444 52.092C195.508 53.364 193.972 54 191.836 54H189.064C188.824 54 188.704 53.232 188.704 51.696C188.704 50.04 188.824 49.212 189.064 49.212H191.836ZM262.748 24.048L263.54 26.856L250.58 32.076V29.016L262.748 24.048ZM245.036 54C242.876 54 241.22 53.436 240.068 52.308C238.916 51.156 238.34 49.512 238.34 47.376V41.616H242.912V46.764C242.912 47.58 243.092 48.192 243.452 48.6C243.836 49.008 244.436 49.212 245.252 49.212H257.24C257.984 49.212 258.56 49.092 258.968 48.852C259.376 48.612 259.58 48.276 259.58 47.844C259.58 47.46 259.484 47.112 259.292 46.8C259.124 46.488 258.824 46.116 258.392 45.684L250.58 38.052V34.308L264.224 29.052L265.52 33.516L256.232 37.008L261.848 42.588C263.936 44.676 265.484 46.164 266.492 47.052C267.524 47.94 268.352 48.528 268.976 48.816C269.6 49.08 270.332 49.212 271.172 49.212C271.412 49.212 271.532 50.04 271.532 51.696C271.532 53.232 271.412 54 271.172 54C269.948 54 268.952 53.916 268.184 53.748C267.44 53.58 266.732 53.28 266.06 52.848C265.388 52.392 264.584 51.684 263.648 50.724C263.24 51.756 262.484 52.56 261.38 53.136C260.276 53.712 258.944 54 257.384 54H245.036ZM281.27 47.592C281.27 49.584 280.67 51.156 279.47 52.308C278.294 53.436 276.698 54 274.682 54H271.154C270.914 54 270.794 53.232 270.794 51.696C270.794 50.04 270.914 49.212 271.154 49.212H274.682C275.282 49.212 275.762 49.056 276.122 48.744C276.506 48.408 276.698 47.952 276.698 47.376V41.616H281.27V47.592ZM274.61 37.872V33.768H279.506V37.872H274.61ZM292.293 52.668C292.293 54.636 291.897 56.364 291.105 57.852C290.313 59.364 289.173 60.528 287.685 61.344C286.221 62.184 284.517 62.604 282.573 62.604H279.549L279.153 57.816H282.501C284.157 57.816 285.441 57.36 286.353 56.448C287.265 55.56 287.721 54.3 287.721 52.668V41.616H292.293V52.668Z"/>
</mask>
<path d="M89.975 49.212C90.215 49.212 90.335 50.04 90.335 51.696C90.335 53.232 90.215 54 89.975 54H86.807C86.975 54.192 87.059 54.576 87.059 55.152C87.059 56.592 86.639 57.876 85.799 59.004C84.959 60.132 83.795 61.008 82.307 61.632C80.819 62.28 79.103 62.604 77.159 62.604H74.459C71.339 62.604 68.927 61.704 67.223 59.904C65.543 58.128 64.703 55.632 64.703 52.416V45.216H69.275V52.308C69.275 54.132 69.695 55.5 70.535 56.412C71.375 57.348 72.683 57.816 74.459 57.816H77.231C80.735 57.816 82.487 56.916 82.487 55.116C82.487 54.612 82.355 54.252 82.091 54.036C81.827 53.844 81.395 53.748 80.795 53.748H74.495L74.927 49.212H89.975ZM94.135 49.212C94.735 49.212 95.215 49.056 95.575 48.744C95.959 48.408 96.151 47.952 96.151 47.376V41.616H100.723V47.232C100.723 48.552 101.395 49.212 102.739 49.212H104.107C104.347 49.212 104.467 50.016 104.467 51.624C104.467 53.208 104.347 54 104.107 54H102.523C100.507 54 99.139 53.424 98.419 52.272C97.987 52.872 97.411 53.316 96.691 53.604C95.995 53.868 95.143 54 94.135 54H89.959C89.719 54 89.599 53.232 89.599 51.696C89.599 50.04 89.719 49.212 89.959 49.212H94.135ZM94.243 37.872V33.768H99.139V37.872H94.243ZM105.028 49.212C105.7 49.212 106.168 49.08 106.432 48.816C106.72 48.552 106.864 48.12 106.864 47.52V46.512C106.864 44.184 107.524 42.348 108.844 41.004C110.188 39.636 112 38.952 114.28 38.952C116.56 38.952 118.3 39.612 119.5 40.932C120.724 42.228 121.336 44.1 121.336 46.548V47.196C121.336 47.916 121.492 48.432 121.804 48.744C122.116 49.056 122.584 49.212 123.208 49.212H124.144C124.384 49.212 124.504 50.04 124.504 51.696C124.504 53.232 124.384 54 124.144 54H123.208C121.168 54 119.788 53.424 119.068 52.272C118.564 52.848 117.868 53.28 116.98 53.568C116.092 53.856 115.132 54 114.1 54C112.9 54 111.904 53.856 111.112 53.568C110.32 53.256 109.732 52.824 109.348 52.272C108.892 52.872 108.316 53.316 107.62 53.604C106.948 53.868 106.084 54 105.028 54H104.092C103.852 54 103.732 53.232 103.732 51.696C103.732 50.04 103.852 49.212 104.092 49.212H105.028ZM116.8 46.548C116.8 44.532 115.9 43.524 114.1 43.524C112.3 43.524 111.4 44.532 111.4 46.548C111.4 47.412 111.616 48.084 112.048 48.564C112.504 49.02 113.188 49.248 114.1 49.248C115.012 49.248 115.684 49.032 116.116 48.6C116.572 48.144 116.8 47.46 116.8 46.548ZM126.795 49.212C128.619 49.212 130.119 49.092 131.295 48.852C132.495 48.612 133.731 48.132 135.003 47.412L138.351 45.504C138.111 44.592 137.751 43.98 137.271 43.668C136.815 43.332 136.119 43.164 135.183 43.164H126.939L127.479 38.412H136.047C137.559 38.412 138.783 38.676 139.719 39.204C140.655 39.708 141.435 40.584 142.059 41.832C142.707 43.056 143.283 44.784 143.787 47.016L136.767 51.372C135.135 52.38 133.575 53.076 132.087 53.46C130.599 53.82 128.763 54 126.579 54H124.131C123.891 54 123.771 53.232 123.771 51.696C123.771 50.04 123.891 49.212 124.131 49.212H126.795ZM137.487 57.744V61.848H127.335V57.744H137.487ZM130.359 67.5V63.576H134.463V67.5H130.359Z" fill="#5CE5DE"/>
<path d="M162.161 57.816C163.817 57.816 165.101 57.36 166.013 56.448C166.925 55.56 167.381 54.3 167.381 52.668V41.616H171.953V47.052C171.953 47.796 172.133 48.348 172.493 48.708C172.877 49.044 173.477 49.212 174.293 49.212H174.941C175.181 49.212 175.301 50.04 175.301 51.696C175.301 53.232 175.181 54 174.941 54H174.365C173.861 54 173.393 53.94 172.961 53.82C172.529 53.676 172.193 53.484 171.953 53.244C171.881 55.044 171.437 56.652 170.621 58.068C169.829 59.484 168.713 60.588 167.273 61.38C165.833 62.196 164.153 62.604 162.233 62.604H161.081L160.685 57.816H162.161ZM167.057 37.872V33.768H171.953V37.872H167.057ZM179.108 49.212C179.708 49.212 180.188 49.056 180.548 48.744C180.932 48.408 181.124 47.952 181.124 47.376V41.616H185.696V47.232C185.696 48.552 186.368 49.212 187.712 49.212H189.08C189.32 49.212 189.44 50.016 189.44 51.624C189.44 53.208 189.32 54 189.08 54H187.496C185.48 54 184.112 53.424 183.392 52.272C182.96 52.872 182.384 53.316 181.664 53.604C180.968 53.868 180.116 54 179.108 54H174.932C174.692 54 174.572 53.232 174.572 51.696C174.572 50.04 174.692 49.212 174.932 49.212H179.108ZM174.968 61.848V57.744H179.864V61.848H174.968ZM191.836 49.212C192.652 49.212 193.264 49.02 193.672 48.636C194.104 48.252 194.32 47.724 194.32 47.052V41.616H198.892V47.052C198.892 48.492 199.72 49.212 201.376 49.212C202.192 49.212 202.804 49.02 203.212 48.636C203.644 48.252 203.86 47.724 203.86 47.052V41.616H208.432V47.052C208.432 48.492 209.2 49.212 210.736 49.212C212.272 49.212 213.04 48.492 213.04 47.052V41.616H217.612V47.088C217.612 49.272 217 50.976 215.776 52.2C214.576 53.4 212.896 54 210.736 54C209.464 54 208.444 53.844 207.676 53.532C206.908 53.196 206.332 52.716 205.948 52.092C205.492 52.716 204.892 53.196 204.148 53.532C203.428 53.844 202.504 54 201.376 54C200.056 54 199 53.844 198.208 53.532C197.416 53.196 196.828 52.716 196.444 52.092C195.508 53.364 193.972 54 191.836 54H189.064C188.824 54 188.704 53.232 188.704 51.696C188.704 50.04 188.824 49.212 189.064 49.212H191.836ZM262.748 24.048L263.54 26.856L250.58 32.076V29.016L262.748 24.048ZM245.036 54C242.876 54 241.22 53.436 240.068 52.308C238.916 51.156 238.34 49.512 238.34 47.376V41.616H242.912V46.764C242.912 47.58 243.092 48.192 243.452 48.6C243.836 49.008 244.436 49.212 245.252 49.212H257.24C257.984 49.212 258.56 49.092 258.968 48.852C259.376 48.612 259.58 48.276 259.58 47.844C259.58 47.46 259.484 47.112 259.292 46.8C259.124 46.488 258.824 46.116 258.392 45.684L250.58 38.052V34.308L264.224 29.052L265.52 33.516L256.232 37.008L261.848 42.588C263.936 44.676 265.484 46.164 266.492 47.052C267.524 47.94 268.352 48.528 268.976 48.816C269.6 49.08 270.332 49.212 271.172 49.212C271.412 49.212 271.532 50.04 271.532 51.696C271.532 53.232 271.412 54 271.172 54C269.948 54 268.952 53.916 268.184 53.748C267.44 53.58 266.732 53.28 266.06 52.848C265.388 52.392 264.584 51.684 263.648 50.724C263.24 51.756 262.484 52.56 261.38 53.136C260.276 53.712 258.944 54 257.384 54H245.036ZM281.27 47.592C281.27 49.584 280.67 51.156 279.47 52.308C278.294 53.436 276.698 54 274.682 54H271.154C270.914 54 270.794 53.232 270.794 51.696C270.794 50.04 270.914 49.212 271.154 49.212H274.682C275.282 49.212 275.762 49.056 276.122 48.744C276.506 48.408 276.698 47.952 276.698 47.376V41.616H281.27V47.592ZM274.61 37.872V33.768H279.506V37.872H274.61ZM292.293 52.668C292.293 54.636 291.897 56.364 291.105 57.852C290.313 59.364 289.173 60.528 287.685 61.344C286.221 62.184 284.517 62.604 282.573 62.604H279.549L279.153 57.816H282.501C284.157 57.816 285.441 57.36 286.353 56.448C287.265 55.56 287.721 54.3 287.721 52.668V41.616H292.293V52.668Z" fill="#E1E1E1"/>
<path d="M86.807 54V52.7H83.9421L85.8287 54.8561L86.807 54ZM85.799 59.004L86.8417 59.7804L86.8417 59.7804L85.799 59.004ZM82.307 61.632L81.8043 60.4331L81.7961 60.4366L81.788 60.4401L82.307 61.632ZM67.223 59.904L66.2786 60.7974L66.2789 60.7977L67.223 59.904ZM64.703 45.216V43.916H63.403V45.216H64.703ZM69.275 45.216H70.575V43.916H69.275V45.216ZM70.535 56.412L71.5025 55.5437L71.4969 55.5375L71.4912 55.5313L70.535 56.412ZM82.091 54.036L82.9142 53.0299L82.8856 53.0064L82.8556 52.9846L82.091 54.036ZM74.495 53.748L73.2009 53.6247L73.0653 55.048H74.495V53.748ZM74.927 49.212V47.912H73.7449L73.6329 49.0887L74.927 49.212ZM89.975 50.512C89.5888 50.512 89.3048 50.3324 89.1468 50.1766C89.009 50.0408 88.9525 49.9137 88.9403 49.8856C88.9155 49.8286 88.9335 49.8472 88.9585 50.0195C89.0046 50.3377 89.035 50.8825 89.035 51.696H91.635C91.635 50.8535 91.6055 50.1563 91.5316 49.6465C91.4965 49.4048 91.4395 49.1129 91.3247 48.8489C91.2604 48.701 90.8983 47.912 89.975 47.912V50.512ZM89.035 51.696C89.035 52.4483 89.0045 52.9423 88.9606 53.2233C88.9366 53.3769 88.9217 53.3763 88.9554 53.3042C88.973 53.2666 89.0368 53.1375 89.1822 53.0046C89.3484 52.8526 89.6217 52.7 89.975 52.7V55.3C90.8467 55.3 91.2227 54.5932 91.3096 54.4078C91.4334 54.1437 91.4934 53.8551 91.5294 53.6247C91.6055 53.1377 91.635 52.4797 91.635 51.696H89.035ZM89.975 52.7H86.807V55.3H89.975V52.7ZM85.8287 54.8561C85.7655 54.7838 85.7362 54.7238 85.7263 54.7011C85.7163 54.6782 85.719 54.6775 85.726 54.7098C85.7412 54.7791 85.759 54.9185 85.759 55.152H88.359C88.359 54.8095 88.3348 54.4689 88.266 54.1542C88.2002 53.8537 88.0714 53.4708 87.7854 53.1439L85.8287 54.8561ZM85.759 55.152C85.759 56.3194 85.425 57.3296 84.7564 58.2276L86.8417 59.7804C87.853 58.4224 88.359 56.8646 88.359 55.152H85.759ZM84.7564 58.2276C84.0747 59.1429 83.1099 59.8856 81.8043 60.4331L82.8098 62.8309C84.4802 62.1304 85.8433 61.1211 86.8417 59.7804L84.7564 58.2276ZM81.788 60.4401C80.4928 61.0042 78.9591 61.304 77.159 61.304V63.904C79.2469 63.904 81.1453 63.5559 82.8261 62.8239L81.788 60.4401ZM77.159 61.304H74.459V63.904H77.159V61.304ZM74.459 61.304C71.5979 61.304 69.5653 60.4873 68.1671 59.0103L66.2789 60.7977C68.2887 62.9207 71.0801 63.904 74.459 63.904V61.304ZM68.1674 59.0106C66.7805 57.5444 66.003 55.4076 66.003 52.416H63.403C63.403 55.8564 64.3056 58.7116 66.2786 60.7974L68.1674 59.0106ZM66.003 52.416V45.216H63.403V52.416H66.003ZM64.703 46.516H69.275V43.916H64.703V46.516ZM67.975 45.216V52.308H70.575V45.216H67.975ZM67.975 52.308C67.975 54.3071 68.4331 56.0488 69.5788 57.2927L71.4912 55.5313C70.9569 54.9512 70.575 53.9569 70.575 52.308H67.975ZM69.5675 57.2803C70.7422 58.5893 72.4704 59.116 74.459 59.116V56.516C72.8956 56.516 72.0078 56.1067 71.5025 55.5437L69.5675 57.2803ZM74.459 59.116H77.231V56.516H74.459V59.116ZM77.231 59.116C79.0521 59.116 80.615 58.8892 81.767 58.2974C82.3619 57.9918 82.8817 57.571 83.249 57.0049C83.6206 56.4323 83.787 55.7864 83.787 55.116H81.187C81.187 55.3456 81.1344 55.4872 81.068 55.5896C80.9974 55.6985 80.8601 55.8402 80.579 55.9847C79.979 56.2928 78.9139 56.516 77.231 56.516V59.116ZM83.787 55.116C83.787 54.4133 83.6021 53.5926 82.9142 53.0299L81.2678 55.0421C81.2365 55.0165 81.2113 54.9881 81.193 54.9615C81.1752 54.9356 81.1684 54.9179 81.1675 54.9155C81.1668 54.9138 81.172 54.9274 81.1772 54.9613C81.1824 54.9954 81.187 55.046 81.187 55.116H83.787ZM82.8556 52.9846C82.2493 52.5437 81.4699 52.448 80.795 52.448V55.048C81.0313 55.048 81.1897 55.0674 81.287 55.089C81.3872 55.1113 81.3802 55.1265 81.3264 55.0874L82.8556 52.9846ZM80.795 52.448H74.495V55.048H80.795V52.448ZM75.7892 53.8713L76.2212 49.3353L73.6329 49.0887L73.2009 53.6247L75.7892 53.8713ZM74.927 50.512H89.975V47.912H74.927V50.512ZM95.575 48.744L96.4264 49.7264L96.431 49.7223L95.575 48.744ZM96.151 41.616V40.316H94.851V41.616H96.151ZM100.723 41.616H102.023V40.316H100.723V41.616ZM98.419 52.272L99.5214 51.583L98.4953 49.9412L97.364 51.5124L98.419 52.272ZM96.691 53.604L97.152 54.8195L97.163 54.8154L97.1738 54.811L96.691 53.604ZM94.243 37.872H92.943V39.172H94.243V37.872ZM94.243 33.768V32.468H92.943V33.768H94.243ZM99.139 33.768H100.439V32.468H99.139V33.768ZM99.139 37.872V39.172H100.439V37.872H99.139ZM94.135 50.512C94.964 50.512 95.7736 50.2921 96.4264 49.7264L94.7236 47.7616C94.6563 47.8199 94.5059 47.912 94.135 47.912V50.512ZM96.431 49.7223C97.1353 49.1061 97.451 48.273 97.451 47.376H94.851C94.851 47.631 94.7827 47.7099 94.7189 47.7656L96.431 49.7223ZM97.451 47.376V41.616H94.851V47.376H97.451ZM96.151 42.916H100.723V40.316H96.151V42.916ZM99.423 41.616V47.232H102.023V41.616H99.423ZM99.423 47.232C99.423 48.0984 99.6452 48.9856 100.316 49.6445C100.983 50.2991 101.872 50.512 102.739 50.512V47.912C102.262 47.912 102.143 47.7949 102.138 47.7895C102.137 47.7884 102.023 47.6856 102.023 47.232H99.423ZM102.739 50.512H104.107V47.912H102.739V50.512ZM104.107 50.512C103.734 50.512 103.454 50.3434 103.292 50.1888C103.152 50.054 103.092 49.9259 103.078 49.894C103.05 49.831 103.067 49.842 103.091 50.0069C103.137 50.3104 103.167 50.8349 103.167 51.624H105.767C105.767 50.8051 105.737 50.1236 105.663 49.6231C105.627 49.386 105.569 49.0955 105.451 48.8315C105.378 48.6683 105.01 47.912 104.107 47.912V50.512ZM103.167 51.624C103.167 52.4008 103.137 52.9152 103.092 53.2113C103.067 53.3724 103.051 53.3795 103.081 53.3136C103.096 53.2798 103.157 53.1513 103.3 53.017C103.463 52.8632 103.74 52.7 104.107 52.7V55.3C105 55.3 105.37 54.5602 105.448 54.3894C105.568 54.1255 105.627 53.8356 105.662 53.6007C105.737 53.1048 105.767 52.4312 105.767 51.624H103.167ZM104.107 52.7H102.523V55.3H104.107V52.7ZM102.523 52.7C100.722 52.7 99.902 52.192 99.5214 51.583L97.3166 52.961C98.376 54.656 100.292 55.3 102.523 55.3V52.7ZM97.364 51.5124C97.0836 51.9019 96.7106 52.196 96.2082 52.397L97.1738 54.811C98.1114 54.436 98.8904 53.8421 99.474 53.0316L97.364 51.5124ZM96.2299 52.3885C95.7232 52.5807 95.0377 52.7 94.135 52.7V55.3C95.2483 55.3 96.2667 55.1553 97.152 54.8195L96.2299 52.3885ZM94.135 52.7H89.959V55.3H94.135V52.7ZM89.959 52.7C90.3123 52.7 90.5856 52.8526 90.7518 53.0046C90.8972 53.1375 90.961 53.2666 90.9786 53.3042C91.0123 53.3763 90.9974 53.3769 90.9734 53.2233C90.9295 52.9423 90.899 52.4483 90.899 51.696H88.299C88.299 52.4797 88.3285 53.1377 88.4046 53.6247C88.4406 53.8551 88.5006 54.1437 88.6244 54.4078C88.7113 54.5932 89.0873 55.3 89.959 55.3V52.7ZM90.899 51.696C90.899 50.8825 90.9294 50.3377 90.9755 50.0195C91.0005 49.8472 91.0185 49.8286 90.9937 49.8856C90.9815 49.9137 90.925 50.0408 90.7872 50.1766C90.6292 50.3324 90.3452 50.512 89.959 50.512V47.912C89.0357 47.912 88.6736 48.701 88.6093 48.8489C88.4945 49.1129 88.4375 49.4048 88.4024 49.6465C88.3285 50.1563 88.299 50.8535 88.299 51.696H90.899ZM89.959 50.512H94.135V47.912H89.959V50.512ZM95.543 37.872V33.768H92.943V37.872H95.543ZM94.243 35.068H99.139V32.468H94.243V35.068ZM97.839 33.768V37.872H100.439V33.768H97.839ZM99.139 36.572H94.243V39.172H99.139V36.572ZM106.432 48.816L105.553 47.8577L105.533 47.8768L105.513 47.8968L106.432 48.816ZM108.844 41.004L107.916 40.0929L107.916 40.0931L108.844 41.004ZM119.5 40.932L118.538 41.8065L118.546 41.8156L118.555 41.8246L119.5 40.932ZM121.804 48.744L122.723 47.8248L122.723 47.8248L121.804 48.744ZM119.068 52.272L120.17 51.583L119.242 50.0984L118.089 51.4159L119.068 52.272ZM111.112 53.568L110.635 54.7775L110.651 54.7838L110.668 54.7897L111.112 53.568ZM109.348 52.272L110.415 51.5296L109.394 50.0624L108.313 51.4854L109.348 52.272ZM107.62 53.604L108.095 54.814L108.106 54.8097L108.117 54.8052L107.62 53.604ZM112.048 48.564L111.082 49.4337L111.104 49.4591L111.129 49.4832L112.048 48.564ZM116.116 48.6L117.035 49.5192L117.035 49.5192L116.116 48.6ZM105.028 50.512C105.793 50.512 106.71 50.3767 107.351 49.7352L105.513 47.8968C105.578 47.8309 105.613 47.8384 105.53 47.8618C105.445 47.8857 105.286 47.912 105.028 47.912V50.512ZM107.31 49.7743C107.982 49.1581 108.164 48.2907 108.164 47.52H105.564C105.564 47.722 105.539 47.834 105.523 47.8829C105.509 47.9242 105.509 47.898 105.553 47.8577L107.31 49.7743ZM108.164 47.52V46.512H105.564V47.52H108.164ZM108.164 46.512C108.164 44.4398 108.744 42.9613 109.771 41.9149L107.916 40.0931C106.304 41.7347 105.564 43.9282 105.564 46.512H108.164ZM109.771 41.9151C110.825 40.8423 112.278 40.252 114.28 40.252V37.652C111.722 37.652 109.55 38.4297 107.916 40.0929L109.771 41.9151ZM114.28 40.252C116.302 40.252 117.649 40.8285 118.538 41.8065L120.462 40.0575C118.951 38.3955 116.818 37.652 114.28 37.652V40.252ZM118.555 41.8246C119.477 42.8013 120.036 44.3064 120.036 46.548H122.636C122.636 43.8936 121.97 41.6547 120.445 40.0394L118.555 41.8246ZM120.036 46.548V47.196H122.636V46.548H120.036ZM120.036 47.196C120.036 48.0529 120.213 48.9919 120.885 49.6632L122.723 47.8248C122.749 47.8503 122.727 47.8447 122.697 47.7468C122.666 47.6439 122.636 47.4684 122.636 47.196H120.036ZM120.885 49.6632C121.526 50.305 122.383 50.512 123.208 50.512V47.912C123 47.912 122.872 47.8856 122.8 47.8617C122.765 47.8502 122.746 47.8398 122.736 47.834C122.727 47.8285 122.724 47.8253 122.723 47.8248L120.885 49.6632ZM123.208 50.512H124.144V47.912H123.208V50.512ZM124.144 50.512C123.758 50.512 123.474 50.3324 123.316 50.1766C123.178 50.0408 123.121 49.9137 123.109 49.8856C123.084 49.8286 123.102 49.8472 123.127 50.0195C123.173 50.3377 123.204 50.8825 123.204 51.696H125.804C125.804 50.8535 125.774 50.1563 125.7 49.6465C125.665 49.4048 125.608 49.1129 125.493 48.8489C125.429 48.701 125.067 47.912 124.144 47.912V50.512ZM123.204 51.696C123.204 52.4483 123.173 52.9423 123.129 53.2233C123.105 53.3769 123.09 53.3763 123.124 53.3042C123.142 53.2666 123.206 53.1375 123.351 53.0046C123.517 52.8526 123.79 52.7 124.144 52.7V55.3C125.015 55.3 125.391 54.5932 125.478 54.4078C125.602 54.1437 125.662 53.8551 125.698 53.6247C125.774 53.1377 125.804 52.4797 125.804 51.696H123.204ZM124.144 52.7H123.208V55.3H124.144V52.7ZM123.208 52.7C121.375 52.7 120.548 52.1878 120.17 51.583L117.965 52.961C119.027 54.6602 120.96 55.3 123.208 55.3V52.7ZM118.089 51.4159C117.771 51.7802 117.292 52.0999 116.579 52.3314L117.381 54.8046C118.443 54.4601 119.357 53.9158 120.046 53.1281L118.089 51.4159ZM116.579 52.3314C115.833 52.5732 115.01 52.7 114.1 52.7V55.3C115.254 55.3 116.35 55.1388 117.381 54.8046L116.579 52.3314ZM114.1 52.7C112.992 52.7 112.159 52.5656 111.556 52.3463L110.668 54.7897C111.648 55.1464 112.807 55.3 114.1 55.3V52.7ZM111.588 52.3585C110.972 52.1156 110.618 51.8214 110.415 51.5296L108.281 53.0144C108.846 53.8266 109.668 54.3964 110.635 54.7775L111.588 52.3585ZM108.313 51.4854C107.996 51.9021 107.606 52.2029 107.123 52.4028L108.117 54.8052C109.026 54.4291 109.787 53.8419 110.383 53.0586L108.313 51.4854ZM107.144 52.394C106.677 52.5778 105.99 52.7 105.028 52.7V55.3C106.178 55.3 107.219 55.1582 108.095 54.814L107.144 52.394ZM105.028 52.7H104.092V55.3H105.028V52.7ZM104.092 52.7C104.445 52.7 104.718 52.8526 104.885 53.0046C105.03 53.1375 105.094 53.2666 105.111 53.3042C105.145 53.3763 105.13 53.3769 105.106 53.2233C105.062 52.9423 105.032 52.4483 105.032 51.696H102.432C102.432 52.4797 102.461 53.1377 102.537 53.6247C102.573 53.8551 102.633 54.1437 102.757 54.4078C102.844 54.5932 103.22 55.3 104.092 55.3V52.7ZM105.032 51.696C105.032 50.8825 105.062 50.3377 105.108 50.0195C105.133 49.8472 105.151 49.8286 105.126 49.8856C105.114 49.9137 105.058 50.0408 104.92 50.1766C104.762 50.3324 104.478 50.512 104.092 50.512V47.912C103.168 47.912 102.806 48.701 102.742 48.8489C102.627 49.1129 102.57 49.4048 102.535 49.6465C102.461 50.1563 102.432 50.8535 102.432 51.696H105.032ZM104.092 50.512H105.028V47.912H104.092V50.512ZM118.1 46.548C118.1 45.3736 117.841 44.2501 117.095 43.4142C116.323 42.5502 115.241 42.224 114.1 42.224V44.824C114.759 44.824 115.026 45.0018 115.155 45.1458C115.309 45.3179 115.5 45.7064 115.5 46.548H118.1ZM114.1 42.224C112.959 42.224 111.876 42.5502 111.105 43.4142C110.359 44.2501 110.1 45.3736 110.1 46.548H112.7C112.7 45.7064 112.891 45.3179 113.045 45.1458C113.173 45.0018 113.441 44.824 114.1 44.824V42.224ZM110.1 46.548C110.1 47.6229 110.371 48.644 111.082 49.4337L113.014 47.6943C112.861 47.524 112.7 47.2011 112.7 46.548H110.1ZM111.129 49.4832C111.914 50.269 112.987 50.548 114.1 50.548V47.948C113.388 47.948 113.093 47.771 112.967 47.6448L111.129 49.4832ZM114.1 50.548C115.188 50.548 116.262 50.2926 117.035 49.5192L115.197 47.6808C115.106 47.7714 114.835 47.948 114.1 47.948V50.548ZM117.035 49.5192C117.821 48.7335 118.1 47.6604 118.1 46.548H115.5C115.5 47.2596 115.323 47.5545 115.197 47.6808L117.035 49.5192ZM131.295 48.852L131.04 47.5772L131.035 47.5783L131.295 48.852ZM135.003 47.412L135.643 48.5433L135.647 48.5415L135.003 47.412ZM138.351 45.504L138.995 46.6335L139.862 46.139L139.608 45.1732L138.351 45.504ZM137.271 43.668L136.5 44.7146L136.53 44.7372L136.562 44.758L137.271 43.668ZM126.939 43.164L125.647 43.0172L125.483 44.464H126.939V43.164ZM127.479 38.412V37.112H126.318L126.187 38.2652L127.479 38.412ZM139.719 39.204L139.08 40.3363L139.091 40.3426L139.103 40.3486L139.719 39.204ZM142.059 41.832L140.896 42.4134L140.903 42.4269L140.91 42.4403L142.059 41.832ZM143.787 47.016L144.472 48.1206L145.259 47.6326L145.055 46.7297L143.787 47.016ZM136.767 51.372L137.45 52.478L137.452 52.4766L136.767 51.372ZM132.087 53.46L132.393 54.7235L132.402 54.7212L132.412 54.7188L132.087 53.46ZM137.487 57.744H138.787V56.444H137.487V57.744ZM137.487 61.848V63.148H138.787V61.848H137.487ZM127.335 61.848H126.035V63.148H127.335V61.848ZM127.335 57.744V56.444H126.035V57.744H127.335ZM130.359 67.5H129.059V68.8H130.359V67.5ZM130.359 63.576V62.276H129.059V63.576H130.359ZM134.463 63.576H135.763V62.276H134.463V63.576ZM134.463 67.5V68.8H135.763V67.5H134.463ZM126.795 50.512C128.666 50.512 130.261 50.3897 131.555 50.1257L131.035 47.5783C129.976 47.7943 128.572 47.912 126.795 47.912V50.512ZM131.55 50.1268C132.908 49.855 134.274 49.3185 135.643 48.5433L134.362 46.2807C133.188 46.9455 132.081 47.369 131.04 47.5772L131.55 50.1268ZM135.647 48.5415L138.995 46.6335L137.707 44.3745L134.359 46.2825L135.647 48.5415ZM139.608 45.1732C139.336 44.1383 138.859 43.1497 137.979 42.578L136.562 44.758C136.643 44.8103 136.886 45.0457 137.094 45.8348L139.608 45.1732ZM138.042 42.6214C137.259 42.0443 136.231 41.864 135.183 41.864V44.464C136.006 44.464 136.371 44.6197 136.5 44.7146L138.042 42.6214ZM135.183 41.864H126.939V44.464H135.183V41.864ZM128.231 43.3108L128.771 38.5588L126.187 38.2652L125.647 43.0172L128.231 43.3108ZM127.479 39.712H136.047V37.112H127.479V39.712ZM136.047 39.712C137.421 39.712 138.402 39.954 139.08 40.3363L140.358 38.0717C139.163 37.398 137.696 37.112 136.047 37.112V39.712ZM139.103 40.3486C139.739 40.6913 140.355 41.3307 140.896 42.4134L143.222 41.2506C142.515 39.8373 141.571 38.7247 140.335 38.0594L139.103 40.3486ZM140.91 42.4403C141.481 43.5183 142.026 45.1197 142.519 47.3023L145.055 46.7297C144.54 44.4483 143.933 42.5937 143.208 41.2237L140.91 42.4403ZM143.101 45.9114L136.081 50.2674L137.452 52.4766L144.472 48.1206L143.101 45.9114ZM136.084 50.266C134.536 51.2216 133.097 51.8568 131.762 52.2012L132.412 54.7188C134.053 54.2952 135.733 53.5384 137.45 52.478L136.084 50.266ZM131.781 52.1965C130.426 52.5244 128.7 52.7 126.579 52.7V55.3C128.826 55.3 130.772 55.1156 132.393 54.7235L131.781 52.1965ZM126.579 52.7H124.131V55.3H126.579V52.7ZM124.131 52.7C124.484 52.7 124.757 52.8526 124.924 53.0046C125.069 53.1375 125.133 53.2666 125.15 53.3042C125.184 53.3763 125.169 53.3769 125.145 53.2233C125.101 52.9423 125.071 52.4483 125.071 51.696H122.471C122.471 52.4797 122.5 53.1377 122.576 53.6247C122.612 53.8551 122.673 54.1437 122.796 54.4078C122.883 54.5932 123.259 55.3 124.131 55.3V52.7ZM125.071 51.696C125.071 50.8825 125.101 50.3377 125.147 50.0195C125.172 49.8472 125.19 49.8286 125.166 49.8856C125.153 49.9137 125.097 50.0408 124.959 50.1766C124.801 50.3324 124.517 50.512 124.131 50.512V47.912C123.208 47.912 122.845 48.701 122.781 48.8489C122.666 49.1129 122.609 49.4048 122.574 49.6465C122.5 50.1563 122.471 50.8535 122.471 51.696H125.071ZM124.131 50.512H126.795V47.912H124.131V50.512ZM136.187 57.744V61.848H138.787V57.744H136.187ZM137.487 60.548H127.335V63.148H137.487V60.548ZM128.635 61.848V57.744H126.035V61.848H128.635ZM127.335 59.044H137.487V56.444H127.335V59.044ZM131.659 67.5V63.576H129.059V67.5H131.659ZM130.359 64.876H134.463V62.276H130.359V64.876ZM133.163 63.576V67.5H135.763V63.576H133.163ZM134.463 66.2H130.359V68.8H134.463V66.2ZM166.013 56.448L165.106 55.5166L165.1 55.5226L165.094 55.5288L166.013 56.448ZM167.381 41.616V40.316H166.081V41.616H167.381ZM171.953 41.616H173.253V40.316H171.953V41.616ZM172.493 48.708L171.574 49.6272L171.604 49.6578L171.637 49.6863L172.493 48.708ZM172.961 53.82L172.55 55.0533L172.581 55.0637L172.613 55.0726L172.961 53.82ZM171.953 53.244L172.872 52.3248L170.773 50.2252L170.654 53.192L171.953 53.244ZM170.621 58.068L169.495 57.4189L169.49 57.4261L169.486 57.4334L170.621 58.068ZM167.273 61.38L166.646 60.2409L166.639 60.2449L166.632 60.249L167.273 61.38ZM161.081 62.604L159.785 62.7112L159.884 63.904H161.081V62.604ZM160.685 57.816V56.516H159.273L159.389 57.9232L160.685 57.816ZM167.057 37.872H165.757V39.172H167.057V37.872ZM167.057 33.768V32.468H165.757V33.768H167.057ZM171.953 33.768H173.253V32.468H171.953V33.768ZM171.953 37.872V39.172H173.253V37.872H171.953ZM162.161 59.116C164.059 59.116 165.712 58.587 166.932 57.3672L165.094 55.5288C164.489 56.133 163.575 56.516 162.161 56.516V59.116ZM166.92 57.3794C168.149 56.1825 168.681 54.5467 168.681 52.668H166.081C166.081 54.0533 165.701 54.9375 165.106 55.5166L166.92 57.3794ZM168.681 52.668V41.616H166.081V52.668H168.681ZM167.381 42.916H171.953V40.316H167.381V42.916ZM170.653 41.616V47.052H173.253V41.616H170.653ZM170.653 47.052C170.653 47.982 170.877 48.9304 171.574 49.6272L173.412 47.7888C173.389 47.7656 173.253 47.61 173.253 47.052H170.653ZM171.637 49.6863C172.364 50.3228 173.34 50.512 174.293 50.512V47.912C173.614 47.912 173.39 47.7652 173.349 47.7297L171.637 49.6863ZM174.293 50.512H174.941V47.912H174.293V50.512ZM174.941 50.512C174.555 50.512 174.271 50.3324 174.113 50.1766C173.975 50.0408 173.918 49.9137 173.906 49.8856C173.881 49.8286 173.899 49.8472 173.924 50.0195C173.97 50.3377 174.001 50.8825 174.001 51.696H176.601C176.601 50.8535 176.571 50.1563 176.497 49.6465C176.462 49.4048 176.405 49.1129 176.291 48.8489C176.226 48.701 175.864 47.912 174.941 47.912V50.512ZM174.001 51.696C174.001 52.4483 173.97 52.9423 173.927 53.2233C173.903 53.3769 173.888 53.3763 173.921 53.3042C173.939 53.2666 174.003 53.1375 174.148 53.0046C174.314 52.8526 174.588 52.7 174.941 52.7V55.3C175.813 55.3 176.189 54.5932 176.276 54.4078C176.399 54.1437 176.459 53.8551 176.495 53.6247C176.571 53.1377 176.601 52.4797 176.601 51.696H174.001ZM174.941 52.7H174.365V55.3H174.941V52.7ZM174.365 52.7C173.964 52.7 173.615 52.6523 173.309 52.5674L172.613 55.0726C173.171 55.2277 173.758 55.3 174.365 55.3V52.7ZM173.372 52.5867C173.069 52.4857 172.929 52.3819 172.872 52.3248L171.034 54.1632C171.457 54.5861 171.989 54.8663 172.55 55.0533L173.372 52.5867ZM170.654 53.192C170.589 54.8039 170.195 56.2031 169.495 57.4189L171.747 58.7171C172.679 57.1009 173.172 55.2841 173.252 53.296L170.654 53.192ZM169.486 57.4334C168.815 58.6341 167.876 59.5646 166.646 60.2409L167.899 62.5191C169.55 61.6114 170.843 60.3339 171.756 58.7026L169.486 57.4334ZM166.632 60.249C165.417 60.9376 163.965 61.304 162.233 61.304V63.904C164.341 63.904 166.249 63.4544 167.914 62.511L166.632 60.249ZM162.233 61.304H161.081V63.904H162.233V61.304ZM162.376 62.4968L161.98 57.7088L159.389 57.9232L159.785 62.7112L162.376 62.4968ZM160.685 59.116H162.161V56.516H160.685V59.116ZM168.357 37.872V33.768H165.757V37.872H168.357ZM167.057 35.068H171.953V32.468H167.057V35.068ZM170.653 33.768V37.872H173.253V33.768H170.653ZM171.953 36.572H167.057V39.172H171.953V36.572ZM180.548 48.744L181.399 49.7264L181.404 49.7223L180.548 48.744ZM181.124 41.616V40.316H179.824V41.616H181.124ZM185.696 41.616H186.996V40.316H185.696V41.616ZM183.392 52.272L184.494 51.583L183.468 49.9412L182.337 51.5124L183.392 52.272ZM181.664 53.604L182.125 54.8195L182.136 54.8154L182.146 54.811L181.664 53.604ZM174.968 61.848H173.668V63.148H174.968V61.848ZM174.968 57.744V56.444H173.668V57.744H174.968ZM179.864 57.744H181.164V56.444H179.864V57.744ZM179.864 61.848V63.148H181.164V61.848H179.864ZM179.108 50.512C179.937 50.512 180.746 50.2921 181.399 49.7264L179.696 47.7616C179.629 47.8199 179.479 47.912 179.108 47.912V50.512ZM181.404 49.7223C182.108 49.1061 182.424 48.273 182.424 47.376H179.824C179.824 47.631 179.755 47.7099 179.692 47.7656L181.404 49.7223ZM182.424 47.376V41.616H179.824V47.376H182.424ZM181.124 42.916H185.696V40.316H181.124V42.916ZM184.396 41.616V47.232H186.996V41.616H184.396ZM184.396 47.232C184.396 48.0984 184.618 48.9856 185.289 49.6445C185.955 50.2991 186.845 50.512 187.712 50.512V47.912C187.234 47.912 187.116 47.7949 187.111 47.7895C187.109 47.7884 186.996 47.6856 186.996 47.232H184.396ZM187.712 50.512H189.08V47.912H187.712V50.512ZM189.08 50.512C188.707 50.512 188.427 50.3434 188.265 50.1888C188.124 50.054 188.065 49.9259 188.051 49.894C188.022 49.831 188.039 49.842 188.064 50.0069C188.109 50.3104 188.14 50.8349 188.14 51.624H190.74C190.74 50.8051 190.71 50.1236 190.635 49.6231C190.6 49.386 190.542 49.0955 190.424 48.8315C190.351 48.6683 189.983 47.912 189.08 47.912V50.512ZM188.14 51.624C188.14 52.4008 188.109 52.9152 188.064 53.2113C188.04 53.3724 188.024 53.3795 188.054 53.3136C188.069 53.2798 188.13 53.1513 188.272 53.017C188.435 52.8632 188.713 52.7 189.08 52.7V55.3C189.972 55.3 190.343 54.5602 190.421 54.3894C190.541 54.1255 190.599 53.8356 190.635 53.6007C190.71 53.1048 190.74 52.4312 190.74 51.624H188.14ZM189.08 52.7H187.496V55.3H189.08V52.7ZM187.496 52.7C185.694 52.7 184.875 52.192 184.494 51.583L182.289 52.961C183.349 54.656 185.265 55.3 187.496 55.3V52.7ZM182.337 51.5124C182.056 51.9019 181.683 52.196 181.181 52.397L182.146 54.811C183.084 54.436 183.863 53.8421 184.447 53.0316L182.337 51.5124ZM181.203 52.3885C180.696 52.5807 180.01 52.7 179.108 52.7V55.3C180.221 55.3 181.239 55.1553 182.125 54.8195L181.203 52.3885ZM179.108 52.7H174.932V55.3H179.108V52.7ZM174.932 52.7C175.285 52.7 175.558 52.8526 175.724 53.0046C175.87 53.1375 175.934 53.2666 175.951 53.3042C175.985 53.3763 175.97 53.3769 175.946 53.2233C175.902 52.9423 175.872 52.4483 175.872 51.696H173.272C173.272 52.4797 173.301 53.1377 173.377 53.6247C173.413 53.8551 173.473 54.1437 173.597 54.4078C173.684 54.5932 174.06 55.3 174.932 55.3V52.7ZM175.872 51.696C175.872 50.8825 175.902 50.3377 175.948 50.0195C175.973 49.8472 175.991 49.8286 175.966 49.8856C175.954 49.9137 175.898 50.0408 175.76 50.1766C175.602 50.3324 175.318 50.512 174.932 50.512V47.912C174.008 47.912 173.646 48.701 173.582 48.8489C173.467 49.1129 173.41 49.4048 173.375 49.6465C173.301 50.1563 173.272 50.8535 173.272 51.696H175.872ZM174.932 50.512H179.108V47.912H174.932V50.512ZM176.268 61.848V57.744H173.668V61.848H176.268ZM174.968 59.044H179.864V56.444H174.968V59.044ZM178.564 57.744V61.848H181.164V57.744H178.564ZM179.864 60.548H174.968V63.148H179.864V60.548ZM193.672 48.636L192.809 47.6644L192.795 47.6767L192.781 47.6893L193.672 48.636ZM194.32 41.616V40.316H193.02V41.616H194.32ZM198.892 41.616H200.192V40.316H198.892V41.616ZM203.212 48.636L202.349 47.6644L202.335 47.6767L202.321 47.6893L203.212 48.636ZM203.86 41.616V40.316H202.56V41.616H203.86ZM208.432 41.616H209.732V40.316H208.432V41.616ZM213.04 41.616V40.316H211.74V41.616H213.04ZM217.612 41.616H218.912V40.316H217.612V41.616ZM215.776 52.2L216.696 53.1192L216.696 53.1192L215.776 52.2ZM207.676 53.532L207.155 54.723L207.171 54.7299L207.187 54.7364L207.676 53.532ZM205.948 52.092L207.056 51.4107L206.041 49.762L204.899 51.325L205.948 52.092ZM204.148 53.532L204.665 54.7248L204.674 54.7209L204.684 54.7168L204.148 53.532ZM198.208 53.532L197.701 54.7288L197.716 54.7353L197.732 54.7415L198.208 53.532ZM196.444 52.092L197.552 51.4107L196.541 49.7679L195.397 51.3215L196.444 52.092ZM191.836 50.512C192.834 50.512 193.824 50.2788 194.563 49.5827L192.781 47.6893C192.705 47.7612 192.471 47.912 191.836 47.912V50.512ZM194.536 49.6076C195.292 48.9359 195.62 48.0288 195.62 47.052H193.02C193.02 47.4192 192.917 47.5681 192.809 47.6644L194.536 49.6076ZM195.62 47.052V41.616H193.02V47.052H195.62ZM194.32 42.916H198.892V40.316H194.32V42.916ZM197.592 41.616V47.052H200.192V41.616H197.592ZM197.592 47.052C197.592 48.0234 197.88 48.9745 198.66 49.653C199.406 50.3013 200.389 50.512 201.376 50.512V47.912C200.708 47.912 200.449 47.7627 200.366 47.691C200.319 47.6495 200.192 47.5206 200.192 47.052H197.592ZM201.376 50.512C202.374 50.512 203.364 50.2788 204.103 49.5827L202.321 47.6893C202.245 47.7612 202.011 47.912 201.376 47.912V50.512ZM204.076 49.6076C204.832 48.9359 205.16 48.0288 205.16 47.052H202.56C202.56 47.4192 202.457 47.5681 202.349 47.6644L204.076 49.6076ZM205.16 47.052V41.616H202.56V47.052H205.16ZM203.86 42.916H208.432V40.316H203.86V42.916ZM207.132 41.616V47.052H209.732V41.616H207.132ZM207.132 47.052C207.132 47.9946 207.388 48.9346 208.119 49.6204C208.835 50.2914 209.788 50.512 210.736 50.512V47.912C210.149 47.912 209.95 47.7726 209.898 47.7236C209.861 47.6894 209.732 47.5494 209.732 47.052H207.132ZM210.736 50.512C211.685 50.512 212.638 50.2914 213.354 49.6204C214.085 48.9346 214.34 47.9946 214.34 47.052H211.74C211.74 47.5494 211.612 47.6894 211.575 47.7236C211.523 47.7726 211.324 47.912 210.736 47.912V50.512ZM214.34 47.052V41.616H211.74V47.052H214.34ZM213.04 42.916H217.612V40.316H213.04V42.916ZM216.312 41.616V47.088H218.912V41.616H216.312ZM216.312 47.088C216.312 49.0222 215.778 50.3604 214.857 51.2808L216.696 53.1192C218.223 51.5916 218.912 49.5218 218.912 47.088H216.312ZM214.857 51.2808C213.963 52.175 212.65 52.7 210.736 52.7V55.3C213.142 55.3 215.19 54.625 216.696 53.1192L214.857 51.2808ZM210.736 52.7C209.552 52.7 208.718 52.552 208.166 52.3276L207.187 54.7364C208.171 55.136 209.377 55.3 210.736 55.3V52.7ZM208.198 52.341C207.636 52.0954 207.281 51.7776 207.056 51.4107L204.841 52.7733C205.384 53.6544 206.181 54.2966 207.155 54.723L208.198 52.341ZM204.899 51.325C204.583 51.7573 204.165 52.0983 203.613 52.3472L204.684 54.7168C205.62 54.2937 206.402 53.6747 206.998 52.859L204.899 51.325ZM203.632 52.3392C203.13 52.5566 202.398 52.7 201.376 52.7V55.3C202.611 55.3 203.727 55.1314 204.665 54.7248L203.632 52.3392ZM201.376 52.7C200.139 52.7 199.265 52.5511 198.685 52.3225L197.732 54.7415C198.736 55.1369 199.973 55.3 201.376 55.3V52.7ZM198.716 52.3352C198.128 52.0858 197.771 51.7668 197.552 51.4107L195.337 52.7733C195.886 53.6652 196.705 54.3062 197.701 54.7288L198.716 52.3352ZM195.397 51.3215C194.787 52.1512 193.717 52.7 191.836 52.7V55.3C194.228 55.3 196.23 54.5768 197.492 52.8625L195.397 51.3215ZM191.836 52.7H189.064V55.3H191.836V52.7ZM189.064 52.7C189.418 52.7 189.691 52.8526 189.857 53.0046C190.003 53.1375 190.066 53.2666 190.084 53.3042C190.118 53.3763 190.103 53.3769 190.079 53.2233C190.035 52.9423 190.004 52.4483 190.004 51.696H187.404C187.404 52.4797 187.434 53.1377 187.51 53.6247C187.546 53.8551 187.606 54.1437 187.73 54.4078C187.817 54.5932 188.193 55.3 189.064 55.3V52.7ZM190.004 51.696C190.004 50.8825 190.035 50.3377 190.081 50.0195C190.106 49.8472 190.124 49.8286 190.099 49.8856C190.087 49.9137 190.03 50.0408 189.893 50.1766C189.735 50.3324 189.451 50.512 189.064 50.512V47.912C188.141 47.912 187.779 48.701 187.715 48.8489C187.6 49.1129 187.543 49.4048 187.508 49.6465C187.434 50.1563 187.404 50.8535 187.404 51.696H190.004ZM189.064 50.512H191.836V47.912H189.064V50.512ZM262.748 24.048L263.999 23.6951L263.604 22.2943L262.256 22.8444L262.748 24.048ZM263.54 26.856L264.025 28.0619L265.108 27.626L264.791 26.5031L263.54 26.856ZM250.58 32.076H249.28V34.0011L251.065 33.2819L250.58 32.076ZM250.58 29.016L250.088 27.8124L249.28 28.1426V29.016H250.58ZM240.068 52.308L239.148 53.2273L239.158 53.2369L240.068 52.308ZM238.34 41.616V40.316H237.04V41.616H238.34ZM242.912 41.616H244.212V40.316H242.912V41.616ZM243.452 48.6L242.477 49.4601L242.491 49.4758L242.505 49.491L243.452 48.6ZM258.968 48.852L259.627 49.9725L259.627 49.9725L258.968 48.852ZM259.292 46.8L258.147 47.4163L258.165 47.4494L258.185 47.4813L259.292 46.8ZM258.392 45.684L259.311 44.7648L259.306 44.7594L259.3 44.7541L258.392 45.684ZM250.58 38.052H249.28V38.5994L249.671 38.9819L250.58 38.052ZM250.58 34.308L250.112 33.0949L249.28 33.4157V34.308H250.58ZM264.224 29.052L265.472 28.6895L265.077 27.33L263.756 27.8389L264.224 29.052ZM265.52 33.516L265.977 34.7328L267.104 34.3093L266.768 33.1535L265.52 33.516ZM256.232 37.008L255.774 35.7912L253.88 36.5035L255.315 37.9302L256.232 37.008ZM261.848 42.588L262.767 41.6688L262.764 41.6658L261.848 42.588ZM266.492 47.052L265.632 48.0275L265.638 48.0325L265.644 48.0374L266.492 47.052ZM268.976 48.816L268.431 49.9963L268.45 50.0051L268.469 50.0133L268.976 48.816ZM268.184 53.748L267.897 55.0161L267.906 55.018L268.184 53.748ZM266.06 52.848L265.33 53.9237L265.343 53.9328L265.357 53.9415L266.06 52.848ZM263.648 50.724L264.579 49.8165L263.177 48.3789L262.439 50.246L263.648 50.724ZM261.38 53.136L260.778 51.9834L261.38 53.136ZM261.497 24.4009L262.289 27.2089L264.791 26.5031L263.999 23.6951L261.497 24.4009ZM263.054 25.6501L250.094 30.8701L251.065 33.2819L264.025 28.0619L263.054 25.6501ZM251.88 32.076V29.016H249.28V32.076H251.88ZM251.071 30.2196L263.239 25.2516L262.256 22.8444L250.088 27.8124L251.071 30.2196ZM245.036 52.7C243.097 52.7 241.813 52.1974 240.977 51.3791L239.158 53.2369C240.627 54.6746 242.654 55.3 245.036 55.3V52.7ZM240.987 51.3888C240.148 50.5494 239.64 49.2787 239.64 47.376H237.04C237.04 49.7453 237.684 51.7626 239.148 53.2272L240.987 51.3888ZM239.64 47.376V41.616H237.04V47.376H239.64ZM238.34 42.916H242.912V40.316H238.34V42.916ZM241.612 41.616V46.764H244.212V41.616H241.612ZM241.612 46.764C241.612 47.7431 241.824 48.7203 242.477 49.4601L244.427 47.7399C244.359 47.6637 244.212 47.4169 244.212 46.764H241.612ZM242.505 49.491C243.229 50.2598 244.242 50.512 245.252 50.512V47.912C244.629 47.912 244.443 47.7562 244.398 47.709L242.505 49.491ZM245.252 50.512H257.24V47.912H245.252V50.512ZM257.24 50.512C258.095 50.512 258.936 50.379 259.627 49.9725L258.309 47.7315C258.184 47.805 257.873 47.912 257.24 47.912V50.512ZM259.627 49.9725C260.386 49.526 260.88 48.7876 260.88 47.844H258.28C258.28 47.8491 258.279 47.8382 258.285 47.8163C258.291 47.7936 258.301 47.7686 258.316 47.7453C258.346 47.6956 258.365 47.6983 258.309 47.7315L259.627 49.9725ZM260.88 47.844C260.88 47.2316 260.723 46.6457 260.399 46.1187L258.185 47.4813C258.244 47.5783 258.28 47.6884 258.28 47.844H260.88ZM260.436 46.1837C260.18 45.7081 259.778 45.2315 259.311 44.7648L257.472 46.6032C257.87 47.0005 258.067 47.2679 258.147 47.4163L260.436 46.1837ZM259.3 44.7541L251.488 37.1221L249.671 38.9819L257.483 46.6139L259.3 44.7541ZM251.88 38.052V34.308H249.28V38.052H251.88ZM251.047 35.5211L264.691 30.2651L263.756 27.8389L250.112 33.0949L251.047 35.5211ZM262.975 29.4145L264.271 33.8785L266.768 33.1535L265.472 28.6895L262.975 29.4145ZM265.062 32.2992L255.774 35.7912L256.689 38.2248L265.977 34.7328L265.062 32.2992ZM255.315 37.9302L260.931 43.5102L262.764 41.6658L257.148 36.0858L255.315 37.9302ZM260.928 43.5072C263.019 45.5974 264.591 47.1103 265.632 48.0275L267.351 46.0765C266.376 45.2177 264.853 43.7546 262.767 41.6688L260.928 43.5072ZM265.644 48.0374C266.696 48.943 267.636 49.6296 268.431 49.9963L269.521 47.6357C269.067 47.4264 268.351 46.937 267.34 46.0666L265.644 48.0374ZM268.469 50.0133C269.287 50.3592 270.198 50.512 271.172 50.512V47.912C270.465 47.912 269.913 47.8008 269.482 47.6187L268.469 50.0133ZM271.172 50.512C270.786 50.512 270.502 50.3324 270.344 50.1766C270.206 50.0408 270.149 49.9137 270.137 49.8856C270.112 49.8286 270.13 49.8472 270.155 50.0195C270.201 50.3377 270.232 50.8825 270.232 51.696H272.832C272.832 50.8535 272.802 50.1563 272.728 49.6465C272.693 49.4048 272.636 49.1129 272.521 48.8489C272.457 48.701 272.095 47.912 271.172 47.912V50.512ZM270.232 51.696C270.232 52.4483 270.201 52.9423 270.157 53.2233C270.133 53.3769 270.118 53.3763 270.152 53.3042C270.17 53.2666 270.234 53.1375 270.379 53.0046C270.545 52.8526 270.818 52.7 271.172 52.7V55.3C272.043 55.3 272.419 54.5932 272.506 54.4078C272.63 54.1437 272.69 53.8551 272.726 53.6247C272.802 53.1377 272.832 52.4797 272.832 51.696H270.232ZM271.172 52.7C269.996 52.7 269.103 52.6183 268.462 52.478L267.906 55.018C268.801 55.2137 269.9 55.3 271.172 55.3V52.7ZM268.47 52.4799C267.881 52.3469 267.313 52.1084 266.763 51.7545L265.357 53.9415C266.15 54.4516 266.998 54.8131 267.897 55.0161L268.47 52.4799ZM266.79 51.7723C266.222 51.3868 265.487 50.7486 264.579 49.8165L262.717 51.6315C263.68 52.6194 264.554 53.3972 265.33 53.9237L266.79 51.7723ZM262.439 50.246C262.16 50.9516 261.642 51.5331 260.778 51.9834L261.981 54.2886C263.326 53.5869 264.32 52.5604 264.857 51.202L262.439 50.246ZM260.778 51.9834C259.901 52.4412 258.786 52.7 257.384 52.7V55.3C259.101 55.3 260.65 54.9828 261.981 54.2886L260.778 51.9834ZM257.384 52.7H245.036V55.3H257.384V52.7ZM279.47 52.308L280.37 53.2462L280.371 53.2458L279.47 52.308ZM276.122 48.744L276.974 49.7264L276.978 49.7223L276.122 48.744ZM276.698 41.616V40.316H275.398V41.616H276.698ZM281.27 41.616H282.57V40.316H281.27V41.616ZM274.61 37.872H273.31V39.172H274.61V37.872ZM274.61 33.768V32.468H273.31V33.768H274.61ZM279.506 33.768H280.806V32.468H279.506V33.768ZM279.506 37.872V39.172H280.806V37.872H279.506ZM279.97 47.592C279.97 49.3054 279.465 50.511 278.57 51.3702L280.371 53.2458C281.876 51.801 282.57 49.8626 282.57 47.592H279.97ZM278.57 51.3698C277.691 52.2135 276.447 52.7 274.682 52.7V55.3C276.95 55.3 278.898 54.6585 280.37 53.2462L278.57 51.3698ZM274.682 52.7H271.154V55.3H274.682V52.7ZM271.154 52.7C271.508 52.7 271.781 52.8526 271.947 53.0046C272.092 53.1375 272.156 53.2666 272.174 53.3042C272.208 53.3763 272.193 53.3769 272.169 53.2233C272.125 52.9423 272.094 52.4483 272.094 51.696H269.494C269.494 52.4797 269.524 53.1377 269.6 53.6247C269.636 53.8551 269.696 54.1437 269.82 54.4078C269.907 54.5932 270.283 55.3 271.154 55.3V52.7ZM272.094 51.696C272.094 50.8825 272.125 50.3377 272.171 50.0195C272.196 49.8472 272.214 49.8286 272.189 49.8856C272.177 49.9137 272.12 50.0408 271.983 50.1766C271.824 50.3324 271.541 50.512 271.154 50.512V47.912C270.231 47.912 269.869 48.701 269.805 48.8489C269.69 49.1129 269.633 49.4048 269.598 49.6465C269.524 50.1563 269.494 50.8535 269.494 51.696H272.094ZM271.154 50.512H274.682V47.912H271.154V50.512ZM274.682 50.512C275.511 50.512 276.321 50.2921 276.974 49.7264L275.271 47.7616C275.204 47.8199 275.053 47.912 274.682 47.912V50.512ZM276.978 49.7223C277.683 49.1061 277.998 48.273 277.998 47.376H275.398C275.398 47.631 275.33 47.7099 275.266 47.7656L276.978 49.7223ZM277.998 47.376V41.616H275.398V47.376H277.998ZM276.698 42.916H281.27V40.316H276.698V42.916ZM279.97 41.616V47.592H282.57V41.616H279.97ZM275.91 37.872V33.768H273.31V37.872H275.91ZM274.61 35.068H279.506V32.468H274.61V35.068ZM278.206 33.768V37.872H280.806V33.768H278.206ZM279.506 36.572H274.61V39.172H279.506V36.572ZM291.105 57.852L289.957 57.2412L289.953 57.2488L291.105 57.852ZM287.685 61.344L287.06 60.2041L287.049 60.2102L287.038 60.2164L287.685 61.344ZM279.549 62.604L278.253 62.7112L278.352 63.904H279.549V62.604ZM279.153 57.816V56.516H277.741L277.857 57.9232L279.153 57.816ZM286.353 56.448L285.446 55.5166L285.44 55.5226L285.434 55.5288L286.353 56.448ZM287.721 41.616V40.316H286.421V41.616H287.721ZM292.293 41.616H293.593V40.316H292.293V41.616ZM290.993 52.668C290.993 54.4588 290.634 55.9705 289.957 57.2412L292.252 58.4628C293.16 56.7575 293.593 54.8132 293.593 52.668H290.993ZM289.953 57.2488C289.279 58.5354 288.322 59.512 287.06 60.2041L288.31 62.4839C290.024 61.544 291.346 60.1926 292.256 58.4552L289.953 57.2488ZM287.038 60.2164C285.799 60.9273 284.325 61.304 282.573 61.304V63.904C284.709 63.904 286.643 63.4407 288.332 62.4716L287.038 60.2164ZM282.573 61.304H279.549V63.904H282.573V61.304ZM280.844 62.4968L280.448 57.7088L277.857 57.9232L278.253 62.7112L280.844 62.4968ZM279.153 59.116H282.501V56.516H279.153V59.116ZM282.501 59.116C284.399 59.116 286.052 58.587 287.272 57.3672L285.434 55.5288C284.829 56.133 283.914 56.516 282.501 56.516V59.116ZM287.26 57.3794C288.489 56.1825 289.021 54.5467 289.021 52.668H286.421C286.421 54.0533 286.041 54.9375 285.446 55.5166L287.26 57.3794ZM289.021 52.668V41.616H286.421V52.668H289.021ZM287.721 42.916H292.293V40.316H287.721V42.916ZM290.993 41.616V52.668H293.593V41.616H290.993Z" fill="black" mask="url(#path-1-outside-1_637_82)"/>
<path d="M86.807 54V52.7H83.9421L85.8287 54.8561L86.807 54ZM85.799 59.004L86.8417 59.7804L86.8417 59.7804L85.799 59.004ZM82.307 61.632L81.8043 60.4331L81.7961 60.4366L81.788 60.4401L82.307 61.632ZM67.223 59.904L66.2786 60.7974L66.2789 60.7977L67.223 59.904ZM64.703 45.216V43.916H63.403V45.216H64.703ZM69.275 45.216H70.575V43.916H69.275V45.216ZM70.535 56.412L71.5025 55.5437L71.4969 55.5375L71.4912 55.5313L70.535 56.412ZM82.091 54.036L82.9142 53.0299L82.8856 53.0064L82.8556 52.9846L82.091 54.036ZM74.495 53.748L73.2009 53.6247L73.0653 55.048H74.495V53.748ZM74.927 49.212V47.912H73.7449L73.6329 49.0887L74.927 49.212ZM89.975 50.512C89.5888 50.512 89.3048 50.3324 89.1468 50.1766C89.009 50.0408 88.9525 49.9137 88.9403 49.8856C88.9155 49.8286 88.9335 49.8472 88.9585 50.0195C89.0046 50.3377 89.035 50.8825 89.035 51.696H91.635C91.635 50.8535 91.6055 50.1563 91.5316 49.6465C91.4965 49.4048 91.4395 49.1129 91.3247 48.8489C91.2604 48.701 90.8983 47.912 89.975 47.912V50.512ZM89.035 51.696C89.035 52.4483 89.0045 52.9423 88.9606 53.2233C88.9366 53.3769 88.9217 53.3763 88.9554 53.3042C88.973 53.2666 89.0368 53.1375 89.1822 53.0046C89.3484 52.8526 89.6217 52.7 89.975 52.7V55.3C90.8467 55.3 91.2227 54.5932 91.3096 54.4078C91.4334 54.1437 91.4934 53.8551 91.5294 53.6247C91.6055 53.1377 91.635 52.4797 91.635 51.696H89.035ZM89.975 52.7H86.807V55.3H89.975V52.7ZM85.8287 54.8561C85.7655 54.7838 85.7362 54.7238 85.7263 54.7011C85.7163 54.6782 85.719 54.6775 85.726 54.7098C85.7412 54.7791 85.759 54.9185 85.759 55.152H88.359C88.359 54.8095 88.3348 54.4689 88.266 54.1542C88.2002 53.8537 88.0714 53.4708 87.7854 53.1439L85.8287 54.8561ZM85.759 55.152C85.759 56.3194 85.425 57.3296 84.7564 58.2276L86.8417 59.7804C87.853 58.4224 88.359 56.8646 88.359 55.152H85.759ZM84.7564 58.2276C84.0747 59.1429 83.1099 59.8856 81.8043 60.4331L82.8098 62.8309C84.4802 62.1304 85.8433 61.1211 86.8417 59.7804L84.7564 58.2276ZM81.788 60.4401C80.4928 61.0042 78.9591 61.304 77.159 61.304V63.904C79.2469 63.904 81.1453 63.5559 82.8261 62.8239L81.788 60.4401ZM77.159 61.304H74.459V63.904H77.159V61.304ZM74.459 61.304C71.5979 61.304 69.5653 60.4873 68.1671 59.0103L66.2789 60.7977C68.2887 62.9207 71.0801 63.904 74.459 63.904V61.304ZM68.1674 59.0106C66.7805 57.5444 66.003 55.4076 66.003 52.416H63.403C63.403 55.8564 64.3056 58.7116 66.2786 60.7974L68.1674 59.0106ZM66.003 52.416V45.216H63.403V52.416H66.003ZM64.703 46.516H69.275V43.916H64.703V46.516ZM67.975 45.216V52.308H70.575V45.216H67.975ZM67.975 52.308C67.975 54.3071 68.4331 56.0488 69.5788 57.2927L71.4912 55.5313C70.9569 54.9512 70.575 53.9569 70.575 52.308H67.975ZM69.5675 57.2803C70.7422 58.5893 72.4704 59.116 74.459 59.116V56.516C72.8956 56.516 72.0078 56.1067 71.5025 55.5437L69.5675 57.2803ZM74.459 59.116H77.231V56.516H74.459V59.116ZM77.231 59.116C79.0521 59.116 80.615 58.8892 81.767 58.2974C82.3619 57.9918 82.8817 57.571 83.249 57.0049C83.6206 56.4323 83.787 55.7864 83.787 55.116H81.187C81.187 55.3456 81.1344 55.4872 81.068 55.5896C80.9974 55.6985 80.8601 55.8402 80.579 55.9847C79.979 56.2928 78.9139 56.516 77.231 56.516V59.116ZM83.787 55.116C83.787 54.4133 83.6021 53.5926 82.9142 53.0299L81.2678 55.0421C81.2365 55.0165 81.2113 54.9881 81.193 54.9615C81.1752 54.9356 81.1684 54.9179 81.1675 54.9155C81.1668 54.9138 81.172 54.9274 81.1772 54.9613C81.1824 54.9954 81.187 55.046 81.187 55.116H83.787ZM82.8556 52.9846C82.2493 52.5437 81.4699 52.448 80.795 52.448V55.048C81.0313 55.048 81.1897 55.0674 81.287 55.089C81.3872 55.1113 81.3802 55.1265 81.3264 55.0874L82.8556 52.9846ZM80.795 52.448H74.495V55.048H80.795V52.448ZM75.7892 53.8713L76.2212 49.3353L73.6329 49.0887L73.2009 53.6247L75.7892 53.8713ZM74.927 50.512H89.975V47.912H74.927V50.512ZM95.575 48.744L96.4264 49.7264L96.431 49.7223L95.575 48.744ZM96.151 41.616V40.316H94.851V41.616H96.151ZM100.723 41.616H102.023V40.316H100.723V41.616ZM98.419 52.272L99.5214 51.583L98.4953 49.9412L97.364 51.5124L98.419 52.272ZM96.691 53.604L97.152 54.8195L97.163 54.8154L97.1738 54.811L96.691 53.604ZM94.243 37.872H92.943V39.172H94.243V37.872ZM94.243 33.768V32.468H92.943V33.768H94.243ZM99.139 33.768H100.439V32.468H99.139V33.768ZM99.139 37.872V39.172H100.439V37.872H99.139ZM94.135 50.512C94.964 50.512 95.7736 50.2921 96.4264 49.7264L94.7236 47.7616C94.6563 47.8199 94.5059 47.912 94.135 47.912V50.512ZM96.431 49.7223C97.1353 49.1061 97.451 48.273 97.451 47.376H94.851C94.851 47.631 94.7827 47.7099 94.7189 47.7656L96.431 49.7223ZM97.451 47.376V41.616H94.851V47.376H97.451ZM96.151 42.916H100.723V40.316H96.151V42.916ZM99.423 41.616V47.232H102.023V41.616H99.423ZM99.423 47.232C99.423 48.0984 99.6452 48.9856 100.316 49.6445C100.983 50.2991 101.872 50.512 102.739 50.512V47.912C102.262 47.912 102.143 47.7949 102.138 47.7895C102.137 47.7884 102.023 47.6856 102.023 47.232H99.423ZM102.739 50.512H104.107V47.912H102.739V50.512ZM104.107 50.512C103.734 50.512 103.454 50.3434 103.292 50.1888C103.152 50.054 103.092 49.9259 103.078 49.894C103.05 49.831 103.067 49.842 103.091 50.0069C103.137 50.3104 103.167 50.8349 103.167 51.624H105.767C105.767 50.8051 105.737 50.1236 105.663 49.6231C105.627 49.386 105.569 49.0955 105.451 48.8315C105.378 48.6683 105.01 47.912 104.107 47.912V50.512ZM103.167 51.624C103.167 52.4008 103.137 52.9152 103.092 53.2113C103.067 53.3724 103.051 53.3795 103.081 53.3136C103.096 53.2798 103.157 53.1513 103.3 53.017C103.463 52.8632 103.74 52.7 104.107 52.7V55.3C105 55.3 105.37 54.5602 105.448 54.3894C105.568 54.1255 105.627 53.8356 105.662 53.6007C105.737 53.1048 105.767 52.4312 105.767 51.624H103.167ZM104.107 52.7H102.523V55.3H104.107V52.7ZM102.523 52.7C100.722 52.7 99.902 52.192 99.5214 51.583L97.3166 52.961C98.376 54.656 100.292 55.3 102.523 55.3V52.7ZM97.364 51.5124C97.0836 51.9019 96.7106 52.196 96.2082 52.397L97.1738 54.811C98.1114 54.436 98.8904 53.8421 99.474 53.0316L97.364 51.5124ZM96.2299 52.3885C95.7232 52.5807 95.0377 52.7 94.135 52.7V55.3C95.2483 55.3 96.2667 55.1553 97.152 54.8195L96.2299 52.3885ZM94.135 52.7H89.959V55.3H94.135V52.7ZM89.959 52.7C90.3123 52.7 90.5856 52.8526 90.7518 53.0046C90.8972 53.1375 90.961 53.2666 90.9786 53.3042C91.0123 53.3763 90.9974 53.3769 90.9734 53.2233C90.9295 52.9423 90.899 52.4483 90.899 51.696H88.299C88.299 52.4797 88.3285 53.1377 88.4046 53.6247C88.4406 53.8551 88.5006 54.1437 88.6244 54.4078C88.7113 54.5932 89.0873 55.3 89.959 55.3V52.7ZM90.899 51.696C90.899 50.8825 90.9294 50.3377 90.9755 50.0195C91.0005 49.8472 91.0185 49.8286 90.9937 49.8856C90.9815 49.9137 90.925 50.0408 90.7872 50.1766C90.6292 50.3324 90.3452 50.512 89.959 50.512V47.912C89.0357 47.912 88.6736 48.701 88.6093 48.8489C88.4945 49.1129 88.4375 49.4048 88.4024 49.6465C88.3285 50.1563 88.299 50.8535 88.299 51.696H90.899ZM89.959 50.512H94.135V47.912H89.959V50.512ZM95.543 37.872V33.768H92.943V37.872H95.543ZM94.243 35.068H99.139V32.468H94.243V35.068ZM97.839 33.768V37.872H100.439V33.768H97.839ZM99.139 36.572H94.243V39.172H99.139V36.572ZM106.432 48.816L105.553 47.8577L105.533 47.8768L105.513 47.8968L106.432 48.816ZM108.844 41.004L107.916 40.0929L107.916 40.0931L108.844 41.004ZM119.5 40.932L118.538 41.8065L118.546 41.8156L118.555 41.8246L119.5 40.932ZM121.804 48.744L122.723 47.8248L122.723 47.8248L121.804 48.744ZM119.068 52.272L120.17 51.583L119.242 50.0984L118.089 51.4159L119.068 52.272ZM111.112 53.568L110.635 54.7775L110.651 54.7838L110.668 54.7897L111.112 53.568ZM109.348 52.272L110.415 51.5296L109.394 50.0624L108.313 51.4854L109.348 52.272ZM107.62 53.604L108.095 54.814L108.106 54.8097L108.117 54.8052L107.62 53.604ZM112.048 48.564L111.082 49.4337L111.104 49.4591L111.129 49.4832L112.048 48.564ZM116.116 48.6L117.035 49.5192L117.035 49.5192L116.116 48.6ZM105.028 50.512C105.793 50.512 106.71 50.3767 107.351 49.7352L105.513 47.8968C105.578 47.8309 105.613 47.8384 105.53 47.8618C105.445 47.8857 105.286 47.912 105.028 47.912V50.512ZM107.31 49.7743C107.982 49.1581 108.164 48.2907 108.164 47.52H105.564C105.564 47.722 105.539 47.834 105.523 47.8829C105.509 47.9242 105.509 47.898 105.553 47.8577L107.31 49.7743ZM108.164 47.52V46.512H105.564V47.52H108.164ZM108.164 46.512C108.164 44.4398 108.744 42.9613 109.771 41.9149L107.916 40.0931C106.304 41.7347 105.564 43.9282 105.564 46.512H108.164ZM109.771 41.9151C110.825 40.8423 112.278 40.252 114.28 40.252V37.652C111.722 37.652 109.55 38.4297 107.916 40.0929L109.771 41.9151ZM114.28 40.252C116.302 40.252 117.649 40.8285 118.538 41.8065L120.462 40.0575C118.951 38.3955 116.818 37.652 114.28 37.652V40.252ZM118.555 41.8246C119.477 42.8013 120.036 44.3064 120.036 46.548H122.636C122.636 43.8936 121.97 41.6547 120.445 40.0394L118.555 41.8246ZM120.036 46.548V47.196H122.636V46.548H120.036ZM120.036 47.196C120.036 48.0529 120.213 48.9919 120.885 49.6632L122.723 47.8248C122.749 47.8503 122.727 47.8447 122.697 47.7468C122.666 47.6439 122.636 47.4684 122.636 47.196H120.036ZM120.885 49.6632C121.526 50.305 122.383 50.512 123.208 50.512V47.912C123 47.912 122.872 47.8856 122.8 47.8617C122.765 47.8502 122.746 47.8398 122.736 47.834C122.727 47.8285 122.724 47.8253 122.723 47.8248L120.885 49.6632ZM123.208 50.512H124.144V47.912H123.208V50.512ZM124.144 50.512C123.758 50.512 123.474 50.3324 123.316 50.1766C123.178 50.0408 123.121 49.9137 123.109 49.8856C123.084 49.8286 123.102 49.8472 123.127 50.0195C123.173 50.3377 123.204 50.8825 123.204 51.696H125.804C125.804 50.8535 125.774 50.1563 125.7 49.6465C125.665 49.4048 125.608 49.1129 125.493 48.8489C125.429 48.701 125.067 47.912 124.144 47.912V50.512ZM123.204 51.696C123.204 52.4483 123.173 52.9423 123.129 53.2233C123.105 53.3769 123.09 53.3763 123.124 53.3042C123.142 53.2666 123.206 53.1375 123.351 53.0046C123.517 52.8526 123.79 52.7 124.144 52.7V55.3C125.015 55.3 125.391 54.5932 125.478 54.4078C125.602 54.1437 125.662 53.8551 125.698 53.6247C125.774 53.1377 125.804 52.4797 125.804 51.696H123.204ZM124.144 52.7H123.208V55.3H124.144V52.7ZM123.208 52.7C121.375 52.7 120.548 52.1878 120.17 51.583L117.965 52.961C119.027 54.6602 120.96 55.3 123.208 55.3V52.7ZM118.089 51.4159C117.771 51.7802 117.292 52.0999 116.579 52.3314L117.381 54.8046C118.443 54.4601 119.357 53.9158 120.046 53.1281L118.089 51.4159ZM116.579 52.3314C115.833 52.5732 115.01 52.7 114.1 52.7V55.3C115.254 55.3 116.35 55.1388 117.381 54.8046L116.579 52.3314ZM114.1 52.7C112.992 52.7 112.159 52.5656 111.556 52.3463L110.668 54.7897C111.648 55.1464 112.807 55.3 114.1 55.3V52.7ZM111.588 52.3585C110.972 52.1156 110.618 51.8214 110.415 51.5296L108.281 53.0144C108.846 53.8266 109.668 54.3964 110.635 54.7775L111.588 52.3585ZM108.313 51.4854C107.996 51.9021 107.606 52.2029 107.123 52.4028L108.117 54.8052C109.026 54.4291 109.787 53.8419 110.383 53.0586L108.313 51.4854ZM107.144 52.394C106.677 52.5778 105.99 52.7 105.028 52.7V55.3C106.178 55.3 107.219 55.1582 108.095 54.814L107.144 52.394ZM105.028 52.7H104.092V55.3H105.028V52.7ZM104.092 52.7C104.445 52.7 104.718 52.8526 104.885 53.0046C105.03 53.1375 105.094 53.2666 105.111 53.3042C105.145 53.3763 105.13 53.3769 105.106 53.2233C105.062 52.9423 105.032 52.4483 105.032 51.696H102.432C102.432 52.4797 102.461 53.1377 102.537 53.6247C102.573 53.8551 102.633 54.1437 102.757 54.4078C102.844 54.5932 103.22 55.3 104.092 55.3V52.7ZM105.032 51.696C105.032 50.8825 105.062 50.3377 105.108 50.0195C105.133 49.8472 105.151 49.8286 105.126 49.8856C105.114 49.9137 105.058 50.0408 104.92 50.1766C104.762 50.3324 104.478 50.512 104.092 50.512V47.912C103.168 47.912 102.806 48.701 102.742 48.8489C102.627 49.1129 102.57 49.4048 102.535 49.6465C102.461 50.1563 102.432 50.8535 102.432 51.696H105.032ZM104.092 50.512H105.028V47.912H104.092V50.512ZM118.1 46.548C118.1 45.3736 117.841 44.2501 117.095 43.4142C116.323 42.5502 115.241 42.224 114.1 42.224V44.824C114.759 44.824 115.026 45.0018 115.155 45.1458C115.309 45.3179 115.5 45.7064 115.5 46.548H118.1ZM114.1 42.224C112.959 42.224 111.876 42.5502 111.105 43.4142C110.359 44.2501 110.1 45.3736 110.1 46.548H112.7C112.7 45.7064 112.891 45.3179 113.045 45.1458C113.173 45.0018 113.441 44.824 114.1 44.824V42.224ZM110.1 46.548C110.1 47.6229 110.371 48.644 111.082 49.4337L113.014 47.6943C112.861 47.524 112.7 47.2011 112.7 46.548H110.1ZM111.129 49.4832C111.914 50.269 112.987 50.548 114.1 50.548V47.948C113.388 47.948 113.093 47.771 112.967 47.6448L111.129 49.4832ZM114.1 50.548C115.188 50.548 116.262 50.2926 117.035 49.5192L115.197 47.6808C115.106 47.7714 114.835 47.948 114.1 47.948V50.548ZM117.035 49.5192C117.821 48.7335 118.1 47.6604 118.1 46.548H115.5C115.5 47.2596 115.323 47.5545 115.197 47.6808L117.035 49.5192ZM131.295 48.852L131.04 47.5772L131.035 47.5783L131.295 48.852ZM135.003 47.412L135.643 48.5433L135.647 48.5415L135.003 47.412ZM138.351 45.504L138.995 46.6335L139.862 46.139L139.608 45.1732L138.351 45.504ZM137.271 43.668L136.5 44.7146L136.53 44.7372L136.562 44.758L137.271 43.668ZM126.939 43.164L125.647 43.0172L125.483 44.464H126.939V43.164ZM127.479 38.412V37.112H126.318L126.187 38.2652L127.479 38.412ZM139.719 39.204L139.08 40.3363L139.091 40.3426L139.103 40.3486L139.719 39.204ZM142.059 41.832L140.896 42.4134L140.903 42.4269L140.91 42.4403L142.059 41.832ZM143.787 47.016L144.472 48.1206L145.259 47.6326L145.055 46.7297L143.787 47.016ZM136.767 51.372L137.45 52.478L137.452 52.4766L136.767 51.372ZM132.087 53.46L132.393 54.7235L132.402 54.7212L132.412 54.7188L132.087 53.46ZM137.487 57.744H138.787V56.444H137.487V57.744ZM137.487 61.848V63.148H138.787V61.848H137.487ZM127.335 61.848H126.035V63.148H127.335V61.848ZM127.335 57.744V56.444H126.035V57.744H127.335ZM130.359 67.5H129.059V68.8H130.359V67.5ZM130.359 63.576V62.276H129.059V63.576H130.359ZM134.463 63.576H135.763V62.276H134.463V63.576ZM134.463 67.5V68.8H135.763V67.5H134.463ZM126.795 50.512C128.666 50.512 130.261 50.3897 131.555 50.1257L131.035 47.5783C129.976 47.7943 128.572 47.912 126.795 47.912V50.512ZM131.55 50.1268C132.908 49.855 134.274 49.3185 135.643 48.5433L134.362 46.2807C133.188 46.9455 132.081 47.369 131.04 47.5772L131.55 50.1268ZM135.647 48.5415L138.995 46.6335L137.707 44.3745L134.359 46.2825L135.647 48.5415ZM139.608 45.1732C139.336 44.1383 138.859 43.1497 137.979 42.578L136.562 44.758C136.643 44.8103 136.886 45.0457 137.094 45.8348L139.608 45.1732ZM138.042 42.6214C137.259 42.0443 136.231 41.864 135.183 41.864V44.464C136.006 44.464 136.371 44.6197 136.5 44.7146L138.042 42.6214ZM135.183 41.864H126.939V44.464H135.183V41.864ZM128.231 43.3108L128.771 38.5588L126.187 38.2652L125.647 43.0172L128.231 43.3108ZM127.479 39.712H136.047V37.112H127.479V39.712ZM136.047 39.712C137.421 39.712 138.402 39.954 139.08 40.3363L140.358 38.0717C139.163 37.398 137.696 37.112 136.047 37.112V39.712ZM139.103 40.3486C139.739 40.6913 140.355 41.3307 140.896 42.4134L143.222 41.2506C142.515 39.8373 141.571 38.7247 140.335 38.0594L139.103 40.3486ZM140.91 42.4403C141.481 43.5183 142.026 45.1197 142.519 47.3023L145.055 46.7297C144.54 44.4483 143.933 42.5937 143.208 41.2237L140.91 42.4403ZM143.101 45.9114L136.081 50.2674L137.452 52.4766L144.472 48.1206L143.101 45.9114ZM136.084 50.266C134.536 51.2216 133.097 51.8568 131.762 52.2012L132.412 54.7188C134.053 54.2952 135.733 53.5384 137.45 52.478L136.084 50.266ZM131.781 52.1965C130.426 52.5244 128.7 52.7 126.579 52.7V55.3C128.826 55.3 130.772 55.1156 132.393 54.7235L131.781 52.1965ZM126.579 52.7H124.131V55.3H126.579V52.7ZM124.131 52.7C124.484 52.7 124.757 52.8526 124.924 53.0046C125.069 53.1375 125.133 53.2666 125.15 53.3042C125.184 53.3763 125.169 53.3769 125.145 53.2233C125.101 52.9423 125.071 52.4483 125.071 51.696H122.471C122.471 52.4797 122.5 53.1377 122.576 53.6247C122.612 53.8551 122.673 54.1437 122.796 54.4078C122.883 54.5932 123.259 55.3 124.131 55.3V52.7ZM125.071 51.696C125.071 50.8825 125.101 50.3377 125.147 50.0195C125.172 49.8472 125.19 49.8286 125.166 49.8856C125.153 49.9137 125.097 50.0408 124.959 50.1766C124.801 50.3324 124.517 50.512 124.131 50.512V47.912C123.208 47.912 122.845 48.701 122.781 48.8489C122.666 49.1129 122.609 49.4048 122.574 49.6465C122.5 50.1563 122.471 50.8535 122.471 51.696H125.071ZM124.131 50.512H126.795V47.912H124.131V50.512ZM136.187 57.744V61.848H138.787V57.744H136.187ZM137.487 60.548H127.335V63.148H137.487V60.548ZM128.635 61.848V57.744H126.035V61.848H128.635ZM127.335 59.044H137.487V56.444H127.335V59.044ZM131.659 67.5V63.576H129.059V67.5H131.659ZM130.359 64.876H134.463V62.276H130.359V64.876ZM133.163 63.576V67.5H135.763V63.576H133.163ZM134.463 66.2H130.359V68.8H134.463V66.2ZM166.013 56.448L165.106 55.5166L165.1 55.5226L165.094 55.5288L166.013 56.448ZM167.381 41.616V40.316H166.081V41.616H167.381ZM171.953 41.616H173.253V40.316H171.953V41.616ZM172.493 48.708L171.574 49.6272L171.604 49.6578L171.637 49.6863L172.493 48.708ZM172.961 53.82L172.55 55.0533L172.581 55.0637L172.613 55.0726L172.961 53.82ZM171.953 53.244L172.872 52.3248L170.773 50.2252L170.654 53.192L171.953 53.244ZM170.621 58.068L169.495 57.4189L169.49 57.4261L169.486 57.4334L170.621 58.068ZM167.273 61.38L166.646 60.2409L166.639 60.2449L166.632 60.249L167.273 61.38ZM161.081 62.604L159.785 62.7112L159.884 63.904H161.081V62.604ZM160.685 57.816V56.516H159.273L159.389 57.9232L160.685 57.816ZM167.057 37.872H165.757V39.172H167.057V37.872ZM167.057 33.768V32.468H165.757V33.768H167.057ZM171.953 33.768H173.253V32.468H171.953V33.768ZM171.953 37.872V39.172H173.253V37.872H171.953ZM162.161 59.116C164.059 59.116 165.712 58.587 166.932 57.3672L165.094 55.5288C164.489 56.133 163.575 56.516 162.161 56.516V59.116ZM166.92 57.3794C168.149 56.1825 168.681 54.5467 168.681 52.668H166.081C166.081 54.0533 165.701 54.9375 165.106 55.5166L166.92 57.3794ZM168.681 52.668V41.616H166.081V52.668H168.681ZM167.381 42.916H171.953V40.316H167.381V42.916ZM170.653 41.616V47.052H173.253V41.616H170.653ZM170.653 47.052C170.653 47.982 170.877 48.9304 171.574 49.6272L173.412 47.7888C173.389 47.7656 173.253 47.61 173.253 47.052H170.653ZM171.637 49.6863C172.364 50.3228 173.34 50.512 174.293 50.512V47.912C173.614 47.912 173.39 47.7652 173.349 47.7297L171.637 49.6863ZM174.293 50.512H174.941V47.912H174.293V50.512ZM174.941 50.512C174.555 50.512 174.271 50.3324 174.113 50.1766C173.975 50.0408 173.918 49.9137 173.906 49.8856C173.881 49.8286 173.899 49.8472 173.924 50.0195C173.97 50.3377 174.001 50.8825 174.001 51.696H176.601C176.601 50.8535 176.571 50.1563 176.497 49.6465C176.462 49.4048 176.405 49.1129 176.291 48.8489C176.226 48.701 175.864 47.912 174.941 47.912V50.512ZM174.001 51.696C174.001 52.4483 173.97 52.9423 173.927 53.2233C173.903 53.3769 173.888 53.3763 173.921 53.3042C173.939 53.2666 174.003 53.1375 174.148 53.0046C174.314 52.8526 174.588 52.7 174.941 52.7V55.3C175.813 55.3 176.189 54.5932 176.276 54.4078C176.399 54.1437 176.459 53.8551 176.495 53.6247C176.571 53.1377 176.601 52.4797 176.601 51.696H174.001ZM174.941 52.7H174.365V55.3H174.941V52.7ZM174.365 52.7C173.964 52.7 173.615 52.6523 173.309 52.5674L172.613 55.0726C173.171 55.2277 173.758 55.3 174.365 55.3V52.7ZM173.372 52.5867C173.069 52.4857 172.929 52.3819 172.872 52.3248L171.034 54.1632C171.457 54.5861 171.989 54.8663 172.55 55.0533L173.372 52.5867ZM170.654 53.192C170.589 54.8039 170.195 56.2031 169.495 57.4189L171.747 58.7171C172.679 57.1009 173.172 55.2841 173.252 53.296L170.654 53.192ZM169.486 57.4334C168.815 58.6341 167.876 59.5646 166.646 60.2409L167.899 62.5191C169.55 61.6114 170.843 60.3339 171.756 58.7026L169.486 57.4334ZM166.632 60.249C165.417 60.9376 163.965 61.304 162.233 61.304V63.904C164.341 63.904 166.249 63.4544 167.914 62.511L166.632 60.249ZM162.233 61.304H161.081V63.904H162.233V61.304ZM162.376 62.4968L161.98 57.7088L159.389 57.9232L159.785 62.7112L162.376 62.4968ZM160.685 59.116H162.161V56.516H160.685V59.116ZM168.357 37.872V33.768H165.757V37.872H168.357ZM167.057 35.068H171.953V32.468H167.057V35.068ZM170.653 33.768V37.872H173.253V33.768H170.653ZM171.953 36.572H167.057V39.172H171.953V36.572ZM180.548 48.744L181.399 49.7264L181.404 49.7223L180.548 48.744ZM181.124 41.616V40.316H179.824V41.616H181.124ZM185.696 41.616H186.996V40.316H185.696V41.616ZM183.392 52.272L184.494 51.583L183.468 49.9412L182.337 51.5124L183.392 52.272ZM181.664 53.604L182.125 54.8195L182.136 54.8154L182.146 54.811L181.664 53.604ZM174.968 61.848H173.668V63.148H174.968V61.848ZM174.968 57.744V56.444H173.668V57.744H174.968ZM179.864 57.744H181.164V56.444H179.864V57.744ZM179.864 61.848V63.148H181.164V61.848H179.864ZM179.108 50.512C179.937 50.512 180.746 50.2921 181.399 49.7264L179.696 47.7616C179.629 47.8199 179.479 47.912 179.108 47.912V50.512ZM181.404 49.7223C182.108 49.1061 182.424 48.273 182.424 47.376H179.824C179.824 47.631 179.755 47.7099 179.692 47.7656L181.404 49.7223ZM182.424 47.376V41.616H179.824V47.376H182.424ZM181.124 42.916H185.696V40.316H181.124V42.916ZM184.396 41.616V47.232H186.996V41.616H184.396ZM184.396 47.232C184.396 48.0984 184.618 48.9856 185.289 49.6445C185.955 50.2991 186.845 50.512 187.712 50.512V47.912C187.234 47.912 187.116 47.7949 187.111 47.7895C187.109 47.7884 186.996 47.6856 186.996 47.232H184.396ZM187.712 50.512H189.08V47.912H187.712V50.512ZM189.08 50.512C188.707 50.512 188.427 50.3434 188.265 50.1888C188.124 50.054 188.065 49.9259 188.051 49.894C188.022 49.831 188.039 49.842 188.064 50.0069C188.109 50.3104 188.14 50.8349 188.14 51.624H190.74C190.74 50.8051 190.71 50.1236 190.635 49.6231C190.6 49.386 190.542 49.0955 190.424 48.8315C190.351 48.6683 189.983 47.912 189.08 47.912V50.512ZM188.14 51.624C188.14 52.4008 188.109 52.9152 188.064 53.2113C188.04 53.3724 188.024 53.3795 188.054 53.3136C188.069 53.2798 188.13 53.1513 188.272 53.017C188.435 52.8632 188.713 52.7 189.08 52.7V55.3C189.972 55.3 190.343 54.5602 190.421 54.3894C190.541 54.1255 190.599 53.8356 190.635 53.6007C190.71 53.1048 190.74 52.4312 190.74 51.624H188.14ZM189.08 52.7H187.496V55.3H189.08V52.7ZM187.496 52.7C185.694 52.7 184.875 52.192 184.494 51.583L182.289 52.961C183.349 54.656 185.265 55.3 187.496 55.3V52.7ZM182.337 51.5124C182.056 51.9019 181.683 52.196 181.181 52.397L182.146 54.811C183.084 54.436 183.863 53.8421 184.447 53.0316L182.337 51.5124ZM181.203 52.3885C180.696 52.5807 180.01 52.7 179.108 52.7V55.3C180.221 55.3 181.239 55.1553 182.125 54.8195L181.203 52.3885ZM179.108 52.7H174.932V55.3H179.108V52.7ZM174.932 52.7C175.285 52.7 175.558 52.8526 175.724 53.0046C175.87 53.1375 175.934 53.2666 175.951 53.3042C175.985 53.3763 175.97 53.3769 175.946 53.2233C175.902 52.9423 175.872 52.4483 175.872 51.696H173.272C173.272 52.4797 173.301 53.1377 173.377 53.6247C173.413 53.8551 173.473 54.1437 173.597 54.4078C173.684 54.5932 174.06 55.3 174.932 55.3V52.7ZM175.872 51.696C175.872 50.8825 175.902 50.3377 175.948 50.0195C175.973 49.8472 175.991 49.8286 175.966 49.8856C175.954 49.9137 175.898 50.0408 175.76 50.1766C175.602 50.3324 175.318 50.512 174.932 50.512V47.912C174.008 47.912 173.646 48.701 173.582 48.8489C173.467 49.1129 173.41 49.4048 173.375 49.6465C173.301 50.1563 173.272 50.8535 173.272 51.696H175.872ZM174.932 50.512H179.108V47.912H174.932V50.512ZM176.268 61.848V57.744H173.668V61.848H176.268ZM174.968 59.044H179.864V56.444H174.968V59.044ZM178.564 57.744V61.848H181.164V57.744H178.564ZM179.864 60.548H174.968V63.148H179.864V60.548ZM193.672 48.636L192.809 47.6644L192.795 47.6767L192.781 47.6893L193.672 48.636ZM194.32 41.616V40.316H193.02V41.616H194.32ZM198.892 41.616H200.192V40.316H198.892V41.616ZM203.212 48.636L202.349 47.6644L202.335 47.6767L202.321 47.6893L203.212 48.636ZM203.86 41.616V40.316H202.56V41.616H203.86ZM208.432 41.616H209.732V40.316H208.432V41.616ZM213.04 41.616V40.316H211.74V41.616H213.04ZM217.612 41.616H218.912V40.316H217.612V41.616ZM215.776 52.2L216.696 53.1192L216.696 53.1192L215.776 52.2ZM207.676 53.532L207.155 54.723L207.171 54.7299L207.187 54.7364L207.676 53.532ZM205.948 52.092L207.056 51.4107L206.041 49.762L204.899 51.325L205.948 52.092ZM204.148 53.532L204.665 54.7248L204.674 54.7209L204.684 54.7168L204.148 53.532ZM198.208 53.532L197.701 54.7288L197.716 54.7353L197.732 54.7415L198.208 53.532ZM196.444 52.092L197.552 51.4107L196.541 49.7679L195.397 51.3215L196.444 52.092ZM191.836 50.512C192.834 50.512 193.824 50.2788 194.563 49.5827L192.781 47.6893C192.705 47.7612 192.471 47.912 191.836 47.912V50.512ZM194.536 49.6076C195.292 48.9359 195.62 48.0288 195.62 47.052H193.02C193.02 47.4192 192.917 47.5681 192.809 47.6644L194.536 49.6076ZM195.62 47.052V41.616H193.02V47.052H195.62ZM194.32 42.916H198.892V40.316H194.32V42.916ZM197.592 41.616V47.052H200.192V41.616H197.592ZM197.592 47.052C197.592 48.0234 197.88 48.9745 198.66 49.653C199.406 50.3013 200.389 50.512 201.376 50.512V47.912C200.708 47.912 200.449 47.7627 200.366 47.691C200.319 47.6495 200.192 47.5206 200.192 47.052H197.592ZM201.376 50.512C202.374 50.512 203.364 50.2788 204.103 49.5827L202.321 47.6893C202.245 47.7612 202.011 47.912 201.376 47.912V50.512ZM204.076 49.6076C204.832 48.9359 205.16 48.0288 205.16 47.052H202.56C202.56 47.4192 202.457 47.5681 202.349 47.6644L204.076 49.6076ZM205.16 47.052V41.616H202.56V47.052H205.16ZM203.86 42.916H208.432V40.316H203.86V42.916ZM207.132 41.616V47.052H209.732V41.616H207.132ZM207.132 47.052C207.132 47.9946 207.388 48.9346 208.119 49.6204C208.835 50.2914 209.788 50.512 210.736 50.512V47.912C210.149 47.912 209.95 47.7726 209.898 47.7236C209.861 47.6894 209.732 47.5494 209.732 47.052H207.132ZM210.736 50.512C211.685 50.512 212.638 50.2914 213.354 49.6204C214.085 48.9346 214.34 47.9946 214.34 47.052H211.74C211.74 47.5494 211.612 47.6894 211.575 47.7236C211.523 47.7726 211.324 47.912 210.736 47.912V50.512ZM214.34 47.052V41.616H211.74V47.052H214.34ZM213.04 42.916H217.612V40.316H213.04V42.916ZM216.312 41.616V47.088H218.912V41.616H216.312ZM216.312 47.088C216.312 49.0222 215.778 50.3604 214.857 51.2808L216.696 53.1192C218.223 51.5916 218.912 49.5218 218.912 47.088H216.312ZM214.857 51.2808C213.963 52.175 212.65 52.7 210.736 52.7V55.3C213.142 55.3 215.19 54.625 216.696 53.1192L214.857 51.2808ZM210.736 52.7C209.552 52.7 208.718 52.552 208.166 52.3276L207.187 54.7364C208.171 55.136 209.377 55.3 210.736 55.3V52.7ZM208.198 52.341C207.636 52.0954 207.281 51.7776 207.056 51.4107L204.841 52.7733C205.384 53.6544 206.181 54.2966 207.155 54.723L208.198 52.341ZM204.899 51.325C204.583 51.7573 204.165 52.0983 203.613 52.3472L204.684 54.7168C205.62 54.2937 206.402 53.6747 206.998 52.859L204.899 51.325ZM203.632 52.3392C203.13 52.5566 202.398 52.7 201.376 52.7V55.3C202.611 55.3 203.727 55.1314 204.665 54.7248L203.632 52.3392ZM201.376 52.7C200.139 52.7 199.265 52.5511 198.685 52.3225L197.732 54.7415C198.736 55.1369 199.973 55.3 201.376 55.3V52.7ZM198.716 52.3352C198.128 52.0858 197.771 51.7668 197.552 51.4107L195.337 52.7733C195.886 53.6652 196.705 54.3062 197.701 54.7288L198.716 52.3352ZM195.397 51.3215C194.787 52.1512 193.717 52.7 191.836 52.7V55.3C194.228 55.3 196.23 54.5768 197.492 52.8625L195.397 51.3215ZM191.836 52.7H189.064V55.3H191.836V52.7ZM189.064 52.7C189.418 52.7 189.691 52.8526 189.857 53.0046C190.003 53.1375 190.066 53.2666 190.084 53.3042C190.118 53.3763 190.103 53.3769 190.079 53.2233C190.035 52.9423 190.004 52.4483 190.004 51.696H187.404C187.404 52.4797 187.434 53.1377 187.51 53.6247C187.546 53.8551 187.606 54.1437 187.73 54.4078C187.817 54.5932 188.193 55.3 189.064 55.3V52.7ZM190.004 51.696C190.004 50.8825 190.035 50.3377 190.081 50.0195C190.106 49.8472 190.124 49.8286 190.099 49.8856C190.087 49.9137 190.03 50.0408 189.893 50.1766C189.735 50.3324 189.451 50.512 189.064 50.512V47.912C188.141 47.912 187.779 48.701 187.715 48.8489C187.6 49.1129 187.543 49.4048 187.508 49.6465C187.434 50.1563 187.404 50.8535 187.404 51.696H190.004ZM189.064 50.512H191.836V47.912H189.064V50.512ZM262.748 24.048L263.999 23.6951L263.604 22.2943L262.256 22.8444L262.748 24.048ZM263.54 26.856L264.025 28.0619L265.108 27.626L264.791 26.5031L263.54 26.856ZM250.58 32.076H249.28V34.0011L251.065 33.2819L250.58 32.076ZM250.58 29.016L250.088 27.8124L249.28 28.1426V29.016H250.58ZM240.068 52.308L239.148 53.2273L239.158 53.2369L240.068 52.308ZM238.34 41.616V40.316H237.04V41.616H238.34ZM242.912 41.616H244.212V40.316H242.912V41.616ZM243.452 48.6L242.477 49.4601L242.491 49.4758L242.505 49.491L243.452 48.6ZM258.968 48.852L259.627 49.9725L259.627 49.9725L258.968 48.852ZM259.292 46.8L258.147 47.4163L258.165 47.4494L258.185 47.4813L259.292 46.8ZM258.392 45.684L259.311 44.7648L259.306 44.7594L259.3 44.7541L258.392 45.684ZM250.58 38.052H249.28V38.5994L249.671 38.9819L250.58 38.052ZM250.58 34.308L250.112 33.0949L249.28 33.4157V34.308H250.58ZM264.224 29.052L265.472 28.6895L265.077 27.33L263.756 27.8389L264.224 29.052ZM265.52 33.516L265.977 34.7328L267.104 34.3093L266.768 33.1535L265.52 33.516ZM256.232 37.008L255.774 35.7912L253.88 36.5035L255.315 37.9302L256.232 37.008ZM261.848 42.588L262.767 41.6688L262.764 41.6658L261.848 42.588ZM266.492 47.052L265.632 48.0275L265.638 48.0325L265.644 48.0374L266.492 47.052ZM268.976 48.816L268.431 49.9963L268.45 50.0051L268.469 50.0133L268.976 48.816ZM268.184 53.748L267.897 55.0161L267.906 55.018L268.184 53.748ZM266.06 52.848L265.33 53.9237L265.343 53.9328L265.357 53.9415L266.06 52.848ZM263.648 50.724L264.579 49.8165L263.177 48.3789L262.439 50.246L263.648 50.724ZM261.38 53.136L260.778 51.9834L261.38 53.136ZM261.497 24.4009L262.289 27.2089L264.791 26.5031L263.999 23.6951L261.497 24.4009ZM263.054 25.6501L250.094 30.8701L251.065 33.2819L264.025 28.0619L263.054 25.6501ZM251.88 32.076V29.016H249.28V32.076H251.88ZM251.071 30.2196L263.239 25.2516L262.256 22.8444L250.088 27.8124L251.071 30.2196ZM245.036 52.7C243.097 52.7 241.813 52.1974 240.977 51.3791L239.158 53.2369C240.627 54.6746 242.654 55.3 245.036 55.3V52.7ZM240.987 51.3888C240.148 50.5494 239.64 49.2787 239.64 47.376H237.04C237.04 49.7453 237.684 51.7626 239.148 53.2272L240.987 51.3888ZM239.64 47.376V41.616H237.04V47.376H239.64ZM238.34 42.916H242.912V40.316H238.34V42.916ZM241.612 41.616V46.764H244.212V41.616H241.612ZM241.612 46.764C241.612 47.7431 241.824 48.7203 242.477 49.4601L244.427 47.7399C244.359 47.6637 244.212 47.4169 244.212 46.764H241.612ZM242.505 49.491C243.229 50.2598 244.242 50.512 245.252 50.512V47.912C244.629 47.912 244.443 47.7562 244.398 47.709L242.505 49.491ZM245.252 50.512H257.24V47.912H245.252V50.512ZM257.24 50.512C258.095 50.512 258.936 50.379 259.627 49.9725L258.309 47.7315C258.184 47.805 257.873 47.912 257.24 47.912V50.512ZM259.627 49.9725C260.386 49.526 260.88 48.7876 260.88 47.844H258.28C258.28 47.8491 258.279 47.8382 258.285 47.8163C258.291 47.7936 258.301 47.7686 258.316 47.7453C258.346 47.6956 258.365 47.6983 258.309 47.7315L259.627 49.9725ZM260.88 47.844C260.88 47.2316 260.723 46.6457 260.399 46.1187L258.185 47.4813C258.244 47.5783 258.28 47.6884 258.28 47.844H260.88ZM260.436 46.1837C260.18 45.7081 259.778 45.2315 259.311 44.7648L257.472 46.6032C257.87 47.0005 258.067 47.2679 258.147 47.4163L260.436 46.1837ZM259.3 44.7541L251.488 37.1221L249.671 38.9819L257.483 46.6139L259.3 44.7541ZM251.88 38.052V34.308H249.28V38.052H251.88ZM251.047 35.5211L264.691 30.2651L263.756 27.8389L250.112 33.0949L251.047 35.5211ZM262.975 29.4145L264.271 33.8785L266.768 33.1535L265.472 28.6895L262.975 29.4145ZM265.062 32.2992L255.774 35.7912L256.689 38.2248L265.977 34.7328L265.062 32.2992ZM255.315 37.9302L260.931 43.5102L262.764 41.6658L257.148 36.0858L255.315 37.9302ZM260.928 43.5072C263.019 45.5974 264.591 47.1103 265.632 48.0275L267.351 46.0765C266.376 45.2177 264.853 43.7546 262.767 41.6688L260.928 43.5072ZM265.644 48.0374C266.696 48.943 267.636 49.6296 268.431 49.9963L269.521 47.6357C269.067 47.4264 268.351 46.937 267.34 46.0666L265.644 48.0374ZM268.469 50.0133C269.287 50.3592 270.198 50.512 271.172 50.512V47.912C270.465 47.912 269.913 47.8008 269.482 47.6187L268.469 50.0133ZM271.172 50.512C270.786 50.512 270.502 50.3324 270.344 50.1766C270.206 50.0408 270.149 49.9137 270.137 49.8856C270.112 49.8286 270.13 49.8472 270.155 50.0195C270.201 50.3377 270.232 50.8825 270.232 51.696H272.832C272.832 50.8535 272.802 50.1563 272.728 49.6465C272.693 49.4048 272.636 49.1129 272.521 48.8489C272.457 48.701 272.095 47.912 271.172 47.912V50.512ZM270.232 51.696C270.232 52.4483 270.201 52.9423 270.157 53.2233C270.133 53.3769 270.118 53.3763 270.152 53.3042C270.17 53.2666 270.234 53.1375 270.379 53.0046C270.545 52.8526 270.818 52.7 271.172 52.7V55.3C272.043 55.3 272.419 54.5932 272.506 54.4078C272.63 54.1437 272.69 53.8551 272.726 53.6247C272.802 53.1377 272.832 52.4797 272.832 51.696H270.232ZM271.172 52.7C269.996 52.7 269.103 52.6183 268.462 52.478L267.906 55.018C268.801 55.2137 269.9 55.3 271.172 55.3V52.7ZM268.47 52.4799C267.881 52.3469 267.313 52.1084 266.763 51.7545L265.357 53.9415C266.15 54.4516 266.998 54.8131 267.897 55.0161L268.47 52.4799ZM266.79 51.7723C266.222 51.3868 265.487 50.7486 264.579 49.8165L262.717 51.6315C263.68 52.6194 264.554 53.3972 265.33 53.9237L266.79 51.7723ZM262.439 50.246C262.16 50.9516 261.642 51.5331 260.778 51.9834L261.981 54.2886C263.326 53.5869 264.32 52.5604 264.857 51.202L262.439 50.246ZM260.778 51.9834C259.901 52.4412 258.786 52.7 257.384 52.7V55.3C259.101 55.3 260.65 54.9828 261.981 54.2886L260.778 51.9834ZM257.384 52.7H245.036V55.3H257.384V52.7ZM279.47 52.308L280.37 53.2462L280.371 53.2458L279.47 52.308ZM276.122 48.744L276.974 49.7264L276.978 49.7223L276.122 48.744ZM276.698 41.616V40.316H275.398V41.616H276.698ZM281.27 41.616H282.57V40.316H281.27V41.616ZM274.61 37.872H273.31V39.172H274.61V37.872ZM274.61 33.768V32.468H273.31V33.768H274.61ZM279.506 33.768H280.806V32.468H279.506V33.768ZM279.506 37.872V39.172H280.806V37.872H279.506ZM279.97 47.592C279.97 49.3054 279.465 50.511 278.57 51.3702L280.371 53.2458C281.876 51.801 282.57 49.8626 282.57 47.592H279.97ZM278.57 51.3698C277.691 52.2135 276.447 52.7 274.682 52.7V55.3C276.95 55.3 278.898 54.6585 280.37 53.2462L278.57 51.3698ZM274.682 52.7H271.154V55.3H274.682V52.7ZM271.154 52.7C271.508 52.7 271.781 52.8526 271.947 53.0046C272.092 53.1375 272.156 53.2666 272.174 53.3042C272.208 53.3763 272.193 53.3769 272.169 53.2233C272.125 52.9423 272.094 52.4483 272.094 51.696H269.494C269.494 52.4797 269.524 53.1377 269.6 53.6247C269.636 53.8551 269.696 54.1437 269.82 54.4078C269.907 54.5932 270.283 55.3 271.154 55.3V52.7ZM272.094 51.696C272.094 50.8825 272.125 50.3377 272.171 50.0195C272.196 49.8472 272.214 49.8286 272.189 49.8856C272.177 49.9137 272.12 50.0408 271.983 50.1766C271.824 50.3324 271.541 50.512 271.154 50.512V47.912C270.231 47.912 269.869 48.701 269.805 48.8489C269.69 49.1129 269.633 49.4048 269.598 49.6465C269.524 50.1563 269.494 50.8535 269.494 51.696H272.094ZM271.154 50.512H274.682V47.912H271.154V50.512ZM274.682 50.512C275.511 50.512 276.321 50.2921 276.974 49.7264L275.271 47.7616C275.204 47.8199 275.053 47.912 274.682 47.912V50.512ZM276.978 49.7223C277.683 49.1061 277.998 48.273 277.998 47.376H275.398C275.398 47.631 275.33 47.7099 275.266 47.7656L276.978 49.7223ZM277.998 47.376V41.616H275.398V47.376H277.998ZM276.698 42.916H281.27V40.316H276.698V42.916ZM279.97 41.616V47.592H282.57V41.616H279.97ZM275.91 37.872V33.768H273.31V37.872H275.91ZM274.61 35.068H279.506V32.468H274.61V35.068ZM278.206 33.768V37.872H280.806V33.768H278.206ZM279.506 36.572H274.61V39.172H279.506V36.572ZM291.105 57.852L289.957 57.2412L289.953 57.2488L291.105 57.852ZM287.685 61.344L287.06 60.2041L287.049 60.2102L287.038 60.2164L287.685 61.344ZM279.549 62.604L278.253 62.7112L278.352 63.904H279.549V62.604ZM279.153 57.816V56.516H277.741L277.857 57.9232L279.153 57.816ZM286.353 56.448L285.446 55.5166L285.44 55.5226L285.434 55.5288L286.353 56.448ZM287.721 41.616V40.316H286.421V41.616H287.721ZM292.293 41.616H293.593V40.316H292.293V41.616ZM290.993 52.668C290.993 54.4588 290.634 55.9705 289.957 57.2412L292.252 58.4628C293.16 56.7575 293.593 54.8132 293.593 52.668H290.993ZM289.953 57.2488C289.279 58.5354 288.322 59.512 287.06 60.2041L288.31 62.4839C290.024 61.544 291.346 60.1926 292.256 58.4552L289.953 57.2488ZM287.038 60.2164C285.799 60.9273 284.325 61.304 282.573 61.304V63.904C284.709 63.904 286.643 63.4407 288.332 62.4716L287.038 60.2164ZM282.573 61.304H279.549V63.904H282.573V61.304ZM280.844 62.4968L280.448 57.7088L277.857 57.9232L278.253 62.7112L280.844 62.4968ZM279.153 59.116H282.501V56.516H279.153V59.116ZM282.501 59.116C284.399 59.116 286.052 58.587 287.272 57.3672L285.434 55.5288C284.829 56.133 283.914 56.516 282.501 56.516V59.116ZM287.26 57.3794C288.489 56.1825 289.021 54.5467 289.021 52.668H286.421C286.421 54.0533 286.041 54.9375 285.446 55.5166L287.26 57.3794ZM289.021 52.668V41.616H286.421V52.668H289.021ZM287.721 42.916H292.293V40.316H287.721V42.916ZM290.993 41.616V52.668H293.593V41.616H290.993Z" fill="black" mask="url(#path-1-outside-1_637_82)"/>
<path fill-rule="evenodd" clip-rule="evenodd" d="M102 74.4477C103.209 91.5288 107.337 103.522 113.604 111.36C119.921 119.262 128.153 122.62 136.905 122.969C140.748 123.123 145.74 122.355 151.156 120.989C168.608 135.298 193.758 136.311 216.555 131.168C238.855 126.137 259.856 115.07 271.388 103.621H286L269.265 76L248.932 103.621L261.396 103.623C250.395 112.916 232.729 121.71 214.095 125.914C193.887 130.473 173.463 129.493 158.911 118.728C175.412 113.319 192.66 104.082 192.66 99H204.272L188.194 74L170.72 97.8657L184.175 99C171.615 108.539 150.927 117.829 137.088 117.277C129.448 116.972 122.639 114.097 117.422 107.572C112.155 100.983 108.255 90.3541 107.097 74L102 74.4477Z" fill="#5CE5DE"/>
<path d="M113.604 111.36L113.096 111.766L113.096 111.766L113.604 111.36ZM102 74.4477L101.943 73.8001L101.307 73.856L101.352 74.4935L102 74.4477ZM136.905 122.969L136.879 123.619L136.879 123.619L136.905 122.969ZM151.156 120.989L151.568 120.487L151.315 120.279L150.997 120.359L151.156 120.989ZM216.555 131.168L216.412 130.534L216.412 130.534L216.555 131.168ZM271.388 103.621V102.971H271.12L270.93 103.16L271.388 103.621ZM286 103.621V104.271H287.154L286.556 103.284L286 103.621ZM269.265 76L269.821 75.6632L269.318 74.8323L268.742 75.6147L269.265 76ZM248.932 103.621L248.409 103.236L247.647 104.271L248.932 104.271L248.932 103.621ZM261.396 103.623L261.815 104.12L263.172 102.973L261.396 102.973L261.396 103.623ZM214.095 125.914L213.952 125.28L213.952 125.28L214.095 125.914ZM158.911 118.728L158.709 118.111L157.513 118.502L158.525 119.251L158.911 118.728ZM192.66 99V98.35H192.01V99H192.66ZM204.272 99V99.65H205.463L204.819 98.6484L204.272 99ZM188.194 74L188.741 73.6484L188.229 72.8523L187.67 73.616L188.194 74ZM170.72 97.8657L170.195 97.4817L169.511 98.4161L170.665 98.5134L170.72 97.8657ZM184.175 99L184.568 99.5176L185.915 98.4944L184.229 98.3523L184.175 99ZM137.088 117.277L137.062 117.926L137.062 117.926L137.088 117.277ZM117.422 107.572L117.93 107.166L117.422 107.572ZM107.097 74L107.746 73.9541L107.699 73.2947L107.041 73.3525L107.097 74ZM114.111 110.955C107.958 103.258 103.852 91.4124 102.648 74.4018L101.352 74.4935C102.565 91.6452 106.715 103.786 113.096 111.766L114.111 110.955ZM136.931 122.32C128.343 121.977 120.296 118.691 114.111 110.955L113.096 111.766C119.545 119.833 127.963 123.263 136.879 123.619L136.931 122.32ZM150.997 120.359C145.604 121.719 140.682 122.469 136.931 122.32L136.879 123.619C140.813 123.776 145.875 122.992 151.315 121.619L150.997 120.359ZM150.744 121.492C168.423 135.987 193.82 136.964 216.698 131.802L216.412 130.534C193.696 135.659 168.792 134.609 151.568 120.487L150.744 121.492ZM216.698 131.802C239.088 126.751 260.209 115.636 271.846 104.082L270.93 103.16C259.503 114.504 238.621 125.523 216.412 130.534L216.698 131.802ZM271.388 104.271H286V102.971H271.388V104.271ZM286.556 103.284L269.821 75.6632L268.709 76.3368L285.444 103.958L286.556 103.284ZM268.742 75.6147L248.409 103.236L249.455 104.006L269.789 76.3853L268.742 75.6147ZM248.932 104.271L261.395 104.273L261.396 102.973L248.932 102.971L248.932 104.271ZM260.976 103.127C250.065 112.343 232.498 121.096 213.952 125.28L214.238 126.548C232.96 122.324 250.724 113.488 261.815 104.12L260.976 103.127ZM213.952 125.28C193.826 129.821 173.63 128.808 159.298 118.206L158.525 119.251C173.297 130.178 193.949 131.126 214.238 126.548L213.952 125.28ZM192.01 99C192.01 99.4554 191.814 100.028 191.347 100.722C190.885 101.41 190.189 102.168 189.276 102.98C187.449 104.602 184.821 106.377 181.652 108.176C175.321 111.772 166.925 115.417 158.709 118.111L159.114 119.346C167.398 116.63 175.876 112.952 182.294 109.307C185.501 107.485 188.216 105.66 190.139 103.952C191.1 103.098 191.881 102.258 192.426 101.448C192.967 100.642 193.31 99.8151 193.31 99H192.01ZM204.272 98.35H192.66V99.65H204.272V98.35ZM187.647 74.3516L203.725 99.3516L204.819 98.6484L188.741 73.6484L187.647 74.3516ZM171.244 98.2497L188.719 74.384L187.67 73.616L170.195 97.4817L171.244 98.2497ZM184.229 98.3523L170.774 97.218L170.665 98.5134L184.12 99.6477L184.229 98.3523ZM137.062 117.926C144.116 118.208 152.848 115.985 161.356 112.525C169.876 109.06 178.239 104.325 184.568 99.5176L183.782 98.4824C177.551 103.214 169.29 107.894 160.866 111.321C152.431 114.752 143.899 116.898 137.114 116.627L137.062 117.926ZM116.914 107.978C122.263 114.668 129.258 117.614 137.062 117.926L137.114 116.627C129.638 116.329 123.015 113.526 117.93 107.166L116.914 107.978ZM106.449 74.0459C107.611 90.4707 111.533 101.247 116.914 107.978L117.93 107.166C112.776 100.72 108.898 90.2375 107.746 73.9541L106.449 74.0459ZM102.057 75.0952L107.154 74.6475L107.041 73.3525L101.943 73.8001L102.057 75.0952Z" fill="black"/>
</svg>
