<svg width="269" height="33" viewBox="0 0 269 33" fill="none" xmlns="http://www.w3.org/2000/svg">
<g style="mix-blend-mode:difference" clip-path="url(#clip0_1719_441)">
<path d="M261.354 11.3536C261.549 11.1583 261.549 10.8417 261.354 10.6465L258.172 7.46449C257.976 7.26923 257.66 7.26923 257.464 7.46449C257.269 7.65975 257.269 7.97633 257.464 8.17159L260.293 11L257.464 13.8284C257.269 14.0237 257.269 14.3403 257.464 14.5356C257.66 14.7308 257.976 14.7308 258.172 14.5356L261.354 11.3536ZM7 11.5L261 11.5L261 10.5L7 10.5L7 11.5Z" fill="white" fill-opacity="0.69"/>
<line x1="11.5" y1="7" x2="11.5" y2="16" stroke="white" stroke-opacity="0.51"/>
<line x1="41" y1="7" x2="41" y2="16" stroke="white" stroke-opacity="0.51"/>
<line x1="70.5" y1="7" x2="70.5" y2="16" stroke="white" stroke-opacity="0.51"/>
<line x1="100" y1="7" x2="100" y2="16" stroke="white" stroke-opacity="0.51"/>
<line x1="129.5" y1="7" x2="129.5" y2="16" stroke="white" stroke-opacity="0.51"/>
<line x1="159" y1="7" x2="159" y2="16" stroke="white" stroke-opacity="0.51"/>
<line x1="188.5" y1="7" x2="188.5" y2="16" stroke="white" stroke-opacity="0.51"/>
<line x1="218" y1="7" x2="218" y2="16" stroke="white" stroke-opacity="0.51"/>
<line x1="247.5" y1="7" x2="247.5" y2="16" stroke="white" stroke-opacity="0.51"/>
<path d="M7.32731 24.921H11.1793V25.416H7.32731V24.921ZM14.8645 21.267C15.1945 23.361 15.8875 25.191 16.9435 26.757L16.5475 27.054C16.0735 26.334 15.6685 25.566 15.3325 24.75C15.0025 23.934 14.7685 23.118 14.6305 22.302C14.4805 23.142 14.2435 23.97 13.9195 24.786C13.6015 25.602 13.2055 26.358 12.7315 27.054L12.3265 26.757C13.3225 25.293 14.0215 23.463 14.4235 21.267H14.8645Z" fill="#DFDCE1"/>
<path d="M37.1672 24.921H41.0192V25.416H37.1672V24.921ZM45.7214 23.85C45.3194 24.192 44.9054 24.645 44.4794 25.209C44.0594 25.773 43.6664 26.388 43.3004 27.054L42.8864 26.829C43.1144 26.415 43.3904 25.971 43.7144 25.497C44.0384 25.017 44.3534 24.609 44.6594 24.273C44.5334 24.321 44.4164 24.354 44.3084 24.372C44.2004 24.384 44.0744 24.39 43.9304 24.39C43.4744 24.39 43.1114 24.258 42.8414 23.994C42.5714 23.73 42.4364 23.376 42.4364 22.932C42.4364 22.638 42.5054 22.362 42.6434 22.104C42.7814 21.846 42.9704 21.639 43.2104 21.483C43.4504 21.327 43.7084 21.249 43.9844 21.249C44.1704 21.249 44.3444 21.27 44.5064 21.312C44.6684 21.354 44.8454 21.426 45.0374 21.528L44.8574 21.924C44.5754 21.804 44.2874 21.744 43.9934 21.744C43.6934 21.744 43.4414 21.855 43.2374 22.077C43.0334 22.299 42.9314 22.566 42.9314 22.878C42.9314 23.208 43.0244 23.463 43.2104 23.643C43.3964 23.817 43.6664 23.904 44.0204 23.904C44.5004 23.904 44.9864 23.772 45.4784 23.508L45.7214 23.85Z" fill="#DFDCE1"/>
<path d="M66.1457 24.921H69.9977V25.416H66.1457V24.921ZM72.9719 23.841C72.8459 23.721 72.7469 23.568 72.6749 23.382C72.6089 23.196 72.5759 23.004 72.5759 22.806C72.5759 22.524 72.6479 22.263 72.7919 22.023C72.9359 21.783 73.1309 21.594 73.3769 21.456C73.6229 21.318 73.8989 21.249 74.2049 21.249C74.5529 21.249 74.9099 21.339 75.2759 21.519L75.1319 21.96C74.8079 21.816 74.5019 21.744 74.2139 21.744C73.8779 21.744 73.6019 21.846 73.3859 22.05C73.1759 22.254 73.0709 22.506 73.0709 22.806C73.0709 23.01 73.1099 23.199 73.1879 23.373C73.2659 23.547 73.3709 23.688 73.5029 23.796C73.6409 23.898 73.7879 23.949 73.9439 23.949C74.1719 23.949 74.4119 23.919 74.6639 23.859C74.9159 23.793 75.1589 23.7 75.3929 23.58L75.5459 24.03C74.9399 24.306 74.3489 24.444 73.7729 24.444C73.4189 24.444 73.1009 24.396 72.8189 24.3C72.5369 24.198 72.3149 24.069 72.1529 23.913C72.1709 24.063 72.1799 24.294 72.1799 24.606V27H71.6849V24.561C71.6849 23.967 71.6549 23.454 71.5949 23.022C71.5349 22.584 71.4149 22.053 71.2349 21.429L71.7029 21.249C71.8649 21.837 71.9969 22.431 72.0989 23.031C72.1289 23.205 72.2099 23.367 72.3419 23.517C72.4799 23.661 72.6899 23.769 72.9719 23.841Z" fill="#DFDCE1"/>
<path d="M96.1637 24.921H100.016V25.416H96.1637V24.921ZM102.999 24.039C102.813 24.039 102.645 24.003 102.495 23.931C102.351 23.859 102.243 23.757 102.171 23.625C102.189 23.901 102.198 24.216 102.198 24.57V27H101.703V24.561C101.703 23.967 101.673 23.454 101.613 23.022C101.553 22.584 101.433 22.053 101.253 21.429L101.721 21.249L102.135 22.824C102.195 23.058 102.297 23.238 102.441 23.364C102.591 23.484 102.768 23.544 102.972 23.544C103.206 23.544 103.407 23.469 103.575 23.319C103.743 23.163 103.827 22.977 103.827 22.761C103.827 22.485 103.77 22.017 103.656 21.357L104.142 21.249C104.262 21.915 104.322 22.413 104.322 22.743C104.322 22.983 104.265 23.202 104.151 23.4C104.037 23.598 103.878 23.754 103.674 23.868C103.47 23.982 103.245 24.039 102.999 24.039Z" fill="#DFDCE1"/>
<path d="M129.601 22.698C129.889 22.698 130.165 22.779 130.429 22.941C130.693 23.103 130.906 23.313 131.068 23.571C131.23 23.829 131.311 24.096 131.311 24.372C131.311 24.648 131.23 24.915 131.068 25.173C130.906 25.431 130.693 25.641 130.429 25.803C130.165 25.965 129.889 26.046 129.601 26.046C129.313 26.046 129.037 25.965 128.773 25.803C128.509 25.641 128.296 25.431 128.134 25.173C127.972 24.915 127.891 24.648 127.891 24.372C127.891 24.096 127.972 23.829 128.134 23.571C128.296 23.313 128.509 23.103 128.773 22.941C129.037 22.779 129.313 22.698 129.601 22.698ZM129.601 25.569C129.799 25.569 129.994 25.512 130.186 25.398C130.378 25.278 130.534 25.125 130.654 24.939C130.774 24.753 130.834 24.564 130.834 24.372C130.834 24.174 130.774 23.985 130.654 23.805C130.534 23.619 130.378 23.469 130.186 23.355C129.994 23.235 129.799 23.175 129.601 23.175C129.409 23.175 129.217 23.235 129.025 23.355C128.833 23.469 128.674 23.619 128.548 23.805C128.428 23.985 128.368 24.174 128.368 24.372C128.368 24.564 128.428 24.753 128.548 24.939C128.674 25.125 128.833 25.278 129.025 25.398C129.217 25.512 129.409 25.569 129.601 25.569Z" fill="#DFDCE1"/>
<path d="M159.165 24.039C158.979 24.039 158.811 24.003 158.661 23.931C158.517 23.859 158.409 23.757 158.337 23.625C158.355 23.901 158.364 24.216 158.364 24.57V27H157.869V24.561C157.869 23.967 157.839 23.454 157.779 23.022C157.719 22.584 157.599 22.053 157.419 21.429L157.887 21.249L158.301 22.824C158.361 23.058 158.463 23.238 158.607 23.364C158.757 23.484 158.934 23.544 159.138 23.544C159.372 23.544 159.573 23.469 159.741 23.319C159.909 23.163 159.993 22.977 159.993 22.761C159.993 22.485 159.936 22.017 159.822 21.357L160.308 21.249C160.428 21.915 160.488 22.413 160.488 22.743C160.488 22.983 160.431 23.202 160.317 23.4C160.203 23.598 160.044 23.754 159.84 23.868C159.636 23.982 159.411 24.039 159.165 24.039Z" fill="#DFDCE1"/>
<path d="M187.937 23.841C187.811 23.721 187.712 23.568 187.64 23.382C187.574 23.196 187.541 23.004 187.541 22.806C187.541 22.524 187.613 22.263 187.757 22.023C187.901 21.783 188.096 21.594 188.342 21.456C188.588 21.318 188.864 21.249 189.17 21.249C189.518 21.249 189.875 21.339 190.241 21.519L190.097 21.96C189.773 21.816 189.467 21.744 189.179 21.744C188.843 21.744 188.567 21.846 188.351 22.05C188.141 22.254 188.036 22.506 188.036 22.806C188.036 23.01 188.075 23.199 188.153 23.373C188.231 23.547 188.336 23.688 188.468 23.796C188.606 23.898 188.753 23.949 188.909 23.949C189.137 23.949 189.377 23.919 189.629 23.859C189.881 23.793 190.124 23.7 190.358 23.58L190.511 24.03C189.905 24.306 189.314 24.444 188.738 24.444C188.384 24.444 188.066 24.396 187.784 24.3C187.502 24.198 187.28 24.069 187.118 23.913C187.136 24.063 187.145 24.294 187.145 24.606V27H186.65V24.561C186.65 23.967 186.62 23.454 186.56 23.022C186.5 22.584 186.38 22.053 186.2 21.429L186.668 21.249C186.83 21.837 186.962 22.431 187.064 23.031C187.094 23.205 187.175 23.367 187.307 23.517C187.445 23.661 187.655 23.769 187.937 23.841Z" fill="#DFDCE1"/>
<path d="M219.487 23.85C219.085 24.192 218.671 24.645 218.245 25.209C217.825 25.773 217.432 26.388 217.066 27.054L216.652 26.829C216.88 26.415 217.156 25.971 217.48 25.497C217.804 25.017 218.119 24.609 218.425 24.273C218.299 24.321 218.182 24.354 218.074 24.372C217.966 24.384 217.84 24.39 217.696 24.39C217.24 24.39 216.877 24.258 216.607 23.994C216.337 23.73 216.202 23.376 216.202 22.932C216.202 22.638 216.271 22.362 216.409 22.104C216.547 21.846 216.736 21.639 216.976 21.483C217.216 21.327 217.474 21.249 217.75 21.249C217.936 21.249 218.11 21.27 218.272 21.312C218.434 21.354 218.611 21.426 218.803 21.528L218.623 21.924C218.341 21.804 218.053 21.744 217.759 21.744C217.459 21.744 217.207 21.855 217.003 22.077C216.799 22.299 216.697 22.566 216.697 22.878C216.697 23.208 216.79 23.463 216.976 23.643C217.162 23.817 217.432 23.904 217.786 23.904C218.266 23.904 218.752 23.772 219.244 23.508L219.487 23.85Z" fill="#DFDCE1"/>
<path d="M247.429 21.267C247.759 23.361 248.452 25.191 249.508 26.757L249.112 27.054C248.638 26.334 248.233 25.566 247.897 24.75C247.567 23.934 247.333 23.118 247.195 22.302C247.045 23.142 246.808 23.97 246.484 24.786C246.166 25.602 245.77 26.358 245.296 27.054L244.891 26.757C245.887 25.293 246.586 23.463 246.988 21.267H247.429Z" fill="#DFDCE1"/>
</g>
<defs>
<clipPath id="clip0_1719_441">
<rect width="269" height="33" fill="white"/>
</clipPath>
</defs>
</svg>
