<svg width="269" height="33" viewBox="0 0 269 33" fill="none" xmlns="http://www.w3.org/2000/svg">
<g style="mix-blend-mode:difference" clip-path="url(#clip0_1719_441)">
<path d="M261.354 11.3536C261.549 11.1583 261.549 10.8417 261.354 10.6465L258.172 7.46449C257.976 7.26923 257.66 7.26923 257.464 7.46449C257.269 7.65975 257.269 7.97633 257.464 8.17159L260.293 11L257.464 13.8284C257.269 14.0237 257.269 14.3403 257.464 14.5356C257.66 14.7308 257.976 14.7308 258.172 14.5356L261.354 11.3536ZM7 11.5L261 11.5L261 10.5L7 10.5L7 11.5Z" fill="white" fill-opacity="0.69"/>
<line x1="11.5" y1="7" x2="11.5" y2="16" stroke="white" stroke-opacity="0.51"/>
<line x1="41" y1="7" x2="41" y2="16" stroke="white" stroke-opacity="0.51"/>
<line x1="70.5" y1="7" x2="70.5" y2="16" stroke="white" stroke-opacity="0.51"/>
<line x1="100" y1="7" x2="100" y2="16" stroke="white" stroke-opacity="0.51"/>
<line x1="129.5" y1="7" x2="129.5" y2="16" stroke="white" stroke-opacity="0.51"/>
<line x1="159" y1="7" x2="159" y2="16" stroke="white" stroke-opacity="0.51"/>
<line x1="188.5" y1="7" x2="188.5" y2="16" stroke="white" stroke-opacity="0.51"/>
<line x1="218" y1="7" x2="218" y2="16" stroke="white" stroke-opacity="0.51"/>
<line x1="247.5" y1="7" x2="247.5" y2="16" stroke="white" stroke-opacity="0.51"/>
<path d="M7.34489 24.921H11.1969V25.416H7.34489V24.921ZM14.1711 23.841C14.0451 23.721 13.9461 23.568 13.8741 23.382C13.8081 23.196 13.7751 23.004 13.7751 22.806C13.7751 22.524 13.8471 22.263 13.9911 22.023C14.1351 21.783 14.3301 21.594 14.5761 21.456C14.8221 21.318 15.0981 21.249 15.4041 21.249C15.7521 21.249 16.1091 21.339 16.4751 21.519L16.3311 21.96C16.0071 21.816 15.7011 21.744 15.4131 21.744C15.0771 21.744 14.8011 21.846 14.5851 22.05C14.3751 22.254 14.2701 22.506 14.2701 22.806C14.2701 23.01 14.3091 23.199 14.3871 23.373C14.4651 23.547 14.5701 23.688 14.7021 23.796C14.8401 23.898 14.9871 23.949 15.1431 23.949C15.3711 23.949 15.6111 23.919 15.8631 23.859C16.1151 23.793 16.3581 23.7 16.5921 23.58L16.7451 24.03C16.1391 24.306 15.5481 24.444 14.9721 24.444C14.6181 24.444 14.3001 24.396 14.0181 24.3C13.7361 24.198 13.5141 24.069 13.3521 23.913C13.3701 24.063 13.3791 24.294 13.3791 24.606V27H12.8841V24.561C12.8841 23.967 12.8541 23.454 12.7941 23.022C12.7341 22.584 12.6141 22.053 12.4341 21.429L12.9021 21.249C13.0641 21.837 13.1961 22.431 13.2981 23.031C13.3281 23.205 13.4091 23.367 13.5411 23.517C13.6791 23.661 13.8891 23.769 14.1711 23.841Z" fill="#DFDCE1"/>
<path d="M36.3717 24.921H40.2237V25.416H36.3717V24.921ZM44.35 21.249C44.464 21.879 44.521 22.377 44.521 22.743C44.521 22.851 44.5 22.98 44.458 23.13C44.548 23.25 44.656 23.349 44.782 23.427C44.914 23.505 45.055 23.544 45.205 23.544C45.421 23.544 45.613 23.469 45.781 23.319C45.949 23.163 46.033 22.977 46.033 22.761C46.033 22.473 45.973 22.005 45.853 21.357L46.339 21.249C46.459 21.915 46.519 22.413 46.519 22.743C46.519 22.983 46.462 23.202 46.348 23.4C46.234 23.598 46.078 23.754 45.88 23.868C45.688 23.982 45.472 24.039 45.232 24.039C44.824 24.039 44.488 23.88 44.224 23.562C44.134 23.706 43.999 23.823 43.819 23.913C43.639 23.997 43.435 24.039 43.207 24.039C43.021 24.039 42.853 24.003 42.703 23.931C42.559 23.859 42.451 23.757 42.379 23.625C42.397 23.901 42.406 24.216 42.406 24.57V27H41.911V24.561C41.911 23.967 41.881 23.454 41.821 23.022C41.761 22.584 41.641 22.053 41.461 21.429L41.929 21.249L42.343 22.824C42.403 23.058 42.505 23.238 42.649 23.364C42.799 23.484 42.976 23.544 43.18 23.544C43.414 23.544 43.615 23.469 43.783 23.319C43.951 23.163 44.035 22.977 44.035 22.761C44.035 22.485 43.978 22.017 43.864 21.357L44.35 21.249Z" fill="#DFDCE1"/>
<path d="M66.7653 24.921H70.6173V25.416H66.7653V24.921ZM73.6005 24.039C73.4145 24.039 73.2465 24.003 73.0965 23.931C72.9525 23.859 72.8445 23.757 72.7725 23.625C72.7905 23.901 72.7995 24.216 72.7995 24.57V27H72.3045V24.561C72.3045 23.967 72.2745 23.454 72.2145 23.022C72.1545 22.584 72.0345 22.053 71.8545 21.429L72.3225 21.249L72.7365 22.824C72.7965 23.058 72.8985 23.238 73.0425 23.364C73.1925 23.484 73.3695 23.544 73.5735 23.544C73.8075 23.544 74.0085 23.469 74.1765 23.319C74.3445 23.163 74.4285 22.977 74.4285 22.761C74.4285 22.485 74.3715 22.017 74.2575 21.357L74.7435 21.249C74.8635 21.915 74.9235 22.413 74.9235 22.743C74.9235 22.983 74.8665 23.202 74.7525 23.4C74.6385 23.598 74.4795 23.754 74.2755 23.868C74.0715 23.982 73.8465 24.039 73.6005 24.039Z" fill="#DFDCE1"/>
<path d="M97.1349 24.921H100.987V25.416H97.1349V24.921ZM102.674 24.561C102.674 23.967 102.644 23.454 102.584 23.022C102.524 22.584 102.404 22.053 102.224 21.429L102.692 21.249C102.884 21.867 103.01 22.401 103.07 22.851C103.136 23.295 103.169 23.868 103.169 24.57V27H102.674V24.561Z" fill="#DFDCE1"/>
<path d="M129.601 22.698C129.889 22.698 130.165 22.779 130.429 22.941C130.693 23.103 130.906 23.313 131.068 23.571C131.23 23.829 131.311 24.096 131.311 24.372C131.311 24.648 131.23 24.915 131.068 25.173C130.906 25.431 130.693 25.641 130.429 25.803C130.165 25.965 129.889 26.046 129.601 26.046C129.313 26.046 129.037 25.965 128.773 25.803C128.509 25.641 128.296 25.431 128.134 25.173C127.972 24.915 127.891 24.648 127.891 24.372C127.891 24.096 127.972 23.829 128.134 23.571C128.296 23.313 128.509 23.103 128.773 22.941C129.037 22.779 129.313 22.698 129.601 22.698ZM129.601 25.569C129.799 25.569 129.994 25.512 130.186 25.398C130.378 25.278 130.534 25.125 130.654 24.939C130.774 24.753 130.834 24.564 130.834 24.372C130.834 24.174 130.774 23.985 130.654 23.805C130.534 23.619 130.378 23.469 130.186 23.355C129.994 23.235 129.799 23.175 129.601 23.175C129.409 23.175 129.217 23.235 129.025 23.355C128.833 23.469 128.674 23.619 128.548 23.805C128.428 23.985 128.368 24.174 128.368 24.372C128.368 24.564 128.428 24.753 128.548 24.939C128.674 25.125 128.833 25.278 129.025 25.398C129.217 25.512 129.409 25.569 129.601 25.569Z" fill="#DFDCE1"/>
<path d="M158.84 24.561C158.84 23.967 158.81 23.454 158.75 23.022C158.69 22.584 158.57 22.053 158.39 21.429L158.858 21.249C159.05 21.867 159.176 22.401 159.236 22.851C159.302 23.295 159.335 23.868 159.335 24.57V27H158.84V24.561Z" fill="#DFDCE1"/>
<path d="M188.566 24.039C188.38 24.039 188.212 24.003 188.062 23.931C187.918 23.859 187.81 23.757 187.738 23.625C187.756 23.901 187.765 24.216 187.765 24.57V27H187.27V24.561C187.27 23.967 187.24 23.454 187.18 23.022C187.12 22.584 187 22.053 186.82 21.429L187.288 21.249L187.702 22.824C187.762 23.058 187.864 23.238 188.008 23.364C188.158 23.484 188.335 23.544 188.539 23.544C188.773 23.544 188.974 23.469 189.142 23.319C189.31 23.163 189.394 22.977 189.394 22.761C189.394 22.485 189.337 22.017 189.223 21.357L189.709 21.249C189.829 21.915 189.889 22.413 189.889 22.743C189.889 22.983 189.832 23.202 189.718 23.4C189.604 23.598 189.445 23.754 189.241 23.868C189.037 23.982 188.812 24.039 188.566 24.039Z" fill="#DFDCE1"/>
<path d="M218.116 21.249C218.23 21.879 218.287 22.377 218.287 22.743C218.287 22.851 218.266 22.98 218.224 23.13C218.314 23.25 218.422 23.349 218.548 23.427C218.68 23.505 218.821 23.544 218.971 23.544C219.187 23.544 219.379 23.469 219.547 23.319C219.715 23.163 219.799 22.977 219.799 22.761C219.799 22.473 219.739 22.005 219.619 21.357L220.105 21.249C220.225 21.915 220.285 22.413 220.285 22.743C220.285 22.983 220.228 23.202 220.114 23.4C220 23.598 219.844 23.754 219.646 23.868C219.454 23.982 219.238 24.039 218.998 24.039C218.59 24.039 218.254 23.88 217.99 23.562C217.9 23.706 217.765 23.823 217.585 23.913C217.405 23.997 217.201 24.039 216.973 24.039C216.787 24.039 216.619 24.003 216.469 23.931C216.325 23.859 216.217 23.757 216.145 23.625C216.163 23.901 216.172 24.216 216.172 24.57V27H215.677V24.561C215.677 23.967 215.647 23.454 215.587 23.022C215.527 22.584 215.407 22.053 215.227 21.429L215.695 21.249L216.109 22.824C216.169 23.058 216.271 23.238 216.415 23.364C216.565 23.484 216.742 23.544 216.946 23.544C217.18 23.544 217.381 23.469 217.549 23.319C217.717 23.163 217.801 22.977 217.801 22.761C217.801 22.485 217.744 22.017 217.63 21.357L218.116 21.249Z" fill="#DFDCE1"/>
<path d="M246.736 23.841C246.61 23.721 246.511 23.568 246.439 23.382C246.373 23.196 246.34 23.004 246.34 22.806C246.34 22.524 246.412 22.263 246.556 22.023C246.7 21.783 246.895 21.594 247.141 21.456C247.387 21.318 247.663 21.249 247.969 21.249C248.317 21.249 248.674 21.339 249.04 21.519L248.896 21.96C248.572 21.816 248.266 21.744 247.978 21.744C247.642 21.744 247.366 21.846 247.15 22.05C246.94 22.254 246.835 22.506 246.835 22.806C246.835 23.01 246.874 23.199 246.952 23.373C247.03 23.547 247.135 23.688 247.267 23.796C247.405 23.898 247.552 23.949 247.708 23.949C247.936 23.949 248.176 23.919 248.428 23.859C248.68 23.793 248.923 23.7 249.157 23.58L249.31 24.03C248.704 24.306 248.113 24.444 247.537 24.444C247.183 24.444 246.865 24.396 246.583 24.3C246.301 24.198 246.079 24.069 245.917 23.913C245.935 24.063 245.944 24.294 245.944 24.606V27H245.449V24.561C245.449 23.967 245.419 23.454 245.359 23.022C245.299 22.584 245.179 22.053 244.999 21.429L245.467 21.249C245.629 21.837 245.761 22.431 245.863 23.031C245.893 23.205 245.974 23.367 246.106 23.517C246.244 23.661 246.454 23.769 246.736 23.841Z" fill="#DFDCE1"/>
</g>
<defs>
<clipPath id="clip0_1719_441">
<rect width="269" height="33" fill="white"/>
</clipPath>
</defs>
</svg>
