<svg width="402" height="323" viewBox="0 0 402 323" fill="none" xmlns="http://www.w3.org/2000/svg">
<rect width="402" height="323" fill="#C4A5CE"/>
<circle cx="201" cy="176" r="129" fill="#808DCF"/>
<circle cx="201" cy="223" r="67" fill="#80CFCA"/>
<path d="M377.425 27.005V48.425C377.425 51.845 376.36 54.545 374.23 56.525C372.13 58.475 369.22 59.45 365.5 59.45C363.07 59.45 360.94 59 359.11 58.1C357.31 57.2 355.915 55.925 354.925 54.275C353.965 52.625 353.485 50.675 353.485 48.425V27.005H358.795V48.38C358.795 49.85 359.065 51.11 359.605 52.16C360.145 53.21 360.91 54.005 361.9 54.545C362.89 55.085 364.09 55.355 365.5 55.355C366.91 55.355 368.11 55.085 369.1 54.545C370.09 54.005 370.84 53.225 371.35 52.205C371.89 51.155 372.16 49.88 372.16 48.38V27.005H377.425Z" fill="black"/>
<path d="M115.545 138V106.005H125.85C129.69 106.005 132.615 106.74 134.625 108.21C136.635 109.68 137.64 111.81 137.64 114.6C137.64 116.4 137.205 117.9 136.335 119.1C135.495 120.3 134.265 121.125 132.645 121.575C133.815 121.845 134.85 122.325 135.75 123.015C136.68 123.675 137.385 124.5 137.865 125.49C138.345 126.48 138.585 127.575 138.585 128.775C138.585 131.775 137.625 134.055 135.705 135.615C133.815 137.175 131.07 137.97 127.47 138H115.545ZM120.765 123.51V133.905H127.38C129.27 133.905 130.74 133.455 131.79 132.555C132.84 131.625 133.365 130.35 133.365 128.73C133.365 127.68 133.14 126.765 132.69 125.985C132.27 125.205 131.625 124.605 130.755 124.185C129.915 123.735 128.925 123.51 127.785 123.51H120.765ZM120.765 120H126.3C128.4 120 129.93 119.61 130.89 118.83C131.88 118.02 132.375 116.79 132.375 115.14C132.375 113.46 131.85 112.2 130.8 111.36C129.75 110.52 128.13 110.1 125.94 110.1H120.765V120Z" fill="black"/>
<path d="M160.948 204.005H165.988L177.868 236H172.243L169.723 228.62H157.258L154.738 236H149.113L160.948 204.005ZM168.463 224.525L163.468 210.125L158.518 224.525H168.463Z" fill="black"/>
</svg>
